<svg width="684" height="277.7" viewBox="-0.6 -7 684 277.7" xmlns="http://www.w3.org/2000/svg" xmlns:xlink="http://www.w3.org/1999/xlink" overflow="hidden"><g><g id="change1_1"><path d="M57.731 127.346C48.324 112.293 49.926 91.8 61.571 78.21 73.216 64.62 94.123 58.848 111.699 64.369 111.654 50.671 121.208 37.383 134.717 32.356 148.226 27.329 164.823 30.884 174.706 40.921 177.579 11.374 216.144-7.05 245.9 2.567 275.656 12.184 294.009 42.331 295.972 71.944 301.123 60.741 321.254 62.37 329.437 71.831 337.646 61.806 352.293 54.27 364.307 59.932 376.321 65.594 383.012 79.755 379.444 91.968 406.372 67.956 457.466 77.313 472.913 109.085 486.326 76.933 524.199 54.221 560.228 60.451 596.257 66.681 623.773 104.41 613.272 137.512 629.747 127.873 664.792 125.533 674.508 145.53 683.46 163.955 656.108 192.101 606.145 195.43 605.513 195.472 581.532 230.784 529.643 237.653 483.254 243.795 439.306 222.299 418.145 193.127 415.703 219.229 382.339 223.611 367.756 210.929 346.777 242.095 302.576 257.394 265.206 246.424 247.002 264.356 217.064 270.67 192.497 261.757 167.93 252.844 150.193 229.234 149.42 204.416 141.274 214.776 129.35 223.364 115.712 224.305 102.074 225.246 87.353 216.418 85.731 203.61 69.748 212.019 50.251 215.531 32.821 210.269 15.39 205.007-0.585 189.95 0.014 172.696 1.436 131.779 57.731 127.346 57.731 127.346Z" fill="#FFFFFF"/></g></g><g><g id="change2_1"><path d="M674.799 146.223C669.5 156.991 652.954 166.001 637.074 169.344 617.515 173.462 600.015 169.859 600.015 169.859 600.015 169.859 573.25 190.447 524.354 197.138 455.172 206.605 400.825 135.374 400.825 135.374 400.825 135.374 397.737 156.991 380.752 160.08 363.767 163.168 351.414 143.095 351.414 143.095 322.076 200.227 269.576 170.889 269.576 170.889 218.62 229.565 159.944 167.801 159.944 167.801 127.518 212.58 104.356 172.433 104.356 172.433 104.356 172.433 81.195 178.609 76.562 160.08 71.93 141.551 105.9 130.742 105.9 130.742 48.768 99.86 111.697 64.369 111.697 64.369 111.694 63.401 111.751 62.437 111.841 61.476 113.034 48.836 122.16 37.028 134.715 32.356 148.224 27.329 164.821 30.884 174.704 40.921 177.577 11.374 216.142-7.05 245.898 2.567 275.654 12.184 294.007 42.331 295.97 71.944 301.121 60.741 321.252 62.37 329.435 71.831 337.644 61.806 352.291 54.27 364.305 59.932 376.319 65.593 383.01 79.755 379.442 91.968 406.37 67.956 457.464 77.313 472.911 109.085 486.324 76.933 524.197 54.221 560.226 60.452 596.255 66.682 623.771 104.411 613.27 137.513 629.745 127.874 664.79 125.534 674.506 145.531 674.62 145.757 674.7 145.993 674.799 146.223Z" fill="#FFFFFF"/></g></g></svg>