<?xml version="1.0" encoding="UTF-8" standalone="no"?><svg xmlns="http://www.w3.org/2000/svg" xmlns:xlink="http://www.w3.org/1999/xlink" contentScriptType="text/ecmascript" fill="#000000" width="1008.7" zoomAndPan="magnify" contentStyleType="text/css" viewBox="-2.9 -1.8 1008.7 417.0" height="417" preserveAspectRatio="xMidYMid meet" version="1"><g id="change1_1"><path fill="#badcac" d="M411,92.3c12.1-8.6,23.6-16.8,35-24.9c30.2-21.4,60.5-42.6,95.5-55.7c20.2-7.5,40.9-13.5,62.6-11.3 c37.8,3.9,64,24.9,80.9,58.2c1.9,3.8,3.6,7.8,5.8,12.8c3.6-2.2,6.9-4.3,10.2-6.3C750,35,802,13.6,860.3,9.4 C941.6,3.6,997.1,52.7,1003,134c2.8,39.3-2.8,76.8-17.6,112.6c-14.2,34.4-30.8,67.7-46.7,101.3c-3.8,7.9-10.5,13.1-20.2,11.5 c-14.9-2.4-20.7-17.2-12.7-30.8c25.4-43.3,45.1-89,56.4-138.1c6.1-26.6,4.8-53.4-1.7-79.7c-9.6-39.1-38-62.4-79.4-62.9 c-20.4-0.3-41.4,2.2-61.3,6.9c-39.8,9.4-76.4,27.1-110,50.4c-3.5,2.4-7.6,7.8-7.3,11.4c5.6,61.8-14.2,116.9-46.8,167.4 c-18.9,29.4-41.4,56.7-64.3,83.2c-9.8,11.4-24,20.3-37.8,26.6c-32.9,15.1-70.6-7.4-73-43.6c-1-15.5,1.5-31.9,6-46.9 c18.2-60.4,56.1-108.2,101.8-150.2c20-18.4,41.1-35.5,62.3-52.6c6-4.8,6.7-8.6,4-15.4c-15.3-39.6-44-55.4-84.5-42.2 c-23.5,7.7-46.2,19.2-67.2,32.2c-27.1,16.7-52.3,36.4-78.1,55.3c-2.8,2.1-5.2,7.1-4.9,10.6c6.4,89.7-33.4,161.9-87.2,228.5 c-8.4,10.4-20.1,19.1-31.9,25.7c-36.2,20-73.8-2.4-72.4-43.8c0.5-16.6,4.5-34.1,11-49.4c30.1-70.9,76-130.5,134.2-180.7 c1.3-1.2,2.7-2.3,3.9-3.3c-0.2-1.5-0.2-2.6-0.5-3.6C359.1,55,320.6,37.3,265.4,66c-66.3,34.5-120.9,83.4-164.2,144.5 c-25.4,35.9-47.1,73.8-63.8,114.6c-4.7,11.5-14,16.2-24.1,12.7C2.8,334.1-2.9,324,1.5,313.5c54.9-130,138.2-234.2,271-291.6 c51.6-22.3,109.8,4.5,133.4,58.6C407.5,84,409,87.6,411,92.3z M662.2,138.9c-18.1,16.1-36.5,31.8-54.1,48.4 c-38.9,36.8-70.7,78.6-86.5,130.7c-2.4,7.9-4.3,16.3-4.1,24.4c0.3,14.4,12.2,21.5,24.7,14.9c8.2-4.4,16.3-9.8,22.6-16.5 c35.7-37.6,64.9-79.6,84.6-127.8C658.9,189.7,664.5,165.5,662.2,138.9z M382.1,167.6c-1-0.5-2.1-1.1-3.1-1.6 c-13.9,15.7-28.7,30.6-41.5,47.1c-26.8,34.7-51.3,71-66.4,112.6c-3.2,8.9-4.2,19.1-3.8,28.6c0.4,9.6,6.9,12.7,14.9,7.5 c9-5.9,18.3-12.3,24.9-20.5c27.3-34.4,50.2-71.6,64.5-113.5C378.2,208.2,382.4,188.3,382.1,167.6z"/></g></svg>