<?xml version="1.0" encoding="UTF-8" standalone="no"?><svg xmlns="http://www.w3.org/2000/svg" xmlns:xlink="http://www.w3.org/1999/xlink" contentScriptType="text/ecmascript" fill="#000000" width="1226.7" zoomAndPan="magnify" contentStyleType="text/css" viewBox="-3.5 -2.5 1226.7 332.7" height="332.7" preserveAspectRatio="xMidYMid meet" version="1"><g id="change1_1"><path fill="#ffffff" d="M440,62.1c-20.6-2.3-41.4-2.7-62-5c-8.1-0.9-13.5,0.8-18.1,7.2c-16.9,23.4-34.3,46.5-51,70 c-25.4,35.8-55.3,67-94,88.2c-16.6,9.1-35,16.6-53.5,20.3c-28.8,5.7-57.1-0.3-73-34.2c-7.2-15.3-12.5-31.5-17.8-47.6 c-3.2-9.8-4.3-20.3-7.1-30.2c-4.1-14.5-9.9-18.4-24.5-15.3c-8.6,1.8-17,5-25.1,8.6c-12,5.3-17.4,22-11.9,33.8 c2.4,5.2,4.5,10.8,5.5,16.4c6,36.1,18.7,69.3,41.6,98.1c21,26.4,47.4,44.3,81.5,49.5c54.2,8.3,101.6-8.5,145.1-39.3 s77.3-71,109.2-113c2.6-3.4,5.3-6.7,7.7-9.7c13.9,22.3,26.5,44.1,40.7,64.8c28.5,41.5,68.7,65.6,118,74.2c26,4.5,51.5,2.1,75.8-9.9 c34.4-17,62.7-41.8,89.5-68.7c33.2-33.3,66.2-66.7,100-100.7c0.8,1.4,1.6,2.3,1.8,3.3c0.9,4.7,2,9.4,2.4,14.2 c2.2,31.4,16.4,57.1,37.1,80c18.1,20,39.8,35.1,63.6,47.7c26.9,14.2,53.4,13.7,79.6-0.4c48.7-26.1,94-56.7,126.5-102.7 c26.5-37.5,51.9-75.7,78.2-113.3c17.4-24.9,15.1-33.5-13.4-44.6c-16.2-6.3-19.4-5.2-30,8.4c-32.5,41.7-64.8,83.7-98.1,124.9 c-15.2,18.8-33.2,35.3-56.2,44.3c-50.4,19.6-101.5,8-115.8-55.4c-5.4-23.8-8.7-49.2-5.9-73.7c2.1-18.6,2.1-18.6-15.6-24.9 c-9-3.2-18-6.6-27-10c-13.7-5.1-22-3.2-31.5,8.2c-11.6,13.9-23.1,28-34.4,42.2c-29.6,37.7-61.7,73-99.5,102.7 c-26.6,20.9-54.4,39.7-87.6,48.9c-26.9,7.4-51.1,2.9-72.9-15c-18.8-15.4-33.8-34-41.6-56.7c-6.8-19.7-10.8-40.5-14-61.2 C459.8,69.3,457.2,64,440,62.1z"/></g></svg>