<?xml version="1.0" encoding="UTF-8" standalone="no"?><svg xmlns="http://www.w3.org/2000/svg" xmlns:xlink="http://www.w3.org/1999/xlink" contentScriptType="text/ecmascript" fill="#000000" width="360.8" zoomAndPan="magnify" contentStyleType="text/css" viewBox="-0.0 -0.5 360.8 383.0" height="383" preserveAspectRatio="xMidYMid meet" version="1"><g id="change1_1"><path fill="#488097" d="M14.082,287.904c-0.192,0.113-0.389,0.21-0.589,0.298c0.213-0.093,0.421-0.198,0.622-0.317L220.722,163.92 v0.001v-0.001l0.047-0.028c2.165-1.323,3.488-3.675,3.487-6.214V9.191c0-0.288-0.036-0.567-0.085-0.841 c0.05,0.277,0.085,0.557,0.085,0.841v-2.66c0-1.883-2.007-3.759-4.388-5.006V1.521c-2.975-1.502-6.517-1.351-9.353,0.4l-206.4,124.2 c-2.246,1.349-3.618,3.777-3.615,6.397v149.535c-0.002,4.378,3.546,7.928,7.924,7.93c1.432,0.001,2.836-0.388,4.065-1.121 c0.006-0.004,0.011-0.008,0.017-0.012L14.082,287.904z M223.875,7.332c-0.101-0.236-0.228-0.457-0.365-0.672 c0.022,0.034,0.05,0.06,0.071,0.095C223.693,6.941,223.791,7.134,223.875,7.332z M224.124,8.123 c-0.056-0.242-0.127-0.477-0.218-0.703C223.998,7.648,224.069,7.883,224.124,8.123z M223.201,6.245 c-0.089-0.111-0.173-0.226-0.271-0.328C223.027,6.018,223.112,6.133,223.201,6.245z M222.233,5.318 c0.125,0.087,0.238,0.192,0.355,0.292C222.472,5.511,222.359,5.407,222.233,5.318z M220.155,4.519 c-0.09-0.012-0.18-0.02-0.271-0.027l0-0.014C219.975,4.486,220.064,4.507,220.155,4.519z M221.843,5.088 c-0.131-0.075-0.259-0.154-0.398-0.216C221.583,4.934,221.711,5.014,221.843,5.088z M221.013,4.719 c-0.145-0.048-0.288-0.102-0.439-0.136C220.724,4.617,220.867,4.67,221.013,4.719z M219.883,4.479l0,0.014 c-0.083-0.006-0.162-0.023-0.246-0.025C219.72,4.469,219.801,4.472,219.883,4.479z M218.874,4.5 c-0.031,0.004-0.061,0.014-0.092,0.019C218.813,4.514,218.843,4.504,218.874,4.5z M218.068,4.693 c-0.074,0.024-0.147,0.05-0.22,0.077C217.921,4.743,217.994,4.717,218.068,4.693z M5.65,283.079c0,0.003,0,0.005,0,0.008 c0-0.002,0-0.004,0-0.006V283.079z M6.405,285.873c0.04,0.07,0.082,0.138,0.126,0.206c-0.028-0.044-0.059-0.083-0.086-0.128 C6.43,285.927,6.42,285.899,6.405,285.873z M5.697,283.765c0.008,0.061,0.018,0.122,0.028,0.182 C5.715,283.886,5.704,283.826,5.697,283.765z M5.832,284.467c0.014,0.054,0.026,0.108,0.042,0.161 C5.858,284.575,5.846,284.521,5.832,284.467z M6.1,285.275c0.004,0.009,0.008,0.017,0.012,0.025 C6.109,285.292,6.104,285.284,6.1,285.275z M7.004,286.719c0.077,0.089,0.156,0.177,0.238,0.261 C7.16,286.896,7.081,286.809,7.004,286.719z M6.682,286.307c0.06,0.084,0.121,0.166,0.185,0.247 C6.804,286.474,6.742,286.392,6.682,286.307z M7.644,287.355c-0.096-0.081-0.189-0.166-0.281-0.255 C7.454,287.188,7.547,287.274,7.644,287.355z M8.212,287.774c0.1,0.065,0.202,0.127,0.306,0.186 C8.414,287.902,8.313,287.839,8.212,287.774z M7.765,287.453c0.099,0.079,0.201,0.155,0.305,0.228 C7.966,287.609,7.865,287.532,7.765,287.453z M8.992,288.196c-0.1-0.044-0.197-0.092-0.295-0.142 C8.794,288.104,8.892,288.152,8.992,288.196z M9.204,288.283c0.095,0.038,0.192,0.073,0.29,0.106 C9.396,288.356,9.3,288.32,9.204,288.283z M9.719,288.457c0.101,0.029,0.203,0.055,0.306,0.078 C9.923,288.512,9.821,288.486,9.719,288.457z M10.239,288.578c0.115,0.021,0.232,0.039,0.35,0.053 C10.471,288.617,10.355,288.6,10.239,288.578z M10.768,288.65c0.134,0.011,0.269,0.018,0.406,0.02 C11.038,288.668,10.903,288.661,10.768,288.65z M11.302,288.671c0.479-0.005,0.953-0.069,1.411-0.193 C12.247,288.604,11.774,288.667,11.302,288.671z M13.384,288.246c-0.194,0.08-0.389,0.149-0.588,0.206 C12.996,288.395,13.192,288.326,13.384,288.246z M356.513,256.2L150.052,380.074c-3.256,1.953-7.322,1.953-10.578,0L12.506,303.893 c-5.664-3.083-4.086-10.052-1.616-13.438c-0.007,0.012-0.017,0.023-0.024,0.035c-1.366,2.272-0.632,5.221,1.64,6.587 c-2.261-1.362-2.99-4.3-1.627-6.561c0.116-0.192,0.245-0.376,0.386-0.55c-0.127,0.15-0.251,0.32-0.375,0.489 c0.399-0.651,0.946-1.197,1.599-1.593c0.005-0.003,0.011-0.005,0.017-0.009l1.62-0.972c-0.014,0.009-0.03,0.015-0.044,0.023 l0.033-0.02c0.004-0.002,0.008-0.003,0.011-0.006l206.6-123.957c0.015-0.009,0.028-0.021,0.043-0.03l3.487-2.092l132.257,79.354 v-0.004c0.028,0.019,0.052,0.044,0.079,0.063c1.182,0.744,1.918,1.921,2.151,3.2c-0.003-0.009-0.006-0.018-0.009-0.026 c0.128,0.649,0.105,1.299-0.03,1.919c-0.027,0.123-0.053,0.245-0.09,0.366c-0.038,0.126-0.084,0.249-0.132,0.371 c-0.071,0.176-0.152,0.35-0.245,0.52c-0.046,0.085-0.086,0.173-0.137,0.255c-0.033,0.053-0.071,0.103-0.106,0.155 c-0.087,0.128-0.18,0.253-0.28,0.372c-0.054,0.064-0.109,0.126-0.166,0.187c-0.098,0.106-0.202,0.206-0.31,0.303 c-0.06,0.053-0.117,0.109-0.18,0.159c-0.172,0.139-0.351,0.271-0.544,0.387c0.192-0.115,0.372-0.247,0.544-0.387 c0.063-0.051,0.12-0.106,0.18-0.159c0.108-0.097,0.212-0.197,0.31-0.303c0.057-0.061,0.112-0.123,0.166-0.187 c0.1-0.119,0.192-0.244,0.28-0.372c0.035-0.052,0.073-0.102,0.106-0.155c0.017-0.027,0.037-0.05,0.053-0.077 c0.034-0.057,0.052-0.119,0.084-0.177c0.092-0.169,0.175-0.341,0.245-0.52c0.049-0.123,0.094-0.246,0.132-0.371 c0.036-0.121,0.063-0.243,0.09-0.366c0.14-0.631,0.152-1.271,0.039-1.893C360.212,248.303,360.253,254.254,356.513,256.2z"/></g><g id="change2_1"><path fill="#e9cab2" d="M210.057,162.106L26.585,272.189c-3.1,1.86-7.121,0.855-8.981-2.245c-0.61-1.017-0.933-2.181-0.933-3.368 V137.1c0-2.299,1.207-4.43,3.178-5.613L206.786,19.326c2.016-1.21,4.632-0.556,5.842,1.46c0.397,0.662,0.607,1.419,0.607,2.191 v133.516C213.235,158.792,212.029,160.923,210.057,162.106z"/></g><g id="change3_1"><path fill="#bb8539" d="M181.427,64.692l6.458-3.836c0.395-0.235,0.906-0.105,1.14,0.29c0.077,0.129,0.117,0.276,0.117,0.426v14.512 c0,0.294-0.154,0.566-0.407,0.716l-14.58,8.661c-0.395,0.235-0.906,0.105-1.14-0.29c-0.077-0.129-0.117-0.276-0.117-0.426V73.139 c0-0.294,0.154-0.566,0.407-0.716l7.308-4.341c0.252-0.15,0.407-0.422,0.407-0.715v-1.959 C181.02,65.114,181.175,64.842,181.427,64.692z M181.02,101.727v1.958c0,0.294-0.155,0.566-0.407,0.716l-7.308,4.341 c-0.253,0.15-0.407,0.422-0.407,0.716v11.606c0,0.46,0.372,0.832,0.831,0.833c0.15,0,0.297-0.04,0.426-0.117l14.58-8.662 c0.252-0.15,0.407-0.422,0.407-0.715V97.89c0-0.46-0.373-0.832-0.832-0.832c-0.15,0-0.296,0.04-0.425,0.117l-6.458,3.836 C181.175,101.161,181.02,101.433,181.02,101.727z M143.649,106.554V170.2c0,0.621-0.323,1.197-0.853,1.52l-83.129,50.733 c-0.84,0.513-1.936,0.247-2.448-0.592c-0.171-0.279-0.261-0.6-0.261-0.928v-63.647c0-0.621,0.323-1.197,0.853-1.52l83.13-50.732 c0.84-0.512,1.936-0.246,2.448,0.594C143.559,105.907,143.649,106.227,143.649,106.554z M65.063,158.206 c0-1.263-0.861-1.779-1.913-1.148c-1.138,0.788-1.845,2.06-1.912,3.443c0,1.262,0.861,1.779,1.912,1.147 C64.289,160.861,64.996,159.589,65.063,158.206z M71.017,154.763c0-1.262-0.861-1.779-1.913-1.148 c-1.139,0.788-1.846,2.06-1.913,3.443c0,1.262,0.861,1.779,1.913,1.148C70.243,157.419,70.95,156.146,71.017,154.763z M76.97,151.32 c0-1.262-0.861-1.779-1.913-1.147c-1.138,0.787-1.845,2.06-1.912,3.442c0,1.263,0.86,1.779,1.912,1.148 C76.196,153.976,76.903,152.703,76.97,151.32z M113.624,169.62c0-0.547-0.443-0.991-0.99-0.992c-0.18,0-0.356,0.049-0.51,0.141 l-17.41,10.36c-0.3,0.179-0.484,0.503-0.484,0.852v7.226c-0.001,0.547,0.442,0.992,0.989,0.993c0.18,0,0.356-0.048,0.511-0.141 l17.41-10.359c0.3-0.179,0.484-0.503,0.484-0.852L113.624,169.62z"/></g><g id="change4_1"><path fill="#61a0ba" d="M260.429,291.785l-33.75,20.249c-3.644,1.931-8.007,1.931-11.651,0l-18.169-10.9 c-3.217-1.93-3.217-5.06,0-6.99l33.75-20.25c3.643-1.931,8.007-1.931,11.65,0l18.17,10.9 C263.646,286.725,263.646,289.854,260.429,291.785z M54.206,281.663l66.367,39.82c2.518,1.334,5.535,1.334,8.053,0l157.325-94.4 c2.224-1.334,2.224-3.5,0-4.832l-66.367-39.82c-2.518-1.334-5.535-1.334-8.053,0l-157.325,94.4 C51.982,278.165,51.982,280.329,54.206,281.663z M109.715,314.969l165.379-99.228 M94.831,306.041l165.379-99.23 M79.947,297.111 l165.379-99.227 M65.063,288.184l165.379-99.234 M199.02,189.942l74.42,44.658 M182.482,199.87l74.42,44.652 M165.944,209.793 l74.421,44.652 M223.827,264.368l-74.421-44.652 M207.289,274.29l-74.421-44.652 M116.33,239.561l74.421,44.652 M99.793,249.479 l74.42,44.652 M83.255,259.4l74.42,44.653 M66.717,269.323l74.42,44.652 M103.867,176.857l-0.093,0.2l-0.146-0.081 c-0.552-0.307-1.286,0.052-1.64,0.8c-0.379,0.638-0.225,1.458,0.36,1.914l0.145,0.081l2,1.113l1.28-2.715l0.094-0.2 c0.379-0.637,0.225-1.457-0.359-1.914c-0.553-0.306-1.287,0.053-1.641,0.803L103.867,176.857z M98.117,180.212l-0.093,0.2 l-0.146-0.081c-0.552-0.307-1.286,0.051-1.639,0.8c-0.38,0.637-0.226,1.458,0.359,1.914l0.145,0.081l2,1.113l1.281-2.715l0.093-0.2 c0.379-0.637,0.225-1.457-0.359-1.914c-0.553-0.305-1.287,0.054-1.641,0.803L98.117,180.212z M109.655,173.221l-0.093,0.2 l-0.146-0.081c-0.552-0.307-1.286,0.051-1.639,0.8c-0.38,0.637-0.226,1.458,0.359,1.914l0.145,0.081l2,1.113l1.281-2.715l0.093-0.2 c0.379-0.637,0.225-1.457-0.359-1.914c-0.553-0.305-1.287,0.054-1.641,0.803L109.655,173.221z M143.649,106.553v10.077 l-86.691,52.906v-12.25c0-0.621,0.323-1.197,0.853-1.52l83.13-50.732c0.84-0.512,1.936-0.246,2.448,0.594 c0.17,0.279,0.26,0.599,0.26,0.926L143.649,106.553z M65.063,158.206c0-1.263-0.861-1.779-1.913-1.148 c-1.138,0.788-1.845,2.06-1.912,3.443c0,1.262,0.861,1.779,1.912,1.147C64.289,160.861,64.996,159.589,65.063,158.206z M71.017,154.763c0-1.262-0.861-1.779-1.913-1.148c-1.139,0.788-1.846,2.06-1.913,3.443c0,1.262,0.861,1.779,1.913,1.148 C70.243,157.419,70.95,156.146,71.017,154.763z M76.97,151.32c0-1.262-0.861-1.779-1.913-1.147c-1.138,0.787-1.845,2.06-1.912,3.442 c0,1.263,0.86,1.779,1.912,1.148C76.196,153.976,76.903,152.703,76.97,151.32z"/></g><g id="change5_1"><path fill="#142343" d="M359.259,244.372c-0.247-1.479-1.116-2.781-2.388-3.576c-0.033-0.022-0.067-0.05-0.1-0.07l0,0 l-132.258-79.355c-0.158-0.094-0.355-0.094-0.513,0l-0.277,0.167c0.674-1.174,1.03-2.505,1.033-3.859V6.532 c0-1.886-1.741-3.923-4.656-5.45c-3.132-1.576-6.856-1.418-9.843,0.418L3.86,125.7c-2.389,1.442-3.852,4.027-3.86,6.817v149.536 c-0.02,3.041,1.618,5.852,4.275,7.333c1.265,0.725,2.697,1.109,4.155,1.114c0.675-0.004,1.346-0.091,2-0.259 c-0.007,0.012-0.016,0.022-0.023,0.034c-1.795,2.521-2.551,5.637-2.11,8.7c0.414,2.3,1.873,4.278,3.948,5.352L139.217,380.5 c3.413,2.052,7.679,2.052,11.092,0l206.435-123.859C360.824,254.521,360.674,248.256,359.259,244.372z M224.259,162.383l132,79.2 c0.13,0.084,0.252,0.18,0.365,0.286l0.159,0.138c0.044,0.037,0.095,0.067,0.15,0.086c0.669,0.602,1.129,1.402,1.312,2.284 c-0.004,0.033-0.004,0.067,0,0.1c0.206,1.079-0.006,2.196-0.593,3.125v0.007c-0.105,0.16-0.221,0.313-0.346,0.458 c-0.023,0.027-0.045,0.055-0.069,0.081c-0.112,0.123-0.231,0.239-0.356,0.347c-0.036,0.031-0.069,0.065-0.107,0.1 c-0.161,0.133-0.332,0.254-0.511,0.362L149.794,372.829c-3.096,1.861-6.967,1.861-10.063,0L12.763,296.648 c-0.234-0.144-0.454-0.309-0.658-0.494c-0.041-0.037-0.083-0.073-0.123-0.111c-0.187-0.179-0.357-0.376-0.508-0.587 c-0.025-0.035-0.047-0.073-0.071-0.109c-0.321-0.48-0.539-1.021-0.64-1.589c-0.221-1.233,0.103-2.502,0.89-3.477 c0.021-0.031,0.039-0.065,0.052-0.1c0.11-0.129,0.229-0.252,0.354-0.367c0.015-0.009,0.035,0,0.05-0.016l0,0l0.019-0.017 l0.021-0.018c0.187-0.182,0.392-0.345,0.612-0.487l1.608-0.964l0.013-0.008l0,0L89.566,243.2L224.259,162.383z M223.759,157.683 c-0.007,2.38-1.255,4.583-3.292,5.813L106.284,232l-92.42,55.452c-0.127,0.076-0.258,0.136-0.389,0.2 c-0.074,0.037-0.147,0.082-0.223,0.114s-0.127,0.044-0.19,0.069c-1.193,0.467-2.519,0.459-3.706-0.022 c-0.213-0.086-0.42-0.186-0.62-0.3c-1.391-0.776-2.332-2.166-2.536-3.746c-0.03-0.228-0.045-0.458-0.045-0.688V136.112 c0.007-2.378,1.252-4.581,3.287-5.812L217.341,5.559c0.167-0.1,0.34-0.189,0.519-0.266c0.026-0.011,0.053-0.018,0.079-0.028 c0.148-0.063,0.3-0.116,0.455-0.161c0.059-0.016,0.118-0.024,0.176-0.038c0.123-0.029,0.246-0.059,0.371-0.076 c0.076-0.011,0.153-0.012,0.23-0.019c0.107-0.009,0.214-0.021,0.322-0.022s0.22,0.01,0.33,0.018c0.07,0.005,0.14,0.005,0.21,0.014 c0.122,0.015,0.243,0.043,0.364,0.069c0.057,0.012,0.116,0.019,0.173,0.034c0.135,0.038,0.269,0.082,0.4,0.133 c0.041,0.015,0.083,0.025,0.123,0.041c0.175,0.071,0.346,0.154,0.511,0.247c1.335,0.744,2.159,2.157,2.148,3.686L223.759,157.683z M4.768,288.516c-2.341-1.305-3.786-3.782-3.768-6.463V132.517c0.007-2.44,1.286-4.699,3.375-5.961l206.4-124.2 c1.464-0.883,3.14-1.352,4.849-1.356c1.396-0.006,2.772,0.326,4.011,0.969c2.254,1.18,3.751,2.689,4.062,4.05l-0.013-0.013 c-0.19-0.242-0.401-0.466-0.63-0.67c-0.056-0.051-0.114-0.1-0.172-0.149c-0.601-0.513-1.312-0.881-2.077-1.077 c-1.351-0.348-2.786-0.134-3.977,0.592L8.927,129.441c-2.338,1.411-3.77,3.94-3.777,6.671l0,0v146.967 c0,0.545,0.07,1.088,0.211,1.614c0.138,0.512,0.343,1.004,0.61,1.462c0.546,0.932,1.33,1.702,2.273,2.23l0.044,0.022 c0.199,0.11,0.404,0.211,0.613,0.3c0.074,0.031,0.15,0.057,0.225,0.085c0.153,0.058,0.307,0.111,0.464,0.156 c0.084,0.024,0.167,0.046,0.252,0.067c0.157,0.038,0.314,0.068,0.473,0.093c0.077,0.012,0.154,0.027,0.232,0.036 c0.026,0,0.052,0.01,0.078,0.013C8.669,289.772,6.545,289.54,4.768,288.516z M356.256,255.769L149.794,379.646 c-3.096,1.861-6.967,1.861-10.063,0L12.745,303.453c-1.825-0.923-3.108-2.652-3.461-4.667c-0.267-1.677-0.108-3.395,0.463-4.994 c0.084,0.541,0.253,1.065,0.5,1.554c0.03,0.061,0.056,0.124,0.089,0.183s0.082,0.135,0.123,0.2c0.071,0.116,0.144,0.231,0.224,0.341 c0.041,0.057,0.085,0.111,0.128,0.166c0.089,0.113,0.184,0.223,0.283,0.329c0.046,0.05,0.094,0.1,0.143,0.148 c0.1,0.1,0.215,0.2,0.33,0.3c0.052,0.043,0.1,0.088,0.155,0.13c0.151,0.116,0.309,0.225,0.471,0.325 c0.019,0.012,0.036,0.026,0.056,0.038l126.968,76.181c3.415,2.045,7.677,2.045,11.092,0L356.771,249.81l0.023-0.017 c0.223-0.136,0.436-0.289,0.637-0.457c0.053-0.045,0.1-0.093,0.154-0.139c0.159-0.143,0.31-0.295,0.451-0.456 c0.033-0.038,0.067-0.076,0.1-0.115c0.347-0.416,0.627-0.883,0.829-1.385C359.485,250.5,359.012,254.336,356.256,255.769 L356.256,255.769z M211.322,18.837c-1.489-0.857-3.326-0.834-4.793,0.06L19.592,131.059c-2.117,1.279-3.414,3.569-3.421,6.042 v129.476c0.011,3.889,3.159,7.041,7.048,7.058c1.278-0.004,2.53-0.355,3.623-1.016l183.472-110.084 c2.117-1.278,3.414-3.569,3.421-6.042V22.977C213.746,21.26,212.821,19.673,211.322,18.837z M212.735,156.493 c-0.006,2.122-1.119,4.087-2.935,5.184L26.327,271.761c-2.863,1.718-6.577,0.789-8.295-2.075c-0.563-0.939-0.861-2.014-0.861-3.109 V137.1c0.006-2.122,1.119-4.087,2.935-5.184L207.042,19.755c1.779-1.069,4.088-0.493,5.157,1.287 c0.351,0.585,0.537,1.254,0.536,1.935V156.493z M53.948,276.4c-1.571,0.642-2.324,2.436-1.682,4.007 c0.312,0.764,0.918,1.37,1.682,1.682l66.367,39.82c2.674,1.443,5.894,1.443,8.568,0l157.326-94.394 c1.571-0.642,2.325-2.435,1.683-4.007c-0.312-0.765-0.919-1.371-1.683-1.683l-66.367-39.82c-2.674-1.441-5.893-1.441-8.567,0 L53.948,276.4z M226.163,226.654L210.6,236l-13.913-8.348l15.566-9.339L226.163,226.654z M213.221,217.724l15.567-9.34l13.912,8.348 l-15.566,9.339L213.221,217.724z M113.994,277.26l15.566-9.339l13.913,8.347l-15.566,9.34L113.994,277.26z M126.935,286.191 l-15.566,9.339l-13.912-8.347l15.566-9.34L126.935,286.191z M147.07,257.415l15.566-9.34l13.913,8.348l-15.567,9.339L147.07,257.415 z M160.011,266.345l-15.566,9.34l-13.913-8.347L146.1,258L160.011,266.345z M163.611,247.492l15.566-9.34l13.913,8.348l-15.567,9.34 L163.611,247.492z M180.149,237.569l15.566-9.34l13.913,8.348l-15.567,9.34L180.149,237.569z M179.177,236.986l-13.912-8.347 l15.566-9.34l13.913,8.347L179.177,236.986z M178.206,237.569l-15.567,9.34l-13.912-8.347l15.566-9.34L178.206,237.569z M161.668,247.492l-15.567,9.34l-13.912-8.348l15.566-9.339L161.668,247.492z M145.13,257.415l-15.566,9.34l-13.913-8.348 l15.566-9.34L145.13,257.415z M128.592,267.338l-15.566,9.339l-13.916-8.345l15.566-9.34L128.592,267.338z M144.448,276.851 l13.912,8.348l-15.566,9.34l-13.912-8.348L144.448,276.851z M145.419,276.268l15.567-9.34l13.912,8.348l-15.566,9.34 L145.419,276.268z M161.957,266.345l15.566-9.34l13.913,8.348l-15.566,9.34L161.957,266.345z M178.495,256.423l15.566-9.34 l13.913,8.347l-15.566,9.34L178.495,256.423z M195.03,246.5l15.566-9.34l13.914,8.347l-15.567,9.341L195.03,246.5z M211.568,236.577 l15.566-9.34l13.913,8.348l-15.566,9.34L211.568,236.577z M195.712,227.063l-13.912-8.345l15.566-9.339l13.912,8.347 L195.712,227.063z M180.829,218.133l-13.913-8.348l15.565-9.339l13.913,8.348L180.829,218.133z M179.857,218.716l-15.566,9.34 l-13.913-8.348l15.566-9.34L179.857,218.716z M163.319,228.639l-15.567,9.34l-13.912-8.348l15.566-9.34L163.319,228.639z M146.781,238.562l-15.567,9.338l-13.914-8.344l15.566-9.34L146.781,238.562z M130.243,248.484l-15.567,9.34l-13.912-8.347 l15.566-9.34L130.243,248.484z M113.705,258.407l-15.567,9.34L84.226,259.4l15.566-9.339L113.705,258.407z M97.167,268.33 L81.6,277.672l-13.913-8.348l15.566-9.34L97.167,268.33z M98.138,268.913l13.913,8.347l-15.566,9.34l-13.913-8.347L98.138,268.913z M95.513,287.183l-15.565,9.34l-13.913-8.348l15.565-9.337L95.513,287.183z M96.485,287.766l13.912,8.348l-15.565,9.339 l-13.913-8.347L96.485,287.766z M111.369,296.697l13.913,8.347l-15.566,9.34L95.8,306.038L111.369,296.697z M112.341,296.113 l15.566-9.339l13.912,8.348l-15.565,9.339L112.341,296.113z M142.791,295.705l13.912,8.347l-15.566,9.339l-13.911-8.347 L142.791,295.705z M143.763,295.122l15.566-9.34l13.912,8.347l-15.566,9.34L143.763,295.122z M160.3,285.2l15.566-9.34l13.912,8.347 l-15.566,9.34L160.3,285.2z M176.837,275.277l15.567-9.34l13.912,8.347l-15.567,9.34L176.837,275.277z M193.375,265.354l15.567-9.34 l13.912,8.348l-15.566,9.34L193.375,265.354z M209.913,255.431l15.567-9.34l13.913,8.348l-15.567,9.34L209.913,255.431z M226.452,245.509l15.566-9.34l13.913,8.347l-15.567,9.34L226.452,245.509z M242.989,235.586l15.566-9.34l13.913,8.348l-15.568,9.34 L242.989,235.586z M242.018,235.003l-13.913-8.348l15.566-9.339l13.913,8.348L242.018,235.003z M244.642,216.733l15.567-9.34 l13.913,8.348l-15.567,9.34L244.642,216.733z M243.671,216.15l-13.912-8.35l15.567-9.34l13.912,8.348L243.671,216.15z M228.787,207.219l-13.913-8.347l15.567-9.34l13.912,8.347L228.787,207.219z M227.815,207.802l-15.566,9.34l-13.912-8.342 l15.567-9.34L227.815,207.802z M197.365,208.212l-13.913-8.348l15.567-9.34l13.913,8.348L197.365,208.212z M53.038,279.247 c0.091-0.867,0.633-1.623,1.425-1.988l12.253-7.352l13.913,8.348l-15.566,9.339l-10.6-6.36 C53.671,280.869,53.129,280.114,53.038,279.247z M128.369,321.054c-2.358,1.248-5.181,1.248-7.539,0l-10.142-6.085l15.566-9.34 l13.912,8.347L128.369,321.054z M287.12,224.671c-0.091,0.868-0.633,1.624-1.425,1.989l-12.255,7.352l-13.913-8.347l15.567-9.341 l10.6,6.361C286.486,223.049,287.028,223.804,287.12,224.671z M219.328,182.864l10.143,6.086l-15.571,9.34l-13.913-8.348l11.8-7.078 C214.146,181.617,216.969,181.617,219.328,182.864L219.328,182.864z M260.685,284.364l-18.169-10.9 c-3.805-2.013-8.359-2.013-12.164,0l-33.75,20.25c-2.167,0.868-3.22,3.328-2.352,5.496c0.43,1.073,1.28,1.923,2.352,2.352 l18.169,10.9c3.805,2.013,8.36,2.013,12.165,0l33.749-20.25c2.167-0.867,3.221-3.327,2.353-5.494 C262.609,285.645,261.758,284.795,260.685,284.364L260.685,284.364z M260.171,291.354l-33.749,20.25 c-3.484,1.842-7.653,1.842-11.137,0l-18.169-10.9c-1.693-0.597-2.582-2.454-1.985-4.147c0.327-0.928,1.057-1.658,1.985-1.985 l33.75-20.25c3.483-1.843,7.653-1.843,11.136,0l18.169,10.9c1.694,0.598,2.582,2.456,1.984,4.149 c-0.327,0.927-1.057,1.656-1.984,1.984V291.354z M173.071,85.9c0.416,0.241,0.929,0.236,1.34-0.013l14.579-8.66 c0.404-0.241,0.651-0.676,0.652-1.146V61.572c0.001-0.735-0.594-1.332-1.33-1.332c-0.24,0-0.476,0.065-0.682,0.187l-6.459,3.836 c-0.403,0.241-0.65,0.676-0.651,1.145v1.959c0,0.117-0.062,0.225-0.163,0.285l-7.307,4.342c-0.404,0.24-0.651,0.675-0.652,1.145 v11.606C172.396,85.224,172.653,85.666,173.071,85.9z M173.398,73.136c-0.001-0.118,0.061-0.227,0.163-0.286l7.307-4.341 c0.404-0.241,0.651-0.675,0.652-1.145v-1.956c-0.001-0.117,0.061-0.226,0.162-0.286l6.459-3.836c0.05-0.031,0.108-0.048,0.167-0.048 c0.058,0.001,0.115,0.016,0.166,0.045c0.105,0.058,0.17,0.169,0.168,0.289v14.512c0,0.117-0.062,0.226-0.162,0.286l-14.58,8.661 c-0.158,0.093-0.362,0.04-0.454-0.118c-0.03-0.051-0.046-0.109-0.046-0.168L173.398,73.136z M189.642,112.4V97.89 c0-0.736-0.597-1.332-1.332-1.332c-0.239,0-0.474,0.065-0.68,0.187l-6.458,3.836c-0.404,0.241-0.651,0.676-0.652,1.146v1.958 c0,0.117-0.062,0.226-0.163,0.286l-7.307,4.341c-0.404,0.241-0.651,0.676-0.652,1.146v11.606c-0.004,0.733,0.587,1.331,1.321,1.335 c0.244,0.001,0.483-0.064,0.692-0.19l14.579-8.66C189.394,113.307,189.642,112.871,189.642,112.4z M188.642,112.4 c-0.001,0.117-0.062,0.225-0.162,0.286l-14.58,8.66c-0.158,0.093-0.362,0.04-0.454-0.118c-0.03-0.051-0.045-0.108-0.046-0.167 v-11.603c0-0.117,0.062-0.226,0.163-0.286l7.307-4.341c0.404-0.241,0.651-0.676,0.652-1.146v-1.958c0-0.117,0.062-0.226,0.162-0.286 l6.459-3.836c0.05-0.031,0.108-0.048,0.167-0.048c0.058,0,0.116,0.016,0.166,0.045c0.105,0.057,0.17,0.168,0.168,0.288 L188.642,112.4z M190.612,82.3c0.142,0.237,0.065,0.544-0.172,0.686c0,0,0,0,0,0l-14.029,8.418 c-0.237,0.142-0.544,0.065-0.687-0.172c-0.142-0.237-0.065-0.544,0.172-0.687l0,0l14.03-8.418 C190.163,81.986,190.47,82.063,190.612,82.3C190.612,82.3,190.612,82.3,190.612,82.3z M190.612,119.219 c0.142,0.237,0.065,0.544-0.172,0.686c0,0,0,0,0,0l-14.029,8.418c-0.078,0.046-0.166,0.071-0.257,0.071c-0.276,0-0.5-0.224-0.5-0.5 c0-0.175,0.092-0.337,0.242-0.428l14.03-8.418c0.237-0.141,0.544-0.063,0.685,0.174c0,0,0,0.001,0.001,0.001V119.219z M142.985,104.561c-0.718-0.409-1.602-0.393-2.305,0.042l-83.129,50.736c-0.677,0.415-1.091,1.152-1.093,1.946v63.648 c-0.006,0.826,0.441,1.589,1.164,1.989c0.717,0.407,1.599,0.391,2.3-0.042l83.129-50.732c0.677-0.416,1.09-1.153,1.093-1.947 v-63.647c0.007-0.825-0.438-1.588-1.159-1.989V104.561z M143.149,170.197c-0.002,0.446-0.233,0.859-0.613,1.093l-83.13,50.733 c-0.604,0.368-1.392,0.177-1.761-0.427c-0.123-0.201-0.187-0.432-0.187-0.667v-63.644c0.002-0.446,0.233-0.859,0.613-1.093 L141.2,105.46c0.394-0.245,0.891-0.254,1.294-0.023c0.406,0.224,0.657,0.653,0.654,1.117L143.149,170.197z"/></g></svg>