<?xml version="1.0" encoding="UTF-8" standalone="no"?><svg xmlns="http://www.w3.org/2000/svg" xmlns:xlink="http://www.w3.org/1999/xlink" contentScriptType="text/ecmascript" fill="#000000" width="627.7" zoomAndPan="magnify" contentStyleType="text/css" viewBox="-2.0 -0.3 627.7 779.5" height="779.5" preserveAspectRatio="xMidYMid meet" version="1"><g id="change1_1"><path fill="#76b9f0" d="M373.1,428.4c7.8,36.1,15.8,74,24.2,111.8c11.2,50,22.6,100,34.1,150c6.1,26.7-19.5,52.7-45.6,43.6 c-7.9-2.7-14.6-15.6-17.4-25.2c-9-30.5-16.2-61.6-23.6-92.5c-12.1-49.8-23.7-99.7-35.8-149.6c-1.6-6.6-4.3-13-6.4-19.4 c-19.5,60.7-37.9,120.8-58.1,180.4c-14.6,42.9-31.3,85.1-47.3,127.5c-7.4,19.6-16.1,24.2-37.9,21.1c-14.7-2.1-23.8-11.2-23.1-30.1 c0.9-21.4,3.3-43.3,9.5-63.7c28.1-91.8,57.7-183.2,86.7-274.7c0.5-1.4,0.4-3,1-8.9c-39,0-77.1-0.2-115.2,0.1 c-33,0.2-65.9,1.2-98.9,1.5c-16.1,0.1-21.3-5-18.5-20.5c5.5-31,8.5-38.5,39.3-42.2c63.3-7.5,126.7-13.9,190-20.8 c4.2-0.5,8.4-1.1,8.6-1.1c-4.6-73.7-9.6-146.4-13.2-219c-1.1-23.1,1.3-46.5,2.9-69.6c0.4-6.2,1.9-13.8,5.8-17.9 c4.6-4.9,12.6-9.5,18.8-9.1c4,0.3,10,9.4,10.7,15.2c7,56.3,12.9,112.7,19.5,169c4.6,39.6,9.9,79.2,14.9,118.8c1.4,0.5,2.8,1,4.2,1.6 c7.7-9.2,16-18,22.9-27.8c34.9-49.4,68.9-99.4,104.2-148.6c17.3-24.1,36.1-47.1,55.2-69.7c9.6-11.3,25.1-10,44.1,0.8 c12.8,7.3,20.1,18.5,14.7,32.3c-6.8,17.4-15.2,34.6-25.7,50c-39.5,57.4-80.2,114-120.4,170.9c-3.1,4.4-5.8,9.1-10.6,16.6 c7.5,0,13,0.4,18.4-0.1c63-4.8,126.1-9.7,189.1-14.7c22.5-1.8,28.9,3.6,30,26.6c1.5,30.8-3.2,37.1-33,43.2 C519.4,398.7,447.5,413.3,373.1,428.4z M151,740c30.1,4.5,30.5,4.6,39.7-19.9c35.6-94.4,72.4-188.4,94.4-287.3 c2.5-11.1,9.2-21.2,14-31.7c2.4,0.3,4.8,0.6,7.3,0.9c5.2,12.7,12.1,25,15.5,38.2c11.5,45,21.8,90.2,32.7,135.4 c10.2,42.3,20.7,84.6,31.4,128.7c11.2-4,19-6.8,26.7-9.5c-18.3-82.6-36.4-163.2-53.8-243.9c-2.6-11.9-3.3-24.7-2.5-36.9 c0.9-13.2,9.6-21.2,23.1-23.2c35.7-5.3,71.6-9.8,107.2-16.4c39.1-7.2,77.9-16.3,116.8-24.6c-17.3-2.3-33.9-0.7-50.5,0.5 c-56.6,4-113.1,9-169.8,11.4c-27.2,1.2-33.8-12.7-20.5-36.2c1.3-2.3,2.8-4.6,4.3-6.9c36.9-53.3,73.7-106.7,110.7-160 c15-21.6,30.3-43.1,45.5-64.6c-23.2-16-28.7-16.1-43.4,4.3c-49,67.9-97.2,136.4-145.9,204.6c-7.8,10.9-15.8,22.1-25.5,31.2 c-9.7,9.2-17.7,6.2-20.9-6.9c-4.2-17.3-8.7-34.7-10.7-52.3c-8.1-70.3-15.3-140.7-23-211.1c-1.1-9.9-2.9-19.7-4.4-29.6 c-1.5,0.3-3.1,0.5-4.6,0.8c-4.9,66.3-3.8,132.5,4.2,198.6c3.4,28.4,8.8,56.6,12.1,85c2.3,19.2-3,25.8-21.9,29.1 c-12.7,2.3-25.8,3-38.7,4.2c-41.7,4.2-83.4,8.3-125.1,12.4c0.1,1.4,0.2,2.7,0.3,4.1c50.8,0,101.5-0.2,152.3,0.1 c27.8,0.2,35.6,12.5,25.4,38.8c-6.7,17.1-14.4,33.8-19.9,51.3c-23.7,75.1-46.9,150.4-69.7,225.8C158.4,702.1,155.3,720.6,151,740z"/></g></svg>