<?xml version="1.0" encoding="UTF-8" standalone="no"?><svg xmlns="http://www.w3.org/2000/svg" xmlns:xlink="http://www.w3.org/1999/xlink" contentScriptType="text/ecmascript" fill="#000000" width="375.2" zoomAndPan="magnify" contentStyleType="text/css" viewBox="0.0 0.0 375.2 500.0" height="500" preserveAspectRatio="xMidYMid meet" version="1"><defs><clipPath id="a"><path d="M 0 50 L 375.210938 50 L 375.210938 457 L 0 457 Z M 0 50"/></clipPath><clipPath id="b"><path d="M 0 43 L 375.210938 43 L 375.210938 480 L 0 480 Z M 0 43"/></clipPath></defs><g><g id="change1_1"><path fill="#ced8ff" d="M 353.535156 37.5 L 353.535156 43.25 L 375.207031 130.761719 L 353.535156 180.492188 L 353.535156 462.5 C 353.535156 483.210938 336.746094 500 316.035156 500 L 10.421875 500 C 11 497.492188 11.625 494.007812 11.371094 491.550781 C 11.371094 491.550781 14.039062 489.117188 16.441406 487.308594 C 16.992188 487.476562 17.582031 487.570312 18.191406 487.570312 C 21.496094 487.570312 24.175781 484.890625 24.175781 481.585938 C 24.175781 478.28125 21.496094 475.605469 18.191406 475.605469 C 15.363281 475.605469 12.996094 477.570312 12.375 480.210938 C 11.316406 480.128906 9.6875 479.84375 8.582031 478.917969 C 7.402344 477.9375 2.871094 475.640625 0 474.226562 L 0 464.359375 C 1.90625 464.941406 5.546875 465.847656 7.84375 465.113281 C 9.554688 464.570312 12.042969 462.917969 14.007812 461.480469 C 15.089844 462.539062 16.5625 463.191406 18.191406 463.191406 C 21.496094 463.191406 24.175781 460.511719 24.175781 457.210938 C 24.175781 453.90625 21.496094 451.226562 18.191406 451.226562 C 14.886719 451.226562 12.210938 453.90625 12.210938 457.210938 C 12.210938 457.714844 12.277344 458.203125 12.398438 458.671875 C 10.980469 460.308594 8.574219 462.664062 6.816406 462.179688 C 5.214844 461.730469 2.160156 461.394531 0 461.199219 L 0 435.449219 L 12.820312 435.449219 C 13.789062 437.441406 15.828125 438.816406 18.191406 438.816406 C 21.496094 438.816406 24.175781 436.136719 24.175781 432.832031 C 24.175781 429.527344 21.496094 426.847656 18.191406 426.847656 C 15.148438 426.847656 12.636719 429.128906 12.261719 432.070312 L 0 432.070312 L 0 415.40625 C 1.292969 414.359375 3.332031 412.921875 4.910156 412.832031 C 6.34375 412.746094 10.058594 411.984375 12.957031 411.351562 C 13.976562 413.191406 15.9375 414.4375 18.191406 414.4375 C 21.496094 414.4375 24.175781 411.757812 24.175781 408.453125 C 24.175781 405.148438 21.496094 402.472656 18.191406 402.472656 C 14.886719 402.472656 12.210938 405.148438 12.210938 408.453125 C 12.210938 408.644531 12.21875 408.832031 12.238281 409.015625 C 8.433594 409.585938 3.039062 410.480469 1.382812 411.214844 C 0.914062 411.425781 0.449219 411.597656 0 411.734375 L 0 385.515625 L 12.390625 385.515625 C 13.035156 388.121094 15.386719 390.058594 18.191406 390.058594 C 21.496094 390.058594 24.175781 387.382812 24.175781 384.074219 C 24.175781 380.773438 21.496094 378.09375 18.191406 378.09375 C 17.308594 378.09375 16.472656 378.289062 15.71875 378.632812 L 15.71875 378.628906 C 15.71875 378.628906 13.132812 379.347656 11.078125 381.550781 C 9.75 382.972656 3.941406 382.25 0 381.558594 L 0 366.164062 C 2.816406 365.710938 13.621094 364.011719 14.792969 364.617188 C 14.792969 364.621094 14.792969 364.621094 14.792969 364.621094 C 15.761719 365.289062 16.929688 365.683594 18.191406 365.683594 C 21.496094 365.683594 24.175781 363.003906 24.175781 359.699219 C 24.175781 356.394531 21.496094 353.714844 18.191406 353.714844 C 15.601562 353.714844 13.402344 355.363281 12.570312 357.667969 L 12.566406 357.664062 C 12.566406 357.664062 11.222656 357.675781 10.929688 359.699219 C 10.734375 361.046875 4.285156 361.953125 0 362.40625 L 0 337.320312 C 2.429688 336.210938 5.601562 336.996094 8.117188 337.785156 C 10.605469 338.5625 13.640625 340.597656 16.902344 341.160156 C 17.320312 341.253906 17.75 341.304688 18.191406 341.304688 C 21.496094 341.304688 24.175781 338.625 24.175781 335.320312 C 24.175781 332.019531 21.496094 329.339844 18.191406 329.339844 C 16.929688 329.339844 15.757812 329.730469 14.792969 330.398438 C 14.792969 330.398438 11.519531 330.441406 7.550781 329.339844 C 3.585938 328.238281 1.382812 327.648438 1.382812 327.648438 L 0 322.617188 L 0 311.777344 L 3.585938 309.878906 C 3.585938 309.878906 8.285156 309.878906 10.195312 311.9375 C 12.105469 313.992188 14.21875 315.707031 15.289062 316.175781 C 16.152344 316.652344 17.140625 316.925781 18.191406 316.925781 C 21.496094 316.925781 24.175781 314.246094 24.175781 310.941406 C 24.175781 307.640625 21.496094 304.960938 18.191406 304.960938 C 17.261719 304.960938 16.382812 305.179688 15.597656 305.558594 L 15.59375 305.554688 C 15.59375 305.554688 10.59375 301.65625 8.117188 299.601562 C 5.644531 297.542969 3.878906 296.515625 3.878906 296.515625 C 3.878906 296.515625 4.027344 292.992188 4.027344 291.230469 C 4.027344 290 8.886719 289.054688 12.625 288.746094 C 13.496094 290.972656 15.660156 292.550781 18.191406 292.550781 C 21.496094 292.550781 24.175781 289.871094 24.175781 286.566406 C 24.175781 283.261719 21.496094 280.585938 18.191406 280.585938 C 15.917969 280.585938 13.9375 281.855469 12.925781 283.726562 C 10.671875 283.464844 7.59375 283.328125 5.644531 284.179688 C 3.226562 285.230469 1.117188 283.949219 0 282.761719 C 0 282.761719 0.09375 269.648438 0.109375 258.691406 C 1.3125 258.449219 2.527344 258.261719 3.746094 258.128906 C 4.898438 258.007812 6.089844 257.9375 7.179688 258.316406 C 8.851562 258.90625 9.980469 260.429688 11.058594 261.835938 C 11.449219 262.34375 11.863281 262.855469 12.320312 263.320312 C 12.847656 266.082031 15.273438 268.171875 18.191406 268.171875 C 21.496094 268.171875 24.175781 265.492188 24.175781 262.1875 C 24.175781 258.886719 21.496094 256.207031 18.191406 256.207031 C 16.234375 256.207031 14.503906 257.148438 13.410156 258.605469 C 11.339844 257.1875 9.570312 255 7.113281 254.421875 C 5.289062 253.988281 3.390625 254.527344 1.589844 255.0625 C 1.097656 255.207031 0.605469 255.355469 0.113281 255.5 C 0.113281 249.6875 0.0859375 245.027344 0 244.199219 C 0 244.199219 7.671875 240.839844 16.441406 243.511719 C 16.992188 243.683594 17.582031 243.773438 18.191406 243.773438 C 21.496094 243.773438 24.175781 241.097656 24.175781 237.792969 C 24.175781 234.488281 21.496094 231.808594 18.191406 231.808594 C 15.363281 231.808594 12.996094 233.777344 12.375 236.417969 C 11.316406 236.335938 9.6875 236.050781 8.582031 235.125 C 7.402344 234.144531 2.871094 231.847656 0 230.433594 L 0 220.566406 C 1.90625 221.148438 5.546875 222.054688 7.84375 221.320312 C 9.554688 220.777344 12.042969 219.125 14.007812 217.6875 C 15.089844 218.746094 16.5625 219.398438 18.191406 219.398438 C 21.496094 219.398438 24.175781 216.71875 24.175781 213.414062 C 24.175781 210.109375 21.496094 207.433594 18.191406 207.433594 C 14.886719 207.433594 12.210938 210.109375 12.210938 213.414062 C 12.210938 213.921875 12.277344 214.410156 12.398438 214.878906 C 10.980469 216.515625 8.574219 218.871094 6.816406 218.382812 C 5.214844 217.9375 2.160156 217.601562 0 217.40625 L 0 191.652344 L 12.820312 191.652344 C 13.789062 193.644531 15.828125 195.019531 18.191406 195.019531 C 21.496094 195.019531 24.175781 192.34375 24.175781 189.039062 C 24.175781 185.734375 21.496094 183.054688 18.191406 183.054688 C 15.148438 183.054688 12.636719 185.332031 12.261719 188.277344 L 0 188.277344 L 0 171.613281 C 1.292969 170.566406 3.332031 169.128906 4.910156 169.039062 C 6.34375 168.953125 10.058594 168.191406 12.957031 167.554688 C 13.976562 169.394531 15.9375 170.644531 18.191406 170.644531 C 21.496094 170.644531 24.175781 167.964844 24.175781 164.660156 C 24.175781 161.355469 21.496094 158.675781 18.191406 158.675781 C 14.886719 158.675781 12.210938 161.355469 12.210938 164.660156 C 12.210938 164.851562 12.21875 165.035156 12.238281 165.222656 C 8.433594 165.789062 3.039062 166.6875 1.382812 167.421875 C 0.914062 167.632812 0.449219 167.800781 0 167.941406 L 0 141.722656 L 12.390625 141.722656 C 13.035156 144.328125 15.386719 146.265625 18.191406 146.265625 C 21.496094 146.265625 24.175781 143.585938 24.175781 140.28125 C 24.175781 136.980469 21.496094 134.300781 18.191406 134.300781 C 17.308594 134.300781 16.472656 134.496094 15.71875 134.839844 L 15.71875 134.835938 C 15.71875 134.835938 13.132812 135.554688 11.078125 137.757812 C 9.75 139.179688 3.941406 138.457031 0 137.765625 L 0 122.371094 C 2.816406 121.914062 13.621094 120.214844 14.792969 120.824219 C 15.761719 121.492188 16.929688 121.886719 18.191406 121.886719 C 21.496094 121.886719 24.175781 119.210938 24.175781 115.90625 C 24.175781 112.601562 21.496094 109.921875 18.191406 109.921875 C 15.601562 109.921875 13.402344 111.570312 12.570312 113.871094 L 12.566406 113.871094 C 12.566406 113.871094 11.222656 113.882812 10.929688 115.90625 C 10.734375 117.253906 4.285156 118.160156 0 118.613281 L 0 93.527344 C 2.429688 92.417969 5.601562 93.199219 8.117188 93.988281 C 10.605469 94.769531 13.640625 96.804688 16.902344 97.367188 C 17.320312 97.460938 17.75 97.511719 18.191406 97.511719 C 21.496094 97.511719 24.175781 94.832031 24.175781 91.527344 C 24.175781 88.222656 21.496094 85.546875 18.191406 85.546875 C 16.929688 85.546875 15.757812 85.9375 14.792969 86.605469 C 14.792969 86.605469 11.519531 86.644531 7.550781 85.546875 C 3.585938 84.445312 1.382812 83.855469 1.382812 83.855469 L 0 78.824219 L 0 67.984375 L 3.585938 66.085938 C 3.585938 66.085938 8.285156 66.085938 10.195312 68.140625 C 12.105469 70.199219 14.21875 71.914062 15.289062 72.378906 C 16.152344 72.859375 17.140625 73.132812 18.191406 73.132812 C 21.496094 73.132812 24.175781 70.453125 24.175781 67.148438 C 24.175781 63.847656 21.496094 61.167969 18.191406 61.167969 C 17.261719 61.167969 16.382812 61.386719 15.597656 61.765625 L 15.59375 61.757812 C 15.59375 61.757812 10.59375 57.863281 8.117188 55.804688 C 5.644531 53.75 3.878906 52.722656 3.878906 52.722656 C 3.878906 52.722656 4.027344 49.195312 4.027344 47.433594 C 4.027344 46.203125 8.886719 45.261719 12.625 44.953125 C 13.496094 47.179688 15.660156 48.753906 18.191406 48.753906 C 21.496094 48.753906 24.175781 46.078125 24.175781 42.773438 C 24.175781 39.46875 21.496094 36.789062 18.191406 36.789062 C 15.917969 36.789062 13.9375 38.0625 12.925781 39.933594 C 10.671875 39.667969 7.59375 39.535156 5.644531 40.386719 C 3.226562 41.4375 1.117188 40.15625 0 38.96875 L 0 12.226562 C 2.214844 12.074219 5.71875 12.007812 7.648438 12.855469 C 9.699219 13.75 10.980469 18.800781 12.964844 21.300781 C 13.984375 23.136719 15.945312 24.378906 18.191406 24.378906 C 21.496094 24.378906 24.175781 21.699219 24.175781 18.394531 C 24.175781 15.128906 21.554688 12.476562 18.296875 12.417969 C 18.425781 10.695312 18.199219 8.925781 17.792969 7.242188 C 17.199219 4.78125 16.246094 2.421875 15.515625 0 L 316.035156 0 C 336.746094 0 353.535156 16.789062 353.535156 37.5"/></g><g id="change2_1" clip-path="url(#a)"><path fill="#fdf5b6" d="M 369.210938 109.03125 L 353.535156 107.011719 L 353.535156 180.492188 L 369.210938 178.472656 C 372.636719 178.027344 375.207031 175.109375 375.207031 171.652344 L 375.207031 115.851562 C 375.207031 112.394531 372.636719 109.476562 369.210938 109.03125 Z M 12.476562 455.4375 L 0 455.4375 L 0 456.921875 L 12.222656 456.921875 C 12.25 456.410156 12.332031 455.910156 12.476562 455.4375 Z M 353.535156 455.4375 L 23.90625 455.4375 C 24.054688 455.910156 24.136719 456.410156 24.160156 456.921875 L 353.535156 456.921875 Z M 13.648438 387.941406 L 0 387.941406 L 0 389.429688 L 15.558594 389.429688 C 14.824219 389.066406 14.175781 388.5625 13.648438 387.941406 Z M 353.535156 387.941406 L 22.753906 387.941406 C 22.230469 388.558594 21.585938 389.066406 20.855469 389.429688 L 353.535156 389.429688 Z M 353.535156 320.445312 L 0 320.445312 L 0 321.933594 L 353.535156 321.933594 Z M 353.535156 252.949219 L 0.109375 252.949219 C 0.113281 253.4375 0.113281 253.929688 0.113281 254.4375 L 4.023438 254.4375 C 5.058594 254.242188 6.097656 254.179688 7.113281 254.421875 C 7.136719 254.425781 7.152344 254.433594 7.171875 254.4375 L 353.535156 254.4375 Z M 13.417969 185.457031 L 0 185.457031 L 0 186.941406 L 12.613281 186.941406 C 12.8125 186.40625 13.082031 185.90625 13.417969 185.457031 Z M 353.535156 185.457031 L 22.976562 185.457031 C 23.316406 185.90625 23.589844 186.40625 23.789062 186.941406 L 353.535156 186.941406 Z M 0 117.960938 L 0 118.613281 C 1.515625 118.453125 3.300781 118.234375 4.984375 117.960938 Z M 353.535156 117.960938 L 23.804688 117.960938 C 23.609375 118.496094 23.339844 118.996094 23.003906 119.449219 L 353.535156 119.449219 Z M 353.535156 51.953125 L 3.910156 51.953125 C 3.925781 51.550781 3.945312 51.03125 3.960938 50.464844 L 353.535156 50.464844 L 353.535156 51.953125"/></g><g id="change3_1" clip-path="url(#b)"><path fill="#ffd7e5" d="M 369.210938 45.269531 L 353.535156 43.25 L 353.535156 116.730469 L 369.210938 114.710938 C 372.636719 114.265625 375.207031 111.347656 375.207031 107.890625 L 375.207031 52.089844 C 375.207031 48.632812 372.636719 45.710938 369.210938 45.269531 Z M 350.210938 477.9375 L 22.925781 477.9375 C 23.273438 478.386719 23.554688 478.882812 23.765625 479.421875 L 349.496094 479.421875 C 349.746094 478.933594 349.980469 478.4375 350.210938 477.9375 Z M 13.484375 477.9375 L 7.085938 477.9375 C 7.75 478.324219 8.277344 478.667969 8.582031 478.917969 C 8.816406 479.117188 9.078125 479.277344 9.351562 479.421875 L 12.632812 479.421875 C 12.84375 478.882812 13.132812 478.386719 13.484375 477.9375 Z M 353.535156 432.9375 L 24.167969 432.9375 C 24.160156 433.453125 24.085938 433.949219 23.953125 434.425781 L 353.535156 434.425781 Z M 353.535156 410.441406 L 23.832031 410.441406 C 23.640625 410.976562 23.382812 411.472656 23.058594 411.925781 L 353.535156 411.925781 Z M 4.113281 410.441406 L 0 410.441406 L 0 411.738281 C 0.449219 411.597656 0.914062 411.425781 1.382812 411.214844 C 1.9375 410.96875 2.917969 410.707031 4.113281 410.441406 Z M 12.957031 411.351562 C 12.09375 411.539062 11.164062 411.734375 10.238281 411.925781 L 13.332031 411.925781 C 13.199219 411.742188 13.070312 411.550781 12.957031 411.351562 Z M 353.535156 365.441406 L 19.851562 365.441406 C 19.324219 365.597656 18.769531 365.683594 18.191406 365.683594 C 17.625 365.683594 17.082031 365.59375 16.5625 365.441406 L 4.710938 365.441406 C 2.699219 365.734375 0.921875 366.015625 0 366.164062 L 0 366.929688 L 353.535156 366.929688 Z M 353.535156 342.945312 L 0 342.945312 L 0 344.433594 L 353.535156 344.433594 Z M 353.535156 297.949219 L 6 297.949219 C 6.558594 298.355469 7.203125 298.851562 7.914062 299.433594 L 353.535156 299.433594 Z M 353.535156 275.449219 L 0.046875 275.449219 C 0.0429688 275.964844 0.0390625 276.460938 0.0351562 276.9375 L 353.535156 276.9375 Z M 353.535156 230.453125 L 0.0390625 230.453125 C 0.921875 230.886719 1.957031 231.402344 3.003906 231.941406 L 17.003906 231.941406 C 17.390625 231.859375 17.785156 231.808594 18.191406 231.808594 C 18.617188 231.808594 19.03125 231.855469 19.429688 231.941406 L 353.535156 231.941406 Z M 15.753906 207.953125 L 0 207.953125 L 0 209.441406 L 13.730469 209.441406 C 14.289062 208.8125 14.976562 208.304688 15.753906 207.953125 Z M 353.535156 207.953125 L 20.628906 207.953125 C 21.40625 208.304688 22.09375 208.8125 22.65625 209.441406 L 353.535156 209.441406 Z M 12.460938 162.957031 L 0 162.957031 L 0 164.445312 L 12.21875 164.445312 C 12.238281 163.929688 12.320312 163.433594 12.460938 162.957031 Z M 353.535156 162.957031 L 23.925781 162.957031 C 24.066406 163.433594 24.144531 163.929688 24.164062 164.445312 L 353.535156 164.445312 Z M 12.390625 141.722656 L 0 141.722656 L 0 141.945312 L 12.46875 141.945312 C 12.445312 141.871094 12.410156 141.800781 12.390625 141.722656 Z M 353.535156 140.460938 L 24.164062 140.460938 C 24.152344 140.972656 24.074219 141.472656 23.9375 141.945312 L 353.535156 141.945312 Z M 11.582031 95.464844 L 0 95.464844 L 0 96.949219 L 15.246094 96.949219 C 13.972656 96.550781 12.746094 96.007812 11.582031 95.464844 Z M 353.535156 95.464844 L 22.691406 95.464844 C 22.144531 96.085938 21.46875 96.59375 20.710938 96.949219 L 353.535156 96.949219 Z M 353.535156 74.449219 L 0 74.449219 L 0 72.964844 L 16.816406 72.964844 C 17.257812 73.070312 17.71875 73.132812 18.191406 73.132812 C 18.671875 73.132812 19.132812 73.070312 19.578125 72.964844 L 353.535156 72.964844 L 353.535156 74.449219"/></g></g></svg>