<?xml version="1.0" encoding="UTF-8" standalone="no"?><svg xmlns="http://www.w3.org/2000/svg" xmlns:xlink="http://www.w3.org/1999/xlink" contentScriptType="text/ecmascript" fill="#000000" width="484.6" zoomAndPan="magnify" contentStyleType="text/css" viewBox="0.0 0.0 484.6 499.0" height="499" preserveAspectRatio="xMidYMid meet" version="1"><g id="change1_1"><path fill="#fff9ed" d="M362,31.9h45 M407,31.9h22.2c30.6-0.1,55.4,24.8,55.4,55.4v356.3c0,30.6-24.8,55.4-55.4,55.4H68.4 C37.8,499,13,474.2,13,443.6V87.3c0-30.6,24.8-55.4,55.4-55.4H362"/></g><g id="change2_1"><path fill="#bae6ff" d="M354,20.3h38 M392,20.3h24.2c30.7,0,55.5,24.8,55.5,55.4V432c0,30.6-24.8,55.4-55.4,55.4H55.4 C24.8,487.5,0,462.6,0,432V75.7c0-30.6,24.8-55.4,55.4-55.4H354"/></g><g id="change3_1"><path fill="#a9eba1" d="M319.7,13.1c-0.3,6.3-0.7,12.5-1,18.8 M318.7,31.9c-0.2,3.7-0.4,7.3-0.6,11c0.9,3,1.6,6,2.4,9H128.6 c2.3-9.8,4.5-19.6,6.8-29.3c-2.3-7.5-4.5-15-6.8-22.6c63.9,0,127.9,0,191.8,0c-0.2,4.4-0.5,8.7-0.7,13.1"/></g><g id="change4_1"><path fill="#fffefe" d="M408.2,82c2.8-0.1,2.8,4.2,0,4.3c-114.9,4-230,8.8-345,7.2c-2.8,0-2.8-4.4,0-4.3 C178.2,90.8,293.2,86,408.2,82L408.2,82z M408.2,139.7c-114.9,4-230,8.8-345,7.2c-2.8,0-2.8,4.3,0,4.3c115,1.6,230.1-3.2,345-7.2 C411,143.9,411,139.6,408.2,139.7L408.2,139.7z M408.2,197.4c-114.9,4-230,8.8-345,7.2c-2.8,0-2.8,4.3,0,4.3 c115,1.6,230.1-3.2,345-7.2C411,201.6,411,197.3,408.2,197.4L408.2,197.4z M408.2,255.1c-114.9,4-230,8.8-345,7.2 c-2.8,0-2.8,4.3,0,4.3c115,1.6,230.1-3.2,345-7.2C411,259.3,411,255,408.2,255.1L408.2,255.1z M408.2,312.8 c-114.9,4-230,8.8-345,7.2c-2.8,0-2.8,4.3,0,4.3c115,1.6,230.1-3.2,345-7.2C411,317,411,312.7,408.2,312.8L408.2,312.8z M408.2,370.4c-114.9,4-230,8.8-345,7.2c-2.8,0-2.8,4.3,0,4.3c115,1.6,230.1-3.2,345-7.2C411,374.7,411,370.3,408.2,370.4 L408.2,370.4z M408.2,428.1c-114.9,4-230,8.8-345,7.2c-2.8,0-2.8,4.3,0,4.3c115,1.6,230.1-3.2,345-7.2 C411,432.4,411,428,408.2,428.1L408.2,428.1z"/></g></svg>