<?xml version="1.0" encoding="UTF-8" standalone="no"?><svg xmlns="http://www.w3.org/2000/svg" xmlns:xlink="http://www.w3.org/1999/xlink" contentScriptType="text/ecmascript" fill="#000000" width="107.5" zoomAndPan="magnify" contentStyleType="text/css" viewBox="0.0 -1.9 107.5 501.2" height="501.2" preserveAspectRatio="xMidYMid meet" version="1"><defs><clipPath id="a"><path d="M 0 12 L 107.550781 12 L 107.550781 499.25 L 0 499.25 Z M 0 12"/></clipPath></defs><g><g id="change1_1"><path fill="#bae6ff" d="M 101.390625 282.261719 C 97.988281 282.261719 95.230469 285.847656 95.230469 290.269531 L 95.230469 297.363281 C 95.128906 297.359375 95.027344 297.351562 94.925781 297.351562 C 91.355469 297.351562 88.460938 300.242188 88.460938 303.816406 L 88.460938 325.980469 C 88.460938 329.550781 91.355469 332.445312 94.925781 332.445312 C 95.027344 332.445312 95.128906 332.433594 95.230469 332.429688 L 95.230469 379.539062 L 80.996094 379.539062 L 80.996094 412.917969 L 95.230469 412.917969 L 95.230469 418.222656 C 95.230469 422.644531 97.988281 426.226562 101.390625 426.226562 C 104.789062 426.226562 107.546875 422.644531 107.546875 418.222656 L 107.546875 290.269531 C 107.546875 285.847656 104.789062 282.261719 101.390625 282.261719 Z M 80.769531 413.066406 C 80.910156 413.8125 80.996094 414.582031 80.996094 415.367188 L 80.996094 444.253906 C 80.996094 449.761719 77.363281 454.457031 72.234375 456.355469 L 72.234375 469.191406 C 72.234375 485.789062 58.777344 499.25 42.175781 499.25 C 25.574219 499.25 12.113281 485.789062 12.113281 469.191406 L 12.113281 455.832031 C 7.648438 453.679688 4.582031 449.308594 4.582031 444.253906 L 4.582031 415.367188 C 4.582031 414.582031 4.671875 413.8125 4.8125 413.0625 L 4.8125 290.574219 L 0 290.574219 L 0 282.261719 L 8.582031 282.261719 L 8.582031 282.253906 C 5.757812 280.476562 3.96875 277.898438 3.96875 275.023438 L 3.96875 253.484375 C 3.96875 252.886719 4.050781 252.304688 4.195312 251.734375 L 7.988281 160.015625 C 7.957031 160.003906 7.929688 159.992188 7.898438 159.980469 C 7.945312 158.976562 7.980469 157.976562 8.019531 156.976562 C 8.054688 156.960938 8.082031 156.945312 8.117188 156.929688 L 8.800781 140.390625 C 8.65625 140.519531 8.503906 140.648438 8.359375 140.777344 C 8.363281 139.757812 8.351562 138.730469 8.347656 137.710938 C 8.527344 137.769531 8.71875 137.835938 8.902344 137.898438 L 9.847656 115.011719 C 9.832031 114.992188 9.816406 114.972656 9.820312 114.960938 C 9.832031 114.871094 9.847656 114.78125 9.863281 114.691406 L 12.148438 59.386719 L 11.082031 59.386719 L 11.082031 51.074219 L 16.167969 51.074219 L 34.453125 12.015625 C 35.007812 12.265625 35.570312 12.476562 36.140625 12.660156 C 36.558594 11.449219 39.175781 3.867188 40.101562 1.597656 C 41.550781 -1.941406 42.710938 1.511719 42.710938 1.511719 L 47.132812 12.628906 C 47.675781 12.449219 48.195312 12.242188 48.691406 12.015625 L 67.792969 51.074219 L 72.757812 51.074219 L 72.757812 59.386719 L 71.816406 59.386719 L 79.03125 225.835938 C 79.917969 226.382812 79.917969 227.023438 79.175781 229.234375 L 80.152344 251.734375 C 80.300781 252.304688 80.382812 252.886719 80.382812 253.484375 L 80.382812 275.023438 C 80.382812 277.90625 78.585938 280.484375 75.75 282.261719 L 85.582031 282.261719 L 85.582031 290.574219 L 80.769531 290.574219 L 80.769531 413.066406"/></g><g id="change2_1"><path fill="#fff9ed" d="M 12.644531 456.074219 L 12.644531 456.085938 L 12.671875 456.085938 L 26.476562 457.261719 L 28.117188 290.574219 L 8.582031 290.574219 Z M 11.699219 276.699219 C 10.628906 276.226562 10.011719 275.949219 9.339844 275.648438 C 9.21875 277.523438 9.480469 277.679688 11.699219 276.699219 Z M 28.117188 173.863281 C 28.359375 173.902344 28.605469 173.941406 28.847656 173.984375 L 28.847656 170.941406 C 28.65625 170.910156 28.464844 170.882812 28.273438 170.851562 C 28.222656 171.855469 28.167969 172.859375 28.117188 173.863281 Z M 8.582031 282.261719 L 8.582031 282.253906 L 9.425781 258.863281 C 10.007812 258.476562 10.414062 258.203125 10.816406 257.9375 C 10.457031 257.574219 10.015625 256.847656 9.75 256.917969 C 9.664062 256.941406 9.578125 256.972656 9.492188 257 L 10.855469 219.207031 C 11.105469 219.066406 11.351562 218.9375 11.597656 218.792969 C 11.617188 218.066406 11.640625 217.339844 11.664062 216.609375 C 11.414062 216.742188 11.179688 216.871094 10.9375 217 L 16.625 59.386719 L 30.117188 59.386719 L 28.117188 282.261719 Z M 30.683594 51.074219 L 18.675781 51.074219 L 36.21875 12.691406 C 36.21875 12.691406 38.003906 13.503906 41.339844 13.503906 L 30.683594 51.074219"/></g><g id="change3_1" clip-path="url(#a)"><path fill="#fd87b1" d="M 13.996094 106.230469 C 13.746094 105.96875 13.527344 105.59375 13.230469 105.484375 C 13.097656 105.4375 12.683594 105.878906 12.625 106.152344 C 12.585938 106.34375 12.945312 106.632812 13.199219 106.976562 C 13.535156 106.660156 13.765625 106.445312 13.996094 106.230469 Z M 41.003906 173.972656 C 41.175781 173.972656 41.34375 173.96875 41.515625 173.96875 C 41.515625 173.3125 41.515625 172.652344 41.515625 171.992188 C 41.34375 171.992188 41.175781 171.992188 41.003906 171.992188 C 41.003906 172.652344 41.003906 173.3125 41.003906 173.972656 Z M 48.839844 349.226562 C 48.597656 349.203125 48.160156 349.117188 48.148438 349.164062 C 48.019531 349.6875 47.953125 350.230469 47.871094 350.769531 C 48.144531 350.8125 48.417969 350.855469 48.695312 350.898438 C 48.742188 350.34375 48.789062 349.785156 48.839844 349.226562 Z M 33.382812 298.96875 C 33.113281 298.921875 32.84375 298.878906 32.570312 298.832031 C 32.445312 299.464844 32.320312 300.101562 32.195312 300.734375 C 32.519531 300.800781 32.84375 300.867188 33.167969 300.9375 C 33.238281 300.277344 33.3125 299.625 33.382812 298.96875 Z M 33.109375 241.84375 C 33.367188 241.855469 33.648438 241.363281 34.046875 240.96875 C 33.589844 240.628906 33.28125 240.226562 32.972656 240.222656 C 32.75 240.222656 32.316406 240.808594 32.359375 241.042969 C 32.417969 241.371094 32.828125 241.824219 33.109375 241.84375 Z M 43.34375 339.605469 C 43.042969 339.558594 42.746094 339.507812 42.445312 339.453125 C 42.34375 340.160156 42.238281 340.863281 42.132812 341.570312 C 42.355469 341.613281 42.574219 341.660156 42.796875 341.703125 C 42.976562 341.003906 43.160156 340.304688 43.34375 339.605469 Z M 39.023438 376.921875 C 39.082031 376.410156 39.1875 375.894531 39.148438 375.394531 C 39.144531 375.308594 38.503906 375.28125 38.15625 375.230469 C 38.210938 375.796875 38.265625 376.355469 38.320312 376.921875 C 38.554688 376.921875 38.789062 376.921875 39.023438 376.921875 Z M 54.566406 74.988281 C 54.515625 74.726562 54.46875 74.464844 54.417969 74.203125 C 53.714844 74.371094 53.011719 74.542969 52.308594 74.710938 C 52.355469 74.964844 52.402344 75.21875 52.453125 75.476562 C 53.15625 75.3125 53.859375 75.152344 54.566406 74.988281 Z M 61.710938 77.160156 C 61.601562 76.277344 61.488281 75.398438 61.378906 74.519531 C 61.097656 74.566406 60.816406 74.613281 60.535156 74.664062 C 60.65625 75.546875 60.773438 76.429688 60.894531 77.308594 C 61.167969 77.261719 61.441406 77.210938 61.710938 77.160156 Z M 74.375 302.28125 C 74.171875 302.261719 73.96875 302.238281 73.765625 302.21875 C 73.597656 302.742188 73.433594 303.265625 73.269531 303.792969 C 73.683594 303.8125 74.101562 303.832031 74.519531 303.851562 C 74.46875 303.328125 74.421875 302.804688 74.375 302.28125 Z M 11.699219 276.699219 C 10.628906 276.226562 10.011719 275.949219 9.339844 275.648438 C 9.21875 277.523438 9.480469 277.679688 11.699219 276.699219 Z M 77.128906 390.21875 C 77.066406 389.84375 77.003906 389.46875 76.941406 389.09375 C 76.289062 389.257812 75.628906 389.390625 75.003906 389.632812 C 74.917969 389.667969 75.007812 390.25 75.015625 390.578125 C 75.71875 390.460938 76.425781 390.339844 77.128906 390.21875 Z M 33.496094 156.742188 C 33.695312 157.664062 33.894531 158.585938 34.09375 159.507812 C 34.367188 159.4375 34.640625 159.367188 34.914062 159.300781 C 34.761719 158.371094 34.605469 157.445312 34.453125 156.519531 C 34.132812 156.59375 33.816406 156.667969 33.496094 156.742188 Z M 62.890625 297.609375 C 62.789062 297.433594 62.691406 297.261719 62.59375 297.085938 C 62.210938 297.183594 61.550781 297.191406 61.496094 297.398438 C 61.304688 298.105469 61.324219 298.878906 61.265625 299.625 C 61.464844 299.671875 61.664062 299.71875 61.867188 299.765625 C 62.207031 299.046875 62.546875 298.328125 62.890625 297.609375 Z M 65.875 80.183594 C 65.714844 79.214844 65.554688 78.246094 65.394531 77.277344 C 65.113281 77.347656 64.832031 77.417969 64.550781 77.484375 C 64.730469 78.441406 64.914062 79.402344 65.09375 80.359375 C 65.355469 80.300781 65.613281 80.242188 65.875 80.183594 Z M 62.703125 238.902344 C 63.476562 238.789062 64.246094 238.671875 65.015625 238.554688 C 64.992188 238.171875 64.972656 237.789062 64.949219 237.40625 C 64.199219 237.40625 63.445312 237.40625 62.691406 237.40625 C 62.695312 237.90625 62.699219 238.40625 62.703125 238.902344 Z M 66.742188 248.285156 C 67.515625 248.210938 68.28125 248.136719 69.054688 248.0625 C 69.074219 247.683594 69.089844 247.308594 69.109375 246.929688 C 68.398438 246.855469 67.683594 246.703125 66.988281 246.78125 C 66.859375 246.796875 66.820312 247.761719 66.742188 248.285156 Z M 79.609375 311.320312 C 79.824219 311.289062 80.171875 310.851562 80.152344 310.621094 C 80.046875 309.441406 79.84375 308.273438 79.675781 307.105469 C 79.425781 307.140625 79.179688 307.171875 78.929688 307.203125 C 78.929688 308.394531 78.894531 309.582031 78.957031 310.765625 C 78.972656 310.980469 79.410156 311.355469 79.609375 311.320312 Z M 43.074219 381.710938 C 43.332031 381.765625 43.589844 381.820312 43.84375 381.875 C 44.265625 381.355469 44.6875 380.839844 45.109375 380.320312 C 45.074219 380.042969 45.042969 379.761719 45.007812 379.480469 C 44.207031 379.402344 43.40625 379.324219 42.601562 379.246094 C 42.761719 380.066406 42.917969 380.890625 43.074219 381.710938 Z M 52.449219 250.613281 C 52.53125 249.296875 52.589844 248.292969 52.679688 246.863281 C 50.234375 248.453125 50.210938 248.992188 52.449219 250.613281 Z M 79.097656 229.472656 C 79.128906 229.382812 79.148438 229.316406 79.175781 229.234375 C 79.917969 227.023438 79.917969 226.382812 79.03125 225.835938 C 78.9375 225.777344 78.84375 225.722656 78.726562 225.664062 C 77.953125 227.996094 78.011719 228.621094 79.097656 229.472656 Z M 46.476562 413.714844 C 48.160156 412.519531 47.894531 411.503906 46.351562 410.449219 C 45.316406 411.648438 44.980469 412.695312 46.476562 413.714844 Z M 9.644531 427.03125 C 9.496094 426.996094 9.347656 426.960938 9.199219 426.929688 C 9.242188 427.542969 9.160156 428.636719 9.351562 428.695312 C 9.5 428.742188 9.652344 428.769531 9.8125 428.785156 C 9.679688 428.238281 9.621094 427.648438 9.644531 427.03125 Z M 51.375 270.078125 C 51.089844 270.410156 51.191406 271.144531 51.113281 271.691406 C 52.019531 271.640625 52.929688 271.585938 53.835938 271.53125 C 53.84375 271.234375 53.847656 270.9375 53.855469 270.640625 C 53.175781 269.789062 52.476562 268.796875 51.375 270.078125 Z M 61.640625 330.203125 C 60.8125 330.265625 59.910156 330.140625 59.183594 330.472656 C 58.824219 330.636719 58.777344 331.644531 58.589844 332.269531 C 58.90625 332.429688 59.222656 332.589844 59.539062 332.746094 C 60.238281 331.898438 60.941406 331.050781 61.640625 330.203125 Z M 69.597656 368.035156 C 69.792969 367.613281 70.25 367.058594 70.140625 366.796875 C 69.71875 365.800781 69.109375 364.902344 68.574219 363.96875 C 68.355469 363.972656 68.140625 363.980469 67.925781 363.988281 C 67.925781 364.5625 67.742188 365.242188 67.960938 365.683594 C 68.390625 366.535156 69.039062 367.257812 69.597656 368.035156 Z M 28.847656 170.941406 C 28.65625 170.910156 28.464844 170.882812 28.273438 170.851562 C 28.222656 171.855469 28.167969 172.859375 28.117188 173.863281 C 28.359375 173.902344 28.605469 173.941406 28.847656 173.984375 Z M 7.738281 259.984375 C 8.457031 259.507812 8.988281 259.152344 9.425781 258.863281 C 10.007812 258.476562 10.414062 258.203125 10.816406 257.9375 C 10.457031 257.574219 10.015625 256.847656 9.75 256.917969 C 9.664062 256.941406 9.578125 256.972656 9.492188 257 C 8.722656 257.238281 7.960938 257.621094 7.332031 258.144531 C 7.15625 258.285156 7.574219 259.308594 7.738281 259.984375 Z M 62.179688 337.890625 C 61.707031 337.585938 60.253906 339.117188 59.261719 339.800781 C 60.113281 341.511719 60.859375 341.730469 61.519531 340.40625 C 61.917969 339.609375 63.640625 338.832031 62.179688 337.890625 Z M 64.054688 380.890625 C 64.835938 380.160156 65.375 379.65625 65.914062 379.148438 C 65.304688 378.820312 64.6875 378.214844 64.085938 378.230469 C 63.46875 378.246094 62.867188 378.875 62.261719 379.230469 C 62.765625 379.695312 63.265625 380.160156 64.054688 380.890625 Z M 67.210938 118.996094 C 66.179688 118.378906 65.191406 117.640625 64.101562 117.210938 C 63.804688 117.089844 63.210938 117.890625 62.367188 118.585938 C 63.929688 119.328125 64.867188 119.933594 65.878906 120.164062 C 66.234375 120.246094 66.761719 119.414062 67.210938 118.996094 Z M 66.152344 435.804688 C 65.445312 435.25 65.019531 434.921875 64.457031 434.484375 C 63.675781 435.75 62.957031 436.734375 62.464844 437.835938 C 62.335938 438.117188 62.914062 438.785156 63.164062 439.277344 C 64.128906 438.15625 65.09375 437.035156 66.152344 435.804688 Z M 64.625 258.59375 C 65.136719 256.621094 63.296875 256.941406 62.488281 256.214844 C 61.566406 255.386719 60.648438 255.277344 60.238281 257.175781 C 60.777344 257.484375 61.222656 257.859375 61.722656 258 C 62.714844 258.277344 64.597656 258.699219 64.625 258.59375 Z M 10.125 115.179688 C 10.703125 114.796875 11.621094 114.484375 11.753906 113.949219 C 12.019531 112.871094 13.425781 111.65625 11.820312 110.515625 C 11.71875 110.441406 11.5625 110.460938 11.15625 110.386719 C 10.929688 110.8125 10.550781 111.304688 10.398438 111.867188 C 10.152344 112.789062 10.015625 113.742188 9.863281 114.691406 C 9.847656 114.78125 9.832031 114.871094 9.820312 114.960938 C 9.816406 114.972656 9.832031 114.992188 9.847656 115.011719 C 9.914062 115.089844 10.085938 115.207031 10.125 115.179688 Z M 53.195312 186.59375 C 52.675781 187.957031 52.152344 189.34375 51.59375 190.808594 C 52.269531 191.125 52.746094 191.347656 53.210938 191.5625 C 55.265625 188.0625 55.277344 187.0625 53.195312 186.59375 Z M 7.535156 219.898438 C 7.746094 220.199219 8.332031 220.507812 8.59375 220.386719 C 9.359375 220.023438 10.113281 219.625 10.855469 219.207031 C 11.105469 219.066406 11.351562 218.9375 11.597656 218.792969 C 11.617188 218.066406 11.640625 217.339844 11.664062 216.609375 C 11.414062 216.742188 11.179688 216.871094 10.9375 217 C 9.820312 217.597656 8.738281 218.175781 7.699219 218.800781 C 7.5 218.917969 7.386719 219.6875 7.535156 219.898438 Z M 79.226562 331.609375 C 79.65625 329.90625 80.105469 328.449219 80.355469 326.949219 C 80.425781 326.519531 79.921875 325.96875 79.679688 325.472656 C 79.3125 325.773438 78.75 325.996094 78.605469 326.398438 C 78.121094 327.757812 77.777344 329.179688 77.398438 330.582031 C 77.367188 330.695312 77.464844 330.851562 77.53125 331.09375 C 77.980469 331.230469 78.476562 331.382812 79.226562 331.609375 Z M 42.246094 63.238281 C 41.601562 63.558594 40.949219 63.871094 40.300781 64.183594 C 41 65.191406 41.726562 66.238281 42.570312 67.453125 C 43.5625 65.523438 42.976562 64.359375 42.246094 63.238281 Z M 38.167969 76.089844 C 38.421875 74.304688 37.949219 73.558594 36.457031 73.855469 C 35.210938 74.101562 33.960938 74.3125 32.59375 74.5625 C 32.675781 75.382812 32.742188 76.011719 32.832031 76.9375 C 34.824219 76.617188 36.519531 76.351562 38.167969 76.089844 Z M 11.199219 159.898438 C 11.40625 158.570312 10.046875 156.769531 8.464844 156.765625 C 8.367188 156.8125 8.242188 156.871094 8.117188 156.929688 C 8.082031 156.945312 8.054688 156.960938 8.019531 156.976562 C 7.980469 157.976562 7.945312 158.976562 7.898438 159.980469 C 7.929688 159.992188 7.957031 160.003906 7.988281 160.015625 C 8.78125 160.351562 9.578125 160.660156 10.390625 160.9375 C 10.558594 160.992188 11.136719 160.304688 11.199219 159.898438 Z M 61.671875 138.132812 C 62.914062 138.742188 63.921875 139.238281 65.410156 139.972656 C 65.691406 137.46875 65.925781 135.371094 66.160156 133.273438 C 65.925781 133.160156 65.691406 133.046875 65.457031 132.933594 C 64.253906 134.585938 63.050781 136.234375 61.671875 138.132812 Z M 34.285156 383.410156 C 35.222656 382.710938 36.164062 382.011719 37.445312 381.054688 C 36.269531 380.09375 35.441406 379.09375 34.421875 378.699219 C 33.773438 378.449219 32.613281 378.832031 32.082031 379.394531 C 31.035156 380.492188 30.757812 381.878906 31.851562 383.339844 C 32.710938 384.484375 33.460938 384.027344 34.285156 383.410156 Z M 8.902344 137.898438 C 8.71875 137.835938 8.527344 137.769531 8.347656 137.710938 C 8.351562 138.730469 8.363281 139.757812 8.359375 140.777344 C 8.503906 140.648438 8.65625 140.519531 8.800781 140.390625 C 9.464844 139.804688 10.136719 139.207031 10.863281 138.566406 C 10.191406 138.339844 9.546875 138.117188 8.902344 137.898438 Z M 101.390625 282.261719 C 97.988281 282.261719 95.230469 285.847656 95.230469 290.269531 L 95.230469 297.363281 C 95.128906 297.359375 95.027344 297.351562 94.925781 297.351562 C 91.355469 297.351562 88.460938 300.242188 88.460938 303.816406 L 88.460938 325.980469 C 88.460938 329.550781 91.355469 332.445312 94.925781 332.445312 C 95.027344 332.445312 95.128906 332.433594 95.230469 332.429688 L 95.230469 379.539062 L 80.996094 379.539062 L 80.996094 412.917969 L 95.230469 412.917969 L 95.230469 418.222656 C 95.230469 422.644531 97.988281 426.226562 101.390625 426.226562 C 104.789062 426.226562 107.546875 422.644531 107.546875 418.222656 L 107.546875 290.269531 C 107.546875 285.847656 104.789062 282.261719 101.390625 282.261719 Z M 18.675781 51.074219 L 30.683594 51.074219 L 41.339844 13.503906 C 38.003906 13.503906 36.21875 12.691406 36.21875 12.691406 Z M 16.625 59.386719 L 11.082031 59.386719 L 11.082031 51.074219 L 16.167969 51.074219 L 34.453125 12.015625 C 35.007812 12.265625 35.570312 12.476562 36.140625 12.660156 C 39.828125 13.855469 43.839844 13.722656 47.132812 12.628906 C 47.675781 12.449219 48.195312 12.242188 48.691406 12.015625 L 67.792969 51.074219 L 72.757812 51.074219 L 72.757812 59.386719 Z M 28.117188 290.574219 L 85.582031 290.574219 L 85.582031 282.261719 L 0 282.261719 L 0 290.574219 Z M 67.203125 457.261719 C 68.980469 457.261719 70.675781 456.933594 72.234375 456.355469 L 72.234375 469.191406 C 72.234375 485.789062 58.777344 499.25 42.175781 499.25 C 25.574219 499.25 12.113281 485.789062 12.113281 469.191406 L 12.113281 455.832031 C 12.289062 455.917969 12.464844 455.996094 12.644531 456.074219 L 12.644531 456.085938 L 12.671875 456.085938 C 14.410156 456.835938 16.339844 457.261719 18.378906 457.261719 L 67.203125 457.261719"/></g></g></svg>