<?xml version="1.0" encoding="UTF-8" standalone="no"?><svg xmlns="http://www.w3.org/2000/svg" xmlns:xlink="http://www.w3.org/1999/xlink" contentScriptType="text/ecmascript" fill="#000000" width="522.8" zoomAndPan="magnify" contentStyleType="text/css" viewBox="6.0 0.0 522.8 500.0" height="500" preserveAspectRatio="xMidYMid meet" version="1"><g id="change1_1"><path fill="#fff9ed" d="M6,10v490h513.3V10H6z M36.8,487.5c-7.3,0-13.3-5.9-13.3-13.3S29.4,461,36.8,461s13.3,5.9,13.3,13.3 S44.1,487.5,36.8,487.5z M36.8,432.7c-7.3,0-13.3-5.9-13.3-13.3s5.9-13.3,13.3-13.3s13.3,5.9,13.3,13.3S44.1,432.7,36.8,432.7z M36.8,377.9c-7.3,0-13.3-5.9-13.3-13.3s5.9-13.3,13.3-13.3s13.3,5.9,13.3,13.3S44.1,377.9,36.8,377.9z M36.8,323.1 c-7.3,0-13.3-5.9-13.3-13.3s5.9-13.3,13.3-13.3s13.3,5.9,13.3,13.3S44.1,323.1,36.8,323.1z M36.8,268.3c-7.3,0-13.3-5.9-13.3-13.3 c0-7.3,5.9-13.3,13.3-13.3s13.3,5.9,13.3,13.3C50.1,262.3,44.1,268.3,36.8,268.3z M36.8,213.5c-7.3,0-13.3-5.9-13.3-13.3 s5.9-13.3,13.3-13.3s13.3,5.9,13.3,13.3S44.1,213.5,36.8,213.5z M36.8,158.6c-7.3,0-13.3-5.9-13.3-13.3S29.4,132,36.8,132 s13.3,5.9,13.3,13.3S44.1,158.6,36.8,158.6z M36.8,103.8c-7.3,0-13.3-5.9-13.3-13.3s5.9-13.3,13.3-13.3s13.3,5.9,13.3,13.3 S44.1,103.8,36.8,103.8z M36.8,49c-7.3,0-13.3-5.9-13.3-13.3s5.9-13.3,13.3-13.3s13.3,5.9,13.3,13.3S44.1,49,36.8,49z"/></g><g id="change2_1"><path fill="#a9eba1" d="M15.2,0v490h513.3V0H15.2z M45.9,477.6c-7.3,0-13.3-5.9-13.3-13.3s6-13.3,13.3-13.3s13.3,5.9,13.3,13.3 S53.2,477.6,45.9,477.6z M45.9,422.8c-7.3,0-13.3-5.9-13.3-13.3s5.9-13.3,13.3-13.3s13.3,5.9,13.3,13.3S53.2,422.8,45.9,422.8z M45.9,367.9c-7.3,0-13.3-5.9-13.3-13.3s5.9-13.3,13.3-13.3s13.3,5.9,13.3,13.3S53.2,367.9,45.9,367.9z M45.9,313.1 c-7.3,0-13.3-5.9-13.3-13.3s5.9-13.3,13.3-13.3s13.3,5.9,13.3,13.3S53.2,313.1,45.9,313.1z M45.9,258.3c-7.3,0-13.3-5.9-13.3-13.3 s5.9-13.3,13.3-13.3s13.3,5.9,13.3,13.3S53.2,258.3,45.9,258.3z M45.9,203.5c-7.3,0-13.3-5.9-13.3-13.3s5.9-13.3,13.3-13.3 s13.3,5.9,13.3,13.3S53.2,203.5,45.9,203.5z M45.9,148.7c-7.3,0-13.3-5.9-13.3-13.3s5.9-13.3,13.3-13.3s13.3,5.9,13.3,13.3 C59.2,142.8,53.2,148.7,45.9,148.7z M45.9,93.9c-7.3,0-13.3-5.9-13.3-13.3s5.9-13.3,13.3-13.3s13.3,5.9,13.3,13.3 S53.2,93.9,45.9,93.9z M45.9,39c-7.3,0-13.3-5.9-13.3-13.3s5.9-13.3,13.3-13.3s13.3,5.9,13.3,13.3S53.2,39,45.9,39z"/></g><g id="change3_1"><path fill="#fffefe" d="M135,48.8c131.2-0.6,262.6-0.4,393.8,0.2v3.4c-41.2,0.1-82.3,0.4-123.5,0.6c-79.7,0.3-159.4,0.5-239,0.9 c-26.2,0.1-52,0.3-77.9,0.4c-0.4,17.7-0.8,35.4-1.2,53c4.4,0,8.7-0.1,13.1-0.1c142.7-0.9,285.4-0.9,428.2-0.3v3.7 c-28.4,0.1-56.8,0.3-85.3,0.4c-79.7,0.3-159.4,0.5-239,0.9c-39,0.2-78.1,0.4-117.1,0.7c-0.1,2.8-0.1,5.6-0.2,8.3 c-0.3,13.7-0.6,27.5-0.9,41.2c8.6-0.1,17.3-0.1,25.9-0.2c138.9-0.9,277.7-0.9,416.6-0.4v3.9c-24.5,0.1-49.1,0.3-73.6,0.4 c-79.7,0.3-159.4,0.5-239,0.9c-39.6,0.2-79.1,0.4-118.7,0.7c-3.7,0-7.5,0.1-11.2,0.1c-0.3,15.4-0.6,30.9-0.8,46.3 c17.8-0.1,35.6-0.2,53.4-0.4c130-0.8,260-0.9,390-0.5v4.1c-15.7,0.1-31.4,0.2-47.1,0.2c-79.7,0.3-159.4,0.5-239,0.9 c-39.6,0.2-79.1,0.4-118.7,0.7c-12.9,0.1-25.8,0.4-38.7,0.7c-0.3,17.4-0.6,34.8-0.8,52.2c9.8-0.1,19.6-0.1,29.4-0.2 c138.3-0.9,276.6-0.9,414.9-0.4v3.9c-24,0.1-48,0.3-72,0.4c-79.7,0.3-159.4,0.5-239,0.9c-39.6,0.2-79.1,0.4-118.7,0.7 c-4.9,0-9.8,0.1-14.7,0.2c-0.2,15.4-0.4,30.8-0.5,46.3c18.9-0.1,37.7-0.3,56.6-0.4c129.4-0.8,258.9-0.9,388.3-0.5v4.1 c-15.1,0.1-30.3,0.2-45.4,0.2c-79.7,0.3-159.4,0.5-239,0.9c-39.6,0.2-79.1,0.4-118.7,0.7c-13.9,0.1-27.9,0.4-41.8,0.7 c0,4.9-0.1,9.9-0.2,14.8c-0.1,12.4-0.2,24.9-0.3,37.3c8.5-0.1,17-0.1,25.5-0.2c140-0.9,279.9-0.9,419.9-0.4v3.8 c-25.7,0.1-51.3,0.3-77,0.4c-79.7,0.3-159.4,0.5-239,0.9c-39.6,0.2-79.1,0.4-118.7,0.7c-3.6,0-7.1,0.1-10.7,0.1 c-0.1,15.4-0.1,30.9-0.2,46.3c17.4-0.1,34.9-0.2,52.3-0.4c131.1-0.8,262.2-0.9,393.3-0.5v4.1c-16.8,0.1-33.6,0.2-50.4,0.2 c-79.7,0.3-159.4,0.5-239,0.9c-39.6,0.2-79.1,0.4-118.7,0.7c-12.5,0.1-25,0.4-37.5,0.6c0,5.9,0,11.8,0,17.7 c0,11.1,0.1,22.3,0.2,33.4h-7.1c0.1-16.1,0.3-32.3,0.4-48.3c0-0.9,0-1.8,0-2.7c-20.4,0.4-40.8,0.8-61.1,0.3v-5.8 c18-0.5,36.1-0.2,54-0.3c2.4,0,4.7,0,7.1,0c0-15.4,0.1-30.8,0.2-46.2c-20.4,0.4-40.9,1-61.3,1.1v-6.3c9.2,0,18.3,0.1,27.5,0 c11.3-0.1,22.6-0.2,33.9-0.2c0.1-17.4,0.2-34.7,0.4-52.1c-20.6,0.4-41.3,0.7-61.8,0v-5.4c19.6-0.8,39.4-0.3,59-0.5 c0.9,0,1.9,0,2.8,0c0.2-15.4,0.3-30.8,0.6-46.2c-20.8,0.4-41.6,1-62.4,1v-6.3c10.8,0,21.7,0.1,32.4,0c10-0.1,20-0.1,30.1-0.2 c0.3-17.4,0.6-34.8,0.9-52.1c-21.2,0.4-42.3,0.8-63.4,0.2v-5.5c19.1-0.7,38.3-0.3,57.4-0.4c2.1,0,4.1,0,6.2,0 c0.3-15.4,0.7-30.8,1-46.2c-21.5,0.4-43,1-64.6,1.1v-6.3c10.3,0,20.5,0.1,30.8,0c11.3-0.1,22.6-0.2,33.9-0.2 c0.4-16.5,0.9-33,1.4-49.5c-22,0.2-44,0.9-66.1,1.2v-6.2c6.4,0,12.8,0,19.2,0c15.7-0.1,31.4-0.2,47.1-0.3c0.6-17.7,1.2-35.4,1.9-53 c-12,0.1-24,0.1-36,0.2c-10.7,0.1-21.4,0.3-32.1,0.5v-5.6c15.6-0.1,31.3-0.2,46.9-0.3c7.1,0,14.3-0.1,21.4-0.1 c0.6-16.3,1.3-32.7,2.1-49h4.2c-0.4,16.3-0.8,32.6-1.2,49c8.4,0,16.7-0.1,25.1-0.1 M114,48.9c7,0,14-0.1,21-0.1"/></g></svg>