<?xml version="1.0" encoding="UTF-8" standalone="no"?><svg xmlns="http://www.w3.org/2000/svg" xmlns:xlink="http://www.w3.org/1999/xlink" contentScriptType="text/ecmascript" fill="#000000" width="227.8" zoomAndPan="magnify" contentStyleType="text/css" viewBox="-0.1 0.0 227.8 499.8" height="499.8" preserveAspectRatio="xMidYMid meet" version="1"><g id="change1_1"><path fill="#ffbd6f" d="M209,12.7c-0.4-0.7-0.9-1.5-1.4-2.2c-1.8-2.3-1.2-5.1-1.4-7.7c0-0.1,0.1-0.2,0.1-0.2c0.5-1.1-0.4-1.9-1-2 c-1.5-0.4-3.1-0.6-4.7-0.6c-3.5,0.1-7,0.4-10.5,0.6c-5.6,0.3-11.2,0.6-16.8,1c-5,0.3-10,0.6-15,0.9c-5.3,0.3-10.7,0.5-16,0.8 c-5.6,0.3-11.1,0.8-16.6,1.1c-5.8,0.4-11.6,0.6-17.3,1c-5.5,0.3-10.9,0.6-16.4,1c-5.2,0.1-10.4,0.5-15.6,0.8 c-5.6,0.3-11.1,0.6-16.7,0.9C53.7,8.4,47.9,8.7,42.1,9c-5,0.3-10,0.7-15,0.9c-6.1,0.4-12.2,0.7-18.2,1c-2,0.1-3.9,0.3-5.9,0.4 c0,0.4,0,0.7,0,0.9c0.7,2.1,0.8,4.3,0.4,6.4c-0.2,1-0.5,1.9-0.4,2.9c0.1,1.5,0.4,3,0,4.5c-0.3,1.3-0.6,2.7-1.3,3.7 c-0.9,1.2-1,2.4-1.1,3.6c0,2.7,0.2,5.3,0.3,8c0,1.1-0.2,2.1-0.3,3.5c-0.6,0.4-0.7,1.3-0.3,2.3c0.7,1.6,1.4,3,1.1,4.9 c-0.2,1.6,0.4,3.2,0.6,4.9c0,0.8,0.1,1.6,0,2.3c-0.2,1.1-0.5,2.2-0.8,3.2c0.2,0,0.4-0.1,0.6-0.1c0.3,0.3,0.7,0.7,0.7,1v0.1H1.8 l0.3,4.3c0,0.1-0.1,0.3,0,0.4c0.2,2.2,0.6,4.5,0.6,6.7c0,1.7-0.2,3.4,0.5,5.1c0.4,0.9,0.1,2.2,0.1,3.3c0,1.8,0,3.6,0.1,5.3 c0,0.8-0.1,1.6,1,2.1c0.9,0.4,1,2.7,0.2,3.5C4.3,94.5,4,95,4,95.4c0,1.4,0.2,2.7,0.3,4.1c0.1,2.2,0.2,4.5,0.4,6.7 c0.1,0.9,0.2,1.8,0.3,2.7c0.2,1.2,0.6,2.4,0.4,3.6c-0.1,0.6-0.1,1.1,0,1.4H4.9l0.3,4.4c-0.1,1-0.3,2.1-0.3,3.1 c0,1.3,0.5,2.6,0.6,3.9c0.2,2.1,0.3,4.2,2,5.8c0.5,0.4,0.7,0.9-0.2,1.3c-0.2,0.1-0.4,0.5-0.5,0.8c-0.2,1.5-0.5,3-0.6,4.6 c-0.1,0.7,0,1.3,0.1,2c0.1,0.7,0.6,1.5,0.5,2c-0.5,1.3,0.2,2.4,0.7,3.4c0.7,1.2,0.8,2.1-0.4,3c1.1,1.1,0.9,2.1,0.3,3.3 c-0.3,0.6-0.2,1.5-0.2,2.3c0,0.3,0.3,0.7,0.2,0.8c-1,0.9-0.3,1.9-0.2,2.9c0.1,1.2,0.3,2.3,0.4,3.5l0.1,2.3l-0.1,0.1 c-0.2,1-0.4,2.1-0.2,3.1c0.3,1.2,1,2.2,0.3,3.5c-0.1,0.2-0.1,0.5,0,0.8c0.7,1.6,0.6,3.1,0.1,4.6c0.3,0.5,0.5,0.9,0.6,1.4 c0.2,1.2,0.1,2.5,1.6,3.2c0.4,0.2,0.6,0.4,0.9,0.7l0.6,9.9c-0.1,0.8-0.3,1.5-0.8,2.3c-0.6,1-1.5,2.4-0.3,3.5 c-0.4,4.5-0.6,8.8,0.1,13.2l0.1,2c0,1.8-0.1,3.3-0.1,4.9c0,0.5-0.1,1.1-0.3,1.4c-0.5,0.6-0.4,1.1,0,1.7c0.4,0.7,0.9,1.6,1,2.4 c0.1,0.9-0.1,1.9-0.2,2.8c-0.1,0.6-0.2,1.3-0.6,1.9c-0.7,1-0.5,1.9,0.2,2.6c1,0.9,1.2,1.9,1,3.1c-0.1,0.7-0.5,1.5-0.4,2.2 c0.6,2.3-0.2,4.7,0.9,6.9c0.6,1.3,0.5,3,0.7,4.6c0.1,0.5,0.2,1.1,0.3,1.5c-0.1,0.9-0.4,1.8-0.3,2.6c0.2,1.5,0.3,2.9,0.2,4.4 c-0.1,0.9,0.2,1.9,0.4,2.9l0.2,2.8c-0.3,1.5-0.4,3,0.2,4.5c0.4,0.9,0.5,1.7,0.3,2.6c-0.4,1.4,0.7,2.9-0.2,4.2c0,0.1,0,0.2,0,0.3 c0.2,2,0.4,3.9,0.5,5.9c0.1,1.4,0.1,2.7,0.2,4.1c0,0.2,0.2,0.4,0.3,0.6l0.1,1.1c-0.5,0.3-0.7,0.8-0.6,1.6c0.2,0.9,0.3,1.8,0.3,2.7 c0,2.4,0.4,4.7,1.6,7c-0.6,1-1.2,2-0.6,3.3c0.3,0.8,0.7,1.8,0.6,2.6c-0.2,1.5,0.5,3.1-0.2,4.6c-0.2,0.4,0,1,0.1,1.6 c0.1,0,0.2,0,0.3,0v0.6c-0.2,0.1-0.3,0.4-0.2,0.9c0.2,1.3-0.1,2.7,0,4.1s0.4,2.8,0.6,4.2c0.2,1.4,0.5,2.8,0.7,4.2 c0,0.1,0,0.3-0.1,0.4c-1.1,0.7-0.7,1.8-0.6,2.8c0.1,1.4,0.3,2.9,0.4,4.3c0,1-0.3,1.9-0.2,2.9c0.1,1.4,0.5,2.8,0.7,4.3 c0.3,2.4,0.4,4.8,0.6,7.2c0.1,0.7,0.1,1.3,0.2,2c0.2,1.2,0.2,2.4,1.4,3.4c0.8,0.7,0.9,2.2,1.2,3.4c0,0.1-0.1,0.3-0.1,0.4 c-0.7,0.8-0.8,1.6-0.5,2.5h-0.1l0.3,1.4c-0.1,0.4-0.3,0.7-0.4,1c-0.3,0.7-0.8,1.4-0.8,2.1c0.1,1.5,0.4,3,0.6,4.5 c0.3,2.9,0.7,5.7,0.9,8.6c0.1,0.8-0.1,1.6-0.1,2.4c0,0.5,0.2,1.2,0.5,1.4c1,0.8,1.9,1.4,0.5,3.1c0.1,0,0.1,0,0.2,0l0.1,2h0.4 c0,0.1,0.1,0.2,0.1,0.3c-1,1.2-2.6,1.7-1.9,3.5c0.1,0.2-0.2,0.4-0.3,0.7c-0.1,0.4-0.4,0.9-0.4,1.3c0.1,0.8,0.3,1.6,0.6,2.4 c0.5,1.7,0.9,3.4,0.4,5.1c-0.1,0.2-0.1,0.4-0.1,0.6c0.1,1.2,0.3,2.4,0.4,3.6c0.1,0.7,0.3,1.5,0.2,2.2c-0.1,0.9-0.2,1.5-0.1,1.9h-0.3 l0.2,3.2h0.2c0,0.1,0,0.3,0,0.5c0,0.5,0.5,1,0.3,1.5c-0.5,1.8-0.4,3.5,0.1,5.2c0.3,1,0.4,2.2-0.9,3c0.5,1.1,1.1,2.3,1.6,3.4 c0.1,0.2,0.2,0.5,0.2,0.7c0.1,2.6,0.1,5.3,0.2,7.9c0,1.7,0.2,3.3,0.2,5c0,2.2-0.3,4.4,0.3,6.7c0.5,1.9,0.2,3.9,0.3,5.9 c0,0.3,0.2,0.7,0.2,1c0,1,0.1,2.1,0.1,3.2h-0.2l0.1,2.4c-0.2,0-0.3,0-0.5,0c0.1,0.8,0.1,1.5,0.2,2.1c0.1,0.7,0.4,1.4,0.5,2.1 c0.3,2.4,0.3,4.8,0.8,7.1c0.6,3-0.1,6.1,0.8,9c0.2,0.5,0.1,1,0.1,1.5c0,1.2,0,1.7,0.6,1.9v0.6c-0.2,0-0.3,0-0.5,0.1 c0.1,3,0.1,5.8,0.2,8.6c0.1,2.2,0.2,4.4,0.3,6.5c0,0.6,0.2,1.1,0.1,1.7c-0.3,2.5,1.7,4.7,4.2,4.6c1.5-0.1,2.9-0.5,4.3,0.6 c0.6,0.5,1.6,0.6,2.3,0.5c1.8-0.3,3.6,0.5,5.5,0.2c2.1-0.4,4.3-0.2,6.4-0.2c2.4,0,4.7-1.1,7.2-0.5c1.5,0.4,3.2,0.1,4.9,0.1 c1.6,0,3.1-0.2,4.5,0.9c0.1,0.1,0.6,0,0.8-0.2c1.8-1.3,3.9-1.7,6-0.9c-0.5,0-1,0-1.6,0c1.7,1,7.5,1,9.6-0.1 c-0.6-0.1-1.1-0.1-1.7-0.2v-0.1c1.6,0,3.1-0.1,4.7-0.1v0.2c-0.2,0-0.4,0.1-0.5,0.1c0.2,0.2,0.4,0.2,0.6,0.3v0.3l4.4-0.3 c0.1,0,0.1,0,0.2,0c2.1,0,4.2,0,6.2,0c0.6,0,1.2,0.1,1.8,0.1c1.3,0.1,2.6,0.2,3.9,0.1c1.6-0.1,3.3-0.7,4.9-0.5 c3.3,0.4,6.5,0.3,9.8-0.2c1.4-0.2,2.9-0.5,4.3-0.6c2.2-0.1,4.4-0.1,6.6-0.1c1.1,0,2.2,0.1,3.3,0.1c2.9,0,5.8-0.6,8.7,0.3 c0.3,0.1,0.8,0,1.1,0c1.2-0.1,2.4-0.3,3.6-0.4c0.8-0.1,1.7,0.1,2.5,0c1.1-0.1,2.2-0.5,3.4-0.6c2.6-0.2,5.2-0.3,7.8-0.3 c3.3,0,6.7,0.4,10-0.4c1.5-0.4,3.1,0,4.7,0c3,0,5.9,0,8.9,0c0.1,0,0.3,0,0.4-0.1c1.1-0.6,2.2-0.7,3.5-0.4c0.3,0.1,0.8-0.1,1.1-0.2 c0.6-0.1,1.1-0.1,1.7-0.1c0.9-0.1,1.7-0.1,2.6-0.2c0.3,0,0.5-0.1,0.8-0.1c3,0.1,6,0.7,9-0.4c0.2-0.1,0.6,0.1,0.9,0.2 c1.2,0.2,2.4,0.7,3.5,0.7c1.9,0,3.9-0.3,5.8-0.5c1.8-0.2,3.6-0.6,5.5-0.7c1.7-0.1,3.5,0.1,5.2,0.1c0.5,0,1.3-0.3,1.5-0.6 c0.6-1,1.2-2.2,1.4-3.3c0.3-1.9,1.6-3.1,2.5-4.7c0.5-0.9,1.8-1.6,1-2.8c0.3-0.6,0.8-1,0.7-1.4c-0.1-2.8-0.3-5.5-0.5-8.2 c-0.1-1.9-0.3-3.7-0.4-5.6c0-1.8,0.1-3.6,0.1-5.4c0-0.8,0-1.5-0.9-2c-0.4-0.3-0.8-1-0.8-1.5c0-1.6,0.3-3.1,0.5-4.7 c0.2-1.5,0.5-2.9,0.5-4.4c0.1-1.1-0.2-2.1-0.2-3.2c0-1.9,0-3.9,0-5.8c0-1,0-2,0.2-3c0.3-1.6,1-3.1-0.9-4.3c-1.2-0.7-1.4-2.1-0.7-3.6 c0.5,0.3,0.8,0.6,1.2,0.8c0.3,0.1,0.7,0.3,0.9,0.2c0.9-0.4,1.5-2.5,1.2-3.5c-0.4-1.3-0.9-2.6-0.9-3.8c0-1.6,0.3-3.1-0.5-4.6 c-0.1-0.2,0-0.6,0-0.9c0-0.4,0-0.8,0-1.1c-0.1-1.4-0.3-2.8-0.2-4.1c0.1-2.1,0.5-4.1,0.8-6.2c-1.5-0.5-2.7-0.9-4.2-1.3 c0.4-0.6,0.9-1.2,1.3-1.9c0.3-0.5,0.6-1.2,0.6-1.7c-0.1-2.6-0.3-5.1-0.4-7.7c0-1.3,0.2-2.6,0.2-3.9c0-1.5-0.2-3-0.3-4.5 c-0.1-1.7-1.4-2.9-3.2-2.8c-0.9,0.1-1.8,0-2.7-0.2c-0.3,0-0.6-0.4-0.7-0.7c-0.3-1-0.4-2.1-0.6-3.1c-0.2-1.7-0.8-3.4,0.3-5 c0.1-0.1,0.1-0.4,0-0.6c-0.3-1.2-0.6-2.4-0.8-3.6c-0.1-1-0.1-2,0-3c0.2-2.6,0.4-5.2,0.6-7.8c0-0.5-0.2-0.9-0.3-1.4 c-0.3-1.6-0.9-3.3-0.8-4.9c0.1-1.8,0.8-3.6,1.2-5.4c0.1-0.3,0-0.6-0.1-0.9c-0.1-0.4-0.4-0.8-0.5-1.2c-0.4-1.7-0.8-3.3-1.1-5 c-0.1-0.5,0-1.1,0.1-1.7c0.2-1.4,0.6-2.8,0.6-4.1c0.1-1.9,0.4-3.6,1.9-5c0.2-0.2,0.3-0.4,0.3-0.7c0.3-1.1,0.6-2.2,0.9-3.4 c0.6-2.1,0.7-4.3,0.7-6.4c0-1.2,0.5-3.1,1.3-3.4c1.4-0.6,1-1.2,0.6-2c-0.7-1.3-1.2-2.5-1.1-4c0-1.7-0.1-3.4-0.2-5.1 c-0.1-1.7-0.1-1.7-1.9-1.3c-0.9,0.1-1.7-0.5-1.2-1.1c0.8-0.9,0.2-1.9,0.3-2.8c0-0.6-0.4-1.2-0.3-1.7c0.1-1.3,0.5-2.5,0.6-3.8 c0.1-0.6-0.1-1.1-0.2-1.7c-0.2-1.1-0.6-2.3-0.6-3.4c0.1-2.2,0.5-4.5,0.8-6.7c0.1-0.8,0.4-1.7,0.9-2.4c0.7-1.2,0.3-2.1-0.2-3.1 c-0.4-0.9-0.9-1.3-1.9-0.8c-0.3,0.1-0.7,0-0.8,0c0.1-0.8,0.3-1.6,0.4-2.3c1.6,0.3,2.1,0,2.4-1.7c0.1-0.7,0.5-1.3,0.5-2 c0.1-1.5,0-3-0.1-4.5c-0.1-1.9-0.4-3.8-0.5-5.7c-0.1-0.6,0-1.3-0.3-1.9c-0.7-1.5-1.2-3-1-4.8c0.1-1.1-0.3-2-1.6-2.3 c-0.5-0.1-1-0.3-1.7-0.6c1.6-0.6,1.2-1.7,1.2-2.7c0-0.3-0.3-0.6-0.3-0.8c0.6-1.5,1.2-2.9,1.8-4.3c0.1-0.1,0.2-0.4,0.1-0.5 c-0.6-1,0.1-1.6,0.6-2.3c0.3-0.4,0.4-1.1,0.3-1.6c-0.2-0.9-1-1.9-0.7-2.6c0.5-1.6-0.4-2.8-0.7-4.1c-0.1-0.4-0.2-0.8-0.3-1.2 c-0.3-0.7-0.6-1.5-0.8-2.2c-0.3-1.2,0.2-2.7-1.7-3.1c-0.4-0.1-0.8-0.9-0.8-1.4c-0.1-1.1-0.1-2.2-0.1-3.3c-1.1-0.2-1.4-1.2-1.8-2.1 c-0.4-1.2-0.8-2.3-1.3-3.5c-0.3-0.8-0.7-1.6-1-2.4c0.1,0,0.2-0.1,0.3-0.1c-0.8-0.7-1.5-1.4-2.3-2c1.2-2.2,1.4-4.6,1.5-7 c0.1-1.5-0.3-3.1-0.5-4.6c-0.1-1.1,0-2.3-0.3-3.4c-0.5-1.3-0.2-2.4,0.5-3.4c0.5-0.8,0.4-1.2-0.1-1.9c-1.1-1.3-1-2.9-0.2-4.4 c0.6-1.1,1-2.4,1.1-3.6c0.1-1.6,0.1-3.3,0.7-4.9c0.5-1.3,0.5-2.7,0.6-4.1c0.1-0.8,0.1-1.6-0.1-2.4c-0.1-0.4-0.5-1.1-0.7-1.1 c-1.5-0.1-1.6-1.4-2.1-2.3c-0.3-0.5-1-1.4-0.1-2.2c0.1-0.1-0.1-0.4-0.2-0.6c-0.6-1.4-1.3-2.8-0.2-4.4c0.3-0.4,0.2-1.2,0.2-1.8 c-1.5-0.3-1.4-0.3-1.3-1.6c0-0.4-0.1-0.8-0.3-1.2c-0.4-1.5-2.1-2.7-1-4.5c0-0.1,0-0.2,0-0.4c-0.3-0.8-0.6-1.6-0.8-2.4 c-0.1-0.7-0.3-1.6,0.6-2.1c0.3-0.2,0.6-0.9,0.5-1.3c-0.2-1.7-0.4-3.5-0.7-5.2c-0.2-1.1-0.2-2.2,0.3-3.3c0.5-1.2,1-2.4,0.6-3.7 c-0.1-0.3,0.1-0.7,0.2-1.1c0.4-1.2,0.8-2.3,1.1-3.5c0.7-3.3,1.3-6.7,2-10.1c0.2-0.8,0-1.5-1.1-1.7c-1.5-0.3-1.7-1-1.3-2.4 c0.3-1.2,0.3-2.5,0.3-3.8c0-1.2-0.3-2.5-0.3-3.7c0-2,0.3-4-0.2-5.9c-0.4-1.7-1-3.4-1.1-5.1c-0.1-1.2-0.5-1.9-1.4-2.4 c-0.8-0.5-0.8-1-0.6-1.7c0.1-0.6,0.1-1.2,0.2-1.8c0.2-1.3-0.2-2.7,1-3.8c0.3-0.2,0.4-0.7,0.4-1.1c0.2-1.2,0.1-2.4,0.4-3.6 c0.6-2.1,1.4-4.2,2-6.3c0.9-2.7,0.6-3.4-1.6-4.3c0.1-0.6,0.2-1.2,0.3-1.8c0.1-1.1-0.2-2.5,0.4-3.2c1-1.4,0.1-1.9-0.6-2.7 c-0.4-0.5-0.7-1.2-0.8-1.8c-0.2-1,0.1-2.1-0.2-3.1c-0.4-1.6-0.1-3.1,0.3-4.7c0.1-0.5,0-1-0.1-1.5c-0.1-0.3-0.5-0.7-0.4-0.9 c0.7-1.6-1.2-3.2,0.2-4.7c0.1-0.1,0-0.4,0-0.6c-0.3-1.2-0.6-2.3-0.8-3.5c-0.1-0.3,0.1-0.5,0.2-0.8c0.3-0.9,0.9-2,0.7-2.8 c-0.5-1.5-0.4-2.8-0.1-4.3c0.2-0.9-0.3-1.8-0.4-2.8c-0.2-2.1-0.1-4.2-0.6-6.1c-0.4-1.4-0.3-2.5,0.2-3.7c0.2-0.3,0.7-0.8,1-0.7 c1.7,0.3,2-0.9,2.5-2c0.2-0.4,0.4-0.9,0.8-1C210.1,15.3,210.3,14.9,209,12.7z M7.2,139.2c0.1,0,0.2,0,0.3,0v0.1 C7.4,139.2,7.3,139.2,7.2,139.2z M18.2,331.8c0.1,0,0.1,0,0.2,0v0.4c-0.1,0-0.1,0-0.2,0C18.2,332,18.2,331.9,18.2,331.8z"/></g><g id="change2_1"><path fill="#fffefe" d="M77.6,58.3c2-0.1,3.4-1.7,3.3-3.7c-0.1-1.7-1.8-3.3-3.6-3.1c-1.3,0.2-3.2,1.7-3.1,3.8 C74.2,57,75.9,58.4,77.6,58.3z M93.6,50.6c-1.4,0-3.3,2.2-3.3,3.8c0,1.7,1.7,3.1,3.5,3c1.9-0.1,3.2-1.5,3.2-3.5 C96.9,52,95.4,50.6,93.6,50.6z M157.9,53.8c1.9-0.1,3.3-1.7,3.2-3.5c-0.1-1.6-1.4-3.2-2.7-3.1c-2.4,0.1-4,1.4-3.9,3.4 C154.6,52.8,155.8,54,157.9,53.8z M109.7,49.6c-1.6,0-3.5,1.9-3.5,3.6c0,1.5,1.9,3.3,3.5,3.2c1.7-0.1,3.2-1.6,3.1-3.3 C112.8,51.4,111.3,49.7,109.7,49.6z M170.5,49.7c-0.1,1.8,1.5,3.2,3.4,3.2c1.7,0,3.4-1.5,3.4-3c0-2-1.5-3.5-3.5-3.5 C172.1,46.1,170.6,47.7,170.5,49.7z M126,48.9c-2.1,0.3-3.6,1.6-3.5,3.4c0,2.2,1.2,3,3.3,3.1c1.9,0.1,3.3-1.5,3.2-3.5 C128.9,50.5,127.2,48.7,126,48.9z M95,48.7c0-1.2-0.1-2.4-0.1-3.6c-0.1,0-0.3-0.1-0.4-0.1c-0.5,1-1,2-1.5,3c-0.3-0.5-0.5-1-0.8-1.3 c-0.4-0.5-0.8-0.9-1.3-1.4c-0.1,0.6-0.3,1.2-0.3,1.8c0,0.7,0.1,1.4,0.2,2.1c0.2,0,0.3,0,0.5-0.1c0-0.7,0-1.3,0.1-2.3 c0.6,1,1.1,1.7,1.6,2.5c0.5-1,0.9-1.8,1.3-2.6c0.2,0.4,0.2,0.8,0.2,1.1s0.1,0.6,0.1,0.9C94.8,48.7,94.9,48.7,95,48.7z M124.5,45.5 c1.3-0.6,1.2,1.3,2.3,1.3c0.3-1.1,0.6-2.2,0.9-3.3c-0.1,0-0.3-0.1-0.4-0.1c-0.3,0.6-0.5,1.3-0.9,2.2c-0.5-0.9-0.8-1.6-1.2-2.2 c-0.2,0-0.3,0.1-0.5,0.1C124.7,44.1,124.7,44.8,124.5,45.5L124.5,45.5z M172.2,41c-0.9,1.7,1.3,1.5,2,2.6c-0.8,0.1-1.4,0.2-2.1,0.3 c0.3,0.4,0.7,0.7,1.1,0.6c0.5-0.2,1-0.6,1.5-0.9c-0.6-0.8-1.2-1.5-2-2.4c0.5-0.1,1.1-0.2,2-0.3C173.5,40.1,172.5,40.4,172.2,41z M76.3,50c0.6-0.1,1.2-0.1,1.7-0.3c0.4-0.2,0.8-0.7,0.8-1.1c0-0.4-0.6-0.7-1-1c-0.3-0.2-0.7-0.3-1.4-0.6c1-0.3,1.5-0.5,2.1-0.7 c-0.1-0.2-0.1-0.4-0.2-0.5c-0.7,0.3-1.8,0.4-2,0.9c-0.7,1.6,1.4,1.2,1.9,2.2c-0.7,0.2-1.3,0.4-1.9,0.6C76.2,49.7,76.2,49.8,76.3,50z M156.9,45.5c0.2,0,0.3,0,0.5-0.1c0-0.5,0-1.1,0.1-1.6c0.5-0.1,1-0.3,1.7-0.4c-0.8-0.3-1.3-0.6-1.9-0.8c0.1-0.1,0.1-0.2,0.2-0.4 c0.4-0.2,0.8-0.3,1.2-0.5c0-0.1-0.1-0.2-0.1-0.3c-0.6,0-1.2,0-2,0.1C156.8,43,156.5,44.3,156.9,45.5z M142.8,42.3 c-0.9,0.1-1.9,0.1-2.8,0.2c0,0.1,0,0.2,0,0.3c0.4,0.1,0.7,0.3,1.1,0.4c0.1,1,0.2,2,0.3,3c0.1,0,0.3,0,0.4,0c0-1-0.1-2-0.1-3 c0.5-0.2,0.8-0.4,1.1-0.5C142.9,42.6,142.8,42.4,142.8,42.3z M109.4,46c0.1,0.6,0.2,1.2,0.3,1.7c0.7-1.1-0.6-2.7,1.2-3.5 c-0.8,0.1-1.5,0.1-2.3,0.2C109.8,44.5,109.3,45.4,109.4,46z M124.6,45.5c-0.3,0-0.6,0.1-1,0.1c0.1,0.3,0.1,0.6,0.2,0.8 c0.2,0.3,0.5,0.5,0.7,0.7c0.1-0.4,0.3-0.7,0.3-1.1C124.9,45.9,124.7,45.7,124.6,45.5C124.5,45.5,124.6,45.5,124.6,45.5z M93.7,57.3 c2-0.1,3.4-1.7,3.3-3.7c-0.1-1.7-1.8-3.3-3.6-3.1c-1.3,0.2-3.2,1.7-3.1,3.8C90.3,56,92,57.4,93.7,57.3z M109.8,56.4 c2-0.1,3.4-1.7,3.3-3.7c-0.1-1.7-1.8-3.3-3.6-3.1c-1.3,0.2-3.2,1.7-3.1,3.8C106.4,55,108.1,56.4,109.8,56.4z M125.9,55.4 c2-0.1,3.4-1.7,3.3-3.7c-0.1-1.7-1.8-3.3-3.6-3.1c-1.3,0.2-3.2,1.7-3.1,3.8C122.5,54,124.2,55.5,125.9,55.4z M142,54.4 c2-0.1,3.4-1.7,3.3-3.7c-0.1-1.7-1.8-3.3-3.6-3.1c-1.3,0.2-3.2,1.7-3.1,3.8C138.6,53,140.3,54.5,142,54.4z M177.5,57.1L2.1,67.8 L2,66.7l175.2-10.6L177.5,57.1z M179,82L5.8,92.5l-0.1-1.1l173-10.5L179,82z M180.5,106.7L5.1,117.3L5,116.2l175.2-10.6L180.5,106.7 z M182,131.4L6.6,142l-0.1-1.1l175.2-10.6L182,131.4z M183.4,153.9L8,164.5l-0.1-1.1l175.2-10.6L183.4,153.9z M184.9,178.6 L11.7,189.1l-0.1-1.1l173-10.5L184.9,178.6z M186.4,203.3L11,214.1l-0.1-1.1l175.2-10.6L186.4,203.3z M187.9,228.2L12.5,238.8 l-0.1-1.1l175.2-10.6L187.9,228.2z M189.3,251.8L14.1,262.4l-0.1-1.1l175.2-10.6L189.3,251.8z M190.8,276.5L15.6,287.1l-0.1-1.1 l175.2-10.6L190.8,276.5z M192.3,301.2L17.1,311.8l-0.1-1.1l175.2-10.6L192.3,301.2z M193.8,325.9L18.6,336.5l-0.1-1.1l175.2-10.6 L193.8,325.9z M195.2,348.6L20,359.2l-0.1-1.1l175.2-10.6L195.2,348.6z M196.7,373.3L21.5,383.9l-0.1-1.1l175.2-10.6L196.7,373.3z M198.2,398L23,408.6l-0.1-1.1l175.2-10.6L198.2,398z M199.7,422.7L24.5,433.3l-0.1-1.1l175.2-10.6L199.7,422.7z M201.2,447.4 L26,458l-0.1-1.1l175.2-10.6L201.2,447.4z M202.7,472.1L27.5,482.7l-0.1-1.1L202.6,471L202.7,472.1z"/></g><g id="change3_1"><path fill="#fd87b1" d="M61.1,8c-1-3.3-4.7-6.6-8-6.8C49.8,1,45.6,0.9,42.4,6.5c-3.2,5.6-10.9,45.2-10.9,45.2s-1.2,3.9,0.9,6.8 c2.1,2.9,4.1,3.3,4.1,3.3s6.5,2.1,9.9-3.3S55,26.4,55,26.4l0.7-3.4l-2.1-0.5l-7.2,29.8c0,0-1.2,6.6-4.7,7.3 c-3.5,0.7-4.4-0.1-4.4-0.1s-3.1-1-3.7-4c-0.5-2.9,2.8-14.9,2.8-14.9l7.3-31.2c0,0,1.4-5.2,4.9-5.8c3.5-0.6,4.8-0.2,4.8-0.2 s3.9,1.1,4.9,3.6c0.1,0.3,0.2,0.6,0.3,1L61.1,8z"/></g></svg>