<?xml version="1.0" encoding="UTF-8" standalone="no"?><svg xmlns="http://www.w3.org/2000/svg" xmlns:xlink="http://www.w3.org/1999/xlink" contentScriptType="text/ecmascript" zoomAndPan="magnify" contentStyleType="text/css" id="Layer_1" enable-background="new 0 0 502 502" version="1.1" xml:space="preserve" fill="#000000" preserveAspectRatio="xMidYMid meet" viewBox="0 0 502 502" x="0px" y="0px">
<g>
	<g>
		<g>
			<g id="change1_1"><rect x="1" fill="#fefefe" width="500" y="20" height="2"/></g>
		</g>
		<g>
			<g id="change1_2"><rect x="1" fill="#fefefe" width="500" y="100" height="2"/></g>
		</g>
		<g>
			<g id="change1_3"><rect x="1" fill="#fefefe" width="500" y="180" height="2"/></g>
		</g>
		<g>
			<g id="change1_4"><rect x="1" fill="#fefefe" width="500" y="220" height="2"/></g>
		</g>
		<g>
			<g id="change1_5"><rect x="1" fill="#fefefe" width="500" y="60" height="2"/></g>
		</g>
		<g>
			<g id="change1_6"><rect x="1" fill="#fefefe" width="500" y="80" height="2"/></g>
		</g>
		<g>
			<g id="change1_7"><rect x="1" fill="#fefefe" width="500" y="160" height="2"/></g>
		</g>
		<g>
			<g id="change1_8"><rect x="1" fill="#fefefe" width="500" y="40" height="2"/></g>
		</g>
		<g>
			<g id="change1_9"><rect x="1" fill="#fefefe" width="500" y="120" height="2"/></g>
		</g>
		<g>
			<g id="change1_10"><rect x="1" fill="#fefefe" width="500" y="140" height="2"/></g>
		</g>
		<g>
			<g id="change1_11"><rect x="1" fill="#fefefe" width="500" y="200" height="2"/></g>
		</g>
		<g>
			<g id="change1_12"><rect x="1" fill="#fefefe" width="500" y="240" height="2"/></g>
		</g>
		<g>
			<g id="change1_13"><rect x="1" fill="#fefefe" width="500" y="260" height="2"/></g>
		</g>
		<g>
			<g id="change1_14"><rect x="1" fill="#fefefe" width="500" y="280" height="2"/></g>
		</g>
		<g>
			<g id="change1_15"><rect x="1" fill="#fefefe" width="500" y="300" height="2"/></g>
		</g>
		<g>
			<g id="change1_16"><rect x="1" fill="#fefefe" width="500" y="320" height="2"/></g>
		</g>
		<g>
			<g id="change1_17"><rect x="1" fill="#fefefe" width="500" y="340" height="2"/></g>
		</g>
		<g>
			<g id="change1_18"><rect x="1" fill="#fefefe" width="500" y="360" height="2"/></g>
		</g>
		<g>
			<g id="change1_19"><rect x="1" fill="#fefefe" width="500" y="380" height="2"/></g>
		</g>
		<g>
			<g id="change1_20"><rect x="1" fill="#fefefe" width="500" y="400" height="2"/></g>
		</g>
		<g>
			<g id="change1_21"><rect x="1" fill="#fefefe" width="500" y="420" height="2"/></g>
		</g>
		<g>
			<g id="change1_22"><rect x="1" fill="#fefefe" width="500" y="440" height="2"/></g>
		</g>
		<g>
			<g id="change1_23"><rect x="1" fill="#fefefe" width="500" y="460" height="2"/></g>
		</g>
		<g>
			<g id="change1_24"><rect x="1" fill="#fefefe" width="500" y="480" height="2"/></g>
		</g>
	</g>
	<g>
		<g>
			<g id="change1_25"><rect x="480" fill="#fefefe" width="2" y="1" height="500"/></g>
		</g>
		<g>
			<g id="change1_26"><rect x="400" fill="#fefefe" width="2" y="1" height="500"/></g>
		</g>
		<g>
			<g id="change1_27"><rect x="320" fill="#fefefe" width="2" y="1" height="500"/></g>
		</g>
		<g>
			<g id="change1_28"><rect x="280" fill="#fefefe" width="2" y="1" height="500"/></g>
		</g>
		<g>
			<g id="change1_29"><rect x="440" fill="#fefefe" width="2" y="1" height="500"/></g>
		</g>
		<g>
			<g id="change1_30"><rect x="420" fill="#fefefe" width="2" y="1" height="500"/></g>
		</g>
		<g>
			<g id="change1_31"><rect x="340" fill="#fefefe" width="2" y="1" height="500"/></g>
		</g>
		<g>
			<g id="change1_32"><rect x="460" fill="#fefefe" width="2" y="1" height="500"/></g>
		</g>
		<g>
			<g id="change1_33"><rect x="380" fill="#fefefe" width="2" y="1" height="500"/></g>
		</g>
		<g>
			<g id="change1_34"><rect x="360" fill="#fefefe" width="2" y="1" height="500"/></g>
		</g>
		<g>
			<g id="change1_35"><rect x="300" fill="#fefefe" width="2" y="1" height="500"/></g>
		</g>
		<g>
			<g id="change1_36"><rect x="260" fill="#fefefe" width="2" y="1" height="500"/></g>
		</g>
		<g>
			<g id="change1_37"><rect x="240" fill="#fefefe" width="2" y="1" height="500"/></g>
		</g>
		<g>
			<g id="change1_38"><rect x="220" fill="#fefefe" width="2" y="1" height="500"/></g>
		</g>
		<g>
			<g id="change1_39"><rect x="200" fill="#fefefe" width="2" y="1" height="500"/></g>
		</g>
		<g>
			<g id="change1_40"><rect x="180" fill="#fefefe" width="2" y="1" height="500"/></g>
		</g>
		<g>
			<g id="change1_41"><rect x="160" fill="#fefefe" width="2" y="1" height="500"/></g>
		</g>
		<g>
			<g id="change1_42"><rect x="140" fill="#fefefe" width="2" y="1" height="500"/></g>
		</g>
		<g>
			<g id="change1_43"><rect x="120" fill="#fefefe" width="2" y="1" height="500"/></g>
		</g>
		<g>
			<g id="change1_44"><rect x="100" fill="#fefefe" width="2" y="1" height="500"/></g>
		</g>
		<g>
			<g id="change1_45"><rect x="80" fill="#fefefe" width="2" y="1" height="500"/></g>
		</g>
		<g>
			<g id="change1_46"><rect x="60" fill="#fefefe" width="2" y="1" height="500"/></g>
		</g>
		<g>
			<g id="change1_47"><rect x="40" fill="#fefefe" width="2" y="1" height="500"/></g>
		</g>
		<g>
			<g id="change1_48"><rect x="20" fill="#fefefe" width="2" y="1" height="500"/></g>
		</g>
	</g>
	<g>
		<g id="change1_49"><path fill="#fefefe" d="M502,502H0V0h502V502z M2,500h498V2H2V500z"/></g>
	</g>
</g>
</svg>