<?xml version="1.0" encoding="UTF-8" standalone="no"?><svg xmlns="http://www.w3.org/2000/svg" xmlns:xlink="http://www.w3.org/1999/xlink" contentScriptType="text/ecmascript" fill="#ffffff" width="126.1" zoomAndPan="magnify" contentStyleType="text/css" viewBox="-0.1 0.0 126.1 88.1" height="88.1" preserveAspectRatio="xMidYMid meet" version="1"><g id="change1_1"><path fill="inherit" d="M126.003,75.874c-0.271-10.147-1.146-28.897-3.948-40.469c-3.128-12.903-6.349-22.476-11.772-27.172V4.55 c0-2.509-2.045-4.55-4.56-4.55h-9.15c-2.515,0-4.56,2.041-4.56,4.55v2.815c-0.35,0.237-0.66,0.463-0.881,0.643 C88.521,6.843,77.965,2.59,63.003,2.59S37.486,6.843,34.875,8.008c-0.221-0.18-0.531-0.406-0.881-0.643V4.55 c0-2.509-2.045-4.55-4.56-4.55h-9.15c-2.514,0-4.56,2.041-4.56,4.55v3.682c-5.425,4.7-8.644,14.271-11.772,27.172 c-2.802,11.571-3.676,30.321-3.948,40.47c-0.132,5.187,3.053,9.832,7.921,11.557c1.273,0.457,2.619,0.688,3.998,0.688 c3.98,0,7.681-1.971,9.901-5.272l10.06-15.001c2.096-3.135,5.606-5.006,9.389-5.006h43.46c3.783,0,7.293,1.871,9.39,5.007 l10.06,15.001c2.266,3.374,6.008,5.28,9.89,5.28c1.336,0,2.69-0.226,4.005-0.696c4.74-1.682,7.925-6.203,7.925-11.252 L126.003,75.874z M96.573,2h9.15c1.411,0,2.56,1.144,2.56,2.55v2.232c-1.118-0.665-2.305-1.164-3.563-1.456 c-4.734-1.098-8.392-0.144-10.707,0.914V4.55C94.013,3.144,95.162,2,96.573,2z M20.283,2h9.15c1.412,0,2.56,1.144,2.56,2.55v1.69 c-2.314-1.059-5.972-2.013-10.706-0.914c-1.258,0.291-2.446,0.79-3.564,1.456V4.55C17.724,3.144,18.872,2,20.283,2z M124.003,76.18 c0,4.204-2.65,7.968-6.597,9.368c-4.272,1.528-9.028-0.041-11.563-3.814L95.785,66.735c-2.468-3.691-6.599-5.895-11.051-5.895 h-43.46c-4.452,0-8.583,2.203-11.051,5.894L20.164,81.733c-1.847,2.747-4.927,4.387-8.24,4.387c-1.148,0-2.266-0.192-3.326-0.572 c-4.054-1.437-6.704-5.303-6.594-9.621c0.27-10.067,1.134-28.659,3.892-40.05c3.104-12.802,6.24-22.194,11.458-26.418 c0.001-0.001,0.002-0.002,0.004-0.003c1.317-1.078,2.792-1.812,4.382-2.18C27,6.052,30.72,7.676,32.469,8.751 c0.986,0.607,1.519,1.137,1.521,1.14c0.302,0.307,0.766,0.385,1.154,0.196c0.112-0.055,11.384-5.498,27.858-5.498 s27.747,5.442,27.858,5.498c0.384,0.188,0.849,0.11,1.152-0.194c0.005-0.005,0.538-0.535,1.523-1.142 c1.749-1.076,5.468-2.7,10.731-1.477c1.59,0.368,3.064,1.102,4.386,2.183c5.218,4.224,8.354,13.616,11.458,26.418 c2.758,11.392,3.623,29.983,3.892,40.024V76.18z"/><path fill="inherit" d="M73.434,24.34h-20.86c-0.552,0-1,0.448-1,1v6.31c0,0.552,0.448,1,1,1h20.86c0.552,0,1-0.448,1-1v-6.31 C74.434,24.788,73.986,24.34,73.434,24.34z"/><path fill="inherit" d="M73.434,36.3h-20.86c-0.552,0-1,0.448-1,1v6.31c0,0.552,0.448,1,1,1h20.86c0.552,0,1-0.448,1-1V37.3 C74.434,36.748,73.986,36.3,73.434,36.3z"/><path fill="inherit" d="M99.124,31.78c3.617,0,6.56-2.947,6.56-6.57c0-3.623-2.943-6.57-6.56-6.57c-3.623,0-6.57,2.947-6.57,6.57 C92.553,28.833,95.501,31.78,99.124,31.78z"/><circle fill="inherit" r="6.57" cx="87.733" cy="37"/><path fill="inherit" d="M98.773,42.56c-3.623,0-6.57,2.947-6.57,6.57c0,3.622,2.947,6.569,6.57,6.569s6.57-2.947,6.57-6.569 C105.343,45.507,102.396,42.56,98.773,42.56z"/><path fill="inherit" d="M110.914,30.77c-3.623,0-6.57,2.947-6.57,6.57c0,3.623,2.947,6.57,6.57,6.57c3.617,0,6.56-2.947,6.56-6.57 C117.474,33.717,114.531,30.77,110.914,30.77z"/><path fill="inherit" d="M26.302,33.133c0.193,0.185,0.442,0.277,0.691,0.277s0.498-0.092,0.691-0.277l3.92-3.75 c0.197-0.188,0.309-0.45,0.309-0.723V19.5c0-0.552-0.448-1-1-1h-7.84c-0.552,0-1,0.448-1,1v9.16c0,0.273,0.111,0.534,0.309,0.723 L26.302,33.133z"/><path fill="inherit" d="M24.477,36.49l-3.75-3.93c-0.189-0.198-0.45-0.31-0.724-0.31h-9.15c-0.552,0-1,0.448-1,1v7.85c0,0.552,0.448,1,1,1h9.15 c0.273,0,0.534-0.111,0.723-0.309l3.75-3.92C24.846,37.485,24.846,36.876,24.477,36.49z"/><path fill="inherit" d="M27.725,41.188c-0.387-0.37-0.996-0.37-1.383,0l-3.92,3.75c-0.197,0.188-0.309,0.45-0.309,0.723v9.15c0,0.553,0.448,1,1,1 h7.84c0.552,0,1-0.447,1-1v-9.15c0-0.272-0.111-0.534-0.309-0.723L27.725,41.188z"/><path fill="inherit" d="M43.173,32.22h-9.15c-0.273,0-0.534,0.111-0.723,0.309l-3.75,3.92c-0.37,0.387-0.37,0.996,0,1.383l3.75,3.92 c0.188,0.197,0.45,0.309,0.723,0.309h9.15c0.552,0,1-0.448,1-1v-7.84C44.173,32.668,43.726,32.22,43.173,32.22z"/></g></svg>