<?xml version="1.0" encoding="UTF-8" standalone="no"?><svg xmlns="http://www.w3.org/2000/svg" xmlns:xlink="http://www.w3.org/1999/xlink" contentScriptType="text/ecmascript" fill="#000000" width="697.9" zoomAndPan="magnify" contentStyleType="text/css" viewBox="-3.8 -2.9 697.9 276.4" height="276.4" preserveAspectRatio="xMidYMid meet" version="1"><g id="change1_1"><path fill="#ffffff" d="M511.2,225.2c-125.7,48.3-327.1,44.1-451-91.2C35.5,107,13.6,77.7,2.5,42C-3.8,22,1.9,7.9,17.7,2 c12.9-4.9,25.1-0.7,30.2,12.2c50.2,127,152.7,176.2,279.8,186.8C420,208.7,504,186,577,126.8c28.6-23.2,47.1-53.9,67-83.9 c4.5-6.8,12.3-15.4,19-15.8c8.7-0.5,20.8,4.1,26,10.7c4.5,5.8,5.1,19.4,1.4,26.4C648.4,144.4,583.4,198.7,511.2,225.2z"/></g></svg>