<?xml version="1.0" encoding="UTF-8" standalone="no"?><svg xmlns="http://www.w3.org/2000/svg" xmlns:xlink="http://www.w3.org/1999/xlink" contentScriptType="text/ecmascript" fill="#000000" width="599.5" zoomAndPan="magnify" contentStyleType="text/css" viewBox="-9.0 -12.3 599.5 579.4" height="579.4" preserveAspectRatio="xMidYMid meet" version="1"><g id="change1_1"><path fill="#badcac" d="M196.1,567.1c-23.6-3.1-47.2-5.7-70.7-9.4c-41-6.5-71.4-29.1-91.1-66.5c-39-74-43.3-151.6-20.2-231.1 C51,132.8,131.5,45.6,256.1,11.8c89.2-24.1,179.3-12.6,256.6,46.3c48.4,36.9,77.8,87.3,72.8,151.6c-2.2,29-7.4,59-18.1,85.7 c-22.7,56.8-54,108.8-97.7,152c-43.8,43.2-97.6,69.4-151.8,95c-26.5,12.5-54.4,20.9-83.7,22.9C221.6,566.1,208.7,567.1,196.1,567.1 C196.1,567.1,196.2,566.5,196.1,567.1z M261.2,220.3c-3.4,2.4-7.3,4.4-10.2,7.3c-16.7,16.7-23.8,37.1-20.7,60.9 c2.1,15.7,9,28.6,21.9,37.9c6.1,4.4,12.7,6,19.7,3.7c6.1-2,12.1-4.4,17.7-7.4c9.2-5,15.8-13.1,21.5-21.9c6.4-9.9,12.4-20,14-32.2 c1.3-10.5,2.3-21,0-31.4c-2.5-10.8-8.2-19.1-18.7-23.1c-5.6-2.1-11.4-3.1-17.3-2.7C278.9,211.9,270,215.6,261.2,220.3z"/></g></svg>