<?xml version="1.0" encoding="UTF-8" standalone="no"?><svg xmlns="http://www.w3.org/2000/svg" xmlns:xlink="http://www.w3.org/1999/xlink" contentScriptType="text/ecmascript" fill="#fd999b" width="120" zoomAndPan="magnify" contentStyleType="text/css" viewBox="-0.0 -0.5 120.0 105.1" height="105.1" preserveAspectRatio="xMidYMid meet" version="1"><g id="change1_1"><path fill="inherit" d="M0 0L0 0" stroke="#449fdb"/></g><g id="change1_2"><path fill="inherit" d="M117.212 49.652c-0.016-0.252-0.076-0.5-0.168-0.732-1.928-10.236-10.724-16.576-22.048-16.576-4.052 0-9.832-1.252-14.344 6.752h-20.552c0.304-4 1.328-5.848 2.492-7.508 1.712-2.44 3.656-5.452 3.656-13.552 0-1.384-1.116-2.624-2.5-2.624s-2.5 1.056-2.5 2.436c0 6.52-1.272 8.796-2.752 10.904-1.436 2.048-3.048 2.344-3.416 10.344h-15.74c-4.512-8-10.292-6.752-14.344-6.752-11.272 0-20.38 7.248-22.168 18.196-0.852 11.088-2.832 36.848-2.832 37.684 0 8.752 7.008 16.368 15 16.368 7.148 0 11.8-2.664 13.832-7.836 0.028-0.048 0.056-0.112 0.076-0.164l5.164-12.080c2.096 1.592 4.96 3.548 8.428 3.548 6.164 0 11.888-4.968 14.084-8.968h6.86c2.152 4 7.752 8.252 14.068 8.252 3.376 0 6.14-0.896 8.376-2.216l5.236 11.604c0.020 0.044 0.044 0.016 0.064 0.068 2.032 5.164 6.684 7.752 13.828 7.752 8.124 0 15-7.216 15-15.732-0.016-0.828-1.96-27.672-2.8-39.168zM29.996 63.088h-6v5c0 1.388-0.616 2.5-2 2.5s-2-1.112-2-2.5v-5h-5c-1.384 0-2.5-0.612-2.5-2 0-1.384 1.116-2 2.5-2h5v-6c0-1.384 0.616-2.5 2-2.5s2 1.12 2 2.5v6h6c1.384 0 2.5 0.616 2.5 2 0 1.388-1.116 2-2.5 2zM54.996 63.088h-5c-1.384 0-2.5-0.612-2.5-2 0-1.384 1.116-2 2.5-2h5c1.384 0 2.5 0.616 2.5 2 0 1.388-1.116 2-2.5 2zM69.996 63.088h-5c-1.384 0-2.5-0.612-2.5-2 0-1.384 1.116-2 2.5-2h5c1.384 0 2.5 0.616 2.5 2 0 1.388-1.116 2-2.5 2zM84.996 73.088c-2.756 0-5-2.24-5-5 0-2.752 2.244-5 5-5 2.76 0 5 2.248 5 5 0 2.764-2.24 5-5 5zM84.996 58.088c-2.756 0-5-2.236-5-5 0-2.756 2.244-5 5-5 2.76 0 5 2.244 5 5 0 2.764-2.24 5-5 5zM99.996 73.088c-2.756 0-5-2.24-5-5 0-2.752 2.244-5 5-5 2.76 0 5 2.248 5 5 0 2.764-2.24 5-5 5zM99.996 58.088c-2.756 0-5-2.236-5-5 0-2.756 2.244-5 5-5 2.76 0 5 2.244 5 5 0 2.764-2.24 5-5 5z"/></g></svg>