<?xml version="1.0" encoding="UTF-8" standalone="no"?><svg xmlns="http://www.w3.org/2000/svg" xmlns:xlink="http://www.w3.org/1999/xlink" contentScriptType="text/ecmascript" fill="#000000" width="475" zoomAndPan="magnify" contentStyleType="text/css" viewBox="0.0 0.0 475.0 459.2" height="459.2" preserveAspectRatio="xMidYMid meet" version="1"><g id="change1_1"><path fill="#cdc2fe" d="M212.8,0c2.6,4.7,6.4,9.1,7.5,14.2c8.9,40,17.2,80,25.9,120c2.1,9.4,4.9,18.7,8.2,31.2 c14.4-13.8,26.9-25.9,39.6-37.9c27.2-25.7,54.3-51.4,81.8-76.6c4-3.7,8.9-11,15.7-5.7c7.2,5.6,2.6,12.8-1,18.3 c-14.3,21.7-29.6,42.8-43.4,64.8c-14.6,23.3-27.9,47.4-43.3,74c27.7,0,52.9,0.4,78.1-0.1c27-0.5,54-1.9,81-2.7 c4.8-0.1,12.1-2.1,11.4,6c-0.2,2.7-6.3,6.2-10.3,7.2c-56.3,13.2-112.6,26.2-169,38.9c-7.4,1.7-9.6,5.4-10.3,12.6 c-2.4,28.3,4.3,55.6,8.8,83.2c4.9,30.5,10.1,60.9,14.3,91.5c0.9,6.5-2.1,13.5-3.2,20.3c-1.3,0-2.6,0-3.9,0c-3.1-3.3-6.9-6-9-9.8 c-6.9-12.5-13.7-25.1-19.4-38.1c-20.7-47.8-41-95.9-61.4-143.8c-11.1,15.3-22.2,31.6-34.3,47.2c-29.9,38.5-60.1,76.8-90.4,115 c-3.4,4.3-5.2,13.8-13.2,8.8c-7-4.3-1.7-11.2,0.6-16.5c21.4-50,46.1-98.2,79.5-141.5c5.7-7.4,10.5-15.4,15.7-23 c-1.5-1.1-2-1.8-2.5-1.8c-37.5-5.7-75.1-10.9-112.5-17.3c-18.4-3.2-37.6-4.2-53.8-15.3c0-2.6,0-5.2,0-7.8c7.4-2,14.7-5.5,22.2-5.6 c28.9-0.7,57.9,0,86.9-0.5c13.7-0.3,27.3-2.2,43.4-3.5c-8.9-11.6-15.6-21.2-23.2-30c-21.8-25.3-40.2-52.8-54.3-83 c-1.6-3.4-0.2-8.2-0.1-12.3c4.2,0.5,8.5,0.7,12.6,1.7c1.7,0.4,3,2.4,4.4,3.7c29.9,26.6,59.9,53.2,89.8,79.7c1.8,1.6,3.9,3,6.8,5.2 c0.4-2.5,0.8-4,0.9-5.5c3.9-46,7.5-92.1,11.9-138c0.9-9,5-17.7,7.6-26.6C210.2,0,211.5,0,212.8,0z"/></g></svg>