<?xml version="1.0" encoding="UTF-8" standalone="no"?><svg xmlns="http://www.w3.org/2000/svg" xmlns:xlink="http://www.w3.org/1999/xlink" contentScriptType="text/ecmascript" fill="#000000" width="504.1" zoomAndPan="magnify" contentStyleType="text/css" viewBox="-2.0 0.0 504.1 396.4" height="396.4" preserveAspectRatio="xMidYMid meet" version="1"><g fill="#3d1e22" id="change1_1"><path fill="inherit" d="M165.408 328.147H181.42999999999998V395.853H165.408z"/><path fill="inherit" d="M318.08 328.147H334.102V395.853H318.08z"/><path fill="inherit" d="M59.65 308.246H75.672V375.952H59.65z"/><path fill="inherit" d="M421.777 308.246H437.799V375.952H421.777z"/><path fill="inherit" d="M484.039,331.677H15.961c-7.311,0-13.687-3.402-15.471-8.255l0,0c-2.535-6.896,5.082-13.583,15.471-13.583 h468.078c10.389,0,18.006,6.688,15.471,13.583v0C497.726,328.275,491.35,331.677,484.039,331.677z"/></g><g id="change2_3"><path fill="#d8d27b" d="M9.192,311.264c0-20.395,107.838-36.928,240.864-36.928s240.864,16.533,240.864,36.928"/></g><g fill="#75441b" id="change3_1"><path fill="inherit" d="M435.985,73.809l-0.18-0.829l-0.004,0.001c-2.595-10.537-16.164-11.408-16.164-11.408l7.166-2.243 c0,0-0.189-0.432-0.609-1.134c-2.13-3.561-10.21-14.061-29.763-10.334c-6.145,0.807-13.706,2.869-18.289,7.982 c-0.221,0.247-0.428,0.499-0.632,0.752c-0.003,0.002-0.009,0.005-0.009,0.005h0.005c-7.842,9.733-3.359,23.999-3.359,23.999 l46.458,16.146l0.923-1.377C421.53,95.368,439.351,88.039,435.985,73.809z"/><path fill="inherit" d="M120.322,91.668c-3.571-8.207-11.942-7.016-11.942-7.016s-3.325-13.207-18.61-10.433 c-9.58,1.739-13.762,5.134-16.178,8.509l0,0c0,0-17.886,13.964-17.845,27.423c0.041,13.459,5.214,18.695,11.463,15.603l0,0 l44.725-16.774C111.935,108.98,123.893,99.875,120.322,91.668z"/><path fill="inherit" d="M301.855,4.657c0,0-6.265,6.404-18.297,7.755c-6.03,0.677-9.444,3.943-11.352,7.033 c-6.051-5.036-22.764-10.959-35.642-5.484c-1.734-1.749-4.132-3.25-7.449-4.04C217.338,7.118,211.898,0,211.898,0 s-6.702,11.241,0.71,21.743c2.612,3.701,6.045,6.219,9.704,7.552c-3.192,9.36,4.209,14.101,4.209,14.102 c0.079-0.804,0.127-1.338,0.127-1.338s8.676-1.406,15.179-6.998c0.101,0.284,0.211,0.565,0.325,0.845 c1.515,3.731,3.836,7.362,6.951,10.064c3.998,3.467,12.157,6.346,16.172,1.535c0.445-0.534,0.851-1.031,1.301-1.372 c1.323,3.367,3.977,8.045,8.794,9.365c1.012,0.278,1.743,0.175,2.253-0.207c0.743,0.06,1.506,0.266,2.258,0.673 c7.975-8.243,6.683-16.643,3.359-23.018c5.317,0.164,10.965-2.044,15.27-6.793C307.141,16.63,301.855,4.657,301.855,4.657z"/></g><g fill="#f58547" id="change4_1"><path fill="inherit" d="M351.173 196.977L339.043 229.311 352.171 236.157 370.056 205.966 352.961 197.393"/><path fill="inherit" d="M423.965 202.198L436.269 234.466 423.178 241.383 405.131 211.289 422.179 202.624"/><path fill="inherit" d="M225.15,161.821c0,0,8.247,56.924,12.676,56.924s10.32-10.099,8.866-18.822 c-1.454-8.722,1.301-43.381,1.301-43.381l-25.021,1.377L225.15,161.821z"/><path fill="inherit" d="M275.371,161.821c0,0-8.247,56.924-12.676,56.924c-4.428,0-10.32-10.099-8.866-18.822 c1.454-8.722-1.301-43.381-1.301-43.381l25.021,1.377L275.371,161.821z"/><path fill="inherit" d="M41.291,140.558c0,0-5.667-7.379-7.972-6.818c-2.305,0.561-0.661,5.164-0.661,5.164 s-5.992-6.308-9.289-5.246c-3.296,1.062,4,7.078,4,7.078s-6.277-4.954-8.618-2.369c-1.804,1.992,2.384,4.101,4.404,4.965 c-1.738-0.633-5.141-1.568-5.526,0.645c-0.458,2.626,5.506,4.007,6.948,4.301c-1.101-0.192-4.702-0.614-3.767,2.297 c1.1,3.424,17.545,4.505,17.545,4.505l23.97,5.681l3.999-15.797L41.291,140.558z"/><path fill="inherit" d="M141.405,117.243c0,0,1.808-9.126,4.123-9.645c2.315-0.519,2.882,4.336,2.882,4.336s2.575-8.311,6.001-8.82 c3.426-0.51-0.447,8.117-0.447,8.117s3.43-7.223,6.675-5.944c2.5,0.985-0.319,4.733-1.746,6.403 c1.277-1.338,3.913-3.684,5.239-1.872c1.575,2.151-3.159,6.033-4.321,6.936c0.902-0.66,3.943-2.635,4.395,0.389 c0.532,3.556-13.729,11.816-13.729,11.816l-18.967,15.719l-10.588-12.387L141.405,117.243z"/><path fill="inherit" d="M137.914 214.559L128.289 247.726 113.673 245.357 117.406 210.466 136.232 213.823"/><path fill="inherit" d="M98.536 217.027L88.444 250.054 73.864 247.479 78.088 212.644 96.865 216.267"/><path fill="inherit" d="M267.026,103.243c0.974,0.167,2.019,0.158,3.132-0.062c8.071-1.598,14.821-9.821,19.697-15.875 c4.248-5.274,8.494-11.016,11.379-17.179c3.636-7.769,7.734-15.963,9.521-24.407c0.095-0.332,0.151-0.637,0.175-0.918 c0.031-0.186,0.058-0.368,0.08-0.543l-0.069,0.076c-0.074-1.67-1.397-2.157-2.049-1.059c-0.911,1.536-2.332,4.068-2.332,4.068 s0.942-5.578,0.548-7.774c-0.393-2.196-3.355-1.422-2.889,0.752c0.467,2.174-0.193,5.868-0.193,5.868s-0.311-5.404-1.557-8.071 c-1.246-2.667-3.924-1.737-2.867,0.826c1.056,2.562,0.426,7.839,0.426,7.839s-0.598-4.844-1.433-6.912 c-0.835-2.069-4.28-1.315-3.234,1.489c1.046,2.804,0.175,6.416,0.175,6.416s-1.58-4.658-3.532-3.14 c-1.952,1.517-0.828,8.552-0.828,8.553c0,0-4.324,11.59-12.119,17.548c-0.316,0.241-0.586,0.425-0.822,0.565 c-1.918,1.734-4.203,3.536-6.973,5.393c-1.349,0.905-7.214,3.338-8.076,4.258c-4.166,4.445-5.953,10.693-3.169,16.35 C261.523,100.354,263.906,102.707,267.026,103.243z"/><path fill="inherit" d="M234.792,103.243c-0.974,0.167-2.019,0.158-3.132-0.062c-8.071-1.598-14.821-9.821-19.697-15.875 c-4.248-5.274-8.494-11.016-11.379-17.179c-3.636-7.769-7.734-15.963-9.521-24.407c-0.095-0.332-0.151-0.637-0.175-0.918 c-0.031-0.186-0.058-0.368-0.08-0.543l0.069,0.076c0.074-1.67,1.397-2.157,2.049-1.059c0.911,1.536,2.332,4.068,2.332,4.068 s-0.942-5.578-0.548-7.774c0.393-2.196,3.355-1.422,2.889,0.752c-0.467,2.174,0.193,5.868,0.193,5.868s0.311-5.404,1.557-8.071 c1.246-2.667,3.924-1.737,2.867,0.826c-1.056,2.562-0.426,7.839-0.426,7.839s0.598-4.844,1.433-6.912 c0.835-2.069,4.28-1.315,3.234,1.489c-1.046,2.804-0.175,6.416-0.175,6.416s1.58-4.658,3.532-3.14 c1.952,1.517,0.828,8.552,0.828,8.553c0,0,4.324,11.59,12.119,17.548c0.316,0.241,0.586,0.425,0.822,0.565 c1.918,1.734,4.203,3.536,6.973,5.393c1.349,0.905,7.214,3.338,8.076,4.258c4.166,4.445,5.953,10.693,3.169,16.35 C240.296,100.354,237.912,102.707,234.792,103.243z"/><path fill="inherit" d="M462.788,115.046c1.437-0.135,3.348-0.096,3.223,1.095c-0.199,1.893-7.378,2.313-7.378,2.313 s4.662-0.037,4.489,1.32c-0.141,1.109-8.873,3.839-12.217,2.801L408.319,135l4.702-18.732l29.197-4.407l4.768-1.011 c1.874-2.131,4.468-4.757,6.235-5.226c3.043-0.808,1.363,2.977,0.038,3.897l0.796-0.169l-0.006,0.021 c2.565-0.496,10.404-1.892,10.516-0.47c0.133,1.701-4.797,3.046-4.797,3.046s6.374-1.537,7.311,0.551 C467.722,113.938,464.721,114.706,462.788,115.046z"/><path fill="inherit" d="M328.594,81.5c-1.213-0.781-2.928-1.627-3.365-0.513c-0.695,1.772,5.484,5.452,5.484,5.452 s-4.121-2.18-4.593-0.895c-0.385,1.049,6.108,7.494,10.777,8.747l32.079,30.641l3.231-19.427L348.32,88.146l-3.767-3.093 c-0.682-2.755-1.775-6.28-3.127-7.51c-2.329-2.118-2.581,2.015-1.828,3.442l-0.629-0.517l-0.004,0.022 c-2.048-1.621-8.364-6.471-9.118-5.26c-0.902,1.448,2.855,4.913,2.855,4.913s-4.95-4.3-6.743-2.878 C324.725,78.244,327.034,80.308,328.594,81.5z"/></g><g id="change2_2"><path fill="#d8d27b" d="M129.461 185.303L141.4 215.269 114.067 224.893 106.823 205.85 99.47 227.605 74.118 225.035 78.02 196.495 128.408 183.475"/></g><g fill="#488097" id="change5_1"><path fill="inherit" d="M411.289 165.664L364.238 154.185 343.167 209.693 368.152 215.789 385.846 185.819 407.912 220.812 431.205 212.514z"/><path fill="inherit" d="M119.829,157.33l12.043,29.237c0,0-19.284,18.395-57.18,12.123l2.842-33l-28.665-3.442l4.564-22.888 l33.23,4.102l17.598-1.59l27.223-20.969l12.067,17.772L119.829,157.33z"/><path fill="inherit" d="M161.424 379.896H185.50400000000002V396.37800000000004H161.424z"/><path fill="inherit" d="M314.096 379.896H338.176V396.37800000000004H314.096z"/><path fill="inherit" d="M55.667 359.995H79.747V376.477H55.667z"/><path fill="inherit" d="M417.793 359.995H441.873V376.477H417.793z"/></g><g id="change2_1"><path fill="#d8d27b" d="M434.405,128.16l-4.736-15.319l-29.386-0.309l-14.947-3.647l0.171-0.201L359.091,95.38l-10.082,12.039 l17.907,23.046l-9.952,36.334c21.115,17.677,60.889,11.207,60.889,11.207l-4.618-40.607L434.405,128.16z"/></g><g fill="#3d1e22" id="change1_50"><path fill="inherit" d="M391.012 117.9L397.117 124.932 403.849 112.57 397.959 112.57z"/><path fill="inherit" d="M391.012 117.9L381.509 120.635 382.376 107.108 389.925 110.841z"/></g><g><g id="change4_2"><path fill="#f58547" d="M113.945,109.242c-0.774-1.838-2.011-5.576-2.504-7.089c0,0,0,0,0,0c0,0,0,0,0,0 c-0.134-0.411-0.213-0.659-0.213-0.659s-0.039,0.001-0.096,0.003c-0.991-1.832-4.062-6.232-7.3-6.564 c-1.204-0.124-2.232,0.343-3.076,1.032c0,0-0.718,1.394-2.31,3.002c-0.054,0.104-0.107,0.206-0.15,0.297 c-0.005-0.002-0.01-0.004-0.015-0.006l0.157-0.283c-2.488,2.51-7.108,5.534-14.462,4.597c-0.003,0.006-0.006,0.012-0.009,0.019 c-0.092-0.018-0.178-0.036-0.268-0.055c-1.304-0.182-2.692-0.488-4.169-0.943c-5.367-1.327-6.717-1.971-8.182,1.069 c-1.688,3.503-6.798,14.585-4.139,22.092c-2.108-0.344-4.823-0.073-6.59,2.788c-3.242,5.249,3.566,12.205,8.533,7.583 c0,0,7.451,6.334,19.029,6.618c0.349,1.177,1.964,5.904,5.812,7.714c2.237,1.052,5.214,0.438,6.851-1.414 c2.789-3.153,2.437-8.059,2.288-9.34c0.025-0.011,0.049-0.019,0.074-0.03C122.97,131.061,114.93,111.579,113.945,109.242z"/></g><g id="change2_4"><path fill="#d8d27b" d="M100.334,103.91c-3.834,2.011-5.595,6.436-4.404,10.438l-3.199,1.023c-0.084-0.192-0.166-0.385-0.264-0.573 c-2.285-4.355-7.687-6.04-12.042-3.755c-4.355,2.285-6.04,7.687-3.755,12.042c2.285,4.356,7.687,6.04,12.042,3.755 c3.748-1.966,5.51-6.239,4.475-10.169l3.245-1.038c0.05,0.106,0.092,0.214,0.147,0.319c2.285,4.355,7.687,6.04,12.042,3.755 c4.355-2.285,6.04-7.687,3.755-12.042C110.092,103.31,104.69,101.625,100.334,103.91z M91.323,115.398 c1.953,3.724,0.513,8.344-3.211,10.298c-3.724,1.954-8.344,0.513-10.298-3.211c-1.954-3.724-0.513-8.344,3.211-10.298 C84.749,110.233,89.369,111.674,91.323,115.398z M111.232,108.265c1.954,3.724,0.513,8.344-3.211,10.298 c-3.724,1.954-8.344,0.513-10.298-3.211c-1.954-3.724-0.513-8.344,3.211-10.298C104.659,103.1,109.279,104.541,111.232,108.265z"/></g><g id="change1_51"><path fill="#3d1e22" d="M275.554,117.373c-1.06,0.519-2.126,1.022-3.211,1.475c-1.079,0.463-2.167,0.898-3.259,1.306 c-0.549,0.197-1.106,0.368-1.666,0.523c-0.555,0.172-1.103,0.343-1.635,0.571c-0.537,0.207-1.067,0.449-1.602,0.683 c-0.533,0.255-1.074,0.477-1.615,0.803l0.024,0.145c0.614,0.088,1.239,0.116,1.843,0.053c0.614-0.034,1.207-0.155,1.8-0.288 c1.182-0.277,2.245-0.882,3.315-1.412c1.072-0.532,2.117-1.11,3.132-1.732c1.008-0.636,2.007-1.279,2.952-2.002L275.554,117.373z"/></g><g id="change2_5"><path fill="#d8d27b" d="M274.511,102.075l15.313-11.615L278.239,71.3l-4.782,2.716c-5.364,2.306-10.066,3.829-12.863,4.654 c-4.895,0.603-10.994,2.8-17.129,0.871c0,0-0.041-0.008-0.111-0.019l0.16-0.103c0,0-6.93-1.686-15.576-5.403l-4.782-2.716 l-11.585,19.16l14.538,11.027l-19.195,66.34h42.666h1.293h42.666L274.511,102.075z"/></g><g id="change4_3"><path fill="#f58547" d="M281.367,57.077c-1.206-1.191-2.503-1.686-3.746-1.786c-0.509,0.383-1.24,0.485-2.253,0.207 c-4.817-1.321-7.471-5.999-8.794-9.365c-0.45,0.341-0.856,0.838-1.301,1.372c-4.015,4.811-12.174,1.932-16.172-1.535 c-3.115-2.701-5.436-6.332-6.951-10.064c-0.114-0.28-0.224-0.561-0.325-0.845c-6.503,5.592-15.179,6.998-15.179,6.998 s-0.48,5.369-0.915,7.734c-0.435,2.365-3.898,22.049,17.041,26.103c0.242,0.047,0.475,0.079,0.714,0.121 c-0.134,1.473-0.702,9.95,3.876,11.396c5.017,1.584,10.437-2.371,10.518-7.653c0.021-1.399,0.026-2.757,0.022-4.003 c11.112-2.566,16.909-9.941,16.909-9.941C280.615,69.116,285.646,61.303,281.367,57.077z"/></g><g id="change4_4"><path fill="#f58547" d="M430.418,93.782c-2.547-2.984-5.919-2.464-8.02-1.701c-9.762-3.152-12.885-22.143-12.885-22.143 c-12.271,4.051-27.551,3.466-32.252,3.164c-0.562,0.031-1.057,0.004-1.445-0.108c0,0-0.999,5.297-1.668,7.607 c-0.624,2.153-5.355,19.013,11.056,26.369c-0.072,1.747,0.045,6.386,3.012,9.348c1.883,1.879,5.157,2.409,7.536,1.219 c3.418-1.709,5.027-5.487,5.651-7.416c13.61-0.35,21.478-8.331,21.478-8.331C428.509,105.696,434.399,98.447,430.418,93.782z"/></g></g><g><g fill="#75441b"><g id="change3_2"><path fill="inherit" d="M246.426,197.453c-1.558-0.152-2.87,2.992-4.078,6.585c-2.064-0.511-5.419-0.801-9.58,0.821l0.567,2.423 c-0.029-0.118,3.883-1.523,8.171-0.655c-1.083,3.385-2.105,6.577-3.181,7.298c-2.508,1.683-2.842-0.842-2.842-0.842 c-2.039-1.071,0.203,5.145,2.68,5.641s6.819-5.086,8.086-10.866C247.515,202.078,246.426,197.453,246.426,197.453z"/></g><g id="change3_3"><path fill="inherit" d="M267.188,207.282l0.567-2.423c-4.162-1.622-7.516-1.332-9.58-0.821c-1.208-3.592-2.52-6.736-4.078-6.585 c0,0-1.089,4.625,0.179,10.405c1.267,5.78,5.609,11.362,8.086,10.866c2.477-0.496,4.719-6.712,2.68-5.641 c0,0-0.334,2.525-2.842,0.842c-1.075-0.722-2.098-3.914-3.181-7.298C263.304,205.758,267.216,207.163,267.188,207.282z"/></g><g id="change3_4"><path fill="inherit" d="M346.91,227.246c-1.277-1.773-5.209-2.668-6.963-1.133c-2.502,2.189-1.328,4.792-6.507,5.115 c-2.266,0.141-4.714,0.324-6.838,1.367c-1.932,0.948-3.352,2.976-2.496,5.193c0.803,2.079,3.097,3.223,4.937,4.015 c2.509,1.08,5.013,2.159,7.576,3.105c2.273,0.839,4.602,1.589,6.987,2.039c1.348,0.255,3.225,0.693,4.567,0.004 c0.082-0.042,0.162-0.09,0.237-0.147c1.721-1.31,2.44-3.473,3.1-5.492c0.404-1.235,3.555-10.575,0.152-8.941 c-3.417,1.639-3.47-3.286-4.726-5.09C346.927,227.27,346.919,227.258,346.91,227.246z"/></g><g id="change3_5"><path fill="inherit" d="M428.391,232.444c1.268-1.78,5.194-2.697,6.957-1.17c2.513,2.176,1.354,4.785,6.535,5.08 c2.266,0.129,4.716,0.299,6.846,1.33c1.937,0.938,3.368,2.957,2.524,5.179c-0.792,2.083-3.079,3.239-4.915,4.042 c-2.503,1.094-5.001,2.186-7.56,3.146c-2.268,0.851-4.593,1.613-6.976,2.077c-1.347,0.262-3.221,0.71-4.567,0.028 c-0.083-0.042-0.163-0.089-0.238-0.146c-1.728-1.301-2.459-3.46-3.129-5.475c-0.41-1.233-3.612-10.555-0.2-8.94 c3.426,1.621,3.452-3.304,4.699-5.116C428.374,232.467,428.382,232.456,428.391,232.444z"/></g><g id="change3_6"><path fill="inherit" d="M78.824,116.941c0.249-0.722,0.649-1.379,1.117-2c0.479-0.612,1.069-1.153,1.744-1.585 c0.328-0.233,0.687-0.424,1.049-0.621c0.375-0.164,0.769-0.296,1.181-0.31c0.815-0.069,1.641,0.115,2.343,0.564l-0.015,0.144 c-0.387,0.197-0.742,0.282-1.084,0.401c-0.34,0.131-0.67,0.2-0.986,0.32c-0.627,0.206-1.299,0.252-1.932,0.522 c-0.624,0.267-1.227,0.627-1.78,1.073c-0.562,0.437-1.065,0.969-1.504,1.554L78.824,116.941z"/><path fill="inherit" d="M97.3,109.732c0.249-0.722,0.649-1.379,1.117-2c0.479-0.612,1.069-1.153,1.744-1.585 c0.328-0.233,0.687-0.424,1.049-0.621c0.375-0.164,0.769-0.296,1.181-0.31c0.815-0.069,1.641,0.115,2.343,0.564l-0.015,0.144 c-0.387,0.197-0.742,0.282-1.084,0.401c-0.34,0.131-0.67,0.2-0.986,0.32c-0.627,0.206-1.299,0.252-1.932,0.522 c-0.624,0.267-1.227,0.627-1.78,1.073c-0.562,0.437-1.065,0.969-1.504,1.554L97.3,109.732z"/><path fill="inherit" d="M244.552,47.344c-0.379-0.618-0.884-1.144-1.445-1.623c-0.569-0.468-1.226-0.848-1.94-1.11 c-0.351-0.148-0.723-0.252-1.098-0.359c-0.38-0.075-0.773-0.116-1.157-0.045c-0.769,0.103-1.496,0.443-2.053,1.003l0.044,0.131 c0.398,0.103,0.745,0.109,1.086,0.149c0.342,0.051,0.662,0.048,0.978,0.094c0.623,0.062,1.254-0.033,1.896,0.087 c0.633,0.119,1.265,0.329,1.868,0.628c0.61,0.289,1.185,0.679,1.712,1.13L244.552,47.344z"/><path fill="inherit" d="M410.1,84.691c-0.316-0.652-0.767-1.226-1.277-1.758c-0.52-0.522-1.136-0.965-1.82-1.297 c-0.335-0.182-0.694-0.322-1.057-0.466c-0.371-0.112-0.758-0.192-1.147-0.159c-0.775,0.027-1.533,0.293-2.143,0.794l0.031,0.134 c0.386,0.142,0.731,0.182,1.066,0.255c0.335,0.085,0.654,0.113,0.964,0.191c0.613,0.123,1.251,0.091,1.878,0.274 c0.618,0.181,1.226,0.453,1.797,0.81c0.578,0.348,1.112,0.793,1.591,1.294L410.1,84.691z"/><path fill="inherit" d="M391.892,79.981c-0.316-0.652-0.767-1.226-1.277-1.758c-0.52-0.522-1.136-0.965-1.82-1.297 c-0.335-0.182-0.694-0.322-1.057-0.466c-0.371-0.112-0.758-0.192-1.147-0.159c-0.775,0.027-1.533,0.293-2.143,0.794l0.031,0.134 c0.386,0.142,0.731,0.182,1.066,0.255c0.335,0.085,0.654,0.113,0.964,0.191c0.613,0.123,1.251,0.091,1.878,0.274 c0.618,0.181,1.226,0.453,1.797,0.81c0.578,0.348,1.112,0.793,1.591,1.294L391.892,79.981z"/></g></g></g><g fill="#3d1e22"><g id="change1_8"><path fill="inherit" d="M215.464,183.144c0.415,1.548,0.777,3.105,1.168,4.657l1.069,4.673c0.343,1.56,0.857,3.092,0.97,4.689 c0.125,1.596,0.172,3.204-0.115,4.867l-0.197,0.032c-0.802-1.485-1.271-3.024-1.661-4.576c-0.402-1.55-0.404-3.166-0.576-4.754 l-0.477-4.77c-0.125-1.596-0.278-3.186-0.378-4.786L215.464,183.144z"/></g><g id="change1_9"><path fill="inherit" d="M277.042,210.483c-0.092,1.456-0.238,2.902-0.355,4.354l-0.453,4.336c-0.164,1.443-0.158,2.916-0.552,4.319 c-0.382,1.405-0.842,2.797-1.635,4.13l-0.197-0.034c-0.294-1.523-0.255-2.988-0.138-4.44c0.105-1.454,0.611-2.837,0.946-4.25 l1.044-4.233c0.382-1.405,0.736-2.815,1.143-4.216L277.042,210.483z"/></g><g id="change1_10"><path fill="inherit" d="M360.387,238.002c-0.413,1.163-0.875,2.302-1.31,3.453c-0.452,1.144-0.918,2.28-1.399,3.408 c-0.48,1.129-0.801,2.339-1.489,3.363c-0.676,1.03-1.421,2.023-2.469,2.863l-0.178-0.091c0.064-1.341,0.429-2.529,0.865-3.68 c0.424-1.158,1.214-2.129,1.845-3.181c0.63-1.053,1.274-2.098,1.934-3.136c0.676-1.03,1.325-2.072,2.023-3.09L360.387,238.002z"/></g><g id="change1_11"><path fill="inherit" d="M434.782,218.392c0.663,1.06,1.277,2.142,1.917,3.212c0.624,1.078,1.233,2.162,1.826,3.254 c0.595,1.091,1.352,2.108,1.736,3.296c0.396,1.183,0.72,2.398,0.736,3.755l-0.182,0.084c-1.019-0.896-1.731-1.933-2.372-3.003 c-0.652-1.065-0.931-2.301-1.372-3.463c-0.442-1.161-0.869-2.329-1.281-3.505c-0.396-1.183-0.818-2.353-1.19-3.546L434.782,218.392 z"/></g><g id="change1_12"><path fill="inherit" d="M139.716,230.526c-0.117,1.121-0.286,2.229-0.427,3.344c-0.158,1.111-0.333,2.217-0.524,3.32 c-0.189,1.103-0.206,2.249-0.621,3.296c-0.402,1.05-0.881,2.08-1.688,3.028l-0.194-0.049c-0.264-1.217-0.199-2.351-0.058-3.466 c0.128-1.118,0.655-2.137,1.009-3.198c0.352-1.062,0.721-2.12,1.106-3.174c0.402-1.05,0.776-2.106,1.203-3.15L139.716,230.526z"/></g><g id="change1_13"><path fill="inherit" d="M64.088,252.524c0.325,0.944,0.596,1.897,0.896,2.845c0.282,0.951,0.548,1.905,0.797,2.862 c0.251,0.957,0.677,1.883,0.699,2.879c0.035,0.994-0.009,2.001-0.385,3.066l-0.197,0.034c-0.711-0.877-1.089-1.812-1.389-2.76 c-0.313-0.946-0.221-1.962-0.305-2.947c-0.085-0.985-0.154-1.973-0.206-2.964c-0.035-0.994-0.098-1.983-0.107-2.981L64.088,252.524 z"/></g><g><g id="change1_45"><circle fill="inherit" r="2.267" cx="250.224" cy="94.479"/></g><g id="change1_46"><circle fill="inherit" r="2.267" cx="250.224" cy="105.359"/></g><g id="change1_47"><circle fill="inherit" r="2.267" cx="250.224" cy="116.714"/></g><g id="change1_48"><circle fill="inherit" r="2.267" cx="250.224" cy="127.594"/></g><g><g id="change1_14"><ellipse rx="3.258" ry="2.179" fill="inherit" cx="257.357" transform="rotate(-81.182 257.35 55.254)" cy="55.255"/></g><g id="change1_15"><ellipse rx="3.258" ry="2.179" fill="inherit" cx="239.062" transform="rotate(-81.182 239.055 52.416)" cy="52.417"/></g><g id="change1_16"><path fill="inherit" d="M248.237,57.091c-0.393-0.754-0.892-1.451-1.597-2.033c-0.357-0.275-0.806-0.535-1.377-0.544 c-0.276,0.007-0.569,0.064-0.814,0.199c-0.136,0.054-0.243,0.132-0.344,0.217c-0.099,0.084-0.22,0.165-0.3,0.257 c-0.336,0.341-0.675,0.791-0.796,1.387c-0.124,0.601,0.099,1.237,0.437,1.64c0.339,0.415,0.753,0.688,1.186,0.867 c0.43,0.18,0.89,0.28,1.357,0.24l0.046-0.13c-0.314-0.325-0.597-0.616-0.851-0.906c-0.249-0.294-0.467-0.582-0.602-0.851 c-0.137-0.274-0.199-0.476-0.217-0.704c-0.02-0.231,0.065-0.539,0.275-0.82c0.195-0.249,0.401-0.436,0.671-0.48 c0.27-0.061,0.626,0.034,0.958,0.209c0.683,0.339,1.301,0.921,1.853,1.528L248.237,57.091z"/></g><g id="change1_17"><path fill="inherit" d="M242.46,62.327c0.749,0.139,1.497,0.21,2.24,0.26c0.744,0.034,1.483,0.064,2.218,0.014 c0.734-0.025,1.463-0.096,2.182-0.211c0.723-0.091,1.428-0.271,2.13-0.444l0.882-0.216l-0.06,0.889 c-0.046,0.673-0.168,1.252-0.376,1.862c-0.208,0.598-0.519,1.184-0.97,1.689c-0.449,0.505-1.057,0.897-1.705,1.094 c-0.324,0.115-0.655,0.14-0.983,0.18c-0.163,0.011-0.323,0-0.484,0c-0.161,0.003-0.321-0.009-0.481-0.039 c-0.644-0.067-1.263-0.323-1.796-0.657c-0.54-0.332-0.987-0.772-1.36-1.245C243.165,64.542,242.715,63.445,242.46,62.327z M242.46,62.327c0.583,0.986,1.222,1.922,2.007,2.658c0.793,0.718,1.723,1.212,2.707,1.237c0.121,0.016,0.243,0.017,0.367,0.004 c0.122-0.01,0.247-0.007,0.366-0.024c0.232-0.051,0.47-0.078,0.677-0.175c0.427-0.158,0.797-0.412,1.099-0.76 c0.594-0.69,0.954-1.746,1.046-2.707l0.821,0.672c-0.768,0.163-1.543,0.283-2.323,0.335c-0.779,0.064-1.561,0.031-2.334-0.024 c-0.773-0.077-1.539-0.202-2.283-0.404C243.866,62.944,243.136,62.686,242.46,62.327z"/></g><g id="change1_18"><path fill="inherit" d="M243.427,76.007l0.086,2.737c8.54,1.467,14.389,1.54,14.389,1.54v-4.527 C253.796,76.705,248.961,76.987,243.427,76.007z"/></g><g id="change1_19"><path fill="inherit" d="M242.432,25.265c0.777,2.629,1.745,5.2,2.889,7.676c1.125,2.482,2.422,4.883,3.966,7.093 c0.381,0.556,0.796,1.084,1.204,1.616c0.432,0.512,0.858,1.028,1.32,1.506c0.908,0.971,1.825,1.92,2.809,2.79 c0.233,0.235,0.49,0.438,0.742,0.649c0.251,0.212,0.504,0.425,0.771,0.615c0.264,0.195,0.52,0.407,0.792,0.593 c0.277,0.176,0.551,0.362,0.825,0.552c1.126,0.702,2.322,1.305,3.601,1.862l-0.038,0.18c-1.405-0.044-2.813-0.367-4.147-0.89 c-1.339-0.524-2.571-1.288-3.72-2.148c-2.304-1.746-3.952-4.138-5.394-6.527c-1.449-2.403-2.608-4.946-3.582-7.542 c-0.474-1.304-0.896-2.623-1.271-3.953c-0.376-1.33-0.706-2.671-0.949-4.033L242.432,25.265z"/></g><g id="change1_20"><path fill="inherit" d="M262.045,37.703c0.68,1.885,1.572,3.691,2.625,5.378c1.036,1.697,2.214,3.296,3.532,4.756 c1.316,1.47,2.855,2.684,4.284,4.002l0.536,0.501c0.173,0.175,0.355,0.339,0.545,0.494c0.369,0.325,0.75,0.636,1.111,0.981 c0.36,0.349,0.753,0.653,1.135,0.981c0.379,0.336,0.762,0.672,1.129,1.054l-0.091,0.174c-2.017-0.508-3.936-1.419-5.607-2.666 c-0.865-0.59-1.605-1.333-2.318-2.092c-0.352-0.384-0.661-0.807-0.992-1.207l-0.49-0.604l-0.459-0.628 c-0.3-0.422-0.628-0.822-0.903-1.26l-0.839-1.299l-0.751-1.349c-0.245-0.452-0.458-0.92-0.688-1.378 c-0.849-1.866-1.563-3.79-1.951-5.796L262.045,37.703z"/></g><g id="change1_21"><path fill="inherit" d="M239.696,27.367c-0.556,1.59-1.285,3.11-2.077,4.602c-0.817,1.477-1.736,2.904-2.757,4.268 c-1.035,1.346-2.13,2.7-3.522,3.733l-1.08,0.718c-0.179,0.119-0.366,0.227-0.563,0.32c-0.192,0.101-0.387,0.195-0.583,0.286 c-0.758,0.408-1.616,0.626-2.44,0.827l-0.054-0.127c1.362-1.039,2.646-1.999,3.85-3.093c1.171-1.114,2.445-2.135,3.542-3.367 c1.09-1.23,2.099-2.544,3.018-3.924c0.935-1.37,1.786-2.808,2.538-4.296L239.696,27.367z"/></g><g id="change1_22"><path fill="inherit" d="M250.183,28.929c0.891,1.804,1.818,3.587,2.821,5.323c0.492,0.872,0.996,1.736,1.522,2.585 c0.517,0.853,1.047,1.697,1.6,2.522c1.106,1.656,2.423,3.132,3.546,4.717c1.164,1.569,2.33,3.078,3.786,4.523l-0.095,0.172 c-1.03-0.247-1.98-0.763-2.84-1.367c-0.862-0.608-1.65-1.31-2.36-2.072c-0.706-0.766-1.326-1.6-1.865-2.479 c-0.532-0.884-1.019-1.787-1.515-2.679c-0.492-0.894-0.956-1.801-1.405-2.713c-0.44-0.917-0.855-1.843-1.255-2.774 c-0.776-1.874-1.519-3.755-2.124-5.687L250.183,28.929z"/></g><g id="change1_23"><path fill="inherit" d="M269.318,34.567c0.359,1.519,0.803,3.017,1.363,4.456c0.545,1.443,1.185,2.841,1.949,4.138 c0.378,0.651,0.838,1.244,1.313,1.801c0.472,0.56,0.936,1.102,1.414,1.627c0.478,0.525,0.977,1.036,1.54,1.5 c0.566,0.461,1.183,0.884,1.877,1.331l-0.041,0.192c-1.673,0.196-3.421-0.501-4.726-1.598c-1.365-1.083-2.098-2.664-2.772-4.129 c-0.334-0.744-0.624-1.5-0.877-2.263c-0.241-0.768-0.445-1.542-0.619-2.32c-0.321-1.563-0.565-3.129-0.617-4.713L269.318,34.567z"/></g><g id="change1_24"><path fill="inherit" d="M295.136,21.597c-1.174,1.029-2.404,1.991-3.696,2.839c-1.282,0.859-2.614,1.627-3.988,2.239 c-0.686,0.311-1.404,0.527-2.114,0.705c-0.709,0.183-1.401,0.355-2.096,0.504c-0.694,0.15-1.397,0.277-2.125,0.328 c-0.729,0.047-1.476,0.033-2.302-0.005l-0.078,0.18c1.249,1.131,3.078,1.577,4.776,1.441c1.74-0.091,3.254-0.953,4.653-1.755 c0.704-0.412,1.378-0.859,2.027-1.334c0.642-0.486,1.257-0.998,1.85-1.53c1.168-1.086,2.276-2.22,3.237-3.481L295.136,21.597z"/></g><g id="change1_25"><path fill="inherit" d="M295.042,16.805c-0.828,0.725-1.695,1.404-2.606,2.002c-0.904,0.606-1.843,1.147-2.812,1.579 c-0.483,0.219-0.99,0.372-1.491,0.497c-0.5,0.129-0.988,0.25-1.478,0.356c-0.489,0.106-0.985,0.195-1.498,0.231 c-0.514,0.033-1.041,0.024-1.623-0.004l-0.055,0.127c0.88,0.797,2.17,1.112,3.367,1.016c1.227-0.064,2.294-0.672,3.281-1.237 c0.496-0.29,0.972-0.606,1.429-0.941c0.452-0.343,0.886-0.704,1.305-1.079c0.823-0.766,1.605-1.565,2.282-2.454L295.042,16.805z"/></g><g id="change1_26"><path fill="inherit" d="M214.559,17.075c1.174,1.029,2.404,1.991,3.696,2.839c1.282,0.859,2.614,1.627,3.988,2.239 c0.686,0.311,1.404,0.527,2.114,0.705c0.709,0.183,1.401,0.355,2.096,0.504c0.694,0.15,1.397,0.277,2.125,0.328 c0.729,0.047,1.476,0.033,2.302-0.005l0.078,0.18c-1.249,1.131-3.078,1.577-4.776,1.441c-1.74-0.091-3.254-0.953-4.653-1.755 c-0.704-0.412-1.378-0.859-2.027-1.334c-0.642-0.486-1.257-0.998-1.85-1.53c-1.168-1.086-2.276-2.22-3.237-3.481L214.559,17.075z"/></g><g id="change1_27"><path fill="inherit" d="M214.653,12.283c0.828,0.725,1.695,1.404,2.606,2.002c0.904,0.606,1.843,1.147,2.812,1.579 c0.483,0.219,0.99,0.372,1.491,0.497c0.5,0.129,0.988,0.25,1.478,0.355c0.489,0.106,0.985,0.195,1.498,0.231 c0.514,0.033,1.041,0.024,1.623-0.004l0.055,0.127c-0.88,0.797-2.17,1.112-3.367,1.016c-1.227-0.064-2.294-0.672-3.281-1.237 c-0.496-0.29-0.972-0.606-1.429-0.941c-0.452-0.343-0.886-0.704-1.305-1.079c-0.823-0.766-1.605-1.565-2.282-2.454 L214.653,12.283z"/></g><g id="change1_28"><ellipse rx="3.258" ry="2.179" fill="inherit" cx="403.849" transform="rotate(-75.493 403.865 89.12)" cy="89.121"/></g><g id="change1_29"><ellipse rx="3.258" ry="2.179" fill="inherit" cx="385.925" transform="rotate(-75.493 385.94 84.483)" cy="84.484"/></g><g id="change1_30"><path fill="inherit" d="M394.593,90.045c-0.316-0.789-0.744-1.532-1.388-2.181c-0.328-0.309-0.749-0.612-1.316-0.678 c-0.276-0.02-0.572,0.007-0.829,0.118c-0.141,0.04-0.255,0.108-0.364,0.182c-0.107,0.073-0.236,0.142-0.324,0.226 c-0.368,0.306-0.75,0.72-0.93,1.301c-0.183,0.586-0.024,1.241,0.273,1.675c0.296,0.446,0.681,0.759,1.094,0.98 c0.41,0.222,0.857,0.367,1.326,0.373l0.058-0.125c-0.281-0.354-0.533-0.672-0.757-0.986c-0.218-0.317-0.407-0.625-0.515-0.907 c-0.109-0.286-0.151-0.493-0.146-0.722c0.003-0.232,0.118-0.53,0.355-0.789c0.219-0.229,0.442-0.394,0.716-0.411 c0.275-0.034,0.62,0.095,0.933,0.303c0.646,0.405,1.203,1.045,1.693,1.704L394.593,90.045z"/></g><g id="change1_31"><path fill="inherit" d="M418.961,75.854c0.123,0.963,0.335,1.903,0.547,2.851c0.229,0.942,0.502,1.875,0.824,2.796 c0.327,0.916,0.542,1.912,1.146,2.713c0.593,0.798,1.314,1.546,2.307,1.99l0.143-0.115c-0.183-1.059-0.496-1.919-0.85-2.776 c-0.17-0.432-0.397-0.828-0.65-1.22c-0.267-0.383-0.521-0.78-0.753-1.188c-0.223-0.413-0.448-0.826-0.659-1.248 c-0.224-0.416-0.437-0.84-0.646-1.266c-0.438-0.845-0.831-1.715-1.233-2.586L418.961,75.854z"/></g><g id="change1_32"><path fill="inherit" d="M411.832,59.356c-1.559,1.702-3.241,3.291-5.021,4.74c-0.885,0.731-1.797,1.425-2.732,2.078 c-0.932,0.658-1.882,1.287-2.866,1.849c-1.968,1.142-4.083,1.908-6.147,2.7c-1.043,0.381-2.107,0.694-3.196,0.976 c-1.094,0.252-2.21,0.441-3.38,0.619l-0.016,0.183c1.14,0.348,2.346,0.489,3.554,0.479c1.207-0.025,2.408-0.215,3.582-0.504 c1.167-0.313,2.289-0.769,3.347-1.331c1.051-0.577,2.059-1.211,3.037-1.878c1.964-1.324,3.766-2.847,5.433-4.49 c1.647-1.663,3.205-3.404,4.551-5.31L411.832,59.356z"/></g><g id="change1_33"><path fill="inherit" d="M396.75,56.415c-1.121,2.167-2.453,4.224-3.954,6.124c-0.743,0.956-1.534,1.871-2.372,2.734 c-0.83,0.869-1.707,1.688-2.628,2.444c-1.863,1.503-3.96,2.593-6.064,3.568l-0.799,0.359c-0.273,0.103-0.548,0.199-0.821,0.308 c-0.27,0.119-0.553,0.196-0.832,0.289c-0.282,0.084-0.559,0.196-0.846,0.265c-1.14,0.347-2.319,0.551-3.544,0.805l-0.006,0.184 c2.447,0.576,5.105,0.35,7.529-0.503c1.208-0.435,2.371-1.014,3.412-1.755c1.039-0.744,2.02-1.55,2.939-2.412 c1.838-1.724,3.429-3.669,4.781-5.751c0.672-1.044,1.295-2.115,1.862-3.212c0.568-1.097,1.088-2.215,1.515-3.375L396.75,56.415z"/></g><g id="change1_34"><path fill="inherit" d="M387.99,58.308c-0.796,1.018-1.631,2.004-2.519,2.928c-0.433,0.471-0.889,0.919-1.345,1.36l-0.691,0.653 c-0.234,0.212-0.477,0.413-0.714,0.62c-0.235,0.21-0.489,0.394-0.743,0.575c-0.255,0.18-0.503,0.371-0.771,0.526 c-0.26,0.166-0.512,0.342-0.757,0.524c-0.255,0.164-0.497,0.344-0.739,0.53c-0.117,0.101-0.238,0.192-0.365,0.272l-0.37,0.264 l-0.368,0.28l-0.382,0.252c-0.127,0.088-0.259,0.169-0.387,0.265c-0.127,0.1-0.259,0.19-0.397,0.26 c-0.271,0.166-0.551,0.333-0.838,0.547l0.031,0.181c0.341,0.057,0.689,0.068,1.045,0.077c0.359,0.012,0.689-0.076,1.037-0.135 c0.172-0.033,0.349-0.064,0.517-0.112c0.164-0.054,0.325-0.115,0.489-0.175c0.32-0.129,0.661-0.24,0.955-0.415 c1.264-0.606,2.149-1.694,3.06-2.656c0.915-0.973,1.715-2.03,2.451-3.12c0.716-1.105,1.402-2.218,1.958-3.406L387.99,58.308z"/></g><g id="change1_35"><path fill="inherit" d="M412.042,66.627c-0.104,1.686-0.065,3.372-0.003,5.063c0.039,0.845,0.109,1.689,0.183,2.534 c0.095,0.843,0.196,1.687,0.332,2.528c0.279,1.675,0.453,3.418,1.191,5.007c0.158,0.402,0.369,0.789,0.578,1.172 c0.211,0.382,0.416,0.765,0.694,1.114c0.264,0.355,0.509,0.712,0.818,1.031c0.32,0.311,0.634,0.617,0.978,0.887l0.147-0.11 c-0.118-0.43-0.265-0.823-0.407-1.211c-0.083-0.186-0.132-0.393-0.192-0.591c-0.057-0.2-0.127-0.391-0.189-0.585 c-0.136-0.381-0.24-0.778-0.355-1.168c-0.115-0.39-0.25-0.766-0.345-1.164c-0.11-0.391-0.231-0.776-0.359-1.16 c-0.114-0.391-0.244-0.777-0.382-1.162c-0.152-0.38-0.261-0.778-0.392-1.168c-0.13-0.391-0.248-0.786-0.345-1.188 c-0.416-1.598-0.747-3.227-1.041-4.868c-0.305-1.64-0.537-3.298-0.726-4.963L412.042,66.627z"/></g><g id="change1_36"><path fill="inherit" d="M394.677,98.424c-0.461,0.386-0.99,0.726-1.586,0.94c-0.59,0.217-1.248,0.341-1.892,0.274 c-0.163-0.004-0.323-0.024-0.479-0.06c-0.158-0.033-0.317-0.055-0.474-0.099c-0.312-0.106-0.631-0.199-0.925-0.378 c-0.594-0.325-1.108-0.834-1.445-1.42c-0.337-0.587-0.523-1.224-0.603-1.852c-0.078-0.639-0.079-1.231,0.014-1.899l0.123-0.882 l0.819,0.393c0.652,0.313,1.305,0.633,1.994,0.871c0.68,0.26,1.379,0.479,2.093,0.654c0.71,0.199,1.439,0.322,2.174,0.441 c0.737,0.104,1.484,0.188,2.245,0.205C396.257,96.653,395.591,97.634,394.677,98.424z M394.464,95.964 c-0.77,0.045-1.545,0.01-2.318-0.073c-0.768-0.105-1.54-0.233-2.29-0.455c-0.753-0.211-1.487-0.487-2.205-0.804l0.942-0.489 c-0.107,0.96,0.029,2.067,0.469,2.864c0.224,0.403,0.534,0.728,0.92,0.97c0.182,0.137,0.41,0.213,0.627,0.31 c0.113,0.041,0.236,0.064,0.353,0.099c0.119,0.038,0.239,0.062,0.36,0.071c0.968,0.178,1.98-0.115,2.903-0.655 c0.919-0.559,1.736-1.344,2.509-2.19C396.001,95.824,395.233,95.927,394.464,95.964z"/></g><g><g id="change1_2"><path fill="inherit" d="M386.946,177.704c-0.322,0.786-0.527,1.605-0.611,2.432l-0.052,0.62l-0.013,0.62l0.016,0.618 c0.013,0.205,0.035,0.41,0.051,0.614c0.023,0.204,0.06,0.406,0.095,0.607c0.038,0.201,0.094,0.399,0.139,0.596 c0.102,0.394,0.192,0.785,0.273,1.181c0.082,0.396,0.173,0.791,0.263,1.197c0.048,0.202,0.104,0.401,0.149,0.611 c0.05,0.207,0.114,0.411,0.152,0.638l-0.091,0.06c-0.178-0.14-0.343-0.296-0.499-0.461c-0.14-0.173-0.291-0.347-0.412-0.536 c-0.251-0.375-0.452-0.782-0.609-1.203c-0.155-0.422-0.251-0.864-0.291-1.31c-0.011-0.224-0.031-0.447-0.034-0.669l-0.006-0.666 c0.001-0.886,0.107-1.768,0.334-2.618c0.236-0.845,0.567-1.665,1.05-2.382L386.946,177.704z"/></g><g id="change1_4"><path fill="inherit" d="M400.275,142.436c-1.672-0.225-3.304-0.563-4.879-1.01c-1.584-0.426-3.112-0.962-4.571-1.598 c-1.478-0.615-2.763-1.503-4.162-2.203c-1.413-0.703-2.695-1.556-4.159-2.317l-0.119,0.117c0.201,0.358,0.435,0.69,0.669,1.026 l0.368,0.489l0.418,0.439c0.279,0.294,0.573,0.574,0.874,0.848l0.97,0.738c1.331,0.944,2.926,1.507,4.512,2.011 c1.586,0.511,3.221,0.91,4.894,1.194c1.685,0.252,3.391,0.433,5.147,0.418L400.275,142.436z"/><path fill="inherit" d="M392.56,144.567c-1.175-0.197-2.321-0.466-3.415-0.822c-1.098-0.346-2.152-0.763-3.148-1.248 c-0.991-0.508-1.789-1.232-2.72-1.761c-0.914-0.569-1.744-1.2-2.744-1.864l-0.149,0.105c0.187,1.269,0.852,2.332,1.706,3.158 c0.87,0.822,2.057,1.218,3.182,1.613c1.139,0.383,2.322,0.652,3.534,0.815c1.219,0.144,2.447,0.24,3.712,0.171L392.56,144.567z"/></g><g id="change1_3"><path fill="inherit" d="M356.964,166.799l0.92-3.36c0,0,28.08,18.212,59.46,10.867l0.51,3.7 C417.854,178.006,377.684,184.406,356.964,166.799z"/></g></g><g id="change1_37"><path fill="inherit" d="M389.125,108.42c-1.426-0.425-2.721-0.913-3.914-1.447l-0.069,1.469l14.825,5.432 c0,0,0.931-2.243,1.441-3.752C397.721,110.216,393.615,109.757,389.125,108.42z"/></g><g><g id="change1_5"><path fill="inherit" d="M123.22,241.365c2.084-0.657,5.77,0.978,6.257,3.258c0.695,3.251-1.803,4.635,2.154,7.992 c1.731,1.469,3.583,3.08,4.662,5.187c0.98,1.916,0.906,4.39-1.107,5.654c-1.887,1.186-4.409,0.73-6.358,0.264 c-2.657-0.636-5.308-1.269-7.929-2.045c-2.323-0.687-4.638-1.48-6.819-2.546c-1.233-0.603-2.999-1.374-3.662-2.729 c-0.041-0.083-0.076-0.169-0.102-0.26c-0.595-2.08,0.122-4.243,0.802-6.255c0.416-1.231,3.478-10.6,5.228-7.255 c1.757,3.358,4.746-0.557,6.832-1.251C123.193,241.373,123.206,241.369,123.22,241.365z"/></g><g id="change1_6"><path fill="inherit" d="M83.465,243.622c2.093-0.627,5.756,1.059,6.211,3.346c0.649,3.26-1.868,4.609,2.041,8.022 c1.71,1.493,3.539,3.13,4.588,5.252c0.953,1.929,0.844,4.402-1.186,5.638c-1.904,1.159-4.419,0.668-6.361,0.174 c-2.648-0.673-5.29-1.344-7.899-2.156c-2.313-0.72-4.617-1.546-6.782-2.642c-1.224-0.62-2.979-1.416-3.623-2.781 c-0.039-0.084-0.074-0.17-0.098-0.261c-0.566-2.088,0.182-4.241,0.89-6.243c0.433-1.225,3.627-10.55,5.329-7.181 c1.71,3.383,4.754-0.49,6.849-1.154C83.438,243.63,83.452,243.626,83.465,243.622z"/></g><g id="change1_7"><path fill="inherit" d="M106.242,199.095c0.322,0.786,0.527,1.605,0.611,2.432l0.052,0.62l0.013,0.62l-0.016,0.618 c-0.013,0.205-0.035,0.41-0.051,0.614c-0.023,0.204-0.06,0.406-0.095,0.607c-0.038,0.201-0.094,0.399-0.139,0.596 c-0.102,0.394-0.192,0.785-0.273,1.181c-0.082,0.396-0.173,0.791-0.263,1.197c-0.048,0.202-0.104,0.401-0.149,0.611 c-0.05,0.207-0.114,0.411-0.152,0.638l0.091,0.06c0.178-0.14,0.343-0.296,0.499-0.461c0.14-0.173,0.291-0.347,0.412-0.536 c0.251-0.375,0.452-0.782,0.609-1.203c0.155-0.422,0.251-0.864,0.291-1.31c0.011-0.224,0.031-0.447,0.034-0.669l0.006-0.666 c-0.001-0.886-0.107-1.768-0.334-2.618c-0.236-0.845-0.567-1.665-1.05-2.382L106.242,199.095z"/></g><g><g id="change1_38"><path fill="inherit" d="M96.121,84.743c-0.782,1.614-1.716,3.153-2.733,4.621c-0.501,0.738-1.016,1.466-1.563,2.17 c-0.52,0.721-1.087,1.409-1.64,2.102c-0.576,0.678-1.171,1.337-1.8,1.967c-0.604,0.649-1.189,1.309-1.717,2.023 c-0.518,0.723-1.062,1.428-1.541,2.201c-0.493,0.762-0.987,1.53-1.383,2.418l0.166,0.173c1.751-0.79,3.231-1.926,4.557-3.209 c1.358-1.262,2.263-2.912,3.269-4.445c0.485-0.783,0.98-1.556,1.426-2.361c0.451-0.8,0.868-1.62,1.267-2.445 c0.387-0.833,0.755-1.672,1.079-2.529c0.331-0.854,0.627-1.717,0.842-2.614L96.121,84.743z"/></g><g id="change1_39"><path fill="inherit" d="M84.537,91.407c-0.465,0.886-0.906,1.778-1.384,2.65c-0.23,0.44-0.462,0.877-0.701,1.31 c-0.23,0.436-0.462,0.871-0.703,1.299c-0.236,0.431-0.512,0.84-0.782,1.247c-0.27,0.406-0.489,0.835-0.678,1.274 c-0.181,0.449-0.359,0.888-0.503,1.364c-0.086,0.223-0.157,0.461-0.229,0.707c-0.072,0.241-0.158,0.476-0.217,0.759 l0.132,0.128c0.263-0.095,0.509-0.229,0.749-0.374c0.218-0.157,0.436-0.322,0.64-0.503c0.389-0.362,0.74-0.763,1.032-1.187 c0.619-0.839,0.856-1.862,1.195-2.81c0.344-0.949,0.651-1.908,0.919-2.876c0.253-0.974,0.514-1.94,0.704-2.929L84.537,91.407z"/></g><g id="change1_40"><path fill="inherit" d="M103.944,89.238c-0.79,1.295-1.641,2.549-2.578,3.724l-0.701,0.879l-0.728,0.852 c-0.232,0.291-0.494,0.557-0.738,0.836c-0.244,0.279-0.499,0.549-0.762,0.809c-1.023,1.078-2.273,1.884-3.24,2.97 c-0.979,1.101-2.014,2.108-2.954,3.482l0.121,0.207c0.414-0.05,0.804-0.155,1.2-0.26l0.583-0.183 c0.188-0.072,0.37-0.154,0.553-0.237c0.365-0.166,0.724-0.348,1.077-0.54c0.338-0.21,0.668-0.434,0.995-0.663 c0.331-0.226,0.632-0.485,0.914-0.764c0.28-0.281,0.561-0.562,0.807-0.874c0.485-0.631,0.955-1.266,1.411-1.904 c0.237-0.312,0.463-0.632,0.677-0.96c0.214-0.327,0.445-0.642,0.643-0.978l0.594-1.006l0.559-1.022 c0.346-0.696,0.679-1.394,0.981-2.106c0.308-0.709,0.581-1.429,0.807-2.17L103.944,89.238z"/></g><g id="change1_41"><path fill="inherit" d="M72.298,95.617c-0.224,1.5-0.519,2.986-0.925,4.434l-0.303,1.082l-0.338,1.068 c-0.101,0.358-0.238,0.705-0.355,1.057c-0.116,0.352-0.246,0.699-0.388,1.042c-0.523,1.392-1.361,2.62-1.829,3.997 c-0.473,1.395-1.035,2.726-1.366,4.357l0.192,0.143c0.362-0.207,0.68-0.456,1.004-0.706l0.466-0.395 c0.145-0.139,0.28-0.286,0.417-0.433c0.272-0.295,0.531-0.602,0.782-0.916c0.229-0.325,0.446-0.659,0.658-0.998 c0.217-0.337,0.393-0.693,0.545-1.059c0.149-0.368,0.298-0.736,0.403-1.119c0.201-0.77,0.387-1.537,0.559-2.303 c0.097-0.38,0.181-0.762,0.25-1.147c0.07-0.385,0.16-0.764,0.212-1.151l0.156-1.158l0.117-1.159 c0.048-0.776,0.083-1.549,0.084-2.322c0.008-0.772-0.021-1.542-0.101-2.313L72.298,95.617z"/></g><g id="change1_42"><path fill="inherit" d="M115.424,89.392c-0.134,1.121-0.312,2.234-0.567,3.322c-0.243,1.09-0.536,2.159-0.88,3.198 c-0.19,0.514-0.401,1.019-0.649,1.5c-0.219,0.495-0.451,0.968-0.61,1.481c-0.196,0.491-0.348,1.013-0.538,1.525 c-0.159,0.537-0.384,1.034-0.523,1.653l0.138,0.121c0.543-0.28,1.071-0.633,1.474-1.08c0.45-0.422,0.782-0.924,1.109-1.434 c0.283-0.525,0.537-1.075,0.663-1.658c0.151-0.577,0.233-1.164,0.357-1.735c0.215-1.15,0.336-2.306,0.37-3.459 c0.014-1.154-0.001-2.3-0.16-3.439L115.424,89.392z"/></g><g id="change1_43"><path fill="inherit" d="M126.117 125.053L139.09 142.234 137.776 143.218 124.736 126.042z"/></g><g id="change1_44"><path fill="inherit" d="M122.862 127.546L135.83 144.748 134.495 145.798 121.534 128.605z"/></g><g id="change1_49"><ellipse rx="2.297" ry="3.436" fill="inherit" cx="85.923" transform="rotate(-21.314 85.924 120.796)" cy="120.798"/><ellipse rx="2.297" ry="3.436" fill="inherit" cx="104.11" transform="rotate(-21.314 104.111 113.699)" cy="113.701"/><path fill="inherit" d="M92.14,126.115c1.207,0.294,2.359,0.538,3.486,0.628c1.122,0.094,2.207,0.029,3.171-0.31 c0.957-0.345,1.816-0.941,2.537-1.784c0.739-0.827,1.35-1.836,1.998-2.903c0.011,1.25-0.302,2.5-0.946,3.646 c-0.629,1.146-1.736,2.131-3.051,2.587c-1.319,0.46-2.724,0.384-3.953,0.023C94.152,127.628,93.023,127.009,92.14,126.115z"/><path fill="inherit" d="M95.73,120.607c0.232-0.866,0.587-1.697,1.181-2.457c0.305-0.364,0.708-0.734,1.293-0.874 c0.286-0.055,0.6-0.064,0.883,0.019c0.153,0.025,0.281,0.081,0.404,0.145c0.121,0.063,0.265,0.119,0.367,0.197 c0.424,0.275,0.875,0.66,1.136,1.246c0.265,0.591,0.18,1.296-0.076,1.788c-0.255,0.504-0.618,0.88-1.023,1.163 c-0.402,0.284-0.852,0.491-1.342,0.556l-0.077-0.123c0.25-0.406,0.474-0.77,0.67-1.127c0.189-0.359,0.348-0.705,0.426-1.014 c0.078-0.313,0.096-0.535,0.063-0.775c-0.032-0.242-0.19-0.54-0.47-0.782c-0.258-0.212-0.513-0.358-0.801-0.341 c-0.292-0.002-0.637,0.177-0.939,0.434c-0.626,0.505-1.129,1.245-1.559,1.996L95.73,120.607z"/><path fill="inherit" d="M109.528,159.179c-1.341,1.696-2.789,3.304-4.328,4.808c-1.52,1.522-3.135,2.94-4.825,4.245 c-1.675,1.333-3.549,2.352-5.274,3.567c-1.737,1.229-3.568,2.258-5.406,3.519l0.062,0.174c0.551-0.072,1.093-0.189,1.64-0.306 l0.814-0.198l0.786-0.272c0.526-0.181,1.046-0.384,1.561-0.596l1.494-0.742c1.969-1.046,3.658-2.525,5.273-4.017 c1.623-1.491,3.145-3.077,4.555-4.751c1.381-1.699,2.692-3.449,3.803-5.33L109.528,159.179z"/><path fill="inherit" d="M107.078,168.266c-0.987,1.176-2.042,2.293-3.166,3.319c-1.114,1.034-2.283,1.994-3.496,2.865 c-1.236,0.855-2.603,1.42-3.825,2.203c-1.259,0.749-2.537,1.384-3.962,2.188l0.028,0.201c1.617,0.305,3.298,0.018,4.82-0.565 c1.529-0.602,2.76-1.712,3.948-2.757c1.184-1.063,2.261-2.22,3.234-3.45c0.954-1.245,1.857-2.517,2.59-3.896L107.078,168.266z"/><path fill="inherit" d="M46.461 150.818H69.88V152.519H46.461z" transform="rotate(-82.859 58.175 151.676)"/><path fill="inherit" d="M62.876 140.451L59.965 163.68 61.652 163.884 64.564 140.66z"/><path fill="inherit" d="M103.207,139.672c-5.489,2.392-10.553,3.178-15.009,3.071l0.476,1.388l14.484-0.462 c0,0,0.158-2.863,0.052-3.998C103.209,139.671,103.208,139.672,103.207,139.672z"/></g></g></g></g></g></g></svg>