<svg width="35.2" height="32.6" viewBox="0.4 1.9 35.2 32.6" xmlns="http://www.w3.org/2000/svg" xmlns:xlink="http://www.w3.org/1999/xlink" overflow="hidden"><g id="change1_1"><path d="M8.916 12.88C8.805 14.532 10.684 16.006 8.204 15.839 5.724 15.672 0.368 13.306 0.436 12.309 0.504 11.312 4.144 9.552 6.624 9.719 9.104 9.885 9.028 11.227 8.916 12.88ZM29.038 28.929C28.836 28.897 28.646 28.944 28.474 29.024 26.149 29.256 25.249 27.139 25.249 27.139 24.81 26.803 24.268 25.13 23.66 25.924L23.847 27.326C24.034 28.728 26.417 30.55 26.417 30.55L25.202 32.139C24.866 32.578 24.95 33.205 25.389 33.541 25.828 33.877 26.455 33.793 26.791 33.354L27.464 32.474 27.425 32.723C27.338 33.269 27.71 33.781 28.256 33.868 28.802 33.955 29.314 33.583 29.401 33.037L29.871 30.074C29.956 29.528 29.584 29.016 29.038 28.929ZM22.76 29.552C22.564 29.494 22.37 29.515 22.188 29.57 19.853 29.488 19.244 27.27 19.244 27.27 18.854 26.878 18.541 25.147 17.832 25.853L17.829 27.267C17.826 28.681 19.944 30.806 19.944 30.806L18.527 32.218C18.135 32.608 18.134 33.241 18.524 33.632 18.914 34.024 19.547 34.025 19.938 33.635L20.723 32.853 20.65 33.095C20.491 33.624 20.791 34.181 21.32 34.341 21.849 34.5 22.407 34.2 22.566 33.671L23.428 30.798C23.59 30.268 23.29 29.711 22.76 29.552Z" fill="#F15E43"/></g><g id="change2_1"><path d="M35.009 6.729C34.626 6.559 34.251 6.672 33.959 6.973 33.905 7.029 29.734 13.279 19.427 11.917 19.087 11.872 22.566 23.885 22.626 23.879 22.75 23.865 25.696 23.511 28.766 21.326 31.584 19.321 35.05 15.335 35.563 7.728 35.591 7.31 35.392 6.9 35.009 6.729Z" fill="#637DC6"/></g><g id="change2_2"><path d="M34.477 21.108C34.273 20.772 33.887 20.548 33.498 20.637 32.205 20.932 30.301 21.18 28.968 21.09 22.611 20.662 19.607 16.961 19.576 16.93 19.301 16.648 20.042 28.482 20.392 28.506 29.586 29.126 34.254 22.479 34.449 22.196 34.671 21.87 34.682 21.445 34.477 21.108Z" fill="#637DC6"/></g><g id="change2_3"><path d="M24.586 19.016C24.215 24.526 25.902 28.877 20.392 28.505 14.882 28.134 10.247 23.585 10.618 18.074 10.989 12.563 24.958 13.506 24.586 19.016Z" fill="#637DC6"/></g><g id="change2_4"><path d="M23.257 12.412C22.904 17.647 19.335 21.669 14.101 21.316 8.866 20.963 4.908 16.434 5.261 11.199 5.614 5.964 10.093 2.755 15.328 3.108 19.329 3.377 23.568 7.791 23.257 12.412Z" fill="#637DC6"/></g><g id="change3_1"><circle cx="10.67" cy="8.989" r="2" fill="#3F3F3C"/></g><g id="change4_1"><path d="M18.179 16.645C18.179 16.645 25.809 22.293 30.566 12.186 30.962 11.344 32.251 12.979 30.665 16.348 29.079 19.717 22.49 22.788 18.625 17.884 17.81 16.849 18.179 16.645 18.179 16.645Z" fill="#FFFFFF"/></g><g id="change2_5"><path d="M15.327 3.107C15.327 3.107 21.573 3.361 23.125 2.63 24.677 1.899 23.261 5.562 19.863 6.419 16.465 7.276 15.327 3.107 15.327 3.107Z" fill="#637DC6"/></g><g id="change2_6"><path d="M17.428 5.788C17.428 5.788 21.929 5.924 23.482 5.194 25.035 4.464 23.618 8.126 20.22 8.983 16.821 9.84 17.428 5.788 17.428 5.788Z" fill="#637DC6"/></g></svg>