<?xml version="1.0" encoding="UTF-8" standalone="no"?><svg xmlns="http://www.w3.org/2000/svg" xmlns:xlink="http://www.w3.org/1999/xlink" contentScriptType="text/ecmascript" fill="#000000" width="523.1" zoomAndPan="magnify" contentStyleType="text/css" viewBox="-15.3 98.1 523.1 296.3" height="296.3" preserveAspectRatio="xMidYMid meet" version="1"><g id="change1_1"><path fill="#86b9b4" d="M88.521,305.186c-5.074-19.376,8.253-68.735-13.048-78.672c-9.553-4.457-30.843,0.587-35.585,22.117 c-2.403,10.912,11.819,25.189,18.585,35.85c9.32,14.688-7.442,35.615-37.669,19.88c-30.226-15.734-34.24-63.687-8.402-92.751 c35.526-38.288,99.101-36.236,120.37,15.62c10.021,24.429-3.648,50.264-1.343,62.718c1.384,10.149,25.084,20.902,10.919,37.102 C121.646,350.734,91.749,319.95,88.521,305.186z M161.503,339.41c-17.144,2.428-31.976,18.313-12.146,43.197 c10.599,10.871,33.449,5.537,38.968-7.988C197.04,347.417,178.178,337.051,161.503,339.41z M193.726,116.54 c-36.392,13.699-55.155,58.013-35.722,86.005c19.433,27.992,44.008,17.27,42.589-0.062c-1.026-12.587-6.974-31.841,0.233-40.382 c14.218-16.852,35.409-11.408,41.789-3.018c14.231,18.709-20.534,56.194-25.059,75.707c-4.014,14.569,8.125,55.728,37.47,44.4 c20.077-7.749,4.1-28.294,7.6-37.922c3.755-12.098,27.876-28.604,30.375-54.89C298.304,130.582,242.987,99.181,193.726,116.54z M266.23,299.042c-16.306-5.827-36.826,1.33-30.852,32.581c4.324,14.554,27.03,20.468,38.208,11.063 C293.96,322.666,282.088,304.711,266.23,299.042z M431.617,114.068c-37.472-10.398-78.757,14.323-79.572,48.389 c-0.815,34.068,25.354,39.903,34.439,25.07c6.593-10.773,13.144-29.829,24.001-32.476c21.418-5.224,35.323,11.671,35.528,22.208 c0.459,23.501-49.725,33.274-64.886,46.363c-11.833,9.398-26.304,49.798,4.075,57.956c20.783,5.581,19.999-20.433,28.502-26.144 c10.168-7.557,39.38-6.661,56.9-26.416C507.795,187.084,481.64,129.101,431.617,114.068z M338.41,312.334 c-5.092,14.305,9.759,32.469,24.333,31.469c28.259-4.155,29.262-25.658,19.798-39.587 C372.81,289.893,352.015,283.572,338.41,312.334z"/></g><g id="change2_1"><path fill="#f4f0d2" d="M11.381,252.412c-3.214,7.899-1.414,16.854,1.645,24.584c2.453,6.204,8.26,15.965,16.109,14.421 c1.229-0.242,2.175-1.839,1.72-3.029c-2.207-5.782-8.276-9.144-10.773-15.227c-2.705-6.588-2.737-13.896-4.315-20.746 C15.215,249.995,12.156,250.509,11.381,252.412L11.381,252.412z M107.161,259.797c1.078,3.739,1.558,7.577,2.223,11.403 c0.53,3.05,1.227,6.944,2.597,9.713c0.356,0.722,1.592,0.749,1.942,0c3.276-7.027,0.258-16.244-2.849-22.766 C110.014,255.923,106.499,257.503,107.161,259.797L107.161,259.797z M159.854,356.534c-0.123,1.514-0.137,0.484,1.709,0.301 c1.903-0.187,3.767,0.103,5.599,0.594c4.103,1.103,6.935,3.819,6.545,8.212c-0.393,4.404,6.462,4.365,6.853,0 c0.722-8.08-5.599-13.464-12.92-15.157c-5.195-1.202-14.071-0.895-14.636,6.049C152.642,360.94,159.5,360.906,159.854,356.534 L159.854,356.534z M173.889,152.127c-9.119,7.979-17.626,36.483-2.616,42.806c1.546,0.651,3.068-0.946,3.118-2.376 c0.091-2.565-0.564-4.393-1.432-6.819c-1.489-4.164-1.448-8.635-0.831-12.957c0.907-6.346,3.87-12.303,5.565-18.444 C178.327,152.038,175.549,150.675,173.889,152.127L173.889,152.127z M255.204,203.173c-0.781,3.801-2.143,7.406-3.331,11.09 c-0.957,2.967-2.186,6.794-2.257,9.905c-0.018,0.779,1.001,1.499,1.693,0.971c6.149-4.697,7.817-14.17,8.102-21.397 C259.505,201.343,255.693,200.795,255.204,203.173L255.204,203.173z M256.73,313.565c-0.34,0.537-0.964,0.484-0.448,0.466 c0.692-0.027,1.398,0.286,2.04,0.514c1.661,0.589,3.182,1.823,4.454,3.002c3.056,2.83,4.509,6.561,2.124,10.257 c-2.405,3.726,3.529,7.157,5.916,3.458c4.404-6.826,1.521-14.528-4.228-19.485c-3.918-3.376-12.061-7.525-15.776-1.67 C248.438,313.849,254.37,317.284,256.73,313.565L256.73,313.565z M394.959,131.082c-8.422,0.455-15.495,5.729-21.194,11.668 c-4.502,4.692-11.847,15.472-6.323,21.596c0.925,1.026,2.536,0.873,3.484,0c2.01-1.855,2.405-4.288,3.182-6.844 c1.206-3.966,3.653-7.276,6.449-10.266c4.614-4.934,10.857-8.007,16.015-12.271C398.095,133.702,396.852,130.979,394.959,131.082 L394.959,131.082z M429.991,220.454c-2.814,2.568-5.999,4.662-9.094,6.871c-2.588,1.848-5.777,4.192-7.68,6.723 c-0.53,0.704,0.192,1.693,0.971,1.693c3.056-0.007,6.997-1.93,9.578-3.506c3.621-2.209,6.647-5.446,9.254-8.749 C434.699,221.356,432.081,218.549,429.991,220.454L429.991,220.454z M365.845,310.504c0.934-0.352-0.041,0.009-0.228-0.091 c0.466,0.249,0.85,0.863,1.135,1.279c0.98,1.435,1.517,3.07,1.946,4.735c0.982,3.819,0.343,8.473-3.735,10.067 c-4.068,1.592-2.298,8.221,1.823,6.609c7.662-2.997,10.005-9.994,8.692-17.704c-0.813-4.772-5.126-13.891-11.451-11.504 C359.928,305.44,361.701,312.067,365.845,310.504L365.845,310.504z"/></g><g id="change3_1"><path fill="#1b1b19" d="M150.191,315.306c-0.244-8.863-8.987-15.618-13.713-22.213c-5.83-8.137,1.325-24.422,2.474-33.376 c1.823-14.211,0.464-26.82-5.752-39.772c-9.035-18.825-26.653-31.848-46.767-36.476c-31.809-7.319-66.981,9.087-84.159,36.159 c-17.598,27.739-13.452,70.718,16.804,87.693c0.013,0.007,0.025,0.01,0.038,0.017c15.063,7.239,37.673,10.44,44.634-9.081 c2.65-7.431-1.462-14.451-5.601-20.271c-9.619-13.519-21.866-26.491-7.863-42.043c7.221-8.018,22.265-11.145,29.244-1.46 c6.371,8.843,5.258,22.912,5.051,33.198c-0.363,18.076-3.785,36.248,7.479,51.738c10.236,14.076,28.396,25.027,45.342,16.274 C144.811,331.863,150.419,323.646,150.191,315.306z M102.323,320.862c-16.415-15.753-10.997-38.105-10.818-58.55 c0.128-14.643-1.254-35.569-18.316-40.145c-16.296-4.372-34.911,10.321-36.732,26.466c-1.526,13.528,10.277,25.093,17.498,35.243 c4.756,6.686,4.982,14.309-2.06,19.588c-8.532,6.396-20.966,1.981-29.36-2.063C-1.822,287.736-5.479,257.2,3.322,232.91 c9.133-25.203,35.953-41.372,61.709-43.944c25.23-2.52,48.256,10.168,60.857,31.809c8.824,15.156,7.806,31.295,4.598,47.841 c-1.661,8.569-4.594,17.911-0.909,26.293c4.249,9.663,18.578,15.643,11.741,27.901C131.955,339.595,112.486,330.616,102.323,320.862 z M161.503,335.986c-0.138,0.016-0.259,0.056-0.389,0.084c-0.172,0.006-0.342,0.006-0.522,0.037 c-13.784,2.351-26.574,13.13-23.803,28.392c3.289,18.11,16.452,29.906,34.868,26.569c17.345-3.143,24.563-20.004,21.514-36.113 C190.423,340.45,174.64,334.478,161.503,335.986z M171.75,383.98c-14.423,4.63-24.442-6.026-27.969-19.188 c-3.308-12.349,7.669-20.07,18.286-22.005c9.024-0.905,18.086,1.349,22.938,9.651C192.17,364.7,184.145,380,171.75,383.98z M183.716,117.376c-30.002,15.469-48.149,56.88-28.673,86.9c0.027,0.041,0.06,0.07,0.087,0.109 c9.914,13.305,28.418,26.843,43.648,12.82c5.117-4.713,5.702-12.002,4.834-18.428c-2.376-17.571-8.036-36.798,13.863-43.51 c13.283-4.071,26.756,4.612,24.778,18.75c-1.661,11.876-9.163,23.104-15.045,33.283c-8.907,15.41-16.237,28.072-12.276,46.146 c3.342,15.253,13.722,30.329,30.452,31.119c8.061,0.381,16.276-3.676,21.007-10.019c5.037-6.755,1.416-17.553-0.187-24.751 c-2.378-10.67,6.691-18.361,12.801-26.032c7.257-9.108,13.206-18.789,16.248-30.101c5.578-20.728-1.699-43.857-15.045-59.909 C257.426,106.347,214.289,101.612,183.716,117.376z M289.816,183.187c-0.5,14.613-8.546,26.807-17.347,37.851 c-5.094,6.394-11.52,12.767-13.544,20.927c-2.097,8.454,3.991,17.253,2.782,25.893c-1.156,8.262-12.982,10.567-19.702,9.558 c-6.136-0.923-10.78-5.75-14.124-10.59c-12.925-18.711-6.357-35.969,3.84-53.643c7.716-13.375,24.015-35.93,15.874-52.339 c-7.844-15.81-31.807-16.808-44.222-5.983c-12.441,10.848-9.601,24.803-7.241,39.695c1.323,8.345,2.314,17.105-7.022,20.929 c-11.239,4.603-22.277-6.755-28.148-14.67c-15.186-23.407-4.386-52.135,14.739-69.569c20.363-18.56,52.647-20.132,77.025-9.443 C277.38,132.612,290.72,156.826,289.816,183.187z M267.139,295.738c-11.926-3.945-24.933-1.866-32.204,9.087 c-9.092,13.692-4.24,34.313,9.754,42.134c16.173,9.039,32.556,1.188,40.435-14.224C293.302,316.738,281.953,301.55,267.139,295.738z M278.042,331.55c-6.864,13.427-22.453,15.83-34.023,6.844c-8.685-6.743-8.352-23.73-1.864-31.96 c5.521-7.004,15.545-6.606,23.16-4.087c0,0,0,0,0,0C277.962,307.309,284.546,318.828,278.042,331.55z M438.297,112.725 c-36.481-14.642-87.28,7.639-89.68,49.73c-0.003,0.046,0.007,0.084,0.005,0.129c0.076,15.695,5.841,34.713,24.176,36.03 c19.163,1.375,23.524-27.385,34.073-37.78c11.57-11.399,34.477,2.451,35.711,16.424c0.966,10.937-13.539,18.215-21.434,22.393 c-15.017,7.949-35.732,12.141-46.657,26.048c-8.806,11.209-14.442,29.968-8.626,43.651c5.846,13.752,25.628,22.734,37.356,10.7 c5.172-5.304,6.743-13.29,10.398-19.551c4.454-7.63,21.733-8.875,29.392-11.228c22.551-6.924,38.454-23.021,45.762-45.417 C501.449,164.999,473.27,126.764,438.297,112.725z M459.281,234.349c-9.802,6.94-22.096,9.542-33.495,12.603 c-6.965,1.871-13.781,3.986-18.08,10.09c-4.802,6.816-5.263,18.039-14.033,21.454c-14.387,5.604-23.378-12.203-23.085-23.266 c0.566-21.562,15.093-31.965,32.826-39.894c14.517-6.492,37.879-13.603,44.384-30.005c6.252-15.767-8.799-32.289-24.216-34.226 c-21.646-2.718-28.664,13.235-37.415,29.998c-3.756,7.196-8.637,12.363-17.317,9.923c-11.438-3.212-13.35-18.942-13.377-28.57 c1.741-30.523,32.57-47.532,60.43-47.334c27.734,0.199,53.666,21.164,64.116,45.974 C490.834,186.776,482.078,218.206,459.281,234.349z M353.064,290.8c-17.19,8.507-24.314,28.933-12.822,44.736 c10.757,14.793,29.705,14.092,43.055,3.294c11.211-9.071,9.185-25.495,2.202-36.344C378.287,292.433,365.411,284.691,353.064,290.8z M382.196,329.531c-2.591,4.886-7.929,7.566-12.909,9.295c-8.651,3.004-15.794,0.669-22.121-5.642 c-11.536-11.508-4.653-28.209,7.774-35.684c9.083-5.465,19.277,0.966,24.639,8.438c0.002,0.003,0.002,0.005,0.004,0.007 C384.176,313.079,386.363,321.67,382.196,329.531z"/></g></svg>