<?xml version="1.0" encoding="UTF-8" standalone="no"?><!-- Generator: Adobe Illustrator 23.0.1, SVG Export Plug-In . SVG Version: 6.00 Build 0)  --><svg xmlns="http://www.w3.org/2000/svg" xmlns:xlink="http://www.w3.org/1999/xlink" contentScriptType="text/ecmascript" zoomAndPan="magnify" contentStyleType="text/css" id="Layer_1" enable-background="new 0 0 234.7 486" version="1.1" xml:space="preserve" fill="#000000" preserveAspectRatio="xMidYMid meet" viewBox="0 0 234.7 486" x="0px" y="0px">
<g id="change1_1"><path fill="#ffd7e5" d="m157.3 190.6c-4.3-2-6.5-3-8.7-4.1-37-16.8-76.5-25.8-115.3-37.1-6.6-1.9-13.2-3.8-19.5-6.5-12.5-5.2-16.7-17.5-8.3-28.1 7-8.9 15.6-17 24.8-23.5 24.1-17.1 49-33.1 73.4-49.9 17.8-12.3 35.2-25.2 52.6-38 5.7-4.2 12.7-4.7 18.1-0.4 5.8 4.6 8.2 13.5 4 20.1-3.1 5-7.6 9.7-12.5 13.1-31.9 22-64.1 43.6-96.2 65.3-8.3 5.7-16.6 11.5-26.7 18.5 10.1 2.8 18.2 5.4 26.4 7.4 41.3 9.6 80.4 25.4 119.3 42 15 6.4 18 22.2 4.9 32.4-13.2 10.3-27.6 19.4-42.5 26.8-31 15.4-62.7 29.4-94 44-3.6 1.7-7.1 3.7-12.5 6.5 9.4 3.6 17.1 6.8 24.9 9.5 44.7 15.2 88 33.4 127.9 59 9.9 6.3 19.6 12.9 29 19.8 11.1 8.2 11 20.7 0.1 29-3.8 2.9-8.1 5.3-12.3 7.7-33.4 18.5-67 36.7-100.3 55.4-12 6.7-23.4 14.4-35.2 21.5-3.2 1.9-6.7 3.9-10.3 4.7-6.2 1.3-11.6-0.9-15.2-6.4-3.6-5.6-3.3-11.5 0.4-16.6 2.7-3.6 6.1-7.1 10-9.3 22.6-13.3 45.4-26.2 68.2-39.1 17.3-9.8 34.7-19.3 52.1-28.9 2.2-1.2 4.2-2.6 7-4.4-2.4-1.7-4.1-3.1-5.9-4.2-34.9-21.8-71.7-39.7-110.6-52.9-16.6-5.7-32.9-12.2-49.1-18.9-6-2.5-11.9-5.9-17.1-9.9-10.9-8.4-11-21.3-0.1-30 5.1-4.1 10.8-7.8 16.7-10.6 30-14.5 60.2-28.7 90.3-43 13.5-6.8 26.9-13.4 42.2-20.9z"/></g>
</svg>