<?xml version="1.0" encoding="UTF-8" standalone="no"?><svg xmlns="http://www.w3.org/2000/svg" xmlns:xlink="http://www.w3.org/1999/xlink" contentScriptType="text/ecmascript" fill="#000000" width="340.3" zoomAndPan="magnify" contentStyleType="text/css" viewBox="-0.9 0.0 340.3 222.4" height="222.4" preserveAspectRatio="xMidYMid meet" version="1"><g id="change1_1"><path fill="#ffdaa9" d="M284.826,75.126c0,0-6.873-6.714-13.169-9.136c-6.296-2.422-15.246,4.944-15.246,4.944l-3.23-4.075 c0,0,3.661-8.417,16.558-8.37c12.897,0.047,17.395,13.294,17.395,13.294L284.826,75.126z M257.248,85.574 c-0.919,6.227,3.384,12.019,9.611,12.938s12.019-3.385,12.938-9.611c0.919-6.227-3.384-12.019-9.611-12.938 C263.959,75.044,258.167,79.347,257.248,85.574z M259.343,27.637c26.328-6.258,49.595,12.325,55.468,21.717 c5.873,9.392,6.106,11.914,6.106,11.914l8.331-3.168c0,0-7.979-27.92-39.692-36.402c-31.714-8.482-49.049,0.371-60.318,9.104 c-11.269,8.734-11.299,17.138-11.299,17.138l8.785,1.953C226.724,49.892,233.016,33.895,259.343,27.637z M300.014,67.262 l7.233-2.288c0,0-10.032-24.89-33.481-27.207s-38.219,19.104-38.219,19.104l5.006,4.473c0,0,5.284-6.496,12.869-11.468 c7.585-4.971,16.792-6.747,29.228-0.728C295.085,55.166,300.014,67.262,300.014,67.262z M287.084,131.342h-94.136l-39.554,78.864 h-28.09c2.61-4.005,3.825-7.806,3.825-7.806s20.098,4.925,17.694,0.65c-2.404-4.275-21.785-13.585-21.785-13.585l-8.34-2.147 c-0.692-9.837-2.731-35.896-5.106-39.079c-4.085-5.476-10.702-8.994-14.796-10.774c25.148-3,42.16-16.795,46.764-40.771 c1.069-1.843,1.812-3.912,2.114-6.151c0.374-2.774,0.034-5.479-0.861-7.943c0.041-6.795-0.321-13.206-1.13-19.179 c1.712,0.175,2.656,0.288,2.656,0.288s2.119-56.276-44.529-59.099c-21.57-1.305-39.93,0.052-54.209,3.654L47.897,0l-6.506,0.353 l-1.37,10.166l-8.907-6.938l-4.653,2.91l4.273,8.055c-7.332,3.936-12.433,8.897-14.958,14.756C8.065,47.232,11.3,76.588,11.3,76.588 l0.018-0.003c-3.673,1.712-6.261,5.388-6.355,9.714C4.83,92.365,12.621,99.73,18.688,99.862c1.375,0.03,2.534-0.329,3.52-0.95 c4.786,9.821,12.729,19.085,22.778,26.142v10.829c0,0,0.089,0.064,0.258,0.181h-9.512c0,0-14.605,0.003-25.104,8.769l-0.003-0.001 c-0.002,0.003-0.004,0.006-0.006,0.008c-1.985,1.659-3.824,3.628-5.388,5.972c-1.919,2.877-3.193,7.359-4.005,12.705 c-0.865,3.445-1.173,6.745-0.971,9.903c-1.198,21.673,2.188,48.984,2.188,48.984h44.788h73.59h26.452h9.353h137.08l21.965-50.019 l23.708-41.044H287.084z"/></g><g id="change2_1"><path fill="#ffcf59" d="M265.417,180.594c-2.29,7.119-9.917,11.034-17.036,8.744s-11.034-9.917-8.744-17.036 c1.294-4.023,7.941-8.458,7.941-8.458s8.071-0.421,11.167,0.575C265.864,166.709,267.707,173.475,265.417,180.594z M61.175,173.027 l55.523,14.292c-0.692-9.837-2.731-35.896-5.106-39.079c-4.085-5.476-10.702-8.994-14.796-10.774 c-0.507,0.06-1.024,0.107-1.537,0.159c-0.698,2.469-3.379,7.019-13.515,9.97c-13.575,3.952-33.981-9.782-36.499-11.528h-9.512 c0,0-14.605,0.003-25.104,8.769l-0.003-0.001c-0.002,0.003-0.004,0.006-0.006,0.008c-1.985,1.659-3.824,3.628-5.388,5.972 c-1.919,2.877-3.193,7.359-4.005,12.705c-0.865,3.445-1.173,6.745-0.971,9.903c-1.198,21.673,2.188,48.984,2.188,48.984h44.788 v-12.2h33.972l-38.416-2.471l1.634-4.284L61.175,173.027z"/></g><g id="change1_2"><path fill="#ffdaa9" d="M44.987,135.884c0,0,0.089,0.064,0.258,0.181c2.517,1.746,22.923,15.48,36.499,11.528 c10.136-2.951,12.817-7.501,13.515-9.97c0.513-0.052,1.03-0.098,1.537-0.159c25.148-3,42.16-16.795,46.764-40.771 c-2.948,5.084-8.443,8.394-14.512,8.394c-0.745,0-1.497-0.05-2.255-0.151c-4.443-0.599-8.388-2.893-11.107-6.459 c-2.53-3.317-3.696-7.368-3.367-11.495l-12.705-0.519c-0.011,0.088-0.01,0.174-0.022,0.262c-1.218,9.029-8.968,15.606-17.839,15.606 c-0.798,0-1.605-0.053-2.418-0.162c-4.066-0.549-7.621-2.435-10.316-5.139c0,0.103,0.011,0.204,0.009,0.308 c-0.145,6.638-5.643,11.901-12.281,11.756s-11.901-5.643-11.756-12.281s5.643-11.901,12.281-11.756 c2.502,0.055,4.807,0.871,6.703,2.221c-0.29-1.733-0.331-3.537-0.084-5.367c0.643-4.768,3.104-9.001,6.93-11.918 c3.826-2.917,8.559-4.168,13.327-3.526c9.083,1.225,15.668,9.061,15.591,17.999l12.859,0.525 c1.726-8.599,9.869-14.512,18.682-13.331c6.4,0.863,11.468,5.251,13.534,10.938c0.041-6.795-0.321-13.206-1.13-19.179 c-4.785-0.489-15.626-1.465-29.044-1.832l-14.127-30.507L98.89,59.773c-4.338-0.09-48.053-7.114-48.053-7.114 c-2.802,19.327-19.434,18.267-19.434,18.267l-2.326,13.281l-8.884,0.135l-3.049-8.719c-0.023-0.003-0.047-0.003-0.071-0.005 l-5.755,0.967c-3.673,1.712-6.261,5.388-6.355,9.714C4.83,92.365,12.621,99.73,18.688,99.862c1.375,0.03,2.534-0.329,3.52-0.95 c4.786,9.821,12.729,19.085,22.778,26.142V135.884z M102.252,91.621l4.103,0.09c0.643,0.014,1.231,0.367,1.546,0.928l3.715,6.626 l-14.68-0.321L102.252,91.621z M93.989,110.823c2.185,1.654,4.532,2.732,7.256,2.855c1.245,0.057,2.436-0.111,3.703-0.508 c1.312-0.411,2.568-1.548,4.039-1.81c0.825-0.147,1.764,0.841,1.489,1.666c-0.397,1.193-1.093,1.814-2.16,2.426 c-0.729,0.419-1.512,0.736-2.309,1.001c-1.597,0.531-3.336,0.691-5.01,0.552c-3.333-0.276-6.89-1.926-8.502-5.002 C92.026,111.11,93.239,110.255,93.989,110.823z M129.128,202.4c0,0-1.214,3.801-3.825,7.806c-2.634,4.041-6.689,8.29-12.357,9.05 c-11.284,1.513-14.898-7.966-14.898-7.966l-16.844-1.083l-38.416-2.471l1.634-4.284l16.752-30.424l55.523,14.292l8.34,2.147 c0,0,19.381,9.31,21.785,13.585C149.226,207.325,129.128,202.4,129.128,202.4z M83.88,68.451c-0.726-0.099-1.452-0.146-2.173-0.146 c-3.484,0-6.856,1.133-9.674,3.281c-3.401,2.593-5.589,6.355-6.16,10.595c-0.381,2.823,0.012,5.572,1,8.047 c0.592,0.851,1.076,1.78,1.434,2.771c2.454,3.793,6.477,6.541,11.295,7.19c8.745,1.18,16.827-4.98,18.008-13.729 C98.789,77.709,92.63,69.63,83.88,68.451z M85.446,93.754c-3.012-0.066-5.401-2.561-5.335-5.574 c0.066-3.013,2.561-5.401,5.574-5.336s5.401,2.561,5.336,5.574C90.954,91.431,88.458,93.82,85.446,93.754z M131.011,73.644 c-0.667-0.09-1.331-0.134-1.986-0.134c-7.284,0-13.645,5.399-14.645,12.813c-0.528,3.914,0.5,7.8,2.896,10.941 c2.395,3.141,5.87,5.161,9.784,5.688c8.08,1.088,15.541-4.598,16.631-12.679C144.78,82.194,139.091,74.733,131.011,73.644z M126.566,97.076c-3.012-0.066-5.401-2.561-5.335-5.574c0.066-3.013,2.561-5.401,5.574-5.336c3.013,0.066,5.401,2.561,5.335,5.574 C132.074,94.753,129.579,97.141,126.566,97.076z"/></g><g id="change3_1"><path fill="#cb9fd2" d="M287.134,71.783l-2.308,3.342c0,0-6.873-6.714-13.169-9.136c-6.296-2.422-15.246,4.944-15.246,4.944 l-3.23-4.075c0,0,3.661-8.417,16.558-8.37C282.636,58.535,287.134,71.783,287.134,71.783z M270.186,75.963 c-6.227-0.919-12.019,3.385-12.938,9.611c-0.919,6.227,3.384,12.019,9.611,12.938s12.019-3.385,12.938-9.611 C280.716,82.674,276.413,76.881,270.186,75.963z M289.556,21.698c-31.714-8.482-49.049,0.371-60.318,9.104 c-11.269,8.734-11.299,17.138-11.299,17.138l8.785,1.953c0,0,6.292-15.997,32.619-22.256c26.328-6.258,49.595,12.325,55.468,21.717 c5.873,9.392,6.106,11.914,6.106,11.914l8.331-3.168C329.248,58.099,321.269,30.179,289.556,21.698z M273.766,37.766 c-23.449-2.317-38.219,19.104-38.219,19.104l5.006,4.473c0,0,5.284-6.496,12.869-11.468c7.585-4.971,16.792-6.747,29.228-0.728 c12.435,6.019,17.364,18.114,17.364,18.114l7.233-2.288C307.247,64.974,297.215,40.084,273.766,37.766z M66.872,90.227 c0.388,0.971,0.869,1.898,1.434,2.771C67.948,92.007,67.465,91.078,66.872,90.227z M106.355,91.711l-4.103-0.09l-5.317,7.323 l14.68,0.321l-3.715-6.626C107.586,92.078,106.998,91.725,106.355,91.711z M63.974,87.28c-1.895-1.35-4.201-2.167-6.703-2.221 c-6.638-0.145-12.136,5.118-12.281,11.756s5.118,12.136,11.756,12.281s12.136-5.118,12.281-11.756 c0.002-0.104-0.008-0.205-0.009-0.308C66.403,94.408,64.599,91.016,63.974,87.28z"/></g><g id="change4_1"><path fill="#403662" d="M50.837,52.659c-2.802,19.327-19.434,18.267-19.434,18.267l-2.326,13.281l-8.884,0.135l-2.864-7.495 l-0.228-0.946l-0.652-0.033l-5.13,0.716L11.3,76.588c0,0-3.234-29.356,4.476-47.286c2.524-5.858,7.625-10.82,14.958-14.756 L26.46,6.491l4.653-2.91l8.907,6.938l1.37-10.166L47.897,0l-0.297,8.264c14.279-3.602,32.639-4.958,54.209-3.654 c46.648,2.822,44.529,59.099,44.529,59.099s-0.944-0.113-2.656-0.288c-4.785-0.489-15.626-1.465-29.044-1.832l-14.127-30.507 L98.89,59.773C94.551,59.684,50.837,52.659,50.837,52.659z M85.684,82.845c-3.013-0.066-5.508,2.323-5.574,5.336 c-0.066,3.013,2.323,5.508,5.335,5.574c3.013,0.066,5.508-2.323,5.574-5.336C91.085,85.406,88.697,82.91,85.684,82.845z M126.566,97.076c3.012,0.066,5.508-2.323,5.574-5.335c0.066-3.013-2.323-5.508-5.335-5.574c-3.012-0.066-5.508,2.323-5.574,5.336 C121.165,94.514,123.554,97.01,126.566,97.076z M339.382,131.342l-23.708,41.044l-21.965,50.019h-137.08h-9.353h-26.452h-73.59 v-12.2h33.972l16.844,1.083c0,0,3.614,9.479,14.898,7.966c5.667-0.76,9.723-5.008,12.357-9.05h28.09l39.554-78.864h94.136H339.382z M258.745,164.419c-3.096-0.996-11.167-0.575-11.167-0.575s-6.647,4.435-7.941,8.458c-2.29,7.119,1.625,14.746,8.744,17.036 s14.746-1.625,17.036-8.744S265.864,166.709,258.745,164.419z M112.319,86.983l-12.705-0.519c-0.011,0.088-0.01,0.174-0.022,0.262 c-1.218,9.029-8.968,15.606-17.839,15.606c-0.798,0-1.605-0.053-2.418-0.162c-4.066-0.549-7.621-2.435-10.316-5.139 c-2.615-2.623-4.419-6.016-5.044-9.752c-0.29-1.733-0.331-3.537-0.084-5.367c0.643-4.768,3.104-9.001,6.93-11.918 c3.826-2.917,8.559-4.168,13.327-3.526c9.083,1.225,15.668,9.061,15.591,17.999l12.859,0.525 c1.726-8.599,9.869-14.512,18.682-13.331c6.4,0.863,11.468,5.251,13.534,10.938c0.895,2.464,1.235,5.169,0.861,7.943 c-0.302,2.239-1.045,4.308-2.114,6.151c-2.948,5.084-8.443,8.394-14.512,8.394c-0.745,0-1.497-0.05-2.255-0.151 c-4.443-0.599-8.388-2.893-11.107-6.459C113.156,95.16,111.99,91.109,112.319,86.983z M117.276,97.265 c2.395,3.141,5.87,5.161,9.784,5.688c8.08,1.088,15.541-4.598,16.631-12.679c1.089-8.081-4.599-15.542-12.68-16.631 c-0.667-0.09-1.331-0.134-1.986-0.134c-7.284,0-13.645,5.399-14.645,12.813C113.853,90.238,114.881,94.124,117.276,97.265z M83.88,68.451c-0.726-0.099-1.452-0.146-2.173-0.146c-3.484,0-6.856,1.133-9.674,3.281c-3.401,2.593-5.589,6.355-6.16,10.595 c-0.381,2.823,0.012,5.572,1,8.047c0.388,0.971,0.869,1.898,1.434,2.771c2.454,3.793,6.477,6.541,11.295,7.19 c8.745,1.18,16.827-4.98,18.008-13.729C98.789,77.709,92.63,69.63,83.88,68.451z M108.987,111.361 c-1.471,0.262-2.727,1.399-4.039,1.81c-1.268,0.397-2.458,0.564-3.703,0.508c-2.724-0.124-5.071-1.201-7.256-2.855 c-0.75-0.568-1.962,0.286-1.494,1.181c1.612,3.076,5.169,4.726,8.502,5.002c1.674,0.139,3.413-0.021,5.01-0.552 c0.797-0.265,1.579-0.582,2.309-1.001c1.067-0.613,1.762-1.233,2.16-2.426C110.751,112.202,109.812,111.215,108.987,111.361z"/></g></svg>