<?xml version="1.0" encoding="UTF-8" standalone="no"?><svg xmlns="http://www.w3.org/2000/svg" xmlns:xlink="http://www.w3.org/1999/xlink" contentScriptType="text/ecmascript" fill="#000000" width="191.5" zoomAndPan="magnify" contentStyleType="text/css" viewBox="-4.2 -7.0 191.5 522.0" height="522" preserveAspectRatio="xMidYMid meet" version="1"><g id="change1_1"><path fill="#fff9ed" d="M140.5,243.2c0.3-9.7,0.6-19.2,0.9-28.9 M141.4,214.3c0.2-8.3,0.5-16.7,0.7-25c0.7-24.5,3.6-48.1-14.6-67.4 c-12.7-13.5-32.4-20.4-50.4-14.4c-46.7,15.7-35.2,78.4-35.2,115.9c0,35.5,0,70.9,0,106.5c0,11.9-18.5,11.9-18.5,0 c0-55.7,0-111.4,0-167.2c0-28.7,13.5-56.2,40.1-69.4c36.1-17.8,78.6,4.4,92.7,40.2c10.6,27.1,4,60.5,3.2,88.8c-1,33-2,65.9-3.1,98.9 c-1,33-2,65.9-3.1,98.9c-0.7,24,1.1,48.1-17.8,66.1c-30.4,28.8-80.8,10.2-87.5-30.3c-5-29.7-1.6-62.8-2-93c-0.5-33.7-1-67.3-1.4-101 c-0.3-22.5-1.4-43.9,17.3-59.5c14-11.9,33.5-13.2,49.2-3.7c18.9,11.4,24,31.1,23,51.9c-1.6,33.4-3.7,67-5.6,100.4 c-0.7,11.8-19.2,11.9-18.5,0c1.6-28.7,3.2-57.4,4.8-86.1c0.7-13.8,4.2-29.7-4.2-41.9c-7.1-10.4-20.3-15.6-32-9.9 c-24.9,12.1-15.4,55.5-15.1,77.6c0.4,26.4,0.7,52.9,1.2,79.4c0.4,26.1-1.7,53.4,1.2,79.4c2.6,24.4,28.6,41.1,51,27.9 c22.4-13.1,17.7-42.6,18.3-64.6c0.7-24.4,1.5-48.8,2.2-73.3c1-32,2-64.2,3-96.2"/></g><g id="change2_1"><path fill="#fd87b1" d="M176.8,86.9c-14.7,39.5-42.7,71.7-76.4,96.4c-1.8,1.3-4.4,0.9-6.2,0c-21-10.2-40.5-23.6-57-40.2 C23.4,129.2,8.9,113.7,2.8,94.6c-7-22.2-0.5-49.1,12.8-67.8C33.4,1.9,70-0.7,91.4,20.1c18.3-18.7,47-27.1,70.9-13.2 c12.5,7.3,20.8,19.6,22.8,33.9C187.3,56.6,182.2,72.2,176.8,86.9z"/></g><g id="change3_1"><path fill="#fff9ed" d="M61,33.9c-0.2-3.5-0.3-7-0.3-10.5c0.1-4,6.2-4,6.2,0c0,3.5,0.1,7,0.3,10.5C67.4,37.8,61.2,37.8,61,33.9z M61,50.3c-0.1,5.2-0.2,10.4-0.3,15.7c-0.1,4,6.1,4,6.2,0c0.1-5.2,0.2-10.4,0.3-15.7C67.2,46.3,61.1,46.3,61,50.3z M57.6,39.5 c-4.1,0.1-8.3,0.2-12.4,0.3c-4,0.1-4,6.3,0,6.2c4.1-0.1,8.3-0.2,12.4-0.3C61.6,45.5,61.6,39.4,57.6,39.5z M82.5,38.1 c-4.5,0.1-8.9,0.2-13.4,0.3c-4,0.1-4,6.2,0,6.2c4.5-0.1,8.9-0.2,13.4-0.3C86.4,44.2,86.4,38,82.5,38.1z M29.3,57.5 c1.6,0,3.2-1.4,3.1-3.1c-0.2-2.5-0.2-5.1-0.2-7.6c0.1-4-6.1-4-6.2,0c0,2.5,0,5.1,0.2,7.6C26.4,56.1,27.6,57.5,29.3,57.5z M26.3,71.7 c-0.1,3.8-0.2,7.5-0.2,11.3c-0.1,4,6.1,4,6.2,0c0.1-3.8,0.2-7.5,0.2-11.3C32.5,67.7,26.4,67.7,26.3,71.7z M23.4,60.3 c-3,0.1-6,0.2-8.9,0.2c-4,0.1-4,6.3,0,6.2c3-0.1,6-0.2,8.9-0.2C27.3,66.4,27.3,60.2,23.4,60.3z M44,59.3c-3.2,0.1-6.4,0.1-9.6,0.2 c-4,0.1-4,6.2,0,6.2c3.2-0.1,6.4-0.1,9.6-0.2C48,65.4,48,59.2,44,59.3z M113.4,119.4c0.4,2.1-0.1,4.3-1.7,5.9 c-1.6,1.5-3.8,2-5.9,1.6c-1.4-0.3-2.2-1.7-2.3-3c-0.3-3.7,3-6.9,6.7-7c0.9,0,1.7,0.4,2.3,1.1C112.9,118.4,113.3,118.9,113.4,119.4z M107.4,121.1C107.4,121.1,107.4,121,107.4,121.1C107.4,121,107.4,121,107.4,121.1C107.4,121,107.4,121,107.4,121.1 C107.4,121,107.4,121.1,107.4,121.1z M132.6,114.5c-0.3-0.1-0.7-0.1-1.1-0.1c-0.7-0.2-1.4-0.1-2,0.4c-1.4,1.1-2.6,2.3-3.7,3.8 c-0.6,0.9-1,1.8-1,2.8c0,1.5,1.1,2.8,2.5,3.3c1.8,0.6,3.9-0.2,5.2-1.6c1.3-1.3,1.9-3.1,2.2-4.9C135,116.7,134.3,114.8,132.6,114.5z M127,135.3c-1-0.8-2.4-1.1-3.5-0.3c-1.6,1.1-3,2.4-4.1,4.1c-1.5,2.1-1.1,5.2,1.6,6.1c2,0.6,4.1-0.4,5.5-1.7 c1.3-1.1,2.3-2.8,2.5-4.4C129.2,137.5,128.6,135.8,127,135.3z M106.5,148c1.3-0.8,2.3-2.1,3-3.4c0.8-1.4,0.3-3.4-1.1-4.2 c-0.5-0.3-1-0.4-1.6-0.4c-0.3-0.1-0.6-0.2-1-0.2c-2.8,0.2-5.3,2-6.1,4.8c-0.3,1.2,0.2,2.9,1.4,3.5C103,149,104.8,149,106.5,148z M110.9,157.6c1,0.9,1.2,2.6,0.5,3.7c-0.8,1.3-1.8,2.6-3.1,3.6c-1.9,1.4-4.3,1.4-5.8-0.6c-1.4-1.7-1.1-4.2,0.5-5.8 c1-1,2.3-1.2,3.4-2.1c1-0.8,2.4-0.5,3.4,0.2C110.1,157,110.5,157.3,110.9,157.6z M107,163.1c0.1,0,0.2,0,0.3-0.2 C107.2,163.1,107.1,163.2,107,163.1z M86.6,145c-2.9,0.9-5.9,4.4-4.2,7.5c1.2,2.1,3.6,2.1,5.5,1.2c1.2-0.6,2.2-1.6,3-2.8 c0.8-1.1,0.4-3-0.6-3.9C89.7,145.6,88.2,144.5,86.6,145z"/></g></svg>