<?xml version="1.0" encoding="UTF-8" standalone="no"?><svg xmlns="http://www.w3.org/2000/svg" xmlns:xlink="http://www.w3.org/1999/xlink" contentScriptType="text/ecmascript" fill="#000000" width="502.7" zoomAndPan="magnify" contentStyleType="text/css" viewBox="0.0 -0.3 502.7 308.4" height="308.4" preserveAspectRatio="xMidYMid meet" version="1"><g id="change1_3"><path fill="#0c9390" d="M52.549,23.28l15.708,10.948c0.066,0.046,0.106,0.108,0.168,0.156c0.062-0.049,0.101-0.112,0.166-0.159 l15.534-11.193c3.086-2.224,7.396-0.038,7.426,3.765l0.133,16.999c0.026,3.28-3.239,5.571-6.315,4.431l-15.668-5.806 c-0.458-0.17-0.861-0.401-1.219-0.673c-0.354,0.277-0.754,0.515-1.209,0.692L51.7,48.492c-3.057,1.188-6.358-1.052-6.383-4.331 l-0.133-16.999C45.153,23.357,49.428,21.105,52.549,23.28z"/></g><g fill="#ed9f86" id="change2_7"><path fill="inherit" d="M269.068,240.487l13.138,41.159c0,0,10.999,9.443,13.953,0c0.54-1.727,0-41.159,0-41.159H269.068z"/><path fill="inherit" d="M306.863,240.487l13.138,41.159c0,0,10.999,9.443,13.953,0c0.54-1.727,0-41.159,0-41.159H306.863z"/></g><g id="change1_2"><path fill="#0c9390" d="M199.194 64.106L175.394 98.432 217.021 101.88z"/></g><g fill="#2d1f21" id="change3_2"><path fill="inherit" d="M334.583,22.868L334.583,22.868L334.583,22.868c-2.252-3.831-5.37-7.181-9.619-9.646 c-7.88-6.118-20.763-12.934-39.286-13.211c-17.608-0.263-20.094,4.232-16.654,9.387c-5.491,0.371-11.981,1.764-19.122,5.124 c-17.9,8.424-13.52,19.653-5.274,21.706c-0.377,1.795-0.603,3.705-0.647,5.747c-0.747,34.886,31.909,37.469,31.909,37.469 l61.89-13.848C337.78,65.596,344.455,39.665,334.583,22.868z"/><path fill="inherit" d="M50.623,38c0.673-0.118,39.436-9.29,54.604,12.893s14.225,62.188,5.501,82.475 c0,0-17.207,11.945-39.509,8.153s-42.779,14.789-55.103,12.324C3.792,151.38,0,144.365,0,144.365s9.67-5.688,10.618-28.061 c0.948-22.373,0.569-52.898,12.893-64.084S40.597,39.753,50.623,38z"/><path fill="inherit" d="M451.501,280.072c0,0,7.874-13.258,18.72-6.252c10.846,7.005,25.349,29.376,17.845,31.842 C480.562,308.127,455.809,307.127,451.501,280.072z"/><path fill="inherit" d="M265.838 180.543L262.94 247.106 300.801 247.106 300.582 210.737 304.747 247.598 340.257 245.405 333.202 176.862z"/><path fill="inherit" d="M201.643 264.088H260.926V305.966H201.643z" transform="rotate(-180 231.285 285.026)"/><path fill="inherit" d="M161.107 180.628H202.985V222.50599999999997H161.107z" transform="rotate(-180 182.045 201.567)"/></g><g id="change4_4"><path fill="#bd4e27" d="M494.333,183.109c1.315-1.935,2.085-4.27,2.085-6.786c0-6.611-5.31-11.975-11.897-12.078 c0.491-1.518,0.762-3.135,0.762-4.817c0-4.303-1.742-8.193-4.552-11.022c0,0,0,0,0,0c2.975-8.029,2.261-15.16,1.588-18.658 c2.471-27.836-4.915-41.696-14.028-48.473c0,0-0.322-0.27-0.974-0.714c-4.091-2.786-21.164-12.422-53.02-5.236 c-2.078,0.407-4.202,0.931-6.328,1.599c-0.002,0-0.003,0.001-0.004,0.001h0c-12.125,3.808-24.316,12.307-28.431,30.651 c-4.291,19.132-0.716,31.194,4.26,38.605c-5.969,2.211-10.232,7.938-10.232,14.676c0,1.682,0.272,3.298,0.763,4.817 c-6.587,0.103-11.897,5.467-11.897,12.078c0,2.516,0.77,4.851,2.085,6.787c-8.319,3.531-5.023,18.684-5.023,18.684 s15.015-4.366,14.021-13.434c0.332,0.027,0.665,0.051,1.004,0.051c6.676,0,12.088-5.412,12.088-12.088 c0-0.503-0.04-0.996-0.1-1.483c0.886,0.156,1.792,0.252,2.723,0.252c6.123,0,11.411-3.521,13.987-8.642l0.006,0.015 c0,0,35.439,9.986,52.322-1.599c0.005-0.003,0.009-0.007,0.013-0.01c2.545,5.209,7.879,8.806,14.066,8.806 c0.93,0,1.837-0.097,2.723-0.252c-0.06,0.487-0.1,0.98-0.1,1.483c0,6.676,5.412,12.088,12.088,12.088 c0.339,0,0.672-0.023,1.005-0.051c-0.995,9.068,14.021,13.434,14.021,13.434S502.652,186.641,494.333,183.109z"/></g><g><g id="change2_8"><path fill="#ed9f86" d="M384.595,272.137c25.86-35.805,17.391-4.458,17.391-4.458l2.716,3.98c1.248-0.967,2.568-1.821,3.947-2.526 c0,0,15.953-3.396,23.314,8.157c0.001,0.001,0.002,0.001,0.003,0.001c10.661,4.178,20.174,3.464,26.24,2.155l-0.006,0.004 c0,0,10.632,0.428,11.178,19.956c0.007,0.261,0.021,0.51,0.036,0.754c-7.532,3.458-16.966,5.297-26.349,6.193 c0,0-6.023,0.528-13.905,0.476l0,0.004c0,0-15.876,1.348-26.594-1.171C400.831,305.383,358.893,307.725,384.595,272.137z"/></g><g id="change2_1"><path fill="#ed9f86" d="M340.282,252.513c0.46-2.409,4.81-1.638,5.966-1.389c-1.303-0.313-6.597-1.76-5.496-4.425 c0.866-2.096,4.552-0.572,6.747,0.571c-2.035-1.241-5.028-3.403-3.508-4.616c1.548-1.235,6.647,1.346,9.589,3.019 c-0.799-0.764-1.417-1.903-0.969-3.524c0.979-3.539,9.766,1.882,9.766,1.882c19.128-4.356,22.06-19.52,21.907-29.075 c8.34-0.091,15.366-2.568,19.137-4.22c5.619,30.505-18.034,43.85-30.698,48.723c-3.868,1.271-9.722,2.472-16.998,1.744 c-0.873-0.087-1.583-0.101-2.153-0.052c-6.315-1.011-10.685-2.873-9.581-4.34c0.281-0.373,0.575-0.615,0.87-0.773 C342.608,255.326,339.972,254.135,340.282,252.513z"/></g><g id="change2_2"><path fill="#ed9f86" d="M349.208,199.16c0.729,1.732,1.95,3.902,3.239,3.026c2.051-1.393-1.883-9.893-1.883-9.893 s2.825,5.375,4.277,4.341c1.186-0.844-1.051-12.547-5.147-17.329l-11.934-56.53l-17.765,18.502l12.901,36.229l1.773,6.095 c-1.294,3.462-2.713,8.055-2.165,10.372c0.944,3.99,4.257-0.267,4.497-2.354l0.296,1.018l0.021-0.02 c1.009,3.249,4.228,13.108,5.929,12.361c2.035-0.893,0.546-7.38,0.546-7.38s2.157,8.263,5.13,8.053 C350.971,205.505,350.008,201.588,349.208,199.16z"/></g><g id="change2_3"><path fill="#ed9f86" d="M59.407,253.383c0,0-9.859,33.117-13.398,35.644c-3.539,2.528-13.145,0-13.145,0l4.298-41.459l21.348,4.55"/></g><g id="change2_4"><path fill="#ed9f86" d="M86.204,253.383l-11.539,36.15c0,0-9.661,8.294-12.255,0c-0.475-1.517,0-36.15,0-36.15H86.204z"/></g></g><g fill="#0c9390" id="change1_4"><path fill="inherit" d="M466.878,238.53c-0.372-7.214-1.189-13.715-2.326-19.561c11.357-0.746,20.257-5.893,20.257-5.893 c-9.196-34.381-46.016-44.281-46.016-44.281s-0.024,1.253,0.006,3.352c-1.423-1.008-2.279-1.445-2.279-1.445l-14.555,2.863 c-0.072-0.889-0.124-1.386-0.124-1.386s-33.305,6.517-42.5,40.898c0,0,9.768,5.652,21.897,5.97v0.001 c-0.043,1.837-0.061,3.669-0.058,5.483c-0.338,7.096-1.856,19.63-8.051,28.757c-8.306,7.722-19.287,20.509-18.582,33.65 c0,0,9.612-8.049,23.947-9.325c1.432-0.127,2.61-0.55,3.577-1.201c20.611-4.569,23.745,15.221,23.745,15.221 c49.267-8.412,41.278-53.277,41.278-53.277C467.023,238.415,466.951,238.47,466.878,238.53z"/><path fill="inherit" d="M96.885,204.467l-7.015-38.488l20.858-1.327c0,0,8.909-24.269,4.548-31.852c0,0-38.868,7.205-43.228,7.773 c-4.361,0.569-18.606-0.783-18.606-0.783s-20.831-3.008-29.931,16.141s-10.428,23.7-10.428,23.7l22.562,2.844l-3.982,20.856 l-23.321,44.24c80.895,17.443,108.135,0,108.135,0C110.348,223.806,96.885,204.467,96.885,204.467z"/></g><g id="change2_5"><path fill="#ed9f86" d="M258.827,101.026c0,0-38.245-13.627-38.587-14.612c-0.289-0.833-3.552-9.311-10.343-7.838 c-2.434,2.989-3.416,5.927-3.563,8.63c0.124-1.234-1.515-4.232-3.67-2.78c-2.155,1.452,3.711,15.028,9.157,15.775 c5.89,3.442,51.204,24.696,51.204,24.696L258.827,101.026z"/></g><g id="change4_1"><path fill="#bd4e27" d="M308.307,102.213c0,0,20.831-3.009,29.931,16.141s10.428,23.7,10.428,23.7l-19.529,2.086l5.797,43.334 c0,0-27.243,7.932-69.523-3.254l6.468-55.816l-20.858-1.327c0,0-8.909-24.269-4.548-31.853c0,0,38.868,7.205,43.228,7.774 S308.307,102.213,308.307,102.213z"/></g><g fill="#ed9f86" id="change2_6"><path fill="inherit" d="M423.505,95.431c18.99,19.877,47.745,35.112,47.745,35.112c3.172-1.982,7.95-3.558,12.757,0.183 c8.285,6.448,1.553,21.582-9.11,17.156c0,0-11.19,20.011-36.893,24.896c-0.103,1.316-0.219,2.696-0.349,4.102 c-0.697,7.554-8.893,12.622-15.902,9.802c-4.798-1.93-5.014-9.209-4.673-13.611c-15.227-2.83-25.897-13.645-28.764-29.58 c-1.303-7.245-2.013-15.722-0.96-23.616C401.557,116.407,423.505,95.431,423.505,95.431z"/><path fill="inherit" d="M340.287,57.808c-4.054-3.053-8.025-2.097-10.886-0.502c-2.751-16.428-8.305-16.342-10.328-17.293 c-1.556-0.732-23.643,1.723-33.741,2.894c-2.057,0.238-3.507-1.966-2.475-3.761l3.605-6.27 c-8.848,1.011-35.441,14.277-35.441,14.277s0.552,8.886,0.446,12.857c-0.106,3.971-0.746,36.983,33.002,38.297 c1.065,0.041,2.109,0.055,3.135,0.044c0.024,4.432,0.851,11.457,5.7,12.988c7.205,2.275,14.988-3.405,15.105-10.991 c0.034-2.193,0.039-4.316,0.03-6.236c16.532-7.042,23.713-20.377,23.713-20.377C342.033,77.653,348.008,63.623,340.287,57.808z"/><path fill="inherit" d="M464.552,218.968c-0.164,0.017-0.31,0.023-0.468,0.037c0.16,9.572-2.892,23.627-20.954,28.389 c0,0-8.965-5.121-9.824-1.55c-0.393,1.636,0.263,2.753,1.087,3.489c-2.997-1.572-8.181-3.979-9.686-2.692 c-1.478,1.263,1.587,3.323,3.663,4.494c-2.233-1.068-5.969-2.466-6.763-0.342c-1.01,2.701,4.329,3.968,5.642,4.237 c-1.163-0.21-5.537-0.833-5.915,1.59c-0.254,1.631,2.421,2.732,4.696,3.367c-0.289,0.168-0.575,0.42-0.843,0.802 c-1.053,1.504,3.376,3.216,9.722,4.013c0.568-0.068,1.279-0.078,2.154-0.02c7.297,0.481,13.107-0.917,16.929-2.319 c12.319-5.226,34.934-19.336,29.183-48.775C480.553,215.07,474.593,217.95,464.552,218.968z"/><path fill="inherit" d="M110.728,84.728c0,0-25.977-8.808-29.39-31.371c0,0-1.757,14.015-21.235,26.354 c-9.01,5.708-15.254,9.614-19.367,12.167l-0.111,0.173c-2.411,1.707-4.639,3.067-6.571,3.932 c-2.834-2.089-7.653-4.317-12.591-0.598c-7.721,5.814-1.746,19.845,8.135,15.926c0,0,7.181,13.335,23.713,20.377 c-0.009,1.92-0.004,4.043,0.03,6.236c0.117,7.586,7.9,13.266,15.105,10.991c4.849-1.531,5.677-8.556,5.7-12.988 c1.026,0.011,2.07-0.003,3.135-0.044c33.748-1.314,33.108-34.326,33.002-38.297C110.175,93.614,110.728,84.728,110.728,84.728z"/><path fill="inherit" d="M24.687,214.341L36.75,182.31l-3.483-0.572l-16.952-1.896l-8.06,36.208 c-4.007,4.538-6.195,15.644-5.035,16.445c1.42,0.981,4.184-4.119,4.184-4.119s-3.848,8.067-1.842,9.388 c1.261,0.831,2.455-1.228,3.169-2.872c-0.782,2.304-1.724,6.022,0.277,6.159c2.908,0.198,5.018-7.643,5.018-7.643 s-1.456,6.156,0.534,7.004c1.665,0.709,4.813-8.647,5.8-11.73l0.02,0.019l0.29-0.966c0.235,1.981,3.476,6.02,4.399,2.234 c0.537-2.199-0.852-6.557-2.117-9.843L24.687,214.341z"/><path fill="inherit" d="M144.855,110.424c-6.895-0.865-9.394,7.868-9.608,8.724c-0.253,1.011-19.971,13.651-19.971,13.651 l-2.069,24.15c0,0,26.084-20.863,31.646-24.813C144.853,132.135,154.887,120.727,144.855,110.424z"/></g><g><g id="change4_5"><path fill="#bd4e27" d="M316.042,286.743c0,0-2.306,7.846-9.637,8.099c-7.331,0.253-11.882,1.517-11.629,11.123h39.184 l-4.561-19.222C329.399,286.743,328.965,289.261,316.042,286.743z"/></g><g id="change3_20"><path fill="#2d1f21" d="M294.663,305.966c-0.149-1.247-0.055-2.501,0.143-3.762c0.225-1.254,0.638-2.501,1.286-3.666 c0.612-1.165,1.443-2.385,2.698-3.02c1.216-0.68,2.664-0.836,3.977-0.515l0.043,0.223c-1.041,0.91-1.987,1.44-2.771,2.194 c-0.762,0.715-1.742,1.215-2.428,2.122c-0.686,0.877-1.258,1.889-1.711,2.977c-0.466,1.084-0.795,2.253-1.008,3.446 L294.663,305.966z"/></g><g fill="#bd4e27" id="change4_2"><path fill="inherit" d="M287.434,24.389c-1.956,2.046-4.213,3.792-6.567,5.332c-2.35,1.552-4.82,2.899-7.34,4.114 c-1.291,0.552-2.565,1.124-3.9,1.558c-1.303,0.502-2.608,0.984-3.883,1.562c-0.63,0.308-1.278,0.574-1.921,0.86 c-0.638,0.302-1.287,0.577-1.92,0.911c-1.289,0.599-2.588,1.203-3.859,2.003l0.071,0.295c1.482,0.043,2.955-0.049,4.405-0.256 c1.433-0.266,2.888-0.508,4.275-0.967c2.828-0.793,5.353-2.365,7.869-3.821c1.241-0.77,2.492-1.515,3.672-2.372 c0.594-0.421,1.187-0.841,1.752-1.302c0.57-0.453,1.151-0.887,1.694-1.373c0.546-0.481,1.098-0.95,1.614-1.463 c0.53-0.494,1.043-1.007,1.538-1.537c0.997-1.051,1.94-2.148,2.745-3.363L287.434,24.389z"/><path fill="inherit" d="M273.212,24.312c-1.279,1.338-2.756,2.48-4.295,3.487c-1.537,1.015-3.152,1.896-4.801,2.69 c-0.844,0.361-1.678,0.735-2.551,1.019c-0.852,0.329-1.706,0.644-2.539,1.021c-0.412,0.202-0.836,0.375-1.257,0.562 c-0.417,0.198-0.842,0.377-1.256,0.596c-0.843,0.392-1.692,0.787-2.524,1.31l0.047,0.193c0.969,0.028,1.933-0.032,2.881-0.167 c0.937-0.174,1.889-0.332,2.796-0.632c1.849-0.519,3.501-1.547,5.146-2.499c0.811-0.503,1.63-0.991,2.402-1.551 c0.389-0.275,0.776-0.55,1.146-0.852c0.373-0.296,0.753-0.58,1.108-0.898c0.357-0.315,0.718-0.621,1.056-0.957 c0.347-0.323,0.682-0.659,1.006-1.005c0.652-0.688,1.269-1.405,1.795-2.199L273.212,24.312z"/><path fill="inherit" d="M312.301,24.749c-1.956,2.046-4.213,3.792-6.567,5.332c-2.35,1.552-4.82,2.899-7.34,4.114 c-1.291,0.552-2.565,1.124-3.9,1.558c-1.303,0.502-2.608,0.984-3.883,1.562c-0.63,0.308-1.278,0.574-1.921,0.86 c-0.638,0.302-1.287,0.577-1.92,0.911c-1.289,0.599-2.588,1.203-3.859,2.003l0.071,0.295c1.482,0.043,2.955-0.049,4.405-0.256 c1.433-0.266,2.888-0.508,4.275-0.967c2.828-0.793,5.353-2.365,7.869-3.821c1.241-0.77,2.492-1.515,3.672-2.372 c0.594-0.421,1.187-0.841,1.752-1.302c0.57-0.453,1.151-0.887,1.694-1.373c0.546-0.481,1.098-0.95,1.614-1.463 c0.53-0.494,1.043-1.007,1.538-1.537c0.997-1.051,1.94-2.148,2.745-3.363L312.301,24.749z"/></g><g id="change4_6"><path fill="#bd4e27" d="M145.495 100.57H175.823V130.898H145.495z" transform="rotate(169.052 160.66 115.734)"/></g><g id="change4_7"><path fill="#bd4e27" d="M266.584 264.088H350.352V305.966H266.584z" transform="rotate(-180 308.468 285.026)"/></g><g id="change4_8"><path fill="#bd4e27" d="M173.145 222.358H215.02300000000002V264.236H173.145z" transform="rotate(-180 194.084 243.297)"/></g></g><g fill="#0c9390" id="change1_1"><path fill="inherit" d="M174.866 138.899H216.74400000000003V180.777H174.866z" transform="rotate(-180 195.805 159.838)"/><path fill="inherit" d="M153.899 264.088H195.777V305.966H153.899z" transform="rotate(-180 174.838 285.026)"/><path fill="inherit" d="M258.042 220.612L232.954 264.065 283.13 264.065z"/></g><g fill="#bd4e27"><g id="change4_3"><path fill="inherit" d="M73.997,53.336c-0.897,3.462-2.383,6.752-4.153,9.827c-1.762,3.086-3.838,5.969-6.1,8.677 c-1.221,1.283-2.365,2.622-3.707,3.777l-1.898,1.83c-0.653,0.589-1.283,1.203-1.909,1.823l-0.923,0.951 c-0.325,0.299-0.658,0.589-0.977,0.896c-0.635,0.62-1.289,1.219-1.91,1.869c-1.296,1.23-2.631,2.429-3.864,3.83l0.165,0.255 c1.712-0.675,3.394-1.457,4.985-2.382c0.789-0.473,1.544-0.997,2.319-1.5c0.385-0.254,0.757-0.526,1.137-0.789l1.082-0.862 c2.948-2.253,5.174-5.281,7.403-8.192c1.044-1.521,2.117-3.012,3.028-4.612c0.231-0.397,0.473-0.787,0.695-1.189L70,66.322 l0.63-1.222c0.198-0.413,0.378-0.836,0.568-1.253c1.455-3.357,2.665-6.836,3.1-10.469L73.997,53.336z"/><path fill="inherit" d="M54.57,65.268c-0.988,2.653-2.37,5.149-3.923,7.495c-1.545,2.355-3.281,4.569-5.115,6.681 c-0.967,1.017-1.912,2.047-2.966,2.973c-0.998,0.977-2.006,1.935-2.949,2.97c-0.457,0.533-0.947,1.033-1.425,1.549 c-0.466,0.53-0.954,1.039-1.404,1.596c-0.947,1.06-1.901,2.129-2.752,3.366l0.182,0.243c1.379-0.546,2.695-1.214,3.945-1.977 c1.211-0.811,2.451-1.609,3.544-2.579c2.284-1.847,3.981-4.289,5.717-6.622c0.835-1.198,1.69-2.377,2.435-3.631 c0.379-0.622,0.758-1.242,1.094-1.889c0.344-0.642,0.706-1.27,1.012-1.931c0.311-0.658,0.632-1.307,0.904-1.982 c0.292-0.664,0.56-1.338,0.805-2.02c0.5-1.36,0.932-2.74,1.191-4.174L54.57,65.268z"/><path fill="inherit" d="M87.441,57.018c0.846,2.476,2.071,4.792,3.417,7.042c0.686,1.118,1.434,2.198,2.202,3.269l1.22,1.555 c0.412,0.515,0.859,1.001,1.288,1.504c0.423,0.51,0.876,0.991,1.327,1.479c0.455,0.482,0.883,0.998,1.363,1.458 c0.957,0.924,1.967,1.801,3.11,2.493c2.234,1.446,4.736,2.501,7.393,2.979l0.137-0.271c-0.918-1.024-1.924-1.813-2.872-2.675 c-0.944-0.867-1.929-1.637-2.86-2.477c-1.885-1.627-3.999-2.983-5.864-4.684c-1.863-1.692-3.592-3.546-5.206-5.508 c-1.633-1.949-3.108-4.053-4.374-6.28L87.441,57.018z"/><path fill="inherit" d="M33.988,129.326c-1.22,2.016-2.625,3.914-4.196,5.637c-1.553,1.736-3.256,3.313-5.062,4.715 c-1.807,1.426-3.882,2.374-5.755,3.608c-0.48,0.295-0.944,0.628-1.429,0.926c-0.492,0.284-0.985,0.573-1.471,0.9 c-0.484,0.332-0.99,0.621-1.503,0.918c-0.506,0.32-1.02,0.638-1.528,1.032l0.074,0.294c0.626,0.048,1.246,0.02,1.874-0.006 l0.938-0.074c0.316-0.023,0.607-0.118,0.914-0.175c0.611-0.125,1.214-0.286,1.818-0.454c0.596-0.186,1.161-0.446,1.739-0.685 c1.169-0.46,2.186-1.204,3.187-1.937c0.933-0.832,1.872-1.636,2.734-2.516c1.771-1.706,3.341-3.594,4.673-5.622l0.95-1.548 c0.29-0.532,0.597-1.05,0.869-1.589c0.56-1.067,1.053-2.163,1.452-3.303L33.988,129.326z"/><path fill="inherit" d="M25.396,125.907c-0.922,1.251-1.897,2.455-2.962,3.555c-1.047,1.114-2.149,2.153-3.292,3.104 c-0.296,0.227-0.592,0.45-0.896,0.662c-0.308,0.206-0.631,0.388-0.942,0.581c-0.3,0.209-0.616,0.387-0.91,0.591 c-0.299,0.197-0.564,0.45-0.852,0.661c-1.11,0.948-2.235,1.806-3.451,3.091l0.086,0.291c1.738,0.316,3.482-0.076,4.989-0.819 c1.538-0.732,2.616-2.093,3.673-3.321c1.069-1.234,2.007-2.553,2.814-3.937c0.779-1.402,1.505-2.814,2.015-4.325L25.396,125.907z"/><path fill="inherit" d="M48.493,56.913c-1.205,2.701-2.64,5.296-4.273,7.734c-1.619,2.446-3.425,4.748-5.388,6.869 c-0.513,0.511-1.009,1.035-1.532,1.53l-1.638,1.403c-0.261,0.245-0.537,0.471-0.824,0.684c-0.276,0.225-0.559,0.442-0.829,0.674 c-0.545,0.457-1.056,0.958-1.629,1.377c-2.133,1.929-4.504,3.466-6.902,5.42l0.11,0.283c0.764-0.093,1.513-0.261,2.272-0.429 l1.131-0.287c0.362-0.129,0.714-0.281,1.074-0.423c0.721-0.281,1.427-0.605,2.133-0.932c0.671-0.381,1.332-0.786,1.992-1.197 c0.67-0.4,1.266-0.893,1.854-1.396c0.575-0.516,1.187-0.998,1.684-1.592l1.527-1.735c0.491-0.59,0.95-1.205,1.424-1.804 c0.493-0.584,0.918-1.218,1.358-1.84c0.441-0.62,0.881-1.24,1.269-1.893c0.811-1.283,1.537-2.613,2.229-3.953 c0.662-1.358,1.283-2.729,1.829-4.129c0.564-1.392,1.038-2.816,1.419-4.27L48.493,56.913z"/><path fill="inherit" d="M44.361,48.584c-0.514,1.606-1.365,3.029-2.447,4.236c-0.532,0.612-1.102,1.177-1.723,1.701 c-0.606,0.547-1.247,1.055-1.903,1.54c-0.653,0.489-1.364,0.904-2.077,1.303c-0.709,0.406-1.376,0.862-2.017,1.375 c-0.639,0.517-1.268,1.061-1.882,1.659c-0.619,0.59-1.229,1.219-1.79,1.987l0.136,0.271c0.955,0.007,1.844-0.159,2.703-0.4 c0.865-0.232,1.686-0.568,2.475-0.966c1.607-0.769,2.817-2.146,4.051-3.404c1.235-1.256,2.392-2.628,3.274-4.202 c0.846-1.574,1.458-3.303,1.501-5.052L44.361,48.584z"/></g><g id="change4_9"><path fill="inherit" d="M75.556,286.743c0,0,2.306,7.846,9.637,8.099c7.331,0.253,11.881,1.517,11.629,11.123H57.638l4.561-19.222 C62.199,286.743,62.633,289.261,75.556,286.743z"/></g><g id="change4_10"><path fill="inherit" d="M46.958,286.743c0,0,2.306,7.846,9.637,8.099c7.331,0.253,11.881,1.517,11.629,11.123H29.04l4.561-19.222 C33.601,286.743,34.035,289.261,46.958,286.743z"/></g></g><g fill="#2d1f21"><g id="change3_5"><path fill="inherit" d="M374.919,164.08l2.928,7.481c0.012,0.031,0.012,0.062,0.022,0.094c0.033-0.003,0.061-0.015,0.095-0.017 l8.028-0.284c1.595-0.056,2.589,1.711,1.713,3.045l-3.916,5.961c-0.756,1.15-2.429,1.188-3.236,0.074l-4.112-5.678 c-0.12-0.166-0.207-0.341-0.268-0.519c-0.188,0.014-0.383,0.004-0.583-0.04l-6.844-1.519c-1.343-0.298-1.973-1.849-1.217-2.999 l3.916-5.961C372.321,162.383,374.338,162.593,374.919,164.08z"/><path fill="inherit" d="M482.528,164.08l-2.928,7.481c-0.012,0.031-0.012,0.062-0.022,0.094c-0.033-0.003-0.061-0.015-0.095-0.017 l-8.028-0.284c-1.595-0.056-2.589,1.711-1.713,3.045l3.916,5.961c0.756,1.15,2.429,1.188,3.236,0.074l4.112-5.678 c0.12-0.166,0.207-0.341,0.268-0.519c0.188,0.014,0.383,0.004,0.583-0.04l6.844-1.519c1.343-0.298,1.973-1.849,1.217-2.999 l-3.916-5.961C485.126,162.383,483.109,162.593,482.528,164.08z"/><path fill="inherit" d="M422.945,206.894l3.572-11.322l4.398,11.218l13.814-0.181l-8.881,11.691l3.844,9.515l-12.814-4.615 l-7.859,8.605l-0.167-12.752l-10.984-5.171C407.869,213.883,421.387,209.16,422.945,206.894z"/></g><g id="change3_3"><path fill="inherit" d="M346.351 225.29L376.281 263.27 328.424 270.201z"/></g></g><g><g id="change3_12"><path fill="#2d1f21" d="M87.677,207.468c1.207,3.601,2.471,7.179,3.704,10.77l3.81,10.728c1.284,3.571,2.384,7.213,3.916,10.687 c1.519,3.479,3.121,6.926,5.082,10.233l0.212-0.083c-0.791-3.763-1.941-7.385-3.174-10.976c-1.22-3.595-2.872-7.023-4.34-10.522 l-4.446-10.481c-1.519-3.479-3.007-6.97-4.552-10.439L87.677,207.468z"/></g><g id="change3_13"><path fill="#2d1f21" d="M78.514,209.046c0.308,3.785,0.678,7.562,1.015,11.343l1.127,11.329c0.391,3.774,0.586,7.574,1.24,11.314 c0.64,3.742,1.37,7.472,2.481,11.153l0.226-0.029c0.134-3.842-0.114-7.635-0.451-11.417c-0.323-3.783-1.105-7.507-1.692-11.255 l-1.804-11.241c-0.641-3.742-1.248-7.488-1.917-11.226L78.514,209.046z"/></g><g id="change3_14"><path fill="#2d1f21" d="M66.749,208.891c-0.451,3.771-0.841,7.546-1.263,11.318l-1.15,11.326 c-0.368,3.777-0.933,7.539-1.037,11.335c-0.117,3.795-0.145,7.595,0.212,11.424l0.227,0.016c0.896-3.739,1.408-7.505,1.831-11.278 c0.436-3.772,0.411-7.576,0.583-11.367l0.469-11.375c0.117-3.794,0.267-7.587,0.356-11.383L66.749,208.891z"/></g><g id="change3_15"><path fill="#2d1f21" d="M53.675,208.768c-1.072,3.643-2.085,7.301-3.13,10.95l-3.019,10.977c-0.992,3.663-2.175,7.279-2.908,11.004 c-0.747,3.722-1.407,7.465-1.692,11.3l0.221,0.054c1.506-3.538,2.638-7.166,3.682-10.816c1.058-3.647,1.666-7.402,2.466-11.111 l2.356-11.138c0.747-3.722,1.526-7.436,2.245-11.165L53.675,208.768z"/></g><g id="change3_16"><path fill="#2d1f21" d="M42.199,208.031c-1.985,3.238-3.915,6.505-5.875,9.756l-5.775,9.811c-1.912,3.278-3.996,6.46-5.676,9.866 c-1.691,3.399-3.303,6.841-4.579,10.468l0.199,0.109c2.376-3.023,4.414-6.231,6.374-9.483c1.972-3.245,3.538-6.712,5.277-10.085 l5.177-10.14c1.691-3.399,3.411-6.782,5.077-10.194L42.199,208.031z"/></g><g id="change3_17"><path fill="#2d1f21" d="M398.495,276.095c-1.961,1.966-3.444,4.268-4.581,6.721c-0.544,1.235-0.974,2.519-1.265,3.839 c-0.276,1.321-0.411,2.674-0.391,4.036c0.006,1.363,0.194,2.731,0.498,4.086c0.304,1.36,0.931,2.646,1.699,3.839 c0.415,0.582,0.82,1.167,1.317,1.692c0.475,0.539,0.98,1.049,1.533,1.521c0.518,0.495,1.144,0.901,1.72,1.331 c0.616,0.398,1.255,0.766,1.92,1.093l0.213-0.19c-0.338-0.609-0.738-1.149-1.096-1.711l-0.534-0.834 c-0.18-0.274-0.369-0.539-0.524-0.822c-0.163-0.279-0.328-0.554-0.505-0.82c-0.175-0.267-0.31-0.554-0.466-0.827 c-0.326-0.541-0.592-1.101-0.879-1.648c-0.522-1.112-1.072-2.198-1.506-3.332c-0.464-1.125-0.806-2.301-0.968-3.508 c-0.285-2.413-0.037-4.909,0.677-7.333c0.696-2.429,1.847-4.799,3.375-6.967L398.495,276.095z"/></g><g><g fill="#2d1f21" id="change3_4"><path fill="inherit" d="M278.999,145.729c2.56-0.406,5.091-0.976,7.566-1.702c2.482-0.696,4.911-1.553,7.264-2.553 c2.375-0.969,4.535-2.331,6.815-3.423c2.301-1.095,4.448-2.406,6.841-3.589l0.146,0.167c-0.397,0.535-0.836,1.033-1.276,1.537 l-0.682,0.735l-0.743,0.663c-0.496,0.444-1.012,0.869-1.534,1.284l-1.648,1.127c-2.245,1.446-4.78,2.344-7.287,3.156 c-2.509,0.822-5.061,1.482-7.638,1.973c-2.587,0.446-5.186,0.789-7.807,0.845L278.999,145.729z"/><path fill="inherit" d="M286.463,151.106c2.169-0.396,4.31-0.918,6.384-1.593c2.078-0.657,4.099-1.435,6.038-2.334 c1.936-0.938,3.594-2.249,5.428-3.221c1.817-1.042,3.503-2.191,5.503-3.403l0.235,0.179c-0.731,2.248-2.255,4.151-4.044,5.644 c-1.818,1.487-4.071,2.236-6.213,2.978c-2.162,0.723-4.369,1.246-6.596,1.585c-2.233,0.305-4.465,0.525-6.715,0.457 L286.463,151.106z"/></g><g fill="#2d1f21" id="change3_19"><path fill="inherit" d="M82.75,183.305c-2.56-0.406-5.091-0.976-7.566-1.702c-2.482-0.696-4.911-1.553-7.264-2.553 c-2.375-0.969-4.535-2.331-6.815-3.423c-2.301-1.095-4.448-2.406-6.841-3.589l-0.146,0.167c0.397,0.535,0.836,1.033,1.276,1.537 l0.682,0.735l0.743,0.663c0.496,0.444,1.012,0.869,1.534,1.284l1.648,1.127c2.245,1.446,4.78,2.344,7.287,3.156 c2.51,0.822,5.061,1.482,7.638,1.973c2.587,0.446,5.186,0.789,7.807,0.845L82.75,183.305z"/><path fill="inherit" d="M75.286,188.683c-2.169-0.396-4.31-0.918-6.384-1.593c-2.078-0.657-4.099-1.435-6.038-2.334 c-1.936-0.938-3.594-2.249-5.428-3.221c-1.817-1.042-3.503-2.191-5.503-3.403l-0.235,0.179c0.731,2.248,2.255,4.151,4.044,5.644 c1.818,1.487,4.071,2.236,6.213,2.978c2.162,0.723,4.369,1.246,6.596,1.585c2.233,0.305,4.466,0.525,6.715,0.457L75.286,188.683z"/></g><g><g id="change3_23"><path fill="#2d1f21" d="M57.096,133.114c-1.534-0.412-3.32-1.085-4.248-1.627L53,136.332l0.31,2.345c0,0,8.66,0.954,20.924-1.153 v-0.869v-0.727c-0.225-0.005-0.749-0.01-0.749-0.012C67.043,135.846,62.042,134.776,57.096,133.114z"/></g><g id="change3_24"><ellipse rx="3.599" ry="5.383" fill="#2d1f21" cx="62.802" cy="98.493"/></g><g id="change3_25"><ellipse rx="3.599" ry="5.383" fill="#2d1f21" cx="93.388" cy="98.493"/></g><g id="change3_26"><path fill="#2d1f21" d="M54.637,88.821c0.775-0.912,1.733-1.643,2.769-2.283c1.047-0.62,2.216-1.074,3.448-1.321 c0.611-0.153,1.244-0.228,1.884-0.309c0.64-0.026,1.291,0.006,1.9,0.22c1.229,0.363,2.33,1.103,3.098,2.157l-0.105,0.202 c-0.677,0.067-1.244-0.011-1.811-0.032c-0.571-0.003-1.092-0.09-1.621-0.094c-1.032-0.057-2.039-0.371-3.118-0.338 c-1.063,0.034-2.148,0.217-3.209,0.552c-1.068,0.318-2.106,0.808-3.08,1.411L54.637,88.821z"/></g><g id="change3_27"><path fill="#2d1f21" d="M85.709,88.821c0.775-0.912,1.733-1.643,2.769-2.283c1.047-0.62,2.216-1.074,3.448-1.321 c0.611-0.153,1.244-0.228,1.884-0.309c0.64-0.026,1.291,0.006,1.9,0.22c1.229,0.363,2.33,1.103,3.098,2.157l-0.105,0.202 c-0.677,0.067-1.244-0.011-1.811-0.032c-0.571-0.003-1.092-0.09-1.621-0.094c-1.032-0.057-2.039-0.371-3.118-0.338 c-1.063,0.034-2.148,0.217-3.209,0.552c-1.068,0.318-2.106,0.808-3.08,1.411L85.709,88.821z"/></g><g id="change3_28"><path fill="#2d1f21" d="M77.225,103.8c0.832-1.131,1.823-2.143,3.122-2.914c0.652-0.358,1.451-0.669,2.385-0.539 c0.449,0.082,0.913,0.249,1.278,0.531c0.209,0.123,0.364,0.278,0.507,0.442c0.141,0.162,0.318,0.325,0.424,0.496 c0.462,0.642,0.902,1.462,0.949,2.466c0.05,1.013-0.475,1.995-1.129,2.566c-0.659,0.591-1.404,0.932-2.155,1.116 c-0.748,0.185-1.523,0.231-2.275,0.048l-0.042-0.224c0.596-0.451,1.13-0.854,1.619-1.264c0.48-0.416,0.91-0.831,1.199-1.237 c0.293-0.413,0.445-0.727,0.533-1.095c0.091-0.372,0.031-0.897-0.241-1.409c-0.256-0.457-0.544-0.814-0.975-0.954 c-0.426-0.169-1.031-0.104-1.617,0.099c-1.201,0.381-2.357,1.174-3.413,2.026L77.225,103.8z"/></g><g id="change3_36"><path fill="#2d1f21" d="M82.75,114.829c-1.238,0.211-2.504,0.213-3.764,0.164c-1.263-0.047-2.522-0.222-3.766-0.475 c-1.237-0.278-2.474-0.601-3.664-1.061c-1.198-0.439-2.355-0.989-3.484-1.59l1.072-0.467c-0.306,1.657-0.224,3.538,0.457,5.023 c0.698,1.483,2.145,2.481,3.849,2.803c1.67,0.392,3.445-0.042,5.028-0.893C80.067,117.462,81.462,116.199,82.75,114.829z M82.75,114.829c-0.989,1.599-2.239,3.078-3.824,4.223c-1.579,1.111-3.654,1.813-5.702,1.463 c-1.003-0.161-2.001-0.476-2.887-1.073c-0.887-0.577-1.616-1.426-2.078-2.374c-0.465-0.951-0.691-1.975-0.754-2.983 c-0.059-1.02,0.005-1.985,0.219-3.019l0.198-0.956l0.874,0.489c1.057,0.592,2.121,1.184,3.247,1.648 c1.111,0.497,2.261,0.914,3.433,1.265c1.166,0.38,2.369,0.635,3.579,0.882C80.268,114.628,81.5,114.77,82.75,114.829z"/></g><g><g id="change3_6"><ellipse rx="3.599" ry="5.383" fill="#2d1f21" cx="298.067" transform="rotate(-7.297 298.072 61.28)" cy="61.334"/></g><g id="change3_7"><ellipse rx="3.599" ry="5.383" fill="#2d1f21" cx="267.729" transform="rotate(-7.297 267.735 65.175)" cy="65.224"/></g><g id="change3_8"><path fill="#2d1f21" d="M304.934,50.702c-0.885-0.806-1.928-1.409-3.037-1.912c-1.118-0.482-2.335-0.784-3.588-0.871 c-0.626-0.074-1.263-0.068-1.908-0.067c-0.638,0.055-1.28,0.171-1.857,0.46c-1.173,0.516-2.171,1.39-2.799,2.534l0.13,0.187 c0.68-0.019,1.233-0.169,1.792-0.263c0.566-0.075,1.072-0.228,1.596-0.299c1.016-0.188,1.976-0.628,3.049-0.732 c1.059-0.101,2.159-0.058,3.253,0.139c1.1,0.179,2.192,0.534,3.235,1.008L304.934,50.702z"/></g><g id="change3_9"><path fill="#2d1f21" d="M274.115,54.654c-0.885-0.806-1.928-1.409-3.037-1.912c-1.118-0.482-2.335-0.784-3.588-0.871 c-0.626-0.074-1.263-0.068-1.908-0.067c-0.638,0.055-1.28,0.171-1.857,0.46c-1.173,0.516-2.171,1.39-2.799,2.534l0.13,0.187 c0.68-0.019,1.233-0.169,1.792-0.263c0.566-0.075,1.072-0.228,1.596-0.299c1.016-0.188,1.976-0.628,3.049-0.732 c1.059-0.101,2.159-0.058,3.253,0.139c1.1,0.179,2.192,0.534,3.235,1.008L274.115,54.654z"/></g><g id="change3_10"><path fill="#2d1f21" d="M284.436,68.432c-0.969-1.016-2.081-1.893-3.468-2.493c-0.692-0.272-1.524-0.479-2.435-0.231 c-0.435,0.139-0.873,0.363-1.2,0.689c-0.191,0.149-0.326,0.322-0.447,0.503c-0.119,0.178-0.274,0.363-0.357,0.546 c-0.377,0.696-0.708,1.564-0.628,2.566c0.08,1.011,0.725,1.918,1.446,2.402c0.729,0.502,1.511,0.746,2.28,0.832 c0.766,0.089,1.54,0.036,2.263-0.242l0.013-0.227c-0.648-0.371-1.23-0.703-1.767-1.048c-0.529-0.352-1.008-0.709-1.346-1.075 c-0.343-0.372-0.534-0.664-0.668-1.018c-0.138-0.357-0.145-0.886,0.06-1.428c0.196-0.485,0.436-0.877,0.845-1.07 c0.401-0.222,1.01-0.234,1.616-0.108c1.24,0.225,2.487,0.864,3.643,1.575L284.436,68.432z"/></g><g id="change3_22"><path fill="#2d1f21" d="M280.358,80.074c1.232-0.217,2.436-0.515,3.61-0.901c1.169-0.398,2.329-0.804,3.438-1.33 c1.118-0.498,2.205-1.057,3.244-1.692c1.058-0.603,2.038-1.326,3.011-2.047l0.805-0.596l0.318,0.923 c0.344,0.998,0.53,1.947,0.601,2.966c0.066,1.007-0.028,2.052-0.368,3.054c-0.338,1-0.953,1.934-1.759,2.619 c-0.804,0.705-1.753,1.145-2.727,1.431c-1.987,0.608-4.134,0.175-5.842-0.726C282.97,82.843,281.543,81.535,280.358,80.074z M280.358,80.074c1.452,1.195,2.996,2.271,4.683,2.932c1.678,0.643,3.494,0.848,5.1,0.246c1.649-0.536,2.957-1.711,3.461-3.27 c0.487-1.559,0.329-3.436-0.185-5.04l1.123,0.326c-1.044,0.74-2.12,1.433-3.253,2.02c-1.122,0.608-2.307,1.085-3.499,1.519 c-1.202,0.409-2.428,0.743-3.675,0.95C282.869,79.967,281.613,80.126,280.358,80.074z"/></g><g fill="#2d1f21"><g id="change3_1"><path fill="inherit" d="M305.284,101.462c-3.53,0.274-9.789,0.406-17.579-0.932l-0.103-2.176 c-0.118-0.458,15.906-1.367,20.837-4.242l0,6.987C308.439,101.1,307.312,101.305,305.284,101.462"/></g><g><g id="change3_21"><path fill="inherit" d="M417.599,173.17c1.646,0.284,3.343,0.478,5.089,0.574c5.589,0.307,10.685-0.085,15.313-0.964 l-0.373,4.854c0,0-8.563,0.884-20.629-2.156l0.064-2.177C417.053,173.248,417.251,173.207,417.599,173.17z"/></g><g><g id="change3_29"><ellipse rx="5.383" ry="3.599" fill="inherit" cx="437.252" transform="rotate(-89.089 437.24 136.832)" cy="136.836"/></g><g id="change3_30"><ellipse rx="5.383" ry="3.599" fill="inherit" cx="406.67" transform="rotate(-89.089 406.659 136.346)" cy="136.349"/></g><g id="change3_31"><path fill="inherit" d="M431.026,148.039c-1.612,1.091-3.17,2.079-4.776,2.827c-1.597,0.751-3.225,1.248-4.826,1.277 c-1.593,0.017-3.181-0.39-4.7-1.233c-1.536-0.81-2.985-1.959-4.518-3.171c0.666,1.841,1.808,3.506,3.38,4.837 c1.549,1.339,3.713,2.18,5.893,2.132c2.187-0.045,4.21-0.924,5.818-2.125C428.899,151.359,430.219,149.833,431.026,148.039z"/></g><g id="change3_32"><path fill="inherit" d="M445.569,127.295c-0.761-0.924-1.707-1.67-2.733-2.327c-1.037-0.637-2.199-1.109-3.426-1.375 c-0.609-0.162-1.24-0.248-1.879-0.339c-0.64-0.036-1.291-0.014-1.904,0.19c-1.234,0.344-2.347,1.065-3.132,2.108l0.101,0.204 c0.675,0.078,1.244,0.009,1.811-0.004c0.571,0.006,1.094-0.072,1.622-0.068c1.033-0.041,2.045-0.339,3.123-0.289 c1.062,0.051,2.145,0.251,3.2,0.603c1.063,0.335,2.093,0.842,3.057,1.46L445.569,127.295z"/></g><g id="change3_33"><path fill="inherit" d="M414.501,126.801c-0.761-0.924-1.707-1.67-2.733-2.327c-1.037-0.637-2.199-1.109-3.427-1.375 c-0.609-0.162-1.24-0.248-1.879-0.339c-0.639-0.036-1.291-0.014-1.904,0.19c-1.234,0.344-2.347,1.065-3.132,2.108 l0.101,0.204c0.675,0.078,1.244,0.009,1.811-0.004c0.571,0.006,1.094-0.072,1.622-0.068c1.033-0.041,2.045-0.339,3.123-0.289 c1.062,0.051,2.145,0.251,3.2,0.603c1.063,0.335,2.093,0.842,3.057,1.46L414.501,126.801z"/></g><g id="change3_34"><path fill="inherit" d="M423.505,141.924c-0.814-1.144-1.789-2.171-3.076-2.963c-0.646-0.368-1.44-0.692-2.376-0.577 c-0.45,0.075-0.916,0.234-1.286,0.511c-0.211,0.12-0.368,0.272-0.514,0.434c-0.144,0.159-0.323,0.32-0.432,0.489 c-0.472,0.635-0.925,1.447-0.988,2.45c-0.066,1.012,0.444,2.002,1.088,2.584c0.649,0.601,1.389,0.954,2.137,1.15 c0.745,0.197,1.519,0.256,2.274,0.084l0.045-0.223c-0.588-0.46-1.117-0.872-1.599-1.29c-0.473-0.424-0.896-0.846-1.179-1.256 c-0.286-0.417-0.433-0.734-0.515-1.103c-0.085-0.373-0.016-0.897,0.263-1.405c0.263-0.452,0.557-0.805,0.99-0.938 c0.428-0.162,1.033-0.087,1.615,0.124c1.195,0.4,2.338,1.211,3.38,2.08L423.505,141.924z"/></g><g id="change3_11"><path fill="inherit" d="M400.977,91.456c-0.514,1.606-1.365,3.029-2.447,4.236c-0.532,0.612-1.102,1.177-1.723,1.701 c-0.606,0.547-1.247,1.055-1.903,1.54c-0.653,0.489-1.364,0.904-2.077,1.303c-0.709,0.406-1.376,0.862-2.017,1.375 c-0.638,0.517-1.268,1.061-1.882,1.659c-0.619,0.59-1.229,1.219-1.79,1.987l0.136,0.271c0.955,0.007,1.844-0.159,2.703-0.4 c0.865-0.232,1.686-0.568,2.475-0.966c1.607-0.769,2.817-2.146,4.051-3.404c1.234-1.256,2.392-2.628,3.274-4.202 c0.846-1.574,1.458-3.303,1.501-5.052L400.977,91.456z"/><path fill="inherit" d="M392.054,158.391c-0.347,1.085-0.922,2.045-1.652,2.86c-0.359,0.413-0.744,0.795-1.164,1.149 c-0.41,0.369-0.842,0.713-1.285,1.04c-0.441,0.33-0.921,0.61-1.403,0.88c-0.479,0.274-0.929,0.582-1.362,0.929 c-0.431,0.349-0.856,0.716-1.271,1.12c-0.418,0.398-0.83,0.823-1.209,1.342l0.092,0.183c0.645,0.005,1.245-0.107,1.825-0.27 c0.584-0.156,1.138-0.384,1.671-0.652c1.085-0.519,1.902-1.449,2.736-2.298c0.834-0.848,1.615-1.774,2.211-2.838 c0.571-1.063,0.985-2.23,1.013-3.411L392.054,158.391z"/><path fill="inherit" d="M387.28,154.71c-0.347,1.085-0.921,2.045-1.652,2.86c-0.359,0.413-0.744,0.795-1.164,1.149 c-0.41,0.369-0.842,0.713-1.285,1.04c-0.441,0.33-0.921,0.61-1.403,0.88c-0.479,0.274-0.929,0.582-1.362,0.929 c-0.431,0.349-0.856,0.716-1.271,1.12c-0.418,0.398-0.83,0.823-1.209,1.342l0.092,0.183c0.645,0.005,1.245-0.107,1.825-0.27 c0.584-0.156,1.138-0.384,1.671-0.652c1.085-0.519,1.902-1.449,2.736-2.298c0.834-0.848,1.615-1.774,2.211-2.838 c0.571-1.063,0.985-2.23,1.013-3.411L387.28,154.71z"/><path fill="inherit" d="M379.222,180.615c-0.347,1.085-0.921,2.045-1.652,2.86c-0.359,0.413-0.744,0.795-1.164,1.149 c-0.41,0.369-0.842,0.713-1.285,1.04c-0.441,0.33-0.921,0.61-1.403,0.88c-0.479,0.274-0.929,0.582-1.362,0.929 c-0.431,0.349-0.856,0.716-1.271,1.12c-0.418,0.398-0.83,0.823-1.209,1.342l0.092,0.183c0.645,0.005,1.245-0.107,1.825-0.27 c0.584-0.156,1.138-0.384,1.671-0.652c1.085-0.519,1.902-1.449,2.736-2.298c0.834-0.848,1.615-1.774,2.211-2.838 c0.571-1.063,0.985-2.23,1.013-3.411L379.222,180.615z"/><path fill="inherit" d="M374.448,176.934c-0.347,1.085-0.921,2.045-1.652,2.86c-0.359,0.413-0.744,0.795-1.164,1.149 c-0.41,0.369-0.842,0.713-1.285,1.04c-0.441,0.33-0.921,0.61-1.403,0.88c-0.479,0.274-0.929,0.582-1.362,0.929 c-0.431,0.349-0.856,0.716-1.271,1.12c-0.418,0.398-0.83,0.823-1.209,1.342l0.092,0.183c0.645,0.005,1.245-0.107,1.825-0.27 c0.584-0.156,1.138-0.384,1.671-0.652c1.085-0.519,1.902-1.449,2.736-2.298c0.834-0.848,1.615-1.774,2.211-2.838 c0.571-1.063,0.985-2.231,1.013-3.411L374.448,176.934z"/><path fill="inherit" d="M467.649,158.391c0.347,1.085,0.921,2.045,1.652,2.86c0.359,0.413,0.744,0.795,1.164,1.149 c0.41,0.369,0.842,0.713,1.285,1.04c0.441,0.33,0.921,0.61,1.403,0.88c0.479,0.274,0.929,0.582,1.362,0.929 c0.431,0.349,0.856,0.716,1.271,1.12c0.418,0.398,0.83,0.823,1.209,1.342l-0.092,0.183c-0.645,0.005-1.245-0.107-1.825-0.27 c-0.584-0.156-1.138-0.384-1.671-0.652c-1.085-0.519-1.902-1.449-2.736-2.298c-0.834-0.848-1.615-1.774-2.211-2.838 c-0.571-1.063-0.985-2.23-1.013-3.411L467.649,158.391z"/><path fill="inherit" d="M472.423,154.71c0.347,1.085,0.921,2.045,1.652,2.86c0.359,0.413,0.744,0.795,1.164,1.149 c0.409,0.369,0.842,0.713,1.285,1.04c0.441,0.33,0.921,0.61,1.403,0.88c0.479,0.274,0.929,0.582,1.362,0.929 c0.431,0.349,0.856,0.716,1.271,1.12c0.418,0.398,0.83,0.823,1.209,1.342l-0.092,0.183c-0.645,0.005-1.245-0.107-1.825-0.27 c-0.584-0.156-1.138-0.384-1.671-0.652c-1.085-0.519-1.902-1.449-2.736-2.298c-0.834-0.848-1.615-1.774-2.211-2.838 c-0.571-1.063-0.985-2.23-1.013-3.411L472.423,154.71z"/><path fill="inherit" d="M480.481,180.615c0.347,1.085,0.921,2.045,1.652,2.86c0.359,0.413,0.744,0.795,1.164,1.149 c0.41,0.369,0.842,0.713,1.285,1.04c0.441,0.33,0.921,0.61,1.403,0.88c0.479,0.274,0.929,0.582,1.362,0.929 c0.431,0.349,0.856,0.716,1.271,1.12c0.418,0.398,0.83,0.823,1.209,1.342l-0.092,0.183c-0.645,0.005-1.245-0.107-1.825-0.27 c-0.584-0.156-1.138-0.384-1.671-0.652c-1.085-0.519-1.902-1.449-2.736-2.298c-0.834-0.848-1.615-1.774-2.211-2.838 c-0.571-1.063-0.985-2.23-1.013-3.411L480.481,180.615z"/><path fill="inherit" d="M485.255,176.934c0.347,1.085,0.921,2.045,1.652,2.86c0.359,0.413,0.744,0.795,1.164,1.149 c0.41,0.369,0.842,0.713,1.285,1.04c0.441,0.33,0.921,0.61,1.403,0.88c0.479,0.274,0.929,0.582,1.362,0.929 c0.431,0.349,0.856,0.716,1.271,1.12c0.418,0.398,0.83,0.823,1.209,1.342l-0.092,0.183c-0.645,0.005-1.245-0.107-1.825-0.27 c-0.584-0.156-1.138-0.384-1.671-0.652c-1.085-0.519-1.902-1.449-2.736-2.298c-0.834-0.848-1.615-1.774-2.211-2.838 c-0.571-1.063-0.985-2.231-1.013-3.411L485.255,176.934z"/><path fill="inherit" d="M443.644,98.873c0.988,2.653,2.37,5.149,3.923,7.495c1.545,2.355,3.281,4.569,5.115,6.681 c0.967,1.017,1.912,2.047,2.966,2.973c0.998,0.977,2.006,1.935,2.949,2.97c0.457,0.533,0.947,1.033,1.425,1.549 c0.466,0.53,0.954,1.039,1.404,1.596c0.947,1.06,1.901,2.129,2.752,3.366l-0.182,0.243 c-1.379-0.546-2.695-1.214-3.945-1.977c-1.211-0.811-2.451-1.609-3.544-2.579c-2.284-1.847-3.981-4.289-5.717-6.622 c-0.835-1.198-1.69-2.377-2.435-3.631c-0.379-0.622-0.758-1.242-1.094-1.889c-0.344-0.642-0.706-1.27-1.012-1.931 c-0.311-0.658-0.632-1.307-0.904-1.982c-0.292-0.664-0.56-1.338-0.805-2.02c-0.5-1.36-0.932-2.74-1.191-4.174 L443.644,98.873z"/><path fill="inherit" d="M414.491,90.663c-1.139,3.334-2.789,6.452-4.602,9.483c-0.923,1.506-1.931,2.959-2.965,4.402 l-1.643,2.094c-0.555,0.693-1.156,1.348-1.734,2.025c-0.569,0.687-1.18,1.335-1.786,1.991 c-0.613,0.649-1.189,1.343-1.835,1.963c-1.288,1.245-2.648,2.425-4.188,3.356c-3.008,1.948-6.378,3.367-9.955,4.012 l-0.185-0.364c1.236-1.379,2.591-2.441,3.867-3.602c1.271-1.168,2.597-2.204,3.852-3.335 c2.538-2.191,5.385-4.017,7.896-6.307c2.508-2.278,4.837-4.774,7.011-7.416c2.199-2.625,4.185-5.457,5.889-8.456 L414.491,90.663z"/><path fill="inherit" d="M449.721,90.519c1.205,2.701,2.64,5.296,4.273,7.734c1.619,2.446,3.425,4.748,5.388,6.869 c0.513,0.511,1.009,1.035,1.532,1.53l1.638,1.403c0.261,0.245,0.537,0.471,0.824,0.684c0.276,0.225,0.559,0.442,0.829,0.674 c0.545,0.457,1.056,0.958,1.629,1.377c2.133,1.929,4.504,3.466,6.902,5.42l-0.11,0.283 c-0.764-0.093-1.513-0.261-2.272-0.429l-1.131-0.287c-0.362-0.129-0.714-0.281-1.074-0.423 c-0.721-0.281-1.427-0.605-2.133-0.932c-0.671-0.381-1.332-0.786-1.992-1.197c-0.67-0.4-1.266-0.893-1.854-1.396 c-0.575-0.516-1.187-0.998-1.684-1.592l-1.526-1.735c-0.491-0.59-0.95-1.205-1.424-1.804 c-0.493-0.584-0.918-1.218-1.358-1.84c-0.441-0.62-0.88-1.24-1.269-1.893c-0.811-1.283-1.537-2.613-2.229-3.953 c-0.662-1.358-1.283-2.729-1.829-4.129c-0.564-1.392-1.038-2.816-1.419-4.27L449.721,90.519z"/></g></g></g></g></g></g></g><g id="change3_18"><path fill="#2d1f21" d="M68.11,305.965c-0.213-1.193-0.542-2.362-1.008-3.446c-0.453-1.088-1.025-2.1-1.711-2.977 c-0.686-0.908-1.666-1.407-2.428-2.122c-0.784-0.754-1.73-1.284-2.771-2.194l0.043-0.223c1.312-0.321,2.761-0.164,3.977,0.515 c1.255,0.635,2.086,1.855,2.698,3.02c0.648,1.165,1.061,2.412,1.286,3.666c0.197,1.261,0.292,2.515,0.143,3.762L68.11,305.965z"/></g><g fill="#2d1f21" id="change3_35"><path fill="inherit" d="M420.441,260.173c-2.236-0.132-4.461-0.407-6.65-0.822c-2.193-0.388-4.354-0.919-6.463-1.579 c-2.124-0.632-4.097-1.62-6.15-2.365c-2.072-0.747-4.029-1.692-6.187-2.506l-0.111,0.156c0.387,0.426,0.806,0.817,1.228,1.213 l0.649,0.574l0.695,0.507c0.464,0.34,0.944,0.661,1.428,0.974l1.513,0.83c2.053,1.053,4.309,1.61,6.533,2.096 c2.228,0.494,4.477,0.845,6.735,1.049c2.262,0.164,4.527,0.239,6.785,0.065L420.441,260.173z"/><path fill="inherit" d="M414.48,265.43c-1.899-0.156-3.784-0.424-5.624-0.828c-1.842-0.389-3.646-0.887-5.39-1.494 c-1.744-0.643-3.281-1.629-4.941-2.309c-1.651-0.742-3.198-1.587-5.021-2.46l-0.187,0.174c0.819,1.871,2.291,3.378,3.956,4.511 c1.689,1.125,3.69,1.577,5.595,2.034c1.921,0.439,3.863,0.701,5.806,0.804c1.946,0.073,3.884,0.073,5.813-0.177L414.48,265.43z"/></g></g><g fill="#ed9f86" id="change2_9"><path fill="inherit" d="M149.168,118.705c-0.233-1.218,1.134-4.35,3.409-3.094s-2.366,15.298-7.724,16.524 C139.495,133.362,149.168,118.705,149.168,118.705"/><path fill="inherit" d="M363.744,243.916c0,0-0.274-0.008-0.719,0.003c-1.788,0.044-6.337,0.385-6.944,2.713 c-0.758,2.907,6.583,2.77,9.353,2.275c2.771-0.495,2.554-5.611,2.554-5.611"/></g></svg>