<svg width="446.2" height="406.8" viewBox="-76.8 216.6 446.2 406.8" xmlns="http://www.w3.org/2000/svg" xmlns:xlink="http://www.w3.org/1999/xlink" overflow="hidden"><g id="change1_6"><path d="M-61.2 573C-61.2 573 7.9 557.2 55.4 558.6 102.9 560 179.2 565.8 242.1 573 305 580.2 358.7 598.9 358.7 598.9 358.7 598.9 363.9 609 351.5 609 339.1 609 291.7 623.4 274.1 620.5 256.6 617.6 172.8 602.4 152.4 604.7 132 606.9 79.2 604.7 18.3 604.7-42.6 604.7-67.3 611.9-64.2 600.4-61.2 588.9-68.4 571.6-61.2 573Z" fill="#4E7837"/></g><g id="change2_1" fill="#B0F4F4"><path d="M272 226.4C284.5 220.5 297.5 216.6 311.6 230.8 320.8 240 322.5 251.5 322.5 251.5 322.5 251.5 362.9 244 362.6 266.7 362.4 287.3 318.3 282 318.3 282 318.3 282 309.8 307.5 282.2 304.8 256.3 302.3 260.7 287.5 260.7 287.5 260.7 287.5 225.2 289.7 224.2 273.6 222.2 239.6 258.7 243.7 258.7 243.7 258.7 243.7 259.5 232.3 272 226.4Z"/><path d="M-29.9 243.2C-18.1 237.6-5.9 234 7.5 247.4 16.2 256.1 17.8 266.9 17.8 266.9 17.8 266.9 55.9 259.8 55.7 281.2 55.5 300.6 13.9 295.6 13.9 295.6 13.9 295.6 5.9 319.7-20.2 317.1-44.6 314.7-40.5 300.7-40.5 300.7-40.5 300.7-74 302.8-74.9 287.6-76.8 255.5-42.3 259.4-42.3 259.4-42.3 259.4-41.7 248.8-29.9 243.2Z"/></g><g id="change3_20" fill="#FFFFFF"><path d="M278.5 228.8C291 222.9 304 219 318.1 233.2 327.3 242.4 329 253.9 329 253.9 329 253.9 369.4 246.4 369.1 269 368.9 289.6 324.8 284.3 324.8 284.3 324.8 284.3 316.3 309.8 288.7 307.1 262.8 304.6 267.2 289.8 267.2 289.8 267.2 289.8 231.7 292 230.7 275.9 228.7 241.9 265.2 246 265.2 246 265.2 246 266 234.7 278.5 228.8Z" opacity="0.55"/><path d="M-23.8 245.5C-12 239.9 0.2 236.3 13.6 249.7 22.3 258.4 23.9 269.2 23.9 269.2 23.9 269.2 62 262.1 61.8 283.5 61.6 302.9 20 297.9 20 297.9 20 297.9 12 322-14.1 319.4-38.5 317-34.4 303-34.4 303-34.4 303-67.9 305.1-68.8 289.9-70.7 257.8-36.2 261.7-36.2 261.7-36.2 261.7-35.6 251.1-23.8 245.5Z" opacity="0.55"/></g><g id="change4_1"><path d="M248.9 525.5C248.9 525.5 210.8 499 215.8 472.8 220.7 446.6 215.5 367.4 235.1 346.9 255.6 325.4 300.1 328.2 320.2 335.6 360.2 350.5 364.8 487.9 332.3 516.1 299.6 544.2 248.9 525.5 248.9 525.5" fill="#709E50"/></g><g id="change5_4"><path d="M347.2 486.4 347.1 486.1C346.1 490.5 344.1 495.3 342.2 499.6L342.3 499.3C339.7 504.8 336.6 509.8 332.4 513.9 328.2 517.9 323.4 521.3 317.9 524 318.1 523.9 318.1 523.8 318.3 523.7 317.8 524 317.3 524.4 316.7 524.7 316.5 524.7 316.8 524.5 317 524.4 314.6 525.3 310.1 527.4 308.5 527.6 307.8 527.9 307.6 528.1 308 528.1 298.9 530.9 288.7 532 279 531.8 278.5 531.7 278.5 531.6 278.6 531.5 270.3 531.6 261.7 530.1 253.5 527.9 253.1 528 254.3 528.3 253.5 528.2 256.1 529.1 258.4 529.1 260.8 529.8L260.5 529.9C262.3 530.3 260.9 529.7 262.7 530.2 263.4 530.4 262.5 530.3 262.8 530.4 266.6 531 270.5 531.7 274.2 531.7 275.1 532.1 278.3 532 279.7 532.3 280.7 532.2 281.7 532.3 282.1 532.1 295.5 532.4 309.4 529.8 321.5 523 322.9 522.2 324.2 521.1 325.7 520.2 327.1 519.2 328.6 518.2 330.1 517 331.5 515.9 333 514.7 334.4 513.3 335.7 511.9 337 510.5 338 508.8 338 508.8 338.1 508.8 338 508.8 339.4 506.7 341.1 503.5 342.5 500.9L343.4 498.5C347.3 490.5 349.7 481.7 351.5 472.9 353.2 464 354.3 455 354.9 446 355.6 435.8 355.7 426.1 355.2 416.6 354.7 407.1 353.6 397.6 351.4 387.8 351.5 387.8 351.5 387.7 351.6 388.2 350.4 382.6 349.5 377.4 347.9 372.2L348 372.2C345.9 365.8 343.6 359.2 340.5 352.9 337.4 346.7 333.4 340.8 328.3 336.8 325.3 334.2 321.6 332.2 317.6 331.1 313.6 329.9 309.5 329 305.3 328.3 296.9 327 288.2 326.7 279.9 327.3L279.9 327.2C273.2 327.7 266.7 328.5 260.3 330 253.9 331.5 247.6 333.7 241.8 337.1 238.8 338.8 235.9 340.8 233.3 343.2 230.7 345.6 228.5 348.4 226.8 351.6 225.1 354.7 223.8 358 222.8 361.4 221.7 364.7 220.9 368.1 220.1 371.5 217.7 379.8 217.7 391.1 216.5 399 214.4 415.4 214.8 431.4 214.5 447.9 214 455.5 213.6 463.1 212.4 470.5 211.5 478 213.6 485.4 216.7 492 220.2 498 224.2 504.7 229.6 510.3L229.5 510C231.1 512.4 234.2 514 235.1 515.7L234.9 515.5C235.8 516.8 237.9 517.3 238.3 518.1L238.6 518.1C240 519.2 238.6 518.4 239.6 519.3 240 519.6 239.9 519.2 240.7 520 240.5 520.7 244.2 522.7 243.8 523.3 243 522.7 244.8 524.5 243 523.2 243.4 523.7 245.9 525.5 245.9 525 246.3 524.9 247.4 525.3 246.1 524.1L245.7 524.1C245.4 523.5 245.4 523.7 245.3 523.5 243.4 522 243.4 521.6 242.2 520.4 242.2 520.4 242.2 520.4 242.2 520.4 241.1 519.9 240 518.7 239.4 518.1L239.2 517.8C239 517.2 236.8 516.4 237.7 516.5 234.1 513.4 230.2 509.4 226.7 505.4 226.1 505 224.1 502.2 224.6 503.3 224.1 502 221.8 498.8 221 497.5 221.1 497.5 221.1 497.6 221.2 497.8 220.6 496.5 220.1 495.8 219.6 495.2 219.1 494.6 218.6 493.9 218.2 492.6 217.5 492.5 216.2 488.2 215.2 487 215.2 486.7 215.2 486.5 215.3 486.6 214.5 484.4 213.8 481.9 213.4 479.6 213.1 477.2 212.9 474.9 213.1 473 212.9 471.3 213.4 469.3 213.7 467.2 214 465.1 214.3 463.1 214.2 461.6 214.6 459.1 215.1 455 215.1 451.5L215.1 451.8C215.3 447.8 215.5 442.9 215.2 440.1 215.8 438.9 215.7 437.2 215.9 435.5 215.8 432.8 216 427.5 215.9 423.5 216.2 422.9 215.9 420.2 216.3 420 216.1 408.7 217 394.7 219.2 382.9L219.2 383.1C219.2 381.5 219.1 379.7 219.1 378.1 219.2 378 219.2 378 219.2 378.3 219.5 376.1 220.2 374.2 220.6 372 220.7 372 220.7 372 220.6 372.4 220.8 370.3 221.8 368.3 222.2 365.9L222.3 365.8 222.6 364.3C222.7 364.4 222.8 364.5 222.6 365.3 223.9 360.8 225.5 356.4 227.8 352.3 228.3 351.2 229 350.3 229.7 349.3 230.4 348.3 231.1 347.5 231.9 346.6 233.5 344.9 235.2 343.2 237.1 341.8 244.6 335.9 253.9 332.4 263.3 330.4L262.6 330.7C262.6 330.7 263.5 330.4 264.4 330.2 265.3 330 266.2 329.7 266.2 329.7 266.2 329.8 266 329.8 265.8 329.9 270.5 329.2 275.4 328.4 280.1 328.2 280.1 328.3 279.4 328.4 280 328.4 283.4 327.9 285.5 328.6 287.3 328 287.5 328 287.6 328.2 287.2 328.2 296.8 328.1 306.7 329.1 315.9 331.9 317.9 332.3 319.9 332.9 321.8 333.7 323.7 334.6 325.5 335.7 327.2 337 330.5 339.7 333.3 343 335.8 346.4L335.7 346.4C342 355.3 345.5 366.5 348.3 377.4 349.4 382 350.2 385 351 389.6L350.9 389.7C352.8 397.4 352.8 406.2 353.9 414.4L353.7 413.8C354.1 415.1 353.9 418.8 354.4 418.3L354.3 419.8C355.2 425.4 354.3 430 354.6 436.9L354.5 436.4C354.5 438.2 354.6 440.4 354.4 441.7 354.4 441.5 354.4 441.6 354.3 441.1 353.6 446.8 353.6 453.2 352.9 459.2L352.8 458.5C352.7 461.4 351.7 466.7 351.1 470.5L351 470.3 350.8 472.2 350.6 472.2C349.5 477.1 348.6 481.7 347.2 486.4"/></g><g><g id="change1_2" opacity="0.55"><path d="M323.2 510.2C323.2 510.2 344.3 504.1 343.8 493.7 343.3 483.4 351.9 454.2 343.6 444.5 334.9 434.4 312.4 431 301.7 431.8 280.5 433.4 267.8 484.5 282 498.3 296.3 512.2 323.2 510.2 323.2 510.2" fill="#4E7837"/></g><g id="change1_3" opacity="0.55"><path d="M234.4 495.9C234.4 495.9 218 485.9 219.3 474.9 220.7 463.9 216.5 431.3 224.1 422.3 232 412.9 250.5 412.9 259 415.5 276 420.7 281.4 477.4 268.6 489.9 255.9 502.3 234.4 495.9 234.4 495.9" fill="#4E7837"/></g><g id="change1_1" opacity="0.55"><path d="M281 345.4C281 345.4 263.4 361.4 267.1 372.3 270.8 383.2 272 418.5 282.7 425.3 293.9 432.4 315.8 426.1 325.4 420.5 344.5 409.4 340.2 348.7 322.8 340 305.2 331.4 281 345.4 281 345.4" fill="#4E7837"/></g></g><g><g opacity="0.5"><g id="change6_1"><path d="M334.3 407.9C331.6 408.7 327.9 412.6 330 419 332 425.4 339.7 425 343.2 422.4 349.3 417.7 346 409.9 343.2 408.6 340.4 407.3 337 407.1 334.3 407.9" fill="#EF2966"/></g></g><g id="change6_6"><path d="M299.8 349C298.2 346.7 293.2 344.6 287.9 348.6 282.6 352.7 285.5 359.8 289.2 362.2 295.7 366.4 301.9 360.6 302.2 357.6 302.4 354.6 301.4 351.4 299.8 349" fill="#EF2966" opacity="0.5"/></g><g opacity="0.5"><g id="change6_10"><path d="M296.2 351.9C294.6 349.6 289.6 347.5 284.3 351.5 279 355.6 281.9 362.7 285.6 365.1 292.1 369.3 298.3 363.5 298.6 360.5 298.8 357.4 297.9 354.2 296.2 351.9" fill="#EF2966"/></g></g><g id="change6_7"><path d="M319.8 500.4C318.2 498.1 313.2 496 307.9 500 302.6 504.1 305.5 511.2 309.2 513.6 315.7 517.8 321.9 512 322.2 509 322.4 505.9 321.4 502.7 319.8 500.4" fill="#EF2966" opacity="0.5"/></g><g opacity="0.5"><g id="change6_9"><path d="M316.2 503.2C314.6 500.9 309.6 498.8 304.3 502.8 299 506.9 301.9 514 305.6 516.4 312.1 520.6 318.3 514.8 318.6 511.8 318.8 508.7 317.9 505.5 316.2 503.2" fill="#EF2966"/></g></g><g id="change6_8"><path d="M255.9 495.6C254.7 493.9 251 492.3 247.1 495.3 243.2 498.3 245.3 503.6 248 505.3 252.8 508.4 257.4 504.1 257.6 501.9 257.9 499.7 257.1 497.3 255.9 495.6" fill="#EF2966" opacity="0.5"/></g></g><g id="change7_1"><path d="M268 582.8C268 582.8 270.7 570.5 272 557.6 273.3 544.7 272.4 495.7 271.6 486.8 270.2 470.1 265.3 460.1 262.3 452.7 258.9 444.4 257.4 439.5 255.1 434.4 249.2 420.8 235.2 406.4 240 404.6 244.8 402.8 248.4 406.9 249.7 413.1 251.1 419.3 256.8 427.9 256.8 427.9 256.8 427.9 254 409.9 257.4 408.9 260.8 407.8 261.1 411.8 260.5 417.3 259.9 422.8 265.6 445.3 269.6 451.7 273.6 458 283.9 411.8 284.6 405.5 285.2 399.2 280.7 384 286.1 383 291.1 382 289 409.7 289 409.7 289 409.7 300 391 302.6 392 305.1 393 304.3 391.4 303.3 394.8 302.3 398.2 291.2 413.7 290.3 418 288.8 425 284.2 447.8 286.3 453.2 288.4 458.5 289.6 452.6 291.9 448.5 295.5 442 308.3 425.1 309.1 422.9 309.7 421.2 313.2 410.6 314.5 416.8 315.7 423 306.2 437.1 306.2 437.1 306.2 437.1 314.5 429.3 316.9 431.2 319.4 433.1 316.9 431.2 308.7 438.3 302.1 444.1 297.7 446.5 295 456.5 293.9 460.5 287.8 460.5 288.2 480.4 288.4 490.6 289.2 548.5 290.9 558.1 292.6 567.8 292.8 585.5 292 586.7 291.2 587.9 266.9 593.6 268 582.8" fill="#4F3D16"/></g><g id="change5_1"><path d="M297 454 296.9 453.6C296.5 455.1 296.3 456.6 295.3 457.8 294.3 459 293.3 460.3 292.6 461.8 291.1 464.7 290.5 468 290.2 471.2L290.2 470.8C289.8 474.8 289.9 478.8 290 482.7 290.1 486.6 290.3 490.5 290.4 494.3 290.7 502 291 509.7 291.3 517.7 291.3 517.5 291.2 517.4 291.2 517.1 291.3 517.9 291.4 518.7 291.5 519.6 291.5 519.8 291.4 519.4 291.4 519.1 291.2 522.5 291.9 529 291.8 531.1 291.9 532 292 532.5 292.1 531.9 292.4 538.2 292.7 544.6 293.2 551.1 293.3 552.7 293.5 554.3 293.6 555.9 293.8 557.5 294.1 559.1 294.3 560.7 294.8 563.9 295.1 567.2 295.4 570.3 295.4 570.9 295.3 571 295.2 570.9 295.5 573.6 295.7 576.4 295.8 579.2 295.9 580.6 295.9 582 295.9 583.4 295.9 584.1 295.9 584.8 295.8 585.5 295.8 585.9 295.8 586.2 295.7 586.6 295.7 586.8 295.6 587.1 295.5 587.3 295.4 587.6 295.3 587.8 295 588 294.5 588.4 294.1 588.5 293.8 588.6 293.4 588.7 293.1 588.8 292.8 588.9 292.1 589.1 291.4 589.3 290.7 589.5 289.3 589.8 287.9 590.1 286.5 590.3 283.7 590.7 280.8 590.8 277.9 590.5 277.4 590.6 279.1 590.8 277.9 590.8 281.7 591.4 284.7 590.5 288 590.2L287.6 590.4C290 590 288 590 290.5 589.7 291.5 589.6 290.3 589.9 290.7 589.8 292 589.5 293.2 589.2 294.5 588.6 294.7 588.5 295 588.3 295.2 588.2 295.4 588 295.6 587.8 295.7 587.5 295.8 587.2 295.9 586.9 295.9 586.7L296 586.2C296.1 585.5 296.1 584.9 296.1 584.2 296.2 581.6 296.1 579.1 295.8 576.7 296.1 575.5 295.6 571.3 295.7 569.4 295.5 568.1 295.4 566.8 295.2 566.3 295 564.1 294.8 561.9 294.5 559.7 294.1 557.5 293.9 555.4 293.7 553.2 293.4 548.8 293.1 544.3 292.9 539.9 292.4 531 292.1 522 291.8 513 291 504.6 291.4 494.5 291 484.5 291 484.4 291 484.4 291.1 484.5 290.9 481.2 290.6 476.5 291 472.6L291 471C291 470.2 291.1 469.4 291.1 469.4 291.5 466.8 292.2 464.3 293.3 462 293.9 460.9 294.6 459.8 295.5 458.8 295.9 458.3 296.3 457.8 296.7 457.2 297.1 456.6 297.4 455.8 297.5 455.2 298.2 452.7 299.1 450.3 300.4 448 301.7 445.8 303.5 443.9 305.4 442.1L311.3 436.8C312.3 435.9 313.3 435.1 314.4 434.3 314.9 433.9 315.5 433.5 316 433.2 316.3 433 316.6 432.8 316.9 432.7 317.1 432.6 317.6 432.3 318 432.1 318.4 431.9 318.9 431.6 319.1 431.4 319.4 431.1 319.6 431 319.7 430.6 319.7 430.2 319.4 429.9 319.1 429.7 318.8 429.4 318.4 429.2 318.1 429L317.5 428.9C317.3 428.9 317.1 428.9 316.8 428.9 316.3 428.9 315.9 429.1 315.5 429.2 314.8 429.5 314.2 429.8 313.6 430.2 311.3 431.7 309.2 433.4 307.3 435.3L308.3 436.1C309.7 433.9 311 431.7 312.2 429.4 313.8 426.4 315.2 423.3 316.1 420 316.5 418.4 316.9 416.7 316.5 414.8 316.4 414.4 316.2 413.6 315.9 413.2 315.6 412.7 315 412.4 314.5 412.5 314 412.6 313.5 413 313.1 413.5 312.7 414 312.5 414.4 312.3 414.8 311.5 416.3 310.9 417.8 310.4 419.3 310.1 420 309.9 420.9 309.6 421.4 309.3 422 308.8 422.7 308.4 423.4 306.7 426 304.9 428.6 303.1 431.2 299.6 436.4 296 441.5 292.8 447.2 292.1 448.7 291.5 450.2 290.9 451.6 290.7 452 290.6 452.3 290.4 452.6L290.3 452.8 290.2 452.9C290.2 453 290.1 453 290.1 453.1 290 453.2 289.8 453.2 289.7 453.1 289.6 453 289.5 452.8 289.3 452.6 288.9 451.9 288.7 451.2 288.6 450.5 288.5 449.7 288.4 449 288.4 448.2 288.3 446.6 288.4 445 288.4 443.3 288.5 443.3 288.5 443.1 288.5 443.8 289 436.2 290.3 429.4 291.5 422.4L291.5 422.4C291.7 420.9 292 419.4 292.2 417.9 292.3 417.2 292.5 416.4 292.7 415.7 292.9 415 293.2 414.3 293.5 413.6 294.8 410.9 296.4 408.2 297.9 405.5 299.5 402.8 301.1 400.2 302.7 397.5 303.5 396.1 304.3 394.8 304.9 393.3 305.2 392.5 305.3 392 305.8 390.9 306.6 389.9 305 389.9 304.2 389.5 303.7 389.3 303.2 389.5 302.8 389.7 302.5 389.9 302.2 390.2 301.9 390.4 301.3 390.9 300.9 391.5 300.4 392.1 299.5 393.3 298.6 394.4 297.8 395.6 296.2 398 294.7 400.4 293.4 402.9 292.5 404.3 291.7 405.8 290.7 407.6L291.1 407.7C291.4 403.3 291.5 398.7 291.5 394 291.4 391.6 291.4 389.2 291.1 386.8 290.9 385.6 290.8 384.4 290.4 383.2 290.2 382.6 290 382 289.7 381.5 289.4 381 288.7 380.4 288 380.6 287.3 380.7 286.7 381.2 286.3 381.8 285.9 382.4 285.7 383.1 285.5 383.7 285.2 385.1 285.2 386.4 285.2 387.8 285.3 390.5 285.7 393.3 286 396 286.3 398.7 286.8 401.5 286.4 404.2 286 406.9 285.5 409.6 285 412.3L284.9 412.2C283.3 420.9 281.2 429.3 278.7 437.6 278.1 439.7 277.4 441.7 276.7 443.8 275.9 445.8 275.2 447.9 274 449.6 273.7 450 273.5 450.3 273.1 450.4 272.7 450.4 272.5 450.1 272.2 449.6 271.7 448.7 271.3 447.7 270.8 446.7 269.9 444.7 269.2 442.6 268.5 440.6 266.8 434.9 265.2 429 264 423 263.4 420 262.9 417 263.2 413.9 263.3 412.4 263.3 410.8 263 409.3 262.8 408.6 262.6 407.7 262 407.2 261.4 406.7 260.5 406.7 259.8 407 259 407.3 258.8 408.2 258.6 408.9 258.4 409.7 258.3 410.5 258.3 411.3 258.2 412.9 258.3 414.5 258.3 416 258.5 419.1 258.8 422.3 259.2 425.4 259.2 425.7 259.3 426 259.3 426.3L259.4 426.2C256.7 421.4 253.3 415.9 251.8 409.7 251.3 408.2 250.7 406.8 249.8 405.5 248.9 404.3 247.8 403.2 246.4 402.8 245 402.3 243.5 402.6 242.4 403.2 241.9 403.6 241.8 404.3 241.9 404.9 242 405.6 242.2 406.2 242.4 406.8 243.4 409.3 244.9 411.7 246.3 414 247.7 416.3 249.2 418.6 250.6 420.9 253.5 425.5 256.2 430.1 258.2 435 260.2 440 262.1 445 264.2 450 266.3 455 268.6 459.9 270.4 465.1 271.9 469.9 273 474.9 273.7 479.8 274.5 484.8 274.8 489.8 275 494.8 275.5 504.8 275.7 514.7 275.5 524.4 276 533.6 275.2 543.9 274.9 554.1L275.1 553.7C274.5 557.3 275 561.9 274.1 564.2L274.1 563.8C273.6 565.7 274.2 568.4 273.7 569.5L273.8 569.8C273.5 572.2 273.6 570.1 273.2 571.8 273.1 572.5 273.4 572.1 273.1 573.5 272.4 573.7 272.3 579.2 271.5 579.3 271.7 578 270.9 581.2 271.2 578.4 271 579.2 270.3 583.1 270.6 582.8 270.8 583.2 270.8 584.8 271.5 582.5L271.4 582C271.8 581.2 271.6 581.4 271.9 581.2 272.5 578.1 272.9 577.8 273.4 575.5 273.4 575.5 273.4 575.5 273.4 575.5 273.4 573.9 273.9 571.8 274.1 570.6L274.3 570.1C274.7 569.4 274.3 566.5 274.6 567.5 275 564.3 275.4 560.9 275.7 557.4 276 553.8 276 550.2 276.1 546.6 275.9 545.6 276.2 541.1 275.8 542.7 276.2 540.9 276.3 535.6 276.3 533.6 276.3 533.7 276.4 533.8 276.4 534.1 276.9 530.3 275.9 529.6 276.5 526 276.1 525.4 276.6 519.5 276 517.4 276.1 517 276.2 516.8 276.3 517 276.2 510.5 276.2 503.4 276 497.9 275.4 493.3 275.8 486.5 274.7 482.5 274.4 479.2 273.7 473.7 272.3 469.2L272.5 469.6C271.2 464.5 268.8 458.3 267.1 455.1 267 453.5 266 451.4 265.3 449.3 263.8 446.2 261.5 439.5 259.3 434.6 259.2 433.7 257.4 430.5 257.6 430.2 254 423.5 248.9 416.8 244.5 409.6 244 408.7 243.5 407.8 243.1 406.8 242.7 405.9 242.4 404.8 242.5 404.2 242.6 403.9 242.7 403.8 243.1 403.7 243.5 403.5 244 403.5 244.4 403.4 245.3 403.3 246.2 403.5 246.9 404 248.4 404.9 249.5 406.7 250.2 408.5 250.5 409.4 250.8 410.3 251 411.3 251.2 412.2 251.5 413.4 251.8 414.3L251.7 414.1C252.6 416.1 254 418.1 255.1 419.9 255.2 420.1 255.1 420.1 254.9 419.7 256.2 422.1 257.2 424.5 258.7 426.8L260.4 429.5 259.9 426.3C259.9 426.1 259.8 425.9 259.8 425.7 259.9 425.7 259.9 425.7 260 426.2 259.4 423.5 259.5 420.6 259 417.4L259.1 417.2 258.9 415.2C259 415.2 259.2 415.3 259.2 416.4 259.1 414.8 259.1 413.2 259.2 411.6 259.2 410.8 259.3 410 259.5 409.3 259.6 408.6 260 407.9 260.1 408 262 407 262.2 410.4 262.1 413 262.1 414.3 261.9 415.7 261.9 417.2 262 418.6 262.2 420 262.4 421.4 263.3 426.9 264.7 432.4 266.4 437.7 267.2 440.4 268.1 443.1 269.2 445.7 269.7 447 270.3 448.3 271 449.6L271.6 450.6C271.8 451 272.3 451.4 272.7 451.4 273.7 451.6 274.6 450.4 274.9 449.9 276.4 447.4 277.3 444.7 278.2 442 279.1 439.3 279.8 436.6 280.6 433.9L280.5 434.8 281.6 429.9C281.6 429.9 281.6 430.2 281.6 430.4 283.4 424.3 284.5 417.7 285.7 411.7 285.7 411.7 285.7 412.7 285.9 411.8 286.4 407.2 287.7 404.6 287.1 402.1 287.1 401.9 287.3 401.7 287.3 402.2 287.2 398.3 286.5 394.6 286.1 390.8 285.9 388.9 285.8 387 285.9 385.2 286 383.4 286.5 381.3 288 381.1 288.7 380.9 289.3 382.3 289.6 383.5 289.9 384.7 290.1 386 290.2 387.3 290.5 389.9 290.5 392.5 290.5 395.2 290.7 399.1 290.7 403.3 290.4 407.5L290.3 409.1 291.1 407.7C292.8 404.6 294.7 401.5 296.6 398.5 297.6 397 298.6 395.5 299.6 394 300.6 392.6 301.7 391.1 303 390L303 390.1C303.3 389.9 303.6 389.7 303.9 389.9 304.3 390 304.6 390.1 305 390.2 305.1 390.2 305.3 390.2 305.2 390.3 305.2 390.4 305.1 390.5 305.1 390.5 305 390.7 304.9 390.8 304.9 391 304.6 391.7 304.4 392.7 304 393.5 303.3 395.1 302.4 396.7 301.5 398.2 299.7 401.3 297.8 404.4 295.9 407.5 295 409.1 294.1 410.7 293.2 412.3 292.8 413.1 292.4 413.9 292.1 414.8 291.8 415.7 291.6 416.6 291.4 417.5 290.7 421.1 290 424.7 289.4 428.3 288.4 434.4 287.9 438.6 287.5 444.8L287.4 444.9C287.4 446.2 287.4 447.5 287.6 448.9 287.7 450.2 288 451.6 288.7 452.8 288.9 453.1 289.1 453.4 289.4 453.6 289.7 453.8 290.1 453.7 290.4 453.5 290.9 453 291.3 452.3 291.6 451.7 292.2 450.4 292.7 449.2 293.3 447.9 294.6 445.4 296.2 443.1 297.7 440.8 299.2 438.5 300.7 436.1 302.1 433.8L301.8 434.5C302.5 432.9 305.6 429.1 304.8 429.3L306 427.8C306.9 426.2 307.8 424.7 308.8 423.2 309.3 422.5 309.7 421.7 310.1 421 310.5 420.2 310.7 419.4 311.1 418.5 311.8 416.8 312.5 415.1 313.5 413.5 313.8 413.1 314.1 412.7 314.6 412.6 315.1 412.7 315.3 413.3 315.5 413.7 315.8 414.7 315.9 415.8 315.8 416.9L315.7 416.3C315.6 418.7 314.7 421.5 313.9 423.1 314 422.8 313.9 422.9 314.1 422.4 312.2 426.5 309.9 430.8 307.4 434.9L306.6 436.3 307.8 435.2C310.1 432.9 312.6 430.7 315.5 429.3L314.8 429.9C315.2 429.7 315.7 429.4 316.1 429.2 316.6 429 317.1 428.9 317.6 429.1 317.9 429.2 318.1 429.4 318.3 429.6 318.4 429.7 318.5 429.8 318.6 429.9 318.7 430 318.6 430.2 318.4 430.3 317.9 430.6 317.3 430.9 316.8 431.2 314.3 432.6 311.8 434.5 310 436.3L310.2 436 308.4 437.8 308.2 437.7C305.7 439.9 303.2 442 301.3 444.6 299.3 447.9 298 450.9 297 454"/></g><g id="change5_2"><path d="M263.5 448.3 263.3 447.9C262.4 454.5 259.9 461.5 257.5 468.1L257.6 467.6C254.4 475.8 250.4 483.5 244.8 489.9 239.1 496.2 232.5 501.7 224.8 506.2 225 506 225.1 505.9 225.3 505.8 224.6 506.3 223.9 506.9 223 507.4 222.8 507.5 223.2 507.2 223.4 507 220 508.5 213.7 512.1 211.4 512.6 210.5 513.1 210.1 513.4 210.7 513.3 197.8 518.4 183 521 168.9 521.7 168.2 521.6 168.1 521.5 168.3 521.3 156.2 522.4 143.5 521 131.4 518.6 130.9 518.7 132.6 519 131.4 519 135.3 520 138.7 519.7 142.2 520.5L141.7 520.6C144.3 521.1 142.3 520.2 145 520.7 146.1 521 144.7 520.9 145.2 521 150.8 521.5 156.6 522 161.9 521.6 163.2 522.1 167.9 521.6 170 522 171.4 521.8 172.9 521.7 173.4 521.4 192.9 520.5 212.9 515.2 229.8 504 231.7 502.6 233.5 501 235.6 499.5 237.5 497.8 239.6 496.3 241.6 494.4 243.6 492.6 245.6 490.8 247.5 488.6 249.3 486.5 251 484.2 252.3 481.7 252.4 481.6 252.4 481.7 252.4 481.8 254.2 478.6 256.4 473.8 258.1 469.8L259.1 466.3C263.9 454.2 266.5 441.2 268.1 428.2 269.7 415.1 270.2 401.9 270.2 388.8 270.1 373.9 269.3 359.8 267.6 346 265.9 332.2 263.2 318.5 259.1 304.6 259.2 304.6 259.2 304.4 259.4 305.1 257.1 297 255.2 289.6 252.3 282.2L252.4 282.2C248.7 273.1 244.7 263.7 239.4 255 234.2 246.3 227.8 238.2 219.9 232.8 215.3 229.3 209.6 226.9 203.7 225.7 197.8 224.3 191.7 223.5 185.5 223 173.1 222 160.5 222.5 148.4 224.2L148.4 224C138.8 225.4 129.4 227.3 120.2 230.1 111.1 233 102.1 236.8 94.1 242.4 89.9 245.1 85.9 248.4 82.4 252.2 78.9 255.9 75.9 260.3 73.9 265 71.7 269.7 70.3 274.7 69.1 279.6 67.9 284.6 67 289.6 66.2 294.6 63.6 306.9 64.8 323.4 63.9 335 62.6 359.1 64.8 382.4 66.2 406.4 66.3 417.5 66.5 428.6 65.5 439.6 64.9 450.6 68.9 461.1 74 470.4 79.7 478.7 86.2 488.1 94.7 495.7L94.5 495.3C97.1 498.5 101.8 500.7 103.2 502.9L102.8 502.7C104.2 504.4 107.4 505 108.1 506.2L108.5 506.2C110.6 507.7 108.6 506.6 110.1 507.9 110.7 508.3 110.6 507.7 111.8 508.8 111.5 509.8 117.1 512.3 116.7 513.3 115.5 512.5 118.3 514.9 115.5 513.3 116.2 513.9 119.9 516.3 119.8 515.7 120.4 515.5 122 516 120 514.3L119.4 514.3C118.8 513.5 118.9 513.8 118.8 513.4 115.9 511.5 115.9 510.8 114 509.2 114 509.2 114 509.2 114 509.2 112.4 508.6 110.6 507 109.6 506.1L109.3 505.6C108.9 504.8 105.7 503.8 107 503.9 101.4 499.7 95.3 494.4 89.9 488.8 88.9 488.2 85.8 484.4 86.6 486 85.7 484.2 82 479.7 80.8 478 80.9 478 81 478.1 81.2 478.3 80.2 476.4 79.4 475.5 78.6 474.7 77.8 473.8 77 472.9 76.3 471 75.3 470.9 72.9 464.9 71.3 463.2 71.2 462.7 71.3 462.5 71.4 462.6 70 459.4 68.7 456 67.9 452.6 67.2 449.2 66.7 445.9 66.8 443 66.4 440.5 66.8 437.6 67.1 434.5 67.4 431.4 67.5 428.5 67.2 426.2 67.5 422.5 67.8 416.5 67.4 411.4L67.5 411.9C67.4 406.1 67.1 398.9 66.5 394.9 67.2 393.2 67 390.7 67.1 388.2 66.6 384.4 66.4 376.6 65.9 370.7 66.2 369.8 65.6 365.9 66.1 365.5 64.6 349.1 64.5 328.6 66.4 311.2L66.4 311.5C66.3 309.2 65.9 306.6 65.7 304.2 65.8 304 65.8 304 65.8 304.5 66 301.3 66.8 298.4 67.2 295.2 67.3 295.2 67.3 295.2 67.3 295.8 67.4 292.8 68.6 289.7 68.9 286.2L69.1 286 69.4 283.8C69.5 283.9 69.8 284 69.5 285.2 70.9 278.5 72.8 271.9 75.6 265.7 76.2 264.1 77.2 262.7 78 261.2 78.9 259.7 79.9 258.4 80.9 257 83.1 254.3 85.4 251.8 88 249.5 98.3 240.1 111.5 234 124.9 230.1L124 230.6C124 230.6 125.3 230.1 126.6 229.7 127.9 229.3 129.2 228.8 129.2 228.8 129.2 228.9 129 229 128.7 229.1 135.5 227.6 142.5 225.9 149.3 225.1 149.3 225.2 148.3 225.5 149.2 225.4 154.1 224.3 157.3 225.2 159.7 224 159.9 224 160.1 224.2 159.6 224.3 173.5 223.1 188.1 223.6 201.8 226.6 204.7 227 207.7 227.6 210.5 228.7 213.3 229.8 216.1 231.2 218.7 233 223.8 236.6 228.2 241.1 232.2 245.8L232 245.9C242.1 258.2 248.4 274.1 253.6 289.6 255.6 296.1 257.1 300.5 258.8 307.1L258.6 307.3C262.2 318.3 263.1 331.1 265.6 342.9L265.2 342.1C265.9 343.9 266 349.3 266.7 348.5L266.7 350.6C268.6 358.6 267.8 365.5 268.9 375.4L268.7 374.8C269 377.5 269.2 380.6 269.1 382.5 269.1 382.2 269 382.3 269 381.7 268.5 390.1 269.3 399.3 268.8 408.1L268.5 407.1C268.7 411.4 267.8 419.1 267.4 424.7L267.3 424.3 267.2 427.1 266.9 427.1C265.8 434.5 265 441.3 263.5 448.3"/></g><g id="change1_5"><path d="M122.6 514.5C122.6 514.5 64.4 480 68.9 441.3 73.3 402.6 57.4 288 83.6 256.1 111.1 222.6 176.2 222 206.2 230.8 266 248.3 287.2 447.6 242.8 492 198.4 536.3 122.6 514.5 122.6 514.5" fill="#4E7837"/></g><g><g opacity="0.89"><g id="change4_4"><path d="M229.2 483.3C229.2 483.3 259.8 467.2 258.6 447.3 257.4 427.4 268.6 369.3 256 352.3 242.8 334.5 209.6 332.4 194.1 336.1 163.1 343.4 146.9 444.7 168.4 468.6 189.9 492.4 229.2 483.3 229.2 483.3" fill="#709E50"/></g></g><g><g id="change4_2"><path d="M91.9 427.8C91.9 427.8 67.6 413.4 69.5 397.2 71.4 381 64.7 333.2 75.7 319.9 87.2 305.9 114.4 305.7 126.9 309.3 151.9 316.6 160.7 399.8 142.2 418.4 123.6 436.9 91.9 427.8 91.9 427.8" fill="#709E50"/></g></g><g opacity="0.5"><g id="change4_3"><path d="M196.5 328.2C196.5 328.2 224.9 317.7 224 305.1 223.1 292.5 234 255.6 222.7 244.9 210.8 233.7 180.2 232.8 165.8 235.3 137.1 240.3 121.2 304.6 140.7 319.5 160.2 334.4 196.5 328.2 196.5 328.2" fill="#709E50"/></g></g></g><g id="change1_4"><path d="M61 523C61 523 100.2 498.2 96.4 471.8 92.6 445.4 101.3 366.5 82.7 345.2 63.2 322.8 18.6 323.6-1.8 330.2-42.5 343.4-53 480.4-21.8 510 9.4 539.4 61 523 61 523" fill="#4E7837"/></g><g><g id="change4_6" opacity="0.51"><path d="M-12.6 504.4C-12.6 504.4-33.4 497.3-32.5 487-31.5 476.7-38.9 447.2-30.2 437.9-21.1 428.2 1.6 425.8 12.2 427 33.3 429.5 43.7 481.1 29 494.3 14.2 507.6-12.6 504.4-12.6 504.4" fill="#709E50"/></g><g id="change4_7" opacity="0.67"><path d="M76 488C76 488 92.9 478.7 92 467.7 91.1 456.7 96.7 424.2 89.6 414.9 82.1 405.1 63.6 404.3 55 406.5 37.8 410.9 30 467.3 42.1 480.4 54.2 493.5 76 488 76 488" fill="#709E50"/></g><g id="change4_5"><path d="M36.8 341.7C36.8 341.7 53.7 358.4 49.5 369.2 45.3 380 42.6 415.2 31.6 421.5 20.1 428.1-1.5 420.9-10.8 414.9-29.4 403-22.5 342.5-4.7 334.6 13.2 326.6 36.8 341.7 36.8 341.7" fill="#709E50"/></g></g><g id="change7_2"><path d="M139.4 574.8C139.4 574.8 143.4 556.9 145.3 538 147.2 519.2 146.1 447.7 145 434.8 143 410.5 135.9 395.9 131.5 385.1 126.6 373.1 124.4 365.9 121.1 358.3 112.5 338.4 92.1 317.4 99.1 314.8 106.1 312.1 111.3 318.2 113.3 327.2 115.3 336.2 123.6 348.8 123.6 348.8 123.6 348.8 119.5 322.6 124.5 321 129.5 319.5 129.9 325.2 129 333.3 128.2 341.5 136.4 374.2 142.2 383.5 148 392.8 163.2 325.3 164.2 316.2 165.1 307 158.5 284.9 166.5 283.4 173.8 282 170.7 322.3 170.7 322.3 170.7 322.3 186.7 295.2 190.4 296.7 194.1 298.2 192.9 295.8 191.4 300.7 189.9 305.7 173.6 328.2 172.3 334.4 170.1 344.7 163.3 377.9 166.3 385.7 169.4 393.5 171.1 384.8 174.5 378.8 179.8 369.4 198.5 344.8 199.7 341.5 200.6 339 205.8 323.6 207.6 332.6 209.4 341.6 195.4 362.2 195.4 362.2 195.4 362.2 207.5 350.9 211.1 353.7 214.7 356.5 211.1 353.7 199.1 364.1 189.5 372.5 183 376.1 179 390.6 177.4 396.4 168.5 396.4 169 425.4 169.3 440.3 170.3 524.7 172.7 538.8 175.1 552.9 175.4 578.7 174.2 580.5 173.2 582.4 137.8 590.5 139.4 574.8" fill="#4F3D16"/></g><g id="change5_3"><path d="M182.2 387 182.1 386.4C181.6 388.6 181.3 390.8 179.7 392.5 178.3 394.3 176.8 396.2 175.7 398.3 173.5 402.6 172.6 407.4 172.2 412L172.2 411.4C171.5 417.3 171.7 423.1 171.9 428.8 172.1 434.5 172.2 440.1 172.4 445.8 172.8 457.1 173.2 468.3 173.7 480 173.7 479.6 173.6 479.5 173.5 479.1 173.6 480.2 173.9 481.5 173.9 482.7 173.8 483 173.8 482.4 173.7 481.9 173.4 486.8 174.4 496.4 174.2 499.4 174.3 500.8 174.5 501.4 174.6 500.6 175 509.7 175.4 519.2 176.1 528.6 176.2 531 176.5 533.3 176.7 535.7 177 538 177.4 540.3 177.8 542.7 178.5 547.4 179 552.1 179.3 556.8 179.3 557.7 179.2 557.9 179 557.6 179.4 561.6 179.7 565.6 179.8 569.7 179.9 571.7 179.9 573.8 179.9 575.8 179.9 576.8 179.9 577.9 179.8 578.9 179.8 579.4 179.7 580 179.6 580.5 179.6 580.7 179.5 581.2 179.3 581.6 179.2 582 178.9 582.4 178.6 582.6 177.8 583.2 177.3 583.3 176.8 583.5 176.3 583.7 175.8 583.9 175.3 584 174.3 584.3 173.3 584.6 172.3 584.8 170.3 585.3 168.2 585.6 166.1 585.9 162 586.4 157.8 586.7 153.6 586.2 152.9 586.3 155.3 586.6 153.6 586.6 159.1 587.4 163.5 586.2 168.3 585.8L167.7 586.1C171.2 585.6 168.3 585.5 171.9 585 173.3 584.8 171.6 585.3 172.3 585.2 174.1 584.7 175.9 584.3 177.9 583.5 178.2 583.4 178.6 583.1 178.9 582.9 179.2 582.7 179.5 582.3 179.6 581.9 179.8 581.5 179.9 581.1 179.9 580.8L180 580C180.1 579 180.1 578.1 180.2 577.1 180.3 573.3 180.2 569.7 179.9 566.2 180.3 564.5 179.6 558.3 179.8 555.5 179.5 553.6 179.4 551.7 179.1 551 178.9 547.8 178.5 544.6 178.1 541.3 177.6 538 177.2 535 177 531.8 176.5 525.4 176.1 518.9 175.8 512.4 175.2 499.4 174.7 486.3 174.3 473.1 173.1 460.8 173.8 446.1 173.2 431.5 173.2 431.4 173.3 431.4 173.3 431.5 173 426.7 172.6 419.8 173.2 414.2L173.2 411.8C173.2 410.6 173.3 409.4 173.3 409.4 173.9 405.7 174.9 402 176.6 398.7 177.5 397.1 178.5 395.6 179.8 394.1 180.4 393.4 181 392.6 181.6 391.7 182.1 390.8 182.6 389.7 182.8 388.8 183.8 385.2 185.2 381.6 187.1 378.4 189 375.2 191.6 372.4 194.4 369.8L203.1 362.1C204.5 360.8 206 359.6 207.6 358.5 208.4 358 209.2 357.4 210 356.9 210.4 356.6 210.8 356.4 211.2 356.1 211.5 355.9 212.2 355.5 212.9 355.2 213.5 354.9 214.2 354.5 214.5 354.2 214.9 353.8 215.2 353.6 215.3 353.1 215.3 352.5 214.8 352.1 214.4 351.7 214 351.3 213.4 351 212.9 350.7L212 350.5C211.7 350.5 211.4 350.5 211 350.6 210.3 350.6 209.7 350.9 209.1 351.1 208 351.5 207.2 352 206.3 352.5 202.9 354.6 199.9 357.2 197 359.8L198.4 361C200.5 357.8 202.4 354.6 204.1 351.2 206.4 346.8 208.5 342.3 209.9 337.6 210.5 335.2 211 332.7 210.5 330 210.4 329.4 210.1 328.3 209.6 327.6 209.2 326.9 208.4 326.4 207.5 326.6 206.7 326.8 206 327.3 205.4 328.1 204.8 328.9 204.5 329.4 204.2 329.9 203 332.1 202.2 334.3 201.4 336.5 201 337.5 200.6 338.9 200.2 339.6 199.7 340.5 199.1 341.5 198.5 342.5 196 346.3 193.4 350.1 190.8 353.9 185.7 361.5 180.3 369 175.8 377.2 174.7 379.4 173.9 381.6 173 383.6 172.8 384.1 172.5 384.6 172.3 385.1L172.1 385.4 172 385.6C171.9 385.7 171.9 385.8 171.8 385.9 171.6 386.1 171.4 386.1 171.2 385.9 171 385.8 170.9 385.5 170.7 385.2 170.2 384.2 169.9 383.2 169.7 382.2 169.5 381.1 169.4 380 169.4 378.8 169.3 376.5 169.3 374.1 169.4 371.7 169.5 371.8 169.5 371.5 169.5 372.4 170.2 361.4 172.2 351.5 173.9 341.2L174 341.2C174.4 339 174.7 336.9 175.1 334.7 175.3 333.6 175.5 332.5 175.8 331.5 176.1 330.5 176.6 329.5 177 328.5 178.9 324.5 181.2 320.6 183.5 316.8 185.8 312.9 188.1 309 190.5 305.2 191.6 303.2 192.8 301.3 193.7 299.1 194.2 297.9 194.2 297.2 195 295.6 196.1 294.1 193.9 294.1 192.7 293.6 192 293.3 191.3 293.5 190.7 293.9 190.2 294.2 189.8 294.6 189.4 295 188.6 295.8 187.9 296.6 187.2 297.4 185.8 299.1 184.6 300.8 183.4 302.6 181.1 306.1 178.9 309.7 176.9 313.2 175.6 315.3 174.3 317.4 172.9 320L173.4 320.2C173.8 313.8 174.1 307.1 174 300.2 173.9 296.8 173.8 293.3 173.4 289.7 173.2 287.9 172.9 286.2 172.4 284.4 172.2 283.5 171.8 282.7 171.3 281.9 170.8 281.1 169.9 280.3 168.8 280.6 167.8 280.8 166.9 281.5 166.3 282.3 165.7 283.2 165.4 284.1 165.2 285.1 164.8 287.1 164.8 289.1 164.8 291.1 164.9 295.1 165.5 299.1 166 303.1 166.4 307.1 167.1 311.1 166.6 315.1 166.1 319.1 165.3 323 164.5 326.9L164.4 326.8C162 339.4 159 351.8 155.3 363.9 154.4 366.9 153.4 369.9 152.3 372.9 151.2 375.8 150.1 378.9 148.3 381.4 147.8 382 147.5 382.4 146.9 382.6 146.3 382.6 146 382.1 145.6 381.4 144.9 380.2 144.2 378.7 143.6 377.2 142.4 374.3 141.3 371.3 140.3 368.2 137.8 359.9 135.5 351.3 133.8 342.6 133 338.2 132.2 333.8 132.7 329.3 132.8 327.1 132.9 324.8 132.5 322.5 132.3 321.4 131.9 320.2 131.1 319.5 130.2 318.7 128.9 318.8 127.9 319.1 126.8 319.6 126.4 320.9 126.1 321.9 125.8 323 125.7 324.2 125.6 325.3 125.5 327.6 125.5 329.9 125.6 332.2 125.8 336.8 126.3 341.3 126.8 345.9 126.8 346.3 126.9 346.7 126.9 347.2L127.1 347.1C123.1 340 118.2 332 116.1 323 115.4 320.8 114.4 318.7 113.2 316.9 111.9 315.1 110.2 313.5 108.2 312.9 106.2 312.2 104 312.6 102.3 313.4 101.5 313.9 101.4 315 101.6 315.9 101.7 316.9 102 317.8 102.4 318.7 103.9 322.4 106 325.8 108 329.2 110.1 332.6 112.2 335.9 114.3 339.2 118.4 345.9 122.4 352.6 125.3 359.9 128.2 367.1 130.9 374.5 134 381.8 137.1 389.1 140.4 396.2 143 403.8 145.1 410.9 146.7 418 147.8 425.3 148.9 432.6 149.3 439.9 149.6 447.2 150.2 461.7 150.6 476.2 150.3 490.4 151 503.9 149.8 518.8 149.3 533.7L149.5 533.2C148.7 538.5 149.3 545.2 148 548.5L148 547.9C147.2 550.7 148.2 554.6 147.4 556.2L147.6 556.7C147.1 560.1 147.3 557.1 146.8 559.7 146.7 560.7 147.2 560.1 146.7 562.2 145.7 562.5 145.5 570.6 144.4 570.6 144.7 568.7 143.5 573.4 144 569.2 143.7 570.4 142.6 576 143.2 575.6 143.6 576.2 143.5 578.5 144.6 575.1L144.4 574.3C145 573.2 144.7 573.4 145.1 573.1 146 568.6 146.6 568.1 147.4 564.9 147.4 564.9 147.4 565 147.4 564.9 147.4 562.6 148.1 559.6 148.4 557.8L148.7 557.1C149.3 556.1 148.7 551.8 149.2 553.3 149.8 548.7 150.3 543.7 150.8 538.5 151.2 533.3 151.3 528 151.5 522.8 151.3 521.3 151.6 514.8 151.1 517.1 151.7 514.5 151.9 506.7 151.8 503.8 151.9 503.9 151.9 504 151.9 504.5 152.6 498.9 151.2 497.9 152.1 492.6 151.4 491.8 152.2 483.1 151.4 480.1 151.5 479.5 151.7 479.2 151.8 479.5 151.7 470.1 151.7 459.6 151.4 451.6 150.6 444.8 151.1 435 149.6 429.2 149.2 424.3 148.2 416.4 146.1 409.8L146.4 410.4C144.5 402.9 141 393.8 138.5 389.2 138.3 386.8 136.9 383.8 135.9 380.7 133.7 376.1 130.4 366.4 127.2 359.2 127.1 357.9 124.5 353.3 124.7 352.7 119.5 342.9 112 333.1 105.7 322.6 104.9 321.3 104.2 319.9 103.6 318.6 103 317.3 102.5 315.7 102.8 314.8 102.9 314.4 103.1 314.3 103.7 314 104.4 313.8 105 313.6 105.7 313.6 107 313.5 108.3 313.8 109.4 314.5 111.7 315.9 113.2 318.5 114.2 321.1 114.7 322.4 115.1 323.8 115.4 325.2 115.7 326.6 116.1 328.2 116.5 329.6L116.4 329.3C117.6 332.2 119.7 335.2 121.4 337.8 121.5 338.1 121.4 338.1 121.1 337.5 123 341 124.5 344.5 126.6 347.9L129.1 351.8 128.3 347.2C128.3 346.9 128.2 346.7 128.2 346.4 128.3 346.4 128.3 346.4 128.5 347.1 127.7 343.2 127.8 338.9 127.1 334.3L127.2 334 126.9 331.1C127.1 331.2 127.3 331.3 127.3 332.9 127.2 330.6 127.1 328.3 127.3 326 127.4 324.9 127.5 323.7 127.7 322.7 127.9 321.7 128.5 320.7 128.6 320.8 131.3 319.3 131.6 324.3 131.5 328 131.5 329.9 131.2 331.9 131.3 334.1 131.4 336.2 131.7 338.2 132 340.3 133.3 348.4 135.4 356.3 137.7 364.1 138.9 368 140.2 371.9 141.7 375.8 142.5 377.7 143.2 379.6 144.3 381.5L145.2 383C145.6 383.5 146.2 384.1 146.9 384.2 148.4 384.4 149.6 382.7 150.1 382 152.4 378.3 153.6 374.4 154.9 370.5 156.2 366.6 157.3 362.6 158.4 358.7L158.2 360.1 159.8 353C159.9 353.1 159.8 353.4 159.8 353.8 162.4 344.9 164.1 335.4 165.9 326.5 166 326.6 165.9 327.9 166.2 326.7 167 320 168.9 316.2 168.1 312.6 168.1 312.3 168.4 312.1 168.4 312.8 168.3 307.1 167.2 301.7 166.7 296.2 166.4 293.5 166.2 290.7 166.4 288 166.6 285.4 167.3 282.4 169.5 282 170.5 281.7 171.5 283.8 171.9 285.5 172.4 287.3 172.6 289.2 172.8 291.1 173.2 294.9 173.3 298.7 173.3 302.6 173.6 308.3 173.5 314.4 173.2 320.5L173.1 322.8 174.2 320.8C176.8 316.3 179.5 311.8 182.3 307.4 183.7 305.2 185.2 303 186.7 300.9 188.2 298.8 189.7 296.7 191.7 295.1L191.7 295.3C192.1 295 192.6 294.8 193.1 295 193.6 295.2 194.1 295.3 194.7 295.4 194.8 295.4 195.1 295.4 195 295.5 194.9 295.6 194.9 295.7 194.8 295.9 194.7 296.1 194.6 296.4 194.4 296.6 194 297.7 193.7 299.1 193.1 300.2 192 302.5 190.7 304.8 189.4 307.1 186.7 311.6 184 316.1 181.2 320.7 179.9 323 178.5 325.3 177.3 327.7 176.7 328.9 176.1 330.1 175.6 331.4 175.1 332.7 174.9 334 174.6 335.3 173.5 340.5 172.5 345.8 171.7 351 170.2 359.9 169.4 366 168.9 375.1L168.7 375.3C168.7 377.2 168.8 379.2 168.9 381.1 169.1 383.1 169.5 385 170.5 386.8 170.7 387.2 171.1 387.7 171.5 388 171.9 388.4 172.6 388.1 172.9 387.8 173.7 387.1 174.2 386.1 174.6 385.2 175.5 383.4 176.3 381.5 177.2 379.7 179 376.1 181.4 372.8 183.6 369.4 185.8 366 188 362.6 190.1 359.2L189.7 360.3C190.7 358 195.3 352.4 194.1 352.8L195.9 350.6C197.2 348.2 198.6 346 199.9 343.9 200.6 342.8 201.3 341.7 201.9 340.6 202.4 339.5 202.8 338.2 203.3 337 204.3 334.6 205.3 332 206.9 329.7 207.3 329.2 207.7 328.5 208.5 328.4 209.3 328.5 209.5 329.4 209.7 330 210.2 331.4 210.2 333.1 210.2 334.7L210.1 333.8C210 337.3 208.6 341.3 207.5 343.7 207.6 343.3 207.5 343.5 207.8 342.7 205 348.7 201.7 354.9 198 361L196.8 363.1 198.5 361.4C201.9 358.1 205.5 354.8 209.7 352.8L208.7 353.7C209.3 353.4 210 353 210.6 352.7 211.3 352.5 212.1 352.2 212.8 352.6 213.2 352.7 213.5 353 213.8 353.3 214 353.4 214.1 353.6 214.2 353.8 214.3 354 214.1 354.2 214 354.3 213.3 354.8 212.4 355.1 211.6 355.6 207.9 357.6 204.4 360.4 201.7 363L201.9 362.6 199.2 365.3 198.9 365.1C195.3 368.3 191.7 371.3 188.8 375.1 185.5 378.2 183.6 382.5 182.2 387"/><path d="M16 449.4 16.1 449C16.4 450.5 16.5 452 17.5 453.3 18.4 454.6 19.4 455.9 20 457.4 21.4 460.4 21.8 463.7 22 466.9L22.1 466.5C22.4 470.5 22.1 474.5 21.8 478.4 21.5 482.3 21.2 486.2 20.9 490 20.3 497.7 19.6 505.4 19 513.4 19 513.2 19.1 513.1 19.1 512.8 19 513.6 18.8 514.4 18.7 515.3 18.7 515.5 18.8 515.1 18.9 514.8 19 518.2 17.9 524.7 18 526.8 17.9 527.7 17.7 528.1 17.7 527.6 17.1 533.8 16.5 540.3 15.8 546.7 15.6 548.3 15.4 549.9 15.1 551.5 14.8 553.1 14.5 554.7 14.1 556.3 13.5 559.5 13 562.7 12.6 565.9 12.6 566.5 12.7 566.6 12.8 566.5 12.4 569.2 12.1 572 11.9 574.7 11.8 576.1 11.7 577.5 11.7 578.9 11.7 579.6 11.7 580.3 11.7 581 11.7 581.4 11.7 581.7 11.8 582.1 11.8 582.3 11.9 582.6 12 582.9 12.1 583.2 12.2 583.4 12.5 583.6 13 584 13.4 584.1 13.7 584.3 14 584.4 14.4 584.6 14.7 584.7 15.4 584.9 16.1 585.1 16.8 585.3 18.2 585.7 19.6 586 21 586.3 23.8 586.8 26.7 587.1 29.6 586.9 30.1 587 28.4 587.1 29.6 587.2 25.8 587.6 22.8 586.6 19.6 586.2L20 586.4C17.6 585.9 19.6 586 17.1 585.5 16.1 585.3 17.3 585.7 16.8 585.6 15.6 585.2 14.3 584.9 13 584.2 12.8 584.1 12.5 583.9 12.3 583.7 12.1 583.5 11.9 583.3 11.8 583 11.7 582.7 11.6 582.4 11.6 582.2L11.6 581.7C11.6 581 11.6 580.4 11.6 579.7 11.6 577.1 11.8 574.6 12.2 572.3 12 571.1 12.6 566.9 12.6 565 12.9 563.7 13 562.4 13.3 561.9 13.6 559.7 13.9 557.5 14.3 555.3 14.8 553.1 15.1 551 15.4 548.8 15.9 544.4 16.4 540 16.8 535.5 17.6 526.6 18.4 517.6 19 508.6 20.2 500.2 20.2 490.1 21.1 480.1 21.1 480 21.1 480 21 480.1 21.3 476.8 21.8 472.1 21.6 468.3L21.7 466.7C21.7 465.9 21.7 465.1 21.7 465.1 21.4 462.5 20.9 460 19.8 457.6 19.3 456.4 18.6 455.4 17.8 454.3 17.4 453.8 17 453.2 16.6 452.6 16.3 452 16 451.2 15.9 450.6 15.3 448.1 14.5 445.6 13.3 443.3 12.1 441 10.4 439 8.5 437.2L2.8 431.7C1.9 430.8 0.9 429.9-0.1 429.1-0.6 428.7-1.1 428.3-1.7 427.9-2 427.7-2.2 427.5-2.5 427.3-2.7 427.1-3.2 426.9-3.6 426.6-4 426.3-4.5 426.1-4.7 425.8-5 425.5-5.2 425.4-5.2 425-5.2 424.6-4.9 424.3-4.5 424.1-4.2 423.8-3.8 423.6-3.4 423.5L-2.8 423.4C-2.6 423.4-2.4 423.4-2.1 423.5-1.6 423.5-1.2 423.8-0.8 423.9-0.1 424.2 0.5 424.6 1.1 425 3.4 426.6 5.3 428.4 7.2 430.3L6.2 431.1C4.9 428.8 3.7 426.6 2.6 424.2 1.2 421.1-0.2 418-0.9 414.7-1.2 413-1.5 411.3-1.1 409.5-1 409.1-0.8 408.3-0.4 407.9-0.1 407.4 0.5 407.1 1.1 407.3 1.6 407.4 2.1 407.9 2.5 408.4 2.9 409 3.1 409.3 3.2 409.7 3.9 411.2 4.4 412.8 4.9 414.3 5.1 415 5.3 416 5.6 416.5 5.9 417.1 6.3 417.8 6.7 418.5 8.3 421.2 10 423.9 11.6 426.6 14.9 432 18.3 437.2 21.1 443.1 21.8 444.6 22.3 446.1 22.8 447.6 22.9 448 23.1 448.3 23.2 448.6L23.3 448.8 23.4 448.9C23.4 449 23.5 449 23.5 449.1 23.6 449.2 23.8 449.3 23.9 449.2 24 449.1 24.1 448.9 24.3 448.7 24.7 448 24.9 447.4 25.1 446.7 25.2 445.9 25.4 445.2 25.4 444.4 25.6 442.8 25.6 441.2 25.6 439.5 25.5 439.5 25.5 439.3 25.5 440 25.4 432.4 24.3 425.6 23.5 418.5L23.4 418.5C23.2 417 23 415.5 22.8 414 22.7 413.3 22.6 412.5 22.4 411.8 22.2 411.1 21.9 410.4 21.6 409.7 20.4 406.9 19 404.2 17.5 401.4 16 398.7 14.6 395.9 13.1 393.2 12.4 391.8 11.7 390.5 11.1 388.9 10.8 388.1 10.8 387.6 10.3 386.5 9.6 385.4 11.1 385.5 11.9 385.2 12.4 385 12.9 385.2 13.3 385.5 13.6 385.7 13.9 386 14.2 386.3 14.7 386.9 15.2 387.4 15.6 388 16.5 389.2 17.3 390.4 18 391.7 19.5 394.2 20.8 396.7 22.1 399.2 22.9 400.7 23.7 402.2 24.6 404L24.2 404.1C24.1 399.7 24.2 395.1 24.4 390.4 24.6 388 24.8 385.6 25.2 383.2 25.4 382 25.7 380.8 26.1 379.6 26.3 379 26.6 378.4 26.9 377.9 27.2 377.4 27.9 376.9 28.7 377.1 29.4 377.3 30 377.8 30.4 378.4 30.8 379 31 379.7 31.1 380.4 31.3 381.8 31.3 383.1 31.2 384.5 31 387.2 30.5 390 30 392.7 29.6 395.4 29 398.2 29.2 400.9 29.4 403.6 29.8 406.4 30.2 409.1L30.3 409C31.6 417.7 33.2 426.3 35.3 434.7 35.8 436.8 36.4 438.9 37.1 440.9 37.8 442.9 38.4 445 39.5 446.8 39.8 447.2 40 447.5 40.4 447.6 40.8 447.6 41 447.3 41.3 446.8 41.8 446 42.3 445 42.8 444 43.7 442 44.5 440 45.4 438 47.4 432.4 49.2 426.6 50.7 420.6 51.4 417.6 52.1 414.6 51.9 411.5 51.9 410 51.9 408.4 52.3 406.9 52.5 406.2 52.8 405.4 53.4 404.9 54 404.4 54.9 404.5 55.6 404.8 56.4 405.2 56.6 406.1 56.7 406.8 56.8 407.6 56.9 408.4 56.9 409.2 56.9 410.8 56.8 412.4 56.7 413.9 56.4 417 55.9 420.1 55.4 423.2 55.4 423.5 55.3 423.8 55.3 424.1L55 424C57.9 419.3 61.6 413.9 63.3 407.9 63.9 406.4 64.6 405 65.5 403.8 66.4 402.6 67.6 401.6 69 401.2 70.4 400.8 71.9 401.1 73 401.7 73.5 402.1 73.6 402.8 73.4 403.5 73.3 404.1 73.1 404.8 72.8 405.4 71.7 407.9 70.1 410.1 68.6 412.4 67.1 414.6 65.5 416.8 64 419.1 60.9 423.5 58 428 55.8 432.9 53.6 437.8 51.5 442.8 49.2 447.6 46.9 452.5 44.3 457.3 42.3 462.4 40.6 467.2 39.3 472 38.3 477 37.3 481.9 36.8 486.9 36.4 491.9 35.5 501.8 34.8 511.7 34.6 521.5 33.7 530.7 34 540.9 33.9 551.2L33.8 550.8C34.2 554.5 33.5 559 34.4 561.3L34.4 560.9C34.9 562.8 34 565.5 34.5 566.6L34.4 566.9C34.6 569.3 34.6 567.2 34.9 569 35 569.7 34.6 569.3 34.9 570.7 35.6 570.9 35.5 576.5 36.2 576.5 36 575.2 36.8 578.5 36.5 575.6 36.7 576.4 37.2 580.3 36.9 580 36.6 580.4 36.6 582 36 579.6L36.2 579.1C35.8 578.3 36 578.5 35.8 578.2 35.3 575.1 34.9 574.7 34.5 572.5 34.5 572.5 34.5 572.5 34.5 572.5 34.6 570.9 34.2 568.8 34 567.6L33.8 567.1C33.4 566.4 34 563.5 33.6 564.5 33.4 561.3 33.1 557.9 33 554.3 32.9 550.7 33 547.1 33.1 543.5 33.3 542.5 33.3 538 33.6 539.6 33.3 537.8 33.4 532.5 33.5 530.5 33.5 530.6 33.4 530.7 33.4 531 33.1 527.1 34.1 526.5 33.7 522.9 34.2 522.4 33.9 516.4 34.6 514.4 34.5 514 34.5 513.8 34.4 514 34.8 507.5 35.1 500.4 35.5 494.9 36.3 490.3 36.2 483.5 37.5 479.6 37.9 476.3 38.9 470.9 40.5 466.4L40.3 466.8C41.9 461.7 44.5 455.6 46.4 452.5 46.6 450.9 47.7 448.9 48.4 446.7 50.1 443.6 52.7 437.1 55.1 432.2 55.2 431.3 57.1 428.2 57 427.8 60.9 421.2 66.3 414.8 71 407.8 71.6 406.9 72.1 406 72.6 405.1 73 404.2 73.4 403.2 73.3 402.5 73.2 402.2 73.1 402.1 72.7 402 72.3 401.8 71.8 401.7 71.4 401.6 70.5 401.5 69.6 401.7 68.8 402.1 67.2 403 66.1 404.7 65.3 406.4 64.9 407.3 64.6 408.2 64.4 409.2 64.2 410.1 63.8 411.2 63.5 412.2L63.6 412C62.7 414 61.2 415.9 59.9 417.7 59.8 417.9 59.9 417.9 60.1 417.5 58.7 419.9 57.6 422.2 56 424.4L54.1 427 54.8 423.9C54.8 423.7 54.9 423.5 54.9 423.3 54.8 423.3 54.8 423.3 54.7 423.8 55.4 421.2 55.4 418.2 56.1 415.1L56 414.9 56.3 412.9C56.2 412.9 56 413 55.9 414.1 56 412.5 56.2 410.9 56.1 409.3 56.1 408.5 56 407.7 55.9 407 55.8 406.3 55.4 405.6 55.3 405.7 53.5 404.6 53.1 408 53.1 410.6 53.1 411.9 53.2 413.3 53.1 414.8 52.9 416.2 52.7 417.6 52.4 419 51.2 424.5 49.6 429.8 47.7 435.1 46.8 437.7 45.8 440.4 44.6 443 44 444.3 43.4 445.5 42.6 446.8L42 447.8C41.7 448.2 41.3 448.6 40.8 448.6 39.8 448.7 39 447.5 38.7 447 37.3 444.4 36.6 441.7 35.8 439 35 436.3 34.4 433.5 33.8 430.8L33.9 431.7 33 426.8C32.9 426.8 33 427.1 33 427.3 31.5 421.1 30.7 414.5 29.7 408.4 29.7 408.4 29.7 409.4 29.5 408.5 29.2 403.9 28 401.2 28.7 398.8 28.7 398.6 28.5 398.4 28.5 398.9 28.8 395 29.7 391.3 30.2 387.6 30.5 385.7 30.7 383.8 30.7 382 30.7 380.2 30.3 378.1 28.8 377.8 28.1 377.6 27.4 378.9 27.1 380.1 26.7 381.3 26.5 382.6 26.3 383.9 25.9 386.5 25.7 389.1 25.6 391.8 25.2 395.7 25.1 399.9 25.1 404.1L25.1 405.7 24.4 404.3C22.8 401.1 21.1 398 19.3 394.8 18.4 393.2 17.5 391.7 16.5 390.2 15.5 388.7 14.6 387.2 13.3 386.1L13.3 386.2C13 386 12.7 385.8 12.4 385.9 12 386 11.7 386.1 11.3 386.1 11.2 386.1 11 386.1 11.1 386.2 11.1 386.3 11.2 386.4 11.2 386.4 11.3 386.6 11.4 386.7 11.4 386.9 11.7 387.7 11.8 388.6 12.2 389.4 12.9 391 13.7 392.6 14.5 394.2 16.2 397.4 17.9 400.5 19.7 403.7 20.5 405.3 21.4 406.9 22.2 408.6 22.6 409.4 22.9 410.3 23.2 411.2 23.5 412.1 23.6 413 23.8 413.9 24.4 417.5 24.9 421.1 25.3 424.7 26 430.9 26.4 435 26.5 441.3L26.6 441.5C26.5 442.8 26.4 444.1 26.3 445.5 26.1 446.8 25.8 448.2 25 449.4 24.8 449.7 24.6 450 24.3 450.2 24 450.4 23.6 450.3 23.3 450 22.8 449.5 22.5 448.8 22.2 448.2 21.6 446.9 21.2 445.6 20.6 444.4 19.4 441.9 18 439.5 16.6 437.1 15.2 434.7 13.8 432.3 12.5 429.9L12.7 430.6C12.1 429 9.1 425 9.9 425.3L8.8 423.7C8 422 7.1 420.5 6.2 418.9 5.8 418.1 5.3 417.4 5 416.6 4.7 415.8 4.4 414.9 4.1 414.1 3.5 412.4 2.9 410.6 1.9 409 1.6 408.6 1.4 408.2 0.9 408.1 0.4 408.1 0.2 408.7-4.996e-15 409.2-0.4 410.1-0.5 411.3-0.5 412.4L-0.4 411.8C-0.4 414.2 0.4 417 1.1 418.6 1 418.3 1.1 418.4 0.9 417.9 2.6 422.1 4.7 426.4 7 430.7L7.8 432.1 6.1 431C3.9 428.6 1.5 426.3-1.3 424.7L-0.6 425.3C-1 425-1.5 424.8-1.9 424.6-2.3 424.4-2.9 424.2-3.4 424.4-3.7 424.5-3.9 424.7-4.1 424.8-4.2 424.9-4.3 425-4.4 425.1-4.5 425.2-4.4 425.4-4.3 425.5-3.8 425.8-3.2 426.1-2.7 426.4-0.3 427.9 2.1 429.9 3.9 431.8L3.8 431.5 5.5 433.4 5.7 433.3C8.1 435.6 10.5 437.8 12.3 440.5 14 443.2 15.2 446.2 16 449.4"/><path d="M-35.5 479.6-35.4 479.3C-34.6 483.8-32.8 488.6-31.1 493L-31.2 492.7C-28.8 498.3-26 503.5-22 507.7-17.9 511.9-13.3 515.5-8 518.5-8.2 518.4-8.2 518.3-8.3 518.2-7.8 518.5-7.3 518.9-6.7 519.2-6.5 519.2-6.8 519-7 518.9-4.6 519.9-0.3 522.2 1.3 522.5 2 522.8 2.2 523 1.8 523 10.8 526.2 20.9 527.7 30.6 528 31.1 528 31.2 527.9 31 527.7 39.3 528.2 48 527 56.2 525.2 56.6 525.3 55.4 525.5 56.2 525.5 53.6 526.2 51.2 526.2 48.8 526.8L49.1 526.9C47.3 527.3 48.7 526.6 46.9 527.1 46.2 527.3 47.1 527.2 46.8 527.3 43 527.8 39 528.2 35.4 528.1 34.5 528.5 31.3 528.2 29.9 528.5 28.9 528.4 27.9 528.4 27.5 528.2 14.1 528 0.3 524.7-11.5 517.4-12.8 516.5-14.1 515.4-15.6 514.4-17 513.3-18.4 512.3-19.8 511-21.2 509.8-22.6 508.6-23.9 507.2-25.2 505.8-26.4 504.2-27.3 502.6-27.3 502.6-27.4 502.6-27.3 502.6-28.6 500.4-30.2 497.2-31.5 494.5L-32.3 492.1C-35.8 483.9-37.9 475.1-39.2 466.2-40.5 457.3-41.2 448.2-41.4 439.2-41.6 429-41.3 419.3-40.4 409.8-39.5 400.3-38 390.9-35.4 381.2-35.5 381.2-35.5 381-35.6 381.5-34.2 375.9-33 370.8-31.2 365.7L-31.3 365.7C-28.9 359.4-26.4 352.9-23 346.8-19.6 340.7-15.4 335-10.1 331.2-7 328.7-3.2 326.9 0.9 326 4.9 324.9 9.1 324.2 13.3 323.8 21.8 322.9 30.5 323 38.7 323.9L38.7 323.8C45.3 324.6 51.8 325.7 58.2 327.4 64.5 329.2 70.7 331.6 76.3 335.3 79.2 337.1 82 339.3 84.5 341.8 87 344.3 89.1 347.2 90.6 350.4 92.2 353.6 93.3 357 94.2 360.3 95.1 363.7 95.8 367.1 96.5 370.5 98.5 378.9 98.1 390.2 98.9 398.2 100.3 414.7 99.2 430.7 98.7 447.2 98.9 454.8 99 462.4 99.9 469.9 100.5 477.4 98 484.7 94.7 491.2 90.9 497 86.7 503.5 81 508.9L81.1 508.6C79.4 510.9 76.2 512.4 75.3 514L75.5 513.8C74.6 515 72.4 515.4 71.9 516.3L71.6 516.3C70.2 517.4 71.5 516.6 70.5 517.5 70.1 517.8 70.2 517.4 69.4 518.1 69.6 518.8 65.8 520.6 66.1 521.2 66.9 520.6 65 522.3 66.9 521.2 66.4 521.6 63.9 523.3 64 522.9 63.6 522.8 62.5 523.2 63.9 522L64.3 522C64.7 521.5 64.6 521.6 64.7 521.4 66.6 520 66.7 519.5 67.9 518.4 67.9 518.4 67.9 518.4 67.9 518.4 69 517.9 70.2 516.8 70.8 516.2L71 515.9C71.3 515.3 73.4 514.6 72.6 514.7 76.4 511.7 80.4 508 84.1 504 84.8 503.6 86.8 500.9 86.3 502 86.9 500.7 89.3 497.6 90.2 496.4 90.1 496.4 90.1 496.4 89.9 496.6 90.5 495.3 91.1 494.7 91.6 494 92.1 493.4 92.7 492.8 93.1 491.4 93.8 491.3 95.3 487.1 96.4 486 96.5 485.7 96.4 485.5 96.3 485.6 97.2 483.4 98 481 98.5 478.7 98.9 476.3 99.2 474.1 99.1 472.1 99.3 470.4 99 468.4 98.7 466.3 98.4 464.2 98.3 462.2 98.5 460.6 98.2 458.1 97.9 454 98.1 450.5L98 450.8C98 446.8 98 441.9 98.4 439.1 97.9 437.9 98 436.2 97.9 434.5 98.2 431.9 98.2 426.5 98.4 422.5 98.2 421.9 98.5 419.2 98.2 419 98.9 407.7 98.6 393.7 96.9 381.8L96.9 382C96.9 380.4 97.2 378.6 97.2 377 97.2 376.8 97.1 376.9 97.1 377.2 96.9 375 96.3 373 96 370.8 95.9 370.8 95.9 370.8 95.9 371.2 95.7 369.1 94.9 367.1 94.6 364.7L94.5 364.6 94.3 363.1C94.2 363.2 94 363.3 94.3 364.1 93.2 359.6 91.8 355 89.7 350.8 89.2 349.7 88.6 348.8 88 347.8 87.4 346.8 86.7 345.9 85.9 345 84.3 343.2 82.7 341.5 80.9 340 73.6 333.8 64.5 329.8 55.2 327.4L55.9 327.7C55.9 327.7 55 327.4 54.1 327.1 53.2 326.8 52.3 326.6 52.3 326.6 52.3 326.7 52.5 326.7 52.6 326.8 47.9 325.9 43.1 324.8 38.4 324.4 38.4 324.5 39.1 324.6 38.5 324.6 35.1 324 33 324.6 31.3 323.9 31.1 323.9 31 324.1 31.4 324.1 21.8 323.5 11.9 324.2 2.5 326.5 0.5 326.9-1.5 327.3-3.4 328.1-5.3 328.9-7.2 329.9-8.9 331.2-12.3 333.8-15.3 337-17.9 340.2L-17.8 340.2C-24.5 348.8-28.5 359.9-31.8 370.6-33.1 375.1-34 378.1-35 382.7L-34.9 382.8C-37.2 390.4-37.5 399.2-39 407.3L-38.7 406.8C-39.2 408-39.1 411.8-39.6 411.2L-39.6 412.7C-40.8 418.2-40 422.9-40.6 429.8L-40.5 429.4C-40.6 431.2-40.7 433.4-40.6 434.7-40.6 434.5-40.5 434.6-40.5 434.1-40 439.8-40.4 446.2-39.9 452.2L-39.7 451.5C-39.8 454.4-39 459.7-38.6 463.6L-38.5 463.4-38.4 465.3-38.2 465.3C-37.4 470.2-36.7 474.8-35.5 479.6"/></g><g id="change7_3"><path d="M39.3 579.4C39.3 579.4 37.1 567 36.4 554 35.7 541 38.7 492.1 39.8 483.3 41.9 466.7 47.3 456.9 50.6 449.7 54.3 441.6 56.1 436.8 58.6 431.7 65.1 418.4 79.8 404.6 75 402.6 70.3 400.6 66.5 404.5 64.9 410.6 63.3 416.7 57.1 425.1 57.1 425.1 57.1 425.1 60.7 407.3 57.3 406.1 53.9 404.9 53.5 408.8 53.8 414.4 54.1 420 47.5 442.2 43.2 448.3 38.9 454.5 30.6 407.8 30.3 401.5 29.9 395.2 35.2 380.2 29.8 378.9 24.8 377.7 25.7 405.4 25.7 405.4 25.7 405.4 15.6 386.3 13 387.3 10.4 388.2 11.3 386.6 12.2 390 13.1 393.4 23.5 409.4 24.2 413.7 25.4 420.8 29 443.8 26.7 449 24.4 454.2 23.4 448.2 21.3 444 18 437.4 5.9 419.9 5.2 417.6 4.6 415.9 1.6 405.1 0.1 411.2-1.4 417.3 7.5 431.9 7.5 431.9 7.5 431.9-0.4 423.8-3 425.6-5.5 427.4-3 425.6 4.9 433.1 11.2 439.2 15.6 441.8 17.8 451.9 18.7 456 24.8 456.2 23.5 476.1 22.8 486.3 19.5 544.1 17.4 553.6 15.3 563.2 14.3 580.9 15 582.1 16 583.5 39.9 590.2 39.3 579.4" fill="#4F3D16"/></g><g fill="#EF2966"><g id="change6_3"><path d="M67.1 372.1C67.1 372.1 63.9 367 68.4 359.8 73.6 351.3 79.2 369.6 67.1 372.1Z"/><path d="M67.7 371.5C67.7 371.5 72.2 367.5 80.1 370.8 89.3 374.6 72.1 383 67.7 371.5Z"/><path d="M69.2 371.2C69.2 371.2 72.5 376.3 68.2 383.6 63 392.1 57.1 374 69.2 371.2Z"/><path d="M67.6 371.8C67.6 371.8 63.1 375.8 55.2 372.5 46.1 368.7 63.3 360.3 67.6 371.8Z"/></g><g id="change6_2"><path d="M-16.8 403.9C-16.8 403.9-20.9 405.8-25.9 401.7-31.6 396.9-17.4 394.6-16.8 403.9Z"/><path d="M-17.1 403.3C-17.1 403.3-19.6 399.5-16.4 394-12.7 387.6-8.1 401.2-17.1 403.3Z"/><path d="M-17.2 402.2C-17.2 402.2-13.1 400.2-8.1 404.2-2.2 408.8-16.3 411.5-17.2 402.2Z"/><path d="M-16.9 403.4C-16.9 403.4-14.4 407.2-17.6 412.7-21.3 419.2-25.9 405.5-16.9 403.4Z"/></g><g id="change6_11"><path d="M17.2 355.3C17.2 355.3 13.9 357.3 9.2 354.4 3.7 351 15.6 347.5 17.2 355.3Z"/><path d="M16.8 354.9C16.8 354.9 14.2 351.9 16.4 346.9 18.9 340.9 24.3 352.1 16.8 354.9Z"/><path d="M16.6 354C16.6 354 19.9 351.9 24.6 354.7 30.2 358 18.4 361.8 16.6 354Z"/><path d="M17 354.9C17 354.9 19.6 357.9 17.4 362.9 14.9 368.9 9.5 357.7 17 354.9Z"/></g><g id="change6_4"><path d="M77.4 444.9C77.4 444.9 73.7 446.6 69.3 442.9 64.2 438.8 76.8 436.7 77.4 444.9Z"/><path d="M77.1 444.4C77.1 444.4 74.9 441 77.7 436.1 81 430.4 85.1 442.5 77.1 444.4Z"/><path d="M77 443.5C77 443.5 80.6 441.7 85.1 445.3 90.4 449.3 77.8 451.7 77 443.5Z"/><path d="M77.3 444.5C77.3 444.5 79.5 447.9 76.7 452.8 73.3 458.5 69.2 446.4 77.3 444.5Z"/></g><g id="change6_5"><path d="M5.6 473.8C5.6 473.8 1.1 473.3-1.1 467.3-3.7 460.3 9.7 465.5 5.6 473.8Z"/><path d="M5.5 473.2C5.5 473.2 5.3 468.7 10.8 465.5 17.4 461.9 14.4 475.9 5.5 473.2Z"/><path d="M6 472.2C6 472.2 10.5 472.6 12.8 478.5 15.6 485.5 2.1 480.6 6 472.2Z"/><path d="M5.7 473.4C5.7 473.4 5.9 477.9 0.4 481.1-6.1 484.7-3.2 470.6 5.7 473.4Z"/></g></g><g><g><g id="change3_14"><path d="M67.4 373.6C67.4 373.5 65.1 370.9 65.1 366.1L65.1 366.1C65.1 364.1 65.5 361.7 66.7 359L66.7 359C67.6 356.8 68.9 355.7 70.2 355.7L70.2 355.7C73 355.8 74.9 359.7 75 363.8L75 363.8C75 367.6 73.1 371.8 68 373.7L68 373.7 67.7 373.8 67.4 373.6 67.4 373.6ZM67.8 373.3 68.2 373 67.8 373.3 67.8 373.3ZM67.6 359.4C66.5 362 66.1 364.2 66.1 366.1L66.1 366.1C66.1 368.3 66.6 370 67.2 371.2L67.2 371.2C67.5 371.9 67.8 372.4 68 372.7L68 372.7C72.5 370.9 74 367.3 74 363.9L74 363.9C74 362 73.5 360.2 72.7 358.9L72.7 358.9C71.9 357.6 71 356.8 70.2 356.9L70.2 356.9C70.2 356.9 70.2 356.9 70.2 356.9L70.2 356.9C69.4 356.8 68.5 357.4 67.6 359.4L67.6 359.4Z" fill="#FFFFFF"/></g><g id="change3_21"><path d="M68 372.7 68.4 372.5 68.8 372.8 68.4 372.5 68 372.7 67.8 372.4 68 372.1C68 372 71.1 368.4 77.5 368.4L77.5 368.4C78.9 368.4 80.5 368.6 82.2 369L82.2 369C84.7 369.6 86 370.9 86 372.4L86 372.4C85.9 375.4 81.6 378.1 76.9 378.2L76.9 378.2C76.9 378.2 76.9 378.2 76.9 378.2L76.9 378.2C73.8 378.2 70.3 376.7 68 372.7L68 372.7ZM77.1 377.2C79.2 377.2 81.3 376.5 82.8 375.6L82.8 375.6C84.3 374.6 85.2 373.4 85.2 372.5L85.2 372.5C85.2 371.6 84.5 370.7 82.1 370.1L82.1 370.1C80.5 369.7 79 369.5 77.6 369.5L77.6 369.5C73.1 369.5 70.4 371.4 69.3 372.3L69.3 372.3C69.2 372.4 69.1 372.5 69 372.5L69 372.5C71.2 376 74.2 377.2 77.1 377.2L77.1 377.2Z" fill="#FFFFFF"/></g><g id="change3_16"><path d="M63 381.3C63 377.6 64.8 373.5 69.8 371.5L69.8 371.5 70.1 371.4 70.3 371.7C70.3 371.8 72.8 374.5 72.8 379.5L72.8 379.5C72.8 381.4 72.4 383.7 71.4 386.3L71.4 386.3C70.5 388.5 69.3 389.7 67.9 389.7L67.9 389.7C65.2 389.4 63.1 385.5 63 381.3L63 381.3ZM64 381.3C64 383.2 64.5 385.1 65.3 386.4L65.3 386.4C66.1 387.8 67.1 388.5 67.9 388.5L67.9 388.5C68.7 388.5 69.7 387.9 70.5 385.8L70.5 385.8C71.5 383.3 71.8 381.2 71.8 379.4L71.8 379.4C71.8 377.1 71.2 375.3 70.7 374.1L70.7 374.1C70.4 373.4 70 372.9 69.8 372.6L69.8 372.6C65.5 374.5 64 378 64 381.3L64 381.3Z" fill="#FFFFFF"/></g><g id="change3_3"><path d="M54.6 376.3C52.1 375.7 50.8 374.4 50.8 372.9L50.8 372.9C50.9 369.9 55.2 367.2 59.9 367.1L59.9 367.1C63.2 367.1 66.7 368.6 68.9 372.6L68.9 372.6 68.5 372.8 68.9 372.6 69 373 68.8 373.3C68.8 373.4 65.7 377 59.3 377L59.3 377C57.9 376.9 56.3 376.7 54.6 376.3L54.6 376.3ZM54.1 369.8C52.6 370.8 51.7 372 51.7 372.9L51.7 372.9C51.7 373.8 52.4 374.7 54.8 375.3L54.8 375.3C56.4 375.7 57.9 375.9 59.3 375.9L59.3 375.9C63.8 375.9 66.5 374 67.6 373.1L67.6 373.1C67.7 373 67.8 372.9 67.9 372.9L67.9 372.9C65.8 369.4 62.8 368.2 59.9 368.2L59.9 368.2C59.9 368.2 59.9 368.2 59.9 368.2L59.9 368.2C57.7 368.2 55.6 368.8 54.1 369.8L54.1 369.8Z" fill="#FFFFFF"/></g></g><g><g id="change3_10"><path d="M-26.6 403C-28 402.2-28.8 401.2-28.8 400.2L-28.8 400.2C-28.7 398.1-26.1 397-23.3 397L-23.3 397C-20.1 397-16.4 398.7-15.3 403.4L-15.3 403.4-15.8 403.5-15.3 403.4-15.2 403.7-15.5 403.9C-15.6 403.9-17.2 405-20 405L-20 405C-21.8 405-24 404.5-26.6 403L-26.6 403ZM-26.5 398.7C-27.3 399.1-27.7 399.7-27.7 400.2L-27.7 400.2C-27.7 400.7-27.3 401.4-26 402.2L-26 402.2C-23.6 403.6-21.5 404-19.9 404L-19.9 404C-18.7 404-17.7 403.8-17 403.5L-17 403.5C-16.7 403.4-16.5 403.3-16.3 403.2L-16.3 403.2C-17.4 399.3-20.4 398-23.2 398L-23.2 398C-24.5 397.9-25.7 398.2-26.5 398.7L-26.5 398.7Z" fill="#FFFFFF"/></g><g id="change3_8"><path d="M-16.7 403.2C-16.7 403.1-18.7 401-18.7 397.2L-18.7 397.2C-18.7 395.7-18.4 394.1-17.7 392.2L-17.7 392.2C-17 390.5-16.1 389.6-14.9 389.6L-14.9 389.6C-12.7 389.7-11.1 392.7-11 396L-11 396C-11 398.8-12.4 401.9-16.1 403.4L-16.1 403.4-16.4 403.5-16.7 403.2-16.7 403.2ZM-16.3 402.9-15.9 402.6-16.3 402.9-16.3 402.9ZM-16.7 392.5C-17.4 394.3-17.6 395.9-17.6 397.2L-17.6 397.2C-17.6 398.9-17.2 400.3-16.7 401.2L-16.7 401.2C-16.5 401.7-16.2 402-16.1 402.3L-16.1 402.3C-13 400.9-12 398.4-11.9 395.9L-11.9 395.9C-11.9 394.5-12.3 393.1-12.9 392.1L-12.9 392.1C-13.5 391.1-14.2 390.6-14.8 390.6L-14.8 390.6C-14.8 390.6-14.8 390.6-14.8 390.6L-14.8 390.6C-15.4 390.5-16.1 391-16.7 392.5L-16.7 392.5Z" fill="#FFFFFF"/></g><g id="change3_11"><path d="M-17 401.8-16.5 401.7-16.2 402.1-16.5 401.7-17 401.8-17.1 401.5-16.8 401.3C-16.7 401.3-15 400.1-12.1 400.1L-12.1 400.1C-10.3 400.1-8.2 400.5-5.7 401.9L-5.7 401.9C-4.2 402.7-3.5 403.7-3.5 404.7L-3.5 404.7C-3.6 406.8-6.3 408-9.1 408L-9.1 408C-9.1 408-9.1 408-9.2 408L-9.2 408C-12.3 408-15.9 406.3-17 401.8L-17 401.8ZM-9.1 407C-7.8 407-6.6 406.7-5.8 406.2L-5.8 406.2C-4.9 405.7-4.5 405.1-4.5 404.7L-4.5 404.7C-4.5 404.2-4.9 403.5-6.2 402.7L-6.2 402.7C-8.5 401.4-10.5 401-12.1 401L-12.1 401C-13.4 401-14.5 401.3-15.2 401.5L-15.2 401.5C-15.5 401.6-15.8 401.7-16 401.8L-16 401.8C-14.8 405.7-11.8 407-9.1 407L-9.1 407Z" fill="#FFFFFF"/></g><g id="change3_24"><path d="M-21.3 409.9C-21.3 407.1-19.9 404-16.2 402.5L-16.2 402.5-15.9 402.4-15.7 402.7C-15.7 402.8-13.7 404.9-13.7 408.7L-13.7 408.7C-13.7 410.1-14 411.8-14.7 413.7L-14.7 413.7C-15.4 415.4-16.3 416.3-17.5 416.3L-17.5 416.3C-19.7 416.1-21.3 413.1-21.3 409.9L-21.3 409.9ZM-20.3 409.9C-20.3 411.3-19.9 412.7-19.3 413.7L-19.3 413.7C-18.7 414.7-18 415.2-17.4 415.2L-17.4 415.2C-16.9 415.2-16.2 414.8-15.6 413.2L-15.6 413.2C-14.9 411.4-14.7 409.8-14.7 408.5L-14.7 408.5C-14.7 406.7-15.1 405.4-15.6 404.5L-15.6 404.5C-15.8 404-16.1 403.7-16.2 403.4L-16.2 403.4C-19.3 405-20.3 407.5-20.3 409.9L-20.3 409.9Z" fill="#FFFFFF"/></g></g><g><g id="change3_12"><path d="M8.7 355.7C7.3 355.1 6.5 354.2 6.5 353.2L6.5 353.2C6.6 351.2 9.2 350 11.9 349.9L11.9 349.9C14.4 349.9 17.3 351.2 18.5 354.6L18.5 354.6 18 354.8 18.5 354.6 18.6 354.9 18.3 355.1C18.2 355.1 16.5 356.6 13.4 356.6L13.4 356.6C13.4 356.6 13.4 356.6 13.4 356.6L13.4 356.6C12 356.7 10.4 356.4 8.7 355.7L8.7 355.7ZM8.7 351.7C7.9 352.2 7.5 352.8 7.5 353.2L7.5 353.2C7.5 353.6 7.8 354.2 9.1 354.7L9.1 354.7C10.8 355.4 12.2 355.7 13.4 355.7L13.4 355.7C14.8 355.7 15.9 355.4 16.6 355L16.6 355C16.9 354.8 17.2 354.7 17.4 354.6L17.4 354.6C16.2 351.8 14 350.9 11.9 350.9L11.9 350.9C11.9 350.9 11.9 350.9 11.9 350.9L11.9 350.9C10.6 350.9 9.5 351.3 8.7 351.7L8.7 351.7Z" fill="#FFFFFF"/></g><g id="change3_5"><path d="M17.1 354.8C17 354.8 14.7 352.7 14.7 348.5L14.7 348.5C14.7 347.6 14.8 346.5 15.1 345.4L15.1 345.4C15.5 343.7 16.4 342.8 17.5 342.8L17.5 342.8C19.6 342.9 21.3 345.8 21.4 348.8L21.4 348.8C21.4 351 20.4 353.3 17.7 354.8L17.7 354.8 17.4 355 17.1 354.8 17.1 354.8ZM17.5 354.4 17.8 354 17.5 354.4 17.5 354.4ZM16.1 345.6C15.8 346.7 15.7 347.6 15.7 348.5L15.7 348.5C15.7 351.3 16.9 353 17.5 353.7L17.5 353.7C17.5 353.7 17.5 353.7 17.6 353.8L17.6 353.8C19.7 352.5 20.4 350.6 20.5 348.8L20.5 348.8C20.5 347.5 20.1 346.2 19.5 345.2L19.5 345.2C18.9 344.2 18.1 343.7 17.6 343.7L17.6 343.7C17.6 343.7 17.6 343.7 17.6 343.7L17.6 343.7C17.1 343.8 16.5 344.1 16.1 345.6L16.1 345.6Z" fill="#FFFFFF"/></g><g id="change3_9"><path d="M16.7 353.6 17.2 353.4 17.5 353.8 17.2 353.4 16.7 353.6 16.6 353.3 16.9 353.1C17 353.1 18.8 351.5 22 351.5L22 351.5C23.3 351.5 24.8 351.8 26.5 352.4L26.5 352.4C28 353 28.8 353.8 28.8 354.9L28.8 354.9C28.7 356.9 26.1 358.2 23.3 358.2L23.3 358.2C23.3 358.2 23.3 358.2 23.2 358.2L23.2 358.2C20.7 358.1 17.9 356.9 16.7 353.6L16.7 353.6ZM23.2 357.1C24.4 357.1 25.6 356.8 26.4 356.3L26.4 356.3C27.2 355.8 27.7 355.2 27.7 354.8L27.7 354.8C27.7 354.4 27.4 353.8 26 353.3L26 353.3C24.4 352.7 23 352.4 21.9 352.4L21.9 352.4C20.4 352.4 19.3 352.8 18.6 353.1L18.6 353.1C18.2 353.3 18 353.4 17.8 353.6L17.8 353.6C18.9 356.2 21.1 357.1 23.2 357.1L23.2 357.1Z" fill="#FFFFFF"/></g><g id="change3_23"><path d="M13.8 360C13.8 357.8 14.8 355.5 17.5 354L17.5 354 17.8 353.8 18.1 354C18.2 354 20.5 356.1 20.5 360.3L20.5 360.3C20.5 361.2 20.4 362.3 20.1 363.4L20.1 363.4C19.7 365.1 18.8 366 17.7 366L17.7 366C15.6 366 13.9 363.1 13.8 360L13.8 360ZM14.8 360C14.8 361.3 15.2 362.6 15.8 363.6L15.8 363.6C16.4 364.6 17.2 365.1 17.7 365.1L17.7 365.1C18.1 365.1 18.7 364.8 19.1 363.2L19.1 363.2C19.4 362.1 19.5 361.2 19.5 360.3L19.5 360.3C19.5 357.5 18.3 355.8 17.7 355.1L17.7 355.1C17.7 355.1 17.7 355.1 17.6 355L17.6 355C15.5 356.4 14.8 358.2 14.8 360L14.8 360Z" fill="#FFFFFF"/></g></g><g><g id="change3_22"><path d="M68.6 444.2C67.3 443.4 66.6 442.6 66.6 441.6L66.6 441.6C66.7 439.7 69 438.7 71.5 438.7L71.5 438.7C74.3 438.7 77.7 440.2 78.7 444.4L78.7 444.4 78.2 444.5 78.7 444.4 78.8 444.7 78.5 444.9C78.4 444.9 77 445.9 74.5 445.9L74.5 445.9C72.9 446 70.9 445.5 68.6 444.2L68.6 444.2ZM68.7 440.3C68 440.7 67.6 441.2 67.6 441.6L67.6 441.6C67.6 442 67.9 442.6 69.1 443.3L69.1 443.3C71.2 444.5 73 444.9 74.5 444.9L74.5 444.9C75.6 444.9 76.5 444.7 77.1 444.5L77.1 444.5C77.3 444.4 77.5 444.3 77.7 444.3L77.7 444.3C76.7 440.9 74 439.7 71.6 439.7L71.6 439.7C71.6 439.7 71.6 439.7 71.6 439.7L71.6 439.7C70.5 439.7 69.4 440 68.7 440.3L68.7 440.3Z" fill="#FFFFFF"/></g><g id="change3_4"><path d="M77.4 444.4C77.4 444.3 75.6 442.5 75.6 439L75.6 439C75.6 437.7 75.8 436.2 76.5 434.5L76.5 434.5C77.1 433 78 432.1 79 432.1L79 432.1C81.1 432.2 82.4 434.9 82.5 437.8L82.5 437.8C82.5 440.3 81.3 443.1 77.9 444.5L77.9 444.5 77.6 444.6 77.4 444.4 77.4 444.4ZM77.8 444 78.2 443.7 77.8 444 77.8 444ZM77.5 434.8C76.9 436.4 76.7 437.8 76.7 438.9L76.7 438.9C76.7 440.4 77.1 441.6 77.5 442.4L77.5 442.4C77.7 442.8 77.9 443.1 78 443.3L78 443.3C80.7 442 81.6 439.8 81.6 437.7L81.6 437.7C81.6 436.4 81.2 435.2 80.7 434.3L80.7 434.3C80.2 433.4 79.5 432.9 79.1 433L79.1 433C79.1 433 79.1 433 79.1 433L79.1 433C78.6 433.1 78.1 433.5 77.5 434.8L77.5 434.8Z" fill="#FFFFFF"/></g><g id="change3_25"><path d="M77.1 443.1 77.6 443 77.9 443.4 77.6 443 77.1 443.1 77 442.8 77.3 442.6C77.4 442.6 78.9 441.5 81.5 441.5L81.5 441.5C83.1 441.5 85 441.9 87.2 443.1L87.2 443.1C88.5 443.8 89.2 444.7 89.2 445.7L89.2 445.7C89.1 447.6 86.7 448.7 84.2 448.7L84.2 448.7C84.2 448.7 84.2 448.7 84.1 448.7L84.1 448.7C81.4 448.6 78.1 447.1 77.1 443.1L77.1 443.1ZM84.2 447.6C85.3 447.6 86.4 447.3 87.1 446.9L87.1 446.9C87.9 446.5 88.2 446 88.2 445.6L88.2 445.6C88.2 445.2 87.9 444.6 86.7 443.9L86.7 443.9C84.6 442.8 82.9 442.4 81.5 442.4L81.5 442.4C80.3 442.4 79.4 442.6 78.8 442.9L78.8 442.9C78.5 443 78.3 443.1 78.2 443.2L78.2 443.2C79.2 446.5 81.8 447.6 84.2 447.6L84.2 447.6Z" fill="#FFFFFF"/></g><g id="change3_19"><path d="M73.3 450.3C73.3 447.8 74.5 445 77.9 443.6L77.9 443.6 78.2 443.5 78.4 443.8C78.5 443.9 80.2 445.7 80.2 449.2L80.2 449.2C80.2 450.5 80 452 79.3 453.7L79.3 453.7C78.7 455.2 77.8 456.1 76.8 456.1L76.8 456.1C74.7 455.9 73.3 453.2 73.3 450.3L73.3 450.3ZM74.3 450.3C74.3 451.6 74.7 452.8 75.2 453.7L75.2 453.7C75.7 454.6 76.4 455.1 76.8 455L76.8 455C77.2 455 77.8 454.6 78.4 453.3L78.4 453.3C79 451.7 79.2 450.3 79.2 449.2L79.2 449.2C79.2 447.7 78.8 446.5 78.4 445.7L78.4 445.7C78.2 445.3 78 445 77.9 444.8L77.9 444.8C75.2 446 74.3 448.2 74.3 450.3L74.3 450.3Z" fill="#FFFFFF"/></g></g><g><g id="change3_6"><path d="M-2.4 468.1C-2.9 467.2-3.1 466.4-3.1 465.7L-3.1 465.7C-3.1 464.9-2.8 464.3-2.2 463.9L-2.2 463.9C-1.7 463.5-1 463.4-0.2 463.4L-0.2 463.4C2.9 463.4 7.7 466.3 7.7 471.4L7.7 471.4C7.7 472.3 7.6 473.2 7.3 474.1L7.3 474.1 7 474.4 6.6 474.4C6.6 474.4 6.6 474.4 6.5 474.4L6.5 474.4C6.5 474.4 6.5 474.4 6.4 474.4L6.4 474.4C5.6 474.4 0.9 474-2.4 468.1L-2.4 468.1ZM6.6 473.9 6.6 473.4 6.6 473.9 6.6 473.9ZM-0.3 464.4C-1.5 464.5-2.1 464.8-2.1 465.7L-2.1 465.7C-2.1 466.1-1.9 466.8-1.5 467.6L-1.5 467.6C1.3 472.7 5.1 473.3 6.3 473.4L6.3 473.4C6.5 472.7 6.6 472 6.6 471.3L6.6 471.3C6.6 469.1 5.6 467.4 4.2 466.2L4.2 466.2C2.7 465 1 464.4-0.3 464.4L-0.3 464.4C-0.3 464.4-0.3 464.4-0.3 464.4L-0.3 464.4Z" fill="#FFFFFF"/></g><g id="change3_1"><path d="M6.4 473.7 6.5 473.2 7 473.1 6.5 473.2 6.4 473.7 6.1 473.7 6 473.3C6 473.3 5.9 472.9 5.9 472.2L5.9 472.2C5.9 470.4 6.5 466.7 10.8 463.3L10.8 463.3C11.8 462.5 12.6 462.2 13.4 462.2L13.4 462.2C15.1 462.2 15.8 463.9 15.8 465.6L15.8 465.6C15.8 469 13.3 473.8 7.8 473.8L7.8 473.8C7.4 473.8 6.9 473.8 6.4 473.7L6.4 473.7ZM7.8 472.8C12.6 472.8 14.8 468.5 14.8 465.6L14.8 465.6C14.8 464.8 14.6 464.2 14.4 463.8L14.4 463.8C14.1 463.4 13.9 463.2 13.4 463.2L13.4 463.2C12.9 463.2 12.2 463.4 11.4 464.1L11.4 464.1C7.4 467.3 6.9 470.6 6.9 472.2L6.9 472.2C6.9 472.4 6.9 472.6 6.9 472.8L6.9 472.8C7.2 472.8 7.5 472.8 7.8 472.8L7.8 472.8Z" fill="#FFFFFF"/></g><g id="change3_17"><path d="M6 474.5C6 473.7 6.1 472.8 6.4 471.9L6.4 471.9 6.5 471.6 6.8 471.6C6.8 471.6 6.9 471.6 7 471.6L7 471.6C8 471.6 12.7 472 16 477.7L16 477.7C16.5 478.6 16.8 479.4 16.8 480.1L16.8 480.1C16.8 480.9 16.5 481.5 15.9 481.9L15.9 481.9C15.4 482.3 14.7 482.4 13.9 482.4L13.9 482.4C10.8 482.4 6.1 479.6 6 474.5L6 474.5ZM7 474.5C7 476.7 8.1 478.5 9.5 479.6L9.5 479.6C10.9 480.8 12.7 481.4 14 481.4L14 481.4C15.3 481.4 15.9 481 15.9 480.1L15.9 480.1C15.9 479.6 15.7 479 15.2 478.2L15.2 478.2C12.3 473.2 8.4 472.6 7.2 472.6L7.2 472.6C7.1 473.2 7 473.9 7 474.5L7 474.5Z" fill="#FFFFFF"/></g><g id="change3_2"><path d="M-2.7 481C-2.7 477.6-0.2 472.8 5.3 472.8L5.3 472.8C5.8 472.8 6.2 472.8 6.7 472.9L6.7 472.9 6.6 473.4 6.7 472.9 7 472.9 7.1 473.2C7.1 473.2 7.2 473.6 7.2 474.3L7.2 474.3C7.2 476.1 6.6 479.8 2.3 483.2L2.3 483.2C1.3 484 0.5 484.3-0.3 484.3L-0.3 484.3C-1.9 484.4-2.7 482.8-2.7 481L-2.7 481ZM-1.7 481C-1.7 481.8-1.5 482.4-1.3 482.8L-1.3 482.8C-1 483.2-0.8 483.4-0.3 483.4L-0.3 483.4C0.2 483.4 0.9 483.2 1.7 482.5L1.7 482.5C5.7 479.3 6.2 476 6.2 474.4L6.2 474.4C6.2 474.2 6.2 474 6.2 473.8L6.2 473.8C5.9 473.8 5.6 473.7 5.3 473.7L5.3 473.7C0.6 473.8-1.6 478.1-1.7 481L-1.7 481Z" fill="#FFFFFF"/></g></g><g><g><g id="change3_18"><path d="M325.7 417.4C325.3 416.1 325.1 414.8 325.1 413.7L325.1 413.7C325.1 409.2 328 406.4 330.4 405.7L330.4 405.7C331.5 405.4 332.7 405.2 334 405.2L334 405.2C335.9 405.2 337.9 405.6 339.6 406.4L339.6 406.4C341.5 407.3 343.3 410.4 343.3 413.9L343.3 413.9C343.3 416.4 342.3 419 339.7 421L339.7 421C338.2 422.2 335.9 422.9 333.7 422.9L333.7 422.9C333.7 422.9 333.7 422.9 333.6 422.9L333.6 422.9C330.3 422.9 326.9 421.4 325.7 417.4L325.7 417.4ZM330.6 406.7C328.6 407.2 326 409.7 326 413.7L326 413.7C326 414.7 326.2 415.9 326.6 417.1L326.6 417.1C327.7 420.6 330.6 421.9 333.6 421.9L333.6 421.9C335.7 421.9 337.7 421.2 339 420.2L339 420.2C341.4 418.3 342.2 416.1 342.2 413.9L342.2 413.9C342.2 410.8 340.4 407.9 339.1 407.3L339.1 407.3C337.5 406.6 335.7 406.2 333.9 406.2L333.9 406.2C332.8 406.2 331.6 406.4 330.6 406.7L330.6 406.7 330.5 406.2 330.6 406.7 330.6 406.7Z" fill="#FFFFFF"/></g></g></g><g><g><g id="change3_15"><path d="M288 360.5C285.6 358.9 283.6 355.7 283.6 352.3L283.6 352.3C283.6 350.1 284.5 347.8 286.7 346.2L286.7 346.2C289 344.5 291.2 343.8 293.2 343.8L293.2 343.8C296 343.8 298.3 345.2 299.3 346.7L299.3 346.7 299.3 346.7 298.5 347.3C297.6 346.1 295.7 344.8 293.2 344.9L293.2 344.9C291.5 344.9 289.5 345.5 287.4 347.1L287.4 347.1C285.4 348.6 284.7 350.5 284.7 352.5L284.7 352.5C284.7 355.5 286.6 358.6 288.6 359.9L288.6 359.9C290.1 360.9 291.6 361.3 293 361.3L293 361.3C297.2 361.4 300.6 357.6 300.7 355.7L300.7 355.7C300.7 355.4 300.7 355.1 300.7 354.7L300.7 354.7C300.7 352.1 299.8 349.4 298.4 347.4L298.4 347.4 299.2 346.8C300.7 349 301.7 351.8 301.7 354.7L301.7 354.7C301.7 355.1 301.7 355.4 301.7 355.8L301.7 355.8C301.4 358.5 297.7 362.3 293 362.3L293 362.3C291.4 362 289.7 361.6 288 360.5L288 360.5Z" fill="#FFFFFF"/></g></g></g><g><g><g id="change3_7"><path d="M308 511.8C305.6 510.2 303.6 507 303.6 503.6L303.6 503.6C303.6 501.4 304.5 499.1 306.7 497.5L306.7 497.5C309 495.8 311.2 495.1 313.2 495.1L313.2 495.1C316 495.1 318.3 496.5 319.3 498L319.3 498 319.3 498 319.3 498C320.8 500.2 321.8 503 321.8 505.9L321.8 505.9C321.8 506.2 321.8 506.6 321.8 507L321.8 507C321.5 509.7 317.8 513.5 313.1 513.5L313.1 513.5C311.4 513.4 309.7 512.9 308 511.8L308 511.8ZM313.2 496C311.5 496 309.5 496.6 307.4 498.2L307.4 498.2C305.4 499.7 304.7 501.6 304.7 503.6L304.7 503.6C304.7 506.6 306.6 509.7 308.6 511L308.6 511C310.1 512 311.6 512.4 313 512.4L313 512.4C317.2 512.5 320.6 508.7 320.7 506.8L320.7 506.8C320.7 506.5 320.7 506.2 320.7 505.8L320.7 505.8C320.7 503.2 319.8 500.5 318.4 498.5L318.4 498.5 318.8 498.2 318.4 498.5C317.6 497.2 315.7 496 313.2 496L313.2 496C313.2 496 313.2 496 313.2 496L313.2 496Z" fill="#FFFFFF"/></g></g></g><g><g><g id="change3_13"><path d="M247.2 504.1C245.4 502.9 243.9 500.5 243.9 497.9L243.9 497.9C243.9 496.2 244.6 494.5 246.2 493.3L246.2 493.3C247.9 492 249.6 491.5 251.1 491.5L251.1 491.5C253.2 491.5 254.9 492.5 255.7 493.7L255.7 493.7 255.7 493.7 255.7 493.7C256.8 495.3 257.5 497.5 257.5 499.6L257.5 499.6C257.5 499.9 257.5 500.1 257.5 500.4L257.5 500.4C257.3 502.5 254.5 505.3 250.9 505.4L250.9 505.4C249.7 505.3 248.4 504.9 247.2 504.1L247.2 504.1ZM251.1 492.5C249.8 492.5 248.4 492.9 246.9 494.1L246.9 494.1C245.5 495.2 245 496.5 244.9 498L244.9 498C244.9 500.2 246.3 502.4 247.8 503.4L247.8 503.4C248.9 504.1 250 504.4 251 504.4L251 504.4C254 504.5 256.5 501.7 256.6 500.4L256.6 500.4C256.6 500.2 256.6 499.9 256.6 499.7L256.6 499.7C256.6 497.8 256 495.8 254.9 494.4L254.9 494.4 255.3 494.1 254.9 494.4C254.3 493.4 252.9 492.5 251.1 492.5L251.1 492.5C251.1 492.5 251.1 492.5 251.1 492.5L251.1 492.5Z" fill="#FFFFFF"/></g></g></g></g></svg>