<svg width="462.7" height="500.2" viewBox="-0 -0.2 462.7 500.2" xmlns="http://www.w3.org/2000/svg" xmlns:xlink="http://www.w3.org/1999/xlink" overflow="hidden"><g id="change1_1"><path d="M445.523 127.367C445.028 128.6 444.807 130.065 443.995 131.035 417.386 162.786 411.517 215.048 435.819 249.692 442.253 258.865 450.18 266.501 459.717 272.432 460.55 272.949 461.306 273.59 462.68 274.603 455.587 277.546 449.056 280.071 442.679 282.939 379.905 311.171 363.302 373.604 393.402 434.177 393.928 435.236 394.164 436.44 394.536 437.576L394.613 437.501C393.09 436.772 391.433 436.237 390.064 435.287 354.401 410.541 315.36 404.656 273.699 415.001 238.942 423.632 214.716 466.171 199.752 495.435 198.994 496.917 198.112 498.336 197.165 500 201.537 492.319 180.745 449.666 175.213 440.594 165.341 424.405 150.103 411.945 133.214 403.658 98.5719 386.658 56.32 386.57 19.6675 396.58 18.7364 396.834 17.7296 396.811 17.8483 396.798 25.0477 384.953 33.2266 373.13 39.7427 360.452 65.4945 310.35 42.8219 249.426 3.4578 213.29 2.3429 212.266 1.3723 211.085-1.33227e-15 209.621 7.3791 208.166 14.3919 207.303 21.0988 205.376 62.1942 193.565 87.2886 165.011 93.4449 123.124 97.5254 95.3614 94.5655 67.4795 87.123 40.2617 86.9037 39.4596 86.7254 38.6462 86.2189 36.5733 93.5284 42.9888 99.9892 48.5294 106.308 54.2273 171.023 112.583 259.485 70.8289 292.596 0.8272 292.86 0.2699 293.339-0.1855 293.143 0.0753 296.368 13.9015 298.608 28.4675 303.209 42.2443 314.256 75.3165 332.962 102.757 365.144 118.934 388.943 130.898 413.964 133.599 439.955 128.084 441.796 127.693 443.709 127.643 445.588 127.435L445.523 127.367Z" fill="#F9705A"/></g><g id="change2_1"><path d="M367.609 247.901C368.021 272.529 358.357 297.382 343.462 320.835 330.898 340.62 315.201 356.711 293.819 366.62 276.083 374.839 258.113 382.621 238.435 385.044 199.131 389.886 163.163 383.128 132.818 355.457 108.303 333.1 95.2701 305.194 90.5772 272.777 86.2632 242.977 88.745 214.145 102.045 186.781 111.732 166.852 125.367 150.268 143.827 137.658 161.214 125.781 179.984 117.39 200.678 113.508 218.818 110.105 237.022 110.193 255.321 112.536 267.746 114.126 279.896 116.404 291.207 122.008 315.68 134.135 334.034 152.807 348.028 175.917 360.734 196.9 367.738 219.63 367.609 247.901Z" fill="#F6D229"/></g><g id="change3_1"><path d="M195.527 321.401C178.544 321.61 163.191 316.049 148.408 308.56 142.437 305.535 140.282 299.491 142.907 294.763 145.746 289.65 152.041 287.989 157.876 291.282 181.936 304.859 206.603 304.752 231.007 293.263 252.266 283.254 266.305 265.963 274.945 244.249 276.542 240.236 277.767 236.075 279.346 232.053 280.62 228.807 282.767 225.971 286.623 226.679 290.743 227.435 291.811 230.861 291.586 234.666 290.849 247.147 287.017 258.808 281.134 269.662 266.931 295.871 245.365 312.681 216.081 319.219 215.072 319.445 214.072 319.777 213.051 319.871 207.213 320.412 201.369 320.897 195.527 321.401ZM157.671 250.107C165.168 250.242 171.891 242.866 171.868 234.53 171.846 226.782 166.413 221.005 159.193 221.054 151.012 221.11 145.724 226.806 145.828 235.452 145.939 244.77 150.142 249.971 157.671 250.107ZM215.562 227.688C215.514 235.444 221.701 241.579 229.804 241.81 236.952 242.013 241.917 236.045 242.259 226.837 242.491 220.577 235.418 213.831 228.589 213.798 221.312 213.764 215.61 219.844 215.562 227.688Z" fill="#3F3F3C"/></g></svg>