<svg width="1921" height="1084" viewBox="0 -3 1921 1084" xmlns="http://www.w3.org/2000/svg" xmlns:xlink="http://www.w3.org/1999/xlink" overflow="hidden"><g id="change1_1"><path d="M1921 1080 1 1080 1 0 1921 0 1921 1080Z" fill="#FAEFDE"/></g><g id="change2_1"><path d="M1860.4 816.4C1853.4 832.4 1846.8 848.7 1839.7 864.7 1831.1 884.3 1816.5 899.3 1800.2 912.7 1791.4 920 1781.5 922.2 1770.4 918.9 1760.6 916 1751.3 912 1743 905.9 1733.5 898.9 1726.2 890.4 1723 878.8 1722.5 877.1 1721.7 875.4 1721 873.7 1720.9 873.3 1720.5 873.1 1720.1 872.6 1710 887.9 1700.2 902.9 1690.3 917.9 1682.3 930 1673.6 941.4 1662 950.4 1653.8 956.8 1644.5 959.6 1634.4 959.9 1615.3 960.4 1598.4 954.5 1584.6 941.1 1577.7 934.4 1571.3 927.2 1564.4 919.9 1563.7 921.2 1562.9 922.6 1562.2 924.1 1553.5 942.3 1543.8 959.9 1529.9 974.7 1516 989.5 1499.5 999.4 1478.6 1000.4 1465.4 1001 1454.2 996.3 1444.3 988 1433.5 979 1426.3 967.5 1421.3 954.5 1420.5 952.5 1419.3 950.6 1418 948.8 1415.1 944.9 1415.8 938.2 1419.9 935.3 1422.6 933.4 1425.5 931.5 1428.6 930.2 1433.8 928 1436.3 929 1438.9 934.1 1440.7 937.6 1441.9 941.5 1443.8 944.9 1447 950.6 1450.3 956.2 1454.1 961.4 1462.6 972.9 1473.6 973 1484 968.7 1490.7 966 1497 961.8 1502.5 957.1 1515.4 946.2 1524.2 932.2 1531 916.9 1535.5 906.8 1540.2 896.8 1544.8 886.8 1546 884 1547.9 883 1551 882.7 1558.9 882 1566.7 880.6 1574.6 879.9 1581.2 879.3 1582.5 881.1 1585 887 1587.8 894.5 1590.9 901.9 1594.9 908.8 1599.6 916.6 1606.6 922.5 1614.8 926.8 1624.3 931.9 1633.7 931.7 1643.2 926.9 1655 921 1663.9 911.9 1672.3 902 1684.1 888 1693.5 872.4 1701.7 856 1704.9 849.8 1708.1 843.7 1711.4 837.6 1714.1 832.7 1717.1 831.3 1722.6 832.2 1726.2 832.8 1729.9 833.4 1733.5 833.9 1740.6 834.9 1740.6 834.9 1741.2 842 1742 851.3 1745.2 860.6 1749 869.1 1759.1 891.8 1779.1 892.3 1796.5 881.1 1804.4 876 1809.9 868.5 1814.2 860.3 1823.5 842.3 1832.4 824.2 1841.4 806.1 1844.3 800.2 1845.4 799.6 1852 800.7 1863.5 802.7 1865 805.8 1860.4 816.4ZM1065.6 453.5C1065.6 453.5 1061.5 487.3 1052.1 546.7 1042.8 606.1 1035 643.3 986 640 937 636.7 954.8 503.9 887.7 469.9 830.3 440.7 768.8 460.5 752.8 498.7 736.8 536.9 748.6 707.7 748.6 707.7L818.6 716.1C818.6 716.1 812.3 621.3 809.3 594.4 806.3 567.5 823 552.7 859.2 611.8 895.4 670.9 914.1 733.2 994.5 741.8 1074.9 750.4 1101.6 700.7 1139 643 1176.3 585.3 1157.9 455.3 1157.9 455.3L1065.6 453.5ZM1247.7 1010.7C1242.8 1005.6 1236.4 1004.4 1229.7 1005.9 1218.9 1008.2 1211.1 1015.1 1206.2 1024.6 1199.4 1037.8 1200.4 1051.1 1208 1063.6 1212.7 1071.4 1219.4 1076.7 1228.5 1078.7 1233 1079.7 1237.2 1078.8 1240.9 1075.7 1243 1074 1245 1072.1 1247.1 1070.3 1248 1069.2 1248.9 1068.1 1250 1066.9 1252.1 1064.3 1254.9 1059.7 1255.9 1056.5 1257.9 1050 1259.9 1043.4 1259.7 1036.5 1259.5 1029.5 1256.2 1024.6 1253.3 1018.5 1252 1015.6 1249.9 1013 1247.7 1010.7ZM462.8 374.6C462.8 374.6 462.8 379.7 462.8 393 462.8 406.3 462.8 419.6 462.8 419.6 462.8 419.6 472.6 420.8 483.6 419.6 494.6 418.4 501 414.8 501.7 408 502.4 401.2 504.2 395.4 501.7 384.3 498.2 368.9 462.8 374.6 462.8 374.6ZM538.6 0 371.3 0C346.6 12.2 322.7 25.7 302.6 45.6 278.4 69.6 271.2 98.6 258.7 130.1 252.8 144.9 250 161.6 248.8 177.7 246.2 213.4 262.6 241.3 289.5 261.7 332.5 294.2 382.5 300.5 432 286.9 501.1 267.9 545.6 219.4 565.8 148.7 578.4 104.6 575.9 61.5 554.1 20.5 549.9 12.3 544.7 5.5 538.6 0ZM1431.3 189C1462 188.7 1492.8 185 1523.5 184.8 1569.4 184.5 1614.4 182.6 1657 158.7 1670.2 151.3 1677.4 145.1 1686.4 128.2 1694.3 106.8 1700.1 86.5 1699.6 74.3 1699.1 62.9 1693.1 45.4 1686.5 36.8 1669.5 14.4 1643.2 10.9 1618 4.2 1590.7-3 1562.5-0.5 1534.4 0.9 1508 2.2 1481.5 4.5 1455.4 3.2 1446.7 2.8 1438 2 1429.4 1L1285.3 1C1273.1 4.4 1261 8.6 1248.9 13.3 1244 15.2 1239.2 18 1234.5 20.8 1216.1 32.1 1201.6 47.7 1193.9 70.7 1192.8 74 1191.4 77.2 1190.1 80.4 1189 85.2 1188 89.9 1186.9 94.7 1186.9 96.4 1187 98.2 1186.9 99.9 1185.9 129.3 1194.7 152.9 1215.5 168.4 1231.7 180.5 1250.3 188.2 1269.7 190.5 1286.1 192.4 1303.3 189.5 1320.1 188.5 1327.5 188.1 1334.9 186.4 1342.2 186.5 1371.9 187.2 1401.5 189.3 1431.3 189ZM1858.5 641.3C1801.6 640.3 1684 641.3 1684 641.3L1684 697.3C1684 697.3 1781.8 693.3 1853.6 696.3 1869.8 697 1893.3 697.3 1920 697.5L1920 642.8C1893.7 642.1 1871.6 641.5 1858.5 641.3ZM351.8 942C308.9 909.3 258.9 902.9 209.4 916.3 140.2 935.1 95.5 983.5 75 1054.2 72.5 1062.9 70.6 1071.5 69.3 1080L197.9 1080C196.4 1076.9 195.5 1073.6 195 1069.9 193.3 1056.7 197.2 1045.4 206.5 1036.1 208.1 1034.5 210.3 1033.4 212.2 1032 217.1 1029.4 222.1 1027.4 227.6 1027 230.9 1026.8 234.1 1027.3 237.2 1028.5 243 1030.7 246.2 1035.3 247.6 1041.3 248.9 1047.1 248.4 1052.9 247.6 1058.7 246.7 1065.4 243.4 1071 239.8 1076.5 239.1 1077.6 238.3 1078.7 237.5 1079.8L379.5 1079.8C380.4 1077.7 381.2 1075.6 382.1 1073.6 388 1058.8 390.9 1042.1 392.2 1026.1 394.9 990.4 378.6 962.4 351.8 942Z" fill="#CDC2FE"/></g><g id="change3_1"><path d="M1415.8 450.3C1415.8 450.3 1377.7 493.1 1358.5 472.7 1339.3 452.3 1360.4 432.5 1360.4 432.5 1360.4 432.5 1323.7 447.9 1303.1 426 1282.5 404.1 1310 385.1 1310 385.1 1310 385.1 1265.1 401.4 1240.7 370.7 1216.4 340 1250.7 317.3 1250.7 317.3 1250.7 317.3 1216.6 339.6 1202.4 321.6 1173.9 285.2 1218.1 247.7 1218.1 247.7 1218.1 247.7 1312.6 345.5 1340.9 378 1369.2 410.5 1415.8 450.3 1415.8 450.3ZM1521.6 609.9C1512.6 611.4 1505.2 615.7 1500 623.4 1497.3 627.3 1496.7 631.6 1498.2 636.1 1499.1 638.8 1500.1 641.3 1501 643.9 1501.7 645.2 1502.5 646.5 1503.1 647.7 1504.8 650.7 1508 655 1510.6 657.1 1515.9 661.4 1521.3 665.6 1527.8 668 1534.4 670.4 1540.2 669.2 1546.9 668.7 1550 668.4 1553.2 667.5 1556.2 666.3 1562.8 663.6 1566.2 658.1 1567.3 651.3 1569.1 640.5 1565.5 630.6 1558.5 622.6 1548.7 611.4 1536 607.4 1521.6 609.9ZM1837 132.1C1838.8 132 1839.6 132.5 1840.1 134.2 1842.8 142.9 1845.7 151.5 1848.5 160.1 1851.2 168.6 1851.2 168.6 1859.7 171.1 1859.8 171.1 1859.9 171.2 1860 171.2 1863.3 172 1864.8 171 1864.2 167.7 1863.6 164.5 1862.6 161.5 1861.4 158.5 1857.9 149.6 1854.2 140.8 1850.5 131.6 1851.7 131.5 1852.5 131.5 1853.5 131.5 1866.2 130.7 1878.9 130 1891.6 129.2 1894.5 129 1895.8 127.7 1895.7 125.4 1895.5 120.3 1894.8 119 1891.2 119.2 1877.4 119.8 1863.6 120.5 1849.8 121.4 1847.6 121.6 1846.7 121.2 1845.9 119 1841.1 105.2 1836.3 91.3 1831.2 77.6 1828.5 70.2 1827.3 71.2 1820.6 70 1817 69.4 1816.1 70.8 1817.4 74.3 1822.7 88.2 1828 102.2 1833.4 116.1 1834.2 118.2 1835 120.3 1835.9 122.6 1828.8 123.2 1822 123.7 1815.3 124.4 1809.5 125 1803.7 125.8 1797.9 126.7 1796 127 1794.4 128 1794.4 130.3 1794.4 132.7 1795.5 134.2 1797.9 134.4 1800 134.6 1802.1 134.7 1804.2 134.6 1815.1 133.9 1826.1 133 1837 132.1ZM769.8 790.1C763 789.4 757.2 787.6 746.1 790.1 730.7 793.6 736.4 829 736.4 829 736.4 829 741.5 829 754.8 829 768.1 829 781.4 829 781.4 829 781.4 829 782.6 819.2 781.4 808.2 780.2 797.2 776.6 790.8 769.8 790.1ZM921.5 187.3C922.5 195 919.2 198.3 911.4 197.5 898.7 196.2 886.4 197.8 874.5 201.8 851.9 209.2 833.3 222.7 816 238.9 821.7 243.1 827.1 246.7 832.1 250.8 864.3 277 872.2 315.5 860.8 354.9 856.6 369.3 849.7 382.3 838.6 392.8 813.7 416.5 778.8 410.2 763.8 379.4 757.8 367.1 755.8 353.8 754.3 340.3 750.8 310 757.4 281.7 771 254.8 771.3 254.2 771.5 253.6 772 252.1 768.7 251.8 765.7 251.7 762.6 251.3 747.2 249.3 733.2 253.1 720.2 261.2 714.3 264.9 708.1 268.2 702.1 271.8 696.6 275.1 694 273.1 691.5 268.7 686.6 260.2 685.2 246.9 697.3 239.4 712.8 229.8 729.6 225 747.5 224.9 758.9 224.8 770.4 226.4 781.8 227.4 784.5 227.6 786.5 228 788.6 225.1 814 189.9 849 171.9 891.9 168.8 897.7 168.4 903.6 168.6 909.4 168.7 913.6 168.8 916.8 170.7 918.1 174.9 919.3 179 921 183.1 921.5 187.3ZM785.2 244.4C790.1 245.8 794.9 247.1 799.8 248.5 801 246.6 801.9 245.1 803.2 242.9 799.5 241.7 796.3 240.9 793.2 239.7 788.7 238 786 239.2 785.2 244.4ZM801.6 259.8C793.4 271.9 783.1 301.2 781.2 318 779.6 332.4 777.9 346.9 781.3 361.2 784.8 375.6 796.8 381.5 810.5 375.6 821.6 370.8 827.5 361.5 831.1 350.6 835.3 337.8 836.1 324.5 836.2 311.2 836.2 287.3 824 269.1 801.6 259.8ZM772.8 242.1C777.2 242.9 779.3 241.9 780.3 236.4 768.6 235.9 757.2 234.7 745.8 235 728.2 235.5 711.5 239.5 697.4 251 691.7 255.6 691.6 257.8 697.4 263.7 706.3 258.8 715 253.8 723.8 249.1 739.3 240.9 755.7 238.9 772.8 242.1ZM809.9 246.2C809 247.4 808.5 248 808 248.7 807.5 249.5 807 250.3 806.4 251.4 826.6 260.9 836.8 277.5 840.2 298.7 843.3 318.5 841.1 337.9 834.8 356.9 831.8 366 827.4 374.4 820 380.8 812 387.7 803 389.9 793 386.2 783 382.5 777.9 374.9 776.2 364.5 772 338.6 774.9 313.3 782.7 288.6 786 278 790.3 267.9 794.4 257.2 793.3 256.9 792.5 256.6 791.7 256.4 789.1 255.7 786.5 255.3 784 254.3 780.5 253 778.8 253.9 777 257.2 763.2 282.9 755.7 309.9 759.3 339.3 760.9 352.4 763.2 365.3 770.1 376.9 775.8 386.5 783.7 393.3 794.9 395.6 814.2 399.5 829.9 392.6 841.8 377.9 858.5 357.2 863 333.2 859.1 307.3 854.6 277.4 833.6 260.9 809.9 246.2ZM915.1 187.5C914.8 179.9 913.9 178.9 907.7 178.7 903.4 178.6 899 178.5 894.7 178.6 858.7 179.3 829 194.6 803.1 218.4 799.7 221.5 797 225.5 793.8 229.4 798.6 231.2 802.4 232.8 806.4 234 807.6 234.4 809.8 234 810.5 233.1 823.5 218.4 840.2 208.6 856.8 198.8 869.5 191.3 883.1 187.7 897.6 187.5 903.5 187.4 909.3 187.5 915.1 187.5ZM1914.2 1046.2C1913.8 1046.8 1913.6 1047.4 1912.8 1048.7 1915.4 1049.4 1917.8 1049.9 1920.2 1050.6L1920.2 1061.5C1916.9 1060.7 1913.6 1059.7 1910.3 1058.5 1906 1056.9 1903.8 1057.6 1901.9 1062.8 1908 1064.1 1914.1 1065.6 1920.1 1067L1920.1 1077.1C1913 1075.3 1906 1073.2 1898.9 1071.4 1896.3 1070.7 1894.3 1070 1891.8 1072.5 1888.7 1075.5 1885.6 1078.3 1882.4 1081L1869.1 1081C1871.5 1079.6 1873.8 1078.1 1876.2 1076.6 1880.1 1074 1883.4 1070.5 1887.2 1067.3 1882.8 1064.8 1879.3 1062.5 1875.6 1060.7 1874.5 1060.2 1872.3 1060.2 1871.4 1060.9 1860.3 1069.7 1847.9 1075.8 1835.1 1081L1803.9 1081C1827 1077.4 1847.4 1067.2 1867 1054.3 1862.2 1049.3 1857.5 1044.8 1853.2 1039.9 1825.9 1008.7 1824.5 969.4 1842.3 932.5 1848.8 919 1857.8 907.3 1870.5 898.8 1887.3 887.6 1905.7 887.1 1920 895.3L1920 906.2C1918.2 905.1 1916.2 904.1 1914.1 903.3 1895.8 896.2 1879.1 900.3 1864.9 912.9 1845 930.5 1836.5 953.4 1836 979.6 1835.4 1009.8 1853.4 1029.6 1874.2 1048.1 1875.3 1047.1 1875.9 1046.5 1876.7 1046.1 1877.3 1045.4 1877.9 1044.6 1878.7 1043.7 1860.3 1031 1853.1 1012.9 1853.3 991.5 1853.5 971.5 1859 952.7 1868.3 935.1 1872.8 926.6 1878.5 919.1 1886.9 914 1896 908.5 1905.2 907.9 1914.4 913.2 1916.7 914.5 1918.6 916 1920.2 917.6L1920.2 932C1916.6 922.3 1907.2 917.8 1895.5 920.6 1883.7 923.5 1876.4 931.6 1871 941.8 1864.7 953.7 1861.7 966.6 1859.4 979.8 1855.4 1003.4 1864.3 1023.3 1884.8 1036.3 1894.9 1025.7 1910 998.5 1914.7 982.3 1916.7 975.2 1918.8 968.1 1920.2 960.9L1920.2 982.3C1917.1 992.2 1913 1001.8 1908.2 1011.2 1903.2 1020.9 1897.3 1030.1 1891.5 1040 1892.5 1040.5 1893.3 1040.9 1894 1041.2 1896.5 1042.3 1899 1043.1 1901.3 1044.5 1904.5 1046.4 1906.4 1045.8 1908.7 1042.8 1912.9 1037.4 1916.7 1031.9 1920.2 1026.3L1920.2 1037.6C1918.3 1040.5 1916.3 1043.4 1914.2 1046.2ZM1898.1 1054C1893.6 1051.8 1889 1049.7 1884.4 1047.5 1883 1049.2 1881.9 1050.5 1880.1 1052.4 1883.6 1054.2 1886.6 1055.5 1889.4 1057.2 1893.6 1059.7 1896.5 1059 1898.1 1054ZM1756.2 1081 1774.4 1081C1771.6 1080.5 1768.8 1079.9 1766.1 1079.2 1761.4 1077.9 1758.1 1078.5 1756.2 1081ZM242.8 390C219.2 401.6 195.7 413.5 172.2 425.2 170.3 426.2 168.4 427.1 165.6 428.4 167.9 411.3 170.4 395.1 172.1 378.9 174 361 175.2 343 176.2 325 176.3 322.7 173.8 320.3 172.5 317.9 170.2 319.7 166.8 321.2 165.8 323.5 150.9 357 136.3 390.6 121.6 424.1 120.9 425.6 120 427.1 119.4 428.2 111.2 409.3 103.3 390.6 95 371.9 87.3 354.6 79.7 337.3 71.4 320.2 69 315.2 64.3 311 60.7 306.4 60.2 306.4 59.8 306.4 59.3 306.5 53.1 310.9 53 317.3 53.7 323.2 56 342.3 59.4 361.3 61.9 380.3 65.2 405.4 68.1 430.5 71.4 455.6 71.9 459.3 69.4 459.9 66.5 460.9 44.7 468.4 22.8 475.8 1 483.4L1 515.6C3.4 515.1 5.8 514.6 8.2 514.1 24 510.8 39.8 507.3 55.6 504 57.5 503.6 59.5 503.5 61.3 503.2 52.4 520.1 43.2 536.5 34.9 553.3 28.5 566.2 23.3 579.6 17.6 592.8 17.4 593.4 16.9 594 16.9 594.5 17.4 597.6 17.9 600.8 18.5 603.9 21.5 602.4 25.4 601.6 27.4 599.4 51.8 572.5 75.9 545.5 100.1 518.5 101.5 516.9 103 515.4 105.3 513 108.5 523.8 111.4 533.8 114.5 543.8 121.4 566.2 128.1 588.7 135.3 611 136.7 615.4 139.5 619.4 141.7 623.6 142.6 623.6 143.5 623.5 144.5 623.5 146.1 619.4 148.9 615.4 149.2 611.2 151.1 585.2 152.3 559.1 154.1 533 154.9 520.6 156.6 508.2 157.9 495.3 159.5 496.1 160 496.2 160.2 496.5 180.2 521 200.7 545 227.1 564.6 230 566.7 232.6 569.9 236.4 567.1 240.4 564.1 236.9 561.4 234.7 558.8 230.6 554 225.7 549.5 222.5 544.2 209.4 522.9 196.8 501.3 183.9 479.9 179.4 472.5 174.4 465.2 169.6 457.8 170.9 456.8 171.9 456.1 173 455.4 196.7 439.8 220.5 424.2 244.2 408.6 247.5 406.4 250.7 404.1 253.4 401.4 256.6 398 262.6 394.2 258.3 389.2 253.9 384.1 247.7 387.6 242.8 390ZM70.2 893.4C56.4 894 42.6 894.8 28.8 895.6 26.6 895.7 25.6 895.4 24.9 893.2 20.1 879.4 15.3 865.5 10.2 851.8 7.7 845 6.5 845.3 1 844.4L1 860.5C4.8 870.4 8.6 880.3 12.4 890.2 13.2 892.3 14 894.4 14.9 896.7 10.1 897.1 5.5 897.5 1 897.9L1 907.5C6 907.1 11.1 906.7 16.1 906.3 17.9 906.1 18.7 906.6 19.2 908.4 21.9 917 24.8 925.6 27.6 934.3 30.3 942.8 30.3 942.8 38.8 945.3 38.9 945.3 39 945.4 39.1 945.4 42.4 946.3 43.9 945.2 43.3 941.9 42.7 938.8 41.7 935.7 40.5 932.7 37 923.8 33.4 915 29.6 905.8 30.8 905.7 31.6 905.7 32.4 905.6 45.1 904.9 57.8 904.1 70.5 903.3 73.5 903.1 74.7 901.8 74.6 899.5 74.5 894.4 73.8 893.2 70.2 893.4ZM492.6 1034.1C489 1033.5 488.1 1034.9 489.4 1038.4 494.6 1052.3 500 1066.1 505.3 1080L516.8 1080C512.4 1067.2 507.9 1054.4 503.2 1041.7 500.5 1034.4 499.3 1035.3 492.6 1034.1ZM324.3 560.3C324.3 560.3 320.2 564.6 317 570.4 313.8 576.2 313.5 580.8 317 583.8 320.4 586.8 323 590 329.9 593.1 339.5 597.4 348.8 577.9 348.8 577.9 348.8 577.9 346 575.9 338.8 570.7 331.6 565.5 324.3 560.3 324.3 560.3Z" fill="#76B9F0"/></g><g id="change4_1"><path d="M1181.9 882.8C1181.9 887.6 1181.9 892.4 1182 897.3 1181.5 900.7 1180.8 904.1 1180.5 907.6 1178.2 931.8 1167.6 950.2 1152.1 965.3 1148.2 969.1 1144.2 972.9 1139.8 975.9 1103 1001 1064.4 1019.8 1021.3 1023.6 994.4 1026 967.4 1027.1 940.8 1031.9 915 1036.5 889.7 1044.7 864.3 1051.9 837.2 1059.6 810.3 1068.3 782.1 1067.4 756 1066.6 729.7 1069 708.1 1051 699.8 1044 689.9 1028.3 687 1017.4 683.8 1005.6 685 984.5 687.6 961.8 692.6 943.2 698.2 935.7 709.4 925.5 745.5 892.7 788.9 880.7 833.6 870.2 863.5 863.2 892.7 852.7 922.5 845.5 951.4 838.5 980.8 834 1009.9 828 1017.1 826.5 1023.9 823.2 1031 821.1 1047.2 816.4 1063.2 809.7 1079.7 807.9 1099.2 805.8 1119 809.1 1137.5 817.3 1161.2 827.8 1175.1 848.9 1180.7 877.7 1181 879.4 1181.5 881.1 1181.9 882.8ZM101.5 79.6C102.2 80.9 103 82.2 103.6 83.4 105.3 86.4 108.5 90.7 111.1 92.8 116.4 97.1 121.8 101.3 128.3 103.7 134.9 106.1 140.7 104.9 147.4 104.4 150.5 104.1 153.7 103.2 156.7 102 163.3 99.3 166.7 93.8 167.8 87 169.6 76.2 166 66.3 159 58.3 149.2 47.1 136.5 43.1 122.1 45.6 113.1 47.1 105.7 51.4 100.5 59.1 97.8 63 97.2 67.3 98.7 71.8 99.6 74.5 100.6 77 101.5 79.6ZM710.6 456.2C711.5 451.6 710.5 447.4 707.4 443.8 705.6 441.7 703.7 439.7 701.9 437.7 700.8 436.7 699.6 435.8 698.4 435 695.7 432.9 691.1 430.2 687.9 429.2 681.3 427.2 674.7 425.3 667.8 425.6 660.9 425.9 656 429.2 649.9 432.2 647.1 433.7 644.5 435.8 642.2 438 637.2 443 636.1 449.4 637.7 456.1 640.2 466.8 647.3 474.6 656.8 479.3 670.1 485.9 683.4 484.7 695.8 476.9 703.5 472.1 708.7 465.3 710.6 456.2ZM1806.1 339.8C1806.1 339.8 1807.4 407.8 1790.9 427.8 1770.3 452.8 1717.2 440.8 1709.6 415.8 1706.7 406.1 1702.4 392.6 1702.3 379.7 1702.1 359.1 1702 339.8 1702 339.8L1540.5 339.8 1540.5 350.8C1540.5 350.8 1535.5 399.3 1551.3 446.8 1562.9 481.8 1579.5 512.8 1620.7 525.8 1694.1 549 1747.5 550.8 1806.1 543.8 1839.8 539.8 1884.8 523.1 1915.4 501.8 1917 500.7 1918.5 499.6 1920 498.5L1920 339.8 1806.1 339.8ZM1 769.5C92.7 770 219 768.3 219 768.3L219 721.3C219 721.3 88.8 717.3 1 714.9L1 769.5ZM1620 753.7C1620 753.7 1620 758.8 1620 772.1 1620 785.4 1620 798.7 1620 798.7 1620 798.7 1629.8 799.9 1640.8 798.7 1651.8 797.5 1658.2 793.9 1658.9 787.1 1659.6 780.3 1661.4 774.5 1658.9 763.4 1655.4 748 1620 753.7 1620 753.7Z" fill="#BADCAC"/></g><g id="change5_1"><path d="M1808 223.8 1808 270.8C1808 270.8 1591.4 273.8 1519.6 270.8 1447.8 267.8 1350 271.8 1350 271.8L1350 215.8C1350 215.8 1467.6 214.8 1524.5 215.8 1581.4 216.8 1808 223.8 1808 223.8ZM621.5 635.2C619.6 645.7 614 656 608.3 665.3 594.3 688.2 575.2 706.6 551.2 723 553.4 725 555.5 726.6 557.1 728.6 589.5 768.7 602.2 815.5 602 866 601.9 886.8 599.6 907.6 598.1 928.4 596.7 947.8 583 957.3 566.8 961.2 553.9 964.3 539.7 962.9 526.1 962.7 519.8 962.6 521.7 956.9 521.8 953.1 522.3 937.2 524.6 921.1 523.1 905.4 520.4 876.2 516.1 847.2 511.5 818.2 507.8 794.5 496 773.6 485.4 752 464.6 758.4 443.6 759.8 422.5 758 391.9 755.4 367.6 741.1 349.7 716.7 345.2 710.6 344.9 701.4 342.7 693.6 342.9 693.1 343 692.6 343.1 692.1 349.7 673.3 362.7 660 378.9 649 401.4 633.8 424.9 632.7 449.6 642 474.8 651.4 497.1 665.4 516.8 683.5 518.7 685.2 520.6 686.8 522.8 688.6 536.7 676 541.9 660 543.9 642.4 547.4 611.1 536.9 584.6 514.5 563.6 502.1 552 487 543.1 472.8 533.5 468.9 530.9 466.3 528.8 467.3 523.9 468.6 517.3 469.5 510.7 471.2 504.2 473.7 495.1 483.7 488.8 492.2 492 520.1 502.5 548.9 511.5 575.2 525.2 618.7 547.9 632.2 576.3 621.5 635.2ZM463.4 717.2C444 693 421.7 676.4 390.6 674 391.2 696.9 431.9 721.3 463.4 717.2ZM1285.1 569.5C1274.3 568.3 1263.2 569.4 1252.3 568.5 1244.3 567.8 1239.9 570.7 1241 578.7 1243.2 594.7 1245.3 610.8 1248.5 626.6 1256.2 665.1 1264.8 703.3 1272.5 741.8 1283.6 797.4 1294.1 853.1 1305.2 908.7 1307.1 918.2 1310.4 927.5 1313.2 937.1 1317.1 935.5 1318.9 934.5 1320.9 934.2 1359.4 926.6 1393.5 909.8 1417.4 878.7 1458.4 825.2 1467.8 764.3 1449.5 699.9 1426 617.1 1353.1 576.8 1285.1 569.5ZM1120.2 308.7C1107.8 317 1095.5 325.3 1083.1 333.7 1081.2 335 1079.4 336.3 1077.3 337.7 1075.1 330.9 1073.1 324.4 1070.9 318 1069 312.5 1066.9 307 1064.7 301.6 1064 299.8 1062.7 298.5 1060.4 299 1058 299.5 1056.9 300.9 1057.2 303.3 1057.5 305.4 1057.8 307.5 1058.4 309.5 1061.7 320 1064.9 330.5 1068.3 340.9 1068.9 342.6 1068.6 343.5 1067 344.4 1059.2 349 1051.5 353.8 1043.7 358.4 1036 363 1036 362.9 1035.5 371.8 1035.5 371.9 1035.5 372 1035.5 372.1 1035.4 375.5 1036.7 376.7 1039.8 375.4 1042.7 374.2 1045.5 372.5 1048.1 370.7 1056 365.4 1063.7 359.8 1071.9 354.1 1072.3 355.3 1072.5 356 1072.7 356.8 1076.3 369 1079.9 381.2 1083.5 393.4 1084.3 396.3 1085.8 397.2 1088.1 396.6 1093 395.3 1094.1 394.2 1093.1 390.8 1089.4 377.5 1085.5 364.2 1081.6 351 1081 348.9 1081.1 347.8 1083.1 346.6 1095.5 338.8 1107.9 330.9 1120.1 322.9 1126.6 318.6 1125.5 317.7 1125.1 310.9 1124.9 307.2 1123.3 306.6 1120.2 308.7ZM701.5 0C690.8 61 701.2 134.4 701.2 134.4L793.5 136.2C793.5 136.2 797.7 102.4 807 43 809.5 26.9 812 12.4 815.1-0.1L701.5 0 701.5 0ZM1106.3 91.2C1112.7 75.8 1114.7 38.7 1114.7 0.1L1050.1 0.1C1050.6 20 1038.9 30 1015 0L909.2 0C921.3 42.4 930.7 99.3 971.4 120 1028.8 149.2 1090.4 129.4 1106.3 91.2ZM1050.1 0.1 1050.1 0.1C1050.1 0.1 1050.1 0 1050.1 0.1L1050.1 0.1ZM17.7 110.7C11.7 110.1 5.9 109.2 0 108.4L0 252C33.4 252 59.9 252 59.9 252 59.9 252 64.3 216.3 59.9 176.4 55.5 136.5 42.3 113.2 17.7 110.7ZM1574.6 1051.1C1571 1052.4 1570.9 1054.1 1573.8 1056.5 1582.3 1063.7 1590.9 1070.9 1599.5 1078L1616.4 1078C1606.8 1069.5 1597.2 1061 1587.5 1052.6 1581.6 1047.5 1581 1048.9 1574.6 1051.1ZM1660.2 1059.8C1650.5 1065.8 1640.8 1071.9 1631.2 1078L1650.1 1078C1655.2 1074.8 1660.2 1071.6 1665.3 1068.3 1667.8 1066.7 1668.3 1065 1667.1 1063 1664.5 1058.6 1663.2 1057.9 1660.2 1059.8Z" fill="#F7B2BD"/></g></svg>