<?xml version="1.0" encoding="UTF-8" standalone="no"?><svg xmlns="http://www.w3.org/2000/svg" xmlns:xlink="http://www.w3.org/1999/xlink" contentScriptType="text/ecmascript" fill="#000000" width="345.8" zoomAndPan="magnify" contentStyleType="text/css" viewBox="-394.0 -79.2 345.8 519.4" height="519.4" preserveAspectRatio="xMidYMid meet" version="1"><g id="change1_1"><path fill="#ededed" d="M-91.426,330.178c-1.675-1.762-4.244-2.419-4.244-2.419l-0.576,0.093c0,0.001-0.001,0.002-0.001,0.002l0,0 c0,0,0.001-0.001,0.001-0.002c0.115-0.347,0.229-0.718,0.345-1.063c0.467-1.442,0.964-2.888,1.468-4.337 c0.293-0.839,0.586-1.678,0.886-2.516c-0.002-0.002-0.004-0.004-0.005-0.005c0-0.003,0.001-0.005,0.002-0.007 c-1.728-1.864-4.193-3.777-7.235-5.714l-0.001,0.001c-0.207-0.139-0.413-0.251-0.62-0.391c0-0.024-0.022-0.024-0.047-0.047 c-0.001,0.002-0.003,0.005-0.004,0.007c-0.001-0.001-0.002-0.001-0.003-0.003c-0.866,1.528-1.755,3.073-2.738,4.579 c-0.045,0.092-0.112,0.185-0.182,0.278c-3.314,4.923-7.368,9.391-12.655,11.447c-0.024,0-0.022,0.024-0.047,0.024l-1.56,0.243 l-3.937,0.609l-4.789-2.193l-4.542-2.087l-11.292-7.519l-19.486-12.99l0.095,0.078h-0.001l-0.094-0.078l-0.022-0.023l-0.01-0.006 l-0.451-0.383c-0.045-0.049-0.067-0.094-0.092-0.141c-0.277-0.439-0.484-0.852-0.599-1.266c-0.001,0-0.001,0-0.001,0 c-0.008,0-0.01-0.006-0.008-0.01c0.033-0.035,0.064-0.064,0.097-0.1l-0.106,0.104c0,0,0-0.002-0.001-0.002l0.02-0.018l-0.022-0.025 c-0.048-0.115-0.093-0.25-0.115-0.391h-0.001c-0.01-0.02-0.012-0.033-0.02-0.049c-0.004-0.02-0.014-0.043-0.018-0.063 c-0.022-0.066-0.022-0.113-0.047-0.184c-0.022-0.092-0.003-0.186-0.003-0.299c-0.044-0.375-0.04-0.742,0.005-1.104 c0.007-0.055,0.02-0.108,0.028-0.163c0.02-0.124,0.04-0.247,0.069-0.369c0.015-0.06,0.034-0.118,0.051-0.178 c0.033-0.119,0.067-0.237,0.109-0.355c0.018-0.05,0.039-0.099,0.058-0.148c0.051-0.131,0.104-0.261,0.165-0.39 c0.015-0.031,0.031-0.063,0.047-0.095c0.074-0.152,0.153-0.304,0.241-0.454c0.003-0.006,0.007-0.011,0.01-0.017 c1.014-1.726,2.863-3.344,4.909-5.006c-4.788-0.638-9.987-1.024-15.283-1.11c-19.004-0.309-39.276,3.275-46.302,13.186 c-0.138,0.156-0.251,0.318-0.365,0.479l-0.002-0.445l-0.002-0.002v-0.002l-0.008-0.008l-0.014-0.014 c-15.645-12.955-20.705-20.184-40.849-22.101c-5.472-0.521-10.847-0.485-16.165-0.084c-3.844,0.288-7.66,0.761-11.457,1.38 c-2.536,0.427-4.936,0.917-7.342,1.448c-1.881,0.412-3.765,0.846-5.722,1.301c-0.018,0.813-0.228,2.324-0.304,2.942 c-0.576,4.68-1.744,6.165-5.049,8.83c-1.105,0.909-2.34,1.748-3.644,2.525c-0.399,0.234-0.79,0.475-1.207,0.691 c-0.189,0.105-0.385,0.203-0.576,0.307c-0.055,0.027-0.11,0.057-0.166,0.084c0.247-0.131,0.498-0.258,0.742-0.395 c-4.171,2.232-8.846,3.867-12.533,5.16c-4.745,1.636-12.232,3.964-18.43,3.665c-0.022,0.114-0.045,0.252-0.045,0.366 c0.002,0,0.004,0,0.006,0c0,0.001,0,0.001,0,0.002c-0.002,0-0.004,0-0.006,0c0,0.003,0,0.005-0.001,0.007l0,0 c0-0.002,0-0.004,0.001-0.007c-0.092,0-0.162,0-0.254,0c-0.773-0.034-1.519-0.118-2.243-0.238c-1.772-0.297-3.377-0.874-4.693-1.837 c-0.701-0.517-1.326-1.134-1.84-1.89c-0.714-1.004-1.335-2.064-1.901-3.154c-0.378-0.732-0.729-1.477-1.046-2.236 c-0.339-0.816-0.654-1.644-0.924-2.488c-0.002,0.004-0.003,0.008-0.005,0.011c-0.001-0.004-0.003-0.007-0.004-0.011 c-12.205,24.816-26.123,61.551-33.901,89.293c-0.571,2.031-1.111,4.019-1.613,5.945c0.001-0.001,0.002-0.001,0.003-0.002 c-0.001,0.005-0.002,0.009-0.003,0.014c0.582-0.331,1.195-0.653,1.825-0.971c0.921-0.459,1.886-0.906,2.897-1.345 c-0.73,3.357-1.111,6.529-0.891,9.116c0.002,0.032,0.004,0.065,0.007,0.097c0.031,0.338,0.075,0.662,0.127,0.978 c0.011,0.063,0.019,0.13,0.03,0.192c0.05,0.274,0.114,0.535,0.182,0.791c0.024,0.092,0.044,0.188,0.071,0.276 c0.064,0.213,0.141,0.411,0.219,0.609c0.045,0.115,0.085,0.236,0.135,0.347c0.07,0.153,0.153,0.292,0.232,0.436 c0.075,0.135,0.145,0.275,0.228,0.401c0.064,0.097,0.14,0.18,0.21,0.27c0.115,0.151,0.229,0.306,0.36,0.44 c0.04,0.041,0.087,0.072,0.128,0.111c0.805,0.769,1.873,1.24,3.278,1.311c13.915,0.669,118.046,5.76,118.046,5.76 s141.106,24.766,144.263,18.313c3.156-6.453,29.074-93.946,30.086-99.154C-89.733,332.685-90.419,331.233-91.426,330.178z M-220.344,307.605c0,0-0.001,0.002-0.002,0.002v-0.004L-220.344,307.605z M-312.524,110.318c-0.205,0.319-0.389,0.639-0.572,0.983 l-0.003,0.021c-0.144,0.27-0.292,0.537-0.434,0.805c0.033,0.017,0.078,0.021,0.116,0.033c-0.037-0.011-0.081-0.01-0.116-0.026 c-1.89,3.847-3.363,9.19-2.695,17.279c0.461,5.759,5.39,16.102,12.347,24.511c2.052,2.466,4.263,4.77,6.589,6.75 c12.579,10.643,31.215,20.711,56.004,25.78c6.493,8.703,12.759,14.299,26.372,13.215c5.136-0.391,13.884-3.889,16.539-9.415 c0.003,0,0.007,0,0.011,0c29.924-0.576,55.313-8.408,70.056-22.878l0.002-0.014c0.001-0.001,0.002-0.002,0.002-0.003l-0.002,0.017 c1.152-1.152,2.211-2.304,3.246-3.523c1.568-1.867,2.972-3.824,4.216-5.876c1.152-1.935,2.488-4.515,3.872-7.395 c23.865,5.667,35.247-23.773,28.104-41.304c-4.076,2.902-9.467,3.363-12.738,3.341c-1.084,0-1.935-0.049-2.442-0.092 c-0.3-0.049-0.507-0.07-0.507-0.07s-1.313,0.853-3.455,1.82c-3.825,1.705-10.253,3.892-16.334,2.466h-0.022 c-0.324-0.07-0.646-0.142-0.945-0.254c-0.254-0.07-0.531-0.162-0.76-0.252c-0.576-0.185-1.152-0.417-1.706-0.715 c-0.207-0.115-0.438-0.232-0.646-0.347c-0.967-0.526-1.912-1.197-2.81-2.049c-0.254-0.232-0.506-0.484-0.738-0.738 c-0.414-0.391-0.806-0.826-1.174-1.334c-0.414-0.508-0.806-1.084-1.197-1.703c-0.693-1.086-1.336-2.329-1.913-3.71 c-0.231-0.623-0.416-1.336-0.483-2.142c-5.46-0.369-11.681-2.466-13.985-4.056c-4.009-2.788-7.118-6.061-9.444-9.674l-4.633-0.785 c0,0,0,0-0.022,0l-0.299-0.047c-0.414,0.092-0.83,0.185-1.267,0.254c-0.022,0-0.047,0.022-0.092,0 c-0.438,0.065-0.875,0.137-1.314,0.158c-0.598,0.049-1.197,0.024-1.842-0.022c-0.092,0.022-0.207,0-0.299,0 c-0.232-0.023-0.484-0.047-0.715-0.092c-0.068,0-0.137-0.022-0.207-0.022c-0.414-0.047-0.828-0.115-1.244-0.207 c-0.414-0.092-0.828-0.185-1.244-0.302c-1.75-0.483-3.316-1.127-4.722-1.935l-0.011-0.002c-1.208-0.648-2.293-1.395-3.271-2.272 c-5.656-4.86-7.649-12.57-7.082-20.532c0.063-1.341,0.234-2.682,0.461-4.022c-0.668,1.429-1.3,2.77-1.905,4.045 c-3.96,8.59-6.286,13.724-11.609,16.99c-0.207,0.126-0.396,0.229-0.607,0.355c-0.668,0.398-1.354,0.75-2.041,1.087l-0.011-0.002 c-3.847,1.867-8.086,2.927-12.394,2.927c-3.294,0-6.104-0.875-8.477-2.236c-2.374-1.359-4.309-3.202-5.875-5.134l-0.007-0.011 c-0.317-0.4-0.609-0.778-0.879-1.174c-3.332-4.652-4.632-9.469-4.632-9.469c-5.784,2.997-12.486,1.258-17.852-2.367l-10.223,0.148 c-3.227,2.09-6.912,3.809-10.682,5.046c-0.274,0.104-0.564,0.205-0.855,0.268h-0.002c-3.802,1.199-7.672,1.89-11.175,1.935h-0.344 c-0.853,0-1.683-0.045-2.466-0.115c-0.897-0.092-1.75-0.232-2.581-0.437h-0.022c-2.784-0.623-5.247-1.773-7.71-3.291l0.313-2.005 c-0.948,0.076-1.868,0.21-2.771,0.374c-0.005-0.003-0.009-0.006-0.014-0.009l-0.047-0.022c-0.529-0.369-1.06-0.76-1.588-1.152 c0,0-0.025,0.299-0.07,0.828c-0.022,0.207-0.045,0.459-0.092,0.736c0,0,0,0,0,0.001 C-325.531,72.507-333.097,100.787-312.524,110.318z M-313.236,112.2l0.051-0.318l-0.048,0.319 C-313.234,112.201-313.235,112.2-313.236,112.2z M-254.264,64.947l-10.223,0.146c2.011-1.28,3.856-2.727,5.406-4.272 C-257.675,62.328-256.039,63.732-254.264,64.947z"/></g><g id="change2_1"><path fill="#71c5e9" d="M-77.058,247.818l-0.392,5.552c0,7.737-7.232,28.496-15.55,46.375c-1.958,4.216-4.354,8.362-6.403,12.046 c-0.461,0.785-0.899,1.591-1.384,2.421c-0.207-0.14-0.414-0.252-0.621-0.392c0-0.024-0.022-0.024-0.047-0.047 c-0.875,1.543-1.75,3.086-2.74,4.585c-0.047,0.092-0.114,0.185-0.185,0.276c-3.318,4.93-7.372,9.397-12.648,11.449 c-0.022,0-0.022,0.022-0.045,0.022l-5.507,0.853l-19.039-7.391l-19.378-16.268c-2.174-2.404-3.308-5.068-1.799-8.065 c0.743-1.474,0.524-3.058-0.35-4.159c1.754,0.169,3.476,0.365,5.143,0.596c0.004-0.003,0.009-0.007,0.014-0.011 c-0.344-0.045-0.69-0.092-1.035-0.137c0.207-0.14,0.414-0.324,0.621-0.484c-1.742-0.232-3.544-0.428-5.38-0.591 c-0.591-0.451-1.338-0.742-2.207-0.781c-3.917-0.176-7.85-0.048-11.778,0.257c-12.125,0.165-24.332,1.97-32.936,6.029 c-3.999,1.689-7.575,4.073-9.452,7.388c-0.064,0.084-0.135,0.17-0.195,0.256v-0.463l-0.025-0.021 c-15.643-12.948-20.709-20.186-40.844-22.096c-9.422-0.899-18.57-0.185-27.624,1.291c-4.515,0.761-8.592,1.706-13.062,2.766 c-0.022,0.806-0.229,2.326-0.299,2.925c-0.576,4.699-1.75,6.176-5.046,8.846c-0.898,0.738-1.888,1.453-2.925,2.097 c-0.623,0.393-1.267,0.762-1.935,1.107c-4.171,2.234-8.846,3.869-12.533,5.158c-4.745,1.637-12.232,3.965-18.43,3.666 c-3.663-0.185-6.889-1.269-8.754-4.01c-1.683-2.418-2.925-5.092-3.825-7.903c-2.994-9.216-2.441-20.019-2.374-29.257 c0.162-14.283,1.546-28.547,4.77-42.482c1.82-7.901,6.221-36.1,27.877-62.269c3.57-4.333,11.841-10.507,21.492-13.038 c2.052,2.461,4.263,4.765,6.589,6.749c12.579,10.644,31.216,20.711,56.006,25.778c6.495,8.707,12.761,14.306,26.376,13.222 c5.139-0.392,13.892-3.89,16.542-9.422c29.924-0.576,55.313-8.408,70.056-22.876c1.152-1.147,2.214-2.299,3.249-3.521 c7.143,2.144,11.334,2.72,20.275,7.926C-88.16,181.512-74.086,216.552-77.058,247.818z"/></g><g id="change3_1"><path fill="inherit" d="M-77.498,30.12c14.2-28.406-23.466-54.921-48.188-50.434c-0.132-0.152-0.266-0.296-0.399-0.445 c-6.163-30.233-57.056-58.396-79.75-30.03c-23.565-18.852-71.791-18.339-79.094,21.519c-0.307,0.35-0.604,0.706-0.904,1.062 c-28.043,1.22-42.587,18.652-36.93,47.872c-20.254,6.752-16.536,49.451,1.843,55.639c-3.463,4.435-5.513,9.647-5.949,14.599 c-0.654,7.438,2.16,16.199,11.191,21.391c-2.499,5.183-3.434,11.17-2.844,18.302c0.468,5.888,4.871,15.208,10.77,23.114 c-8.542,3-15.881,8.492-19.416,12.771c-20.09,24.309-25.679,50.768-27.785,60.728c-0.207,0.981-0.385,1.822-0.54,2.504 c-3.073,13.276-4.652,27.334-4.83,42.982l-0.036,3.269c-0.11,8.168-0.223,17.376,2.182,25.597 c-13.265,27.002-28.223,67.133-35.596,95.517c-0.231,0.897,0.092,1.847,0.828,2.409c0.735,0.564,1.737,0.633,2.54,0.171 c0.182-0.103,0.377-0.206,0.565-0.309c-0.604,5-0.04,8.591,1.705,10.896c1.285,1.696,3.192,2.654,5.519,2.771 c13.613,0.65,113.584,5.539,117.897,5.751c6.229,1.093,111.085,19.397,138.361,19.397c5.22,0,7.375-0.619,8.232-2.36 c3.56-7.28,29.432-95.386,30.277-99.726c0.926-4.73-2.498-7.586-5.417-8.892c0.611-1.823,1.242-3.646,1.892-5.469 c0.288-0.808,0.104-1.712-0.481-2.342c-1.473-1.583-3.438-3.221-5.855-4.882l1.322-2.354c1.784-3.182,3.805-6.793,5.487-10.42 c7.645-16.426,15.765-38.604,15.76-47.182l0.387-5.499c2.945-30.952-10.545-67.518-28.869-78.256 c-7.559-4.403-12-5.649-17.143-7.096c-0.125-0.035-0.258-0.073-0.384-0.109c0.811-1.116,1.577-2.258,2.285-3.426 c0.928-1.555,1.994-3.557,3.175-5.951c1.539,0.265,3.054,0.4,4.537,0.4c7.058,0,13.4-2.97,18.282-8.67 c5.488-6.407,8.458-15.66,8.383-24.491c10.535-3.429,16.554-12.94,5.422-24.377c0.027-0.118,0.052-0.232,0.076-0.348 C-48.857,95.892-48.162,38.487-77.498,30.12z M-258.982,63.859c0.378,0.374,0.785,0.754,1.218,1.138l-2.651,0.038 C-259.919,64.65-259.442,64.258-258.982,63.859z M-322.28,90.306c0.404-4.583,2.47-9.433,5.973-13.375 c0.818,3.005,2.236,6.179,4.633,9.101c0.937,1.142,1.877,1.913,2.812,2.375c-0.01,0.119-0.021,0.241-0.031,0.358 c-0.587,7.107-0.834,10.844-0.834,12.493c0,0.987-0.947,2.297-2.148,3.955c-0.461,0.64-0.958,1.334-1.457,2.076 C-319.649,103.651-322.925,97.635-322.28,90.306z M-387.993,392.335c7.23-26.108,19.982-60.312,31.81-85.29 c0.641,1.26,1.354,2.451,2.13,3.554c1.786,2.591,4.611,4.169,8.396,4.734c-0.715,8.857,1.461,16.236,6.632,22.477 c2.392,2.897,11.803,8.583,17.114,6.38c0.925-0.384,2.232-1.217,2.92-2.974c2.765,1.491,5.514,2.768,10.322,1.482 c2.92-0.77,4.826-2.288,5.993-3.6c1.536,1.051,3.844,2.502,6.462,3.732c-1.675-0.176-3.217-0.276-4.557-0.276 c-1.615,0-2.909,0.133-3.955,0.409c-7.154,1.881-13.397,17.946-13.109,26.565c0.214,6.438,3.611,8.05,5.618,8.437 c13.611,2.628,28.03,7.375,40.598,13.361c1.001,0.479,1.941,0.711,2.868,0.711c4.72,0,7.652-5.411,12.844-18.354 c0.644-1.604,1.303-3.06,1.905-4.387c2.536-5.601,4.929-10.887-1.323-15.278c-3.252-2.285-16.385-6.459-28.515-9.091 c0.65-0.169,1.278-0.382,1.869-0.669c0.029-0.014,0.229-0.122,0.259-0.14c0.207-0.11,0.417-0.225,0.527-0.304 c0.616-0.376,1.154-0.792,1.683-1.32c0.374-0.392,0.723-0.846,1.01-1.367c1.47,0.164,3.034,0.589,4.563,1.014 c0.787,0.218,1.57,0.435,2.342,0.619l1.046,0.252c3.984,0.958,8.985,2.159,13.643,2.159c4.682,0,9.013-1.215,11.609-5.127 c6.43-9.699,9.415-16.757,12.146-24.997c0.596-1.784,0.385-3.729-0.603-5.619c-4.056-7.759-20.894-14.108-24.039-15.037 c-8.581-2.531-20.185-1.805-24.554-1.537c-0.544,0.034-0.979,0.062-1.285,0.074c-3.548,0.15-5.921,4.973-7.006,7.778 c-0.75-0.216-1.525-0.427-2.344-0.628c-2.981-0.738-6.113-1.27-8.867-1.543c1.01-1.598,1.58-3.467,1.922-6.237l0.041-0.321 c0.038-0.293,0.083-0.659,0.128-1.042c3.615-0.841,7.353-1.676,11.287-2.337c10.167-1.66,18.759-2.07,27.027-1.282 c16.262,1.545,22.172,6.641,32.898,15.888c1.77,1.527,3.663,3.156,5.739,4.893c-10.096,16.793-18.624,39.542-26.875,61.58 c-4.734,12.641-9.226,24.613-13.793,34.901c-8.338-5.004-36.305-21.058-54.081-22.434c-16.111-1.232-50.267,1.606-69.882,9.949 C-387.619,392.173-387.806,392.254-387.993,392.335z M-278.698,308.531c-0.78-2.461-3.317-4.578-7.562-6.328 c0.91-2.232,2.249-4.419,2.833-4.67c0.328-0.014,0.794-0.041,1.375-0.079c4.148-0.259,15.166-0.94,22.963,1.356 c4.754,1.404,18.489,7.449,21.263,12.756c0.542,1.037,0.437,1.657,0.313,2.035c-2.682,8.086-5.442,14.586-11.615,23.897 c-3.386,5.111-13.182,2.754-20.333,1.03l-1.053-0.252c-0.717-0.169-1.449-0.371-2.184-0.578c-1.712-0.475-3.417-0.991-5.251-1.183 c-0.381-1.703-1.354-3.725-3.23-6.113c-2.193-2.771-5.038-5.368-6.918-7.089c-0.457-0.416-0.857-0.783-1.181-1.091 c-0.311-0.295-0.686-0.631-1.096-0.997c-3.768-3.366-4.421-4.652-4.308-5.137c0.007-0.018,0.061-0.099,0.191-0.207 c0.554-0.442,2.835-0.052,4.344,0.203c3.273,0.563,7.346,1.258,9.947-1.722C-278.172,312.031-278.264,309.903-278.698,308.531z M-283.093,309.924c0.045,0.133,0.176,0.544-0.583,1.415c-0.903,1.028-3.344,0.611-5.699,0.209 c-2.871-0.492-5.836-0.999-8.021,0.758c-1.527,1.247-1.874,2.698-1.899,3.699c-0.076,3.368,3.346,6.423,5.845,8.659 c0.374,0.333,0.715,0.639,0.997,0.904c0.34,0.324,0.765,0.711,1.242,1.147c1.773,1.62,4.453,4.067,6.41,6.542 c1.6,2.032,3.238,4.729,2.012,6.017c-0.225,0.223-0.483,0.421-0.868,0.659c-0.074,0.047-0.153,0.088-0.313,0.178 c-2.907,1.408-7.163,0.007-10.216-1.418c-4.169-1.95-7.578-4.618-7.613-4.647c-0.556-0.438-1.287-0.576-1.973-0.412 c-0.688,0.167-1.271,0.657-1.563,1.298c-0.043,0.1-1.141,2.421-4.513,3.31c-3.195,0.853-4.594,0.2-7.474-1.365l-0.558-0.297 c-0.614-0.326-1.267-0.673-1.991-1.02c-0.747-0.357-1.633-0.285-2.313,0.191c-0.68,0.477-1.053,1.282-0.972,2.108 c0.115,1.183-0.061,1.883-0.52,2.074c-2.495,1.028-9.822-2.673-11.798-5.063c-4.53-5.466-6.308-11.764-5.547-19.695 c5.997-0.194,12.541-2.191,17.145-3.778c4.698-1.632,12.436-4.329,17.831-8.452c2.546-0.072,7.202,0.426,11.97,1.607 C-286.132,306.506-283.434,308.845-283.093,309.924z M-257.965,357.79c2.877,2.021,2.578,3.41-0.229,9.604 c-0.625,1.384-1.312,2.898-1.982,4.569c-1.699,4.23-6.212,15.466-8.574,15.466c-0.223,0-0.522-0.086-0.886-0.259 c-12.907-6.153-27.722-11.026-41.705-13.727c-1.453-0.281-1.827-2.369-1.885-4.069c-0.27-8.115,5.942-20.973,9.679-21.956 c0.445-0.116,1.289-0.256,2.783-0.256C-289.1,347.162-261.908,355.018-257.965,357.79z M-277.191,402.115 c-13.236-2.454-28.474-3.884-40.583-5.016l-3.789-0.353c-15.395-1.463-45.493-0.302-61.635,3.06l0.017-4.456 c17.794-6.715,47.987-9.945,65.274-8.617C-306.196,387.637-289.082,395.736-277.191,402.115z M-92.372,334.189 c-1.194,6.131-25.91,88.894-29.665,98.057c-0.504,0.124-1.703,0.304-4.32,0.304c-27.119,0-136.602-19.157-137.707-19.351 c-0.095-0.016-0.189-0.026-0.286-0.031c0,0-104.129-5.091-118.042-5.76c-1.244-0.061-1.762-0.54-2.072-0.949 c-0.23-0.305-0.48-0.781-0.676-1.496c0.066-0.011,0.133-0.01,0.199-0.027c14.493-3.689,47.27-5.089,62.944-3.604l3.791,0.357 c16.081,1.503,40.386,3.775,54.994,8.549c0.017,0.006,0.034,0.007,0.051,0.013c0.043,0.013,0.086,0.024,0.131,0.035 c0.036,0.008,0.071,0.016,0.107,0.022c0.062,0.012,0.124,0.02,0.186,0.026c0.05,0.005,0.1,0.01,0.151,0.012 c0.031,0.001,0.061,0.007,0.091,0.007c0.076,0,0.15-0.011,0.225-0.018c0.027-0.003,0.054,0.001,0.081-0.003 c14.191-1.948,35.218,0.16,52.111,1.854c4.398,0.443,8.54,0.855,12.25,1.173c17.084,1.448,51.93,9.312,66.733,16.079 c0.304,0.142,0.63,0.209,0.958,0.209c0.365,0,0.733-0.088,1.069-0.266c0.632-0.33,1.075-0.934,1.199-1.638l1.185-6.682 c0.124,0.069,0.257,0.139,0.378,0.207c0.351,0.198,0.742,0.297,1.132,0.297c0.344,0,0.686-0.076,1.015-0.228 c0.679-0.33,1.154-0.974,1.269-1.721c1.692-10.983,6.947-25.011,11.589-37.389c1.525-4.07,2.974-7.936,4.193-11.43 c2.718-7.8,5.073-15.822,7.353-23.577c1.606-5.47,3.266-11.088,5.043-16.626C-93.483,331.223-92.017,332.369-92.372,334.189z M-239.125,405.186c12.863-2.607,28.246-5.256,37.684-5.256c0.054,0,0.11,0,0.164,0c18.222,0.084,52.018,10.057,70.308,18.911 l-0.929,5.235c-16.531-6.745-48.71-13.881-65.541-15.31c-3.687-0.315-7.807-0.729-12.18-1.166 C-218.805,406.68-229.192,405.643-239.125,405.186z M-96.197,320.54c-0.652,1.843-1.285,3.688-1.89,5.528 c-2.187,6.587-4.169,13.332-6.086,19.854c-2.266,7.703-4.603,15.668-7.282,23.359c-1.213,3.461-2.648,7.294-4.16,11.33 c-4.292,11.449-9.103,24.279-11.265,35.124c-0.121-0.059-0.243-0.124-0.364-0.188c-18.302-9.275-54.618-20.128-74.011-20.219 c-15.45-0.037-45.962,6.745-57.224,9.377c4.355-10.002,8.63-21.416,13.12-33.415c8.4-22.433,17.084-45.633,27.312-62.16 c0.227-0.367,0.33-0.773,0.336-1.176c7.872-10.083,32.541-13.183,54.005-11.191c-1.678,1.848-2.781,3.855-2.698,6.23 c-1.448-0.773-4.161-1.468-9.754-1.468c-11.701,0-34.748,3.394-39.063,10.215c-0.412,0.7-10.104,17.287-11.386,26.567 c-0.221,1.609,0.236,3.118,1.318,4.36c2.911,3.339,10.592,4.826,24.912,4.826c4.398,0,8.666-0.133,12.43-0.252 c2.682-0.086,5.012-0.158,6.749-0.158c1.082,0,2.089-0.251,3.041-0.674c2.065,1.273,4.915,1.102,8.516-0.529 c1.208-0.545,2.423-1.199,3.58-1.822c0.04-0.022,0.081-0.045,0.124-0.067c-0.563,2.221-0.953,4.694-0.61,6.896 c-0.422-0.054-0.824-0.103-1.181-0.139c-0.18-0.018-0.357-0.026-0.542-0.026c-9.107,0-19.207,22.997-19.438,33.139 c-0.167,7.17,3.944,8.135,5.719,8.216c10.968,0.502,27.403,5.699,37.223,8.806c3.048,0.963,5.458,1.726,6.916,2.095 c0.468,0.119,0.938,0.178,1.399,0.178c5.294,0,7.532-7.068,10.124-15.256c0.418-1.312,0.844-2.654,1.289-3.993 c0.383-1.149,0.774-2.299,1.161-3.433c3.116-9.135,4.934-14.905,3.159-18.325c-0.603-1.156-1.582-1.957-2.833-2.321 c-1.874-0.545-7.754-1.933-14.735-3.469c6.69-6.296,13.874-16.015,16.497-22.009c0.945-0.065,1.883-0.171,2.798-0.365 c0.079-0.012,0.16-0.027,0.238-0.048c1.063-0.254,1.926-0.515,2.721-0.818v-0.003c0.054-0.02,0.105-0.042,0.157-0.064 c4.932-1.922,9.411-5.913,13.634-12.115c0.104-0.142,0.202-0.284,0.288-0.43c0.688-1.005,1.328-2.034,1.92-3.018 C-98.533,318.535-97.242,319.554-96.197,320.54z M-148.468,357.886c-0.02,0-0.04,0-0.058-0.003c-1.755-1.674-1.224-3.602,0.38-7.509 c0.495-1.202,1.003-2.443,1.312-3.663c0.236-0.942-0.146-1.935-0.954-2.477c-0.808-0.54-1.872-0.516-2.655,0.063 c-1.127,0.839-2.259,1.989-3.456,3.206c-3.013,3.058-5.456,5.33-7.125,4.345c-2.27-1.325-0.286-7.487,0.56-10.122l0.355-1.125 c0.232-0.751,0.063-1.563-0.441-2.16c-0.506-0.598-1.273-0.882-2.054-0.801c-1.665,0.212-3.51,1.208-5.649,2.364 c-1.062,0.574-2.173,1.18-3.287,1.679c-3.629,1.649-4.362,0.854-4.747,0.178c-0.006-0.016-0.013-0.036-0.02-0.057 c-0.205-1.07,1.84-4.844,2.938-6.873c1.742-3.219,3.249-6,3.224-8.209c-0.009-0.754-0.387-1.456-1.01-1.879 c-0.621-0.42-1.413-0.517-2.117-0.242c-0.659,0.252-1.64,0.708-2.814,1.26c-3.01,1.41-8.045,3.771-11.152,3.91 c-0.828,0.054-1.293-0.091-1.449-0.236c-0.124-0.11-0.212-0.398-0.243-0.774c0.133-0.29,0.742-1.307,3.345-3.6 c2.871-2.551,8.077-6.72,12.671-10.402c3.847-3.081,6.655-5.337,8.367-6.8c0.219,0.328,0.459,0.656,0.738,0.977 c0.378,0.455,0.835,0.943,1.368,1.447c0.758,0.697,1.485,1.3,2.221,1.843c0.508,0.375,1.019,0.773,1.519,1.17 c0.405,0.337,0.839,0.672,1.257,1.001c1.026,0.808,2.086,1.66,3.175,2.535c2.029,1.636,4.157,3.348,6.351,5.001l0.241,0.181 c0.657,0.515,1.336,1.01,2.049,1.527c0.376,0.272,0.772,0.549,1.145,0.794c0.032,0.021,0.068,0.043,0.102,0.063 c3.858,2.652,8.16,4.977,13.147,7.093l1.822,0.763c0.074,0.032,0.153,0.057,0.229,0.081c0.841,0.329,1.685,0.64,2.567,0.966 l0.192,0.067C-130.913,342.961-144.771,357.886-148.468,357.886z M-124.829,364.237c1.136,1.425-1.71,9.765-3.411,14.745 c-0.392,1.146-0.788,2.304-1.172,3.467c-0.454,1.361-0.884,2.725-1.309,4.059c-1.517,4.795-3.813,12.041-5.732,12.041 c-0.079,0-0.169-0.014-0.266-0.038c-1.332-0.34-3.683-1.08-6.664-2.022c-10.032-3.173-26.829-8.484-38.397-9.015 c-0.932-0.043-1.377-1.222-1.325-3.508c0.238-10.367,10.439-28.633,14.912-28.633c1.359,0.137,3.221,0.412,5.408,0.783 c1.1,0.521,2.179,0.677,3.227,0.571c1.776,0.326,3.683,0.692,5.658,1.085c0.382,1.26,1.13,2.493,2.414,3.644 c0.587,0.531,1.521,1.069,2.88,1.069c0.455,0,0.956-0.063,1.505-0.198c1.275-0.324,2.746-1.104,4.322-2.206 C-134.467,361.872-126.981,363.618-124.829,364.237z M-180.864,342.45c-0.111,0.014-0.222,0.034-0.334,0.034 c-1.773,0-4.153,0.074-6.891,0.16c-3.732,0.112-7.964,0.245-12.288,0.245c-16.192,0-20.381-2.034-21.436-3.242 c-0.234-0.272-0.259-0.459-0.225-0.706c1.154-8.372,10.7-24.7,10.754-24.8c2.367-3.738,21.08-8.005,35.128-8.005 c3.029,0,4.904,0.219,6.045,0.449c-1.676,1.365-3.693,2.982-5.683,4.577c-4.634,3.715-9.89,7.922-12.844,10.545 c-3.552,3.125-4.974,5.17-4.907,7.056c0.072,1.774,0.662,3.179,1.755,4.178c1.159,1.055,2.774,1.525,4.778,1.429 c3.161-0.143,7.157-1.732,10.439-3.216c-0.292,0.561-0.585,1.101-0.846,1.58C-179.458,336.498-181.245,339.807-180.864,342.45z M-105.948,173.764c15.038,8.808,29.612,42.26,26.606,73.894l-0.398,5.714c0,6.973-6.735,26.919-15.334,45.405 c-2.717,5.85-6.15,11.222-9.812,16.515c-3.819,5.521-8.052,11.901-14.963,13.718c-1.379,0.362-3.647,0.654-5.017,0.11 c0.192,0.069,0.384,0.139,0.576,0.208c-3.408-1.232-6.753-2.592-9.991-4.225c-2.747-1.385-5.254-2.861-7.576-4.467 c-0.052-0.038-0.106-0.069-0.16-0.101c-0.295-0.2-0.61-0.417-0.94-0.657c-0.632-0.454-1.26-0.913-1.935-1.439l-0.252-0.189 c-1.167-0.878-1.169-0.666-3.431-2.664c-3.681-3.252-7.336-6.537-11.056-9.744c-1.274-1.098-2.226-2.189-1.378-3.927 c1.191-2.443,3.6-4.015,5.743-5.546c2.376-1.697,4.748-3.629,6.548-5.945c9.746-12.545,13.035-27.218,15.137-41.206 c0.488-3.278,1.458-27.889,1.565-30.683c0.047-1.271-0.94-2.342-2.211-2.392c-1.253-0.128-2.344,0.943-2.392,2.211 c-0.294,7.528-1.138,27.625-1.521,30.181c-2.009,13.371-5.121,27.355-14.194,39.031c-1.478,1.838-3.599,3.553-5.702,5.209 c-0.02-0.003-0.038-0.014-0.058-0.017c-19.256-2.566-50.98-1.491-62.38,11.284c-1.815-1.525-3.487-2.969-5.06-4.325 c-11.071-9.544-17.75-15.303-35.475-16.986c-8.675-0.83-17.636-0.404-28.217,1.319c-3.528,0.597-6.86,1.316-10.083,2.053 c0.475-5.888,1.468-19.113,1.599-28.018c0.16-11.251,7.141-32.478,7.21-32.692c0.4-1.208-0.256-2.513-1.462-2.911 c-1.208-0.396-2.511,0.259-2.911,1.462c-0.297,0.9-7.271,22.115-7.444,34.073c-0.156,10.794-1.612,28.133-1.81,30.446 c-0.048,0.178-0.083,0.36-0.087,0.551c-0.016,0.63-0.162,1.719-0.245,2.376l-0.042,0.34c-0.484,3.955-1.231,4.918-4.223,7.334 c-1.405,1.155-3.067,2.203-4.825,3.152c-4.114,2.142-8.7,3.735-11.836,4.825c-4.792,1.652-11.829,3.825-17.562,3.54 c-3.431-0.174-5.71-1.155-6.981-3.026c-1.462-2.104-2.65-4.557-3.525-7.297c-2.529-7.782-2.405-17.053-2.297-25.235l0.038-3.285 c0.169-15.305,1.71-29.037,4.709-41.989c0.162-0.711,0.344-1.58,0.558-2.59c2.234-10.565,7.46-35.308,26.828-58.746 c3.443-4.165,10.928-9.424,18.957-11.871c1.929,2.217,3.899,4.203,5.881,5.887c10.288,8.705,28.362,20.252,56.18,26.097 c6.496,8.53,12.879,13.589,24.369,13.589c1.114,0,2.281-0.047,3.499-0.144c5.199-0.395,14.007-3.652,17.727-9.451 c30.73-0.81,55.667-9.134,70.323-23.517c0.822-0.822,1.604-1.667,2.378-2.534c0.788,0.228,1.557,0.446,2.29,0.653 C-116.971,168.538-112.993,169.658-105.948,173.764z M-235.514,189.861c0.876,0.143,1.766,0.281,2.675,0.414 c10.151,1.487,20.079,2.258,29.586,2.313c-3.338,2.716-8.427,4.532-11.838,4.792C-224.769,198.156-230.287,195.512-235.514,189.861z M-96.372,141.932c-3.615,4.223-10.014,8.749-19.978,6.435c-0.067-0.019-0.134-0.031-0.201-0.044 c-0.733-0.166-1.481-0.365-2.231-0.625c-1.206-0.407-2.513,0.229-2.927,1.433c-0.412,1.206,0.232,2.513,1.433,2.927 c0.002,0.001,0.005,0.001,0.008,0.002c-0.946,1.883-1.802,3.47-2.545,4.72c-1.172,1.935-2.524,3.813-4.002,5.58 c-1.01,1.188-2.034,2.294-3.107,3.37c-14.011,13.748-38.334,21.638-68.495,22.219c-10.743,0.231-22.09-0.524-33.762-2.234 c-3.098-0.452-6.002-0.963-8.648-1.521c-27.355-5.595-44.994-16.837-54.971-25.279c-2.113-1.802-4.236-3.978-6.306-6.463 c-7.17-8.664-11.442-18.433-11.827-23.231c-0.526-6.368,0.281-11.625,2.459-16.062l0.41-0.771c0.153-0.29,0.308-0.563,0.533-0.914 c0.785-1.348,1.636-2.526,2.387-3.561c1.622-2.246,3.021-4.18,3.021-6.657c0-1.939,0.468-7.84,0.819-12.104 c0.021-0.249,0.044-0.505,0.066-0.757c4.485-2.065,8.439-9.432,10.695-14.442c1.844,0.454,3.792,0.695,5.937,0.695 c0.146,0,0.29,0,0.436-0.005c3.661-0.042,7.751-0.749,11.625-1.982c0.405-0.09,0.808-0.223,1.093-0.333 c4.022-1.32,7.901-3.154,11.202-5.293c1-0.637,1.941-1.307,2.833-1.999l2.654-0.039c0.739,0.656,1.549,1.316,2.482,1.954 c5.917,4.002,12.189,5.204,17.595,3.483c0.747,1.971,2.043,4.846,4.065,7.669c0.306,0.448,0.596,0.855,0.96,1.316 c4.425,5.456,9.85,8.221,16.126,8.221c4.509,0,9.143-1.084,13.4-3.145c0.749-0.365,1.494-0.751,2.22-1.186l0.632-0.374 c4.452-2.731,7.019-6.632,9.712-12.072c0.803,6.38,3.438,11.703,7.678,15.343c1.116,0.997,2.335,1.85,3.688,2.574 c1.586,0.9,3.345,1.618,5.226,2.14c1.798,0.508,3.706,0.763,5.571,0.763c1.521,0,3.01-0.169,4.387-0.513 c0.618-0.153,1.114-0.336,1.672-0.552c0.079,0.125,0.154,0.254,0.234,0.376c2.549,3.973,5.935,7.447,10.077,10.331 c2.387,1.646,7.928,3.618,13.35,4.29c0.09,0.313,0.193,0.612,0.315,0.9c2.439,5.856,6.128,9.791,10.963,11.701 c1.277,0.505,2.579,0.829,3.883,1.031c2.551,6.963,6.793,13.233,13.237,7.959c4.455-3.648,6.805-8.313,8.047-12.277 c3.094,0.072,7.841-0.245,12.08-2.25C-87.426,122.247-89.886,134.36-96.372,141.932z M-253.825,112.527 c-1.04,0-2.131-0.099-3.273-0.317c-7.566-1.444-9.649-5.058-12.284-9.636l-0.47-0.817c-0.639-1.1-0.266-2.511,0.837-3.147 c1.098-0.641,2.508-0.263,3.147,0.835l0.479,0.828c2.518,4.367,3.667,6.36,9.154,7.409c8.095,1.545,11.714-4.911,11.75-4.977 c0.607-1.116,2.007-1.534,3.125-0.918c1.116,0.607,1.53,2.007,0.918,3.123C-242.005,107.776-246.617,112.527-253.825,112.527z M-161.204,117.744c0.783,1.003,0.605,2.45-0.396,3.235l-0.722,0.567c-3.341,2.624-6.111,4.808-10.981,4.808 c-1.199,0-2.518-0.133-4.007-0.423c-9.094-1.76-12.324-9.24-12.763-12.95c-0.146-1.264,0.756-2.409,2.018-2.556 c1.231-0.162,2.401,0.747,2.558,2.007c0.043,0.331,1.078,7.433,9.064,8.977c5.478,1.055,7.292-0.36,11.262-3.485l0.731-0.576 C-163.435,116.568-161.989,116.741-161.204,117.744z M-197.441,150.445c0.952,0.844,1.035,2.304,0.189,3.253 c-3.735,4.189-10.768,6.581-18.772,6.581c-1.845,0-3.743-0.126-5.663-0.387c-11.017-1.5-19.791-6.866-23.476-14.36 c-0.563-1.141-0.092-2.522,1.05-3.084c1.143-0.56,2.522-0.09,3.084,1.051c3.008,6.115,10.468,10.536,19.962,11.827 c8.639,1.186,16.828-0.709,20.372-4.691C-199.848,149.685-198.393,149.597-197.441,150.445z M-198.681,386.107 c-0.308,1.237-1.566,1.986-2.794,1.677c-6.506-1.625-13.651-0.797-20.563,0.006l-2.302,0.266 c-4.144,0.464-13.861,4.079-17.256,5.434c-0.283,0.112-0.571,0.162-0.855,0.162c-0.913,0-1.779-0.547-2.139-1.451 c-0.473-1.182,0.104-2.52,1.287-2.992c0.522-0.209,12.839-5.104,18.451-5.734l2.283-0.262c7.321-0.848,14.887-1.732,22.212,0.104 C-199.122,383.624-198.373,384.875-198.681,386.107z M-195.119,372.26c-0.311,1.237-1.566,1.988-2.796,1.678 c-6.509-1.624-13.652-0.794-20.563,0.007l-2.302,0.266c-4.144,0.464-13.861,4.079-17.256,5.431 c-0.279,0.115-0.571,0.164-0.853,0.164c-0.916,0-1.782-0.549-2.142-1.451c-0.473-1.181,0.104-2.52,1.287-2.992 c0.522-0.209,12.839-5.104,18.451-5.734l2.283-0.261c7.321-0.851,14.887-1.732,22.212,0.102 C-195.563,369.778-194.814,371.029-195.119,372.26z M-189.007,358.337c-0.308,1.237-1.559,1.983-2.794,1.678 c-6.511-1.624-13.652-0.794-20.563,0.007l-2.302,0.266c-4.144,0.461-13.863,4.079-17.255,5.431 c-0.284,0.112-0.572,0.164-0.855,0.164c-0.914,0-1.78-0.549-2.14-1.451c-0.473-1.181,0.104-2.52,1.285-2.992 c0.524-0.211,12.842-5.106,18.453-5.734l2.281-0.261c7.321-0.851,14.887-1.732,22.214,0.102 C-189.448,355.852-188.701,357.105-189.007,358.337z M-326.527,375.295c-9.419-0.378-19.357-0.099-27.285,0.776 c-6.857,0.756-19.348,4.668-19.476,4.709c-0.228,0.072-0.459,0.105-0.688,0.105c-0.979,0-1.885-0.625-2.198-1.613 c-0.382-1.21,0.292-2.506,1.507-2.889c0.529-0.164,13.053-4.085,20.352-4.893c8.146-0.898,18.345-1.192,27.978-0.799 c1.271,0.052,2.259,1.122,2.207,2.396C-324.183,374.357-325.276,375.367-326.527,375.295z M-370.022,366.006 c-0.389-1.21,0.277-2.511,1.489-2.899c0.371-0.12,9.179-2.937,16.486-3.742c8.149-0.897,18.345-1.192,27.978-0.798 c1.271,0.049,2.261,1.12,2.207,2.396c-0.049,1.269-1.163,2.245-2.396,2.207c-9.413-0.38-19.357-0.099-27.285,0.776 c-6.837,0.754-15.494,3.517-15.58,3.548c-0.234,0.076-0.47,0.11-0.707,0.11C-368.802,367.603-369.704,366.98-370.022,366.006z M-365.905,355.312c-0.392-1.21,0.272-2.508,1.482-2.899c0.349-0.117,8.677-2.792,15.987-3.6c8.146-0.898,18.34-1.195,27.978-0.799 c1.271,0.05,2.259,1.122,2.207,2.396c-0.052,1.27-1.125,2.257-2.396,2.207c-9.415-0.378-19.359-0.099-27.283,0.776 c-6.837,0.754-14.995,3.375-15.076,3.399c-0.236,0.077-0.473,0.112-0.709,0.112C-364.685,356.905-365.588,356.285-365.905,355.312z"/></g><g id="change4_1"><path fill="#e08479" opacity="0.4" d="M-206.704,131.086c0.284,2.002-1.293,3.775-3.921,4.403c-3.802,0.914-7.654,0.76-11.463,0.025 c-3.647-0.704-7.255-1.939-10.743-3.285c-0.542-0.207-2.191-0.841-2.52-2.536c-0.128-0.67-0.176-2.364,2.137-3.627 c1.602-0.887,3.298-1.431,5.046-1.734c2.529-0.639,5.39-1.069,7.449-0.787c3.472,0.472,6.648,1.849,9.575,3.262 c1.064,0.516,2.092,1.044,3.017,1.863C-207.302,129.399-206.825,130.213-206.704,131.086z M-273.999,112.379 c-5.426-2.347-12.237-2.012-16.404,2.407c-5.111,5.071-2.767,14.062,1.046,19.107c4.376,5.701,9.47,10.057,16.93,9.535 c6.452-0.211,13.199-5.719,13.532-12.572C-258.536,124.006-268.154,114.891-273.999,112.379z M-143.262,143.72 c-0.859-6.011-6.245-10.18-12.029-11.395c-6.243-1.278-19.335,0.65-23.002,6.45c-3.646,5.804-1.282,14.185,3.875,18.059 c5.807,4.738,12.466,4.086,19.342,1.928C-149.069,156.834-141.966,150.825-143.262,143.72z"/></g></svg>