<?xml version="1.0" encoding="UTF-8" standalone="no"?><svg xmlns="http://www.w3.org/2000/svg" xmlns:xlink="http://www.w3.org/1999/xlink" contentScriptType="text/ecmascript" fill="#000000" width="819.5" zoomAndPan="magnify" contentStyleType="text/css" viewBox="-5.7 -5.5 819.5 508.7" height="508.7" preserveAspectRatio="xMidYMid meet" version="1"><g id="change1_1"><path fill="#bae6ff" d="M725,494.1c-13.4,0.5-26.8,1.1-40.2,1.5 M684.8,495.6c-216.5,7.6-433.3,5.2-649.7-7.2 c-7.4-0.4-14.6-5-16.5-12.6c-4.7-18.8-6.8-37.7-6.2-57.1c0.1-3.8,1.2-6.9,3-9.3c2.6-4.5,7.3-7.8,14.2-7.8 c31.1,0.2,62.2,0.3,93.4,0.5c134.5,0.7,269.1,1.4,403.6,2.1c84.8,0.4,169.5,0.9,254.3,1.3c8.4,0.1,17.8,7.9,17,17.2 c-1.6,17.3-3.1,34.7-4.7,52c-0.9,9.6-7.2,16.7-17.1,17.1c-17,0.8-34.1,1.6-51.1,2.3"/></g><g id="change2_1"><path fill="#fd87b1" d="M805.2,342.8c-8.6-25-29-42-52.1-53.5c-51-25.3-112-26.4-167.8-27.3c-15.4-0.2-30.8-0.1-46.2,0.3 c-12.6,0.4-35.6,5.8-42.8-7.6c-5.7-10.6-1.6-27.5,2.6-37.9c4.9-12.4,10.2-24.8,14.2-37.8c15.1-48.7,19.2-106.6-18.4-146.6 C459.1-5.5,389.1-4.7,342.3,7.3c-34.5,8.8-63.9,28.8-86,56.7c-26.5,33.6-30.6,71.5-10.6,109.2c10.1,19,19.6,36.8,22.1,58.6 c1.3,11.4,2.6,26.1-8.8,32.6c-8.7,5-24.2,5.8-33.8,6.7C165,277.3,89,254.8,35.8,292.4C-2.5,319.3-5.7,371.2,6,412.8 c2,7.2,9,12.7,16.5,12.6c134.6-1.7,269.2-1.9,403.9-0.7c120.7,1.2,241.5,3.6,362.2,7.2c6.9,0.2,15.3-5.4,16.5-12.6 C809.4,394.3,813.8,367.5,805.2,342.8z M422.7,111.9c-4.4,23.2-32.4,45-56.3,38.3c-21-5.9-31.9-29.1-25.9-49.5 c6-20,28.7-37.6,50-31.5c2.2,0.6,4.2,1.5,6.2,2.6C413.7,74.8,426.4,91.9,422.7,111.9z"/></g><g id="change3_1"><path fill="#fff9ed" d="M43.7,426.8c1.5,6.5-8.5,9.2-9.9,2.7c-9.3-41,6.4-84.7,41.6-108.5c36.3-24.5,80.8-22.7,122.6-21.8 c25.6,0.5,54.7-0.7,72.1-22.4c18-22.5,15.5-53.2,7.6-79.2c-6.8-22.5-18-43.4-17.2-67.4c0.6-19.3,7.2-38.3,18-54.3 c23.4-34.5,63.9-50.7,104.3-52.6c6.6-0.3,6.6,10,0,10.3C321,36.5,256.6,84.7,273.3,153.3c6.5,26.8,20.2,50.6,20.8,78.9 c0.4,20.7-6,42.4-21.2,57c-34,32.7-89.4,16.4-131.4,20.7c-28.5,2.9-57.6,12.2-77.1,34.2C44.3,366.6,37.1,397.7,43.7,426.8z M771.1,421.9c5.2-39.4,7.4-85-26.1-113c-37.4-31.2-89.5-24.7-134.4-21.3c-26.5,2-53,4.6-79.5,5.9c-27,1.3-65.9-2.5-73.5-34.8 c-6.4-26.9,10.7-58.1,20.3-82.4c8.4-21,15.8-42.5,16.3-65.4c1.2-51.6-36.8-79.5-84.5-86c-6.5-0.9-9.3,9-2.7,9.9 c32.8,4.5,66,18.2,74.7,53.5c7.7,31.1-4.7,62.5-16.1,91c-16.4,41-37.2,97.4,16.9,118.8c27.1,10.7,58.7,4.9,86.8,2.8 c31.5-2.4,63.3-6.3,94.9-6.1c32.6,0.1,69.8,8.2,88.2,38c10.2,16.5,12.4,35.9,11.7,55.3c-238.8,7.7-477.6,12.7-716.5,15 c-6.6,0.1-6.6,10.3,0,10.3c238.7-2.3,477.3-7.2,715.9-15c-0.7,7.9-1.6,15.7-2.6,23.2c-234.8,7.6-469.7,7.6-704.5,0.1 c-6.6-0.2-6.6,10.1,0,10.3c236.6,7.6,473.3,7.5,709.9-0.3c4.5-0.1,6-5,4.3-8C770.8,423.2,771,422.6,771.1,421.9z"/></g><g id="change4_1"><path fill="#fffefe" d="M650.3,324.9c1.5-2.3,4.5-3.3,7-1.8c2.3,1.4,3.4,4.7,1.8,7c-2.4,3.6-4.7,7.3-7.1,10.9 c-1.5,2.3-4.5,3.3-7,1.8c-2.3-1.4-3.4-4.7-1.8-7C645.6,332.2,648,328.5,650.3,324.9L650.3,324.9z M684.3,319.1 c-2.5,4.3-5.1,8.6-7.6,12.9c-3.4,5.7,5.5,10.9,8.9,5.2c2.5-4.3,5.1-8.6,7.6-12.9C696.6,318.5,687.7,313.4,684.3,319.1L684.3,319.1z M660,355.1c-0.9,2-1.8,3.3-3.1,4.7c-1.9,2-2,5.3,0,7.3c1.9,1.9,5.4,2,7.3,0c1.9-2,3.5-4.3,4.7-6.8s0.7-5.5-1.8-7 C664.8,352,661.2,352.6,660,355.1L660,355.1z M318.5,230.2c-0.9,2.8-1.7,5.6-2.6,8.3c-0.8,2.6,0.9,5.7,3.6,6.3 c2.8,0.6,5.5-0.8,6.3-3.6c0.9-2.8,1.7-5.6,2.6-8.3c0.8-2.6-0.9-5.7-3.6-6.3C322,226,319.4,227.5,318.5,230.2L318.5,230.2z M347,215.5c-1.3,3.9-2.5,7.7-3.8,11.6c-2.1,6.3,7.9,9,9.9,2.7c1.3-3.9,2.5-7.7,3.8-11.6C358.9,211.9,349,209.2,347,215.5L347,215.5 z M332,252.2c-1.5,2.6-2.6,5.4-3.1,8.3c-0.5,2.6,0.7,5.7,3.6,6.3c2.5,0.6,5.8-0.8,6.3-3.6c0.4-2.4,0.9-3.9,2.1-5.8 c1.4-2.4,0.6-5.6-1.8-7C336.6,249,333.4,249.8,332,252.2L332,252.2z"/></g></svg>