<?xml version="1.0" encoding="UTF-8" standalone="no"?><svg xmlns="http://www.w3.org/2000/svg" xmlns:xlink="http://www.w3.org/1999/xlink" contentScriptType="text/ecmascript" fill="#000000" width="494" zoomAndPan="magnify" contentStyleType="text/css" viewBox="-0.5 -0.3 494.0 155.6" height="155.6" preserveAspectRatio="xMidYMid meet" version="1"><g id="change1_1"><path fill="#ffd7e5" d="M492.47,3.29C485.62,19,480.09,35.24,473.3,50.97c-0.55,1.27-1.12,2.54-1.68,3.8 c-2.74,6.78-5.46,13.56-8.22,20.33c-2.6,6.37-4.97,12.83-7.85,19.08c-2.39,6.53-5.5,12.76-8.23,19.14 c-2.3,5.4-4.96,10.63-7.46,15.93c-0.52,1.09-1.28,1.64-2.46,1.87c-3.78,0.72-7.62,0.59-11.42,1c-6.15,0.66-12.29,1.35-18.44,1.97 c-7.18,0.72-14.37,1.38-21.55,2.06c-1.14,0.11-2.29,0.18-3.44,0.27c-13.51,1.28-27.04,2.31-40.59,3.05 c-1.57,0.09-3.12,0.47-4.71,0.27c-11.95,0.76-23.9,1.54-35.85,2.27c-13.77,0.84-27.55,1.65-41.33,2.46 c-10.92,0.65-21.85,1.3-32.77,1.92c-10.26,0.59-20.52,1.15-30.78,1.71c-1.27,0.07-2.55,0.04-3.83,0.05 c-3.15,0.41-6.32,0.46-9.48,0.47c-0.35,0.28-0.76,0.32-1.2,0.33c-16.23,0.48-32.47,0.89-48.69,1.47 c-21.04,0.74-42.08,0.87-63.12,1.52c-12.03,0.37-24.05,1.15-36.07,1.75c-0.36,0.02-0.73-0.01-1.09-0.01 c-5.21,0.36-10.43,0.75-15.64,1.08c-3.52,0.22-7.04,0.5-10.57,0.4c-1.17-0.03-2.3-0.17-3.42-0.46c-2.68-0.69-3.84-2.4-3.23-5.17 c1.62-7.4,3.83-14.65,6.38-21.78c3.2-10.42,6.83-20.7,10.57-30.94c8.93-24.43,18.3-48.69,28.78-72.51c0.17-0.39,0.32-0.78,0.52-1.16 c2.24-4.43,1.39-3.91,6.43-3.73c10.96-0.63,21.92-1.26,32.88-1.88c0.6-0.03,1.21,0.01,1.81,0.02c3.37-0.58,6.79-0.47,10.18-0.66 c19.24-1.08,38.5-1.98,57.74-3.1c19.42-1.13,38.84-2.28,58.27-3.25c16.88-0.84,33.75-1.9,50.62-2.77 c11.9-0.61,23.81-1.02,35.72-1.57c11.72-0.54,23.44-1.15,35.16-1.71c1.27-0.06,2.55-0.03,3.83-0.04c6.11-0.68,12.26-0.72,18.39-1.06 c5.64-0.31,11.3-0.37,16.95-0.54c4.41-0.19,8.83-0.42,13.24-0.57c8.48-0.28,16.96-0.51,25.44-0.75c0.79-0.02,1.57,0.02,2.36,0.03 c15.24-0.69,30.46-1.85,45.73-1.48c7.41,0.13,14.82,0.27,22.23,0.39c2.37,0.04,4.74,0.06,7.11,0.03 C493.31,0.45,493.59,0.72,492.47,3.29z"/></g><g id="change1_2"><path fill="#ffd7e5" d="M455.54,94.18c-2.39,6.53-5.5,12.76-8.23,19.14c-2.3,5.4-4.96,10.63-7.46,15.93 c-0.52,1.09-1.28,1.64-2.46,1.87c-3.78,0.72-7.62,0.59-11.42,1c-6.15,0.66-12.29,1.35-18.44,1.97c-7.18,0.72-14.37,1.38-21.55,2.06 c-1.14,0.11-2.29,0.18-3.44,0.27c-0.13-2.6-0.17-5.22-0.42-7.81c-0.36-3.61-0.41-7.28-1.44-10.8c-0.85-2.91-2.42-5.27-5.74-5.58 c-2.03-0.19-3.93,0.63-5.77,1.43c-8.02,3.47-15.21,8.32-22.27,13.39c-4.51,3.23-7.69,7.5-9.66,12.69 c-11.95,0.76-23.9,1.54-35.85,2.27c-13.77,0.84-27.55,1.65-41.33,2.46c-10.92,0.65-21.85,1.3-32.77,1.92 c-10.26,0.59-20.52,1.15-30.78,1.71c-1.27,0.07-2.55,0.04-3.83,0.05c4.89-5.15,9.65-10.43,13.42-16.48 c4.08-6.56,7.27-13.44,7.05-21.47c-0.15-5.83-4.55-10.46-10.36-10.54c-6.08-0.08-11.13,2.21-14.96,6.95 c-0.8,0.99-1.19,0.99-2.12,0.25c-1.67-1.34-3.61-2.29-5.6-3.01c-6.47-2.34-11.08-0.43-13.86,4.96c-1.79,3.48-1.8,7.37-1.14,11.07 c1.56,8.73,5.79,16.15,12,22.47c2.04,2.08,4.27,3.97,6.09,6.27c-0.35,0.28-0.76,0.32-1.2,0.33c-16.23,0.48-32.47,0.89-48.69,1.47 c-21.04,0.74-42.08,0.87-63.12,1.52c-12.03,0.37-24.05,1.15-36.07,1.75c-0.36,0.02-0.73-0.01-1.09-0.01 c0.72-2.12,1.46-4.24,2.15-6.38c1.74-5.42,2.14-11.05,2.62-16.67c0.21-2.44-1.21-4.34-3.56-5.12c-1.39-0.46-2.83-0.64-4.3-0.66 c-7.93-0.11-15.72,0.96-23.4,2.88c3.2-10.42,6.83-20.7,10.57-30.94c8.93-24.43,18.3-48.69,28.78-72.51 c0.17-0.39,0.32-0.78,0.52-1.16c2.24-4.43,1.39-3.91,6.43-3.73C57.81,27.4,64,34.38,70.85,40.78c2.44,2.28,5.61,1.76,7.53-0.97 c0.28-0.4,0.54-0.81,0.79-1.22c1.92-3.11,3.47-6.41,4.86-9.78c1.5-3.64,3.04-7.29,3.5-11.26c3.37-0.58,6.79-0.47,10.18-0.66 c19.24-1.08,38.5-1.98,57.74-3.1c19.42-1.13,38.84-2.28,58.27-3.25c16.88-0.84,33.75-1.9,50.62-2.77 c11.9-0.61,23.81-1.02,35.72-1.57c11.72-0.54,23.44-1.15,35.16-1.71c1.27-0.06,2.55-0.03,3.83-0.04c-1.28,0.69-2.57,1.37-3.85,2.06 c-2.96,1.59-5.8,3.33-8.02,5.91c-2.09,2.43-3.27,5.14-2.26,8.38c0.88,2.83,3.04,4.46,5.67,5.53c3.7,1.5,7.52,1.87,11.44,1.16 c1.26-0.23,2.06-0.07,2.24,1.5c0.24,2.05,0.95,4,1.74,5.92c2.54,6.13,7.94,8.27,13.99,5.62c7.25-3.18,11.24-9.03,13.38-16.34 c2.05-7.01,2.98-14.11,1.01-21.33c4.41-0.19,8.83-0.42,13.24-0.57c8.48-0.28,16.96-0.51,25.44-0.75c0.79-0.02,1.57,0.02,2.36,0.03 c1.45,7.19,4.1,13.97,7,20.67c0.55,1.28,1.21,2.53,1.98,3.68c2.1,3.11,5.08,4.01,8.59,2.7c1.43-0.53,2.75-1.28,4.02-2.12 c4.68-3.09,8.97-6.67,13.21-10.32c3.36-2.91,6.6-5.95,9.37-9.43c1.55-1.95,2.85-4.01,1.55-6.65c7.41,0.13,14.82,0.27,22.23,0.39 c2.37,0.04,4.74,0.06,7.11,0.03c2.81-0.04,3.09,0.23,1.97,2.8C485.62,19,480.09,35.24,473.3,50.97c-0.55,1.27-1.12,2.54-1.68,3.8 c-0.17-0.05-0.39-0.05-0.52-0.15c-4.44-3.7-9.41-3.3-14.49-1.83c-4.56,1.32-8.48,3.81-12.22,6.69c-2.4,1.85-1.62,2-3.85-0.23 c-2-2-4.23-3.62-6.8-4.81c-7.01-3.24-13.81-0.79-16.37,6c-1.95,5.18-2.26,10.68-1.38,15.99c1.82,10.91,7.6,19.8,15.47,27.38 c1.44,1.38,3.17,2.58,5.41,1.77c4.48-1.62,8.58-3.93,12.45-6.73C451.43,97.33,453.23,95.41,455.54,94.18z M300.68,73.37 c-4.49,0.11-7.68,1.99-9.43,5.95c-1.75,3.96-1.93,8.18-1.19,12.34c1.03,5.8,3.62,11.08,6.45,16.18c2.48,4.46,5.4,8.6,9.45,11.88 c2.87,2.32,4.98,2.66,7.79,0.34c3.08-2.54,6.09-5.19,9-7.94c3.76-3.54,7.43-7.18,10.58-11.29c4.49-5.84,8.9-11.75,9.94-19.36 c0.92-6.78-3.28-13.4-11-13.53c-6.31-0.1-11.47,2.8-15.75,7.24c-1.99,2.06-1.85,2.14-4.44,1.12 C308.34,74.83,304.51,73.71,300.68,73.37z M236.55,42.16c0.79,9.05,2.63,18.21,9.65,25.68c4.49,4.78,5.64,5.17,11.44,2.07 c7.4-3.95,13.9-9.13,20.32-14.44c6.14-5.08,10.01-11.5,11.36-19.38c1.52-8.92-5.12-15.18-13.92-13.12c-4.27,1-7.82,3.31-10.85,6.4 c-1.03,1.05-1.64,0.98-2.59-0.05c-2.03-2.21-4.39-4.03-7.12-5.31c-5.73-2.67-10.75-1.3-14.33,3.91 C237.69,32.02,236.76,36.68,236.55,42.16z M60.77,92.96c0.02,1.89,0.17,3.76,0.46,5.63c1.19,7.42,3.11,14.61,8.35,20.27 c4.55,4.92,6.42,4.97,11.21,3.08c8.14-3.19,15.43-7.73,21.54-14.02c3.94-4.06,7.12-8.63,8.42-14.28 c1.73-7.58-2.93-13.41-10.71-13.26c-4.26,0.08-8.09,1.61-11.45,4.18c-1.07,0.82-1.49,0.71-2.13-0.44c-1.76-3.17-4.04-5.92-7.18-7.86 c-5.1-3.15-10.37-2.29-14.14,2.36C61.75,82.81,60.72,87.72,60.77,92.96z M175.29,25.95c-2.15,0.18-5.12,0.43-8.08,0.66 c-5.24,0.41-10.38,1.27-15.21,3.45c-4.34,1.97-8.13,4.56-10.33,9.05c-2.19,4.47-0.42,8.15,2.67,10.44c1.93,1.42,4.1,2.33,6.45,2.88 c1.15,0.27,2.71-0.54,3.38,0.61c0.56,0.97,0.37,2.36,0.57,3.56c1.28,7.86,7.98,11.38,15.06,7.87c2.54-1.26,4.72-3.02,6.42-5.29 c5.96-7.95,8.21-16.95,7.33-26.76C183.11,27.57,181.09,25.9,175.29,25.95z"/></g><g id="change2_1"><path fill="#bae6ff" d="M455.54,94.18c-2.32,1.23-4.12,3.15-6.22,4.67c-3.86,2.8-7.96,5.11-12.45,6.73 c-2.24,0.81-3.97-0.39-5.41-1.77c-7.88-7.57-13.66-16.47-15.47-27.38c-0.89-5.31-0.58-10.81,1.38-15.99c2.56-6.79,9.36-9.24,16.37-6 c2.57,1.18,4.8,2.81,6.8,4.81c2.23,2.23,1.45,2.08,3.85,0.23c3.74-2.88,7.66-5.37,12.22-6.69c5.07-1.47,10.05-1.86,14.49,1.83 c0.13,0.11,0.34,0.1,0.52,0.15c-2.74,6.78-5.46,13.56-8.22,20.33C460.8,81.47,458.43,87.93,455.54,94.18z M192.69,148.16 c4.89-5.15,9.65-10.43,13.42-16.48c4.08-6.56,7.27-13.44,7.05-21.47c-0.15-5.83-4.55-10.46-10.36-10.54 c-6.08-0.08-11.13,2.21-14.96,6.95c-0.8,0.99-1.19,0.99-2.12,0.25c-1.67-1.34-3.61-2.29-5.6-3.01c-6.47-2.34-11.08-0.43-13.86,4.96 c-1.79,3.48-1.8,7.37-1.14,11.07c1.56,8.73,5.79,16.15,12,22.47c2.04,2.08,4.27,3.97,6.09,6.27 C186.37,148.63,189.54,148.58,192.69,148.16z M85.72,17.53c-10.96,0.62-21.92,1.25-32.88,1.88C57.81,27.4,64,34.38,70.85,40.78 c2.44,2.28,5.61,1.76,7.53-0.97c0.28-0.4,0.54-0.81,0.79-1.22c1.92-3.11,3.47-6.41,4.86-9.78c1.5-3.64,3.04-7.29,3.5-11.26 C86.93,17.54,86.32,17.49,85.72,17.53z M291.25,79.32c-1.75,3.96-1.93,8.18-1.19,12.34c1.03,5.8,3.62,11.08,6.45,16.18 c2.48,4.46,5.4,8.6,9.45,11.88c2.87,2.32,4.98,2.66,7.79,0.34c3.08-2.54,6.09-5.19,9-7.94c3.76-3.54,7.43-7.18,10.58-11.29 c4.49-5.84,8.9-11.75,9.94-19.36c0.92-6.78-3.28-13.4-11-13.53c-6.31-0.1-11.47,2.8-15.75,7.24c-1.99,2.06-1.85,2.14-4.44,1.12 c-3.74-1.48-7.57-2.6-11.4-2.94C296.18,73.48,293,75.36,291.25,79.32z"/></g><g id="change3_1"><path fill="#a9eba1" d="M461.17,0.07c1.3,2.64,0,4.7-1.55,6.65c-2.77,3.49-6.01,6.53-9.37,9.43c-4.23,3.66-8.53,7.23-13.21,10.32 c-1.27,0.84-2.59,1.59-4.02,2.12c-3.51,1.31-6.49,0.41-8.59-2.7c-0.78-1.15-1.43-2.41-1.98-3.68c-2.9-6.7-5.55-13.48-7-20.67 C430.67,0.86,445.89-0.3,461.17,0.07z M246.2,67.84c4.49,4.78,5.64,5.17,11.44,2.07c7.4-3.95,13.9-9.13,20.32-14.44 c6.14-5.08,10.01-11.5,11.36-19.38c1.52-8.92-5.12-15.18-13.92-13.12c-4.27,1-7.82,3.31-10.85,6.4c-1.03,1.05-1.64,0.98-2.59-0.05 c-2.03-2.21-4.39-4.03-7.12-5.31c-5.73-2.67-10.75-1.3-14.33,3.91c-2.82,4.11-3.75,8.77-3.96,14.25 C237.34,51.21,239.19,60.37,246.2,67.84z M60.77,92.96c-0.05-5.24,0.97-10.15,4.37-14.34c3.77-4.65,9.04-5.51,14.14-2.36 c3.14,1.94,5.41,4.69,7.18,7.86c0.64,1.14,1.06,1.26,2.13,0.44c3.36-2.57,7.19-4.1,11.45-4.18c7.78-0.14,12.44,5.68,10.71,13.26 c-1.29,5.64-4.48,10.22-8.42,14.28c-6.1,6.3-13.4,10.83-21.54,14.02c-4.8,1.88-6.66,1.83-11.21-3.08 c-5.24-5.66-7.16-12.85-8.35-20.27C60.94,96.73,60.79,94.85,60.77,92.96z"/></g><g id="change4_1"><path fill="#fdf5b6" d="M374.4,2.84c1.97,7.22,1.03,14.32-1.01,21.33c-2.13,7.3-6.13,13.15-13.38,16.34 c-6.05,2.66-11.45,0.51-13.99-5.62c-0.79-1.92-1.51-3.87-1.74-5.92c-0.18-1.57-0.97-1.73-2.24-1.5c-3.92,0.71-7.74,0.34-11.44-1.16 c-2.63-1.07-4.79-2.69-5.67-5.53c-1.01-3.24,0.16-5.95,2.26-8.38c2.22-2.58,5.07-4.32,8.02-5.91c1.28-0.69,2.57-1.37,3.85-2.06 c6.11-0.68,12.26-0.72,18.39-1.06C363.09,3.06,368.75,3.01,374.4,2.84z M0.16,149.53c-0.61,2.77,0.56,4.48,3.23,5.17 c1.12,0.29,2.26,0.42,3.42,0.46c3.53,0.1,7.05-0.18,10.57-0.4c5.22-0.32,10.43-0.71,15.64-1.08c0.72-2.12,1.46-4.24,2.15-6.38 c1.74-5.42,2.14-11.05,2.62-16.67c0.21-2.44-1.21-4.34-3.56-5.12c-1.39-0.46-2.83-0.64-4.3-0.66c-7.93-0.11-15.72,0.96-23.4,2.88 C3.99,134.89,1.78,142.13,0.16,149.53z M341.95,139.47c13.55-0.74,27.08-1.77,40.59-3.05c-0.13-2.6-0.17-5.22-0.42-7.81 c-0.36-3.61-0.41-7.28-1.44-10.8c-0.85-2.91-2.42-5.27-5.74-5.58c-2.03-0.19-3.93,0.63-5.77,1.43c-8.02,3.47-15.21,8.32-22.27,13.39 c-4.51,3.23-7.69,7.5-9.66,12.69C338.83,139.94,340.38,139.55,341.95,139.47z M167.2,26.62c-5.24,0.41-10.38,1.27-15.21,3.45 c-4.34,1.97-8.13,4.56-10.33,9.05c-2.19,4.47-0.42,8.15,2.67,10.44c1.93,1.42,4.1,2.33,6.45,2.88c1.15,0.27,2.71-0.54,3.38,0.61 c0.56,0.97,0.37,2.36,0.57,3.56c1.28,7.86,7.98,11.38,15.06,7.87c2.54-1.26,4.72-3.02,6.42-5.29c5.96-7.95,8.21-16.95,7.33-26.76 c-0.44-4.86-2.46-6.52-8.26-6.47C173.13,26.13,170.17,26.38,167.2,26.62z"/></g></svg>