<?xml version="1.0" encoding="UTF-8" standalone="no"?><!-- Generator: Adobe Illustrator 23.0.1, SVG Export Plug-In . SVG Version: 6.00 Build 0)  --><svg xmlns="http://www.w3.org/2000/svg" xmlns:xlink="http://www.w3.org/1999/xlink" contentScriptType="text/ecmascript" zoomAndPan="magnify" contentStyleType="text/css" id="Layer_1" enable-background="new 0 0 491 259.1" version="1.1" xml:space="preserve" fill="#000000" preserveAspectRatio="xMidYMid meet" viewBox="0 0 491 259.1" x="0px" y="0px">
<g id="change1_1"><path fill="#fd87b1" d="m168.8 210.6c0.1 10.3-4.7 16.8-12 18.2-7.2 1.3-13.9-2.4-16.7-10.2-20.6-57.9-41.4-115.7-61.3-173.9-3.6-10.6-4.1-22.4-4.6-33.7-0.2-3.3 3.7-8.3 7-10 4.8-2.6 9.6 0.4 11.9 5.2 5 10.2 10.3 20.4 14.2 31.1 20 54.9 39.7 109.9 59.4 164.9 1.1 3.3 1.7 6.8 2.1 8.4z"/></g>
<g id="change1_2"><path fill="#fd87b1" d="m402 24c-2.1 6.3-3.5 10.6-5.1 14.9-19.4 51.9-38.8 103.7-58.3 155.6-2.4 6.4-4.6 13-7.4 19.2-3.2 7.1-9.6 10.2-16.1 8.6-6.4-1.6-11.1-7.5-11.2-14.7 0-2.5 0.3-5.1 1.1-7.5 16.1-53.6 35.3-106.1 57.7-157.4 4-9.2 9.6-17.8 15.5-26 3.5-4.8 9.8-6.5 15.1-3.1 3.8 2.5 6.1 7.2 8.7 10.4z"/></g>
<g id="change1_3"><path fill="#fd87b1" d="m92.4 240.7c-0.1 9.5-2.9 14.7-9.3 17.2-6.5 2.6-12.3 0.7-16.3-4.7-25.2-34.3-48.5-69.9-63.7-109.9-3.4-8.8-3.1-19.4-3-29.1 0-3.2 4.1-8 7.2-9.1 2.6-0.9 7.9 1.9 9.9 4.6 4.8 6.5 8.9 13.6 12.3 21 15.8 34.6 35.8 66.8 57 98.2 2.9 4.3 4.7 9.3 5.9 11.8z"/></g>
<g id="change1_4"><path fill="#fd87b1" d="m377.5 237.3c1.1-2.3 2.7-6.9 5.4-10.7 7.5-10.2 15.2-20.4 23.4-30.1 20.4-24 41.2-47.7 61.8-71.6 4.4-5.2 9.3-9 16.5-5.5 6 2.9 8 8.7 5 17.2-2.5 6.8-5.4 13.8-9.6 19.7-7.2 10.1-15.5 19.5-23.4 29.1-16.9 20.3-34 40.5-51 60.7-1.1 1.4-2.2 2.8-3.5 4.1-4.5 4.6-9.9 6.4-16 3.6-6-2.7-8.6-7.6-8.6-16.5z"/></g>
<g id="change1_5"><path fill="#fd87b1" d="m246.4 167.9c0 11.2 0.1 22.4-0.1 33.6-0.1 3.5-0.6 7.2-1.7 10.5-2.2 6.4-6.8 10.1-13.8 9.9-6.6-0.2-10.9-4-12.9-10.1-1-3.1-1.2-6.5-1.4-9.8-1-24.6-2.2-49.3-2.8-73.9-0.2-7.5 0.3-15.3 2.1-22.6 0.8-3.4 5-8 8.2-8.4 3.6-0.5 9.4 2 11.4 5 3.7 5.8 6.7 12.7 7.7 19.5 2.1 15.4 2.7 30.9 3.9 46.4-0.3-0.1-0.5-0.1-0.6-0.1z"/></g>
</svg>