<?xml version="1.0" encoding="UTF-8" standalone="no"?><svg xmlns="http://www.w3.org/2000/svg" xmlns:xlink="http://www.w3.org/1999/xlink" contentScriptType="text/ecmascript" fill="#000000" width="414.2" zoomAndPan="magnify" contentStyleType="text/css" viewBox="0.0 0.0 414.2 500.0" height="500" preserveAspectRatio="xMidYMid meet" version="1"><defs><clipPath id="a"><path d="M 0 0 L 414.238281 0 L 414.238281 500 L 0 500 Z M 0 0"/></clipPath></defs><g><g id="change1_1"><path fill="#a09bff" d="M 353.535156 15.285156 L 353.535156 478.136719 C 353.535156 490.210938 343.746094 500 331.671875 500 L 21.863281 500 C 9.789062 500 0 490.210938 0 478.136719 L 0 315.859375 C 0 315.855469 0 315.855469 0 315.855469 L 0 10.417969 C 2.507812 10.992188 5.988281 11.617188 8.445312 11.363281 C 8.445312 11.363281 10.875 14.03125 12.6875 16.429688 C 12.515625 16.984375 12.421875 17.570312 12.421875 18.183594 C 12.421875 21.515625 15.148438 24.210938 18.492188 24.160156 C 21.546875 24.117188 24.167969 21.636719 24.367188 18.585938 C 24.566406 15.578125 22.539062 13.019531 19.777344 12.367188 C 19.859375 11.308594 20.144531 9.683594 21.066406 8.574219 C 22.050781 7.394531 24.34375 2.867188 25.757812 0 L 35.621094 0 C 35.039062 1.90625 34.132812 5.542969 34.867188 7.839844 C 35.410156 9.550781 37.058594 12.035156 38.496094 14 C 37.265625 15.257812 36.582031 17.054688 36.84375 19.007812 C 37.1875 21.589844 39.269531 23.710938 41.847656 24.09375 C 45.800781 24.679688 49.160156 21.398438 48.703125 17.464844 C 48.476562 15.492188 47.175781 13.777344 45.40625 12.867188 C 43.925781 12.105469 42.546875 12.078125 41.304688 12.390625 C 39.667969 10.976562 37.3125 8.570312 37.800781 6.8125 C 38.246094 5.214844 38.582031 2.160156 38.777344 0 L 64.515625 0 L 64.515625 12.8125 C 62.527344 13.78125 61.152344 15.820312 61.152344 18.183594 C 61.152344 21.71875 64.222656 24.539062 67.84375 24.121094 C 70.492188 23.8125 72.675781 21.691406 73.046875 19.054688 C 73.53125 15.628906 71.109375 12.664062 67.890625 12.257812 L 67.890625 0 L 84.542969 0 C 85.59375 1.292969 87.027344 3.332031 87.121094 4.90625 C 87.203125 6.339844 87.96875 10.050781 88.601562 12.949219 C 86.507812 14.113281 85.179688 16.492188 85.589844 19.136719 C 85.972656 21.609375 87.945312 23.632812 90.40625 24.066406 C 94.1875 24.730469 97.472656 21.839844 97.472656 18.183594 C 97.472656 17.84375 97.363281 17.503906 97.199219 17.207031 C 94.5 12.429688 92.632812 12.074219 90.933594 12.230469 C 90.367188 8.429688 89.46875 3.035156 88.734375 1.382812 C 88.523438 0.910156 88.355469 0.449219 88.214844 0 L 114.421875 0 L 114.421875 12.382812 C 111.8125 13.027344 109.878906 15.378906 109.878906 18.183594 C 109.878906 21.875 113.226562 24.785156 117.054688 24.046875 C 119.300781 23.609375 121.132812 21.839844 121.664062 19.613281 C 122.003906 18.203125 121.820312 16.863281 121.296875 15.710938 L 121.300781 15.710938 C 121.300781 15.710938 120.585938 13.125 118.382812 11.070312 C 116.960938 9.742188 117.683594 3.9375 118.375 0 L 133.757812 0 C 134.214844 2.8125 135.914062 13.613281 135.304688 14.785156 C 134.636719 15.75 134.242188 16.921875 134.242188 18.183594 C 134.242188 21.90625 137.648438 24.835938 141.511719 24.027344 C 143.789062 23.550781 145.621094 21.699219 146.078125 19.421875 C 146.699219 16.3125 144.914062 13.527344 142.253906 12.5625 L 142.253906 12.558594 C 142.253906 12.558594 142.246094 11.21875 140.222656 10.925781 C 138.875 10.726562 137.96875 4.285156 137.515625 0 L 162.585938 0 C 163.695312 2.425781 162.914062 5.597656 162.125 8.113281 C 161.34375 10.601562 159.3125 13.632812 158.75 16.894531 C 158.65625 17.308594 158.605469 17.738281 158.605469 18.183594 C 158.605469 21.902344 162.007812 24.832031 165.871094 24.027344 C 168.101562 23.5625 169.910156 21.78125 170.410156 19.558594 C 170.8125 17.777344 170.410156 16.09375 169.503906 14.785156 C 169.503906 14.785156 169.464844 11.511719 170.566406 7.546875 C 171.664062 3.585938 172.253906 1.382812 172.253906 1.382812 L 177.28125 0 L 188.113281 0 L 190.011719 3.585938 C 190.011719 3.585938 190.011719 8.28125 187.957031 10.191406 C 185.902344 12.097656 184.1875 14.210938 183.722656 15.28125 C 183.246094 16.140625 182.972656 17.128906 182.972656 18.183594 C 182.972656 21.695312 186 24.5 189.589844 24.128906 C 192.128906 23.863281 194.273438 21.929688 194.796875 19.433594 C 195.089844 18.039062 194.875 16.71875 194.332031 15.589844 L 194.335938 15.585938 C 194.335938 15.585938 198.230469 10.589844 200.289062 8.113281 C 202.34375 5.640625 203.371094 3.878906 203.371094 3.878906 C 203.371094 3.878906 206.894531 4.023438 208.652344 4.023438 C 209.882812 4.023438 210.824219 8.882812 211.132812 12.617188 C 208.910156 13.492188 207.335938 15.648438 207.335938 18.183594 C 207.335938 21.71875 210.40625 24.539062 214.027344 24.121094 C 216.660156 23.8125 218.84375 21.710938 219.226562 19.085938 C 219.613281 16.441406 218.265625 14.0625 216.152344 12.917969 C 216.414062 10.667969 216.546875 7.589844 215.699219 5.640625 C 214.648438 3.226562 215.929688 1.117188 217.117188 0 C 217.117188 0 230.222656 0.09375 241.175781 0.109375 C 241.410156 1.3125 241.601562 2.527344 241.734375 3.746094 C 241.855469 4.894531 241.929688 6.085938 241.546875 7.175781 C 240.960938 8.847656 239.433594 9.972656 238.03125 11.050781 C 237.523438 11.441406 237.011719 11.859375 236.546875 12.3125 C 233.785156 12.839844 231.699219 15.265625 231.699219 18.183594 C 231.699219 21.714844 234.765625 24.53125 238.378906 24.121094 C 241.035156 23.816406 243.230469 21.679688 243.597656 19.03125 C 243.914062 16.730469 242.917969 14.648438 241.261719 13.402344 C 242.675781 11.332031 244.859375 9.5625 245.441406 7.109375 C 245.875 5.285156 245.335938 3.386719 244.800781 1.589844 C 244.65625 1.097656 244.507812 0.605469 244.363281 0.113281 C 250.171875 0.113281 254.828125 0.0859375 255.65625 0 C 255.65625 0 259.015625 7.667969 256.34375 16.429688 C 256.171875 16.984375 256.078125 17.570312 256.078125 18.183594 C 256.078125 21.515625 258.804688 24.210938 262.148438 24.160156 C 265.203125 24.117188 267.824219 21.636719 268.023438 18.585938 C 268.222656 15.578125 266.195312 13.019531 263.433594 12.367188 C 263.519531 11.308594 263.800781 9.683594 264.726562 8.574219 C 265.707031 7.394531 268.003906 2.867188 269.414062 0 L 279.277344 0 C 278.695312 1.90625 277.789062 5.542969 278.523438 7.839844 C 279.066406 9.550781 280.71875 12.035156 282.152344 14 C 280.921875 15.257812 280.238281 17.054688 280.5 19.007812 C 280.847656 21.589844 282.925781 23.707031 285.503906 24.09375 C 289.453125 24.683594 292.8125 21.402344 292.363281 17.476562 C 292.136719 15.5 290.839844 13.785156 289.074219 12.871094 C 287.589844 12.105469 286.207031 12.074219 284.960938 12.390625 C 283.324219 10.976562 280.96875 8.570312 281.457031 6.8125 C 281.902344 5.214844 282.238281 2.160156 282.4375 0 L 308.171875 0 L 308.171875 12.8125 C 306.183594 13.78125 304.808594 15.820312 304.808594 18.183594 C 304.808594 21.71875 307.878906 24.539062 311.5 24.121094 C 314.144531 23.8125 316.332031 21.691406 316.703125 19.054688 C 317.1875 15.628906 314.769531 12.664062 311.546875 12.257812 L 311.546875 0 L 328.199219 0 C 329.25 1.292969 330.683594 3.332031 330.773438 4.90625 C 330.859375 6.339844 331.621094 10.050781 332.257812 12.949219 C 330.417969 13.972656 329.171875 15.929688 329.171875 18.183594 C 329.171875 21.835938 332.449219 24.726562 336.226562 24.066406 C 338.410156 23.6875 340.230469 22.039062 340.871094 19.914062 C 341.269531 18.582031 341.179688 17.3125 340.78125 16.191406 L 353.535156 15.285156"/></g><g id="change2_1" clip-path="url(#a)"><path fill="#fff9ed" d="M 347.480469 147.023438 L 347.480469 146.46875 C 346.886719 146.65625 346.296875 146.84375 345.714844 147.023438 Z M 347.480469 148.511719 L 340.808594 148.511719 C 336.902344 149.652344 333.390625 150.585938 330.398438 151.328125 L 330.398438 165.589844 L 347.480469 165.589844 Z M 347.480469 167.074219 L 330.398438 167.074219 L 330.398438 184.152344 L 347.480469 184.152344 Z M 347.480469 185.640625 L 330.398438 185.640625 L 330.398438 202.71875 L 347.480469 202.71875 Z M 347.480469 204.203125 L 330.398438 204.203125 L 330.398438 221.28125 L 347.480469 221.28125 Z M 347.480469 222.769531 L 330.398438 222.769531 L 330.398438 239.847656 L 347.480469 239.847656 Z M 347.480469 241.332031 L 330.398438 241.332031 L 330.398438 258.410156 L 347.480469 258.410156 Z M 347.480469 259.898438 L 330.398438 259.898438 L 330.398438 276.976562 L 347.480469 276.976562 Z M 347.480469 278.460938 L 330.398438 278.460938 L 330.398438 295.539062 L 347.480469 295.539062 Z M 347.480469 297.023438 L 330.398438 297.023438 L 330.398438 314.105469 L 347.480469 314.105469 Z M 347.480469 315.589844 L 330.398438 315.589844 L 330.398438 332.667969 L 347.480469 332.667969 Z M 347.480469 334.152344 L 330.398438 334.152344 L 330.398438 351.230469 L 347.480469 351.230469 Z M 347.480469 352.71875 L 330.398438 352.71875 L 330.398438 369.796875 L 347.480469 369.796875 Z M 347.480469 371.28125 L 330.398438 371.28125 L 330.398438 388.359375 L 347.480469 388.359375 Z M 347.480469 389.847656 L 330.398438 389.847656 L 330.398438 406.925781 L 347.480469 406.925781 Z M 347.480469 408.410156 L 330.398438 408.410156 L 330.398438 425.488281 L 347.480469 425.488281 Z M 347.480469 426.976562 L 330.398438 426.976562 L 330.398438 444.054688 L 347.480469 444.054688 Z M 347.480469 445.539062 L 330.398438 445.539062 L 330.398438 462.617188 L 347.480469 462.617188 Z M 347.480469 464.105469 L 330.398438 464.105469 L 330.398438 481.183594 L 347.480469 481.183594 Z M 328.914062 165.589844 L 328.914062 151.695312 C 323.121094 153.097656 319.644531 153.707031 319.644531 153.707031 L 318.382812 148.511719 L 311.835938 148.511719 L 311.835938 165.589844 Z M 328.914062 167.074219 L 311.835938 167.074219 L 311.835938 184.152344 L 328.914062 184.152344 Z M 328.914062 185.640625 L 311.835938 185.640625 L 311.835938 202.71875 L 328.914062 202.71875 Z M 328.914062 204.203125 L 311.835938 204.203125 L 311.835938 221.28125 L 328.914062 221.28125 Z M 328.914062 222.769531 L 311.835938 222.769531 L 311.835938 239.847656 L 328.914062 239.847656 Z M 328.914062 241.332031 L 311.835938 241.332031 L 311.835938 258.410156 L 328.914062 258.410156 Z M 328.914062 259.898438 L 311.835938 259.898438 L 311.835938 276.976562 L 328.914062 276.976562 Z M 328.914062 278.460938 L 311.835938 278.460938 L 311.835938 295.539062 L 328.914062 295.539062 Z M 328.914062 297.023438 L 311.835938 297.023438 L 311.835938 314.105469 L 328.914062 314.105469 Z M 328.914062 315.589844 L 311.835938 315.589844 L 311.835938 332.667969 L 328.914062 332.667969 Z M 328.914062 334.152344 L 311.835938 334.152344 L 311.835938 351.230469 L 328.914062 351.230469 Z M 328.914062 352.71875 L 311.835938 352.71875 L 311.835938 369.796875 L 328.914062 369.796875 Z M 328.914062 371.28125 L 311.835938 371.28125 L 311.835938 388.359375 L 328.914062 388.359375 Z M 328.914062 389.847656 L 311.835938 389.847656 L 311.835938 406.925781 L 328.914062 406.925781 Z M 328.914062 408.410156 L 311.835938 408.410156 L 311.835938 425.488281 L 328.914062 425.488281 Z M 328.914062 426.976562 L 311.835938 426.976562 L 311.835938 444.054688 L 328.914062 444.054688 Z M 328.914062 445.539062 L 311.835938 445.539062 L 311.835938 462.617188 L 328.914062 462.617188 Z M 328.914062 464.105469 L 311.835938 464.105469 L 311.835938 481.183594 L 328.914062 481.183594 Z M 311.835938 147.023438 L 318.019531 147.023438 L 313.859375 129.945312 L 311.835938 129.945312 Z M 311.835938 128.460938 L 313.496094 128.460938 L 312.03125 122.441406 C 312.03125 122.441406 318.636719 121.144531 328.914062 118.175781 L 328.914062 111.382812 L 311.835938 111.382812 Z M 311.835938 109.894531 L 328.914062 109.894531 L 328.914062 92.816406 L 311.835938 92.816406 Z M 311.835938 91.332031 L 328.914062 91.332031 L 328.914062 74.253906 L 311.835938 74.253906 Z M 311.835938 72.769531 L 328.914062 72.769531 L 328.914062 55.6875 L 311.835938 55.6875 Z M 311.835938 54.203125 L 328.914062 54.203125 L 328.914062 37.125 L 311.835938 37.125 Z M 330.398438 111.382812 L 330.398438 117.742188 C 335.410156 116.269531 341.203125 114.417969 347.480469 112.148438 L 347.480469 111.382812 Z M 330.398438 109.894531 L 347.480469 109.894531 L 347.480469 92.816406 L 330.398438 92.816406 Z M 330.398438 91.332031 L 347.480469 91.332031 L 347.480469 74.253906 L 330.398438 74.253906 Z M 330.398438 72.769531 L 347.480469 72.769531 L 347.480469 55.6875 L 330.398438 55.6875 Z M 330.398438 54.203125 L 347.480469 54.203125 L 347.480469 37.125 L 330.398438 37.125 Z M 348.964844 111.382812 L 348.964844 111.605469 C 349.167969 111.53125 349.371094 111.457031 349.574219 111.382812 Z M 310.351562 37.125 L 293.273438 37.125 L 293.273438 54.203125 L 310.351562 54.203125 Z M 310.351562 55.6875 L 293.273438 55.6875 L 293.273438 72.769531 L 310.351562 72.769531 Z M 310.351562 74.253906 L 293.273438 74.253906 L 293.273438 91.332031 L 310.351562 91.332031 Z M 310.351562 92.816406 L 293.273438 92.816406 L 293.273438 109.894531 L 310.351562 109.894531 Z M 310.351562 111.382812 L 293.273438 111.382812 L 293.273438 128.460938 L 310.351562 128.460938 Z M 310.351562 129.945312 L 293.273438 129.945312 L 293.273438 147.023438 L 310.351562 147.023438 Z M 310.351562 148.511719 L 293.273438 148.511719 L 293.273438 165.589844 L 310.351562 165.589844 Z M 310.351562 167.074219 L 293.273438 167.074219 L 293.273438 184.152344 L 310.351562 184.152344 Z M 310.351562 185.640625 L 293.273438 185.640625 L 293.273438 202.71875 L 310.351562 202.71875 Z M 310.351562 204.203125 L 293.273438 204.203125 L 293.273438 221.28125 L 310.351562 221.28125 Z M 310.351562 222.769531 L 293.273438 222.769531 L 293.273438 239.847656 L 310.351562 239.847656 Z M 310.351562 241.332031 L 293.273438 241.332031 L 293.273438 258.410156 L 310.351562 258.410156 Z M 310.351562 259.898438 L 293.273438 259.898438 L 293.273438 276.976562 L 310.351562 276.976562 Z M 310.351562 278.460938 L 293.273438 278.460938 L 293.273438 295.539062 L 310.351562 295.539062 Z M 310.351562 297.023438 L 293.273438 297.023438 L 293.273438 314.105469 L 310.351562 314.105469 Z M 310.351562 315.589844 L 293.273438 315.589844 L 293.273438 332.667969 L 310.351562 332.667969 Z M 310.351562 334.152344 L 293.273438 334.152344 L 293.273438 351.230469 L 310.351562 351.230469 Z M 310.351562 352.71875 L 293.273438 352.71875 L 293.273438 369.796875 L 310.351562 369.796875 Z M 310.351562 371.28125 L 293.273438 371.28125 L 293.273438 388.359375 L 310.351562 388.359375 Z M 310.351562 389.847656 L 293.273438 389.847656 L 293.273438 406.925781 L 310.351562 406.925781 Z M 310.351562 408.410156 L 293.273438 408.410156 L 293.273438 425.488281 L 310.351562 425.488281 Z M 310.351562 426.976562 L 293.273438 426.976562 L 293.273438 444.054688 L 310.351562 444.054688 Z M 310.351562 445.539062 L 293.273438 445.539062 L 293.273438 462.617188 L 310.351562 462.617188 Z M 310.351562 464.105469 L 293.273438 464.105469 L 293.273438 481.183594 L 310.351562 481.183594 Z M 291.785156 37.125 L 274.707031 37.125 L 274.707031 54.203125 L 291.785156 54.203125 Z M 291.785156 55.6875 L 274.707031 55.6875 L 274.707031 72.769531 L 291.785156 72.769531 Z M 291.785156 74.253906 L 274.707031 74.253906 L 274.707031 91.332031 L 291.785156 91.332031 Z M 291.785156 92.816406 L 274.707031 92.816406 L 274.707031 109.894531 L 291.785156 109.894531 Z M 291.785156 111.382812 L 274.707031 111.382812 L 274.707031 128.460938 L 291.785156 128.460938 Z M 291.785156 129.945312 L 274.707031 129.945312 L 274.707031 147.023438 L 291.785156 147.023438 Z M 291.785156 148.511719 L 274.707031 148.511719 L 274.707031 165.589844 L 291.785156 165.589844 Z M 291.785156 167.074219 L 274.707031 167.074219 L 274.707031 184.152344 L 291.785156 184.152344 Z M 291.785156 185.640625 L 274.707031 185.640625 L 274.707031 202.71875 L 291.785156 202.71875 Z M 291.785156 204.203125 L 274.707031 204.203125 L 274.707031 221.28125 L 291.785156 221.28125 Z M 291.785156 222.769531 L 274.707031 222.769531 L 274.707031 239.847656 L 291.785156 239.847656 Z M 291.785156 241.332031 L 274.707031 241.332031 L 274.707031 258.410156 L 291.785156 258.410156 Z M 291.785156 259.898438 L 274.707031 259.898438 L 274.707031 276.976562 L 291.785156 276.976562 Z M 291.785156 278.460938 L 274.707031 278.460938 L 274.707031 295.539062 L 291.785156 295.539062 Z M 291.785156 297.023438 L 274.707031 297.023438 L 274.707031 314.105469 L 291.785156 314.105469 Z M 291.785156 315.589844 L 274.707031 315.589844 L 274.707031 332.667969 L 291.785156 332.667969 Z M 291.785156 334.152344 L 274.707031 334.152344 L 274.707031 351.230469 L 291.785156 351.230469 Z M 291.785156 352.71875 L 274.707031 352.71875 L 274.707031 369.796875 L 291.785156 369.796875 Z M 291.785156 371.28125 L 274.707031 371.28125 L 274.707031 388.359375 L 291.785156 388.359375 Z M 291.785156 389.847656 L 274.707031 389.847656 L 274.707031 406.925781 L 291.785156 406.925781 Z M 291.785156 408.410156 L 274.707031 408.410156 L 274.707031 425.488281 L 291.785156 425.488281 Z M 291.785156 426.976562 L 274.707031 426.976562 L 274.707031 444.054688 L 291.785156 444.054688 Z M 291.785156 445.539062 L 274.707031 445.539062 L 274.707031 462.617188 L 291.785156 462.617188 Z M 291.785156 464.105469 L 274.707031 464.105469 L 274.707031 481.183594 L 291.785156 481.183594 Z M 273.222656 37.125 L 256.144531 37.125 L 256.144531 54.203125 L 273.222656 54.203125 Z M 273.222656 55.6875 L 256.144531 55.6875 L 256.144531 72.769531 L 273.222656 72.769531 Z M 273.222656 74.253906 L 256.144531 74.253906 L 256.144531 91.332031 L 273.222656 91.332031 Z M 273.222656 92.816406 L 256.144531 92.816406 L 256.144531 109.894531 L 273.222656 109.894531 Z M 273.222656 111.382812 L 256.144531 111.382812 L 256.144531 128.460938 L 273.222656 128.460938 Z M 273.222656 129.945312 L 256.144531 129.945312 L 256.144531 147.023438 L 273.222656 147.023438 Z M 273.222656 148.511719 L 256.144531 148.511719 L 256.144531 165.589844 L 273.222656 165.589844 Z M 273.222656 167.074219 L 256.144531 167.074219 L 256.144531 184.152344 L 273.222656 184.152344 Z M 273.222656 185.640625 L 256.144531 185.640625 L 256.144531 202.71875 L 273.222656 202.71875 Z M 273.222656 204.203125 L 256.144531 204.203125 L 256.144531 221.28125 L 273.222656 221.28125 Z M 273.222656 222.769531 L 256.144531 222.769531 L 256.144531 239.847656 L 273.222656 239.847656 Z M 273.222656 241.332031 L 256.144531 241.332031 L 256.144531 258.410156 L 273.222656 258.410156 Z M 273.222656 259.898438 L 256.144531 259.898438 L 256.144531 276.976562 L 273.222656 276.976562 Z M 273.222656 278.460938 L 256.144531 278.460938 L 256.144531 295.539062 L 273.222656 295.539062 Z M 273.222656 297.023438 L 256.144531 297.023438 L 256.144531 314.105469 L 273.222656 314.105469 Z M 273.222656 315.589844 L 256.144531 315.589844 L 256.144531 332.667969 L 273.222656 332.667969 Z M 273.222656 334.152344 L 256.144531 334.152344 L 256.144531 351.230469 L 273.222656 351.230469 Z M 273.222656 352.71875 L 256.144531 352.71875 L 256.144531 369.796875 L 273.222656 369.796875 Z M 273.222656 371.28125 L 256.144531 371.28125 L 256.144531 388.359375 L 273.222656 388.359375 Z M 273.222656 389.847656 L 256.144531 389.847656 L 256.144531 406.925781 L 273.222656 406.925781 Z M 273.222656 408.410156 L 256.144531 408.410156 L 256.144531 425.488281 L 273.222656 425.488281 Z M 273.222656 426.976562 L 256.144531 426.976562 L 256.144531 444.054688 L 273.222656 444.054688 Z M 273.222656 445.539062 L 256.144531 445.539062 L 256.144531 462.617188 L 273.222656 462.617188 Z M 273.222656 464.105469 L 256.144531 464.105469 L 256.144531 481.183594 L 273.222656 481.183594 Z M 254.65625 37.125 L 237.578125 37.125 L 237.578125 54.203125 L 254.65625 54.203125 Z M 254.65625 55.6875 L 237.578125 55.6875 L 237.578125 72.769531 L 254.65625 72.769531 Z M 254.65625 74.253906 L 237.578125 74.253906 L 237.578125 91.332031 L 254.65625 91.332031 Z M 254.65625 92.816406 L 237.578125 92.816406 L 237.578125 109.894531 L 254.65625 109.894531 Z M 254.65625 111.382812 L 237.578125 111.382812 L 237.578125 128.460938 L 254.65625 128.460938 Z M 254.65625 129.945312 L 237.578125 129.945312 L 237.578125 147.023438 L 254.65625 147.023438 Z M 254.65625 148.511719 L 237.578125 148.511719 L 237.578125 165.589844 L 254.65625 165.589844 Z M 254.65625 167.074219 L 237.578125 167.074219 L 237.578125 184.152344 L 254.65625 184.152344 Z M 254.65625 185.640625 L 237.578125 185.640625 L 237.578125 202.71875 L 254.65625 202.71875 Z M 254.65625 204.203125 L 237.578125 204.203125 L 237.578125 221.28125 L 254.65625 221.28125 Z M 254.65625 222.769531 L 237.578125 222.769531 L 237.578125 239.847656 L 254.65625 239.847656 Z M 254.65625 241.332031 L 237.578125 241.332031 L 237.578125 258.410156 L 254.65625 258.410156 Z M 254.65625 259.898438 L 237.578125 259.898438 L 237.578125 276.976562 L 254.65625 276.976562 Z M 254.65625 278.460938 L 237.578125 278.460938 L 237.578125 295.539062 L 254.65625 295.539062 Z M 254.65625 297.023438 L 237.578125 297.023438 L 237.578125 314.105469 L 254.65625 314.105469 Z M 254.65625 315.589844 L 237.578125 315.589844 L 237.578125 332.667969 L 254.65625 332.667969 Z M 254.65625 334.152344 L 237.578125 334.152344 L 237.578125 351.230469 L 254.65625 351.230469 Z M 254.65625 352.71875 L 237.578125 352.71875 L 237.578125 369.796875 L 254.65625 369.796875 Z M 254.65625 371.28125 L 237.578125 371.28125 L 237.578125 388.359375 L 254.65625 388.359375 Z M 254.65625 389.847656 L 237.578125 389.847656 L 237.578125 406.925781 L 254.65625 406.925781 Z M 254.65625 408.410156 L 237.578125 408.410156 L 237.578125 425.488281 L 254.65625 425.488281 Z M 254.65625 426.976562 L 237.578125 426.976562 L 237.578125 444.054688 L 254.65625 444.054688 Z M 254.65625 445.539062 L 237.578125 445.539062 L 237.578125 462.617188 L 254.65625 462.617188 Z M 254.65625 464.105469 L 237.578125 464.105469 L 237.578125 481.183594 L 254.65625 481.183594 Z M 236.09375 37.125 L 219.015625 37.125 L 219.015625 54.203125 L 236.09375 54.203125 Z M 236.09375 55.6875 L 219.015625 55.6875 L 219.015625 72.769531 L 236.09375 72.769531 Z M 236.09375 74.253906 L 219.015625 74.253906 L 219.015625 91.332031 L 236.09375 91.332031 Z M 236.09375 92.816406 L 219.015625 92.816406 L 219.015625 109.894531 L 236.09375 109.894531 Z M 236.09375 111.382812 L 219.015625 111.382812 L 219.015625 128.460938 L 236.09375 128.460938 Z M 236.09375 129.945312 L 219.015625 129.945312 L 219.015625 147.023438 L 236.09375 147.023438 Z M 236.09375 148.511719 L 219.015625 148.511719 L 219.015625 165.589844 L 236.09375 165.589844 Z M 236.09375 167.074219 L 219.015625 167.074219 L 219.015625 184.152344 L 236.09375 184.152344 Z M 236.09375 185.640625 L 219.015625 185.640625 L 219.015625 202.71875 L 236.09375 202.71875 Z M 236.09375 204.203125 L 219.015625 204.203125 L 219.015625 221.28125 L 236.09375 221.28125 Z M 236.09375 222.769531 L 219.015625 222.769531 L 219.015625 239.847656 L 236.09375 239.847656 Z M 236.09375 241.332031 L 219.015625 241.332031 L 219.015625 258.410156 L 236.09375 258.410156 Z M 236.09375 259.898438 L 219.015625 259.898438 L 219.015625 276.976562 L 236.09375 276.976562 Z M 236.09375 278.460938 L 219.015625 278.460938 L 219.015625 295.539062 L 236.09375 295.539062 Z M 236.09375 297.023438 L 219.015625 297.023438 L 219.015625 314.105469 L 236.09375 314.105469 Z M 236.09375 315.589844 L 219.015625 315.589844 L 219.015625 332.667969 L 236.09375 332.667969 Z M 236.09375 334.152344 L 219.015625 334.152344 L 219.015625 351.230469 L 236.09375 351.230469 Z M 236.09375 352.71875 L 219.015625 352.71875 L 219.015625 369.796875 L 236.09375 369.796875 Z M 236.09375 371.28125 L 219.015625 371.28125 L 219.015625 388.359375 L 236.09375 388.359375 Z M 236.09375 389.847656 L 219.015625 389.847656 L 219.015625 406.925781 L 236.09375 406.925781 Z M 236.09375 408.410156 L 219.015625 408.410156 L 219.015625 425.488281 L 236.09375 425.488281 Z M 236.09375 426.976562 L 219.015625 426.976562 L 219.015625 444.054688 L 236.09375 444.054688 Z M 236.09375 445.539062 L 219.015625 445.539062 L 219.015625 462.617188 L 236.09375 462.617188 Z M 236.09375 464.105469 L 219.015625 464.105469 L 219.015625 481.183594 L 236.09375 481.183594 Z M 217.527344 37.125 L 200.449219 37.125 L 200.449219 54.203125 L 217.527344 54.203125 Z M 217.527344 55.6875 L 200.449219 55.6875 L 200.449219 72.769531 L 217.527344 72.769531 Z M 217.527344 74.253906 L 200.449219 74.253906 L 200.449219 91.332031 L 217.527344 91.332031 Z M 217.527344 92.816406 L 200.449219 92.816406 L 200.449219 109.894531 L 217.527344 109.894531 Z M 217.527344 111.382812 L 200.449219 111.382812 L 200.449219 128.460938 L 217.527344 128.460938 Z M 217.527344 129.945312 L 200.449219 129.945312 L 200.449219 147.023438 L 217.527344 147.023438 Z M 217.527344 148.511719 L 200.449219 148.511719 L 200.449219 165.589844 L 217.527344 165.589844 Z M 217.527344 167.074219 L 200.449219 167.074219 L 200.449219 184.152344 L 217.527344 184.152344 Z M 217.527344 185.640625 L 200.449219 185.640625 L 200.449219 202.71875 L 217.527344 202.71875 Z M 217.527344 204.203125 L 200.449219 204.203125 L 200.449219 221.28125 L 217.527344 221.28125 Z M 217.527344 222.769531 L 200.449219 222.769531 L 200.449219 239.847656 L 217.527344 239.847656 Z M 217.527344 241.332031 L 200.449219 241.332031 L 200.449219 258.410156 L 217.527344 258.410156 Z M 217.527344 259.898438 L 200.449219 259.898438 L 200.449219 276.976562 L 217.527344 276.976562 Z M 217.527344 278.460938 L 200.449219 278.460938 L 200.449219 295.539062 L 217.527344 295.539062 Z M 217.527344 297.023438 L 200.449219 297.023438 L 200.449219 314.105469 L 217.527344 314.105469 Z M 217.527344 315.589844 L 200.449219 315.589844 L 200.449219 332.667969 L 217.527344 332.667969 Z M 217.527344 334.152344 L 200.449219 334.152344 L 200.449219 351.230469 L 217.527344 351.230469 Z M 217.527344 352.71875 L 200.449219 352.71875 L 200.449219 369.796875 L 217.527344 369.796875 Z M 217.527344 371.28125 L 200.449219 371.28125 L 200.449219 388.359375 L 217.527344 388.359375 Z M 217.527344 389.847656 L 200.449219 389.847656 L 200.449219 406.925781 L 217.527344 406.925781 Z M 217.527344 408.410156 L 200.449219 408.410156 L 200.449219 425.488281 L 217.527344 425.488281 Z M 217.527344 426.976562 L 200.449219 426.976562 L 200.449219 444.054688 L 217.527344 444.054688 Z M 217.527344 445.539062 L 200.449219 445.539062 L 200.449219 462.617188 L 217.527344 462.617188 Z M 217.527344 464.105469 L 200.449219 464.105469 L 200.449219 481.183594 L 217.527344 481.183594 Z M 198.964844 37.125 L 181.886719 37.125 L 181.886719 54.203125 L 198.964844 54.203125 Z M 198.964844 55.6875 L 181.886719 55.6875 L 181.886719 72.769531 L 198.964844 72.769531 Z M 198.964844 74.253906 L 181.886719 74.253906 L 181.886719 91.332031 L 198.964844 91.332031 Z M 198.964844 92.816406 L 181.886719 92.816406 L 181.886719 109.894531 L 198.964844 109.894531 Z M 198.964844 111.382812 L 181.886719 111.382812 L 181.886719 128.460938 L 198.964844 128.460938 Z M 198.964844 129.945312 L 181.886719 129.945312 L 181.886719 147.023438 L 198.964844 147.023438 Z M 198.964844 148.511719 L 181.886719 148.511719 L 181.886719 165.589844 L 198.964844 165.589844 Z M 198.964844 167.074219 L 181.886719 167.074219 L 181.886719 184.152344 L 198.964844 184.152344 Z M 198.964844 185.640625 L 181.886719 185.640625 L 181.886719 202.71875 L 198.964844 202.71875 Z M 198.964844 204.203125 L 181.886719 204.203125 L 181.886719 221.28125 L 198.964844 221.28125 Z M 198.964844 222.769531 L 181.886719 222.769531 L 181.886719 239.847656 L 198.964844 239.847656 Z M 198.964844 241.332031 L 181.886719 241.332031 L 181.886719 258.410156 L 198.964844 258.410156 Z M 198.964844 259.898438 L 181.886719 259.898438 L 181.886719 276.976562 L 198.964844 276.976562 Z M 198.964844 278.460938 L 181.886719 278.460938 L 181.886719 295.539062 L 198.964844 295.539062 Z M 198.964844 297.023438 L 181.886719 297.023438 L 181.886719 314.105469 L 198.964844 314.105469 Z M 198.964844 315.589844 L 181.886719 315.589844 L 181.886719 332.667969 L 198.964844 332.667969 Z M 198.964844 334.152344 L 181.886719 334.152344 L 181.886719 351.230469 L 198.964844 351.230469 Z M 198.964844 352.71875 L 181.886719 352.71875 L 181.886719 369.796875 L 198.964844 369.796875 Z M 198.964844 371.28125 L 181.886719 371.28125 L 181.886719 388.359375 L 198.964844 388.359375 Z M 198.964844 389.847656 L 181.886719 389.847656 L 181.886719 406.925781 L 198.964844 406.925781 Z M 198.964844 408.410156 L 181.886719 408.410156 L 181.886719 425.488281 L 198.964844 425.488281 Z M 198.964844 426.976562 L 181.886719 426.976562 L 181.886719 444.054688 L 198.964844 444.054688 Z M 198.964844 445.539062 L 181.886719 445.539062 L 181.886719 462.617188 L 198.964844 462.617188 Z M 198.964844 464.105469 L 181.886719 464.105469 L 181.886719 481.183594 L 198.964844 481.183594 Z M 180.398438 37.125 L 163.320312 37.125 L 163.320312 54.203125 L 180.398438 54.203125 Z M 180.398438 55.6875 L 163.320312 55.6875 L 163.320312 72.769531 L 180.398438 72.769531 Z M 180.398438 74.253906 L 163.320312 74.253906 L 163.320312 91.332031 L 180.398438 91.332031 Z M 180.398438 92.816406 L 163.320312 92.816406 L 163.320312 109.894531 L 180.398438 109.894531 Z M 180.398438 111.382812 L 163.320312 111.382812 L 163.320312 128.460938 L 180.398438 128.460938 Z M 180.398438 129.945312 L 163.320312 129.945312 L 163.320312 147.023438 L 180.398438 147.023438 Z M 180.398438 148.511719 L 163.320312 148.511719 L 163.320312 165.589844 L 180.398438 165.589844 Z M 180.398438 167.074219 L 163.320312 167.074219 L 163.320312 184.152344 L 180.398438 184.152344 Z M 180.398438 185.640625 L 163.320312 185.640625 L 163.320312 202.71875 L 180.398438 202.71875 Z M 180.398438 204.203125 L 163.320312 204.203125 L 163.320312 221.28125 L 180.398438 221.28125 Z M 180.398438 222.769531 L 163.320312 222.769531 L 163.320312 239.847656 L 180.398438 239.847656 Z M 180.398438 241.332031 L 163.320312 241.332031 L 163.320312 258.410156 L 180.398438 258.410156 Z M 180.398438 259.898438 L 163.320312 259.898438 L 163.320312 276.976562 L 180.398438 276.976562 Z M 180.398438 278.460938 L 163.320312 278.460938 L 163.320312 295.539062 L 180.398438 295.539062 Z M 180.398438 297.023438 L 163.320312 297.023438 L 163.320312 314.105469 L 180.398438 314.105469 Z M 180.398438 315.589844 L 163.320312 315.589844 L 163.320312 332.667969 L 180.398438 332.667969 Z M 180.398438 334.152344 L 163.320312 334.152344 L 163.320312 351.230469 L 180.398438 351.230469 Z M 180.398438 352.71875 L 163.320312 352.71875 L 163.320312 369.796875 L 180.398438 369.796875 Z M 180.398438 371.28125 L 163.320312 371.28125 L 163.320312 388.359375 L 180.398438 388.359375 Z M 180.398438 389.847656 L 163.320312 389.847656 L 163.320312 406.925781 L 180.398438 406.925781 Z M 180.398438 408.410156 L 163.320312 408.410156 L 163.320312 425.488281 L 180.398438 425.488281 Z M 180.398438 426.976562 L 163.320312 426.976562 L 163.320312 444.054688 L 180.398438 444.054688 Z M 180.398438 445.539062 L 163.320312 445.539062 L 163.320312 462.617188 L 180.398438 462.617188 Z M 180.398438 464.105469 L 163.320312 464.105469 L 163.320312 481.183594 L 180.398438 481.183594 Z M 161.835938 37.125 L 144.757812 37.125 L 144.757812 54.203125 L 161.835938 54.203125 Z M 161.835938 55.6875 L 144.757812 55.6875 L 144.757812 72.769531 L 161.835938 72.769531 Z M 161.835938 74.253906 L 144.757812 74.253906 L 144.757812 91.332031 L 161.835938 91.332031 Z M 161.835938 92.816406 L 144.757812 92.816406 L 144.757812 109.894531 L 161.835938 109.894531 Z M 161.835938 111.382812 L 144.757812 111.382812 L 144.757812 128.460938 L 161.835938 128.460938 Z M 161.835938 129.945312 L 144.757812 129.945312 L 144.757812 147.023438 L 161.835938 147.023438 Z M 161.835938 148.511719 L 144.757812 148.511719 L 144.757812 165.589844 L 161.835938 165.589844 Z M 161.835938 167.074219 L 144.757812 167.074219 L 144.757812 184.152344 L 161.835938 184.152344 Z M 161.835938 185.640625 L 144.757812 185.640625 L 144.757812 202.71875 L 161.835938 202.71875 Z M 161.835938 204.203125 L 144.757812 204.203125 L 144.757812 221.28125 L 161.835938 221.28125 Z M 161.835938 222.769531 L 144.757812 222.769531 L 144.757812 239.847656 L 161.835938 239.847656 Z M 161.835938 241.332031 L 144.757812 241.332031 L 144.757812 258.410156 L 161.835938 258.410156 Z M 161.835938 259.898438 L 144.757812 259.898438 L 144.757812 276.976562 L 161.835938 276.976562 Z M 161.835938 278.460938 L 144.757812 278.460938 L 144.757812 295.539062 L 161.835938 295.539062 Z M 161.835938 297.023438 L 144.757812 297.023438 L 144.757812 314.105469 L 161.835938 314.105469 Z M 161.835938 315.589844 L 144.757812 315.589844 L 144.757812 332.667969 L 161.835938 332.667969 Z M 161.835938 334.152344 L 144.757812 334.152344 L 144.757812 351.230469 L 161.835938 351.230469 Z M 161.835938 352.71875 L 144.757812 352.71875 L 144.757812 369.796875 L 161.835938 369.796875 Z M 161.835938 371.28125 L 144.757812 371.28125 L 144.757812 388.359375 L 161.835938 388.359375 Z M 161.835938 389.847656 L 144.757812 389.847656 L 144.757812 406.925781 L 161.835938 406.925781 Z M 161.835938 408.410156 L 144.757812 408.410156 L 144.757812 425.488281 L 161.835938 425.488281 Z M 161.835938 426.976562 L 144.757812 426.976562 L 144.757812 444.054688 L 161.835938 444.054688 Z M 161.835938 445.539062 L 144.757812 445.539062 L 144.757812 462.617188 L 161.835938 462.617188 Z M 161.835938 464.105469 L 144.757812 464.105469 L 144.757812 481.183594 L 161.835938 481.183594 Z M 143.269531 37.125 L 126.191406 37.125 L 126.191406 54.203125 L 143.269531 54.203125 Z M 143.269531 55.6875 L 126.191406 55.6875 L 126.191406 72.769531 L 143.269531 72.769531 Z M 143.269531 74.253906 L 126.191406 74.253906 L 126.191406 91.332031 L 143.269531 91.332031 Z M 143.269531 92.816406 L 126.191406 92.816406 L 126.191406 109.894531 L 143.269531 109.894531 Z M 143.269531 111.382812 L 126.191406 111.382812 L 126.191406 128.460938 L 143.269531 128.460938 Z M 143.269531 129.945312 L 126.191406 129.945312 L 126.191406 147.023438 L 143.269531 147.023438 Z M 143.269531 148.511719 L 126.191406 148.511719 L 126.191406 165.589844 L 143.269531 165.589844 Z M 143.269531 167.074219 L 126.191406 167.074219 L 126.191406 184.152344 L 143.269531 184.152344 Z M 143.269531 185.640625 L 126.191406 185.640625 L 126.191406 202.71875 L 143.269531 202.71875 Z M 143.269531 204.203125 L 126.191406 204.203125 L 126.191406 221.28125 L 143.269531 221.28125 Z M 143.269531 222.769531 L 126.191406 222.769531 L 126.191406 239.847656 L 143.269531 239.847656 Z M 143.269531 241.332031 L 126.191406 241.332031 L 126.191406 258.410156 L 143.269531 258.410156 Z M 143.269531 259.898438 L 126.191406 259.898438 L 126.191406 276.976562 L 143.269531 276.976562 Z M 143.269531 278.460938 L 126.191406 278.460938 L 126.191406 295.539062 L 143.269531 295.539062 Z M 143.269531 297.023438 L 126.191406 297.023438 L 126.191406 314.105469 L 143.269531 314.105469 Z M 143.269531 315.589844 L 126.191406 315.589844 L 126.191406 332.667969 L 143.269531 332.667969 Z M 143.269531 334.152344 L 126.191406 334.152344 L 126.191406 351.230469 L 143.269531 351.230469 Z M 143.269531 352.71875 L 126.191406 352.71875 L 126.191406 369.796875 L 143.269531 369.796875 Z M 143.269531 371.28125 L 126.191406 371.28125 L 126.191406 388.359375 L 143.269531 388.359375 Z M 143.269531 389.847656 L 126.191406 389.847656 L 126.191406 406.925781 L 143.269531 406.925781 Z M 143.269531 408.410156 L 126.191406 408.410156 L 126.191406 425.488281 L 143.269531 425.488281 Z M 143.269531 426.976562 L 126.191406 426.976562 L 126.191406 444.054688 L 143.269531 444.054688 Z M 143.269531 445.539062 L 126.191406 445.539062 L 126.191406 462.617188 L 143.269531 462.617188 Z M 143.269531 464.105469 L 126.191406 464.105469 L 126.191406 481.183594 L 143.269531 481.183594 Z M 124.707031 37.125 L 107.628906 37.125 L 107.628906 54.203125 L 124.707031 54.203125 Z M 124.707031 55.6875 L 107.628906 55.6875 L 107.628906 72.769531 L 124.707031 72.769531 Z M 124.707031 74.253906 L 107.628906 74.253906 L 107.628906 91.332031 L 124.707031 91.332031 Z M 124.707031 92.816406 L 107.628906 92.816406 L 107.628906 109.894531 L 124.707031 109.894531 Z M 124.707031 111.382812 L 107.628906 111.382812 L 107.628906 128.460938 L 124.707031 128.460938 Z M 124.707031 129.945312 L 107.628906 129.945312 L 107.628906 147.023438 L 124.707031 147.023438 Z M 124.707031 148.511719 L 107.628906 148.511719 L 107.628906 165.589844 L 124.707031 165.589844 Z M 124.707031 167.074219 L 107.628906 167.074219 L 107.628906 184.152344 L 124.707031 184.152344 Z M 124.707031 185.640625 L 107.628906 185.640625 L 107.628906 202.71875 L 124.707031 202.71875 Z M 124.707031 204.203125 L 107.628906 204.203125 L 107.628906 221.28125 L 124.707031 221.28125 Z M 124.707031 222.769531 L 107.628906 222.769531 L 107.628906 239.847656 L 124.707031 239.847656 Z M 124.707031 241.332031 L 107.628906 241.332031 L 107.628906 258.410156 L 124.707031 258.410156 Z M 124.707031 259.898438 L 107.628906 259.898438 L 107.628906 276.976562 L 124.707031 276.976562 Z M 124.707031 278.460938 L 107.628906 278.460938 L 107.628906 295.539062 L 124.707031 295.539062 Z M 124.707031 297.023438 L 107.628906 297.023438 L 107.628906 314.105469 L 124.707031 314.105469 Z M 124.707031 315.589844 L 107.628906 315.589844 L 107.628906 332.667969 L 124.707031 332.667969 Z M 124.707031 334.152344 L 107.628906 334.152344 L 107.628906 351.230469 L 124.707031 351.230469 Z M 124.707031 352.71875 L 107.628906 352.71875 L 107.628906 369.796875 L 124.707031 369.796875 Z M 124.707031 371.28125 L 107.628906 371.28125 L 107.628906 388.359375 L 124.707031 388.359375 Z M 124.707031 389.847656 L 107.628906 389.847656 L 107.628906 406.925781 L 124.707031 406.925781 Z M 124.707031 408.410156 L 107.628906 408.410156 L 107.628906 425.488281 L 124.707031 425.488281 Z M 124.707031 426.976562 L 107.628906 426.976562 L 107.628906 444.054688 L 124.707031 444.054688 Z M 124.707031 445.539062 L 107.628906 445.539062 L 107.628906 462.617188 L 124.707031 462.617188 Z M 124.707031 464.105469 L 107.628906 464.105469 L 107.628906 481.183594 L 124.707031 481.183594 Z M 106.144531 37.125 L 89.066406 37.125 L 89.066406 54.203125 L 106.144531 54.203125 Z M 106.144531 55.6875 L 89.066406 55.6875 L 89.066406 72.769531 L 106.144531 72.769531 Z M 106.144531 74.253906 L 89.066406 74.253906 L 89.066406 91.332031 L 106.144531 91.332031 Z M 106.144531 92.816406 L 89.066406 92.816406 L 89.066406 109.894531 L 106.144531 109.894531 Z M 106.144531 111.382812 L 89.066406 111.382812 L 89.066406 128.460938 L 106.144531 128.460938 Z M 106.144531 129.945312 L 89.066406 129.945312 L 89.066406 147.023438 L 106.144531 147.023438 Z M 106.144531 148.511719 L 89.066406 148.511719 L 89.066406 165.589844 L 106.144531 165.589844 Z M 106.144531 167.074219 L 89.066406 167.074219 L 89.066406 184.152344 L 106.144531 184.152344 Z M 106.144531 185.640625 L 89.066406 185.640625 L 89.066406 202.71875 L 106.144531 202.71875 Z M 106.144531 204.203125 L 89.066406 204.203125 L 89.066406 221.28125 L 106.144531 221.28125 Z M 106.144531 222.769531 L 89.066406 222.769531 L 89.066406 239.847656 L 106.144531 239.847656 Z M 106.144531 241.332031 L 89.066406 241.332031 L 89.066406 258.410156 L 106.144531 258.410156 Z M 106.144531 259.898438 L 89.066406 259.898438 L 89.066406 276.976562 L 106.144531 276.976562 Z M 106.144531 278.460938 L 89.066406 278.460938 L 89.066406 295.539062 L 106.144531 295.539062 Z M 106.144531 297.023438 L 89.066406 297.023438 L 89.066406 314.105469 L 106.144531 314.105469 Z M 106.144531 315.589844 L 89.066406 315.589844 L 89.066406 332.667969 L 106.144531 332.667969 Z M 106.144531 334.152344 L 89.066406 334.152344 L 89.066406 351.230469 L 106.144531 351.230469 Z M 106.144531 352.71875 L 89.066406 352.71875 L 89.066406 369.796875 L 106.144531 369.796875 Z M 106.144531 371.28125 L 89.066406 371.28125 L 89.066406 388.359375 L 106.144531 388.359375 Z M 106.144531 389.847656 L 89.066406 389.847656 L 89.066406 406.925781 L 106.144531 406.925781 Z M 106.144531 408.410156 L 89.066406 408.410156 L 89.066406 425.488281 L 106.144531 425.488281 Z M 106.144531 426.976562 L 89.066406 426.976562 L 89.066406 444.054688 L 106.144531 444.054688 Z M 106.144531 445.539062 L 89.066406 445.539062 L 89.066406 462.617188 L 106.144531 462.617188 Z M 106.144531 464.105469 L 89.066406 464.105469 L 89.066406 481.183594 L 106.144531 481.183594 Z M 87.578125 37.125 L 70.5 37.125 L 70.5 54.203125 L 87.578125 54.203125 Z M 87.578125 55.6875 L 70.5 55.6875 L 70.5 72.769531 L 87.578125 72.769531 Z M 87.578125 74.253906 L 70.5 74.253906 L 70.5 91.332031 L 87.578125 91.332031 Z M 87.578125 92.816406 L 70.5 92.816406 L 70.5 109.894531 L 87.578125 109.894531 Z M 87.578125 111.382812 L 70.5 111.382812 L 70.5 128.460938 L 87.578125 128.460938 Z M 87.578125 129.945312 L 70.5 129.945312 L 70.5 147.023438 L 87.578125 147.023438 Z M 87.578125 148.511719 L 70.5 148.511719 L 70.5 165.589844 L 87.578125 165.589844 Z M 87.578125 167.074219 L 70.5 167.074219 L 70.5 184.152344 L 87.578125 184.152344 Z M 87.578125 185.640625 L 70.5 185.640625 L 70.5 202.71875 L 87.578125 202.71875 Z M 87.578125 204.203125 L 70.5 204.203125 L 70.5 221.28125 L 87.578125 221.28125 Z M 87.578125 222.769531 L 70.5 222.769531 L 70.5 239.847656 L 87.578125 239.847656 Z M 87.578125 241.332031 L 70.5 241.332031 L 70.5 258.410156 L 87.578125 258.410156 Z M 87.578125 259.898438 L 70.5 259.898438 L 70.5 276.976562 L 87.578125 276.976562 Z M 87.578125 278.460938 L 70.5 278.460938 L 70.5 295.539062 L 87.578125 295.539062 Z M 87.578125 297.023438 L 70.5 297.023438 L 70.5 314.105469 L 87.578125 314.105469 Z M 87.578125 315.589844 L 70.5 315.589844 L 70.5 332.667969 L 87.578125 332.667969 Z M 87.578125 334.152344 L 70.5 334.152344 L 70.5 351.230469 L 87.578125 351.230469 Z M 87.578125 352.71875 L 70.5 352.71875 L 70.5 369.796875 L 87.578125 369.796875 Z M 87.578125 371.28125 L 70.5 371.28125 L 70.5 388.359375 L 87.578125 388.359375 Z M 87.578125 389.847656 L 70.5 389.847656 L 70.5 406.925781 L 87.578125 406.925781 Z M 87.578125 408.410156 L 70.5 408.410156 L 70.5 425.488281 L 87.578125 425.488281 Z M 87.578125 426.976562 L 70.5 426.976562 L 70.5 444.054688 L 87.578125 444.054688 Z M 87.578125 445.539062 L 70.5 445.539062 L 70.5 462.617188 L 87.578125 462.617188 Z M 87.578125 464.105469 L 70.5 464.105469 L 70.5 481.183594 L 87.578125 481.183594 Z M 69.015625 37.125 L 51.9375 37.125 L 51.9375 54.203125 L 69.015625 54.203125 Z M 69.015625 55.6875 L 51.9375 55.6875 L 51.9375 72.769531 L 69.015625 72.769531 Z M 69.015625 74.253906 L 51.9375 74.253906 L 51.9375 91.332031 L 69.015625 91.332031 Z M 69.015625 92.816406 L 51.9375 92.816406 L 51.9375 109.894531 L 69.015625 109.894531 Z M 69.015625 111.382812 L 51.9375 111.382812 L 51.9375 128.460938 L 69.015625 128.460938 Z M 69.015625 129.945312 L 51.9375 129.945312 L 51.9375 147.023438 L 69.015625 147.023438 Z M 69.015625 148.511719 L 51.9375 148.511719 L 51.9375 165.589844 L 69.015625 165.589844 Z M 69.015625 167.074219 L 51.9375 167.074219 L 51.9375 184.152344 L 69.015625 184.152344 Z M 69.015625 185.640625 L 51.9375 185.640625 L 51.9375 202.71875 L 69.015625 202.71875 Z M 69.015625 204.203125 L 51.9375 204.203125 L 51.9375 221.28125 L 69.015625 221.28125 Z M 69.015625 222.769531 L 51.9375 222.769531 L 51.9375 239.847656 L 69.015625 239.847656 Z M 69.015625 241.332031 L 51.9375 241.332031 L 51.9375 258.410156 L 69.015625 258.410156 Z M 69.015625 259.898438 L 51.9375 259.898438 L 51.9375 276.976562 L 69.015625 276.976562 Z M 69.015625 278.460938 L 51.9375 278.460938 L 51.9375 295.539062 L 69.015625 295.539062 Z M 69.015625 297.023438 L 51.9375 297.023438 L 51.9375 314.105469 L 69.015625 314.105469 Z M 69.015625 315.589844 L 51.9375 315.589844 L 51.9375 332.667969 L 69.015625 332.667969 Z M 69.015625 334.152344 L 51.9375 334.152344 L 51.9375 351.230469 L 69.015625 351.230469 Z M 69.015625 352.71875 L 51.9375 352.71875 L 51.9375 369.796875 L 69.015625 369.796875 Z M 69.015625 371.28125 L 51.9375 371.28125 L 51.9375 388.359375 L 69.015625 388.359375 Z M 69.015625 389.847656 L 51.9375 389.847656 L 51.9375 406.925781 L 69.015625 406.925781 Z M 69.015625 408.410156 L 51.9375 408.410156 L 51.9375 425.488281 L 69.015625 425.488281 Z M 69.015625 426.976562 L 51.9375 426.976562 L 51.9375 444.054688 L 69.015625 444.054688 Z M 69.015625 445.539062 L 51.9375 445.539062 L 51.9375 462.617188 L 69.015625 462.617188 Z M 69.015625 464.105469 L 51.9375 464.105469 L 51.9375 481.183594 L 69.015625 481.183594 Z M 50.449219 37.125 L 33.371094 37.125 L 33.371094 54.203125 L 50.449219 54.203125 Z M 50.449219 55.6875 L 33.371094 55.6875 L 33.371094 72.769531 L 50.449219 72.769531 Z M 50.449219 74.253906 L 33.371094 74.253906 L 33.371094 91.332031 L 50.449219 91.332031 Z M 50.449219 92.816406 L 33.371094 92.816406 L 33.371094 109.894531 L 50.449219 109.894531 Z M 50.449219 111.382812 L 33.371094 111.382812 L 33.371094 128.460938 L 50.449219 128.460938 Z M 50.449219 129.945312 L 33.371094 129.945312 L 33.371094 147.023438 L 50.449219 147.023438 Z M 50.449219 148.511719 L 33.371094 148.511719 L 33.371094 165.589844 L 50.449219 165.589844 Z M 50.449219 167.074219 L 33.371094 167.074219 L 33.371094 184.152344 L 50.449219 184.152344 Z M 50.449219 185.640625 L 33.371094 185.640625 L 33.371094 202.71875 L 50.449219 202.71875 Z M 50.449219 204.203125 L 33.371094 204.203125 L 33.371094 221.28125 L 50.449219 221.28125 Z M 50.449219 222.769531 L 33.371094 222.769531 L 33.371094 239.847656 L 50.449219 239.847656 Z M 50.449219 241.332031 L 33.371094 241.332031 L 33.371094 258.410156 L 50.449219 258.410156 Z M 50.449219 259.898438 L 33.371094 259.898438 L 33.371094 276.976562 L 50.449219 276.976562 Z M 50.449219 278.460938 L 33.371094 278.460938 L 33.371094 295.539062 L 50.449219 295.539062 Z M 50.449219 297.023438 L 33.371094 297.023438 L 33.371094 314.105469 L 50.449219 314.105469 Z M 50.449219 315.589844 L 33.371094 315.589844 L 33.371094 332.667969 L 50.449219 332.667969 Z M 50.449219 334.152344 L 33.371094 334.152344 L 33.371094 351.230469 L 50.449219 351.230469 Z M 50.449219 352.71875 L 33.371094 352.71875 L 33.371094 369.796875 L 50.449219 369.796875 Z M 50.449219 371.28125 L 33.371094 371.28125 L 33.371094 388.359375 L 50.449219 388.359375 Z M 50.449219 389.847656 L 33.371094 389.847656 L 33.371094 406.925781 L 50.449219 406.925781 Z M 50.449219 408.410156 L 33.371094 408.410156 L 33.371094 425.488281 L 50.449219 425.488281 Z M 50.449219 426.976562 L 33.371094 426.976562 L 33.371094 444.054688 L 50.449219 444.054688 Z M 50.449219 445.539062 L 33.371094 445.539062 L 33.371094 462.617188 L 50.449219 462.617188 Z M 50.449219 464.105469 L 33.371094 464.105469 L 33.371094 481.183594 L 50.449219 481.183594 Z M 31.886719 37.125 L 14.808594 37.125 L 14.808594 54.203125 L 31.886719 54.203125 Z M 31.886719 55.6875 L 14.808594 55.6875 L 14.808594 72.769531 L 31.886719 72.769531 Z M 31.886719 74.253906 L 14.808594 74.253906 L 14.808594 91.332031 L 31.886719 91.332031 Z M 31.886719 92.816406 L 14.808594 92.816406 L 14.808594 109.894531 L 31.886719 109.894531 Z M 31.886719 111.382812 L 14.808594 111.382812 L 14.808594 128.460938 L 31.886719 128.460938 Z M 31.886719 129.945312 L 14.808594 129.945312 L 14.808594 147.023438 L 31.886719 147.023438 Z M 31.886719 148.511719 L 14.808594 148.511719 L 14.808594 165.589844 L 31.886719 165.589844 Z M 31.886719 167.074219 L 14.808594 167.074219 L 14.808594 184.152344 L 31.886719 184.152344 Z M 31.886719 185.640625 L 14.808594 185.640625 L 14.808594 202.71875 L 31.886719 202.71875 Z M 31.886719 204.203125 L 14.808594 204.203125 L 14.808594 221.28125 L 31.886719 221.28125 Z M 31.886719 222.769531 L 14.808594 222.769531 L 14.808594 239.847656 L 31.886719 239.847656 Z M 31.886719 241.332031 L 14.808594 241.332031 L 14.808594 258.410156 L 31.886719 258.410156 Z M 31.886719 259.898438 L 14.808594 259.898438 L 14.808594 276.976562 L 31.886719 276.976562 Z M 31.886719 278.460938 L 14.808594 278.460938 L 14.808594 295.539062 L 31.886719 295.539062 Z M 31.886719 297.023438 L 14.808594 297.023438 L 14.808594 314.105469 L 31.886719 314.105469 Z M 31.886719 315.589844 L 14.808594 315.589844 L 14.808594 332.667969 L 31.886719 332.667969 Z M 31.886719 334.152344 L 14.808594 334.152344 L 14.808594 351.230469 L 31.886719 351.230469 Z M 31.886719 352.71875 L 14.808594 352.71875 L 14.808594 369.796875 L 31.886719 369.796875 Z M 31.886719 371.28125 L 14.808594 371.28125 L 14.808594 388.359375 L 31.886719 388.359375 Z M 31.886719 389.847656 L 14.808594 389.847656 L 14.808594 406.925781 L 31.886719 406.925781 Z M 31.886719 408.410156 L 14.808594 408.410156 L 14.808594 425.488281 L 31.886719 425.488281 Z M 31.886719 426.976562 L 14.808594 426.976562 L 14.808594 444.054688 L 31.886719 444.054688 Z M 31.886719 445.539062 L 14.808594 445.539062 L 14.808594 462.617188 L 31.886719 462.617188 Z M 31.886719 464.105469 L 14.808594 464.105469 L 14.808594 481.183594 L 31.886719 481.183594 Z M 414.242188 153.128906 L 414.242188 184.152344 C 414.242188 184.152344 380.421875 178.523438 353.535156 180.605469 L 353.535156 167.074219 L 348.964844 167.074219 L 348.964844 184.152344 L 353.535156 184.152344 L 353.535156 185.640625 L 348.964844 185.640625 L 348.964844 202.71875 L 353.535156 202.71875 L 353.535156 204.203125 L 348.964844 204.203125 L 348.964844 221.28125 L 353.535156 221.28125 L 353.535156 222.769531 L 348.964844 222.769531 L 348.964844 239.847656 L 353.535156 239.847656 L 353.535156 241.332031 L 348.964844 241.332031 L 348.964844 258.410156 L 353.535156 258.410156 L 353.535156 259.898438 L 348.964844 259.898438 L 348.964844 276.976562 L 353.535156 276.976562 L 353.535156 278.460938 L 348.964844 278.460938 L 348.964844 295.539062 L 353.535156 295.539062 L 353.535156 297.023438 L 348.964844 297.023438 L 348.964844 314.105469 L 353.535156 314.105469 L 353.535156 315.589844 L 348.964844 315.589844 L 348.964844 332.667969 L 353.535156 332.667969 L 353.535156 334.152344 L 348.964844 334.152344 L 348.964844 351.230469 L 353.535156 351.230469 L 353.535156 352.71875 L 348.964844 352.71875 L 348.964844 369.796875 L 353.535156 369.796875 L 353.535156 371.28125 L 348.964844 371.28125 L 348.964844 388.359375 L 353.535156 388.359375 L 353.535156 389.847656 L 348.964844 389.847656 L 348.964844 406.925781 L 353.535156 406.925781 L 353.535156 408.410156 L 348.964844 408.410156 L 348.964844 425.488281 L 353.535156 425.488281 L 353.535156 426.976562 L 348.964844 426.976562 L 348.964844 444.054688 L 353.535156 444.054688 L 353.535156 445.539062 L 348.964844 445.539062 L 348.964844 462.617188 L 353.535156 462.617188 L 353.535156 464.105469 L 348.964844 464.105469 L 348.964844 481.183594 L 353.320312 481.183594 C 353.25 481.683594 353.164062 482.179688 353.0625 482.667969 L 348.964844 482.667969 L 348.964844 491.507812 C 348.5 492.105469 348.003906 492.683594 347.480469 493.230469 L 347.480469 482.667969 L 330.398438 482.667969 L 330.398438 500 L 328.914062 500 L 328.914062 482.667969 L 311.835938 482.667969 L 311.835938 500 L 310.351562 500 L 310.351562 482.667969 L 293.273438 482.667969 L 293.273438 500 L 291.785156 500 L 291.785156 482.667969 L 274.707031 482.667969 L 274.707031 500 L 273.222656 500 L 273.222656 482.667969 L 256.144531 482.667969 L 256.144531 500 L 254.65625 500 L 254.65625 482.667969 L 237.578125 482.667969 L 237.578125 500 L 236.09375 500 L 236.09375 482.667969 L 219.015625 482.667969 L 219.015625 500 L 217.527344 500 L 217.527344 482.667969 L 200.449219 482.667969 L 200.449219 500 L 198.964844 500 L 198.964844 482.667969 L 181.886719 482.667969 L 181.886719 500 L 180.398438 500 L 180.398438 482.667969 L 163.320312 482.667969 L 163.320312 500 L 161.835938 500 L 161.835938 482.667969 L 144.757812 482.667969 L 144.757812 500 L 143.269531 500 L 143.269531 482.667969 L 126.191406 482.667969 L 126.191406 500 L 124.707031 500 L 124.707031 482.667969 L 107.628906 482.667969 L 107.628906 500 L 106.144531 500 L 106.144531 482.667969 L 89.066406 482.667969 L 89.066406 500 L 87.578125 500 L 87.578125 482.667969 L 70.5 482.667969 L 70.5 500 L 69.015625 500 L 69.015625 482.667969 L 51.9375 482.667969 L 51.9375 500 L 50.449219 500 L 50.449219 482.667969 L 33.371094 482.667969 L 33.371094 500 L 31.886719 500 L 31.886719 482.667969 L 14.808594 482.667969 L 14.808594 498.828125 C 14.304688 498.65625 13.808594 498.472656 13.320312 498.269531 L 13.320312 482.667969 L 0.472656 482.667969 C 0.371094 482.179688 0.285156 481.683594 0.214844 481.183594 L 13.320312 481.183594 L 13.320312 464.105469 L 0 464.105469 L 0 462.617188 L 13.320312 462.617188 L 13.320312 445.539062 L 0 445.539062 L 0 444.054688 L 13.320312 444.054688 L 13.320312 426.976562 L 0 426.976562 L 0 425.488281 L 13.320312 425.488281 L 13.320312 408.410156 L 0 408.410156 L 0 406.925781 L 13.320312 406.925781 L 13.320312 389.847656 L 0 389.847656 L 0 388.359375 L 13.320312 388.359375 L 13.320312 371.28125 L 0 371.28125 L 0 369.796875 L 13.320312 369.796875 L 13.320312 352.71875 L 0 352.71875 L 0 351.230469 L 13.320312 351.230469 L 13.320312 334.152344 L 0 334.152344 L 0 332.667969 L 13.320312 332.667969 L 13.320312 315.589844 L 0 315.589844 L 0 314.105469 L 13.320312 314.105469 L 13.320312 297.023438 L 0 297.023438 L 0 295.539062 L 13.320312 295.539062 L 13.320312 278.460938 L 0 278.460938 L 0 276.976562 L 13.320312 276.976562 L 13.320312 259.898438 L 0 259.898438 L 0 258.410156 L 13.320312 258.410156 L 13.320312 241.332031 L 0 241.332031 L 0 239.847656 L 13.320312 239.847656 L 13.320312 222.769531 L 0 222.769531 L 0 221.28125 L 13.320312 221.28125 L 13.320312 204.203125 L 0 204.203125 L 0 202.71875 L 13.320312 202.71875 L 13.320312 185.640625 L 0 185.640625 L 0 184.152344 L 13.320312 184.152344 L 13.320312 167.074219 L 0 167.074219 L 0 165.589844 L 13.320312 165.589844 L 13.320312 148.511719 L 0 148.511719 L 0 147.023438 L 13.320312 147.023438 L 13.320312 129.945312 L 0 129.945312 L 0 128.460938 L 13.320312 128.460938 L 13.320312 111.382812 L 0 111.382812 L 0 109.894531 L 13.320312 109.894531 L 13.320312 92.816406 L 0 92.816406 L 0 91.332031 L 13.320312 91.332031 L 13.320312 74.253906 L 0 74.253906 L 0 72.769531 L 13.320312 72.769531 L 13.320312 55.6875 L 0 55.6875 L 0 54.203125 L 13.320312 54.203125 L 13.320312 37.125 L 0 37.125 L 0 35.640625 L 13.320312 35.640625 L 13.320312 21.320312 C 13.710938 21.953125 14.214844 22.503906 14.808594 22.953125 L 14.808594 35.640625 L 31.886719 35.640625 L 31.886719 18.5625 L 24.367188 18.5625 C 24.398438 18.046875 24.347656 17.554688 24.257812 17.074219 L 31.886719 17.074219 L 31.886719 0 L 33.371094 0 L 33.371094 17.074219 L 36.898438 17.074219 C 36.808594 17.550781 36.777344 18.050781 36.808594 18.5625 L 33.371094 18.5625 L 33.371094 35.640625 L 50.449219 35.640625 L 50.449219 18.5625 L 48.722656 18.5625 C 48.746094 18.203125 48.746094 17.839844 48.703125 17.464844 C 48.6875 17.335938 48.65625 17.203125 48.632812 17.074219 L 50.449219 17.074219 L 50.449219 0 L 51.9375 0 L 51.9375 17.074219 L 61.265625 17.074219 C 61.199219 17.433594 61.152344 17.800781 61.152344 18.183594 C 61.152344 18.308594 61.164062 18.433594 61.171875 18.5625 L 51.9375 18.5625 L 51.9375 35.640625 L 69.015625 35.640625 L 69.015625 23.84375 C 69.542969 23.664062 70.046875 23.421875 70.5 23.109375 L 70.5 35.640625 L 87.578125 35.640625 L 87.578125 22.683594 C 88.023438 23.070312 88.523438 23.390625 89.066406 23.632812 L 89.066406 35.640625 L 106.144531 35.640625 L 106.144531 18.5625 L 97.453125 18.5625 C 97.460938 18.433594 97.472656 18.3125 97.472656 18.183594 C 97.472656 17.84375 97.363281 17.503906 97.199219 17.207031 C 97.171875 17.160156 97.144531 17.121094 97.121094 17.074219 L 106.144531 17.074219 L 106.144531 0 L 107.628906 0 L 107.628906 17.074219 L 109.988281 17.074219 C 109.921875 17.433594 109.878906 17.804688 109.878906 18.183594 C 109.878906 18.308594 109.894531 18.433594 109.898438 18.5625 L 107.628906 18.5625 L 107.628906 35.640625 L 124.707031 35.640625 L 124.707031 18.5625 L 121.824219 18.5625 C 121.855469 18.046875 121.804688 17.554688 121.710938 17.074219 L 124.707031 17.074219 L 124.707031 0 L 126.191406 0 L 126.191406 17.074219 L 134.355469 17.074219 C 134.289062 17.433594 134.242188 17.800781 134.242188 18.183594 C 134.242188 18.308594 134.257812 18.433594 134.265625 18.5625 L 126.191406 18.5625 L 126.191406 35.640625 L 143.269531 35.640625 L 143.269531 23.328125 C 143.832031 22.996094 144.332031 22.566406 144.757812 22.070312 L 144.757812 35.640625 L 161.835938 35.640625 L 161.835938 23.488281 C 162.296875 23.730469 162.796875 23.90625 163.320312 24.019531 L 163.320312 35.640625 L 180.398438 35.640625 L 180.398438 18.5625 L 170.546875 18.5625 C 170.574219 18.050781 170.550781 17.550781 170.457031 17.074219 L 180.398438 17.074219 L 180.398438 0 L 181.886719 0 L 181.886719 17.074219 L 183.085938 17.074219 C 183.019531 17.433594 182.96875 17.800781 182.96875 18.183594 C 182.96875 18.308594 182.984375 18.433594 182.992188 18.5625 L 181.886719 18.5625 L 181.886719 35.640625 L 198.964844 35.640625 L 198.964844 18.5625 L 194.90625 18.5625 C 194.9375 18.046875 194.898438 17.554688 194.804688 17.074219 L 198.964844 17.074219 L 198.964844 9.734375 C 199.445312 9.140625 199.898438 8.582031 200.285156 8.113281 C 200.34375 8.042969 200.394531 7.980469 200.449219 7.910156 L 200.449219 17.074219 L 207.449219 17.074219 C 207.378906 17.433594 207.335938 17.800781 207.335938 18.183594 C 207.335938 18.308594 207.347656 18.433594 207.355469 18.5625 L 200.449219 18.5625 L 200.449219 35.640625 L 217.527344 35.640625 L 217.527344 22.40625 C 218.203125 21.734375 218.722656 20.90625 219.015625 19.980469 L 219.015625 35.640625 L 236.09375 35.640625 L 236.09375 23.941406 C 236.566406 24.070312 237.0625 24.144531 237.578125 24.15625 L 237.578125 35.640625 L 254.65625 35.640625 L 254.65625 18.5625 L 243.628906 18.5625 C 243.660156 18.050781 243.632812 17.554688 243.539062 17.074219 L 254.65625 17.074219 L 254.65625 0.046875 C 255.136719 0.03125 255.484375 0.0195312 255.65625 0 C 255.65625 0 255.867188 0.484375 256.144531 1.34375 L 256.144531 17.074219 L 256.195312 17.074219 C 256.128906 17.433594 256.078125 17.800781 256.078125 18.183594 C 256.078125 18.460938 256.105469 18.734375 256.144531 19.003906 L 256.144531 35.640625 L 273.222656 35.640625 L 273.222656 18.5625 L 268.023438 18.5625 C 268.058594 18.046875 268.003906 17.554688 267.914062 17.074219 L 273.222656 17.074219 L 273.222656 0 L 274.707031 0 L 274.707031 17.074219 L 280.554688 17.074219 C 280.464844 17.550781 280.433594 18.050781 280.464844 18.5625 L 274.707031 18.5625 L 274.707031 35.640625 L 291.785156 35.640625 L 291.785156 20.824219 C 292.273438 19.832031 292.5 18.6875 292.363281 17.476562 C 292.285156 16.8125 292.078125 16.183594 291.785156 15.597656 L 291.785156 0 L 293.273438 0 L 293.273438 17.074219 L 304.921875 17.074219 C 304.855469 17.433594 304.808594 17.800781 304.808594 18.183594 C 304.808594 18.308594 304.820312 18.433594 304.828125 18.5625 L 293.273438 18.5625 L 293.273438 35.640625 L 310.351562 35.640625 L 310.351562 24.140625 C 310.726562 24.164062 311.109375 24.164062 311.5 24.121094 C 311.613281 24.105469 311.722656 24.070312 311.835938 24.050781 L 311.835938 35.640625 L 328.914062 35.640625 L 328.914062 18.5625 L 316.75 18.5625 C 316.78125 18.050781 316.75 17.550781 316.660156 17.074219 L 328.914062 17.074219 L 328.914062 0.929688 C 329.480469 1.710938 330.042969 2.601562 330.398438 3.472656 L 330.398438 14.5625 C 329.632812 15.566406 329.171875 16.820312 329.171875 18.183594 C 329.171875 19.546875 329.628906 20.804688 330.398438 21.8125 L 330.398438 35.640625 L 347.480469 35.640625 L 347.480469 18.5625 L 341.101562 18.5625 C 341.132812 18.050781 341.113281 17.550781 341.023438 17.074219 L 347.480469 17.074219 L 347.480469 15.714844 L 348.964844 15.609375 L 348.964844 17.074219 L 353.535156 17.074219 L 353.535156 18.5625 L 348.964844 18.5625 L 348.964844 35.640625 L 353.535156 35.640625 L 353.535156 37.125 L 348.964844 37.125 L 348.964844 54.203125 L 353.535156 54.203125 L 353.535156 55.6875 L 348.964844 55.6875 L 348.964844 72.769531 L 353.535156 72.769531 L 353.535156 74.253906 L 348.964844 74.253906 L 348.964844 91.332031 L 353.535156 91.332031 L 353.535156 92.816406 L 348.964844 92.816406 L 348.964844 109.894531 L 353.5 109.894531 C 366.882812 104.71875 381.867188 97.753906 395.828125 88.65625 L 403.445312 119.921875 C 385.476562 132.367188 365.117188 140.707031 348.964844 145.984375 L 348.964844 147.023438 L 353.535156 147.023438 L 353.535156 148.511719 L 348.964844 148.511719 L 348.964844 165.589844 L 353.535156 165.589844 L 353.535156 149.582031 C 353.535156 149.582031 382.222656 145.199219 414.242188 153.128906 Z M 237.578125 11.410156 L 237.578125 0.101562 C 237.085938 0.101562 236.589844 0.0976562 236.09375 0.0976562 L 236.09375 12.441406 C 236.246094 12.398438 236.390625 12.34375 236.546875 12.3125 C 236.871094 11.992188 237.226562 11.699219 237.578125 11.410156 Z M 146.167969 18.5625 L 158.628906 18.5625 C 158.621094 18.433594 158.605469 18.308594 158.605469 18.183594 C 158.605469 17.800781 158.652344 17.433594 158.71875 17.074219 L 146.089844 17.074219 C 146.179688 17.550781 146.199219 18.050781 146.167969 18.5625 Z M 219.015625 0.0117188 C 218.355469 0.0078125 217.851562 0.00390625 217.527344 0.00390625 L 217.527344 13.949219 C 218.210938 14.625 218.722656 15.464844 219.015625 16.40625 Z M 311.835938 0 L 311.546875 0 L 311.546875 12.257812 C 311.644531 12.269531 311.738281 12.289062 311.835938 12.308594 Z M 219.261719 18.5625 L 231.71875 18.5625 C 231.710938 18.433594 231.699219 18.308594 231.699219 18.183594 C 231.699219 17.804688 231.734375 17.433594 231.804688 17.074219 L 219.183594 17.074219 C 219.273438 17.550781 219.292969 18.050781 219.261719 18.5625 Z M 144.757812 0 L 143.269531 0 L 143.269531 13.054688 C 143.832031 13.386719 144.335938 13.808594 144.757812 14.300781 Z M 12.421875 18.183594 C 12.421875 17.800781 12.472656 17.433594 12.539062 17.074219 L 0 17.074219 L 0 18.5625 L 12.445312 18.5625 C 12.433594 18.433594 12.421875 18.308594 12.421875 18.183594 Z M 70.5 0 L 69.015625 0 L 69.015625 12.511719 C 69.546875 12.691406 70.046875 12.941406 70.5 13.253906 Z M 87.578125 7.96875 L 87.578125 13.6875 C 87.894531 13.410156 88.230469 13.15625 88.601562 12.949219 C 88.253906 11.359375 87.871094 9.535156 87.578125 7.96875 Z M 162.585938 0 L 161.835938 0 L 161.835938 8.914062 C 161.941406 8.644531 162.042969 8.371094 162.125 8.113281 C 162.914062 5.597656 163.695312 2.425781 162.585938 0 Z M 73.09375 18.5625 L 85.546875 18.5625 C 85.515625 18.050781 85.539062 17.550781 85.628906 17.074219 L 73.003906 17.074219 C 73.09375 17.554688 73.125 18.050781 73.09375 18.5625 Z M 88.734375 1.382812 C 88.523438 0.910156 88.355469 0.449219 88.214844 0 L 89.066406 0 L 89.066406 2.335938 C 88.953125 1.953125 88.839844 1.625 88.734375 1.382812"/></g><g id="change3_1"><path fill="#fd87b1" d="M 353.535156 144.445312 L 353.535156 154.765625 L 319.644531 153.707031 C 319.644531 153.707031 334.238281 151.140625 353.535156 144.445312"/></g></g></svg>