<?xml version="1.0" encoding="UTF-8" standalone="no"?><!-- Generator: Adobe Illustrator 23.0.3, SVG Export Plug-In . SVG Version: 6.00 Build 0)  --><svg xmlns="http://www.w3.org/2000/svg" xmlns:xlink="http://www.w3.org/1999/xlink" contentScriptType="text/ecmascript" zoomAndPan="magnify" contentStyleType="text/css" id="Layer_1" enable-background="new 0 0 270.2 279.2" version="1.1" xml:space="preserve" fill="#39484f" preserveAspectRatio="xMidYMid meet" viewBox="0 0 270.2 279.2" x="0px" y="0px">
<g>
	<g id="change1_2"><path fill="inherit" opacity="0.1" d="m10.5 24.4c-1 105.9-2.8 204.8-10.5 254.8h259.6s-12.1-26.4-18.9-82.3-230.2-172.5-230.2-172.5z"/></g>
	<g>
		<g id="change2_1"><path fill="#fce4de" d="m10.5 24.4s6.8 202.3 0 246.9l259.7-3s-16.6-176.7-12.1-243.9h-247.6z"/></g>
		<g id="change3_1">
				<rect x="46.8" width="2" fill="#fce4de" y="38.7" height="218.3" transform="matrix(.9997 -.024213 .024213 .9997 -3.5649 1.2014)"/>
		</g>
		<g id="change1_1"><polygon fill="inherit" points="59.5 7 70.1 31.2 114.6 24.4 114.6 0"/></g>
		<g id="change4_1">
			<path fill="#fce4de" d="m91.4 52.5c-1.3 0-2.5-0.2-3.6-0.6-1.6-0.6-2.7-1.7-3.4-3.2-2.3-5.4 1.1-9 3.7-10.5l-2.1-9.4 2-0.4 2.4 10.9-0.8 0.3c-0.2 0.1-5.8 2.7-3.4 8.2 0.4 1 1.2 1.7 2.3 2.2 4.1 1.6 11.3-1.5 11.4-1.5l0.2-0.1c0.1 0 10.5-2.1 9.4-8.2-0.2-1.2-0.7-2-1.5-2.4-1.5-0.7-3.9 0.2-4.7 0.6l-1.5 0.8 0.3-13.1h2l-0.1 9.9c1.3-0.4 3.3-0.8 5 0 1.4 0.7 2.3 2 2.6 3.8 1.5 7.7-9.6 10.2-10.9 10.5-0.8 0.4-5.2 2.2-9.3 2.2z"/>
		</g>
	</g>
</g>
</svg>