<?xml version="1.0" encoding="UTF-8" standalone="no"?><svg xmlns="http://www.w3.org/2000/svg" xmlns:xlink="http://www.w3.org/1999/xlink" contentScriptType="text/ecmascript" fill="#000000" width="368.5" zoomAndPan="magnify" contentStyleType="text/css" viewBox="0.0 0.0 368.5 361.8" height="361.8" preserveAspectRatio="xMidYMid meet" version="1"><defs><clipPath id="a"><path d="M 0 0 L 368.519531 0 L 368.519531 361.820312 L 0 361.820312 Z M 0 0"/></clipPath></defs><g><g id="change1_1" clip-path="url(#a)"><path fill="#fdf5b6" d="M 179.820312 224.015625 C 157.238281 224.953125 139.234375 205.203125 138.285156 178.449219 C 137.414062 153.886719 153.117188 137.644531 178.753906 136.589844 C 199.917969 135.71875 216.449219 151.828125 217.007812 173.867188 C 217.65625 199.6875 200.246094 223.167969 179.820312 224.015625 Z M 368.324219 162.121094 C 366.972656 150.945312 360.480469 142.53125 350.148438 140.253906 C 334.613281 136.828125 318.523438 134.457031 302.660156 134.394531 C 285.949219 134.328125 269.226562 137.503906 247.597656 139.777344 C 256.570312 129.695312 262.417969 123.21875 268.160156 116.648438 C 280.722656 102.273438 294.207031 88.574219 305.488281 73.257812 C 317.664062 56.730469 317.089844 42.757812 306.789062 32.261719 C 296.660156 21.941406 281.40625 20.828125 265.507812 33.097656 C 252.164062 43.398438 240.824219 56.566406 229.773438 69.46875 C 220.269531 80.5625 212.429688 93.074219 200.445312 109.683594 C 200.445312 90.082031 201.875 76.21875 200.070312 62.785156 C 197.960938 47.066406 195.304688 30.683594 188.78125 16.46875 C 179.292969 -4.199219 155.394531 -5.648438 143.003906 13.429688 C 136.8125 22.960938 133.96875 35.679688 132.871094 47.261719 C 131.226562 64.695312 132.445312 82.398438 132.445312 104.816406 C 122.160156 95.695312 115.988281 89.5625 109.144531 84.292969 C 94.851562 73.289062 81.242188 60.753906 65.445312 52.492188 C 44.722656 41.660156 25.34375 56.71875 30.351562 79.484375 C 32.808594 90.628906 39.957031 101.609375 47.488281 110.558594 C 57.648438 122.636719 70.222656 132.683594 83.402344 145.152344 C 68.339844 147.605469 55.144531 148.40625 42.839844 152.140625 C 30.542969 155.871094 18.082031 161.023438 7.632812 168.324219 C -3.480469 176.089844 -2.363281 189.722656 10.355469 194.714844 C 28.777344 201.941406 48.523438 206.050781 67.953125 210.375 C 77.878906 212.582031 88.34375 212.363281 103.703125 213.683594 C 89 224.597656 79.105469 231.417969 69.796875 238.957031 C 52.175781 253.234375 39.332031 270.707031 33.0625 293.007812 C 29.972656 304 30.847656 314.324219 39.902344 320.011719 C 45.371094 323.441406 55.765625 323.351562 61.941406 320.503906 C 77.335938 313.398438 91.9375 304.359375 106.179688 295.058594 C 118.363281 287.105469 129.609375 277.710938 144.636719 266.425781 C 144.636719 281.046875 144.136719 290.941406 144.742188 300.765625 C 145.949219 320.371094 152.539062 338.300781 165.113281 353.375 C 175.121094 365.367188 186.882812 364.628906 194.296875 350.898438 C 200.019531 340.296875 203.988281 328.839844 206.050781 316.972656 C 209.757812 295.03125 211.410156 272.746094 214.363281 246.683594 C 228.859375 259.328125 239.648438 269.738281 251.484375 278.773438 C 263.351562 287.902344 275.84375 296.191406 288.867188 303.578125 C 299.0625 309.304688 310.359375 309.996094 319.496094 300.542969 C 327.429688 292.339844 326.507812 282.898438 323.570312 272.421875 C 316.550781 247.382812 300.269531 230.949219 278.25 218.628906 C 269.402344 213.675781 257.550781 212.371094 250.980469 199.957031 C 269.550781 199.957031 285.898438 201.648438 301.722656 199.503906 C 319.523438 197.011719 337.003906 192.605469 353.859375 186.363281 C 363.171875 182.953125 369.746094 173.894531 368.324219 162.121094"/></g></g></svg>