<?xml version="1.0" encoding="UTF-8" standalone="no"?><svg xmlns="http://www.w3.org/2000/svg" xmlns:xlink="http://www.w3.org/1999/xlink" contentScriptType="text/ecmascript" fill="#000000" width="448.7" zoomAndPan="magnify" contentStyleType="text/css" viewBox="151.3 -10.9 448.7 502.7" height="502.7" preserveAspectRatio="xMidYMid meet" version="1"><g id="change1_1"><path fill="#ededed" d="M368.166,338.481c0,0,0.852-10.312,1.845-22.491c0.227-2.943,0.468-6.007,0.714-9.031 c-0.185,2.882-0.366,5.806-0.529,8.728c-0.448,7.428-0.832,14.961-0.955,22.41C368.55,338.339,368.166,338.481,368.166,338.481z M555.51,158.819l-0.08-0.029l-4.546-1.645l4.271-14.2c0,0-17.682-96.079-88.718-96.079c-71.03,0-109.863,76.145-109.863,76.145 s-0.856,0.062-2.159,0.297c-0.029,0.021-0.079,0.042-0.108,0.042c-3.907,0.963-7.271,2.777-10.033,5.122 c-0.574,0.547-1.096,1.247-1.563,1.955c-2.681,3.898-4.714,7.481-5.969,9.769c-0.252,0.401-0.486,0.772-0.68,1.08 c-0.105,0.417-0.211,0.833-0.288,1.249c-0.104,0.418-0.183,0.86-0.231,1.279c-0.054,0.26-0.079,0.496-0.107,0.728 c-0.025,0.313-0.079,0.628-0.079,0.941c-0.041,0.525-0.057,1.048-0.06,1.57c-0.19,9.342,5.5,18.354,18.537,20.048 c-0.888,1.878-3.586,7.667-4.284,10.125c-2.896,10.179,0.291,17.512,6.104,25.746c5.34,7.561,12.014,13.733,19.429,18.854 c-32.059,17.462-52.255,57.799-76.343,83.197c-15.185,16.012-24.389,23.144-44.174,32.259c-4.795,2.208-9.521,4.741-14.063,7.438 c-7.517,4.462-15.395,9.733-21.234,16.326c-2.299,2.593-4.258,5.608-5.047,9.023c-0.542,2.353-0.944,8.234,0.91,10.189 c1.895,2.002,5.747-0.153,5.747-0.153s-0.872,5.287,1.027,7.164c0.346,0.342,0.703,0.608,1.063,0.831 c-29.116,14.724-56.702,29.323-65.242,33.806c-6.462,3.394-2.967,5.711,5.393,7.593c-5.264,4.343-7.211,8.919,1.599,12.159 c16.909,6.223,36.71,6.092,54.24,8.667c24.073,3.531,75.896,8.064,75.982,8.072l0,0h0.002c0.002,0.001,23.551,10.97,38.591,14.845 c8.457,2.179,17.036,4.267,25.62,5.882c7.659,1.443,53.56,10.407,71.204,10.659c24.016,0.343,72.394-49.376,95.2-68.434 c4.446-3.714,2.563-7.271-3.606-10.602c3.244-3.618,5.163-6.887,4.184-8.981c-1.757-3.759-20.116-4.252-24.146-5.055 c-2.53-0.506-5.084-1.078-7.646-1.679c5.666-7.719,11.303-15.682,12.72-18.847C515.867,356.509,525.553,320,525.553,320 l-43.635-1.808c-1.88,21.828-19.246,50.16-28.64,64.072c-0.004-0.001-0.007-0.003-0.011-0.004 c-13.955-5.299-46.134-14.642-66.985,2.034v-1.014c-20.34-39.819-52.575-16.565-84.733-19.482c4.579-2.332,9.18-4.621,13.816-6.741 c23.805-10.881,37.727-37.432,53.086-60.121l9.706-50.026c0.405-1.412,0.815-2.796,1.232-4.119 c-0.359,1.021-0.699,2.035-1.022,3.038l3.795-19.561c7.044,4.045,14.543,7.319,22.092,10.023c2.059,0.737,4.137,1.412,6.224,2.052 c2.761,0.989,5.568,1.864,8.417,2.619c2.265,5.057,5.936,8.537,10.739,10.764c0.054,0.024,0.108,0.048,0.163,0.072 c0.396,0.181,0.8,0.353,1.211,0.517c0.121,0.048,0.243,0.096,0.365,0.144c0.363,0.139,0.733,0.271,1.108,0.397 c0.135,0.045,0.269,0.093,0.405,0.138c0.472,0.151,0.951,0.296,1.44,0.43c0.142,0.039,0.288,0.072,0.431,0.109 c0.373,0.097,0.749,0.19,1.133,0.277c0.251,0.057,0.507,0.107,0.762,0.16c0.267,0.055,0.535,0.107,0.807,0.157 c0.289,0.054,0.581,0.104,0.875,0.152c0.233,0.038,0.469,0.072,0.705,0.107c0.329,0.048,0.658,0.097,0.993,0.138 c0.125,0.016,0.253,0.028,0.379,0.043c0.891,0.104,1.8,0.189,2.729,0.251c0.011,0.001,0.021,0.001,0.03,0.002 c0.474,0.031,0.954,0.055,1.438,0.075c0.085,0.003,0.169,0.008,0.254,0.011c0.505,0.02,1.015,0.033,1.53,0.041 c0.011,0,0.022,0,0.034,0c1.099,0.018,2.214,0.016,3.358-0.017c10.761-0.323,21.77-5.226,26.737-10.63 c5.765-0.554,11.496-1.353,17.159-2.384c11.739-2.137,25.613-7.347,33.033-17.391c6.217-8.412,5.896-19.339,5.895-19.388 l0.922,0.548C562.49,215.126,573.386,170.982,555.51,158.819z"/></g><g id="change2_1"><path fill="#ffd8c6" d="M550.41,334.62c-0.65,0.3-1.391,0.58-2.25,0.86c-1.311,0.42-2.63,0.84-3.97,1.26 c-0.5,0.16-1.011,0.319-1.521,0.47c-0.8,0.25-1.61,0.5-2.42,0.74c-0.68,0.21-1.36,0.41-2.04,0.6c-0.69,0.2-1.38,0.4-2.07,0.59 c-0.71,0.2-1.42,0.4-2.13,0.591c-0.06,0.02-0.12,0.029-0.18,0.05l9.09,62.779c0,0-6.939,0.391-16.57,0.95 c0.091-0.649,0.021-1.24-0.22-1.76c-1.75-3.75-20.11-4.25-24.14-5.05c-2.54-0.51-5.09-1.07-7.66-1.681 c5.67-7.71,11.31-15.68,12.729-18.85c4.16-9.29,8.521-22.33,11.95-33.51c-13.99,1.58-29.279,0.189-41.51-5.43 c-0.05-0.021-0.09-0.04-0.13-0.07c-6.25,17.3-17.271,35-24.09,45.1h-0.011c-13.96-5.3-46.14-14.64-66.989,2.03v-1.01 c-4.63-9.061-9.87-14.851-15.58-18.431c-0.8-14.59-0.24-45.77,0.66-64.399l-0.311,1.25c-1.53,2.85-2.97,5.64-4.08,8.02 c-0.779,1.69-1.229,4.7-2.989,5.58c-2.171,1.09-8.07-1.29-10.171-1.939c-10.449-3.23-19.689-11.58-27.409-19.38 c-4.32-4.37-15.021-16.801-6.62-24.36c7.1-6.4,13.27-12.83,19.7-20.31c8.279-9.64,10.25-12.75,19.979-20.98 c3.07-2.59,6.771-6.32,11.51-9.51c9.94,7.73,21.561,13.27,33.28,17.47c5.31,1.9,10.73,3.48,16.22,4.75l4.5,10.16l-1.71-3.88 c5.82,5.86,15.061,7.93,26.53,7.61c10.75-0.33,21.76-5.22,26.729-10.62c5.761-0.56,11.49-1.36,17.16-2.39 c7.12-1.3,15.03-3.73,21.801-7.68c0.289,0.15,0.579,0.31,0.859,0.47c0.101,0.06,0.2,0.12,0.3,0.18c0.45,0.27,0.9,0.54,1.341,0.83 c0.789,0.41,1.59,0.82,2.369,1.25c-0.029,0-0.109,0.13-0.199,0.32c0.029,0.03,0.06,0.05,0.1,0.08c0.39,0.31,0.77,0.63,1.14,0.96 c0.07,0.06,0.141,0.13,0.21,0.19c0.381,0.35,0.761,0.7,1.131,1.07c0.01,0.01,0.029,0.03,0.05,0.04 c9.819,9.8,12.77,25.38,15.689,38.11c0.011,0.02,0.021,0.05,0.021,0.08c0.12,0.51,0.229,1.01,0.35,1.51 c0.05,0.22,0.11,0.43,0.16,0.65c0.08,0.329,0.15,0.659,0.23,0.979c0.06,0.26,0.13,0.51,0.189,0.75c0.07,0.3,0.15,0.59,0.22,0.88 c0.07,0.25,0.13,0.5,0.19,0.74c0.08,0.3,0.16,0.6,0.24,0.89c0.06,0.23,0.13,0.45,0.189,0.67c0.12,0.42,0.24,0.83,0.36,1.24 c0.02,0.08,0.05,0.16,0.07,0.24c0.25,0.83,0.479,1.67,0.699,2.51c0.011,0.03,0.021,0.07,0.03,0.101c0.021,0.06,0.03,0.13,0.04,0.189 c1.54,6.07,2.26,12.35,4.29,18.37c0.42,1.25,0.92,2.47,1.46,3.68c0.96,2.16,2.04,4.271,3.04,6.41c1.35,2.87,2.55,5.78,3.11,8.93 C554.191,331.219,553.56,333.15,550.41,334.62z"/></g><g id="change3_1"><path fill="#e08479" d="M366.167,303.036c0.429,1.034-0.063,2.222-1.098,2.652c-1.663,0.686-3.291,1.026-4.815,1.026 c-2.123,0.002-4.048-0.66-5.578-1.964c-2.856-2.433-3.909-6.627-2.818-11.216c1.225-5.177,1.193-7.573-2.188-9.018 c-2.454-1.055-4.865-0.466-7.654,0.208c-3.467,0.836-7.394,1.79-11.495-0.849c-3.82-2.454-5.426-5.513-5.203-9.918 c0.002-0.063,0.353-6.291,3.621-7.796c1.018-0.47,2.223-0.028,2.692,0.991c0.466,1.007,0.035,2.198-0.96,2.678 c-0.495,0.395-1.209,2.544-1.3,4.327c-0.149,2.97,0.726,4.619,3.344,6.302c2.639,1.701,5.16,1.089,8.346,0.315 c3.049-0.739,6.508-1.572,10.203,0.004c7.068,3.023,5.486,9.701,4.541,13.692c-0.72,3.03-0.145,5.786,1.503,7.188 c1.449,1.235,3.649,1.334,6.206,0.277C364.548,301.504,365.736,301.999,366.167,303.036z M545.733,319.893 c-1.09-0.236-2.179,0.448-2.422,1.544c-0.248,1.12-0.845,1.901-1.774,2.317c-1.276,0.573-3.066,0.406-4.567-0.428 c-1.309-0.729-3.07-2.492-4.179-3.78c-4.591-5.329-10.473-10.653-19.357-9.851c-5.832,0.537-8.398,4.746-10.666,8.463 c-1.349,2.208-2.621,4.293-4.463,5.566c-2.939,2.027-7.749,2.866-11.184,1.946c-2.839-0.76-7.139-3.083-7.487-5.295 c-0.175-1.11-1.215-1.857-2.321-1.69c-1.106,0.176-1.863,1.215-1.689,2.321c0.754,4.783,7.16,7.707,10.445,8.587 c1.302,0.349,2.71,0.516,4.15,0.516c3.674,0,7.557-1.087,10.394-3.045c2.552-1.763,4.113-4.321,5.622-6.796 c2.337-3.833,3.954-6.2,7.572-6.531c7.039-0.641,11.799,3.682,15.908,8.452c0.674,0.783,3.049,3.438,5.278,4.681 c2.623,1.461,5.765,1.681,8.209,0.585c2.102-0.943,3.549-2.771,4.074-5.145C547.517,321.218,546.827,320.135,545.733,319.893z M486.984,262.916c4.252-1.255,8.698-4.675,11.322-8.71c2.842-4.368,2.687-9.31-0.067-13.256c-1.519,0.369-3.021,0.686-4.49,0.954 c2.921,2.832,3.417,6.611,1.156,10.089c-2.096,3.222-5.738,6.048-9.069,7.029c-2.104,0.625-3.685,0.04-5.683-0.701 c-1.455-0.535-3.103-1.15-5.037-1.229c-4.859-0.246-8.475,3.663-9.395,10.086c-0.834,5.79-4.329,8.44-10.394,7.896 c-3.506-0.319-5.76-1.261-7.54-3.144c-0.498-0.525-0.934-1.218-1.399-1.945c-0.985-1.552-2.213-3.482-4.56-4.372 c-6.813-2.573-11.45,1.635-15.173,5.024c-0.731,0.664-1.451,1.322-2.183,1.925c-1.777,1.467-4.62,1.774-7.418,0.805 c-2.85-0.99-4.943-3.08-5.459-5.455c-0.434-1.994,0.315-4.2,1.114-6.537c1.074-3.145,2.288-6.708,0.652-10.39 c-1.736-3.907-5.553-5.4-8.919-6.712c-2.957-1.156-5.752-2.25-7.146-4.744c-0.998-1.784-1.706-4.294-1.784-6.661 c-1.342-0.57-2.676-1.16-4-1.774c-0.314,3.659,0.696,7.653,2.241,10.417c2.105,3.767,5.882,5.242,9.216,6.544 c3.016,1.177,5.624,2.196,6.683,4.581c0.991,2.227,0.168,4.637-0.783,7.428c-0.899,2.633-1.917,5.614-1.241,8.71 c0.827,3.807,3.852,6.956,8.098,8.427c4.12,1.428,8.465,0.851,11.329-1.508c0.781-0.643,1.555-1.347,2.333-2.056 c4.055-3.688,6.815-5.813,11.002-4.229c1.031,0.387,1.649,1.296,2.571,2.749c0.545,0.862,1.11,1.751,1.875,2.56 c3.182,3.37,7.081,4.119,10.12,4.398c0.639,0.056,1.261,0.087,1.865,0.087c7.191-0.002,11.86-4.097,12.913-11.451 c0.228-1.588,1.308-6.69,5.207-6.604c1.293,0.054,2.508,0.504,3.798,0.981C481.009,262.969,483.581,263.917,486.984,262.916z"/></g><g id="change3_2"><path fill="#e08479" opacity="0.4" d="M443.636,193.376c0.131,1.114-0.664,2.123-1.776,2.256c-0.43,0.054-1.022,0.091-1.71,0.091 c-2.987,0-7.761-0.704-8.877-4.008c-0.895-2.662,1.043-4.997,2.454-6.702c0.432-0.517,0.874-1.053,1.074-1.407 c2.294-4.052,2.285-4.803,2.252-8.413l-0.01-1.614c0-1.122,0.908-2.03,2.029-2.03c1.12,0,2.03,0.908,2.03,2.03l0.01,1.576 c0.04,4.137-0.077,5.675-2.777,10.445c-0.378,0.67-0.913,1.316-1.482,2.002c-0.569,0.688-1.905,2.3-1.73,2.815 c0.241,0.714,3.705,1.491,6.258,1.184C442.489,191.468,443.503,192.264,443.636,193.376z M512.307,202.584 c-0.47-5.87-5.436-10.237-10.95-11.741c-5.946-1.624-18.742-0.547-22.624,4.841c-3.885,5.388-2.107,13.64,2.646,17.69 c5.326,4.924,11.805,4.702,18.588,3.041C505.903,214.91,513.122,209.518,512.307,202.584z M383.459,168.899 c-5.455-1.714-11.993-0.721-15.557,3.965c-4.435,5.394-1.271,13.833,2.911,18.309c4.806,5.061,10.144,8.748,17.284,7.481 c6.188-0.84,12.14-6.819,11.787-13.456C399.526,178.563,389.345,170.744,383.459,168.899z"/></g><g id="change4_1"><path fill="inherit" d="M292.495,433.178c0.818,0.765,0.862,2.049,0.097,2.868c-0.398,0.428-0.939,0.646-1.482,0.646 c-0.498,0-0.993-0.181-1.386-0.55c-15.914-14.875-34.046-14.255-53.249-13.606c-12.689,0.438-25.806,0.878-38.655-3.267 c-1.064-0.345-1.651-1.489-1.308-2.558c0.343-1.064,1.489-1.657,2.555-1.308c12.177,3.931,24.932,3.492,37.271,3.076 C255.521,417.827,275.352,417.155,292.495,433.178z M433.154,459.797c-7.865-1.607-16.245-3.83-25.117-6.183 c-9.5-2.521-19.32-5.127-28.393-6.883c-18.951-3.671-37.893-3.852-53.915-3.549c-1.122,0.022-2.013,0.948-1.992,2.068 c0.021,1.119,0.939,2.071,2.067,1.992c15.816-0.304,34.488-0.121,53.068,3.475c8.938,1.73,18.691,4.319,28.121,6.819 c8.536,2.264,17.365,4.604,25.346,6.234c0.139,0.027,0.273,0.041,0.408,0.041c0.943,0,1.79-0.66,1.988-1.621 C434.959,461.093,434.252,460.02,433.154,459.797z M264.557,407.044l-0.466-0.024c-1.087-0.065-2.074,0.805-2.129,1.927 c-0.058,1.118,0.805,2.071,1.923,2.129l0.47,0.024c9.957,0.497,28.487,1.427,35.103,9.624c0.402,0.497,0.989,0.755,1.582,0.755 c0.447,0,0.897-0.146,1.274-0.45c0.87-0.703,1.009-1.981,0.303-2.854C294.86,408.561,275.889,407.612,264.557,407.044z M317.995,407.073c-9.501-6.123-19.658-8.849-30.224-8.062c-1.116,0.081-1.957,1.054-1.876,2.172 c0.084,1.116,1.031,1.965,2.173,1.876c9.797-0.712,18.861,1.71,27.73,7.425c0.341,0.217,0.722,0.323,1.099,0.323 c0.668,0,1.322-0.331,1.704-0.928C319.209,408.936,318.937,407.681,317.995,407.073z M346.109,429.913c0.004,0,0.004,0,0.004,0 c0.036,0,0.069,0,0.109,0c17.02,0,32.718,4.671,49.331,9.614c2.662,0.793,5.325,1.584,8.001,2.359 c0.187,0.054,0.377,0.079,0.563,0.079c0.881,0,1.691-0.577,1.949-1.465c0.312-1.078-0.308-2.202-1.386-2.516 c-2.666-0.771-5.318-1.558-7.969-2.349c-16.164-4.812-32.879-9.783-50.493-9.783c-1.178,0-2.14,0.876-2.14,2.032 C344.078,429.006,344.989,429.913,346.109,429.913z M365.497,414.836c12.025,1.166,23.57,4.179,30.885,8.061 c0.305,0.162,0.628,0.235,0.949,0.235c0.729,0,1.432-0.391,1.794-1.076c0.525-0.991,0.148-2.221-0.842-2.745 c-11.183-5.936-26.381-7.934-32.397-8.513c-1.114-0.089-2.107,0.708-2.214,1.822C363.565,413.735,364.381,414.728,365.497,414.836z M337.896,393.641c-9.354-4.199-28.27-9-39.441-7.127c-7.436,1.255-19.322-2.953-19.442-2.997c-1.061-0.387-2.217,0.173-2.594,1.227 c-0.378,1.053,0.171,2.215,1.226,2.594c0.525,0.186,12.998,4.608,21.484,3.179c10.381-1.758,28.222,2.839,37.106,6.821 c0.27,0.123,0.551,0.181,0.831,0.181c0.774,0,1.517-0.448,1.854-1.197C339.377,395.299,338.921,394.098,337.896,393.641z M376.216,403.15c5.205-0.206,8.078-0.264,11.396,0.853c9.245,3.104,13.235,4.539,19.414,6.979c0.246,0.095,0.498,0.139,0.746,0.139 c0.809,0,1.573-0.483,1.887-1.282c0.412-1.043-0.099-2.223-1.144-2.633c-6.257-2.47-10.288-3.921-19.611-7.053 c-3.99-1.338-7.318-1.277-12.852-1.059c-1.121,0.043-1.992,0.989-1.946,2.109C374.151,402.323,375.104,403.225,376.216,403.15z M596.908,146.003c-1.765,11.72-8.263,23.104-18.036,30.401c-1.277,21.535-23.146,42.633-23.146,42.633s1.984,17.972-8.869,34.897 c-2.787,4.345-6.096,7.746-9.474,10.411c0.925,3.471,1.707,6.92,2.45,10.208c0.92,4.066,1.786,7.906,2.802,11.225 c1.021,3.338,1.698,6.759,2.356,10.073c0.728,3.67,1.477,7.462,2.688,11.04c0.842,2.495,1.992,4.862,3.213,7.368 c1.817,3.742,3.703,7.614,4.475,11.939c1.157,6.502-0.437,9.228-6.574,11.212c-3.96,1.281-8.42,2.684-12.962,3.935 c0.63,3.644,2.065,11.953,2.999,17.421l0.185,1.086c1.209,7.067,2.456,14.376,3.237,21.53c0.731,6.741,2.658,20.763,2.678,20.903 c0.152,1.112-0.622,2.135-1.732,2.287c-0.095,0.015-0.188,0.021-0.281,0.021c-0.997,0-1.867-0.735-2.006-1.751 c-0.001-0.008-0.01-0.067-0.023-0.165c-0.219-1.585-1.973-14.448-2.671-20.854c-0.766-7.033-2.004-14.278-3.201-21.285l-0.187-1.087 c-0.906-5.3-2.282-13.271-2.938-17.07c-0.503,0.125-1.006,0.253-1.508,0.373c-3.229,0.77-6.521,1.353-9.83,1.772 c-3.403,10.978-7.621,23.502-11.641,32.479c-1.315,2.938-5.662,9.235-11.112,16.721c1.543,0.342,3.079,0.678,4.581,0.978 c0.93,0.186,2.899,0.372,5.188,0.586c12.605,1.186,18.873,2.327,20.401,5.599c0.361,0.772,0.497,1.608,0.426,2.507 c-0.16,2.007-1.362,4.325-3.438,6.937c2.581,1.676,4.266,3.432,4.82,5.266c0.535,1.768,0.464,4.47-2.922,7.301 c-4.798,4.006-10.629,9.283-17.383,15.398c-24.943,22.58-59.106,53.506-78.87,53.506l-0.279-0.002 c-11.042-0.158-34.434-3.625-69.524-10.31l-2.027-0.383c-9.187-1.732-18.172-3.961-25.75-5.911 c-14.267-3.675-35.608-13.428-38.617-14.819c-4.629-0.409-52.912-4.704-75.744-8.055c-5.313-0.781-10.734-1.3-16.475-1.85 c-12.875-1.232-26.19-2.508-38.171-6.918c-4.732-1.74-7.222-4.151-7.4-7.162c-0.117-1.985,0.814-3.934,2.476-5.845 c-4.263-1.282-6.315-2.763-6.686-4.798c-0.559-3.065,3.158-5.016,4.377-5.656l3.929-2.067c11.208-5.898,34.334-18.068,58.893-30.519 c-0.714-1.34-0.938-3.023-0.963-4.495c-1.618,0.292-3.537,0.157-4.983-1.371c-2.793-2.948-1.826-10.247-1.414-12.041 c0.779-3.372,2.581-6.617,5.507-9.915c6.345-7.164,14.941-12.703,21.718-16.725c4.843-2.877,9.638-5.412,14.249-7.537 c20.17-9.289,28.944-16.411,43.552-31.813c6.253-6.59,12.185-14.13,18.241-22.155c-0.591-1.758-0.934-3.55-0.883-5.323 c0.092-3.14,1.366-5.84,3.795-8.022c6.743-6.075,12.946-12.473,19.521-20.126c1.562-1.82,2.898-3.406,4.104-4.837 c5.213-6.181,8.086-9.586,16.11-16.37c0.838-0.711,1.727-1.506,2.672-2.355c1.945-1.747,4.188-3.76,6.785-5.706 c-5.33-4.418-9.862-9.265-13.618-14.583c-6.082-8.613-9.497-16.582-6.399-27.473c0.575-2.023,2.349-6.009,3.547-8.605 c-12.742-2.695-17.625-12.024-17.879-20.211c-0.064-2.082,0.166-4.246,0.68-6.405c-11.992-10.303-16.97-27.05-14.49-41.939 c2.646-17.968,13.741-28.006,27.48-39.107c26.954-21.667,35.938-56.545,71.871-66.588c15.327-4.753,53.431-1.144,58.135,11.884 l-0.001,0c0.001,0,0.001,0,0.002,0l-0.001-0.001c16.634-15.46,45.102-0.202,58.205,9.065c31.063,20.669,25.258,56.617,44.184,85.559 C588.957,115.119,599.955,128.097,596.908,146.003z M219.895,378.314c0.68-0.377,1.519-0.329,2.153,0.118 c0.634,0.448,0.959,1.218,0.836,1.982c-0.327,2.015-0.204,4.752,0.45,5.396c2.06,2.031,4.797,0.517,4.823,0.501 c0.595-0.341,1.324-0.354,1.933-0.04c0.609,0.312,1.019,0.912,1.092,1.597c0.176,1.698,0.88,4.626,1.826,5.526 c0.45,0.426,1.693,0.864,3.328,0.805c1.556-0.05,2.663-0.52,3.071-0.962c0.159-0.17,0.347-0.314,0.553-0.422l0.104-0.054 c1.148-3.975,3.876-8.055,5.825-9.755c0.847-0.735,2.127-0.646,2.863,0.196c0.737,0.845,0.65,2.127-0.194,2.864 c-2.284,1.992-5.568,8.142-4.9,10.923c0.117,0.485,0.333,0.822,1.049,1.003c3.225,0.809,6.526-1.515,9.436-3.568l0.739-0.517 c0.718-0.502,1.453-1.001,2.188-1.501c6.472-4.402,12.59-8.563,11.42-15.225c-0.194-1.104,0.543-2.156,1.647-2.351 c0.982-0.169,1.917,0.394,2.25,1.293c7.028-3.205,14.078-6.846,20.921-10.382c6.914-3.572,14.064-7.268,21.217-10.538 c16.583-7.579,28.423-23.265,39.318-39.699c-0.238-0.08-0.457-0.152-0.64-0.21c-10.879-3.366-20.386-11.943-28.25-19.891 c-2.241-2.268-5.332-5.768-7.549-9.733c-5.668,7.46-11.268,14.488-17.19,20.733c-15.959,16.825-25.59,23.854-44.798,32.704 c-4.484,2.065-9.15,4.533-13.875,7.338c-6.523,3.874-14.776,9.183-20.75,15.928c-2.466,2.781-3.967,5.441-4.587,8.134 c-0.628,2.72-0.542,7.34,0.404,8.336C217.096,379.358,218.878,378.875,219.895,378.314z M368.393,311.7 c-0.034,0.102-0.067,0.197-0.103,0.302c-0.612,1.823-1.379,4.1-3.399,5.114c-0.691,0.345-1.507,0.491-2.42,0.491 c-1.358,0.001-2.934-0.326-4.617-0.807c-11.385,17.259-23.747,33.916-41.641,42.095c-2.171,0.993-4.344,2.035-6.515,3.095 c6.736-0.188,13.474-1.211,20.109-2.225c13.522-2.062,26.588-4.046,38.106,1.216C366.47,345.263,367.356,328.307,368.393,311.7z M291.519,456.045c-2.718-4.316-10.019-12.528-28.122-18.02c-4.357-1.32-11.309-0.708-19.357,0.008 c-9.741,0.866-21.867,1.938-34.593,0.056c-6.074-0.896-12.624-1.705-18.959-2.486c-12.092-1.489-20.816-2.655-26.848-3.924 c-1.856,1.616-3.05,3.171-2.974,4.475c0.073,1.218,1.758,2.492,4.748,3.593c11.492,4.228,24.539,5.479,37.161,6.688 c5.537,0.529,11.263,1.079,16.675,1.874C239.346,451.255,279.348,454.948,291.519,456.045z M295.596,454.921 c22.179-22.412,79.747-65.084,88.455-71.504c-13.553-25.739-32.138-22.916-53.633-19.629c-9.358,1.428-18.909,2.882-28.507,2.098 c-2.263,1.155-4.517,2.313-6.74,3.462c-7.402,3.826-15.046,7.77-22.593,11.137c-0.888,6.865-7.374,11.304-13.226,15.282 c-0.724,0.493-1.443,0.98-2.152,1.475l-0.718,0.505c-2.75,1.936-6.352,4.475-10.423,4.475c-0.765,0-1.548-0.089-2.345-0.289 c-2.091-0.525-3.515-1.943-4.004-3.993c-0.02-0.082-0.025-0.17-0.042-0.254c-0.955,0.335-2.039,0.532-3.2,0.571 c-0.139,0.012-0.273,0.016-0.41,0.016c-2.4,0-4.567-0.709-5.85-1.925c-1.451-1.379-2.24-3.738-2.656-5.578 c-1.374,0.26-2.997,0.237-4.583-0.41c-25.093,12.701-48.942,25.252-60.374,31.269l-3.931,2.068c-1.279,0.67-1.859,1.157-2.113,1.423 c2.716,2.554,20.979,4.803,34.427,6.458c6.359,0.785,12.937,1.594,19.058,2.5c12.25,1.812,24.111,0.764,33.64-0.085 c8.819-0.781,15.785-1.399,20.894,0.15C285.206,440.396,292.92,450.092,295.596,454.921z M522.428,413.217 c-4.681,4.934-11.85,10.743-20.609,17.335c-1.146,0.86-2.052,1.542-2.614,1.988c-13.351,10.59-19.773,14.915-25.984,19.096 c-6.603,4.446-12.837,8.648-27.017,20.241c-6.292,5.154-10.441,7.273-16.36,7.273c-2.71,0-5.792-0.444-9.622-1.247 c-7.203-1.509-14.443-3.139-21.442-4.716c-12.431-2.802-25.284-5.697-38.193-7.953c-15.426-2.694-41.095-3.971-55.351-4.499 c8.174,3.5,20.026,8.272,28.8,10.531c7.515,1.935,16.417,4.145,25.488,5.855l2.034,0.385c34.858,6.641,58.016,10.084,68.823,10.236 l0.219,0.002c18.199,0,51.694-30.319,76.15-52.458c6.785-6.139,12.643-11.445,17.503-15.505c2.036-1.701,1.737-2.683,1.642-3.006 C525.543,415.618,524.366,414.427,522.428,413.217z M495.176,397.305c-2.363,3.207-4.858,6.555-7.362,9.9 c-2.083,2.785-3.73,4.987-4.551,6.136c-0.475,0.666-0.948,1.338-1.422,2.012c-3.142,4.481-6.389,9.114-11.339,12.675 c-2.577,1.855-4.496,3.009-6.35,4.125c-2.051,1.233-3.99,2.398-6.654,4.438c-4.208,3.217-13.72,5.834-21.2,5.834 c-2.671,0-4.875-0.341-6.556-1.013c-1.412-0.565-2.381-1.64-2.795-3.099c-0.569-2.006,0.067-4.687,1.183-7.382 c-2.729,2.428-5.227,3.946-7.284,3.307c-3.897-1.241-5.054-3.563-5.337-5.291c-0.793-4.847,4.609-11.214,9.894-16.158 c-1.072,0.187-2.143,0.3-3.171,0.3c-5.039,0-8.114-2.754-8.439-7.555c-0.266-3.925,3.678-7.741,11.722-11.349 c1.13-0.506,2.337-1.079,3.58-1.665c2.987-1.414,6.078-2.877,8.857-3.828c1.617-0.549,3.278-0.833,4.941-0.833 c1.501,0,2.751,0.229,3.663,0.47c0.768-1.056,2.011-2.794,3.566-5.058c-14.065-5.001-43.536-12.612-62.577,2.612 c-0.011,0.009-0.022,0.014-0.033,0.021s-0.018,0.018-0.028,0.025c-0.661,0.486-63.374,46.599-87.709,70.558 c11.969,0.368,43.52,1.6,61.511,4.747c13.008,2.273,25.91,5.182,38.389,7.992c6.982,1.574,14.208,3.201,21.382,4.704 c11.11,2.329,14.276,1.598,22.582-5.191c14.322-11.712,20.636-15.962,27.318-20.464c6.146-4.139,12.501-8.419,25.727-18.909 c0.583-0.462,1.515-1.163,2.696-2.054c24.344-18.32,25.533-23.377,24.913-24.697c-1.318-1.792-12.788-2.872-17.105-3.277 c-2.493-0.235-4.468-0.422-5.602-0.647C499.49,398.273,497.347,397.804,495.176,397.305z M516.157,344.985 c-2.585,0.208-5.169,0.317-7.733,0.317c-10.826,0-21.271-1.863-29.884-5.439c-9.658,25.433-28.586,50.73-29.611,52.091 c-0.583,0.771-1.63,1.027-2.504,0.604c0,0-1.409-0.64-3.534-0.64c-1.217,0-2.437,0.21-3.63,0.616 c-2.563,0.876-5.548,2.287-8.435,3.653c-1.269,0.601-2.502,1.186-3.653,1.701c-7.043,3.157-9.43,5.944-9.333,7.372 c0.181,2.674,1.451,3.766,4.389,3.766c5.16,0,12.168-3.659,12.237-3.692c0.941-0.5,2.104-0.181,2.668,0.72 c0.562,0.899,0.337,2.083-0.521,2.714c-7.524,5.519-17.805,15.226-17.101,19.52c0.055,0.329,0.22,1.332,2.563,2.077 c0.97-0.111,4.28-3.297,6.261-5.203c2.476-2.381,4.816-4.629,6.856-5.644c0.291-0.142,0.601-0.211,0.906-0.211 c0.586,0,1.161,0.254,1.558,0.726c0.603,0.718,0.635,1.757,0.077,2.51c-3.217,4.355-7.628,12.022-6.876,14.661 c0.067,0.242,0.156,0.341,0.396,0.437c1.181,0.474,2.926,0.724,5.045,0.724c0.432,0,0.875-0.012,1.324-0.032 c0.729-3.249,3.842-8.217,9.798-15.68c0.7-0.88,2.026-1.084,2.904-0.385c0.876,0.702,1.068,1.913,0.371,2.789 c-5.622,7.048-7.846,10.814-8.695,12.816c5.201-0.819,10.503-2.575,13.03-4.509c2.845-2.172,4.878-3.396,7.027-4.689 c1.786-1.075,3.632-2.185,6.073-3.941c4.392-3.157,7.44-7.505,10.388-11.711c0.479-0.685,0.957-1.366,1.439-2.042 c0.83-1.162,2.497-3.392,4.606-6.211c6.496-8.683,18.592-24.852,20.642-29.427C508.954,366.97,512.892,355.417,516.157,344.985z M535.871,275.448c-3.322-14.702-7.049-31.17-20.351-38.88c-5.494,3.042-11.316,4.983-16.215,6.207 c-1.465,0.366-2.839,0.667-4.102,0.916c-0.392,0.077-0.79,0.157-1.158,0.224c-5.576,1.015-11.121,1.785-16.619,2.334 c-5.751,5.727-17.057,10.398-27.584,10.704c-0.781,0.02-1.555,0.032-2.313,0.032c-15.606,0-25.567-4.827-30.214-14.625 c-4.692-1.175-9.282-2.557-13.746-4.156c-2.688-0.963-5.275-1.97-7.779-3.013c-1.467-0.611-2.908-1.234-4.313-1.873 c-7.786-3.545-14.622-7.528-20.558-11.981c-2.795,2.005-5.226,4.174-7.38,6.107c-0.978,0.876-1.896,1.701-2.762,2.435 c-7.763,6.562-10.391,9.68-15.626,15.886c-1.214,1.439-2.558,3.035-4.13,4.865c-6.689,7.79-13.008,14.304-19.882,20.499 c-1.594,1.433-2.395,3.11-2.452,5.124c-0.183,6.346,6.964,14.08,9.158,16.301c7.507,7.586,16.536,15.763,26.563,18.867 c0.357,0.111,0.818,0.268,1.354,0.45c4.091,1.401,6.551,1.942,7.313,1.615c0.523-0.264,1.055-1.837,1.367-2.779 c0.227-0.674,0.448-1.313,0.692-1.845c0.984-2.112,2.306-4.713,3.917-7.717c0.32-5.263,0.602-10.346,0.771-15.294 c0.344-10.063,1.713-20.356,4.072-30.6c0.252-1.092,1.342-1.775,2.435-1.522c1.092,0.252,1.773,1.341,1.522,2.433 c-2.302,9.989-3.638,20.025-3.973,29.828c-0.176,5.127-0.468,10.376-0.802,15.818c-0.002,0.041-0.002,0.081-0.007,0.122 c-0.121,1.974-0.246,3.97-0.375,5.999c-1.182,18.704-2.396,38.022-0.454,55.434c5.496,3.578,10.58,9.146,15.117,17.599 c21.037-14.474,51.311-6.201,65.115-1.164c6.563-9.854,16.357-25.858,22.338-41.617c-5.013-2.567-6.24-4.787-4.88-11.149 c2.188-10.248,4.632-21.696,8.337-31.261c0.406-1.047,1.578-1.562,2.627-1.159c1.047,0.404,1.565,1.58,1.159,2.626 c-3.588,9.262-5.996,20.543-8.121,30.494c-1.057,4.936-0.891,5.214,4.414,7.653c13.787,6.34,33.36,7.65,51.089,3.422 c6.218-1.482,12.639-3.491,18.103-5.257c4.02-1.303,4.668-1.909,3.825-6.637c-0.674-3.772-2.349-7.226-4.125-10.877 c-1.223-2.51-2.485-5.108-3.409-7.845c-1.295-3.831-2.072-7.754-2.825-11.549c-0.666-3.361-1.294-6.537-2.256-9.678 C537.691,283.502,536.805,279.589,535.871,275.448z M449.728,252.893c7.54-0.219,15.112-2.806,20.399-6.05 c-4.018,0.251-8.006,0.388-11.955,0.388c-12.226,0-24.09-1.208-35.391-3.604C427.603,250.289,436.421,253.274,449.728,252.893z M559.906,170.895c-1.877-6.497-6.075-10.787-11.828-12.128c-1.616,7.687-4.327,15.392-8.28,23.013 c-6.213-25.382-21.484-46.858-43.4-55.053c-28.456-10.645-37.895-35.235-37.895-35.235s-27.296,17.413-55.102,21.76 c-18.245,2.604-40.043,12.613-46.858,26.618c-1.442,3.832-2.21,5.118-2.21,2.746l1.938-17.701c-0.024,0.008-0.049,0.015-0.073,0.022 c-0.021,0.005-0.039,0.013-0.06,0.018c-0.033,0.009-0.063,0.023-0.097,0.03c-12.54,2.474-19.007,13.559-18.723,22.733 c0.265,8.568,5.847,14.612,15.042,16.443l1.276-10.488c0.133-1.114,1.149-1.927,2.258-1.768c1.111,0.133,1.906,1.144,1.77,2.258 l-1.528,12.564c-0.025,0.218-0.089,0.432-0.185,0.632c-1.017,2.121-3.804,8.127-4.452,10.415 c-2.666,9.372,0.246,16.138,5.811,24.018c9.882,13.991,25.459,24.652,47.629,32.593c26.187,9.382,56.749,11.291,88.379,5.539 c6.773-1.233,23.431-5.321,31.765-16.6c5.717-7.739,5.501-18.023,5.499-18.126c-0.006-0.204,0.018-0.409,0.073-0.605l4.571-16.417 c0.299-1.078,1.421-1.71,2.498-1.407c1.08,0.297,1.71,1.419,1.411,2.498l-4.307,15.466c8.603,2.147,14.401-1.169,17.824-4.472 C559.666,193.481,562.786,180.858,559.906,170.895z M346.731,150.822c-3.929,0-3.929,6.09,0,6.09 C350.658,156.912,350.658,150.822,346.731,150.822z M546.732,192.78c-3.929,0-3.929,6.09,0,6.09 C550.658,198.869,550.658,192.78,546.732,192.78z M456.613,210.878c-0.225,0.123-22.439,12.066-42.148-8.264 c-0.778-0.801-2.067-0.825-2.87-0.042c-0.805,0.779-0.824,2.065-0.043,2.87c9.955,10.265,20.546,13.069,29.155,13.069 c10.286,0,17.737-4.006,17.87-4.082c0.983-0.543,1.339-1.778,0.795-2.759C458.828,210.69,457.594,210.333,456.613,210.878z M493.557,144.879c-2.196-0.674-4.425-1.015-6.621-1.015c-3.449,0-6.409,0.842-7.723,2.2c-0.641,0.662-0.856,1.556-0.577,2.391 c0.61,1.816,2.845,2.159,7.743,2.91c1.613,0.25,3.284,0.503,4.622,0.801c1.705,0.375,3.674,1.122,5.412,1.782 c2.242,0.852,3.461,1.296,4.444,1.296c1.1,0,1.705-0.567,1.964-0.91c0.44-0.567,0.581-1.314,0.389-2.052 C502.742,150.481,500.867,147.121,493.557,144.879z M396.675,142.986c1.334,0,3.268-0.258,5.313-0.527 c1.618-0.218,3.291-0.438,4.655-0.531c1.768-0.127,3.875,0.048,5.687,0.188c1.186,0.093,2.246,0.172,3.035,0.172 c0.761,0,2.347,0,3.093-1.313c0.412-0.721,0.386-1.607-0.065-2.369c-0.956-1.594-3.701-4.29-11.347-4.393l-0.308-0.002 c-6.427,0-11.813,2.684-13.117,5.169c-0.4,0.759-0.389,1.63,0.034,2.328C394.423,142.986,395.999,142.986,396.675,142.986z M494.577,172.271c-9.156,2.744-15.706,2.196-21.756-1.663c-0.845-0.537-1.948-0.385-2.61,0.363 c-0.664,0.745-0.687,1.863-0.054,2.634c0.212,0.258,5.257,6.322,12.511,6.966c0.42,0.036,0.838,0.054,1.254,0.054 c6.703,0,12.309-4.657,12.545-4.857c0.737-0.618,0.936-1.671,0.479-2.518C496.487,172.406,495.497,171.993,494.577,172.271z M415.727,164.914c-0.214-0.969-1.109-1.653-2.093-1.592c-8.565,0.47-14.871-2.216-23.08-6.135 c-0.833-0.402-1.834-0.182-2.429,0.525s-0.636,1.729-0.103,2.482c0.185,0.26,4.587,6.379,11.649,8.242 c1.535,0.405,3.216,0.611,4.996,0.611c5.193,0,9.636-1.734,9.822-1.81C415.416,166.871,415.938,165.888,415.727,164.914z"/></g></svg>