<?xml version="1.0" encoding="UTF-8" standalone="no"?><svg xmlns="http://www.w3.org/2000/svg" xmlns:xlink="http://www.w3.org/1999/xlink" contentScriptType="text/ecmascript" fill="#000000" width="491.5" zoomAndPan="magnify" contentStyleType="text/css" viewBox="0.0 -0.3 491.5 68.8" height="68.8" preserveAspectRatio="xMidYMid meet" version="1"><g id="change1_1"><path fill="#a9eba1" d="M63.6,2.15c1.45,0.48,120.66-1.45,125-1.93c4.34-0.48,99.4-0.05,103.77,0.13 c4.27,0.18,87.07,0.84,93.33,0.39c6.23-0.45,64.63,2.04,68.09,1.74c4.33-0.38,32.63-0.31,31.2,1.6s-5.25,7.16-4.3,9.07 s6.68,11.46,5.73,12.41c-0.95,0.95-7.64,5.25-6.21,6.21s9.73,9.59,9.07,11.93c-0.48,1.7-6.21,8.59-6.21,8.59s8.38,13.83,7.42,12.88 c-0.95-0.95-142.99,1.45-142.99,1.45s-108.84,0.95-111.22,1.43c-2.39,0.48-94.99-0.95-96.9-0.95c-1.91,0-121.25-2.39-124.59-1.91 C11.46,65.66,0,65.66,0,65.66s3.82-1.91,4.77-2.39c0.95-0.48,10.98-6.21,10.98-6.21s-4.32-2.67-6.61-3.48 c-2.15-0.76-7.58-4.42-7.58-4.42s12.36-11.4,11.51-11.97C11.05,35.86,0,31.29,0,31.29s0.48-1.43,4.3-3.82S15.54,16.25,14.78,15.4 C13.83,14.33,5.31,6.74,3.11,3.35C3.11,3.35,62.15,1.67,63.6,2.15z"/></g><g id="change1_2"><path fill="#a9eba1" d="M193.58,53.75c0.02,0.01,0.03,0.01,0.04,0.02C193.61,53.77,193.6,53.76,193.58,53.75 C193.58,53.76,193.58,53.76,193.58,53.75z M193.62,53.77c0.01,0,0.02,0.01,0.03,0.01c0,0,0,0,0,0 C193.64,53.78,193.63,53.77,193.62,53.77z M193.67,53.78c0.01,0,0.02,0,0.03,0c0.01,0,0.01,0,0.02,0 C193.7,53.79,193.69,53.79,193.67,53.78C193.67,53.78,193.67,53.78,193.67,53.78z M193.56,53.75c0.01,0,0,0,0.01,0c0,0,0,0,0,0 c0,0,0,0-0.01-0.01c-0.02,0-0.04-0.01-0.06-0.01C193.53,53.74,193.55,53.75,193.56,53.75z M193.76,53.79 C193.76,53.79,193.76,53.79,193.76,53.79C193.76,53.79,193.76,53.79,193.76,53.79c0,0-0.01,0-0.01-0.01c-0.01,0-0.01,0-0.02,0 C193.73,53.79,193.75,53.79,193.76,53.79z M193.75,53.8c0.01,0,0.01,0,0.01,0C193.76,53.79,193.76,53.79,193.75,53.8 C193.75,53.79,193.75,53.79,193.75,53.8z M193.73,53.79c0,0,0.01,0,0.01,0c0,0,0,0,0.01,0C193.74,53.79,193.74,53.79,193.73,53.79z M193.65,53.78c-0.02,0-0.03,0-0.04,0c0,0,0,0,0,0c0.02,0,0.04,0,0.06,0C193.66,53.78,193.66,53.78,193.65,53.78 C193.65,53.78,193.65,53.78,193.65,53.78z M490.51,65.17c-0.95-0.95-142.99,1.45-142.99,1.45s-108.84,0.95-111.22,1.43 s-94.99-0.95-96.9-0.95S18.14,64.71,14.8,65.19S0,65.66,0,65.66s3.82-1.91,4.77-2.39s10.98-6.21,10.98-6.21s-4.32-2.67-6.61-3.48 c-2.15-0.76-7.58-4.42-7.58-4.42s12.36-11.4,11.51-11.97C11.05,35.86,0,31.29,0,31.29s0.48-1.43,4.3-3.82S15.54,16.25,14.78,15.4 C13.83,14.33,5.31,6.74,3.11,3.35c0,0,59.04-1.68,60.49-1.2c1.45,0.48,120.66-1.45,125-1.93c4.34-0.48,99.4-0.05,103.77,0.13 c4.27,0.18,87.07,0.84,93.33,0.39c6.23-0.45,64.63,2.04,68.09,1.74c4.33-0.38,32.63-0.31,31.2,1.6s-5.25,7.16-4.3,9.07 c0.95,1.91,6.68,11.46,5.73,12.41s-7.64,5.25-6.21,6.21s9.73,9.59,9.07,11.93c-0.48,1.7-6.21,8.59-6.21,8.59 S491.46,66.13,490.51,65.17z M56.48,32.3c-1.09-0.68-2.25-1.15-3.45-1.46c0.75-1.17,1.2-2.67,0.88-4.05 c-0.36-1.56-1.62-2.72-3.18-2.96c-1.46-0.23-2.89,0.37-4.05,1.23c-1.12,0.83-2.33,1.79-3.32,2.81c-0.17-0.8-0.38-1.59-0.71-2.32 c-0.5-1.11-1.42-2.18-2.64-2.49c-1.76-0.44-3.24,0.73-3.8,2.34c-0.86,2.5-0.39,5.32,0.96,7.6c-1.76,0.88-3.64,2.85-3.39,4.96 c0.27,2.31,2.75,3.09,4.7,2.42c0.84-0.29,1.58-0.78,2.32-1.26c0.62,2.43,2.13,4.61,4.35,5.98c1.31,0.81,2.96,0.01,3.39-1.39 c0.45-1.47,0.55-2.97,0.35-4.44c3.02,0.23,6.14-0.86,8.07-3.35C57.86,34.76,57.86,33.17,56.48,32.3z M75.86,44.5 c-0.21,0.07-0.42,0.16-0.65,0.17c-0.24,0.01-0.47,0.06-0.71,0.17c-0.41,0.19-0.81,0.43-1.19,0.67c-0.8,0.51-1.56,1.1-2.25,1.75 c-0.23,0.22-0.32,0.55-0.28,0.86c0.04,0.33,0.22,0.56,0.49,0.75c0.3,0.21,0.59,0.44,0.9,0.64c0.37,0.23,0.77,0.38,1.17,0.55 c0.41,0.16,0.98-0.11,1.18-0.48c0.09-0.16,0.13-0.34,0.14-0.53c0.01-0.23-0.12-0.59-0.31-0.74c-0.31-0.24-0.62-0.49-0.96-0.68 c0.28-0.3,0.56-0.6,0.87-0.88c0.15-0.14,0.3-0.27,0.46-0.4c0.08-0.07,0.17-0.14,0.25-0.2c0.01-0.01,0.1-0.08,0.07-0.06 c-0.04,0.03,0.09-0.07,0.1-0.08c0.21-0.16,0.36-0.32,0.5-0.53c0.12-0.17,0.28-0.28,0.46-0.4C76.39,44.89,76.22,44.38,75.86,44.5z M96.77,52.49c-0.46-0.42-1.1-0.42-1.57-0.02c0,0,0,0-0.01,0c-0.05,0.03-0.1,0.06-0.15,0.08c0,0,0,0,0,0 c-0.03,0.01-0.07,0.02-0.1,0.03c-0.12-0.01-0.15,0-0.11,0.01c-0.01,0-0.01,0-0.02,0c-0.04,0-0.09-0.01-0.14-0.01 c-0.13-0.02-0.25-0.06-0.37-0.1c-0.01,0-0.01,0-0.02-0.01c0,0,0,0,0,0c-0.06-0.03-0.11-0.06-0.17-0.09 c-0.05-0.03-0.11-0.06-0.16-0.1c-0.03-0.02-0.05-0.03-0.08-0.05c-0.05-0.04-0.03-0.02,0.06,0.05c-0.08-0.01-0.24-0.23-0.29-0.28 c-0.01-0.01-0.01-0.01-0.02-0.02c-0.03-0.06-0.08-0.12-0.11-0.18c-0.04-0.06-0.07-0.13-0.1-0.2c-0.01-0.02-0.05-0.14-0.06-0.15 c-0.11-0.33-0.16-0.61-0.18-0.92c-0.02-0.36,0-0.71-0.04-1.07c-0.04-0.36-0.07-0.73-0.09-1.1c-0.01-0.19-0.26-0.28-0.36-0.1 c-0.2,0.36-0.4,0.71-0.57,1.08c-0.2,0.42-0.25,0.93-0.29,1.39c-0.07,0.84,0.07,1.76,0.55,2.47c0.45,0.66,1.12,1.19,1.89,1.41 c0.9,0.25,1.81,0.05,2.51-0.58C97.21,53.68,97.2,52.88,96.77,52.49z M116.31,23.85c-0.1,0-0.17-0.06-0.28-0.06 c-0.11,0-0.22,0.04-0.32,0.07c-0.19,0.06-0.36,0.1-0.56,0.14c-0.44,0.09-0.83,0.34-1.22,0.55c-0.14,0.08-0.28,0.15-0.43,0.23 c-0.34-3.53-2.45-6.93-5.73-8.5c-5.04-2.41-11.29-1.44-14.8,3.1c-1.31,1.69-2.14,3.79-2.2,5.93c-2.59-0.66-5.23-0.9-7.41-0.75 c-1.28-0.78-2.92-1.09-4.38-1c-4.56,0.26-7.26,4.63-7.36,8.86c-0.19,7.57,6.16,14.93,13.57,16.02c7.24,1.07,16.47-3.78,16.82-11.88 c0.01-0.21,0-0.4,0-0.6c3.77,0.18,7.87-1.8,9.99-4.93c0.32-0.47,0.57-0.97,0.79-1.48c0.39,0.42,0.83,0.81,1.34,1.06 c0.43,0.21,0.99,0.21,1.33-0.17c0.31-0.34,0.46-0.93,0.17-1.33c-0.24-0.33-0.48-0.62-0.77-0.91c-0.24-0.23-0.47-0.48-0.69-0.73 c-0.1-0.12-0.21-0.24-0.31-0.36c-0.05-0.06-0.1-0.12-0.15-0.18c-0.01-0.02-0.03-0.03-0.04-0.05c0,0,0,0,0,0 c0.03-0.02,0.05-0.04,0.08-0.06c0.09-0.07,0.19-0.14,0.33-0.24c0.13-0.1,0.27-0.19,0.4-0.29c0.58-0.42,1.31-0.81,1.58-1.5 c-0.05,0.09-0.11,0.18-0.16,0.27c0.12-0.13,0.26-0.25,0.37-0.38c0.05-0.05,0.1-0.12,0.13-0.18c0.05-0.1,0.03-0.2,0.07-0.29 C116.55,24.02,116.48,23.85,116.31,23.85z M147.75,33.57c0.07-0.07,0.15-0.13,0.21-0.2c1.66-1.8,3.95-4.95,1.6-7.1 c-2.21-2.02-5.24-0.07-7.04,1.41c-0.08,0.06-0.14,0.14-0.22,0.2c-0.26-0.85-0.65-1.64-1.22-2.3c-1.1-1.28-2.89-1.7-4.42-0.82 c-1.33,0.77-2.23,2.24-2.7,3.61c-0.46,1.33-0.47,2.76-0.09,4.08c-0.11-0.06-0.2-0.13-0.32-0.18c-0.95-0.45-1.99-0.7-3.04-0.51 c-2.12,0.38-3.31,2.28-2.91,4.24c0.34,1.67,1.71,3.07,3.39,3.59c0.92,0.28,1.84,0.29,2.75,0.14c-0.15,1.03-0.23,2.07-0.15,3.07 c0.18,2.43,2.12,4.48,4.83,3.8c2.13-0.53,3.56-2.57,3.94-4.54c0.02-0.09,0.03-0.18,0.04-0.27c0.21,0.08,0.42,0.15,0.64,0.21 c2.18,0.55,4.7-0.13,6.09-1.85c1.56-1.94,1.07-4.66-0.85-6.22C148.12,33.79,147.93,33.69,147.75,33.57z M173.6,44.19 c-0.15-0.14-0.3-0.23-0.5-0.29c-0.14-0.04-0.29-0.06-0.44-0.09c-0.38-0.07-0.76-0.11-1.14-0.16c-0.34-0.04-0.67-0.07-1.01-0.11 c-0.01,0-0.02,0-0.03,0c0,0-0.02-0.01-0.07-0.02c-0.07-0.02-0.15-0.04-0.22-0.05c-0.17-0.04-0.34-0.08-0.51-0.12 c-0.34-0.08-0.67-0.02-0.94,0.19c-0.25,0.19-0.46,0.52-0.43,0.85c0.08,0.79,0.41,1.54,0.76,2.25c0.14,0.28,0.29,0.56,0.46,0.83 c0.21,0.35,0.42,0.7,0.73,0.97c0.38,0.32,0.93,0.47,1.38,0.18c0.16-0.11,0.3-0.24,0.41-0.41c0.14-0.21,0.22-0.63,0.11-0.88 c-0.09-0.22-0.17-0.44-0.31-0.64c-0.08-0.12-0.16-0.23-0.24-0.35c-0.17-0.27-0.33-0.54-0.48-0.82c-0.05-0.09-0.09-0.19-0.14-0.29 c0.18-0.02,0.36-0.03,0.53-0.04c0.37-0.03,0.74-0.07,1.1-0.12c0.16-0.02,0.32-0.04,0.48-0.08c0.2-0.05,0.34-0.15,0.5-0.28 C173.75,44.58,173.74,44.31,173.6,44.19z M195.62,53.75c-0.27-0.35-0.71-0.65-1.18-0.48c-0.26,0.1-0.53,0.26-0.67,0.51 c-0.01,0-0.02,0-0.03,0.01c-0.01,0-0.04,0-0.08,0c-0.01-0.01-0.04-0.02-0.09-0.03c-0.03-0.04-0.07-0.07-0.1-0.1 c0-0.01-0.01-0.01-0.01-0.02c-0.04-0.06-0.08-0.12-0.11-0.19c-0.02-0.04-0.05-0.09-0.07-0.14c-0.01-0.02-0.01-0.04-0.02-0.06 c-0.05-0.14-0.09-0.29-0.12-0.43c-0.08-0.31-0.13-0.63-0.19-0.94c-0.07-0.37-0.16-0.73-0.25-1.09c-0.1-0.4-0.3-0.74-0.49-1.11 c-0.19-0.36-0.8-0.29-0.89,0.12c-0.1,0.47-0.19,0.91-0.18,1.4c0.01,0.46,0.03,0.91,0.06,1.36c0.05,0.81,0.13,1.69,0.6,2.37 c0.52,0.77,1.33,1.18,2.26,1.06c0.43-0.06,0.88-0.21,1.19-0.52C195.67,55.04,196.03,54.28,195.62,53.75z M214.2,26.69 c0.01-0.1-0.06-0.21-0.15-0.26c-0.25-0.13-0.43-0.19-0.72-0.13c-0.17,0.04-0.35,0.08-0.52,0.12c-0.39,0.09-0.76,0.29-1.12,0.45 c-0.15,0.06-0.29,0.13-0.44,0.19c0-0.07,0-0.14-0.01-0.21c-0.02-0.29-0.07-0.57-0.11-0.86c-0.23-1.72,0.18,1.27-0.05-0.45 c-0.05-0.39-0.09-0.79-0.19-1.18c-0.21-0.9-0.6-1.79-1.05-2.59c-0.87-1.55-2.14-2.77-3.57-3.79c-2.8-2-6.77-2.55-10.05-1.57 c-3.53,1.05-6.11,3.68-7.48,7.04c-0.68,1.68-0.98,3.69-0.48,5.46c-0.18-0.02-0.36-0.04-0.54-0.06c-0.13-0.06-0.26-0.11-0.39-0.16 c-0.07-0.02-0.43-0.22-0.48-0.22c-0.09-0.07-0.16-0.12-0.17-0.13c-0.59-0.39-1.21-0.67-1.92-0.79c-1.3-0.22-2.62-0.5-3.94-0.41 c-3.09,0.2-5.69,1.77-7.26,4.46c-2.67,4.56-1.68,10.34,1.71,14.21c3.24,3.7,8.37,4.93,13.07,4.23c4.86-0.72,10.06-4.05,11.92-8.7 c0.54-1.34,0.67-2.85,0.42-4.28c1.41-0.08,2.82-0.41,4.15-0.95c2.39-0.96,4.46-2.73,5.56-4.99c0.16,0.17,0.32,0.35,0.5,0.5 c0.36,0.32,0.74,0.64,1.2,0.8c0.49,0.17,1.15-0.11,1.39-0.57c0.26-0.5,0.19-1.07-0.19-1.49c-0.15-0.17-0.36-0.28-0.55-0.41 c-0.05-0.03-0.1-0.07-0.15-0.11c-0.22-0.18-0.43-0.37-0.62-0.57c-0.09-0.1-0.19-0.2-0.28-0.3c-0.01-0.01-0.02-0.03-0.03-0.04 c0.28-0.18,0.55-0.37,0.83-0.54c0.34-0.21,0.7-0.4,0.99-0.67c0.13-0.12,0.25-0.24,0.38-0.35C214.13,27.16,214.17,26.98,214.2,26.69z M249.29,35.73c-0.66-0.92-1.68-1.29-2.67-1.73c-0.49-0.22-0.98-0.45-1.47-0.66c0.09-0.12,0.19-0.24,0.28-0.37 c0.8-1.19,1.53-2.83,1.1-4.27c-0.57-1.87-2.62-2.11-4.2-1.53c-1.35,0.49-2.53,1.23-3.55,2.14c-0.78-1.57-1.98-2.95-3.43-3.94 c-0.62-0.42-1.74-0.3-2.24,0.29c-1.38,1.65-1.54,3.68-0.66,5.62c0.34,0.75,0.84,1.42,1.44,1.98c-1.54,0.15-3.04,0.45-4.4,1.29 c-1.3,0.81-2.36,2.3-2.37,3.88c-0.01,1.9,1.61,3.42,3.5,3.39c1.41-0.03,2.82-0.68,4.07-1.38c0.02,0.57,0.07,1.13,0.18,1.68 c0.46,2.35,2.59,3.86,4.95,3.44c1.76-0.32,3.37-1.72,3.95-3.42c1.21,0.18,2.48,0,3.58-0.57C249.37,40.5,250.77,37.8,249.29,35.73z M340.43,16.78c0-0.46-0.24-0.81-0.61-1.06c-0.6-0.41-1.23-0.76-1.93-0.96c-0.67-0.19-1.36-0.3-2.05-0.35 c-0.09-0.01-0.17,0.01-0.25,0.04c-0.03,0-0.06,0.01-0.09,0.01c-0.09-0.08-0.22-0.11-0.34-0.1c0.23-3.27-1.21-6.63-4.57-7.67 c-3.75-1.17-7.33,0.94-9.29,4.09c-0.09,0.15-0.16,0.3-0.25,0.45c-0.75,0.78-1.38,1.7-1.8,2.66c-1.34,3.11-1.8,6.69-4.52,8.73 c-0.89-0.86-1.92-1.59-2.98-2.21c-0.88-0.52-1.83-1.03-2.81-1.33c-0.23-0.07-0.45-0.14-0.68-0.2c-4.43-2.18-9.79-3.05-13.98-2.83 c-4.69,0.25-9.59,1.08-13.64,3.02c-2.32-0.12-4.56,0.43-6.41,1.69c-0.05-0.01-0.11-0.03-0.16-0.04c-0.15-0.03-0.31-0.04-0.47-0.06 c-0.06-0.01-0.08-0.01-0.1-0.01c-0.13-0.02-0.28-0.06-0.39-0.08c-0.21-0.05-0.42-0.1-0.62-0.17c-0.32-0.1-0.64-0.22-0.96-0.31 c-0.17-0.05-0.34-0.11-0.51-0.17c-0.03-0.01-0.1-0.05-0.17-0.07c-0.01,0-0.02-0.01-0.03-0.01c-0.32-0.15-0.62-0.34-0.93-0.52 c-0.72-0.41-1.55-0.62-2.37-0.4c-1.39,0.37-2.1,1.72-2.08,3.08c0.02,1.56,0.53,3.2,1.4,4.5c0.76,1.14,1.74,2.17,2.94,2.86 c-0.15,4.44,2.25,8.54,5.53,11.66c1.88,3.24,4.67,5.6,7.94,7.17c-0.24-0.01-0.48-0.01-0.75,0.06c-0.48,0.13-0.95,0.32-1.42,0.47 c-0.99,0.32-1.97,0.66-2.96,0.96c-0.99,0.31-2,0.58-3.01,0.82c-0.87,0.2-1.76,0.34-2.61,0.58c-0.57-0.27-1.27-0.11-1.72,0.38 c-0.48,0.51-0.72,1.27-0.97,1.91c-0.55,1.38-1.04,2.77-1.42,4.21c0,0,0,0.01,0,0.01c-0.18,0.35-0.36,0.69-0.54,1.04 c-0.27,0.52-0.18,1.15,0.3,1.51c0.43,0.32,1.16,0.36,1.54-0.09c0.08-0.09,0.16-0.19,0.25-0.27c0.05-0.05,0.35-0.26,0.11-0.11 c0.1-0.07,0.2-0.13,0.3-0.19c0.03-0.02,0.16-0.07,0.21-0.1c0.2-0.07,0.41-0.13,0.62-0.18c0.01,0,0,0,0.01,0 c0.05,0,0.09-0.01,0.14-0.01c0.11-0.01,0.21-0.01,0.32-0.01c0.08,0,0.16,0.01,0.24,0.01c-0.11-0.01,0.18,0.03,0.24,0.04 c0.12,0.03,0.24,0.06,0.35,0.1c0.05,0.02,0.1,0.03,0.15,0.05c0,0,0,0,0,0c0.2,0.1,0.38,0.21,0.56,0.34 c0.03,0.03,0.16,0.13,0.18,0.15c0.03,0.03,0.27,0.32,0.13,0.13c0.28,0.39,0.72,0.63,1.21,0.49c0.43-0.12,0.82-0.57,0.79-1.03 c-0.1-1.45-0.35-2.88-0.79-4.27c-0.19-0.6-0.42-1.19-0.67-1.77c0.51-0.13,1.02-0.29,1.53-0.45c1.06-0.33,2.11-0.7,3.15-1.1 c1.02-0.39,2.04-0.81,3.01-1.31c0.47-0.24,0.97-0.48,1.41-0.77c0.46-0.3,0.63-0.67,0.94-1.08c0.03-0.04,0.04-0.08,0.05-0.12 c6.49,2.74,14.64,2.49,21.41-0.27c0.41,1.01,0.86,1.97,1.43,2.91c0.68,1.12,1.41,2.21,2.17,3.28c0.74,1.04,1.49,2.07,2.25,3.09 c0.83,1.11,1.6,2.33,2.7,3.19c0.5,0.39,1.14,0.53,1.67,0.1c0.18-0.15,0.3-0.33,0.38-0.54c0.09-0.01,0.17-0.01,0.26-0.03 c0.39-0.11,0.68-0.35,0.99-0.6c0.47-0.38,0.93-0.76,1.39-1.14c0.93-0.76,1.86-1.53,2.81-2.27c0.96-0.74,2.03-1.44,2.9-2.29 c0.73-0.71-0.01-2.11-1.03-1.77c-0.62,0.21-1.31,0.24-2,0.1c-0.35-0.07-0.69-0.19-1.03-0.31c-0.33-0.12-0.7-0.32-1.05-0.32 c-0.13-0.09-0.31-0.11-0.45,0.05c-0.22,0.23-0.43,0.46-0.65,0.69c-0.23,0.25-0.48,0.46-0.68,0.73c-0.39,0.52-0.77,1.04-1.13,1.57 c-0.37,0.53-0.7,1.08-1.04,1.63c-0.21,0.35-0.44,0.69-0.65,1.05c-0.37-0.43-0.75-0.86-1.13-1.29c-0.86-0.99-1.71-2-2.54-3.01 c-0.81-0.98-1.61-1.97-2.44-2.94c-0.4-0.46-0.77-0.96-1.21-1.39c-0.32-0.31-0.65-0.61-0.99-0.91c2.75-1.24,5.24-2.9,7.24-4.95 c1.04-0.75,2.06-1.54,3.02-2.41c1.21-1.1,2.32-2.28,3.38-3.51c2.85-2.85,5.17-6.87,6.6-9.57c0.32-0.61,0.68-1.28,1.04-1.99 c1.55-1.34,3.06-2.72,4.33-4.29c0.23,0.33,0.49,0.62,0.78,0.9c0.55,0.53,1.16,1.01,1.79,1.44c0.82,0.56,2.26-0.17,2.12-1.22 c-0.15-1.14-0.36-2.27-0.6-3.39c0.35-0.06,0.7-0.12,1.05-0.21c0.88-0.21,1.71-0.54,2.54-0.91 C340.21,17.67,340.43,17.18,340.43,16.78z M363.35,32.4c-0.6-0.14-1.2-0.14-1.79-0.08c0.86-2.09,0.97-4.64-0.33-6.56 c-0.73-1.09-1.8-1.39-2.95-0.83c-2.17,1.06-3.97,2.83-5.24,4.96c-0.32-0.95-0.75-1.84-1.31-2.54c-0.7-0.88-1.75-1.51-2.86-1.28 c-1.22,0.25-2.02,1.27-2.2,2.56c-0.2,1.43,0.21,2.84,0.99,3.98c-2.93,0.73-5.66,2.57-4.91,6.04c0.54,2.48,2.85,3.29,4.97,2.67 c0.45-0.13,0.9-0.3,1.33-0.5c0.02,1,0.13,1.99,0.35,2.94c0.59,2.42,2.62,4.17,5.02,3.59c1.93-0.46,3.58-2.26,3.93-4.34 c0.1-0.58,0.11-1.15,0.06-1.71c2.38,0.1,4.84-0.73,6.41-2.38C366.85,36.8,366.34,33.09,363.35,32.4z M413.99,15.44 c-6.32-1.97-14.95,2.35-14.5,8.87c-0.08,0.21-0.17,0.42-0.24,0.64c-0.16,0.53-0.23,1.07-0.26,1.61c-3.27-0.05-6.61,0.26-9.56,0.34 c-3.17,0.08-5.62,2.39-5.72,5.34c0,0.03,0,0.06,0,0.09c-0.02,0.07-0.05,0.13-0.07,0.19c-1.58,6.63,2.17,13.5,8.54,16.59 c-0.11,0.39-0.22,0.78-0.32,1.17c-0.25,1.09-0.41,2.19-0.64,3.27c-0.14,0.64,0.29,1.24,0.96,1.26c0.18,0.01,0.37-0.01,0.55-0.01 c0.1,0,0.2,0.01,0.31,0.01c0.13,0.01,0.07,0,0.15,0.01c0.43,0.07,0.85,0.28,1.29,0.24c0.4-0.04,0.74-0.22,0.9-0.61 c0.15-0.37,0.08-0.78-0.2-1.08c-0.44-0.46-1.1-0.54-1.7-0.61c-0.14-0.02-0.29-0.01-0.43-0.02c-0.07-0.77-0.04-1.58,0.01-2.32 c0.02-0.3,0.06-0.6,0.09-0.9c3.1,1.27,6.5,1.59,9.64,0.94c0.03,0.13,0.06,0.26,0.1,0.39c0.14,0.42,0.28,0.85,0.42,1.27 c0.14,0.43,0.26,0.85,0.41,1.28s0.3,0.84,0.42,1.27c0.15,0.51,0.65,0.76,1.15,0.65c0.44-0.09,0.87-0.27,1.3-0.41 c0.43-0.15,0.86-0.29,1.29-0.44c0.5-0.17,0.89-0.71,0.71-1.25c-0.16-0.48-0.72-0.91-1.25-0.71c-0.44,0.17-0.88,0.34-1.33,0.51 c-0.2,0.08-0.4,0.15-0.6,0.22c-0.09-0.15-0.18-0.3-0.27-0.45c-0.23-0.39-0.48-0.76-0.72-1.14c-0.24-0.38-0.48-0.77-0.71-1.15 c-0.05-0.08-0.1-0.15-0.16-0.22c3.11-0.8,5.92-2.55,7.86-5.29c1.72-2.42,2.52-5.49,2.24-8.4c2.8-0.86,5.32-2.66,6.87-5.2 C424.08,25.55,420.85,17.58,413.99,15.44z M456.17,32.7c-0.01,0-0.01,0-0.02,0c0.54-0.72,0.98-1.51,1.2-2.35 c0.56-2.15-0.78-4.22-2.96-4.18c-1.37,0.02-2.87,0.75-4,1.53c-1.04,0.71-1.94,1.6-2.69,2.59c-0.95-1.75-2.48-3.18-4.25-3.96 c-0.76-0.33-1.89,0.21-2.25,0.97c-0.97,2.03-1.07,4.24-0.14,6.31c0.16,0.36,0.36,0.7,0.57,1.02c-0.52,0.17-1.03,0.4-1.51,0.67 c-1.73,0.98-3.78,3.06-3.78,5.28c0,2.82,2.86,3.53,4.9,2.64c0.82-0.36,1.62-0.81,2.41-1.29c0.07,0.97,0.3,1.91,0.78,2.79 c1.03,1.87,3.14,3.04,5.19,2.75c2.38-0.35,3.69-2.71,3.56-5.12c-0.02-0.42-0.08-0.83-0.15-1.24c2.2,0.08,4.38-0.76,5.64-2.79 C460.15,35.95,458.83,33.03,456.17,32.7z M193.84,53.74C193.96,53.66,193.9,53.7,193.84,53.74 C193.84,53.74,193.84,53.74,193.84,53.74z M94.91,52.6c-0.03,0-0.06,0-0.09,0C94.84,52.61,94.87,52.61,94.91,52.6 C94.91,52.6,94.91,52.6,94.91,52.6z M94.98,52.59c-0.02,0-0.03,0-0.04,0c-0.01,0-0.01,0-0.02,0.01 C94.94,52.6,94.96,52.59,94.98,52.59z"/></g><g id="change2_1"><path fill="#fdf5b6" d="M201.68,27.82C201.68,27.82,201.68,27.82,201.68,27.82C201.68,27.82,201.68,27.82,201.68,27.82 C201.68,27.82,201.68,27.82,201.68,27.82z M210.28,30.96c0.05,0.06,0.11,0.1,0.16,0.16c-1.1,2.26-3.18,4.03-5.56,4.99 c-1.33,0.54-2.75,0.86-4.15,0.95c0.25,1.43,0.12,2.94-0.42,4.28c-1.86,4.65-7.06,7.98-11.92,8.7c-4.7,0.69-9.83-0.53-13.07-4.23 c-3.39-3.87-4.38-9.66-1.71-14.21c1.57-2.68,4.17-4.26,7.26-4.46c1.32-0.08,2.64,0.19,3.94,0.41c0.7,0.12,1.33,0.4,1.92,0.79 c0.01,0,0.08,0.06,0.17,0.13c0.04,0,0.41,0.2,0.48,0.22c0.14,0.04,0.27,0.1,0.39,0.16c0.18,0.02,0.36,0.03,0.54,0.06 c-0.5-1.77-0.21-3.78,0.48-5.46c1.36-3.36,3.95-5.99,7.48-7.04c3.28-0.97,7.25-0.43,10.05,1.57c1.43,1.02,2.7,2.24,3.57,3.79 c0.45,0.8,0.84,1.7,1.05,2.59c0.09,0.39,0.13,0.79,0.19,1.18c0.23,1.72-0.18-1.27,0.05,0.45c0.04,0.28,0.08,0.57,0.11,0.86 c0.01,0.07,0,0.14,0.01,0.21c-0.02,0.01-0.04,0.02-0.06,0.03c-0.08,0.04-0.17,0.07-0.25,0.11c-0.03,0.01-0.27,0.11-0.11,0.05 c-0.33,0.13-0.66,0.26-1,0.39c-0.5,0.19-0.98,0.74-0.75,1.33c0.14,0.37,0.26,0.74,0.48,1.08C209.79,30.36,210.02,30.67,210.28,30.96 z M189.55,40.5c-3.08,0.85-6.69,1.15-9.33-1.01c-1.06-0.87-1.84-2.06-2.05-3.43c-0.2-1.34-0.02-3.01,0.91-4.06 c0.26-0.29-0.12-0.65-0.42-0.42c-1.35,1.07-2.16,2.55-2.14,4.31c0.02,1.78,0.86,3.45,2.14,4.66c3.05,2.9,7.57,2.99,11.41,1.84 C191.27,42.03,190.77,40.17,189.55,40.5z M205.76,26.21c-0.03-0.16-0.1-0.31-0.17-0.46c-0.1-0.22-0.28-0.43-0.46-0.58 c-0.51-0.42-1.16-0.64-1.82-0.48c-0.95,0.23-1.35,1.13-1.53,2c-0.04,0.18-0.06,0.37-0.1,0.55c-0.03,0.13-0.06,0.26-0.06,0.39 c0,0.08,0.02,0.16,0.05,0.23c0,0.01-0.01,0.02-0.01,0.02c-0.15,0.29,0.22,0.61,0.47,0.36c0.02-0.02,0.04-0.05,0.07-0.07 c0.08-0.01,0.15-0.03,0.22-0.08c0.14-0.1,0.24-0.21,0.33-0.35c0.11-0.15,0.21-0.31,0.3-0.47c0.09-0.15,0.18-0.31,0.29-0.45 c0.02-0.03,0.04-0.05,0.07-0.07c0.03-0.03,0.06-0.05,0.09-0.08c0.03-0.02,0.06-0.04,0.09-0.05c0.02-0.01,0.05-0.01,0.07-0.02 c0,0,0.01,0.01,0.01,0.01c0.01,0.01,0.01,0.01,0.02,0.02c0.01,0.02,0.03,0.04,0.04,0.07c0.01,0.02,0.01,0.04,0.02,0.07 c0.07,0.27,0.25,0.56,0.51,0.68c0.31,0.14,0.71,0.22,1.02,0c0.2-0.14,0.34-0.28,0.44-0.51C205.81,26.68,205.81,26.46,205.76,26.21z M112.39,29.09c0.13,0.15,0.26,0.3,0.39,0.44c-0.22,0.51-0.47,1.01-0.79,1.48c-2.12,3.13-6.21,5.11-9.99,4.93c0,0.2,0.01,0.4,0,0.6 c-0.35,8.1-9.58,12.95-16.82,11.88c-7.41-1.09-13.76-8.45-13.57-16.02c0.1-4.23,2.8-8.6,7.36-8.86c1.46-0.08,3.1,0.23,4.38,1 c2.19-0.16,4.82,0.08,7.41,0.75c0.06-2.14,0.9-4.24,2.2-5.93c3.51-4.55,9.76-5.52,14.8-3.1c3.27,1.56,5.39,4.96,5.73,8.5 c-0.21,0.11-0.42,0.23-0.64,0.34c-0.19,0.1-0.39,0.2-0.59,0.29c-0.1,0.05-0.2,0.09-0.3,0.14c-0.02,0.01-0.04,0.02-0.06,0.03 c-0.01,0-0.03,0.01-0.09,0.02c-0.63,0.13-0.9,0.82-0.79,1.39c0.07,0.4,0.36,0.77,0.58,1.1C111.87,28.43,112.12,28.77,112.39,29.09z M92.85,37.59c-1.77,0.51-3.58,0.9-5.43,1.02c-1.76,0.11-3.76,0.04-5.43-0.61c-1.61-0.63-2.25-2.41-2.53-3.99 c-0.32-1.86-0.17-3.82,0.64-5.53c0.19-0.4-0.39-0.76-0.61-0.35c-0.96,1.79-1.57,3.8-1.44,5.84c0.13,1.97,0.73,4.23,2.49,5.35 c1.77,1.12,4.33,1.31,6.37,1.3c2.28-0.02,4.52-0.52,6.53-1.61C94.24,38.6,93.7,37.35,92.85,37.59z M108.87,22.09 c-0.16-0.91-1.14-1.61-2.05-1.35c-0.51,0.15-0.96,0.62-1.09,1.13c-0.12,0.48-0.01,1.09,0.39,1.42c0.07,0.05,0.13,0.09,0.2,0.14 c0,0.01-0.01,0.02-0.01,0.03c-0.09,0.28-0.14,0.58-0.17,0.87c-0.01,0.05-0.01,0.11-0.01,0.16c0,0.04,0,0.07-0.01,0.11 c0.01-0.06,0.01-0.06,0,0c0,0.08-0.02,0.16-0.03,0.24c-0.01,0.05-0.02,0.11-0.03,0.16c-0.01,0.04-0.02,0.07-0.02,0.11 c0,0.02-0.01,0.04-0.01,0.07c0,0,0.01,0,0.01-0.01c0,0.22,0.1,0.44,0.28,0.58c0.3,0.23,0.68,0.18,0.96-0.06 c0.25-0.21,0.41-0.55,0.58-0.83c0.15-0.25,0.31-0.51,0.46-0.76c0.07-0.12,0.15-0.24,0.21-0.36c0.03-0.05,0.05-0.1,0.08-0.16 c0.11-0.27,0.13-0.3,0.05-0.1c0.04-0.09,0.08-0.19,0.12-0.28C108.92,22.84,108.94,22.47,108.87,22.09z M405.64,21.78 C405.64,21.77,405.64,21.78,405.64,21.78c-0.01,0-0.04,0-0.03,0c-0.35,0.05-0.71,0.14-1.06,0.22c-0.07,0.01-0.14,0.03-0.22,0.04 c0.1,0.58,0.05,1.16,0.12,1.75c0,0.02,0.01,0.03,0.01,0.06c0.01,0.07,0.03,0.14,0.04,0.21c0.03,0.16,0.07,0.32,0.11,0.47 c0.01,0.02,0.01,0.05,0.02,0.07c0.01,0,0.02,0,0.02,0c0.17,0,0.34,0,0.52-0.01c0.33,0,0.66-0.01,0.99-0.01c0.17,0,0.34,0,0.51,0 c-0.1-0.27-0.2-0.54-0.3-0.81C406.13,23.11,405.84,22.45,405.64,21.78z M420.5,31.43c-1.54,2.54-4.07,4.34-6.87,5.2 c0.28,2.91-0.52,5.98-2.24,8.4c-1.94,2.73-4.75,4.49-7.86,5.29c-0.21-0.3-0.44-0.58-0.63-0.88c-0.12-0.18-0.42-0.07-0.36,0.15 c0.09,0.3,0.15,0.61,0.23,0.91c-3.14,0.64-6.54,0.32-9.64-0.94c0.02-0.22,0.04-0.43,0.07-0.65c0.08-0.55,0.1-1.08,0.12-1.64 c0.01-0.18-0.25-0.24-0.33-0.09c-0.28,0.48-0.52,0.94-0.69,1.48c-0.05,0.15-0.08,0.31-0.12,0.46c-6.37-3.09-10.12-9.96-8.54-16.59 c0.02-0.07,0.05-0.13,0.07-0.19c0-0.03,0-0.06,0-0.09c0.1-2.96,2.56-5.26,5.72-5.34c2.95-0.07,6.29-0.39,9.56-0.34 c0.03-0.54,0.1-1.08,0.26-1.61c0.06-0.21,0.15-0.42,0.24-0.64c-0.45-6.52,8.18-10.84,14.5-8.87 C420.85,17.58,424.08,25.55,420.5,31.43z M397.64,35.62c-1.51-0.08-2.96,0.28-4.47,0.37c-1.42,0.09-2.9,0.05-4.26-0.41 c-2.16-0.73-4.34-2.78-4.18-5.21c0.03-0.38-0.53-0.36-0.58,0c-0.37,2.79,1.37,5.28,3.81,6.49c1.5,0.75,3.19,1.03,4.85,1.01 c0.85-0.01,1.7-0.1,2.55-0.21c0.95-0.12,1.76-0.36,2.64-0.74C398.67,36.62,398.26,35.65,397.64,35.62z M402.8,19.72 c-0.02,0.11-0.02,0.21,0.01,0.32c0.05,0.17,0.14,0.3,0.28,0.41c0.13,0.1,0.31,0.18,0.48,0.17c0.22-0.01,0.4-0.09,0.56-0.23 c0.27-0.24,0.54-0.48,0.82-0.72c0.13-0.12,0.26-0.23,0.4-0.35c0.14-0.13,0.26-0.27,0.37-0.42c0.14-0.16,0.25-0.36,0.24-0.58 c-0.01-0.19-0.06-0.35-0.18-0.5c-0.1-0.14-0.25-0.25-0.43-0.29c-0.2-0.05-0.46-0.05-0.63,0.08c-0.19,0.15-0.4,0.28-0.56,0.45 c-0.13,0.14-0.26,0.27-0.39,0.41c-0.2,0.21-0.39,0.41-0.59,0.62c-0.04,0.04-0.09,0.09-0.13,0.12c0.02-0.02,0.04-0.03,0.06-0.05 c0,0-0.01,0.01-0.01,0.01c-0.09,0.07-0.17,0.15-0.21,0.25C402.84,19.51,402.81,19.61,402.8,19.72z M409.14,25.1 c-0.34-0.77-0.69-1.54-1.03-2.32c-0.17-0.39-0.34-0.77-0.52-1.16c-0.16-0.37-0.32-0.74-0.61-1.03c-0.33-0.33-0.76-0.51-1.23-0.47 c-0.44,0.04-0.84,0.22-1.25,0.37c-0.4,0.15-0.8,0.28-1.19,0.44c-0.2,0.08-0.39,0.16-0.59,0.25c-0.33,0.14-0.47,0.22-0.65,0.56 c-0.07,0.14-0.03,0.3,0.1,0.38c0.02,0.01,0.04,0.02,0.06,0.03c-0.05,0.23-0.08,0.47-0.07,0.73c0,0.44,0.05,0.88,0.12,1.32 c0.11,0.76,0.3,1.67,0.95,2.17c0.73,0.56,1.68,0.42,2.54,0.41c0.82-0.02,1.64-0.04,2.45-0.08C409.08,26.67,409.47,25.85,409.14,25.1 z M414.1,22.46c-0.03-0.5-0.36-0.92-0.87-0.99c-0.21-0.03-0.45,0-0.64,0.12c-0.07,0.05-0.14,0.11-0.2,0.16 c-0.12,0.13-0.21,0.27-0.26,0.44c0,0.01-0.01,0.02-0.01,0.04c0.03-0.08,0.07-0.16,0.1-0.24c-0.05,0.12-0.12,0.24-0.15,0.37 c-0.01,0.05-0.02,0.1-0.03,0.15c-0.02,0.11-0.05,0.21-0.07,0.32c-0.01,0.01-0.02,0.02-0.03,0.02c-0.17,0.15-0.31,0.33-0.42,0.53 c-0.11,0.2-0.21,0.42-0.26,0.64c-0.02,0.09-0.04,0.18-0.06,0.26c-0.01,0.04-0.02,0.08-0.03,0.12c-0.01,0.09-0.04,0.19-0.04,0.28 c0,0.1,0.02,0.2,0.04,0.3c0.04,0.16,0.13,0.3,0.24,0.41c0.12,0.12,0.26,0.2,0.41,0.24c0.31,0.09,0.69,0,0.91-0.24 c0.34-0.38,0.64-0.79,0.87-1.24c0.13-0.26,0.24-0.53,0.34-0.8C414.03,23.06,414.12,22.77,414.1,22.46z"/></g><g id="change3_1"><path fill="#fff9ed" d="M48.26,33.37c0.08,0.22,0.11,0.47,0.13,0.7c0.04,0.49-0.12,0.96-0.33,1.38c-0.1,0.21-0.27,0.4-0.41,0.58 c-0.07,0.09-0.15,0.17-0.24,0.24c-0.39,0.32-0.76,0.54-1.24,0.7c-0.06,0.02-0.12,0.04-0.18,0.05c-0.03,0.01-0.07,0.01-0.1,0.02 c-0.21,0.06-0.41,0.07-0.62,0.03c-0.07-0.01-0.14-0.02-0.21-0.03c-0.19-0.06-0.39-0.14-0.57-0.26c-0.34-0.23-0.65-0.53-0.83-0.9 c-0.18-0.36-0.22-0.56-0.26-0.96c-0.01-0.08-0.01-0.16-0.01-0.25c0.02-0.21,0.04-0.43,0.09-0.64c0.1-0.34,0.31-0.66,0.61-0.85 c0,0,0,0,0.01-0.01c-0.01-0.14,0-0.28,0.04-0.43c0.06-0.23,0.2-0.44,0.36-0.62c0.11-0.13,0.26-0.23,0.4-0.33 c0.05-0.03,0.09-0.06,0.14-0.08c0.28-0.14,0.51-0.21,0.82-0.23c0.16-0.01,0.32,0.03,0.48,0.06c0.06,0.01,0.11,0.03,0.16,0.05 c0.42,0.15,0.62,0.28,0.96,0.55c0.2,0.16,0.34,0.36,0.49,0.56C48.09,32.92,48.18,33.15,48.26,33.37z M142.04,32.87 c-0.46-0.54-1.35-0.83-1.97-0.4c-0.09,0.07-0.18,0.14-0.27,0.21c-0.13,0.12-0.22,0.26-0.27,0.43c-0.06,0.1-0.08,0.2-0.08,0.31 c-0.03,0.03-0.07,0.05-0.1,0.09c-0.14,0.14-0.28,0.3-0.37,0.48c-0.19,0.39-0.29,0.75-0.31,1.19c-0.01,0.2,0.03,0.42,0.09,0.61 c0.13,0.4,0.32,0.78,0.71,1.01c0.41,0.24,0.98,0.26,1.43,0.13c0.59-0.17,1.11-0.61,1.39-1.15c0.12-0.23,0.23-0.49,0.28-0.75 c0.03-0.18,0.06-0.38,0.07-0.56c0-0.19-0.03-0.38-0.06-0.56C142.5,33.5,142.29,33.17,142.04,32.87z M240.67,33.66 c-0.17-0.22-0.4-0.4-0.68-0.47c-0.2-0.05-0.41-0.07-0.62-0.1c-0.1-0.01-0.19-0.01-0.29-0.01c-0.31,0.01-0.61,0.06-0.9,0.18 c-0.34,0.14-0.76,0.3-1.01,0.59c-0.19,0.22-0.37,0.45-0.49,0.72c-0.04,0.09-0.07,0.18-0.11,0.26c-0.05,0.15-0.05,0.29-0.02,0.44 c0.03,0.23,0.13,0.47,0.3,0.63c0.14,0.13,0.3,0.22,0.49,0.28c0.06,0.02,0.11,0.02,0.17,0.03c0.11,0.23,0.24,0.45,0.4,0.65 c0.21,0.25,0.49,0.44,0.79,0.56c0.41,0.17,0.84,0.19,1.27,0.09c0.09-0.04,0.18-0.08,0.27-0.11c0.13-0.07,0.24-0.17,0.32-0.29 c0.16-0.21,0.23-0.43,0.24-0.69c0.01-0.14,0.02-0.29,0.03-0.43c0.01-0.03,0.03-0.05,0.04-0.08c0.03-0.11,0.04-0.26,0.05-0.38 c0-0.03,0-0.05,0-0.08c0-0.11,0-0.23,0.01-0.34c0-0.22,0.01-0.44,0.01-0.67c-0.02-0.12-0.03-0.23-0.05-0.35 C240.86,33.93,240.79,33.79,240.67,33.66z M355.74,32.62c-0.23-0.04-0.46-0.08-0.7-0.06c-0.23,0.02-0.48,0.05-0.7,0.11 c-0.46,0.14-0.93,0.39-1.25,0.77c-0.25,0.3-0.39,0.53-0.53,0.91c-0.14,0.41-0.03,0.81,0.15,1.18c0.07,0.14,0.18,0.26,0.27,0.38 c0.06,0.06,0.13,0.11,0.2,0.16c0,0,0,0.01,0,0.01c0.12,0.48,0.39,0.94,0.74,1.28c0.25,0.24,0.54,0.36,0.88,0.35 c0.16,0,0.33-0.03,0.49-0.06c0.24-0.04,0.47-0.15,0.68-0.26c0.44-0.24,0.8-0.62,1.09-1.02c0.67-0.92,0.59-2.29-0.19-3.12 C356.6,32.94,356.16,32.7,355.74,32.62z M451.46,33.98c-0.09-0.12-0.17-0.25-0.28-0.35c-0.14-0.13-0.3-0.26-0.47-0.34 c-0.18-0.09-0.38-0.18-0.58-0.22c-0.38-0.08-0.62-0.06-1,0c-0.21,0.03-0.41,0.13-0.6,0.22c-0.18,0.09-0.34,0.21-0.47,0.36 c-0.21,0.23-0.35,0.49-0.43,0.78c-0.1,0.12-0.19,0.24-0.26,0.37c-0.05,0.11-0.1,0.23-0.15,0.35c-0.04,0.12-0.05,0.26-0.06,0.39 c-0.04,0.35,0.1,0.73,0.36,0.97c0.16,0.14,0.34,0.29,0.53,0.38c0.4,0.2,0.87,0.35,1.33,0.34c0.17-0.01,0.34-0.04,0.51-0.06 c0.07-0.01,0.13-0.02,0.2-0.04c0.1-0.03,0.2-0.08,0.3-0.12c0.11-0.05,0.21-0.09,0.31-0.15c0.48-0.3,0.81-0.72,0.99-1.26 c0.16-0.5,0.09-1.05-0.17-1.51C451.51,34.04,451.49,34.01,451.46,33.98z M332.07,21.15c0.02,0.03,0.04,0.05,0.06,0.08 c-1.27,1.56-2.78,2.94-4.33,4.29c-0.36,0.71-0.72,1.38-1.04,1.99c-1.43,2.7-3.75,6.72-6.6,9.57c-1.05,1.23-2.17,2.41-3.38,3.51 c-0.96,0.87-1.98,1.66-3.02,2.41c-2,2.06-4.5,3.71-7.24,4.95c-0.18-0.16-0.36-0.32-0.54-0.48c-0.25-0.22-0.76-0.01-0.61,0.36 c0.07,0.18,0.14,0.35,0.21,0.53c-6.77,2.76-14.92,3.01-21.41,0.27c0.05-0.17-0.04-0.37-0.26-0.37c-0.23,0-0.44-0.03-0.65-0.04 c-3.27-1.56-6.06-3.93-7.94-7.17c-3.29-3.12-5.68-7.21-5.53-11.66c-1.19-0.69-2.17-1.73-2.94-2.86c-0.87-1.3-1.38-2.93-1.4-4.5 c-0.02-1.36,0.69-2.71,2.08-3.08c0.82-0.22,1.65-0.01,2.37,0.4c0.31,0.17,0.6,0.37,0.93,0.52c0.01,0,0.02,0.01,0.03,0.01 c0.06,0.02,0.14,0.06,0.17,0.07c0.17,0.06,0.34,0.12,0.51,0.17c0.33,0.09,0.64,0.21,0.96,0.31c0.2,0.06,0.41,0.12,0.62,0.17 c0.11,0.02,0.25,0.07,0.39,0.08c0.02,0,0.04,0,0.1,0.01c0.16,0.02,0.31,0.03,0.47,0.06c0.05,0.01,0.11,0.03,0.16,0.04 c1.85-1.26,4.09-1.82,6.41-1.69c4.05-1.95,8.95-2.77,13.64-3.02c4.19-0.22,9.54,0.66,13.98,2.83c0.23,0.06,0.46,0.13,0.68,0.2 c0.98,0.3,1.93,0.81,2.81,1.33c1.06,0.63,2.08,1.36,2.98,2.21c2.72-2.04,3.17-5.62,4.52-8.73c0.42-0.97,1.05-1.88,1.8-2.66 c0.09-0.15,0.16-0.31,0.25-0.45c1.97-3.14,5.54-5.25,9.29-4.09c3.36,1.05,4.8,4.4,4.57,7.67c-0.11,0.02-0.22,0.07-0.29,0.17 c-0.07,0.1-0.14,0.19-0.22,0.29c-0.35,0.3-0.58,0.75-0.79,1.16c-0.07,0.14-0.14,0.29-0.21,0.43c-0.11,0.1-0.21,0.2-0.29,0.3 c-0.12,0.16-0.25,0.32-0.37,0.48c-0.06,0.08-0.12,0.15-0.17,0.23c-0.03,0.04-0.06,0.08-0.09,0.11c-0.01,0.02-0.03,0.04-0.04,0.06 c-0.04,0.05-0.03,0.04,0.03-0.04c-0.02,0.06-0.14,0.16-0.18,0.21c-0.06,0.07-0.12,0.14-0.18,0.21c-0.13,0.15-0.26,0.29-0.38,0.44 c-0.18,0.22-0.34,0.44-0.4,0.73c-0.06,0.29-0.06,0.58,0.02,0.88c-0.01-0.11-0.03-0.21-0.04-0.32c0.02,0.13,0.02,0.27,0.06,0.39 c0.03,0.11,0.08,0.21,0.14,0.31C331.82,20.66,331.91,20.9,332.07,21.15z M331.2,14.15c0-0.02-0.01-0.05-0.01-0.07 c-0.01-0.06-0.03-0.12-0.04-0.18c-0.07-0.3-0.33-0.54-0.62-0.62c-0.16-0.04-0.32-0.04-0.47,0c-0.15,0.04-0.28,0.12-0.39,0.23 c-0.17,0.13-0.32,0.25-0.41,0.46c-0.09,0.2-0.19,0.4-0.25,0.61c-0.04,0.13-0.08,0.27-0.12,0.4c-0.06,0.21-0.09,0.42-0.1,0.64 c-0.01,0.25,0.12,0.53,0.29,0.7c0.17,0.17,0.45,0.3,0.7,0.29c0.26-0.01,0.52-0.1,0.7-0.29c0.05-0.07,0.1-0.13,0.16-0.2 c0.04-0.06,0.08-0.11,0.12-0.17c0.07-0.11,0.12-0.28,0.17-0.41c0.05-0.13,0.11-0.26,0.16-0.39c0.05-0.13,0.08-0.26,0.12-0.4 C331.24,14.52,331.24,14.38,331.2,14.15z"/></g><g id="change4_1"><path fill="#ffbd6f" d="M56.48,32.3c-1.09-0.68-2.25-1.15-3.45-1.46c0.75-1.17,1.2-2.67,0.88-4.05c-0.36-1.56-1.62-2.72-3.18-2.96 c-1.46-0.23-2.89,0.37-4.05,1.23c-1.12,0.83-2.33,1.79-3.32,2.81c-0.17-0.8-0.38-1.59-0.71-2.32c-0.5-1.11-1.42-2.18-2.64-2.49 c-1.76-0.44-3.24,0.73-3.8,2.34c-0.86,2.5-0.39,5.32,0.96,7.6c-1.76,0.88-3.64,2.85-3.39,4.96c0.27,2.31,2.75,3.09,4.7,2.42 c0.84-0.29,1.58-0.78,2.32-1.26c0.62,2.43,2.13,4.61,4.35,5.98c1.31,0.81,2.96,0.01,3.39-1.39c0.45-1.47,0.55-2.97,0.35-4.44 c3.02,0.23,6.14-0.86,8.07-3.35C57.86,34.76,57.86,33.17,56.48,32.3z M48.05,35.45c-0.1,0.21-0.27,0.4-0.41,0.58 c-0.07,0.09-0.15,0.17-0.24,0.24c-0.39,0.32-0.76,0.54-1.24,0.7c-0.06,0.02-0.12,0.04-0.18,0.05c-0.03,0.01-0.07,0.01-0.1,0.02 c-0.21,0.06-0.41,0.07-0.62,0.03c-0.07-0.01-0.14-0.02-0.21-0.03c-0.19-0.06-0.39-0.14-0.57-0.26c-0.34-0.23-0.65-0.53-0.83-0.9 c-0.18-0.36-0.22-0.56-0.26-0.96c-0.01-0.08-0.01-0.16-0.01-0.25c0.02-0.21,0.04-0.43,0.09-0.64c0.1-0.34,0.31-0.66,0.61-0.85 c0,0,0,0,0.01-0.01c-0.01-0.14,0-0.28,0.04-0.43c0.06-0.23,0.2-0.44,0.36-0.62c0.11-0.13,0.26-0.23,0.4-0.33 c0.05-0.03,0.09-0.06,0.14-0.08c0.28-0.14,0.51-0.21,0.82-0.23c0.16-0.01,0.32,0.03,0.48,0.06c0.06,0.01,0.11,0.03,0.16,0.05 c0.42,0.15,0.62,0.28,0.96,0.55c0.2,0.16,0.34,0.36,0.49,0.56c0.14,0.19,0.23,0.42,0.31,0.64c0.08,0.22,0.11,0.47,0.13,0.7 C48.42,34.55,48.26,35.02,48.05,35.45z M149.56,26.27c-2.21-2.02-5.24-0.07-7.04,1.41c-0.08,0.06-0.14,0.14-0.22,0.2 c-0.26-0.85-0.65-1.64-1.22-2.3c-1.1-1.28-2.89-1.7-4.42-0.82c-1.33,0.77-2.23,2.24-2.7,3.61c-0.46,1.33-0.47,2.76-0.09,4.08 c-0.11-0.06-0.2-0.13-0.32-0.18c-0.95-0.45-1.99-0.7-3.04-0.51c-2.12,0.38-3.31,2.28-2.91,4.24c0.34,1.67,1.71,3.07,3.39,3.59 c0.92,0.28,1.84,0.29,2.75,0.14c-0.15,1.03-0.23,2.07-0.15,3.07c0.18,2.43,2.12,4.48,4.83,3.8c2.13-0.53,3.56-2.57,3.94-4.54 c0.02-0.09,0.03-0.18,0.04-0.27c0.21,0.08,0.42,0.15,0.64,0.21c2.18,0.55,4.7-0.13,6.09-1.85c1.56-1.94,1.07-4.66-0.85-6.22 c-0.17-0.14-0.36-0.25-0.54-0.37c0.07-0.07,0.15-0.13,0.21-0.2C149.63,31.57,151.92,28.42,149.56,26.27z M142.56,35.01 c-0.04,0.26-0.16,0.52-0.28,0.75c-0.28,0.55-0.8,0.98-1.39,1.15c-0.45,0.13-1.02,0.11-1.43-0.13c-0.38-0.22-0.58-0.6-0.71-1.01 c-0.06-0.19-0.1-0.41-0.09-0.61c0.01-0.43,0.12-0.8,0.31-1.19c0.09-0.18,0.23-0.33,0.37-0.48c0.03-0.03,0.07-0.06,0.1-0.09 c0-0.11,0.03-0.21,0.08-0.31c0.05-0.16,0.14-0.31,0.27-0.43c0.09-0.07,0.18-0.14,0.27-0.21c0.62-0.43,1.51-0.14,1.97,0.4 c0.25,0.29,0.46,0.62,0.53,1.01c0.03,0.18,0.06,0.37,0.06,0.56C142.63,34.63,142.59,34.83,142.56,35.01z M246.62,34 c-0.49-0.22-0.98-0.45-1.47-0.66c0.09-0.12,0.19-0.24,0.28-0.37c0.8-1.19,1.53-2.83,1.1-4.27c-0.57-1.87-2.62-2.11-4.2-1.53 c-1.35,0.49-2.53,1.23-3.55,2.14c-0.78-1.57-1.98-2.95-3.43-3.94c-0.62-0.42-1.74-0.3-2.24,0.29c-1.38,1.65-1.54,3.68-0.66,5.62 c0.34,0.75,0.84,1.42,1.44,1.98c-1.54,0.15-3.04,0.45-4.4,1.29c-1.3,0.81-2.36,2.3-2.37,3.88c-0.01,1.9,1.61,3.42,3.5,3.39 c1.41-0.03,2.82-0.68,4.07-1.38c0.02,0.57,0.07,1.13,0.18,1.68c0.46,2.35,2.59,3.86,4.95,3.44c1.76-0.32,3.37-1.72,3.95-3.42 c1.21,0.18,2.48,0,3.58-0.57c2.04-1.05,3.44-3.76,1.96-5.82C248.63,34.82,247.61,34.45,246.62,34z M240.94,35.11 c0,0.11,0,0.23-0.01,0.34c0,0.03,0,0.05,0,0.08c-0.01,0.12-0.02,0.26-0.05,0.38c-0.01,0.03-0.03,0.05-0.04,0.08 c-0.01,0.14-0.02,0.29-0.03,0.43c-0.02,0.27-0.08,0.48-0.24,0.69c-0.08,0.12-0.19,0.22-0.32,0.29c-0.09,0.04-0.18,0.08-0.27,0.11 c-0.43,0.1-0.86,0.08-1.27-0.09c-0.3-0.13-0.58-0.31-0.79-0.56c-0.17-0.2-0.3-0.42-0.4-0.65c-0.06-0.01-0.11-0.01-0.17-0.03 c-0.18-0.06-0.35-0.15-0.49-0.28c-0.18-0.16-0.27-0.4-0.3-0.63c-0.03-0.15-0.03-0.29,0.02-0.44c0.04-0.09,0.07-0.18,0.11-0.26 c0.12-0.27,0.3-0.5,0.49-0.72c0.25-0.29,0.66-0.45,1.01-0.59c0.28-0.11,0.59-0.16,0.9-0.18c0.1,0,0.19,0,0.29,0.01 c0.21,0.02,0.42,0.05,0.62,0.1c0.27,0.07,0.51,0.25,0.68,0.47c0.11,0.13,0.19,0.27,0.23,0.44c0.02,0.12,0.03,0.23,0.05,0.35 C240.95,34.67,240.94,34.89,240.94,35.11z M363.35,32.4c-0.6-0.14-1.2-0.14-1.79-0.08c0.86-2.09,0.97-4.64-0.33-6.56 c-0.73-1.09-1.8-1.39-2.95-0.83c-2.17,1.06-3.97,2.83-5.24,4.96c-0.32-0.95-0.75-1.84-1.31-2.54c-0.7-0.88-1.75-1.51-2.86-1.28 c-1.22,0.25-2.02,1.27-2.2,2.56c-0.2,1.43,0.21,2.84,0.99,3.98c-2.93,0.73-5.66,2.57-4.91,6.04c0.54,2.48,2.85,3.29,4.97,2.67 c0.45-0.13,0.9-0.3,1.33-0.5c0.02,1,0.13,1.99,0.35,2.94c0.59,2.42,2.62,4.17,5.02,3.59c1.93-0.46,3.58-2.26,3.93-4.34 c0.1-0.58,0.11-1.15,0.06-1.71c2.38,0.1,4.84-0.73,6.41-2.38C366.85,36.8,366.34,33.09,363.35,32.4z M357.08,36.37 c-0.29,0.4-0.65,0.78-1.09,1.02c-0.21,0.12-0.44,0.22-0.68,0.26c-0.16,0.03-0.33,0.06-0.49,0.06c-0.34,0.01-0.63-0.11-0.88-0.35 c-0.36-0.34-0.62-0.81-0.74-1.28c0,0,0-0.01,0-0.01c-0.07-0.05-0.14-0.1-0.2-0.16c-0.1-0.12-0.2-0.24-0.27-0.38 c-0.18-0.37-0.29-0.77-0.15-1.18c0.13-0.38,0.27-0.6,0.53-0.91c0.32-0.38,0.79-0.63,1.25-0.77c0.23-0.07,0.47-0.1,0.7-0.11 c0.23-0.02,0.47,0.02,0.7,0.06c0.42,0.07,0.86,0.32,1.15,0.63C357.67,34.08,357.75,35.45,357.08,36.37z M456.17,32.7 c-0.01,0-0.01,0-0.02,0c0.54-0.72,0.98-1.51,1.2-2.35c0.56-2.15-0.78-4.22-2.96-4.18c-1.37,0.02-2.87,0.75-4,1.53 c-1.04,0.71-1.94,1.6-2.69,2.59c-0.95-1.75-2.48-3.18-4.25-3.96c-0.76-0.33-1.89,0.21-2.25,0.97c-0.97,2.03-1.07,4.24-0.14,6.31 c0.16,0.36,0.36,0.7,0.57,1.02c-0.52,0.17-1.03,0.4-1.51,0.67c-1.73,0.98-3.78,3.06-3.78,5.28c0,2.82,2.86,3.53,4.9,2.64 c0.82-0.36,1.62-0.81,2.41-1.29c0.07,0.97,0.3,1.91,0.78,2.79c1.03,1.87,3.14,3.04,5.19,2.75c2.38-0.35,3.69-2.71,3.56-5.12 c-0.02-0.42-0.08-0.83-0.15-1.24c2.2,0.08,4.38-0.76,5.64-2.79C460.15,35.95,458.83,33.03,456.17,32.7z M451.69,35.59 c-0.17,0.53-0.51,0.96-0.99,1.26c-0.1,0.06-0.21,0.1-0.31,0.15c-0.1,0.04-0.2,0.09-0.3,0.12c-0.06,0.02-0.13,0.03-0.2,0.04 c-0.17,0.03-0.34,0.06-0.51,0.06c-0.45,0.02-0.93-0.14-1.33-0.34c-0.19-0.1-0.38-0.24-0.53-0.38c-0.26-0.24-0.4-0.62-0.36-0.97 c0.01-0.13,0.02-0.27,0.06-0.39c0.04-0.12,0.09-0.23,0.15-0.35c0.06-0.13,0.16-0.26,0.26-0.37c0.08-0.29,0.22-0.54,0.43-0.78 c0.13-0.15,0.3-0.27,0.47-0.36c0.19-0.09,0.39-0.18,0.6-0.22c0.38-0.06,0.61-0.09,1,0c0.2,0.04,0.4,0.14,0.58,0.22 c0.17,0.08,0.34,0.22,0.47,0.34c0.11,0.1,0.2,0.23,0.28,0.35c0.02,0.03,0.04,0.06,0.06,0.1C451.78,34.53,451.86,35.08,451.69,35.59z M116.49,24.16c-0.04,0.1-0.02,0.19-0.07,0.29c-0.03,0.06-0.09,0.12-0.13,0.18c-0.12,0.13-0.25,0.25-0.37,0.38 c0.05-0.09,0.11-0.18,0.16-0.27c-0.27,0.69-1.01,1.08-1.58,1.5c-0.13,0.1-0.27,0.19-0.4,0.29c-0.14,0.1-0.24,0.17-0.33,0.24 c-0.03,0.02-0.05,0.04-0.08,0.06c0,0,0,0,0,0c0.01,0.01,0.02,0.03,0.04,0.05c0.05,0.06,0.1,0.12,0.15,0.18 c0.1,0.12,0.21,0.24,0.31,0.36c0.22,0.25,0.45,0.5,0.69,0.73c0.29,0.28,0.53,0.58,0.77,0.91c0.29,0.4,0.14,1-0.17,1.33 c-0.35,0.38-0.91,0.38-1.33,0.17c-0.52-0.25-0.95-0.64-1.34-1.06c-0.13-0.14-0.26-0.29-0.39-0.44c-0.27-0.32-0.52-0.66-0.76-1.01 c-0.22-0.33-0.51-0.71-0.58-1.1c-0.11-0.57,0.16-1.26,0.79-1.39c0.05-0.01,0.07-0.02,0.09-0.02c0.02-0.01,0.04-0.02,0.06-0.03 c0.1-0.05,0.2-0.1,0.3-0.14c0.2-0.1,0.4-0.19,0.59-0.29c0.21-0.11,0.42-0.23,0.64-0.34c0.14-0.08,0.28-0.15,0.43-0.23 c0.39-0.21,0.78-0.46,1.22-0.55c0.2-0.04,0.36-0.08,0.56-0.14c0.1-0.03,0.21-0.07,0.32-0.07c0.11,0,0.18,0.06,0.28,0.06 C116.48,23.85,116.55,24.02,116.49,24.16z M214.2,26.69c-0.04,0.29-0.07,0.47-0.29,0.68c-0.13,0.12-0.25,0.24-0.38,0.35 c-0.29,0.27-0.65,0.46-0.99,0.67c-0.28,0.17-0.56,0.36-0.83,0.54c0.01,0.01,0.02,0.03,0.03,0.04c0.09,0.1,0.18,0.2,0.28,0.3 c0.2,0.2,0.41,0.39,0.62,0.57c0.05,0.04,0.1,0.07,0.15,0.11c0.19,0.13,0.4,0.24,0.55,0.41c0.38,0.42,0.46,0.99,0.19,1.49 c-0.24,0.46-0.9,0.73-1.39,0.57c-0.46-0.16-0.84-0.48-1.2-0.8c-0.18-0.16-0.34-0.33-0.5-0.5c-0.05-0.05-0.11-0.1-0.16-0.16 c-0.25-0.29-0.49-0.6-0.71-0.92c-0.22-0.33-0.34-0.71-0.48-1.08c-0.23-0.59,0.25-1.14,0.75-1.33c0.33-0.13,0.67-0.25,1-0.39 c-0.17,0.07,0.08-0.03,0.11-0.05c0.08-0.04,0.17-0.07,0.25-0.11c0.02-0.01,0.04-0.02,0.06-0.03c0.15-0.06,0.29-0.13,0.44-0.19 c0.36-0.16,0.73-0.36,1.12-0.45c0.17-0.04,0.35-0.08,0.52-0.12c0.29-0.06,0.47,0,0.72,0.13C214.14,26.48,214.21,26.59,214.2,26.69z M408.11,22.79c-0.17-0.39-0.34-0.77-0.52-1.16c-0.16-0.37-0.32-0.74-0.61-1.03c-0.33-0.33-0.76-0.51-1.23-0.47 c-0.44,0.04-0.84,0.22-1.25,0.37c-0.4,0.15-0.8,0.28-1.19,0.44c-0.2,0.08-0.39,0.16-0.59,0.25c-0.33,0.14-0.47,0.22-0.65,0.56 c-0.07,0.14-0.03,0.3,0.1,0.38c0.02,0.01,0.04,0.02,0.06,0.03c-0.05,0.23-0.08,0.47-0.07,0.73c0,0.44,0.05,0.88,0.12,1.32 c0.11,0.76,0.3,1.67,0.95,2.17c0.73,0.56,1.68,0.42,2.54,0.41c0.82-0.02,1.64-0.04,2.45-0.08c0.86-0.04,1.25-0.86,0.92-1.6 C408.8,24.33,408.45,23.56,408.11,22.79z M406.17,24.57c-0.33,0-0.66,0.01-0.99,0.01c-0.17,0-0.34,0.01-0.52,0.01 c-0.01,0-0.02,0-0.02,0c-0.01-0.02-0.01-0.05-0.02-0.07c-0.04-0.16-0.08-0.31-0.11-0.47c-0.01-0.07-0.03-0.14-0.04-0.21 c0-0.02-0.01-0.04-0.01-0.06c-0.08-0.59-0.03-1.17-0.12-1.75c0.07-0.01,0.14-0.03,0.22-0.04c0.35-0.07,0.71-0.17,1.06-0.22 c-0.01,0,0.02,0,0.03,0c0,0,0,0,0,0c0.2,0.67,0.49,1.33,0.74,1.99c0.1,0.27,0.2,0.54,0.3,0.81 C406.51,24.57,406.34,24.57,406.17,24.57z M93.46,39.02c-2.01,1.09-4.25,1.59-6.53,1.61c-2.04,0.02-4.6-0.17-6.37-1.3 c-1.77-1.12-2.37-3.39-2.49-5.35c-0.13-2.04,0.48-4.05,1.44-5.84c0.22-0.4,0.8-0.05,0.61,0.35c-0.8,1.71-0.96,3.67-0.64,5.53 c0.27,1.58,0.91,3.36,2.53,3.99c1.67,0.65,3.66,0.72,5.43,0.61c1.85-0.12,3.66-0.51,5.43-1.02C93.7,37.35,94.24,38.6,93.46,39.02z M76.1,45.08c-0.18,0.12-0.33,0.23-0.46,0.4c-0.15,0.21-0.3,0.37-0.5,0.53c-0.01,0.01-0.15,0.11-0.1,0.08 c0.03-0.03-0.06,0.05-0.07,0.06c-0.08,0.07-0.17,0.13-0.25,0.2c-0.16,0.13-0.31,0.26-0.46,0.4c-0.3,0.28-0.59,0.57-0.87,0.88 c0.34,0.19,0.65,0.44,0.96,0.68c0.19,0.15,0.32,0.51,0.31,0.74c-0.01,0.19-0.06,0.36-0.14,0.53c-0.2,0.37-0.77,0.65-1.18,0.48 c-0.4-0.16-0.8-0.31-1.17-0.55c-0.31-0.2-0.6-0.43-0.9-0.64c-0.27-0.19-0.44-0.41-0.49-0.75c-0.04-0.31,0.05-0.63,0.28-0.86 c0.69-0.65,1.44-1.25,2.25-1.75c0.38-0.24,0.78-0.48,1.19-0.67c0.24-0.11,0.47-0.16,0.71-0.17c0.23-0.01,0.43-0.1,0.65-0.17 C76.22,44.38,76.39,44.89,76.1,45.08z M96.77,52.49c0.43,0.4,0.44,1.2,0,1.59c-0.69,0.63-1.6,0.83-2.51,0.58 c-0.77-0.22-1.44-0.76-1.89-1.41c-0.48-0.71-0.62-1.63-0.55-2.47c0.04-0.46,0.09-0.97,0.29-1.39c0.17-0.37,0.37-0.73,0.57-1.08 c0.1-0.18,0.35-0.09,0.36,0.1c0.02,0.37,0.05,0.73,0.09,1.1c0.04,0.36,0.02,0.71,0.04,1.07c0.02,0.31,0.07,0.59,0.18,0.92 c0,0,0.05,0.13,0.06,0.15c0.03,0.07,0.06,0.13,0.1,0.2c0.03,0.06,0.09,0.12,0.11,0.18c0.01,0.01,0.01,0.01,0.02,0.02 c0.05,0.05,0.21,0.27,0.29,0.28c-0.1-0.07-0.12-0.09-0.06-0.05c0.02,0.02,0.05,0.04,0.08,0.05c0.05,0.03,0.1,0.07,0.16,0.1 c0.05,0.03,0.11,0.06,0.17,0.09c0,0,0,0,0,0c0.01,0,0.01,0,0.02,0.01c0.12,0.04,0.25,0.07,0.37,0.1c0.05,0,0.1,0.01,0.14,0.01 c0.01,0,0.01,0,0.02,0c0.02,0,0.05,0.01,0.09,0c0,0,0,0,0,0c0.02,0,0.04-0.01,0.06,0c-0.02,0-0.03,0-0.04,0 c0.03-0.01,0.07-0.02,0.1-0.03c0,0,0,0,0,0c0.05-0.03,0.1-0.06,0.15-0.08c0,0,0.01,0,0.01,0C95.67,52.07,96.31,52.06,96.77,52.49z M94.91,52.6c-0.03,0-0.06,0-0.09,0c-0.03-0.01-0.01-0.02,0.11-0.01C94.93,52.59,94.92,52.6,94.91,52.6z M193.58,53.75 C193.58,53.75,193.58,53.75,193.58,53.75c0.05,0.01,0.08,0.02,0.09,0.03c0.04,0,0.06,0,0.08,0c-0.01,0-0.01,0-0.02,0 c-0.02,0-0.03,0-0.05,0c0,0-0.01,0-0.01,0c0,0,0,0-0.01,0c0,0,0,0,0,0c-0.01,0-0.02-0.01-0.03-0.01 C193.61,53.77,193.6,53.76,193.58,53.75z M194.44,53.27c-0.26,0.1-0.53,0.26-0.67,0.51c-0.01,0-0.02,0-0.03,0.01 c0.01,0,0.01,0,0.02,0c0,0,0,0,0,0c0,0,0,0,0,0c-0.01,0-0.02,0-0.04,0c-0.01,0-0.01,0-0.02,0c-0.01,0-0.02,0-0.03,0c0,0,0,0,0,0 c-0.02,0-0.04,0-0.06,0c0,0,0,0,0,0c0.02,0,0.03,0,0.04,0c-0.01,0-0.02-0.01-0.03-0.01c-0.01,0-0.03-0.01-0.04-0.01c0,0,0,0,0,0 c0,0,0,0,0,0c-0.01-0.01-0.01,0-0.01,0c-0.02-0.01-0.03-0.01-0.05-0.02c0.03,0,0.04,0.01,0.06,0.01c-0.03-0.04-0.07-0.07-0.1-0.1 c0-0.01-0.01-0.01-0.01-0.02c-0.04-0.06-0.08-0.12-0.11-0.19c-0.02-0.04-0.05-0.09-0.07-0.14c-0.01-0.02-0.01-0.04-0.02-0.06 c-0.05-0.14-0.09-0.29-0.12-0.43c-0.08-0.31-0.13-0.63-0.19-0.94c-0.07-0.37-0.16-0.73-0.25-1.09c-0.1-0.4-0.3-0.74-0.49-1.11 c-0.19-0.36-0.8-0.29-0.89,0.12c-0.1,0.47-0.19,0.91-0.18,1.4c0.01,0.46,0.03,0.91,0.06,1.36c0.05,0.81,0.13,1.69,0.6,2.37 c0.52,0.77,1.33,1.18,2.26,1.06c0.43-0.06,0.88-0.21,1.19-0.52c0.41-0.41,0.77-1.18,0.36-1.71C195.36,53.4,194.91,53.1,194.44,53.27 z M193.73,53.79c0.01,0,0.01,0,0.02,0c0,0,0,0-0.01,0C193.74,53.8,193.73,53.79,193.73,53.79z M193.75,53.8 C193.75,53.79,193.75,53.79,193.75,53.8c0.01,0,0.01,0,0.01,0C193.76,53.79,193.76,53.8,193.75,53.8z M193.84,53.74 C193.84,53.74,193.84,53.74,193.84,53.74C193.9,53.7,193.96,53.66,193.84,53.74z M173.6,44.19c0.14,0.12,0.15,0.4,0,0.52 c-0.16,0.13-0.3,0.23-0.5,0.28c-0.16,0.04-0.32,0.06-0.48,0.08c-0.37,0.05-0.73,0.09-1.1,0.12c-0.18,0.01-0.36,0.03-0.53,0.04 c0.05,0.1,0.09,0.19,0.14,0.29c0.15,0.28,0.31,0.55,0.48,0.82c0.08,0.12,0.16,0.24,0.24,0.35c0.14,0.2,0.22,0.42,0.31,0.64 c0.1,0.24,0.02,0.66-0.11,0.88c-0.11,0.16-0.24,0.3-0.41,0.41c-0.45,0.29-1,0.14-1.38-0.18c-0.31-0.26-0.52-0.62-0.73-0.97 c-0.16-0.27-0.32-0.55-0.46-0.83c-0.35-0.71-0.68-1.46-0.76-2.25c-0.03-0.33,0.18-0.66,0.43-0.85c0.28-0.21,0.6-0.28,0.94-0.19 c0.17,0.04,0.34,0.08,0.51,0.12c0.07,0.02,0.15,0.03,0.22,0.05c0.05,0.01,0.07,0.02,0.07,0.02c0.01,0,0.02,0,0.03,0 c0.34,0.04,0.67,0.07,1.01,0.11c0.38,0.04,0.76,0.09,1.14,0.16c0.15,0.03,0.3,0.04,0.44,0.09C173.3,43.96,173.44,44.05,173.6,44.19z M190.07,42.39c-3.83,1.15-8.35,1.06-11.41-1.84c-1.27-1.21-2.11-2.89-2.14-4.66c-0.02-1.76,0.78-3.24,2.14-4.31 c0.3-0.23,0.68,0.13,0.42,0.42c-0.93,1.05-1.11,2.71-0.91,4.06c0.21,1.37,0.98,2.56,2.05,3.43c2.64,2.17,6.25,1.87,9.33,1.01 C190.77,40.17,191.27,42.03,190.07,42.39z M397.99,36.92c-0.88,0.38-1.69,0.62-2.64,0.74c-0.84,0.11-1.69,0.19-2.55,0.21 c-1.66,0.02-3.36-0.26-4.85-1.01c-2.43-1.22-4.18-3.7-3.81-6.49c0.05-0.36,0.6-0.38,0.58,0c-0.16,2.43,2.02,4.48,4.18,5.21 c1.36,0.46,2.84,0.5,4.26,0.41c1.51-0.09,2.96-0.45,4.47-0.37C398.26,35.65,398.67,36.62,397.99,36.92z M393.2,48.9 c-0.03,0.21-0.04,0.43-0.07,0.65c-0.03,0.3-0.07,0.6-0.09,0.9c-0.05,0.75-0.08,1.55-0.01,2.32c0.15,0.01,0.29,0,0.43,0.02 c0.6,0.07,1.26,0.15,1.7,0.61c0.28,0.29,0.35,0.71,0.2,1.08c-0.16,0.39-0.5,0.57-0.9,0.61c-0.44,0.04-0.86-0.18-1.29-0.24 c-0.08-0.01-0.02-0.01-0.15-0.01c-0.1,0-0.2-0.01-0.31-0.01c-0.18,0-0.37,0.02-0.55,0.01c-0.68-0.02-1.1-0.62-0.96-1.26 c0.23-1.09,0.39-2.19,0.64-3.27c0.09-0.39,0.2-0.78,0.32-1.17c0.04-0.15,0.08-0.31,0.12-0.46c0.17-0.54,0.4-1,0.69-1.48 c0.09-0.15,0.34-0.09,0.33,0.09C393.3,47.82,393.28,48.35,393.2,48.9z M402.9,49.43c0.2,0.3,0.43,0.59,0.63,0.88 c0.05,0.07,0.11,0.14,0.16,0.22c0.24,0.38,0.48,0.77,0.71,1.15c0.24,0.38,0.49,0.76,0.72,1.14c0.09,0.15,0.18,0.3,0.27,0.45 c0.2-0.07,0.4-0.15,0.6-0.22c0.44-0.17,0.88-0.34,1.33-0.51c0.53-0.2,1.09,0.23,1.25,0.71c0.18,0.54-0.21,1.08-0.71,1.25 c-0.43,0.15-0.86,0.29-1.29,0.44c-0.43,0.15-0.86,0.33-1.3,0.41c-0.5,0.1-1-0.14-1.15-0.65c-0.13-0.43-0.28-0.85-0.42-1.27 s-0.27-0.85-0.41-1.28c-0.14-0.42-0.28-0.85-0.42-1.27c-0.04-0.13-0.07-0.26-0.1-0.39c-0.07-0.3-0.14-0.61-0.23-0.91 C402.48,49.36,402.79,49.25,402.9,49.43z M284.17,48.62c-0.01,0.04-0.03,0.09-0.05,0.12c-0.32,0.41-0.49,0.78-0.94,1.08 c-0.44,0.29-0.94,0.53-1.41,0.77c-0.97,0.5-1.99,0.92-3.01,1.31c-1.04,0.4-2.09,0.77-3.15,1.1c-0.51,0.16-1.02,0.32-1.53,0.45 c0.25,0.58,0.48,1.17,0.67,1.77c0.43,1.38,0.69,2.82,0.79,4.27c0.03,0.46-0.35,0.91-0.79,1.03c-0.49,0.14-0.92-0.1-1.21-0.49 c0.14,0.19-0.1-0.1-0.13-0.13c-0.02-0.02-0.14-0.12-0.18-0.15c-0.18-0.13-0.36-0.24-0.56-0.34c0,0,0,0,0,0 c-0.05-0.02-0.1-0.04-0.15-0.05c-0.12-0.04-0.23-0.07-0.35-0.1c-0.05-0.01-0.35-0.04-0.24-0.04c-0.08-0.01-0.16-0.01-0.24-0.01 c-0.11,0-0.21,0-0.32,0.01c-0.05,0-0.09,0.01-0.14,0.01c-0.01,0,0,0-0.01,0c-0.21,0.05-0.42,0.1-0.62,0.18 c-0.05,0.03-0.18,0.08-0.21,0.1c-0.11,0.06-0.2,0.13-0.3,0.19c0.24-0.16-0.06,0.06-0.11,0.11c-0.09,0.09-0.17,0.18-0.25,0.27 c-0.38,0.46-1.11,0.41-1.54,0.09c-0.48-0.36-0.57-0.99-0.3-1.51c0.18-0.35,0.36-0.69,0.54-1.04c0,0,0-0.01,0-0.01 c0.38-1.43,0.87-2.83,1.42-4.21c0.25-0.64,0.49-1.4,0.97-1.91c0.46-0.49,1.15-0.65,1.72-0.38c0.85-0.25,1.75-0.38,2.61-0.58 c1.01-0.24,2.01-0.51,3.01-0.82c0.99-0.3,1.97-0.64,2.96-0.96c0.47-0.15,0.94-0.34,1.42-0.47c0.27-0.07,0.51-0.07,0.75-0.06 c0.21,0.01,0.42,0.04,0.65,0.04C284.13,48.25,284.22,48.44,284.17,48.62z M305.98,47.46c0.18,0.16,0.36,0.32,0.54,0.48 c0.34,0.3,0.67,0.59,0.99,0.91c0.44,0.43,0.81,0.92,1.21,1.39c0.83,0.97,1.63,1.95,2.44,2.94c0.83,1.01,1.68,2.02,2.54,3.01 c0.37,0.43,0.76,0.86,1.13,1.29c0.21-0.36,0.44-0.7,0.65-1.05c0.33-0.55,0.67-1.1,1.04-1.63c0.37-0.53,0.74-1.06,1.13-1.57 c0.2-0.27,0.45-0.48,0.68-0.73c0.21-0.23,0.43-0.46,0.65-0.69c0.15-0.15,0.32-0.14,0.45-0.05c0.35,0,0.72,0.21,1.05,0.32 c0.34,0.12,0.68,0.24,1.03,0.31c0.69,0.14,1.38,0.11,2-0.1c1.02-0.34,1.76,1.05,1.03,1.77c-0.87,0.85-1.94,1.54-2.9,2.29 c-0.95,0.74-1.88,1.5-2.81,2.27c-0.46,0.38-0.93,0.77-1.39,1.14c-0.31,0.25-0.6,0.49-0.99,0.6c-0.08,0.02-0.17,0.02-0.26,0.03 c-0.08,0.2-0.2,0.39-0.38,0.54c-0.54,0.43-1.17,0.29-1.67-0.1c-1.09-0.86-1.87-2.08-2.7-3.19c-0.76-1.02-1.51-2.05-2.25-3.09 c-0.76-1.07-1.49-2.16-2.17-3.28c-0.58-0.95-1.02-1.9-1.43-2.91c-0.07-0.17-0.14-0.35-0.21-0.53 C305.22,47.46,305.73,47.24,305.98,47.46z M340.43,16.78c0,0.4-0.23,0.89-0.61,1.06c-0.83,0.37-1.65,0.7-2.54,0.91 c-0.35,0.08-0.7,0.14-1.05,0.21c0.24,1.12,0.45,2.25,0.6,3.39c0.14,1.05-1.3,1.77-2.12,1.22c-0.63-0.43-1.24-0.91-1.79-1.44 c-0.29-0.28-0.55-0.57-0.78-0.9c-0.02-0.03-0.04-0.05-0.06-0.08c-0.16-0.25-0.25-0.49-0.3-0.74c-0.06-0.1-0.11-0.2-0.14-0.31 c-0.04-0.13-0.04-0.26-0.06-0.39c0.01,0.11,0.03,0.21,0.04,0.32c-0.08-0.29-0.08-0.58-0.02-0.88c0.06-0.29,0.21-0.51,0.4-0.73 c0.12-0.15,0.25-0.3,0.38-0.44c0.06-0.07,0.12-0.14,0.18-0.21c0.04-0.05,0.16-0.15,0.18-0.21c-0.06,0.08-0.07,0.09-0.03,0.04 c0.01-0.02,0.03-0.04,0.04-0.06c0.03-0.04,0.06-0.08,0.09-0.11c0.06-0.08,0.12-0.15,0.17-0.23c0.12-0.16,0.25-0.32,0.37-0.48 c0.08-0.1,0.18-0.21,0.29-0.3c0.07-0.14,0.14-0.29,0.21-0.43c0.21-0.41,0.43-0.85,0.79-1.16c0.07-0.1,0.15-0.19,0.22-0.29 c0.07-0.1,0.18-0.15,0.29-0.17c0.12-0.02,0.25,0.01,0.34,0.1c0.03,0,0.06-0.01,0.09-0.01c0.08-0.03,0.16-0.04,0.25-0.04 c0.69,0.05,1.38,0.16,2.05,0.35c0.7,0.2,1.33,0.55,1.93,0.96C340.19,15.97,340.43,16.32,340.43,16.78z"/></g><g id="change5_1"><path fill="#a9eba1" d="M108.87,22.09c0.07,0.38,0.06,0.75-0.09,1.11c-0.04,0.1-0.08,0.19-0.12,0.28c0.08-0.2,0.06-0.16-0.05,0.1 c-0.02,0.05-0.05,0.11-0.08,0.16c-0.06,0.12-0.14,0.24-0.21,0.36c-0.15,0.25-0.31,0.51-0.46,0.76c-0.17,0.28-0.32,0.62-0.58,0.83 c-0.28,0.24-0.66,0.29-0.96,0.06c-0.18-0.14-0.27-0.36-0.28-0.58c0,0-0.01,0-0.01,0.01c0-0.02,0.01-0.04,0.01-0.07 c0-0.04,0.01-0.07,0.02-0.11c0.01-0.06,0.01-0.11,0.03-0.16c0.01-0.08,0.02-0.17,0.03-0.24c0.01-0.07,0.01-0.07,0,0 c0-0.04,0-0.07,0.01-0.11c0-0.05,0.01-0.11,0.01-0.16c0.03-0.3,0.08-0.59,0.17-0.87c0-0.01,0.01-0.02,0.01-0.03 c-0.07-0.04-0.13-0.08-0.2-0.14c-0.41-0.33-0.52-0.93-0.39-1.42c0.13-0.52,0.58-0.99,1.09-1.13 C107.73,20.48,108.71,21.18,108.87,22.09z M205.76,26.21c0.05,0.25,0.05,0.47-0.05,0.72c-0.1,0.23-0.24,0.36-0.44,0.51 c-0.3,0.22-0.71,0.14-1.02,0c-0.26-0.12-0.45-0.42-0.51-0.68c-0.01-0.02-0.01-0.04-0.02-0.07c-0.01-0.02-0.02-0.05-0.04-0.07 c-0.01-0.01-0.01-0.01-0.02-0.02c0,0-0.01-0.01-0.01-0.01c-0.02,0.01-0.05,0.01-0.07,0.02c-0.03,0.02-0.06,0.03-0.09,0.05 c-0.03,0.03-0.06,0.05-0.09,0.08c-0.02,0.02-0.04,0.05-0.07,0.07c-0.1,0.14-0.2,0.3-0.29,0.45c-0.1,0.16-0.2,0.32-0.3,0.47 c-0.1,0.14-0.19,0.25-0.33,0.35c-0.07,0.05-0.14,0.07-0.22,0.08c-0.02,0.02-0.04,0.05-0.07,0.07c-0.25,0.25-0.62-0.07-0.47-0.36 c0-0.01,0.01-0.02,0.01-0.02c-0.02-0.07-0.04-0.15-0.05-0.23c0-0.13,0.03-0.26,0.06-0.39c0.04-0.18,0.06-0.37,0.1-0.55 c0.18-0.87,0.58-1.77,1.53-2c0.66-0.16,1.31,0.06,1.82,0.48c0.19,0.16,0.36,0.36,0.46,0.58C205.66,25.89,205.73,26.04,205.76,26.21z M201.68,27.82C201.68,27.82,201.68,27.82,201.68,27.82C201.68,27.82,201.68,27.82,201.68,27.82 C201.68,27.82,201.68,27.82,201.68,27.82z M413.23,21.47c-0.21-0.03-0.45,0-0.64,0.12c-0.07,0.05-0.14,0.11-0.2,0.16 c-0.12,0.13-0.21,0.27-0.26,0.44c0,0.01-0.01,0.02-0.01,0.04c0.03-0.08,0.07-0.16,0.1-0.24c-0.05,0.12-0.12,0.24-0.15,0.37 c-0.01,0.05-0.02,0.1-0.03,0.15c-0.02,0.11-0.05,0.21-0.07,0.32c-0.01,0.01-0.02,0.02-0.03,0.02c-0.17,0.15-0.31,0.33-0.42,0.53 c-0.11,0.2-0.21,0.42-0.26,0.64c-0.02,0.09-0.04,0.18-0.06,0.26c-0.01,0.04-0.02,0.08-0.03,0.12c-0.01,0.09-0.04,0.19-0.04,0.28 c0,0.1,0.02,0.2,0.04,0.3c0.04,0.16,0.13,0.3,0.24,0.41c0.12,0.12,0.26,0.2,0.41,0.24c0.31,0.09,0.69,0,0.91-0.24 c0.34-0.38,0.64-0.79,0.87-1.24c0.13-0.26,0.24-0.53,0.34-0.8c0.1-0.28,0.19-0.58,0.17-0.88C414.07,21.96,413.74,21.54,413.23,21.47 z M403.1,20.44c0.13,0.1,0.31,0.18,0.48,0.17c0.22-0.01,0.4-0.09,0.56-0.23c0.27-0.24,0.54-0.48,0.82-0.72 c0.13-0.12,0.26-0.23,0.4-0.35c0.14-0.13,0.26-0.27,0.37-0.42c0.14-0.16,0.25-0.36,0.24-0.58c-0.01-0.19-0.06-0.35-0.18-0.5 c-0.1-0.14-0.25-0.25-0.43-0.29c-0.2-0.05-0.46-0.05-0.63,0.08c-0.19,0.15-0.4,0.28-0.56,0.45c-0.13,0.14-0.26,0.27-0.39,0.41 c-0.2,0.21-0.39,0.41-0.59,0.62c-0.04,0.04-0.09,0.09-0.13,0.12c0.02-0.02,0.04-0.03,0.06-0.05c0,0-0.01,0.01-0.01,0.01 c-0.09,0.07-0.17,0.15-0.21,0.25c-0.06,0.09-0.09,0.19-0.09,0.29c-0.02,0.11-0.02,0.21,0.01,0.32 C402.87,20.2,402.96,20.34,403.1,20.44z M331.18,14.08c-0.01-0.06-0.03-0.12-0.04-0.18c-0.07-0.3-0.33-0.54-0.62-0.62 c-0.16-0.04-0.32-0.04-0.47,0c-0.15,0.04-0.28,0.12-0.39,0.23c-0.17,0.13-0.32,0.25-0.41,0.46c-0.09,0.2-0.19,0.4-0.25,0.61 c-0.04,0.13-0.08,0.27-0.12,0.4c-0.06,0.21-0.09,0.42-0.1,0.64c-0.01,0.25,0.12,0.53,0.29,0.7c0.17,0.17,0.45,0.3,0.7,0.29 c0.26-0.01,0.52-0.1,0.7-0.29c0.05-0.07,0.1-0.13,0.16-0.2c0.04-0.06,0.08-0.11,0.12-0.17c0.07-0.11,0.12-0.28,0.17-0.41 c0.05-0.13,0.11-0.26,0.16-0.39c0.05-0.13,0.08-0.26,0.12-0.4c0.05-0.23,0.05-0.37,0.01-0.59 C331.19,14.13,331.19,14.11,331.18,14.08z"/></g></svg>