<?xml version="1.0" encoding="UTF-8" standalone="no"?><svg xmlns="http://www.w3.org/2000/svg" xmlns:xlink="http://www.w3.org/1999/xlink" contentScriptType="text/ecmascript" fill="#000000" width="146.5" zoomAndPan="magnify" contentStyleType="text/css" viewBox="-3.2 -0.9 146.5 140.4" height="140.4" preserveAspectRatio="xMidYMid meet" version="1"><g id="change1_1"><path fill="#ffbd6f" d="M132.0726,81.5544c-7.261,14.6034-17.5388,27.8055-29.8173,38.5304 c-5.8337,5.0955-12.2394,9.9739-19.1507,13.5223c-6.7435,3.4621-15.9695,5.8365-23.046,2.0116 c-0.0001-0.0001-0.0002-0.0001-0.0004-0.0001c-1.5302-0.8378-3.0328-1.7231-4.501-2.6655 C43.8738,125.4539,34.6166,114.818,27.0355,103.3c-3.9423-5.9896-7.4647-12.2469-10.7516-18.6168 c-3.4707-6.7259-6.8025-13.5616-9.7854-20.5186C0.7366,50.7265-3.2067,35.0198,3.5728,21.1591 c2.9409-6.0128,7.9003-10.7253,14.0215-13.4171C23.6186,5.0929,30.37,4.2988,36.8904,4.9409 c15.1128,1.4882,27.9843,10.6282,39.8003,19.4734c1.0255-1.7252,2.0839-3.4304,3.218-5.0867 c4.7421-6.9259,10.6706-12.8792,18.5399-16.093c6.7832-2.7703,14.666-4.1566,21.9042-2.558 c7.5667,1.6712,13.3615,7.5667,17.2418,14.0405c1.8645,3.1107,2.7465,6.748,3.5042,10.2648 c0.8004,3.7147,1.2833,7.4994,1.4681,11.2944C143.3306,51.9624,139.0151,67.5915,132.0726,81.5544z"/></g></svg>