<?xml version="1.0" encoding="UTF-8" standalone="no"?><svg xmlns="http://www.w3.org/2000/svg" xmlns:xlink="http://www.w3.org/1999/xlink" contentScriptType="text/ecmascript" fill="#000000" width="517.8" zoomAndPan="magnify" contentStyleType="text/css" viewBox="-13.1 -7.6 517.8 517.9" height="517.9" preserveAspectRatio="xMidYMid meet" version="1"><g id="change1_1"><path fill="#fdf5b6" d="M353,154.3c9,0,18,0,27,0 M380,154.3c25.9,0,51.7,0,77.6,0c27.2,0.1,47.1,35.3,23.8,53 c-33.9,25.7-67.8,51.4-101.7,77.1C401.8,340.9,425,397.5,442,455c4,13.5-1.3,24.3-10.4,30.9c-9.4,9-23.9,12.8-38.9,4.1 c0,0-0.1,0-0.1-0.1c-1.7-0.8-3.4-1.9-4.9-3c-29.5-18-55.9-41.3-83.4-61.8c-18.6-13.8-37.1-27.5-55.7-41.3 c-47.8,36.3-95.7,72.5-143.5,108.8c-23.4,17.7-68.4,1.9-56.2-30.2c22.5-58.9,44.9-117.8,67.4-176.7C81,259.5,45.7,233.4,10.5,207.2 c-23.6-17.5-3.1-52.9,23.8-52.9c44.1,0,88.1,0,132.2,0C183.2,110.2,200,66.1,216.8,22c11.2-29.2,53.8-29.6,64.8,0 c16.4,44.1,32.8,88.2,49.2,132.3c7.4,0,14.8,0,22.2,0"/></g><g id="change2_1"><path fill="#272626" d="M210.2,185.5c-15.7,0-15.7-24.4,0-24.4C226,161.1,226,185.5,210.2,185.5z M286.6,161.1 c-15.7,0-15.7,24.4,0,24.4C302.3,185.5,302.4,161.1,286.6,161.1z M300.5,267.8c-25.1,26.4-73.7,47.8-97.8,7.2 c-8-13.5-29.1-1.2-21.1,12.3c32.2,54.3,99.6,36.2,136.2-2.3C328.6,273.7,311.3,256.4,300.5,267.8z"/></g><g id="change3_1"><path fill="#ffd7e5" d="M189.4,233.4c-11.9,6.9-39.9,13.2-44.8-5.7c-5.3-20.2,24.7-25.5,38.2-21.8c4.4,1.2,7,4.1,8,7.4 C197.5,218.1,196.3,229.3,189.4,233.4z M359.5,211.6c-2.3-10.5-12.9-14-23-14.5c-1.3-0.5-2.6-0.8-4.2-0.8c-12.6-0.3-26,5.5-26.5,20 c-0.2,7,4.3,13.3,10.6,16c5.8,2.5,12.3,2,18.4,1.6c5.8-0.4,11.7-0.8,16.8-4C357.5,226.1,361,218.6,359.5,211.6z"/></g><g id="change4_1"><path fill="#fffefe" d="M153.7,389.6c5.8-2.8,10.9,5.9,5.1,8.7c-3.2,1.5-6.3,3.3-9.1,5.6c-2.1,1.7-5.1,2.1-7.1,0 c-1.8-1.8-2.1-5.4,0-7.1C146.1,393.9,149.7,391.5,153.7,389.6L153.7,389.6z M187.1,384.5c-4.2,3.1-8.4,6.3-12.6,9.4 c-2.2,1.6-3.3,4.3-1.8,6.9c1.2,2.2,4.7,3.4,6.9,1.8c4.2-3.1,8.4-6.3,12.6-9.4c2.2-1.6,3.3-4.3,1.8-6.9 C192.8,384.2,189.3,382.9,187.1,384.5L187.1,384.5z M150.6,411.1c-4.4,3.1-8.6,6.4-12.5,10.1c-4.7,4.5,2.4,11.6,7.1,7.1 c3.3-3.1,6.7-6,10.4-8.6C161,416.2,156,407.4,150.6,411.1L150.6,411.1z M422.8,190.5c-1.9,2.1-3.9,4.1-5.8,6.2 c-4.5,4.7,2.6,11.8,7.1,7.1c1.9-2.1,3.9-4.1,5.8-6.2C434.4,192.9,427.3,185.8,422.8,190.5L422.8,190.5z M447.9,184 c-2.7,2.5-5.4,5.1-8.2,7.6c-4.8,4.4,2.4,11.6,7.1,7.1c2.7-2.5,5.4-5.1,8.2-7.6C459.8,186.7,452.6,179.6,447.9,184L447.9,184z M421.5,213.9c-2.8,2.3-5.6,4.5-8.3,6.8c-2.1,1.7-1.8,5.3,0,7.1c2.1,2.1,5,1.7,7.1,0c2.8-2.3,5.6-4.5,8.3-6.8c2.1-1.7,1.8-5.3,0-7.1 C426.6,211.7,423.6,212.1,421.5,213.9L421.5,213.9z M240.9,25.7c-1.8,2.4-3.6,4.8-5.4,7.1c-1.7,2.2-0.3,5.6,1.8,6.9 c2.6,1.5,5.3,0.3,6.9-1.8c1.8-2.4,3.6-4.8,5.4-7.1c1.7-2.2,0.3-5.6-1.8-6.9C245.2,22.4,242.6,23.6,240.9,25.7L240.9,25.7z M249,47.9 c-2.8,2.1-5.1,4.4-6.9,7.4c-3.4,5.5,5.3,10.6,8.7,5.1c0.9-1.4,2-2.8,3.3-3.8c2.2-1.7,3.3-4.3,1.8-6.9 C254.7,47.6,251.2,46.3,249,47.9L249,47.9z M223.9,56.7c-0.6,0.8-1.3,1.7-1.9,2.5c-1.7,2.2-0.3,5.6,1.8,6.9c2.6,1.5,5.3,0.3,6.9-1.8 c0.6-0.8,1.3-1.7,1.9-2.5c1.7-2.2,0.3-5.6-1.8-6.9C228.3,53.3,225.6,54.5,223.9,56.7L223.9,56.7z"/></g></svg>