<?xml version="1.0" encoding="UTF-8" standalone="no"?><svg xmlns="http://www.w3.org/2000/svg" xmlns:xlink="http://www.w3.org/1999/xlink" contentScriptType="text/ecmascript" fill="#000000" width="199.3" zoomAndPan="magnify" contentStyleType="text/css" viewBox="-1.2 -0.1 199.3 281.4" height="281.4" preserveAspectRatio="xMidYMid meet" version="1"><g id="change1_1"><path fill="#fff9ed" d="M196.2016,146.3986c-2.8343,11.4826-9.9961,20.974-19.9316,27.297 c-10.4448,6.6471-22.8074,9.8549-34.9293,11.7077c-13.0853,2.0001-26.3597,2.4388-39.5786,2.4531 c-0.0001,0-0.0002,0.0001-0.0003,0.0001c-8.6832,0.0005-17.3707-0.3905-26.0034-1.3451 c-14.7089-1.6265-29.5218-4.7675-42.9693-11.1136c-10.3544-4.8864-20.0221-11.9534-26.1235-21.8092 c-5.9967-9.6866-7.8234-21.4535-5.9769-32.6278c1.0474-6.3386,3.5657-12.4583,7.981-17.1989 c3.6552-3.9246,8.391-6.6548,13.4528-8.3387c4.6612-1.5506,9.5934-2.2486,14.4929-2.4002c2.0433-0.0633,4.0897-0.0284,6.1301,0.0965 c0.4392,0.0269,1.7511,0.1113,0.8414-0.4616c-0.5221-0.3288-1.1512-0.5463-1.7045-0.823c-1.346-0.6732-2.6698-1.3916-3.9657-2.1569 C31.9598,86.16,26.38,81.5786,22.7224,75.6301c-3.1509-5.1244-5.0757-11.6374-3.2153-17.552 c1.4996-4.7674,4.8308-8.7702,8.3246-12.2348c3.9586-3.9254,8.3842-7.3362,12.6951-10.8574 c3.4186-2.7924,7.2367-5.6993,9.6392-9.4709c0.8331-1.3079,1.506-2.8189,1.3753-4.4046c-0.1803-2.1867-1.8701-3.7516-3.3759-5.1602 c-3.2649-3.054-7.0808-5.4897-11.1761-7.2722c-1.7043-0.7418-3.4619-1.3647-5.2474-1.8808 c-1.1323-0.3273-3.2515-0.3745-3.8647-1.5531c-1.2517-2.4059,2.1723-2.6247,3.6299-2.8197c1.7434-0.2332,3.489-0.4492,5.2366-0.6482 c9.6235-1.0957,19.3082-1.7071,28.9942-1.7707c11.8968-0.0781,23.8354,0.6676,35.5658,2.7073 c11.8891,2.0673,23.6982,5.5037,34.3332,11.3011c10.2945,5.6118,19.274,13.5863,25.1972,23.7793 c3.5955,6.1873,6.7371,13.4498,5.9977,20.751c-0.5907,5.833-3.743,10.8734-8.2954,14.4695 c-0.9175,0.7248-1.8764,1.3959-2.873,2.0075c-0.4633,0.2843-1.0001,0.5108-1.4379,0.8293 c-0.4046,0.2943-0.7946,0.6172-0.1523,0.9894c0.1231,0.0714,0.351,0.0354,0.4948,0.0671c1.4427,0.3186,2.9241,0.4729,4.3698,0.7998 c3.78,0.8547,7.4695,2.1135,10.9761,3.7649c9.6413,4.5404,17.4088,12.2375,22.002,21.8626 c3.1475,6.5957,4.8262,13.7855,5.5257,21.0376C198.1493,131.7082,197.9743,139.2168,196.2016,146.3986z"/></g><g id="change2_1"><path fill="#bae6ff" d="M138.8556,98.7189c-0.2864,2.2029-2.2908,3.6161-4.4408,3.5147c-1.0047-0.0474-2.0098-0.1483-3.0128-0.2223 c-2.6671-0.1968-5.3343-0.3936-8.0015-0.5905c-2.5255-0.2672-4.673-2.4026-4.331-5.0544c0.2897-2.2458,2.3251-3.6263,4.5003-3.5195 c2.948,0.1447,5.8941,0.3553,8.8403,0.5329c1.0388,0.0626,2.2193,0.0141,3.2193,0.3379 C137.7308,94.3982,139.1423,96.5129,138.8556,98.7189z M30.2526,119.8855c-2.1152-2.04-4.2304-4.0801-6.3456-6.1201 c-1.4651-1.4131-3.6266-1.9865-5.4203-0.7675c-2.3698,1.6106-2.3746,5.0127-0.4811,6.9834c1.8309,1.814,3.6619,3.628,5.4928,5.442 c0.7732,0.7661,1.5348,1.5465,2.3209,2.2994c1.442,1.3811,3.6458,1.7853,5.342,0.5889c1.9638-1.385,2.4404-4.207,1.1756-6.2193 C31.8064,121.2484,30.9638,120.5714,30.2526,119.8855z"/></g><g id="change3_1"><path fill="#fd87b1" d="M70.4205,51.259c0.6556,2.2674-0.54,4.8142-2.7741,5.6456c-1.9999,0.7442-4.1116-0.2721-5.0929-2.0876 c-0.4958-0.9174-0.9525-1.8583-1.4281-2.7863c-1.2005-2.342-2.4009-4.6841-3.6014-7.0261 c-1.1189-2.3437-0.3107-5.3797,2.2271-6.3858c2.076-0.8231,4.2042,0.2531,5.2174,2.1311c1.3853,2.5675,2.7314,5.1569,4.0969,7.735 C69.5337,49.369,70.1403,50.2901,70.4205,51.259z M89.2353,158.5242c-1.4581-2.4911-4.8508-2.6519-6.9415-0.9177 c-1.9225,1.6762-3.845,3.3524-5.7676,5.0286c-0.835,0.728-1.6819,1.4446-2.5061,2.185c-1.4524,1.3047-1.9896,3.3929-1.0272,5.1566 c1.1857,2.1729,4.06,2.8423,6.1934,1.7324c0.8845-0.4602,1.6405-1.2839,2.3767-1.9434c2.1888-1.9608,4.3777-3.9216,6.5665-5.8824 C89.651,162.5204,90.3262,160.3879,89.2353,158.5242z"/></g><g id="change4_1"><path fill="#d1b491" d="M141.3407,185.4033c8.0569-1.2314,16.217-3.069,23.8528-6.1097c-0.0485,0.4482-0.0986,0.8934-0.1259,1.3197 c-0.1601,2.5046-0.3203,5.0092-0.4804,7.5138c-0.4832,7.5576-0.9664,15.1153-1.4496,22.673 c-0.5584,8.734-1.1168,17.468-1.6752,26.202c-0.4614,7.2161-0.9228,14.4322-1.3841,21.6483 c-0.1921,3.0041-0.3841,6.0082-0.5762,9.0124c-0.013,0.2035-0.1056,0.4498-0.3095,0.5397 c-0.4779,0.2106-0.9609,0.4102-1.4439,0.6088c-9.0552,3.7233-18.528,6.57-28.0924,8.6339 c-7.069,1.5255-14.2571,2.5905-21.4834,2.9551c-7.6819,0.3875-15.4034-0.1801-23.0372-1.0409 c-9.9764-1.125-20.1497-2.9018-29.4305-6.8766c-3.9155-1.6769-8.0162-3.8291-10.8824-7.071 c-1.0247-1.159-1.3376-1.8471-1.4841-3.3333c-0.452-4.5863-0.904-9.1725-1.356-13.7588c-0.7675-7.7874-1.535-15.5749-2.3026-23.3624 c-0.8389-8.5117-1.6777-17.0235-2.5166-25.5352c-0.6775-6.8744-1.355-13.7488-2.0325-20.6231 c-0.0804-0.8155-0.1608-1.6311-0.2411-2.4466c12.8818,5.7073,26.9208,8.6167,40.8684,10.159 c8.6327,0.9546,17.3202,1.3456,26.0034,1.3451c0.0001,0,0.0002-0.0001,0.0003-0.0001 C114.981,187.8421,128.2554,187.4034,141.3407,185.4033z M116.7441,21.41c1.0259-0.4118,1.9411-1.2,2.8369-1.8311 c2.5753-1.8144,5.1616-3.6141,7.7263-5.4434c1.8514-1.3206,2.8083-3.5963,1.7418-5.7534c-1.2984-2.6259-4.759-3.2148-7.1093-1.6951 c-2.3404,1.6023-4.6809,3.2045-7.0213,4.8068c-0.9421,0.645-1.8949,1.2768-2.8274,1.9355 c-1.7993,1.2711-2.6525,3.5396-1.6798,5.6071C111.507,21.3656,114.4002,22.3509,116.7441,21.41z M176.3966,126.3637 c-2.2193-1.5952-5.2908-0.5663-6.5848,1.6896c-1.237,2.311-2.474,4.6221-3.711,6.9331c-0.4969,0.9283-1.0149,1.8484-1.4918,2.787 c-0.9238,1.8182-0.6493,4.0639,1.0399,5.3404c1.8549,1.4017,4.5926,1.0695,6.1461-0.6283c0.7173-0.7839,1.1479-1.8469,1.6318-2.781 c1.3505-2.6067,2.719-5.205,4.0519-7.8208C178.4492,129.9794,178.223,127.6766,176.3966,126.3637z"/></g><g id="change5_1"><path fill="#fff9ed" d="M158.2187,181.714c-1.0989,1.1589-2.1979,2.3177-3.2968,3.4766c-2.7049,2.8524-5.4098,5.7047-8.1147,8.5571 c-2.5341-2.683-5.0682-5.3662-7.6024-8.0493c-2.884,0.4036-5.7754,0.7427-8.6738,1.0131c3.379,3.4733,6.7581,6.9467,10.1371,10.4199 c0.4946,0.5084,0.9893,1.0168,1.4839,1.5253c-3.3661,3.5497-6.7324,7.0994-10.0986,10.649c-3.04,3.2057-6.08,6.4114-9.1201,9.6172 c-3.0602-3.2452-6.1203-6.4904-9.1805-9.7356c-2.5662-2.7213-5.1323-5.4426-7.6985-8.164c1.41-1.4977,2.8199-2.9954,4.2299-4.493 c2.0219-2.1477,4.0438-4.2953,6.0657-6.443c0.808-0.8583,1.6865-1.6931,2.47-2.5856c-2.9967,0.1335-5.9954,0.2238-8.9943,0.2767 c-2.7326,2.8502-5.4652,5.7004-8.1978,8.5506c-2.7071-2.8707-5.4141-5.7415-8.1212-8.6122 c-3.3271-0.1016-6.6516-0.267-9.9711-0.5093c1.635,1.7051,3.2701,3.4103,4.9052,5.1155c2.8382,2.9599,5.6765,5.9198,8.5146,8.8797 c-1.2579,1.312-2.5158,2.6241-3.7737,3.9361c-4.3572,4.5447-8.7145,9.0895-13.0718,13.6342 c-2.5117-2.6014-5.0233-5.2029-7.535-7.8043c-4.4506-4.6098-8.9013-9.2195-13.352-13.8293c2.1114-2.1667,4.2229-4.3334,6.3343-6.5 c1.249-1.2816,2.4979-2.5633,3.7468-3.8448c0.1243-0.0666,0.2065-0.1774,0.2426-0.3142c0.1423-0.3218-0.0505-0.6633-0.335-0.803 c-0.5914-0.085-1.183-0.1683-1.7739-0.2591c-1.2535-0.1528-2.507-0.3057-3.7606-0.4586c-0.907-0.1106-2.447-0.6601-3.2136-0.0291 c-0.7487,0.6163-1.3865,1.468-2.0511,2.1716c-1.3203,1.3977-2.6403,2.7955-3.9605,4.1932c-0.1436,0.152-0.2886,0.3029-0.4323,0.4548 c-2.1299-2.206-4.2598-4.412-6.3896-6.618c-1.934-2.0032-3.868-4.0063-5.8022-6.0096c-2.3997-0.862-4.7688-1.8059-7.0995-2.8436 c0.2231,1.7406,0.4462,3.4811,0.6693,5.2217c0.0022,0.0172,0.0118,0.0287,0.0151,0.0451c0.0046,0.1349,0.0478,0.2728,0.1678,0.397 c3.3952,3.5154,6.7905,7.0307,10.1857,10.5461c1.2681,1.313,2.5363,2.626,3.8044,3.939 c-3.8878,4.0712-7.7826,8.1386-11.5765,12.2924c-0.7429,0.8133-0.4851,2.2303-0.5294,3.2709 c-0.0881,2.07-0.1763,4.1399-0.2643,6.2099c-0.0233,0.5444,0.6982,0.8204,1.0669,0.4419c0.0126-0.0129,0.0252-0.0259,0.0378-0.0388 c0.4307,2.2167,0.8613,4.4333,1.2921,6.6499c0.035,0.1802,0.1287,0.2952,0.2448,0.3662c5.532,5.9477,11.064,11.8954,16.5959,17.8431 c-1.6719,1.7439-3.3439,3.4878-5.0159,5.2317c-2.1243,2.2157-4.2487,4.4315-6.373,6.6472 c-1.0052,1.0483-2.1198,2.0562-3.0457,3.1767c-0.0393,0.0476-0.0867,0.0904-0.1295,0.1351 c-0.2043,0.2131-0.2231,0.5016-0.0977,0.7574c0.9366,1.9113,1.8731,3.8226,2.8097,5.7339c0.1754,0.3579,0.7204,0.404,0.9816,0.1265 c2.4421-2.5939,4.8841-5.1879,7.3262-7.7818c2.7819-2.9548,5.5637-5.9097,8.3455-8.8646 c5.5337,5.9496,11.0674,11.899,16.6011,17.8486c-1.8199,1.9192-3.64,3.8384-5.4599,5.7576 c-1.2449,1.3127-2.6007,2.5778-3.7616,3.9666c-0.0499,0.0597-0.108,0.1139-0.1615,0.1703 c-0.3688,0.3889-0.1097,1.0665,0.4419,1.0669c1.0411,0.0008,2.0821,0.0015,3.1232,0.0023c1.2702,0.0009,2.6784,0.1761,3.9379,0.0029 c0.5576-0.0767,0.7077-0.285,1.0737-0.6684c1.5343-1.6073,3.0686-3.2146,4.6029-4.8218c0.219-0.2294,0.438-0.4589,0.657-0.6882 c1.8974,2.04,3.7948,4.0801,5.6923,6.1201c0.8424,0.9057,1.6784,2.1142,2.6675,2.8679c0.6522,0.497,1.844,0.2327,2.6213,0.2238 c1.6779-0.0194,3.3557-0.0387,5.0333-0.0581c0.5548-0.0064,0.807-0.6722,0.4419-1.067c-1.9977-2.1602-3.9954-4.3203-5.9932-6.4805 c-1.9677-2.1277-3.9354-4.2554-5.903-6.3831c4.9575-5.1933,9.915-10.3866,14.8725-15.5798c0.0763-0.08,0.1526-0.1599,0.2289-0.2398 c5.2521,5.438,10.5044,10.876,15.7565,16.314c-1.7379,1.8266-3.4758,3.6531-5.2137,5.4797 c-2.3475,2.4673-4.6951,4.9346-7.0426,7.402c-0.3728,0.3918-0.1068,1.0606,0.4419,1.0669c1.399,0.0161,2.798,0.0323,4.197,0.0485 c0.8993,0.0104,2.6124,0.383,3.3979-0.1498c0.6275-0.4257,1.1674-1.2342,1.6844-1.7808c2.3403-2.4741,4.6805-4.9481,7.0208-7.4221 c1.4794,1.5317,2.9587,3.0634,4.4382,4.5952c0.4382,0.4537,0.8568,0.9581,1.3294,1.3764c0.835,0.7392,2.6427,0.0168,3.6313-0.1427 c1.1201-0.1808,2.2403-0.3615,3.3604-0.5423c0.4849-0.0782,0.5733-0.7364,0.2758-1.0446c-2.8704-2.973-5.7407-5.9459-8.6111-8.9189 c5.5247-5.8405,11.0494-11.6811,16.5741-17.5216c1.9753,2.06,3.9506,4.1201,5.9259,6.1801 c2.1411,2.2328,4.2821,4.4657,6.4232,6.6986c1.0057,1.0489,1.9655,2.2275,3.0575,3.1886c0.0489,0.0431,0.0917,0.0957,0.1369,0.1428 c0.3096,0.3229,0.9526,0.1885,1.0446-0.2758c0.1971-0.994,0.3941-1.988,0.5912-2.9819c0.1654-0.8344,0.6681-2.0455,0.5649-2.9031 c-0.0488-0.4055-0.4214-0.6947-0.6893-0.9787c-1.436-1.5229-2.8721-3.0457-4.3081-4.5686 c-2.8298-3.0009-5.6597-6.0018-8.4894-9.0027c2.8243-2.9858,5.6486-5.9715,8.4728-8.9573c2.4557-2.5961,4.9115-5.1923,7.3672-7.7885 c0.0096-0.0101,0.0112-0.0215,0.0199-0.0319c0.0506-0.0526,0.0909-0.1147,0.1183-0.1895c0.0067-0.018,0.0062-0.0357,0.0109-0.0538 c0.0143-0.0535,0.0339-0.1033,0.0339-0.1669c0-2.4312,0-4.8624,0-7.2935c0-0.5312-0.6899-0.8382-1.0669-0.442 c-6.4384,6.7668-12.8767,13.5338-19.3151,20.3007c-1.7806-1.8883-3.5613-3.7767-5.342-5.665 c-3.3951-3.6004-6.7902-7.2007-10.1853-10.8011c0.2715-0.2844,0.543-0.5688,0.8145-0.8533 c6.1804-6.4743,12.3607-12.9486,18.5411-19.4229c3.8051,3.9112,7.61,7.8224,11.4151,11.7336 c1.3594,1.3974,2.7189,2.7947,4.0783,4.1921c0.3659,0.3762,1.0932,0.1042,1.0669-0.4419c-0.0912-1.8984-0.1824-3.7968-0.2736-5.6952 c-0.0458-0.953,0.1337-2.0231-0.5045-2.7691c-2.0196-2.3606-4.2929-4.5453-6.4254-6.8032 c-1.5854-1.6786-3.1708-3.3572-4.7562-5.0358c0.2664-0.279,0.5327-0.558,0.799-0.837c2.6797-2.8072,5.3595-5.6144,8.0393-8.4216 c1.2823-1.3434,2.6747-2.6378,3.8734-4.0576c0.0522-0.062,0.1128-0.1182,0.1688-0.1769c0.1141-0.1196,0.1558-0.2515,0.1639-0.3812 c0.0044-0.0218,0.0166-0.0377,0.0191-0.0609c0.1974-1.8353,0.395-3.6706,0.5925-5.5059 C162.8997,180.2065,160.5748,181.0063,158.2187,181.714z M61.0829,238.6186c-0.0077-0.0083-0.0154-0.0166-0.0231-0.0249 c-4.9917-5.3976-9.9834-10.7953-14.9751-16.1929c-1.6568-1.7915-3.3136-3.5831-4.9704-5.3746 c-0.2025-0.2189-0.4029-0.4502-0.6039-0.6851c2.7578-2.8299,5.5155-5.6598,8.2734-8.4897c1.9788-2.0306,3.9576-4.0612,5.9364-6.0917 c4.9799,5.1561,9.9598,10.3122,14.9398,15.4683c1.9958,2.0664,3.9916,4.1329,5.9875,6.1993 c-1.6078,1.6769-3.2156,3.3539-4.8233,5.0308C67.5771,231.8449,64.33,235.2317,61.0829,238.6186z M82.3983,261.6675 c-1.316-1.423-2.6319-2.8459-3.9479-4.2689c-4.2073-4.5494-8.4145-9.0988-12.6216-13.6481 c1.5544-1.6511,3.1089-3.3022,4.6633-4.9534c3.2907-3.4954,6.5814-6.9908,9.8722-10.4861 c5.6624,5.8627,11.3248,11.7255,16.9872,17.5882C92.3672,251.1553,87.3826,256.4113,82.3983,261.6675z M101.7855,241.2235 c-0.116-0.1202-0.2321-0.2404-0.3481-0.3605c-5.5508-5.7492-11.1016-11.4984-16.6524-17.2476 c2.3359-2.4812,4.6719-4.9625,7.0078-7.4437c3.2228-3.4232,6.4457-6.8465,9.6685-10.2698c1.8883,1.9693,3.7766,3.9385,5.6649,5.9078 c3.7796,3.9417,7.5593,7.8834,11.3389,11.8251c-4.7451,5.0037-9.4902,10.0075-14.2353,15.0112 C103.415,239.5052,102.6003,240.3643,101.7855,241.2235z M129.6489,235.2981c3.0461,3.1768,6.0923,6.3536,9.1385,9.5305 c-5.546,5.829-11.092,11.6579-16.6379,17.4869c-5.2488-5.4364-10.4976-10.8728-15.7464-16.3092 c5.5731-5.8381,11.1462-11.6763,16.7192-17.5145C125.2979,230.7605,127.4734,233.0293,129.6489,235.2981z"/></g></svg>