<?xml version="1.0" encoding="UTF-8" standalone="no"?><svg xmlns="http://www.w3.org/2000/svg" xmlns:xlink="http://www.w3.org/1999/xlink" contentScriptType="text/ecmascript" fill="#000000" width="500" zoomAndPan="magnify" contentStyleType="text/css" viewBox="0.0 -2.7 500.0 442.7" height="442.7" preserveAspectRatio="xMidYMid meet" version="1"><defs><clipPath id="a"><path d="M 2 1 L 500 1 L 500 439.949219 L 2 439.949219 Z M 2 1"/></clipPath></defs><g><g id="change1_1" clip-path="url(#a)"><path fill="#e6afbc" d="M 230.539062 160.414062 C 229.894531 160.375 229.273438 160.347656 228.675781 160.347656 C 227.066406 160.347656 226.0625 160.582031 225.320312 161.136719 C 224.972656 161.390625 224.640625 161.664062 224.320312 161.945312 L 223.84375 162.371094 L 223.210938 162.441406 C 218.066406 163.011719 210.859375 164.730469 204.261719 169.472656 L 182.21875 169.472656 C 175.558594 160.445312 167.933594 150.78125 158.925781 139.972656 L 157.949219 138.804688 L 158.816406 137.554688 C 160.390625 135.273438 161.070312 131.363281 160.679688 126.824219 L 160.53125 125.085938 L 214.261719 113.054688 L 213.855469 115.921875 C 213.449219 118.753906 213.523438 121.898438 214.078125 125.769531 C 214.179688 126.398438 214.285156 127.003906 214.390625 127.609375 L 214.460938 128.011719 C 216.265625 137.660156 220.179688 145.429688 226.429688 151.765625 C 228.117188 153.480469 229.976562 155.203125 231.953125 156.898438 L 236.464844 160.757812 Z M 500 209.914062 L 454.644531 169.464844 L 372.199219 169.46875 C 362.742188 160.335938 350.402344 159.09375 346.273438 158.957031 L 346.066406 160.417969 L 343.5625 159.121094 C 342.402344 158.523438 341.207031 158.230469 339.898438 158.230469 C 339.335938 158.230469 338.742188 158.289062 338.140625 158.398438 L 331.96875 159.535156 L 335.992188 155.136719 C 340.230469 150.503906 343.867188 145.167969 346.828125 139.222656 L 347.171875 138.53125 L 347.667969 138.234375 C 351.414062 135.980469 354.835938 133.363281 357.824219 130.449219 L 358.09375 130.1875 L 358.4375 130.039062 C 363.34375 127.953125 366.789062 123.371094 367.4375 118.078125 L 367.484375 117.707031 L 367.660156 117.375 C 383.566406 87.839844 372.460938 44.273438 358.140625 28.417969 C 348.953125 18.3125 331.558594 9.449219 312.742188 5.285156 C 303.027344 3.132812 292.320312 1.996094 281.773438 1.996094 C 264.410156 1.996094 247.746094 5.070312 236.054688 10.429688 C 220.011719 17.78125 209.859375 31.085938 207.460938 47.863281 C 206.175781 57.878906 210.386719 59.15625 211.769531 59.574219 L 213.222656 60.015625 L 213.1875 61.535156 C 213.15625 62.769531 213.121094 63.898438 213.070312 64.824219 C 212.847656 72.082031 213.386719 79.378906 214.632812 85.925781 L 215.109375 88.441406 L 18.0625 77.265625 L 15.730469 77.140625 L 15.402344 77.378906 L 14.511719 77.179688 C 14.269531 77.121094 14.074219 77.097656 13.910156 77.097656 C 8.289062 77.097656 2 94.328125 2 117.394531 C 2 140.457031 8.289062 157.691406 13.910156 157.691406 C 14.109375 157.691406 14.332031 157.660156 14.589844 157.59375 L 15.328125 157.402344 L 15.457031 157.472656 C 16.523438 157.289062 18.445312 156.890625 18.449219 156.890625 L 125.472656 132.929688 L 125.898438 134.898438 C 126.839844 139.210938 130.207031 144.191406 132.9375 146.992188 C 133.597656 147.667969 134.828125 148.925781 135.613281 149.242188 L 136.746094 149.695312 L 136.859375 150.914062 C 136.875 151.050781 138.226562 164.835938 145.339844 189.375 L 129.355469 205.988281 L 109.929688 286.472656 L 130 286.472656 L 130 439.949219 L 420 439.949219 L 455 404.949219 L 455 404.0625 L 454.996094 404.054688 L 454.5 235.152344 L 476.035156 253.378906 L 500 209.914062"/></g><g id="change2_1"><path fill="#fabca4" d="M 200.410156 169.949219 C 197.394531 172.574219 194.585938 175.917969 192.265625 180.136719 C 189.929688 176.714844 187.511719 173.304688 185.058594 169.949219 C 176.503906 158.25 167.570312 147.226562 160.460938 138.691406 C 162.5625 135.648438 163.046875 130.996094 162.671875 126.652344 C 162.167969 120.824219 164.015625 105.15625 152.046875 109.058594 C 149.558594 109.867188 123.945312 135.320312 123.945312 135.320312 C 124.925781 139.828125 128.289062 145.089844 131.507812 148.386719 C 132.691406 149.601562 133.804688 150.671875 134.871094 151.097656 L 134.867188 151.097656 C 134.867188 151.097656 136.195312 165.398438 143.84375 191.390625 C 145.167969 195.894531 146.6875 200.757812 148.417969 205.949219 L 213.527344 205.949219 L 222.988281 160.453125 C 222.988281 160.453125 217.359375 161.285156 213.917969 162.40625 C 209.566406 163.828125 204.777344 166.152344 200.410156 169.949219"/></g><g id="change2_2"><path fill="#fabca4" d="M 413.867188 205.949219 C 413.667969 202.609375 412.878906 199.546875 411.257812 197.707031 C 411.207031 197.648438 411.15625 197.640625 411.101562 197.640625 C 409.601562 195.84375 406.695312 195.019531 404.125 195.746094 C 401.871094 192.703125 397.476562 192.105469 394.046875 193.746094 C 393.851562 193.839844 393.738281 193.976562 393.671875 194.125 C 391.164062 192.792969 387.902344 192.777344 385.753906 194.761719 C 385.46875 194.628906 384.980469 194.464844 384.507812 194.320312 C 385.003906 191.382812 384.820312 188.246094 383.765625 184.90625 C 381.773438 178.605469 378.851562 173.734375 375.488281 169.949219 C 363.046875 155.949219 344.535156 156.960938 344.535156 156.960938 L 343.421875 156.960938 L 359.203125 205.949219 L 378.839844 205.949219 C 379.539062 207.457031 380.515625 208.808594 381.792969 210.046875 C 382.957031 211.175781 385.074219 210.808594 385.371094 208.652344 C 385.453125 208.039062 385.410156 207.046875 385.308594 205.949219 L 385.425781 205.949219 C 386.324219 208.320312 387.929688 210.277344 390.671875 210.050781 C 391.921875 209.949219 392.496094 209.632812 393.378906 207.828125 C 393.558594 207.464844 393.578125 206.785156 393.507812 205.949219 L 393.59375 205.949219 C 394.285156 206.90625 394.949219 207.9375 396.113281 208.359375 C 397.808594 208.96875 399.65625 208.851562 400.539062 207.105469 C 400.679688 206.828125 400.789062 206.433594 400.878906 205.949219 L 401.714844 205.949219 C 401.980469 206.398438 402.28125 206.835938 402.515625 207.214844 C 403.046875 208.070312 404.257812 209.097656 405.3125 209.195312 C 406.652344 209.324219 407.589844 208.242188 407.753906 206.960938 C 407.796875 206.625 407.796875 206.289062 407.78125 205.949219 L 413.867188 205.949219"/></g><g id="change2_3"><path fill="#fabca4" d="M 348.699219 139.949219 C 349.777344 137.765625 357.179688 132.75 359.222656 131.882812 C 364.691406 129.554688 368.675781 124.4375 369.421875 118.324219 C 369.503906 117.640625 369.5625 116.949219 369.5625 116.246094 C 369.5625 108.707031 366.019531 96.351562 359.222656 94.128906 C 359.222656 94.101562 359.222656 94.074219 359.222656 94.046875 C 352.226562 97.351562 343.957031 91.9375 339.59375 84.082031 C 337.03125 79.710938 335.339844 74.941406 333.726562 70.191406 C 333.003906 72.734375 331.648438 74.921875 329.414062 76.492188 C 320.402344 82.429688 311.175781 79.070312 304.390625 73.074219 C 297.316406 67.109375 290 54.050781 287.042969 45.597656 C 286.425781 43.746094 285.6875 41.566406 284.972656 39.199219 C 284.714844 39.578125 284.460938 39.953125 284.214844 40.3125 C 277.902344 49.496094 267.816406 59.035156 257.203125 63.339844 C 246.160156 67.648438 234.3125 64.53125 230.613281 51.917969 C 227.867188 53.15625 220.769531 56.671875 218.070312 57.347656 C 216.414062 61.164062 215.476562 68.097656 214.511719 72.328125 C 213.550781 76.535156 215.0625 81.894531 214.699219 86.414062 L 211.875 115.640625 C 211.378906 119.121094 211.605469 122.621094 212.101562 126.097656 C 212.234375 126.878906 212.363281 127.628906 212.492188 128.378906 C 214.285156 137.957031 218.097656 146.167969 225.003906 153.175781 C 226.804688 154.996094 228.695312 156.742188 230.652344 158.417969 C 242.59375 168.636719 257.347656 175.945312 273.359375 178.101562 C 279.84375 179.078125 286.554688 179.207031 293.363281 178.328125 C 312.191406 175.914062 326.878906 168.0625 337.46875 156.484375 C 341.886719 151.65625 345.597656 146.179688 348.59375 140.175781 C 348.628906 140.101562 348.660156 140.023438 348.699219 139.949219"/></g><g id="change3_1"><path fill="#683e38" d="M 285.636719 102.039062 C 285.507812 99.492188 287.277344 97.328125 289.597656 97.210938 C 291.914062 97.09375 293.898438 99.0625 294.03125 101.609375 C 294.160156 104.15625 292.386719 106.316406 290.070312 106.4375 C 287.753906 106.554688 285.765625 104.585938 285.636719 102.039062"/></g><g id="change3_2"><path fill="#683e38" d="M 238.839844 100.964844 C 238.710938 98.417969 240.480469 96.253906 242.800781 96.136719 C 245.117188 96.019531 247.101562 97.984375 247.234375 100.535156 C 247.363281 103.082031 245.589844 105.242188 243.273438 105.359375 C 240.953125 105.480469 238.96875 103.511719 238.839844 100.964844"/></g><g id="change3_3"><path fill="#683e38" d="M 249.003906 78.957031 C 245.90625 77.179688 240.179688 75.6875 237.964844 79.628906 C 237.527344 80.398438 238.234375 81.203125 239.050781 81.042969 C 240.492188 80.753906 241.710938 80.0625 243.21875 79.980469 C 244.855469 79.890625 246.578125 80.5625 248.0625 81.1875 C 249.359375 81.738281 250.171875 79.628906 249.003906 78.957031"/></g><g id="change3_4"><path fill="#683e38" d="M 294.617188 82.230469 C 291.519531 80.453125 285.792969 78.960938 283.578125 82.902344 C 283.140625 83.675781 283.851562 84.480469 284.664062 84.316406 C 286.105469 84.027344 287.324219 83.335938 288.832031 83.253906 C 290.472656 83.164062 292.191406 83.839844 293.675781 84.464844 C 294.976562 85.015625 295.785156 82.902344 294.617188 82.230469"/></g><g id="change3_5"><path fill="#683e38" d="M 18.167969 75.269531 L 15.140625 75.105469 C 15.140625 75.105469 15.074219 75.140625 14.945312 75.234375 C 20.9375 76.929688 21.035156 157.636719 15.074219 159.527344 C 15.105469 159.625 18.886719 158.84375 18.886719 158.84375 C 24.621094 152.882812 33.382812 137.601562 33.382812 118.214844 C 33.382812 98.011719 24.292969 80.578125 18.167969 75.269531"/></g><g id="change3_6"><path fill="#683e38" d="M 359.621094 27.074219 C 349.332031 15.757812 330.613281 7.191406 313.175781 3.332031 C 285.800781 -2.726562 254.597656 -0.269531 235.21875 8.613281 C 219.355469 15.882812 208.121094 29.101562 205.476562 47.609375 C 204.382812 56.152344 206.921875 60.191406 211.1875 61.488281 C 211.15625 62.699219 211.125 63.804688 211.070312 64.765625 C 210.851562 71.835938 211.324219 79.246094 212.667969 86.296875 L 214.699219 86.410156 C 215.0625 81.894531 215.734375 77.460938 216.695312 73.246094 C 217.660156 69.019531 218.960938 64.980469 220.617188 61.164062 C 223.316406 60.484375 226.140625 59.433594 228.886719 58.195312 C 232.585938 70.808594 247.675781 72.824219 258.71875 68.515625 C 269.335938 64.210938 277.367188 55.894531 283.679688 46.710938 C 283.925781 46.351562 284.179688 45.976562 284.4375 45.597656 C 285.152344 47.964844 285.890625 50.144531 286.507812 51.996094 C 289.464844 60.449219 294.238281 72.214844 301.3125 78.183594 C 308.097656 84.175781 319.277344 90.285156 328.289062 84.34375 C 330.523438 82.777344 331.882812 80.589844 332.605469 78.046875 C 334.214844 82.796875 335.90625 87.5625 338.46875 91.9375 C 342.835938 99.792969 350.851562 103.40625 357.847656 100.101562 C 364.644531 102.324219 369.5625 108.703125 369.5625 116.246094 C 369.5625 116.949219 369.503906 117.640625 369.421875 118.324219 C 386.191406 87.179688 373.816406 42.789062 359.621094 27.074219"/></g><g id="change3_7"><path fill="#683e38" d="M 351.636719 133.1875 C 350.753906 135.503906 349.78125 137.765625 348.699219 139.949219 C 352.671875 137.5625 356.167969 134.855469 359.222656 131.882812 C 357.179688 132.753906 354.933594 133.234375 352.574219 133.234375 C 352.257812 133.234375 351.949219 133.203125 351.636719 133.1875"/></g><g id="change4_1"><path fill="#f59382" d="M 318.175781 107.785156 C 325.148438 107.785156 330.804688 113.4375 330.804688 120.414062 C 330.804688 127.386719 325.148438 133.039062 318.175781 133.039062 C 311.203125 133.039062 305.550781 127.386719 305.550781 120.414062 C 305.550781 113.4375 311.203125 107.785156 318.175781 107.785156"/></g><g id="change4_2"><path fill="#f59382" d="M 215.132812 101.042969 C 214.96875 101.011719 214.804688 101.011719 214.644531 101.011719 C 214.644531 101.140625 214.675781 101.269531 214.675781 101.402344 C 215.035156 105.929688 212.882812 110.066406 212.070312 114.433594 C 211.320312 118.3125 211.546875 122.222656 212.101562 126.097656 C 212.199219 126.097656 212.265625 126.128906 212.363281 126.128906 C 219.304688 126.878906 225.527344 121.894531 226.308594 114.953125 C 227.058594 108.046875 222.074219 101.789062 215.132812 101.042969"/></g><g id="change4_3"><path fill="#f59382" d="M 263.683594 106.9375 C 264.175781 106.753906 264.691406 106.476562 265.300781 106.425781 C 265.875 106.257812 266.515625 106.316406 267.132812 106.335938 C 267.765625 106.4375 268.390625 106.558594 268.976562 106.808594 C 269.597656 106.964844 270.082031 107.28125 270.578125 107.488281 C 271.53125 108.046875 272.230469 108.402344 272.230469 108.402344 C 272.230469 108.402344 272.148438 108.226562 271.976562 107.9375 C 271.777344 107.671875 271.597656 107.21875 271.191406 106.808594 C 270.742188 106.449219 270.289062 105.820312 269.589844 105.515625 C 268.953125 105.085938 268.144531 104.878906 267.320312 104.71875 C 266.90625 104.671875 266.472656 104.734375 266.0625 104.746094 C 265.636719 104.722656 265.257812 104.929688 264.886719 105.054688 C 264.109375 105.257812 263.613281 105.847656 263.144531 106.199219 C 262.691406 106.589844 262.519531 107.105469 262.320312 107.363281 C 262.152344 107.65625 262.078125 107.832031 262.078125 107.832031 C 262.078125 107.832031 262.269531 107.746094 262.554688 107.578125 C 262.839844 107.417969 263.21875 107.160156 263.683594 106.9375"/></g><g id="change4_4"><path fill="#f59382" d="M 248.527344 114.824219 C 248.527344 126.144531 258.078125 137.25 271.214844 134.21875 C 281.648438 131.8125 284.902344 123.085938 285.570312 116.507812 C 274.480469 117.578125 259.390625 116.734375 248.527344 114.824219"/></g><g id="change4_5"><path fill="#f59382" d="M 193.363281 181.320312 C 193.226562 181.144531 192.96875 181.113281 192.792969 181.253906 C 192.617188 181.390625 192.585938 181.648438 192.722656 181.824219 C 196.566406 186.765625 201.171875 194.34375 206.421875 204.339844 C 206.496094 204.476562 206.636719 204.554688 206.78125 204.554688 C 206.847656 204.554688 206.914062 204.539062 206.972656 204.507812 C 207.171875 204.402344 207.246094 204.15625 207.144531 203.960938 C 201.871094 193.917969 197.238281 186.304688 193.363281 181.320312"/></g><g id="change4_6"><path fill="#f59382" d="M 384.398438 194.71875 C 384.597656 194.78125 384.855469 194.652344 384.921875 194.457031 C 384.988281 194.230469 384.855469 194.019531 384.65625 193.957031 C 384.496094 193.890625 384.300781 193.878906 384.171875 193.847656 C 383.8125 193.75 383.484375 193.691406 383.324219 193.691406 C 382.183594 193.625 380.976562 193.96875 379.867188 194.554688 C 377.6875 195.757812 376.839844 197.351562 376.9375 199.796875 C 376.9375 201.523438 377.328125 203.949219 377.753906 205.949219 L 378.566406 205.949219 C 378.175781 203.949219 377.753906 201.492188 377.753906 199.796875 C 377.6875 197.679688 378.371094 196.152344 380.261719 195.109375 C 381.238281 194.589844 382.246094 194.359375 383.226562 194.390625 C 383.355469 194.425781 383.617188 194.488281 383.941406 194.589844 C 384.105469 194.621094 384.269531 194.652344 384.398438 194.71875"/></g><g id="change4_7"><path fill="#f59382" d="M 384.914062 195.914062 C 383.769531 196.996094 383.609375 198.640625 383.585938 200.136719 C 383.558594 201.796875 383.714844 204.171875 384.621094 205.609375 C 384.714844 205.757812 384.921875 205.65625 384.894531 205.496094 C 384.378906 202.667969 382.953125 198.648438 385.132812 196.132812 C 385.265625 195.984375 385.0625 195.773438 384.914062 195.914062"/></g><g id="change4_8"><path fill="#f59382" d="M 392.640625 195.382812 C 390.675781 198.226562 390.667969 202.820312 392.535156 205.726562 C 392.652344 205.902344 392.980469 205.785156 392.894531 205.574219 C 391.597656 202.4375 391.109375 198.609375 392.953125 195.566406 C 393.074219 195.363281 392.773438 195.195312 392.640625 195.382812"/></g><g id="change4_9"><path fill="#f59382" d="M 402.621094 196.386719 C 399.648438 197.234375 398.691406 202.152344 399.921875 204.640625 C 400.042969 204.882812 400.363281 204.699219 400.328125 204.46875 C 399.933594 202.011719 399.945312 197.890625 402.726562 196.757812 C 402.953125 196.667969 402.871094 196.3125 402.621094 196.386719"/></g><g id="change4_10"><path fill="#f59382" d="M 410.03125 200.558594 C 409.449219 199.59375 408.582031 199.769531 407.996094 200.621094 C 407.273438 201.683594 407.082031 203.328125 407.273438 204.574219 C 407.300781 204.757812 407.601562 204.710938 407.59375 204.527344 C 407.550781 203.5625 408.226562 199.769531 409.628906 200.867188 C 409.84375 201.035156 410.191406 200.828125 410.03125 200.558594"/></g><g id="change5_1"><path fill="#f58371" d="M 453.007812 231.757812 L 421.621094 205.199219 L 451.636719 174.832031 C 452.269531 174.191406 452.261719 173.160156 451.621094 172.527344 C 450.980469 171.894531 449.949219 171.902344 449.316406 172.542969 L 418.066406 204.160156 C 417.988281 204.242188 417.917969 204.332031 417.855469 204.425781 C 417.726562 204.601562 417.628906 204.808594 417.578125 205.03125 L 398.621094 286.949219 L 132.4375 286.949219 C 131.535156 286.949219 130.808594 288.050781 130.808594 288.949219 C 130.808594 289.851562 131.535156 290.949219 132.4375 290.949219 L 399.914062 290.949219 C 400.671875 290.949219 401.332031 289.976562 401.503906 289.238281 L 417.820312 218.4375 L 417.535156 436.261719 C 417.535156 437.164062 418.265625 437.949219 419.164062 437.949219 C 420.0625 437.949219 420.796875 437.234375 420.796875 436.335938 L 421.089844 209.019531 L 450.902344 234.246094 C 451.207031 234.503906 451.582031 234.628906 451.953125 234.628906 C 452.417969 234.628906 452.878906 234.433594 453.199219 234.054688 C 453.78125 233.367188 453.695312 232.339844 453.007812 231.757812"/></g><g id="change5_2"><path fill="#f58371" d="M 230.910156 202.535156 L 218.6875 200.105469 L 218.878906 199.144531 L 231.101562 201.574219 Z M 240.425781 174.972656 L 245.300781 187.195312 L 244.390625 187.558594 L 239.515625 175.335938 Z M 272.285156 181.269531 L 272.808594 182.097656 L 263.847656 187.800781 L 263.324219 186.972656 Z M 316.238281 193.511719 L 316.824219 194.292969 L 310.308594 199.183594 L 309.722656 198.398438 Z M 332.296875 194.34375 L 341.257812 201.675781 L 340.640625 202.429688 L 331.679688 195.101562 Z M 338.894531 170.953125 L 339.828125 171.234375 L 337.386719 179.378906 L 336.449219 179.097656 Z M 224.125 159.527344 C 223.730469 159.820312 223.351562 160.132812 222.988281 160.453125 C 213.660156 168.785156 214.539062 187.132812 213.527344 205.949219 L 244.332031 205.949219 L 244.476562 205.789062 L 244.65625 205.949219 L 275.40625 205.949219 L 280.601562 204.839844 L 280.808594 205.796875 L 280.085938 205.949219 L 359.203125 205.949219 C 358.011719 184.898438 354.464844 162.515625 344.480469 157.347656 C 342.507812 156.324219 340.285156 155.96875 337.777344 156.433594 C 337.675781 156.453125 337.570312 156.46875 337.46875 156.484375 C 331.835938 162.644531 325.027344 167.738281 317.066406 171.53125 L 317.640625 172.300781 L 311.125 177.1875 L 310.539062 176.40625 L 316.996094 171.5625 C 310.390625 174.699219 302.980469 176.933594 294.765625 178.121094 L 294.277344 178.820312 L 293.535156 178.304688 C 293.476562 178.308594 293.421875 178.320312 293.363281 178.328125 C 286.554688 179.207031 279.84375 179.078125 273.359375 178.101562 C 257.347656 175.945312 242.59375 168.636719 230.652344 158.417969 C 228.089844 158.269531 225.867188 158.238281 224.125 159.527344"/></g><g id="change5_3"><path fill="#f58371" d="M 154.839844 122.804688 C 154.847656 119.339844 155.8125 115.597656 158.433594 115.582031 C 160.132812 115.574219 162.167969 120.824219 162.671875 126.652344 L 211.875 115.640625 L 239.960938 109.351562 C 239.960938 109.351562 243.902344 109.316406 243.773438 99.867188 C 243.578125 88.269531 239.960938 87.84375 239.960938 87.84375 L 214.699219 86.414062 L 212.667969 86.296875 L 18.167969 75.269531 L 15.140625 75.105469 C 15.140625 75.105469 15.074219 75.140625 14.957031 75.226562 C 14.609375 75.148438 14.261719 75.097656 13.910156 75.097656 C 6.226562 75.097656 0 94.035156 0 117.394531 C 0 140.753906 6.226562 159.691406 13.910156 159.691406 C 14.308594 159.691406 14.699219 159.628906 15.085938 159.53125 C 15.082031 159.527344 15.074219 159.527344 15.074219 159.527344 C 21.035156 157.636719 27 141.183594 27 117.398438 C 27 93.449219 20.9375 76.929688 14.945312 75.234375 C 15.074219 75.140625 15.140625 75.105469 15.140625 75.105469 L 18.167969 75.269531 C 24.292969 80.578125 28.628906 97.195312 28.628906 117.398438 C 28.628906 136.785156 24.621094 152.882812 18.886719 158.84375 L 123.945312 135.324219 L 155.382812 128.285156 C 155.195312 126.191406 154.839844 123.90625 154.839844 122.804688"/></g></g></svg>