<?xml version="1.0" encoding="UTF-8" standalone="no"?><svg xmlns="http://www.w3.org/2000/svg" xmlns:xlink="http://www.w3.org/1999/xlink" contentScriptType="text/ecmascript" fill="#000000" width="476.9" zoomAndPan="magnify" contentStyleType="text/css" viewBox="-3.5 -3.6 476.9 507.1" height="507.1" preserveAspectRatio="xMidYMid meet" version="1"><g id="change1_1"><path fill="#fdf5b6" d="M354.2,207.1c10.6,47.7,0.1,106.5-38.6,139.5c-43.9,37.4-114.4,30.4-157.9-4.2 c-41.9-33.3-52.2-90.6-38.2-140.2c15.2-53,55.5-97.8,114.5-96.3C293.1,107.3,341.6,150.4,354.2,207.1z M208.1,78 c0.7,14,22.7,14.1,21.9,0c-1.2-22.5-2.4-45-3.6-67.5c-0.7-14-22.7-14.1-21.9,0C205.7,33.1,206.9,55.6,208.1,78z M228.9,412 c-0.4,25.8-0.8,51.6-1.2,77.4c-0.2,14.1,21.7,14.1,21.9,0c0.4-25.8,0.8-51.6,1.2-77.4C251.1,397.9,229.2,397.9,228.9,412z M66.6,220.6c-18.7,0.3-37.3,0.6-56,0.8c-14.1,0.2-14.1,22.1,0,21.9c18.7-0.3,37.3-0.6,56-0.8C80.7,242.3,80.7,220.4,66.6,220.6z M459.2,216.1c-20.6,0.3-41.2,0.5-61.7,0.8c-14.1,0.2-14.1,22.1,0,21.9c20.6-0.3,41.2-0.5,61.7-0.8 C473.3,237.9,473.4,216,459.2,216.1z M349.3,108.6c10.4-14.3,21.2-28.2,32.4-41.8c8.9-10.8-6.5-26.4-15.5-15.5 c-12.4,15-24.4,30.4-35.9,46.2C322.1,108.9,341.1,119.9,349.3,108.6z M105.7,123.1c10.9,8.7,26.5-6.7,15.5-15.5 C106.8,96.1,92.8,84,79.4,71.2C69.2,61.5,53.7,77,63.9,86.7C77.3,99.5,91.3,111.6,105.7,123.1z M112.6,359.8 c-13.4,13.3-26.7,26.5-40.1,39.8c-10,10,5.5,25.5,15.5,15.5c13.4-13.3,26.7-26.5,40.1-39.8C138.1,365.4,122.6,349.9,112.6,359.8z M381.3,356.2c-10.1-9.9-25.6,5.6-15.5,15.5c13.3,13.1,26.2,26.5,38.7,40.3c9.5,10.5,25-5.1,15.5-15.5 C407.4,382.7,394.5,369.3,381.3,356.2z"/></g><g id="change2_1"><path fill="#272626" d="M206.7,193.1c0.2-3.7,2.9-6.4,6.6-6.6c3.4-0.2,6.8,3.1,6.6,6.6c-0.1,2.7-0.3,5.3-0.4,8 c-0.2,3.7-2.9,6.4-6.6,6.6c-3.4,0.2-6.8-3.1-6.6-6.6C206.4,198.5,206.5,195.8,206.7,193.1L206.7,193.1z M254.2,193.4 c0,3.2,0,6.4,0,9.6c0,3.4,3,6.7,6.6,6.6c3.6-0.2,6.6-2.9,6.6-6.6c0-3.2,0-6.4,0-9.6c0-3.4-3-6.7-6.6-6.6 C257.2,187,254.2,189.7,254.2,193.4L254.2,193.4z M167.2,253.5c8.9,24.4,38.1,36.7,62.6,37.6c27.7,0.9,52.4-14.2,69.9-34.6 c5.5-6.4-3.8-15.7-9.3-9.3c-13.5,15.7-30.8,28.1-51.8,30.4c-20.2,2.2-51.1-6.6-58.7-27.6C177,242.1,164.3,245.5,167.2,253.5 L167.2,253.5z"/></g></svg>