<?xml version="1.0" encoding="UTF-8" standalone="no"?><svg xmlns="http://www.w3.org/2000/svg" xmlns:xlink="http://www.w3.org/1999/xlink" contentScriptType="text/ecmascript" fill="#000000" width="424.5" zoomAndPan="magnify" contentStyleType="text/css" viewBox="-3.3 -4.3 424.5 508.3" height="508.3" preserveAspectRatio="xMidYMid meet" version="1"><g id="change1_1"><path fill="#bae6ff" d="M166.8,161.8c2.7,3.1,5.6,6,8.6,8.8 M175.4,170.6c13,12.4,28.4,22.6,45.5,30.1c13.5,5.9,8.6,26.6-3.9,30 c-27.5,7.4-48.7,22.9-67.2,44c-14.1,22.1-23.2,44.1-24.4,70.7c-0.9,21.2-31.5,21-32.8,0c-3.3-53.9-35.8-97-84.6-118.1 c-11.3-4.9-10.1-23,0-28.3c49-25.6,82.4-72,88.7-127.4c2.4-20.7,31.5-21.5,32.8,0c2,34.6,15.5,65.8,37.3,90.2"/></g><g id="change2_1"><path fill="#a09bff" d="M408.2,403.4c-20.3,5.5-35.9,17-49.7,32.6c-10.4,16.3-17.1,32.5-18,52.1c-0.7,15.9-23.6,15.7-24.6,0 c-2.4-39.8-26.4-71.7-62.5-87.2c-8.5-3.7-7.6-17.3,0-21.2c36.2-18.9,60.9-53.2,65.6-94.1c1.8-15.5,23.7-16.1,24.6,0 c2.5,42.7,28.8,78.3,67.5,95.3C421.2,385.3,417.6,400.9,408.2,403.4z M280.8,93.8c23.3,10,39.1,30.2,40.7,56.1 c1,15.7,23.9,15.9,24.6,0c0.5-12.5,4.9-22.8,11.5-33.2c8.8-10,18.7-17.3,31.7-20.8c9.4-2.5,13-18.1,2.9-22.5 c-25.1-11-42.5-33.8-44.1-61.6c-0.9-16.1-22.8-15.5-24.6,0c-3,26.5-19.4,48.5-42.7,60.8C273.2,76.6,272.3,90.2,280.8,93.8z"/></g><g id="change3_1"><path fill="#fffefe" d="M161,177.1c4.6,3.9-2.1,10.5-6.6,6.6c-28.9-24.8-42-60.6-46.4-97.6c-0.7-6,8.6-5.9,9.3,0 C121.4,120.7,134,153.9,161,177.1z M185.9,196.5c-2.7-1.6-4.9-3.1-7.2-5.2c-1.9-1.7-4.8-1.8-6.6,0c-1.7,1.7-1.9,4.9,0,6.6 c2.8,2.5,5.8,4.8,9.1,6.7c2.2,1.3,5.1,0.5,6.4-1.7C188.8,200.7,188.1,197.7,185.9,196.5z M93.8,267.8c-11.9-24-31.6-42.8-56.2-53.6 c-5.5-2.4-10.2,5.7-4.7,8.1c23.3,10.2,41.5,27.5,52.9,50.2C88.4,277.9,96.4,273.1,93.8,267.8z M101.8,285.5 c-0.4-2.5-3.5-3.9-5.7-3.3c-2.6,0.7-3.7,3.2-3.3,5.7c0.5,3,1.3,6,2.5,8.8c1,2.3,3.1,4,5.7,3.3c2.2-0.6,4.2-3.4,3.3-5.7 C103.2,291.4,102.3,288.5,101.8,285.5z M361.1,366.4c-15.5-11.5-22.9-36.7-26.1-54.6c-1-5.9-10-3.4-9,2.5 c3.7,20.9,12.6,47,30.4,60.2C361.2,378.1,365.9,370,361.1,366.4z M381.3,379.5c-1.3-0.6-2.6-1.3-3.9-1.9c-2.3-1.1-5-0.6-6.4,1.7 c-1.2,2-0.6,5.3,1.7,6.4c1.3,0.6,2.6,1.3,3.9,1.9c2.3,1.1,5,0.6,6.4-1.7C384.1,383.9,383.5,380.6,381.3,379.5z M278,389.8 c-5.4-2.4-10.2,5.6-4.7,8.1c14.9,6.6,26.4,17.6,33.6,32.3c2.6,5.4,10.7,0.7,8.1-4.7C307.2,409.6,294.2,397,278,389.8z M328.4,444.9 c-0.7-2.4-3.3-3.9-5.7-3.3c-2.4,0.7-3.9,3.3-3.3,5.7c0.4,1.5,0.8,2.9,1.2,4.4c0.7,2.4,3.3,3.9,5.7,3.3c2.4-0.7,3.9-3.3,3.3-5.7 C329.2,447.8,328.8,446.3,328.4,444.9z M296.3,86.8c12.2,3.5,18.6,19.5,24.2,29.5c2.9,5.2,11,0.5,8.1-4.7 C321.5,99,314,82.2,298.8,77.8C293,76.1,290.5,85.2,296.3,86.8z M326.1,126.8c0,0.9,0,1.8,0,2.6c0,2.4,2.1,4.8,4.7,4.7 c2.5-0.1,4.7-2.1,4.7-4.7c0-0.9,0-1.8,0-2.6c0-2.4-2.1-4.8-4.7-4.7C328.2,122.3,326.1,124.2,326.1,126.8z M365,69.4 c-15.3-12-24.3-29.1-25-48.6c-0.2-6-9.6-6-9.3,0c0.8,21.8,10.6,41.7,27.8,55.2C363.1,79.7,369.7,73.1,365,69.4z M372.2,83.5 c2.1,1,4,1.5,6.3,1.6c2.4,0.1,4.8-2.2,4.7-4.7c-0.1-2.6-2.1-4.6-4.7-4.7c-0.3,0-0.4,0-0.5,0s-0.2,0-0.3-0.1c-0.1,0-1.3-0.5-0.8-0.2 c-2.3-1.1-5-0.6-6.4,1.7C369.4,79.2,369.9,82.5,372.2,83.5z"/></g></svg>