<?xml version="1.0" encoding="UTF-8" standalone="no"?><svg xmlns="http://www.w3.org/2000/svg" xmlns:xlink="http://www.w3.org/1999/xlink" contentScriptType="text/ecmascript" fill="#000000" width="385.6" zoomAndPan="magnify" contentStyleType="text/css" viewBox="3.2 3.3 385.6 385.7" height="385.7" preserveAspectRatio="xMidYMid meet" version="1"><g id="change1_1"><path fill="#fff9ed" d="M387.47,57.34l0-.45a70.17,70.17,0,0,1-1.31,10.32A33.69,33.69,0,0,1,382,76.63a40.07,40.07,0,0,1-4.42,6.27,2.88,2.88,0,0,1-.78,2.14l-.54.58c-.57.66-1.09,1.35-1.69,2-.79.82-1.66,1.57-2.5,2.35s-1.87,1.77-2.75,2.7l-1.19,1.26-.66.73-.05.06-.13.15-.14.15c-.15.17-.3.35-.46.52a59.85,59.85,0,0,1-5.64,5.39l.27-.23c-2.05,1.83-3.8,4-5.79,5.89-1.14,1.1-2.3,2.17-3.5,3.2-1,.88-2.1,1.72-3.13,2.6s-1.75,1.6-2.63,2.39l-.08.07c-1,1-2.08,2-3.15,3-2.53,2.28-4.9,4.71-7.37,7-3.43,3.25-7,6.39-10.23,9.79-3,3.16-6.2,6.16-9.19,9.34-2.4,2.64-4.7,5.36-7.14,8-2.15,2.29-4.42,4.42-6.76,6.5s-4.49,3.81-6.59,5.88c-2.43,2.39-4.66,5-7,7.41a70.44,70.44,0,0,1-6.82,6.22c-2.31,1.83-4.83,3.37-7.13,5.21-1.62,1.39-3.16,2.86-4.7,4.34s-3,2.87-4.54,4.32-3.27,3.2-4.89,4.81-3.08,3-4.56,4.55c-1.78,2-3.49,4-5.36,5.84-1,1.05-2.14,2-3.22,3s-2.13,2-3.14,3.06-1.82,2.17-2.71,3.28c-1.11,1.38-2.27,2.73-3.44,4.06-2.31,2.63-4.73,5.15-7.12,7.71q-3.18,3.41-6.39,6.77c-2.25,2.38-4.64,4.62-6.95,6.95s-4.91,4.69-7.41,7-4.92,4.8-7.37,7.2c-4.85,4.75-9.86,9.33-14.83,14-2.46,2.3-4.84,4.67-7.21,7.06s-4.71,5-7,7.49-4.48,4.75-6.89,6.94c-1.26,1.14-2.54,2.26-3.78,3.42s-2.45,2.43-3.63,3.69c-2.31,2.52-4.69,5-7.09,7.43-1.19,1.21-2.34,2.46-3.54,3.66s-2.53,2.49-3.85,3.68c-2.52,2.28-5.05,4.55-7.42,7-2.5,2.59-5,5.21-7.5,7.77-2.3,2.33-4.66,4.59-6.91,7-1.75,1.91-3.46,3.85-5.19,5.77l-1.14.9c-1,.82-2.06,1.64-3.11,2.42-2,1.41-4,2.7-6,4-1.08.73-2.13,1.5-3.17,2.28-.43.32-.84.65-1.25,1l-5,2.55h0l-.06,0-.29.15.08,0-4.63,2.44c-1.21.65-2.39,1.35-3.6,2a43.06,43.06,0,0,1-4.35,2c-2.77,1.14-5.51,2.33-8.17,3.7-1.44.73-2.88,1.48-4.33,2.18s-3,1.3-4.52,1.89-3,1.29-4.43,1.94-2.91,1.24-4.39,1.79h0l-.15.06s0,0-.07,0c-3.87,1.45-7.64,3.14-11.5,4.63-2,.76-3.91,1.5-5.9,2.19s-4.24,1.33-6.32,2.08c-1.63.62-3.25,1.26-4.9,1.83s-3.22,1.11-4.82,1.68-2.93,1-4.41,1.5c-1.09.35-2.2.64-3.32.91h-.05a2.42,2.42,0,0,1-.45.1l-.84.2h0l-.35.08.16,0c-1.28.31-2.55.63-3.84.9a14.83,14.83,0,0,1-3,.36A6.36,6.36,0,0,1,7,388a4.87,4.87,0,0,1-2.51-3.18c-.17-.61-.45-1.18-.61-1.79a6.3,6.3,0,0,1,.19-3.77c.2-.63.45-1.25.7-1.87.88-2.18,1.87-4.32,2.84-6.46l-.2.43c.71-1.55,1.31-3.13,1.91-4.73.47-1.24,1-2.45,1.59-3.66.27-.7.54-1.4.82-2.1.49-1.22.95-2.45,1.46-3.66l.48-1.41c0-.1.07-.21.11-.32.34-.65.68-1.3,1-1.95,1.27-2.49,2.52-5,3.73-7.52s2.23-5.08,3.26-7.66c.1-.26.21-.53.32-.79l.09-.2c.52-1.15,1.05-2.3,1.59-3.44.87-2,1.83-3.89,2.8-5.8l.29-.55c1-2.26,2-4.54,2.92-6.83.51-.88,1-1.75,1.56-2.62.11-.19.22-.39.34-.58.54-1.18,1.12-2.35,1.69-3.52,1.41-2.92,3-5.74,4.39-8.66.6-1.3,1.17-2.61,1.8-3.89s1.41-2.76,2.1-4.15c1.26-2.54,2.52-5.1,3.73-7.67.76-1.63,1.49-3.27,2.29-4.88.42-.85.86-1.69,1.29-2.53a30,30,0,0,1,1.46-2.67c.63-1,1.3-1.95,2-2.88.41-.53.83-1.05,1.26-1.57a9.84,9.84,0,0,1,1.11-1.21l.74-.91c1-1.25,2.12-2.46,3.21-3.65s2.33-2.54,3.6-3.7,2.62-2.24,3.91-3.39,2.53-2.49,3.74-3.79l-.32.35c2.29-2.49,4.61-4.95,7-7.35s4.69-4.39,6.9-6.72c2.4-2.68,4.73-5.42,7.3-7.95,2.35-2.31,4.75-4.57,7.12-6.85s4.86-4.65,7.22-7,4.84-5.15,7.35-7.65c1.57-1.57,3.16-3.11,4.73-4.68s2.9-3,4.4-4.37c3-2.87,6.26-5.49,9.46-8.13.11-.1.22-.18.32-.28l1.32-1.37c1.2-1.23,2.42-2.44,3.59-3.69,1.63-1.82,3.11-3.74,4.62-5.67a50.37,50.37,0,0,1,5.6-5.9c1.83-1.68,3.55-3.44,5.28-5.22.9-.91,1.81-1.81,2.76-2.68s2-1.65,3-2.45c2.3-2,4.33-4.2,6.45-6.37s4.38-4.11,6.55-6.19,4.43-4.35,6.74-6.43c1.12-1,2.26-2,3.34-3.06s2.14-2.2,3.19-3.33c2.8-3,5.57-6.14,8.38-9.18s5.73-6.05,8.56-9.11c2.3-2.54,4.49-5.15,6.82-7.66,1.21-1.3,2.42-2.6,3.68-3.85s2.63-2.45,4-3.66c2.41-2.19,4.68-4.56,7-6.8,2.6-2.47,5.13-5,7.87-7.33,1.3-1.1,2.61-2.19,3.87-3.34s2.64-2.37,4-3.52c2.7-2.29,5.26-4.71,7.84-7.14,1.23-1.17,2.47-2.32,3.75-3.42s2.77-2.34,4.09-3.57c2.61-2.44,5.21-4.91,7.73-7.45,1.81-1.81,3.63-3.59,5.61-5.23s4-3.14,6-4.75a77.85,77.85,0,0,0,6.67-6.16c2.94-3.22,5.7-6.6,8.71-9.76.78-.83,1.6-1.63,2.43-2.41.05-.11.08-.22.14-.33A15.5,15.5,0,0,1,293.41,38l-.24.27c1-1.14,2.07-2.22,3.09-3.34.55-.65,1.07-1.33,1.59-2,.68-.88,1.41-1.71,2.14-2.54,1.61-1.88,3-3.9,4.68-5.76.42-.5.83-1,1.27-1.52s.88-1,1.32-1.44c.6-.64,1.21-1.28,1.79-1.93.38-.44.75-.89,1.15-1.31s.77-.77,1.13-1.17l-.12.14c.42-.48.86-.94,1.29-1.41a2.46,2.46,0,0,1,1.75-.79c.24-.23.49-.45.74-.67a10,10,0,0,1,1.47-1.12c.79-.51,1.59-1,2.36-1.55a36.39,36.39,0,0,1,3.32-2.62,15.27,15.27,0,0,1,4.26-1.66h0l.18,0,.16,0-.1,0c.76-.2,1.51-.42,2.27-.58s1.35-.26,2-.38a44.59,44.59,0,0,1,6.19-.79c1.15,0,2.3-.09,3.45-.06s2.18.19,3.27.26a25.94,25.94,0,0,1,6.14.89,58.05,58.05,0,0,1,11.69,5.44c.75.44,1.49.88,2.21,1.36A21.34,21.34,0,0,1,365.62,15a19.75,19.75,0,0,0,1.71,1.16L367.1,16l.28.16,0,0h0c.5.29,1,.57,1.48.9l.24.22c1.46,1.33,2.88,2.7,4.28,4.1.26.37.51.73.79,1.08h0c.45.57.94,1.11,1.42,1.65l.07.08c.45.51.9,1,1.34,1.54l.51.64c.27.33.54.65.8,1h0l.07.09c.51.66,1,1.32,1.52,2A73.16,73.16,0,0,1,383.54,36a43.54,43.54,0,0,1,3.59,9.83,26.74,26.74,0,0,1,.67,5.77C387.8,53.5,387.62,55.42,387.47,57.34ZM361.53,12.19l.1.06.22.13Z"/></g><g id="change2_1"><path fill="#272626" d="M7.44,388.57a14.39,14.39,0,0,1-1.35-.7,3.3,3.3,0,0,1-.6-.4A6,6,0,0,1,5,387a7.73,7.73,0,0,1-.87-1.11,6,6,0,0,1-.58-1.41,8.81,8.81,0,0,1-.3-3.15,9.54,9.54,0,0,1,.4-1.91c.17-.56.43-1.09.65-1.63l0,.05c.33-.86.57-1.75.86-2.62.16-.47.34-.94.52-1.41s.27-.88.41-1.32c.54-1.79,1.26-3.54,1.8-5.33l0-.08h0v0l0-.1s0,0,0,0c.1-.4.18-.79.3-1.18s.27-.82.42-1.22.35-.86.55-1.28.37-.74.53-1.12a25,25,0,0,1,1.07-2.81,29.37,29.37,0,0,0,1.37-2.68,9,9,0,0,1,.83-1.78c.25-.39.56-.72.83-1.08h0c.17-.21.3-.45.46-.67a2.18,2.18,0,0,1,.52-.53l0,0,.37,0,.22,0c1.16.38,2.36.62,3.55.93l.77.26c.72.28,1.43.58,2.15.88l.26.11A21.44,21.44,0,0,0,24,356l0,0h0c.26.16.51.33.76.51.63.48,1.22,1,1.85,1.49s1.22.86,1.8,1.33c.24.21.48.45.71.68.49.55,1,1.11,1.47,1.65l.26.34c.56.67,1.21,1.27,1.78,1.95.27.34.54.68.79,1.05s.45.69.69,1c.51.72,1,1.44,1.53,2.17a8.12,8.12,0,0,1,.67,1.18c.18.38.32.76.48,1.14s.42.87.58,1.32a9.75,9.75,0,0,1,.37,1.53c0,.22.09.44.13.66l.06.42s0,0,0,0,0,.3.06.46c.06.47.11.93.14,1.41a10.44,10.44,0,0,1,0,1.48,7.56,7.56,0,0,1-.33,1.57,4.56,4.56,0,0,1-.58,1.22,2.93,2.93,0,0,1-.8.69A12.19,12.19,0,0,1,34,382.41c-.87.33-1.74.62-2.62.9l-2.74.88c-.74.23-1.47.51-2.2.76s-1.64.48-2.47.71l.13,0c-.71.21-1.41.45-2.12.68s-1.51.41-2.26.63l.13,0c-.91.26-1.78.6-2.69.86s-1.9.53-2.86.73a16.84,16.84,0,0,1-3.09.29h0a6.86,6.86,0,0,1-.9.09c-.33,0-.67,0-1,0A4.62,4.62,0,0,1,7.44,388.57Z"/></g><g id="change3_1"><path fill="#272626" d="M388.77,58.78c0,1-.09,2-.15,3a28.32,28.32,0,0,1-.31,2.92,46.89,46.89,0,0,1-1.12,5.88c-.29,1-.64,2-1,3-.3.77-.63,1.54-1,2.31s-.47,1.36-.73,2a16,16,0,0,1-1.09,2.42,18.36,18.36,0,0,1-1.73,2.48c-.45.57-.9,1.14-1.4,1.67s-1.16,1.1-1.77,1.62-1.4,1.21-2.08,1.85c-1.2,1.18-2.4,2.34-3.69,3.43s-2.64,2.32-4,3.45c-.69.58-1.41,1.11-2.1,1.67s-1.49,1.3-2.24,1.94c-1.28,1.11-2.55,2.22-3.78,3.4-.62.6-1.23,1.22-1.84,1.83l-.76.76a2.57,2.57,0,0,1-2.26,1.49,2.12,2.12,0,0,1-.44,0,2.53,2.53,0,0,1-1-.27l-.22-.13a17.8,17.8,0,0,1-2.24-1.19q-.42-.24-.87-.45l-.2-.09c-.83-.33-1.68-.62-2.48-1-1.24-.58-2.41-1.29-3.59-2s-2.44-1.33-3.69-1.93c-.6-.29-1.2-.56-1.79-.88s-1.28-.75-1.91-1.12l.17.1a61.19,61.19,0,0,1-5.6-3.38c-1.82-1.33-3.54-2.81-5.25-4.28-.61-.52-1.2-1.05-1.79-1.59-1-.78-1.93-1.62-2.87-2.46s-1.77-1.56-2.59-2.39-1.68-1.77-2.48-2.68l-.25-.25c-1-1.06-2-2.16-3-3.26a46,46,0,0,1-3-3.53l-.2-.29c-.13-.14-.24-.28-.36-.42-.66-.77-1.3-1.53-1.91-2.33-.74-1-1.39-2-2.05-3.06-.22-.36-.45-.73-.66-1.1-.9-1.21-1.75-2.45-2.58-3.72-.94-1.44-1.93-2.85-2.87-4.28s-1.88-2.92-2.73-4.43a36.87,36.87,0,0,1-2.22-4.82h0c-.69-1.76-1.33-3.52-1.84-5.33a22.65,22.65,0,0,1-1-5,6.43,6.43,0,0,1,.53-3.42,3.73,3.73,0,0,1,.25-.39,2.42,2.42,0,0,1,.58-1.22l.13-.12A1.83,1.83,0,0,1,294,33c.28-.3.61-.56.91-.84.53-.54,1-1.1,1.54-1.64.77-.82,1.65-1.54,2.47-2.31,1.21-1.19,2.39-2.42,3.59-3.63,1.39-1.39,2.65-2.92,4-4.38s2.77-2.7,4.2-4,2.77-2.49,4.16-3.73c1.64-1.44,3.25-2.89,5-4.18l-.26.19c.94-.69,1.81-1.47,2.77-2.14a24.73,24.73,0,0,1,3.81-2,10.06,10.06,0,0,1,3.59-1,33.66,33.66,0,0,1,3.48,0c1,.05,1.91.14,2.87.17h-.23c.9,0,1.8,0,2.7.14a23.85,23.85,0,0,1,3.55.66c1.52.37,3,.85,4.47,1.34,1.28.43,2.55.91,3.84,1.3h0c.81.25,1.62.49,2.41.8l2.21.89c.69.3,1.37.6,2.06.88.9.36,1.8.71,2.68,1.11a90.79,90.79,0,0,1,8.62,5.06l-.28-.17a26.41,26.41,0,0,1,3.22,2.08,22,22,0,0,1,2.16,2.16c.57.58,1.16,1.13,1.71,1.72a26.89,26.89,0,0,1,1.89,2.37c.68.9,1.39,1.78,2.06,2.69.3.41.6.81.91,1.21l.2.27a10.33,10.33,0,0,1,1,1.39,19.18,19.18,0,0,1,1.15,2.09l.31.41a12.27,12.27,0,0,1,.84,1.28,15.52,15.52,0,0,1,.77,1.59,11,11,0,0,1,.5,1.5c.07.24.14.48.2.72l0,.11a.44.44,0,0,1,0,.1c.07.27.14.55.2.82l.06.26A23.35,23.35,0,0,1,387,42.77a14.91,14.91,0,0,1,.24,1.49c.07.54.15,1.08.23,1.62.13,1,.21,2,.32,3v0c0,.31.07.61.11.91.21.91.38,1.83.52,2.75s.22,2.11.3,3.17A29.1,29.1,0,0,1,388.77,58.78Z"/></g><g id="change4_1"><path fill="#ffbd6f" d="M357,104.16a3.45,3.45,0,0,1-1.07,1.72,4.36,4.36,0,0,1-.83.57,2.45,2.45,0,0,1-1.28.83,2,2,0,0,1-.45.68c-1.81,1.81-3.6,3.64-5.44,5.41l.24-.23a82.85,82.85,0,0,0-5.61,6.25,85.41,85.41,0,0,1-6.65,6.67c-2.63,2.58-5.21,5.2-7.81,7.79-1.35,1.35-2.66,2.72-4,4.11s-2.65,2.61-4,3.89c-.95.93-1.87,1.89-2.82,2.81s-1.76,1.59-2.63,2.39-1.43,1.62-2.16,2.43-1.65,1.7-2.49,2.53c-.56.55-1.12,1.1-1.71,1.62q-.56.59-1.14,1.14c-1.79,1.68-3.69,3.23-5.47,4.92-2.08,2.05-3.9,4.33-5.92,6.43-1.06,1.11-2.09,2.25-3.2,3.32s-2.19,2-3.26,3c-1.22,1.21-2.37,2.47-3.58,3.67s-2.46,2.29-3.69,3.44-2.5,2.51-3.72,3.8-2.61,2.91-4,4.3-2.83,2.77-4.17,4.25-2.69,2.77-4.09,4.12c-2.29,2.24-4.49,4.56-6.79,6.79-1.79,1.73-3.48,3.53-5.13,5.39s-3,3.56-4.64,5.24-3.44,3.43-5.1,5.21c-.81.86-1.6,1.74-2.44,2.57s-1.78,1.73-2.65,2.61c-3.53,3.56-7.1,7.11-10.81,10.5-1.81,1.65-3.7,3.22-5.51,4.88s-3.74,3.58-5.64,5.35c-1.19,1.11-2.41,2.21-3.59,3.34-1.73,1.7-3.38,3.48-5.11,5.17s-3.82,3.56-5.73,5.34c-3.7,3.46-7.44,6.87-11.12,10.34l-2.26,2.15-.14.14a5.56,5.56,0,0,1-.5.47l-.53.54c-.43.43-.85.87-1.27,1.32-.84.89-1.68,1.76-2.52,2.63-1.67,1.72-3.28,3.5-5,5.19l-.49.49a2.31,2.31,0,0,1-.42.66c-1.18,1.35-2.36,2.68-3.58,4a4.5,4.5,0,0,1-.77.8L172,289.54c-.79.82-1.62,1.6-2.44,2.39s-1.64,1.69-2.44,2.55-1.79,1.83-2.7,2.71c-1.71,1.64-3.52,3.16-5.22,4.79-1.33,1.31-2.59,2.68-3.91,4s-2.74,2.67-4.14,4c-2.63,2.44-5.43,4.7-8,7.19-1.59,1.53-3.19,3-4.84,4.5s-3.15,2.65-4.64,4.07c-1.2,1.22-2.33,2.5-3.52,3.73s-2.7,2.58-4.08,3.83c-2.45,2.24-4.94,4.42-7.33,6.72-1.4,1.39-2.82,2.78-4.19,4.19-.68.7-1.32,1.44-2,2.17l0,.05-1.68,1.07c-2,1.27-3.93,2.57-5.85,3.9,0-.21.09-.42.13-.63.33-1.5.64-3,1-4.51s.77-3.2,1.22-4.78c.11-.39.23-.78.35-1.17-.47-.09-.94-.2-1.4-.32l-2.08-.39c-2.41-.37-4.85-.34-7.28-.54a38.3,38.3,0,0,1-4.14-.48,3.52,3.52,0,0,1-2.16-1.21,3.25,3.25,0,0,1-.63-2.35c.07-1.28.29-2.56.45-3.83.07-.59.17-1.18.28-1.76s.09-1,.13-1.57c.12-1.7.14-3.39.15-5.1,0-1,0-2,.07-2.91l0-.51c-.6.08-1.19.17-1.79.24-.94.11-1.88.19-2.82.21s-1.93,0-2.9-.08c-1.33,0-2.67,0-4,0-.8,0-1.62.09-2.43.09a10.8,10.8,0,0,1-1.5-.1,5.14,5.14,0,0,1-1.4-.35,3.79,3.79,0,0,1-1.65-1.39A5.46,5.46,0,0,1,72,315.2c-.07-1.12-.24-2.24-.2-3.36s.16-2.22.25-3.33c.09-1.29.14-2.59.25-3.88.08-1,.2-1.95.31-2.93-.41,0-.83,0-1.25.06-.81.09-1.62.21-2.43.31a25.32,25.32,0,0,1-3.26.14c-1.07,0-2.13,0-3.19,0a20.44,20.44,0,0,1-3-.25,3.65,3.65,0,0,1-2.2-1.24,4,4,0,0,1-.83-2.51c0-1.27.23-2.54.28-3.81v0c.08-1.54.25-3.08.31-4.63,0,.12,0,.24,0,.36l.09-2.41v-.24c0,.07,0,.14,0,.2a1.83,1.83,0,0,1,0-.33v0c0-.43,0-.87,0-1.31.06-1.39.15-2.77.32-4.14l-1.19,0c-1.59.49-3.19,1-4.82,1.31-.81.17-1.63.33-2.44.47,1-1.79,2.07-3.59,3-5.43a1.74,1.74,0,0,1,.1-.19c1-2,1.91-4,2.78-6.08,1.1-1,2.22-2,3.3-3s1.9-2,2.85-3,2.2-2.12,3.33-3.14c2.14-1.94,4.31-3.86,6.4-5.85s4-4,6.06-6l.15-.14.07-.08.88-.84c1.39-1.36,2.75-2.76,4.14-4.14S85,243,86.53,241.6q4.56-4,9-8.26c1.61-1.56,3.16-3.16,4.66-4.82,1.63-1.82,3.47-3.4,5.26-5.06.82-.81,1.6-1.64,2.34-2.53s1.48-1.84,2.24-2.74c1.53-1.83,3.18-3.53,4.79-5.29s3.2-3.7,4.84-5.52,3.32-3.5,5-5.22c1-1,2-2,3-3s2.23-2.13,3.34-3.2c.79-.76,1.56-1.54,2.29-2.35s1.65-1.91,2.51-2.83c1.72-1.87,3.52-3.66,5.24-5.53s3.43-3.8,5.26-5.59c.89-.86,1.8-1.7,2.69-2.56s1.67-1.59,2.55-2.35c2.37-2,4.81-4,7.11-6.1,1.69-1.54,3.39-3.06,5.06-4.61a2.72,2.72,0,0,1,.43-.65c.65-.69,1.22-1.46,1.81-2.2-.07.09-.14.17-.2.26.8-1,1.6-2,2.42-3a37.08,37.08,0,0,1,2.67-2.79c1.84-1.78,3.75-3.49,5.7-5.14s4-3.21,5.93-4.86,3.8-3.41,5.68-5.14c3.39-3.1,6.68-6.3,10-9.48l.07-.07.06,0h0c1.77-1.73,3.53-3.46,5.24-5.23s3.39-3.78,5.15-5.61,3.63-3.55,5.36-5.42,3.61-3.9,5.47-5.79S223,105,224.68,103s3.55-3.74,5.4-5.55,3.59-3.61,5.36-5.45,3.72-3.84,5.54-5.8,3.52-3.89,5.33-5.78,3.44-3.52,5.14-5.31,3.62-3.84,5.49-5.71,3.72-3.52,5.56-5.3c2.44-2.35,4.91-4.67,7.36-7,1.61-1.58,3.15-3.21,4.66-4.88s3.07-3.18,4.66-4.71h0c1.81-1.75,3.64-3.49,5.46-5.24l0,0,.12-.12.09-.08c1.45-1.41,2.9-2.81,4.4-4.17,1.17-1.06,2.37-2.08,3.51-3.18l-.24.22.32-.3.18-.18a2.5,2.5,0,0,1,4.5,1,2.66,2.66,0,0,1-.41,1.84l-.2.28a2.62,2.62,0,0,1,.12.62,10.12,10.12,0,0,1-.26,2.68c0,.15,0,.3,0,.46s0,.3,0,.45c.16,1.28.43,2.56.67,3.84s.45,2.82.77,4.21a33.34,33.34,0,0,0,1.23,3.78,26.81,26.81,0,0,0,1.2,2.61,30.4,30.4,0,0,0,1.73,2.62c1,1.28,2,2.55,2.92,3.85s1.83,2.54,2.76,3.81q2.17,2.87,4.42,5.69c1.61,2,3.24,4,5,5.89,2,2,4.11,3.82,6.25,5.64s4.06,3.55,6.17,5.24c1.46,1.1,3,2.17,4.41,3.28s2.7,2.08,4.13,3,3.09,1.57,4.67,2.29,3.21,1.59,4.84,2.34c.94.4,1.91.74,2.89,1l0,0c.55.16,1.1.33,1.66.48a2.66,2.66,0,0,1,.65-.44,2.91,2.91,0,0,1,3.39.74A2.81,2.81,0,0,1,357,104.16Z"/></g><g id="change5_1"><path fill="#fdf5b6" d="M379.33,86.12c-.56.46-1.15.86-1.7,1.34s-1.11,1.2-1.72,1.74l0,0c-.87.76-1.67,1.57-2.49,2.37l-.59.56c-.47.38-.93.77-1.37,1.18-.86.79-1.65,1.65-2.49,2.46q-.56.54-1.08,1.08c-.34.26-.68.51-1,.79-.88.75-1.7,1.54-2.53,2.34-1.56,1.52-3.23,2.92-4.8,4.44-.8.76-1.63,1.5-2.42,2.28-.4.38-.79.78-1.17,1.18a2.62,2.62,0,0,1-1,.22,2.29,2.29,0,0,1-.52,0,13.79,13.79,0,0,1-1.79-.45c-.35-.12-.69-.26-1-.41s-.58-.23-.85-.36h0l-.08,0h0l-.3-.13-1.29-.57.3.13-1.87-.81.29.13c-2-.89-4.1-1.68-6.13-2.59-.63-.28-1.23-.59-1.83-.91l-.65.53c-1.3,1.1-2.58,2.2-3.85,3.33-1.08,1-2.09,2-3.13,3-6.54,7-12.6,14.43-18.78,21.75-3.31,3.92-6.61,7.83-9.95,11.72-3,3.55-6.2,7-9.32,10.48-3.36,3.75-6.68,7.54-10,11.31-3,3.45-6.15,6.87-9.2,10.32q-9.84,11.11-19.5,22.39c-3,3.57-6.09,7.12-9.23,10.58-3.43,3.76-7,7.35-10.62,10.94-3.32,3.3-6.67,6.55-10.09,9.73s-7,6.68-10.52,9.94-7,6.07-10.52,9-7.39,5.5-11.18,8.12c-4,2.74-7.92,5.55-11.84,8.38-3.7,2.68-7.42,5.33-11,8.11-.81.62-1.59,1.25-2.39,1.88-3.53,2.88-7,5.81-10.42,8.85s-6.81,6-10.17,9-6.89,6.4-10.23,9.72c-1.52,1.52-3.08,3-4.61,4.5s-3.26,3.21-4.92,4.77-3.34,2.91-5,4.41c-1.78,1.63-3.51,3.29-5.26,4.95-3,2.79-6,5.54-8.79,8.47l0,0c-1.38,1.43-2.84,2.74-4.29,4.08-1.62,1.51-3.35,2.85-5.08,4.23h0a24,24,0,0,0-1.86,1.62h0l-.09.17h0s0,0,0,0a3,3,0,0,1,.68-.84c.57-.57,1.16-1.12,1.75-1.67,1.15-1,2.29-2.05,3.37-3.16l0,0c.76-.79,1.5-1.59,2.27-2.37l0,0c1.5-1.56,2.88-3.21,4.31-4.84,1.69-1.93,3.45-3.8,5.21-5.67s3.77-4,5.66-6,3.89-3.9,5.83-5.86c6.38-6.7,12.39-13.72,19-20.24,3.3-3.28,6.69-6.48,10-9.73s7-6.64,10.65-9.84c5.43-4.78,11.25-9.11,17-13.52s11.82-8.56,17.58-13c1.6-1.3,3.16-2.65,4.72-4s3.16-2.7,4.71-4.09c3.45-3.12,6.79-6.36,10.16-9.57s6.69-6.2,9.93-9.4,6.41-6.41,9.61-9.62c6.59-6.9,12.78-14.15,19.19-21.23s12.77-13.86,19.29-20.66c3.78-3.93,7.48-7.92,11.28-11.82s7.62-7.78,11.41-11.68c6.6-7,13.15-14,19.76-21,3.24-3.41,6.48-6.81,9.91-10A86.07,86.07,0,0,1,339,101.5c-1.22-.71-2.4-1.48-3.57-2.28s-2.14-1.5-3.15-2.33-2-1.66-3-2.47l-1.85-1.54-1.12,1c-1.11,1-2.17,2.06-3.25,3.09-3.85,3.87-7.64,7.8-11.41,11.75s-7.63,7.87-11.46,11.8-7.5,7.82-11.15,11.82-7.19,8.1-10.76,12.17-7,7.8-10.56,11.58c-4,4.18-8.06,8.26-12.15,12.32a.08.08,0,0,0,0,0c-3.7,3.67-7.43,7.32-11.14,11l0,0c-7.68,7.65-15.06,15.58-22.79,23.19s-15.54,15-23.41,22.33-15.81,14.85-23.77,22.22c-2.86,2.65-5.74,5.28-8.59,7.94s-5.38,5.12-8,7.71c-3.75,3.73-7.44,7.52-11.1,11.33s-7.44,7.66-11.41,11.24c-1.92,1.73-3.87,3.43-5.8,5.16s-3.86,3.58-5.75,5.42c-3.61,3.48-7.17,7-10.79,10.49-2.82,2.7-5.83,5.14-8.88,7.56-1.37,1.09-2.73,2.2-4.08,3.31l-2,1.62c-.65.55-1.34,1.07-2,1.64l0,0a2.54,2.54,0,0,1-1.89.84,2.49,2.49,0,0,1-1.64-.61,2.53,2.53,0,0,1-.22-3.53,11.75,11.75,0,0,1,1.45-1.28l1.39-1.17,2.79-2.3c1.87-1.54,3.79-3,5.69-4.56,3.93-3.17,7.51-6.71,11.13-10.23s7.48-7.35,11.35-10.88c1.92-1.75,3.87-3.46,5.81-5.17s3.73-3.44,5.53-5.21c3.7-3.71,7.27-7.53,10.93-11.27S156,257.58,160,253.85s7.89-7.35,11.84-11,8.12-7.54,12.15-11.33c8-7.48,16-14.95,23.91-22.48q7-6.67,13.87-13.51c3.84-3.88,7.62-7.82,11.41-11.76s7.42-7.53,11.19-11.23q3.87-3.78,7.7-7.59l-.24.24,3.26-3.24L255,162c3.76-3.74,7.48-7.52,11.09-11.4s7.3-8,10.87-12.11,7.05-8.07,10.71-12q5.82-6.24,11.81-12.34,5.4-5.52,10.75-11.11c4-4.19,8.05-8.35,12.24-12.37.38-.36.76-.7,1.14-1-1.74-1.47-3.36-3.08-5-4.66-1.88-1.8-3.76-3.58-5.57-5.46s-3.45-3.7-5.11-5.62c-1.46-1.67-2.93-3.33-4.27-5.1-1.25,1.06-2.48,2.13-3.69,3.23-3.81,3.49-7.52,7.06-11.21,10.68l.23-.24C281.11,90.27,273.24,98,265.56,106c-3.62,3.75-7.11,7.66-10.47,11.65-3.51,4.16-6.91,8.4-10.43,12.54q-10.68,12.56-22,24.54-5.59,5.91-11.5,11.51c-3.87,3.68-7.89,7.19-11.94,10.66-2.42,2.08-4.86,4.12-7.22,6.26s-4.89,4.53-7.26,6.88c-7.42,7.64-14.42,15.7-22.08,23.12-3.89,3.76-7.88,7.42-11.81,11.14s-7.69,7.45-11.51,11.2c-2.71,2.68-5.43,5.35-8.13,8l.23-.23c-2.66,2.65-5.31,5.3-8,7.9-2.51,2.42-5,4.81-7.53,7.25-3.67,3.67-7.25,7.43-10.78,11.24s-7.1,7.77-10.74,11.57c-3.34,3.49-6.82,6.83-10.27,10.2C82.53,293,81,294.51,79.33,296s-3.29,2.93-4.88,4.44a2.28,2.28,0,0,1-1.59.62,2.6,2.6,0,0,1-1.94-.86,2.54,2.54,0,0,1,.24-3.52c1.18-1.13,2.41-2.2,3.62-3.3s2.6-2.39,3.88-3.61q4-3.82,7.94-7.72c3.57-3.57,7.05-7.25,10.46-11s7-7.71,10.68-11.45q4-4.1,8.06-8c2.62-2.53,5.27-5,7.86-7.58q5.63-5.59,11.27-11.15c3.83-3.78,7.64-7.59,11.56-11.3,4.94-4.68,10-9.29,14.82-14.07,3.68-3.71,7.26-7.53,10.81-11.37,3.79-4.1,7.62-8.15,11.58-12.07s8-7.26,12.06-10.76,8.08-7,12-10.65c1.28-1.22,2.54-2.44,3.81-3.67,7.55-7.54,14.79-15.37,21.83-23.39,3.73-4.23,7.42-8.5,11-12.84,1.71-2,3.39-4.12,5.09-6.18s3.57-4.2,5.37-6.29c3.41-3.92,7-7.69,10.68-11.39,3.82-3.88,7.68-7.72,11.54-11.57q6.19-6.21,12.45-12.36c1.77-1.73,3.59-3.43,5.42-5.1s3.83-3.51,5.81-5.18a67,67,0,0,1-5.15-9.46c-1-2.2-1.72-4.49-2.46-6.77-.32-1-.57-2-.8-3-.47-1.29-.88-2.6-1.26-3.9a22.89,22.89,0,0,1-.9-3.65,5.36,5.36,0,0,1,0-1.2,2.85,2.85,0,0,0,.11-.39c.39-.46.79-.91,1.17-1.38.6-.74,1.21-1.47,1.84-2.2,1-1.11,2.05-2.21,3.07-3.33s2-2.28,3-3.42c.35-.37.71-.73,1.1-1.09.7-.61,1.39-1.23,2.05-1.9s1.33-1.41,2-2.11,1.5-1.43,2.24-2.16c.56-.54,1.1-1.08,1.67-1.6.75-.64,1.5-1.28,2.2-2,.28-.27.55-.54.82-.82h0l.28-.27,0-.06h0l.17-.17.35-.27.74-.19c.35,0,.71-.08,1.06-.11v0h0v.07l-.06,1,0,.5a1.21,1.21,0,0,0,0,.19,2.6,2.6,0,0,0,0,.56.47.47,0,0,0,0,.16,1.55,1.55,0,0,0,.07.31c0,.23,0,.46,0,.69s0,.22,0,.33c0,.63,0,1.26,0,1.88,0,.15,0,.3,0,.46.08,1.9.29,3.79.52,5.69.09.72.19,1.45.33,2.16a19,19,0,0,0,.59,2.12,26.29,26.29,0,0,0,1.07,2.89c.27.6.56,1.18.86,1.77l.11.24c.37,1.06.78,2.11,1.25,3.13.29.62.62,1.22,1,1.82.07.13.13.27.21.4l.12.25a23.61,23.61,0,0,0,1.9,3.12v0l.41.72c.61,1.06,1.21,2.14,1.86,3.17l.4.59a28.47,28.47,0,0,0,2,2.41l.37.46a39,39,0,0,0,3.3,3.72c1.75,1.63,3.58,3.16,5.22,4.91s3.35,3.19,5.07,4.72,3.16,2.89,4.84,4.18,3.39,2.44,5.12,3.62a.54.54,0,0,1,.12.09c1.31.91,2.55,1.91,3.87,2.8s2.41,1.74,3.68,2.52,2.45,1.37,3.72,2c.63.31,1.25.62,1.88.91s1.15.47,1.72.71a11.34,11.34,0,0,0,1.68.63c.56.16,1.13.27,1.69.39s1.36.33,2,.5c1.46.38,2.93.74,4.38,1.13,1.27.33,2.52.75,3.79,1l.31.06A2.67,2.67,0,0,1,379.33,86.12ZM68.85,276.81l0,0,0,0,0,.05,0,0-.41.48c-.2.28-.39.57-.57.86a.22.22,0,0,1,.05-.08c-.45.74-.87,1.51-1.39,2.2a20.65,20.65,0,0,1-1.38,1.57c-1.61,1.71-3.33,3.3-5,5h0c-.85.88-1.71,1.75-2.53,2.65h0l-.09.13a1,1,0,0,1,0,.14h0a0,0,0,0,1,0,0A1.78,1.78,0,0,1,58,289l1-1.2c.95-1.14,1.9-2.29,2.9-3.4,1.26-1.4,2.51-2.8,3.67-4.29.19-.26.38-.52.55-.78.49-.83.87-1.71,1.36-2.53a22.39,22.39,0,0,1,2.41-3c1.34-1.53,2.69-3.07,4.13-4.52a53.57,53.57,0,0,1,4.8-3.85c1.27-1.05,2.48-2.16,3.72-3.25s2.42-2.12,3.56-3.26c2.33-2.47,4.43-5.17,6.64-7.73s4.86-5.15,7.35-7.67c2.72-2.85,5.33-5.79,8.12-8.56,2.63-2.61,5.51-4.95,8.12-7.57,1.27-1.36,2.47-2.77,3.63-4.22.4-.55.79-1.1,1.17-1.66.54-.91,1-1.85,1.51-2.8a51.44,51.44,0,0,1,3.21-6.16,35.33,35.33,0,0,1,4.43-5.19c3-3.09,6.32-5.92,9.46-8.9,3.39-3.21,6.7-6.49,10.13-9.64s7-6,10.49-9c2-1.76,4-3.57,6.1-5.3s4.27-3.47,6.41-5.2l-.41.34c.26-.21.53-.44.81-.65.42-.38.87-.72,1.32-1.09.71-.58,1.41-1.18,2.11-1.78,1.42-1.22,2.74-2.53,4.05-3.86,2.17-2.3,4.26-4.67,6.47-6.93,2-2,3.94-4,5.89-6,3.17-3.33,6.33-6.67,9.43-10.06s6.31-7,9.73-10.22,6.92-6.33,10.4-9.48,6.73-6.39,10-9.66q1.56-1.55,3.09-3.12c6.3-6.64,12.44-13.43,18.81-20q4.95-5.1,10-10.09c3.25-3.19,6.43-6.45,9.71-9.61,4.77-4.58,9.9-8.76,14.55-13.46h0l.41-.45a1,1,0,0,1-.3-.62,1.3,1.3,0,0,1,.59-1c.32-.23.81-.49,1.2-.26s-.11.73-.19.84c-.29.43-.6.84-.92,1.26l.29.28s0,0,0,0-.22-.17-.33-.26a64.29,64.29,0,0,1-4.54,5.08c-1.91,2-3.88,3.95-5.82,5.93-3.14,3.28-6.19,6.65-9.21,10.06-3.34,3.76-6.74,7.47-10.08,11.23-6.15,6.92-12.07,14-18.1,21.06-4.51,5.28-9.23,10.37-14.06,15.35-4.66,4.82-9.65,9.34-14.38,14.1-3.71,3.95-7.18,8.12-10.81,12.15s-7.26,8-11,11.83c-2.32,2.42-4.57,4.9-6.83,7.37a75.13,75.13,0,0,1-8,7.48c-.71.58-1.43,1.17-2.16,1.75-.37.32-.77.63-1.17,1l-4.15,3.34c-2.29,1.89-4.5,3.85-6.77,5.77-2.43,2.06-4.93,4-7.41,6-4.38,3.72-8.55,7.68-12.82,11.53-4,3.58-8.18,7-11.93,10.79-.3.34-.6.7-.88,1.06l-.43.6c-2.18,3.64-3.81,7.59-6.61,10.83a57.56,57.56,0,0,1-4.62,4.88c-1.58,1.46-3.3,2.76-5,4.15-3.33,2.79-6.48,5.78-9.54,8.86-1.51,1.51-3.1,2.92-4.68,4.33s-2.93,2.74-4.34,4.17h0l-.18.18.08-.07c-1.49,1.55-3,3.12-4.44,4.69a45.65,45.65,0,0,1-4.58,4.33c-1.7,1.36-3.43,2.72-5.17,4s-3.61,2.32-5.28,3.67C72.69,272.85,70.76,274.83,68.85,276.81ZM289.33,53.16c.36-.4.72-.8,1.05-1.23l.16-.24h0l-.14,0h-.11l-.24,0-.13,0a1.3,1.3,0,0,0-.33.17h0l-.17.12h0l-.15.15s0,0,0,0l-.12.15h0l-.08.15,0,.15v.15c0,.05,0,.1.05.15h0A1.15,1.15,0,0,0,289.33,53.16Zm-189,240.12a48.28,48.28,0,0,0,4-3.06c1.59-1.37,3.14-2.78,4.7-4.17,2.89-2.55,5.78-5.12,8.52-7.82,1.43-1.41,2.83-2.84,4.27-4.23s2.74-2.47,4.16-3.65c2.45-2,5-3.83,7.48-5.74s4.94-4,7.4-6h0l.27-.22-.19.15c1.51-1.22,3-2.43,4.5-3.69s2.7-2.45,4-3.69c2.54-2.38,5.09-4.76,7.61-7.17,5.32-5.06,10.87-9.86,16.1-15,1.69-1.66,3.28-3.42,4.87-5.18s3.07-3.41,4.54-5.17c3-3.57,6-7.12,9.13-10.6,6.55-7.32,13-14.77,19.68-21.92,3.06-3.09,6.16-6.13,9.35-9.08s6.6-6,9.85-9.12,6.64-6.37,9.89-9.63c2.9-2.9,5.73-5.88,8.57-8.84,1.21-1.24,2.43-2.47,3.65-3.71q5.14-5.19,10.44-10.24c3.43-3.29,6.93-6.49,10.33-9.81a100.32,100.32,0,0,0,9.32-10.54c1.49-1.92,2.93-3.87,4.3-5.88s2.72-3.94,4.19-5.86c2.1-2.45,4.27-4.81,6.51-7.13l-.09.1c4.69-4.62,9.66-9,14.16-13.78h0a5.58,5.58,0,0,1,.75-.71l.19-.12.12,0H313l.07.05.06.08,0,.12c0,.06,0,.11,0,.17s0,.12,0,.17v0c0,.08,0,.15,0,.22h0c-.12.73-.3,1.45-.48,2.17,0,0,0,0,0,0,.1-.31,1.26-3.52.25-3.29a4,4,0,0,0-1.61,1.2c-.53.5-1.06,1-1.6,1.47-1.29,1.14-2.6,2.25-3.93,3.35h0c-3.81,3.08-7.7,6.12-11.23,9.54-1.76,1.7-3.53,3.39-5.13,5.24s-3,3.75-4.47,5.67c-2.21,2.79-4.54,5.43-6.95,8.06l.05,0c-2,2-3.92,4-6,5.91q-3.45,3-6.92,6c-4.47,3.81-8.89,7.67-13.19,11.68-7,6.53-13.75,13.33-20.88,19.72-7.45,6.67-15.07,13.14-22.18,20.18-3.51,3.47-6.76,7.21-10.05,10.89L189.21,201q-4.77,5.39-9.31,10.95-4.38,5.36-9.09,10.44c-2.82,2.88-5.74,5.67-8.65,8.47s-5.89,5.78-8.78,8.71q-2.61,2.64-5.24,5.26c-1.53,1.53-3,3.09-4.61,4.56-1.78,1.64-3.63,3.21-5.43,4.85s-3.43,3.14-5.21,4.64c-3.57,3-7.19,6-10.6,9.17-1.64,1.55-3.13,3.25-4.64,4.92s-3,3.21-4.47,4.79c-2,2.08-4.11,4.14-6.18,6.2-1.91,1.9-3.77,3.86-5.85,5.59l.08-.06c-3,2.43-5.89,5-8.81,7.52-1.36,1.2-2.67,2.44-3.91,3.77s-2.39,2.71-3.64,4l.06-.06c-1.67,1.73-3.37,3.44-5,5.18,0,0,0,0,0,0-1,1-1.94,1.95-2.93,2.91l-1.4,1.34c-.23.22-.52.4-.61.72h0a.78.78,0,0,0,.05-.14c1.13-1,2.3-1.91,3.44-2.88,1.38-1.2,2.71-2.45,4.08-3.67s3-2.58,4.37-4,3-2.93,4.58-4.26l-.1.07C94.32,297.75,97.27,295.43,100.31,293.28Z"/></g></svg>