<?xml version="1.0" encoding="UTF-8" standalone="no"?><svg xmlns="http://www.w3.org/2000/svg" xmlns:xlink="http://www.w3.org/1999/xlink" contentScriptType="text/ecmascript" fill="#000000" width="792.5" zoomAndPan="magnify" contentStyleType="text/css" viewBox="-2.0 -8.5 792.5 514.8" height="514.8" preserveAspectRatio="xMidYMid meet" version="1"><g id="change1_1"><path fill="#ffbd6f" d="M571.1,86c-4.8-5.3-9.8-10.4-15-15.2 M556.1,70.8c-14.1-13.3-29.6-24.9-46-34.7C451.1,1,380.1-8.5,313.7,7.6 c-0.5,0.1-0.9,0.2-1.4,0.3C312,8,311.7,8,311.5,8.1c-9.3,2.4-13.5,9.4-13.7,16.8c-1,6.7,1.4,13.9,9.1,18.4 c64,37.1,102.9,107.3,100.2,181.1c-3.4,95.2-84.6,168.6-179,166.2c-18.3-0.5-23.2,20.6-13.6,32.8c43.4,55.2,116.8,82.9,186.2,75.4 c73.7-8,138.6-52,180.8-111.8c44.7-63.3,64.8-150.4,36.9-224.5c-10.5-28-27-54-47.3-76.5"/></g><g id="change2_1"><path fill="#a09bff" d="M228,126.6c5,6.5,0.7,15.8-5.2,19.7c-3.7,2.5-7.5,5-11.2,7.5c1.5,8.4,3.2,16.8,5.2,25.2 c2.3,9.8-4.5,17.3-13.9,18.3c-10.9,1.1-20.6-8.8-29.1-17.9c-8.1,5.4-16.1,10.9-24.2,16.3c-3.5,2.4-7,2.8-10,2.1 c-9,0.1-17.7-6.8-13.6-17.3c4.2-10.8,10.6-20.5,17.2-30.1c-6-6.6-10.6-14-10.6-21.5c0.1-18.5,20.8-16.2,34.9-14.8 c3.8-5.7,7.6-11.4,11.4-17.1c8.1-12.1,26-7.2,26.9,7.3c0.2,3.8,0.6,7.6,0.9,11.4C215.1,117,222.8,119.9,228,126.6z M89,304.4 c-5,0-9.9,0.1-14.9,0.1c-1.9-4.3-3.9-8.6-6-12.9c-3.9-8-16.8-9.6-22.6-2.9c-4.4,5.1-8.5,10.6-12.3,16.2c-5.5,0-11,0.1-16.5,0.1 c-13,0.1-18.4,15.5-10.2,24.6c2.5,2.8,5.1,5.3,7.8,7.8c-4.1,7.8-8.2,15.6-12.4,23.3c-3.9,7-1.4,13.7,3.4,17.8 c4,5.1,10.8,7.7,17.9,3.4c9.2-5.6,18.3-11.5,27.2-17.5c7.7,5.4,15.2,11.1,22,17.6c10.4,10,27.7,0,24.1-14c-2.6-10.2-5.6-20.2-9-30 c3.9-3,7.9-5.9,11.8-9C109.4,321,100.6,304.3,89,304.4z M765.4,348.6c-5.6,1.4-11.2,2.7-16.8,4c-1-4.1-2-8.2-3-12.3 c-2.7-12-20.6-14.1-26.4-3.4c-4.4,8.1-8.8,16.1-13.3,24.2c-6.6,1.1-13.3,2.1-20,3c-13.3,1.8-20.7,18.8-7.3,26.9 c2.7,1.6,5.4,3.2,8.1,4.8c-1.2,2.2-2.4,4.3-3.6,6.5c-4.6,8.4-13,20.6-6.5,30.1c0.8,1.2,1.8,2.2,2.8,3.1c0.7,0.7,1.5,1.5,2.4,2.1 c9.5,6.9,22.2-2,29.9-7.5c4.9-3.5,9.6-7.1,14.3-10.9c6.9,4.1,13.8,8.2,20.6,12.3c10.1,6,25.7-4.2,21.2-16.3 c-3-8.1-5.8-16.2-8.5-24.4c6.7-6,13.3-12,20-18C790.5,362.7,778.8,345.2,765.4,348.6z"/></g><g id="change3_1"><path fill="#fffefe" d="M428.9,248.6c1.2-5.2,6.9-7.8,11.8-6.7c5.2,1.2,7.8,6.9,6.7,11.8c-0.7,3.1-1.4,6.3-2.1,9.4 c-1.2,5.2-6.9,7.8-11.8,6.7c-5.2-1.2-7.8-6.9-6.7-11.8C427.5,254.9,428.2,251.7,428.9,248.6L428.9,248.6z M471.4,228.4 c-0.8,4.6-1.7,9.2-2.5,13.8c-0.9,4.9,1.3,10.6,6.7,11.8c4.7,1.1,10.9-1.4,11.8-6.7c0.8-4.6,1.7-9.2,2.5-13.8 c0.9-4.9-1.3-10.6-6.7-11.8C478.6,220.6,472.4,223.1,471.4,228.4L471.4,228.4z M442.9,286c-2.2,3.5-3.9,7.6-4.6,11.7 c-0.4,2.6-0.4,5,1,7.4c1.2,2,3.5,3.9,5.7,4.4c4.7,1.1,10.9-1.4,11.8-6.7c0.3-1.6,0.7-3.1,1.2-4.6c0.7-2.1-1,1.7,0.1-0.2 c0.4-0.8,0.9-1.6,1.3-2.3c2.7-4.3,1-10.8-3.4-13.2C451.3,280.1,445.8,281.5,442.9,286L442.9,286z M181.7,118.4 c0.3,3.8,0.6,7.7,0.8,11.5c0.4,5,4.2,9.9,9.6,9.6c4.9-0.2,10-4.2,9.6-9.6c-0.3-3.8-0.6-7.7-0.8-11.5c-0.4-5-4.2-9.9-9.6-9.6 C186.5,109,181.4,113,181.7,118.4L181.7,118.4z M50.7,322.3c0.7,2.7,1.3,5.3,2,8c1.2,4.9,7,8.3,11.8,6.7c5-1.6,8-6.6,6.7-11.8 c-0.7-2.7-1.3-5.3-2-8c-1.2-4.9-7-8.3-11.8-6.7C52.4,312.1,49.4,317.1,50.7,322.3L50.7,322.3z M718.6,361.1 c-1.4,3.1-2.9,6.3-4.3,9.4c-1.1,2.4-1.7,4.8-1,7.4c0.6,2.2,2.3,4.6,4.4,5.7c4.2,2.2,10.9,1.4,13.2-3.4c1.4-3.1,2.9-6.3,4.3-9.4 c1.1-2.4,1.7-4.8,1-7.4c-0.6-2.2-2.3-4.6-4.4-5.7C727.6,355.4,720.9,356.2,718.6,361.1L718.6,361.1z"/></g></svg>