<?xml version="1.0" encoding="UTF-8" standalone="no"?><svg xmlns="http://www.w3.org/2000/svg" xmlns:xlink="http://www.w3.org/1999/xlink" contentScriptType="text/ecmascript" fill="#000000" width="448.5" zoomAndPan="magnify" contentStyleType="text/css" viewBox="-13.0 -4.3 448.5 508.5" height="508.5" preserveAspectRatio="xMidYMid meet" version="1"><g id="change1_1"><path fill="#a9eba1" d="M365.5,421.2c-19,38-67.4,49.5-104.7,60c-47.3,13.4-96.8,23-146.1,16.8c-37.4-4.8-89.6-19.3-108.1-56.2 c-19.6-39.1,6.9-81.4,47.6-87.7c1-0.2,2-0.4,3.1-0.4c0.8-0.1,1.5-0.1,2.2-0.1c35.5-0.9,71-1.8,106.5-2.7 c49.3-1.2,98.6-2.5,147.8-3.7c10.9-0.3,22.5-1.7,33.3-0.8c12.2,1,19.9,14.4,23.4,25.1C375.9,387.8,373,406.1,365.5,421.2z M136.3,113.4c-5.7,5.9,3.3,15,9,9c11.5-11.9,15.7-28.1,10-43.8c-3.8-10.6-9-18.6-8.7-30.3c0.4-13.5,6.1-26.5,11.5-38.6 c3.3-7.5-7.7-14-11-6.5c-7.5,16.8-15.1,34.8-12.9,53.6C136.7,77.5,154.8,94.3,136.3,113.4z M190.5,117.8c6.9-14.9,9.6-28.9,4.2-44.7 c-6.6-19.2,3.9-39.8,9.8-58.1c2.5-7.9-9.8-11.2-12.3-3.4c-4.9,15.3-12.3,31.5-12.8,47.7c-0.2,6.8,1.6,12.4,3.6,18.8 c3.8,11.9,1.6,22.1-3.5,33.2C176,118.7,187,125.3,190.5,117.8z M228,116.4c4.6-10.1,7.4-20.5,6.7-31.7c-0.3-5-2.4-10.2-2.4-15.1 c0-7.1,4.7-15.7,7-22.4c2.7-7.8-9.6-11.1-12.3-3.4c-3.3,9.4-8.2,19.1-7.1,29.3c1.6,13.5,2.9,24-3,36.9 C213.6,117.3,224.6,123.8,228,116.4z"/></g><g id="change2_1"><path fill="#a09bff" d="M391.7,214.4c-15.2-9.3-31.4-13.6-45.6-11.9c-9.2,1.1-17.6,4.7-25.5,8.9c-0.4-11-0.9-22-1.5-33 c0-0.2-0.1-0.5-0.1-0.7c1-3.8,0.5-8.1-2.6-11.9c-13.6-16.5-34.1-22.4-54.5-24.8c-26.6-3.2-54.1-2.6-80.7-0.6c-26.6,2-53.2,6-79.2,12 c-17.5,4-37.6,8.3-49.7,22.1c-5.1,1-9.4,5-9.6,12c-1.2,54.7,0.4,109.5,5.1,164c1.7,19.4-0.5,44.8,11.7,60.7 c10.8,14,25.4,23,42.4,27.9c21,6,43.5,5.8,65.2,5c25.5-1,51-3.8,76.1-8.4c20.3-3.7,41.2-9.2,57.7-22.1c6.4-5,13.5-11.5,16.3-19.3 c3.1-8.6,2.4-20.2,2.4-30c6,1.5,12.6,1.9,19.2,1.9c1.3,0,2.5,0,3.8,0c19.4-0.3,34.3-3,47.1-8.3c27.3-11.5,45.2-38.8,45.5-69.6 C435.5,259.3,418.8,231.1,391.7,214.4z M321.5,243.2c1.1-0.7,2.3-1.4,3.4-2c6.2-3.8,12.5-7.6,19.3-9.6c10-2.9,20.9-0.6,33.4,7.1 c17.1,10.6,28.4,28.2,29.5,46c1.2,19.2-8.3,37-24.1,45.4c-8.4,4.4-18.6,6.9-32.2,7.7c-1.3,0.1-2.7,0.2-4.2,0.3 c-8.3,0.7-19.7,1.7-24.4-4c-0.5-0.6-1-1.1-1.5-1.6C321.6,302.7,321.9,272.9,321.5,243.2z M181.3,201.1c-32.1,2.5-66.1,3.7-95.8-9.3 l198.6-15.2C252.5,192.9,216.7,198.3,181.3,201.1z"/></g><g id="change3_1"><path fill="#fff9ed" d="M58.2,190.2c0.3-15.6,72.7-26.3,108.7-29.4c48.8-4.3,128-3.3,130.5,12.8c2.3,15.1-62.7,44.2-127.9,46 C115.6,221.1,57.9,204.1,58.2,190.2z M314.6,387.7c-37,31-79.9,51.6-128.6,54.6c-26.1,1.6-52.6,1.1-77.1-9.1 c-21.7-9-39.5-24.5-53.9-42.9c-5.1-6.5-14.1,2.6-9,9c15.2,19.4,34.4,35.5,57.2,45.3c26.2,11.2,54.8,12.2,82.9,10.5 c52.2-3.2,97.9-25,137.6-58.3C329.9,391.5,320.8,382.5,314.6,387.7z M191.7,255.5c44.7-5.4,90.6-13.8,126.2-43.3 c6.3-5.3-2.7-14.3-9-9c-33.8,28-79.3,35.2-121.6,40.1c-45.8,5.2-93.7,6-136.6-13.6c-7.4-3.4-13.9,7.6-6.5,11 C90.7,261.9,141.9,261.5,191.7,255.5z M313.1,250c-36,29.3-82.9,36.3-128,37.3c-22.5,0.5-45.5,0.7-67.8-2.5 c-22.8-3.3-43.8-11.6-65-20.4c-7.6-3.2-10.9,9.2-3.4,12.3c22,9.1,43.8,17.5,67.5,20.7c25.9,3.6,52.5,3.3,78.6,2.2 c45.6-2,91-11.3,127.1-40.8C328.5,253.8,319.4,244.8,313.1,250z M310.3,292.7c-12.6,16.6-35.7,22.9-54.7,28.8 c-21.5,6.7-43.6,11.5-66,14.1c-43.5,5.1-90.2,3.9-132-10c-7.8-2.6-11.2,9.7-3.4,12.3c46.3,15.4,98.4,15.8,146.3,9 c24.4-3.5,48.4-9.3,71.7-17.5c18.7-6.6,36.8-14.1,49.2-30.3C326.4,292.6,315.3,286.2,310.3,292.7z M48.1,367.9 c47.3,15.5,97.1,24.7,147,21c43.2-3.2,91.1-14.7,125.1-43c6.3-5.3-2.8-14.3-9-9c-33.4,27.8-82.9,37.9-125.3,39.7 c-45.8,2-91-6.8-134.4-21.1C43.7,353,40.3,365.3,48.1,367.9z"/></g><g id="change4_1"><path fill="#fffefe" d="M89.7,195.7c-7.4-3.5-0.9-14.5,6.5-11c21.8,10.3,45.9,10.3,69.6,10c8.2-0.1,8.2,12.7,0,12.8 C139.6,207.8,113.8,207.1,89.7,195.7L89.7,195.7z M190.8,205.9c4.9-0.5,9.8-1.2,14.6-2c3.4-0.6,5.3-4.8,4.5-7.9 c-1-3.6-4.5-5.1-7.9-4.5c-3.7,0.6-7.5,1.2-11.2,1.5c-3.4,0.3-6.4,2.7-6.4,6.4C184.4,202.7,187.4,206.3,190.8,205.9L190.8,205.9z"/></g></svg>