<?xml version="1.0" encoding="UTF-8" standalone="no"?><svg xmlns="http://www.w3.org/2000/svg" xmlns:xlink="http://www.w3.org/1999/xlink" contentScriptType="text/ecmascript" fill="#000000" width="214.5" zoomAndPan="magnify" contentStyleType="text/css" viewBox="-1.1 -2.1 214.5 403.5" height="403.5" preserveAspectRatio="xMidYMid meet" version="1"><g id="change1_1"><path fill="#a9eba1" d="M118.2275,246.5934c-2.4317,37.502-10.3694,74.6479-22.6484,110.141 c-5.1989,15.0278-10.9417,30.2231-18.4207,44.299c-0.1021,0.1922-0.3265,0.3096-0.5397,0.3096c-4.1334,0-8.2669,0-12.4003,0 c-0.363,0-0.7645-0.4071-0.6027-0.7912c0.1357-0.322,0.2689-0.6451,0.4021-0.9682c2.981-7.2315,5.7475-14.5541,8.4234-21.9031 c5.2128-14.3166,9.9996-28.7913,14.3172-43.403c5.3596-18.1379,10.0118-36.5052,13.5255-55.0936 c1.306-6.9086,2.4395-13.852,3.3727-20.8206c-2.8245,0.4274-5.906,0.1265-8.4454-0.1801 c-6.663-0.8041-13.2021-2.7223-19.4089-5.2423c-6.5913-2.6762-12.9692-6.0935-18.4934-10.6075 c-4.6411-3.7924-8.9515-8.655-10.5179-14.5758c-1.3875-5.2445-0.3107-11.4059,3.3458-15.5256 c3.3997-3.8305,8.6626-4.8865,13.576-4.5218c6.3139,0.4686,12.433,2.839,17.9991,5.7468c6.2364,3.258,12.054,7.4207,17.1485,12.2742 c2.2971,2.1884,4.8821,4.9493,7.1282,8.0291c0.1026-1.9655,0.1901-3.9321,0.249-5.9005c0.3212-10.729,0.2698-21.4704,0.1649-32.2024 c-0.1339-13.6806-0.4205-27.3597-0.7684-41.0365c-0.3655-14.3689-0.806-28.7359-1.2913-43.1013 c-0.4399-13.0219-0.9176-26.0424-1.4255-39.0618c-0.3673-9.4167-0.7502-18.8327-1.151-28.2479 c-0.1544-3.6248-0.3097-7.2495-0.4733-10.8738c-0.0162-0.3588,0.2249-0.5476,0.4982-0.5862 c0.0209-0.0059,0.0435-0.007,0.0654-0.0107c0.02-0.0009,0.0388-0.0023,0.059-0.0015c0.0551-0.0044,0.1078-0.0149,0.1686-0.0044 c3.2595,0.5639,6.519,1.1277,9.7784,1.6916c0.2764,0.0479,0.4448,0.3495,0.4588,0.6027c0.0128,0.2288,0.0244,0.4577,0.0378,0.6864 c0.9367,15.8557,1.6595,31.7274,2.4084,47.5927c1.3417,28.4236,2.5429,56.8561,3.3894,85.2992 C118.9291,194.5461,119.9085,220.6698,118.2275,246.5934z"/></g><g id="change2_1"><path fill="#fd87b1" d="M210.515,54.3528c-2.562,4.4056-7.1642,7.9698-12.006,9.6776c1.0298,3.174,1.5889,6.5762,1.7886,9.8871 c0.3212,5.325-0.478,11.0316-3.7831,15.385c-3.1601,4.1625-8.1612,6.1121-13.1569,7.0314c-7.1859,1.3224-14.92,1.0682-22.1316-0.193 c-0.7587,2.61-1.9012,5.1564-3.1601,7.5465c-2.415,4.5854-5.621,8.8427-9.7195,12.0518 c-5.1541,4.0355-11.5187,5.9558-18.0469,5.8161c-7.5142-0.1608-15.8209-3.7639-20.071-10.2632 c-2.436,2.2028-5.0775,4.212-7.7651,6.085c-4.8892,3.4071-10.1989,6.4391-15.9232,8.1882 c-5.8339,1.7826-11.7116,1.665-17.347-0.7623c-5.1557-2.2206-9.61-5.9111-13.3485-10.0507 c-1.7228-1.9076-3.3833-3.9492-4.7652-6.1293c-2.4236,0.5839-4.9201,0.9407-7.3942,1.1918 c-4.598,0.4666-9.3237,0.4717-13.8572-0.5155c-4.8806-1.0628-8.8961-3.4067-11.9256-7.4006 c-3.5634-4.6978-5.8661-10.2867-7.2095-16.0022c-0.5925-2.5209-1.0641-5.1387-1.1967-7.7375 c-1.0221-0.301-2.0197-0.6901-2.9473-1.2175C-1.0784,72.604-0.661,62.1822,0.9847,54.7595 c0.2414-1.0886,0.3189-3.0476,1.5362-3.4292c1.763-0.5526,3.5474-1.0448,5.3196-1.5668c7.6663-2.2581,15.3326-4.5161,22.9989-6.7742 c8.6197-2.5389,17.2393-5.0777,25.8589-7.6166c4.0582-1.1953,8.1163-2.3906,12.1745-3.5859 c0.1046-0.0787,0.2402-0.1053,0.3985-0.0699c0.0344,0.0025,0.0655,0.0096,0.0972,0.0179c0.0027,0.0011,0.0049,0.0003,0.0076,0.0014 c0.0394,0.0161,0.0794,0.0307,0.1189,0.0467c0.0113,0.0064,0.0259,0.0073,0.0366,0.0144c0.4165,0.1679,0.8348,0.3315,1.2539,0.4927 c7.8865,3.0326,16.0705,5.6148,24.4053,7.0602c4.3702,0.7578,8.8426,1.2416,13.2226,0.3256 c4.2867-0.8966,8.3974-2.5825,12.3317-4.4736c6.4653-3.1077,12.6454-6.8771,18.5081-11.006 c0.6819-0.4803,1.0471-0.843,1.8722-0.8293c1.4386,0.0238,2.8783,0.0973,4.3162,0.146c12.9152,0.437,25.8305,0.8739,38.7458,1.3109 c4.5974,0.1555,9.1947,0.3111,13.7921,0.4666c0.7433,0.0252,1.2781-0.0311,1.9003,0.3923c2.2765,1.5492,4.3638,3.5,6.2186,5.5227 c2.7888,3.0415,5.2136,6.6204,6.2503,10.6599C213.433,46.0903,212.7006,50.5942,210.515,54.3528z"/></g><g id="change3_1"><path fill="#fdf5b6" d="M141.2169,31.6779c-1.7518,12.4636-16.2542,14.4252-26.4494,15.364 c-7.7666,0.7152-15.6687,1.175-23.4658,0.7831c-5.9516-0.2992-12.5431-1.0546-17.615-4.4652 c-4.7685-3.2065-6.6836-8.4981-6.4439-14.1014c0.2705-6.3239,3.1251-12.2134,7.3853-16.82 C84.7274,1.5179,101.3786-2.1131,115.5659,1.1571c12.7074,2.9291,24.9185,12.3669,25.8078,26.2139 c0,0.0002-0.0001,0.0005-0.0001,0.0007C141.448,28.8116,141.4177,30.2487,141.2169,31.6779z"/></g><g id="change4_1"><path fill="#fdf5b6" d="M61.7664,53.5245c-9.1202,4.7202-18.2404,9.4404-27.3606,14.1606 c-5.7742,2.9885-11.5484,5.9769-17.3226,8.9654c-0.3092,0.16-0.6679,0.072-0.8551-0.2242 c-0.7029-1.1122-1.4057-2.2245-2.1086-3.3369c-0.1748-0.2766-0.0669-0.701,0.2242-0.8551c2.0962-1.1098,4.1925-2.2195,6.2887-3.3293 c9.1375-4.8375,18.275-9.675,27.4125-14.5125c5.7333-3.0353,11.4667-6.0706,17.2-9.1059c0.1121-0.0593,0.2194-0.0729,0.3225-0.0684 c0.1998-0.0107,0.4022,0.0654,0.5325,0.2924c0.7425,1.293,1.485,2.586,2.2275,3.879c0.1614,0.2811,0.0772,0.6991-0.2242,0.8551 C65.9909,51.3381,63.8787,52.4313,61.7664,53.5245z M79.2195,52.7232c-1.2366-0.6667-2.4732-1.3333-3.7098-2 c-0.2841-0.1531-0.5512-0.067-0.7291,0.1108c-0.0402,0.0345-0.0724,0.079-0.1044,0.1262c-0.0065,0.0103-0.0129,0.0198-0.0189,0.0303 c-0.0216,0.0359-0.0497,0.0632-0.0657,0.1061c-2.0903,5.6003-4.1805,11.2007-6.2708,16.801 c-3.3302,8.9225-6.6604,17.845-9.9907,26.7675c-0.7625,2.043-1.525,4.0859-2.2875,6.1289 c-0.0884,0.2368,0.0547,0.5973,0.2872,0.7058c1.3249,0.6183,2.6498,1.2366,3.9748,1.8549c0.3872,0.1807,0.7696,0.0291,0.9181-0.3735 c2.0681-5.6048,4.1362-11.2097,6.2043-16.8145c3.2663-8.852,6.5325-17.7041,9.7988-26.5561 c0.7603-2.0605,1.5206-4.1211,2.2809-6.1816C79.5986,53.1799,79.4472,52.846,79.2195,52.7232z M110.6588,61.2733 c-0.1137-1.9636-0.2274-3.9271-0.3411-5.8907c-0.0195-0.3373-0.2705-0.625-0.625-0.625c-1.4616,0-2.9232,0-4.3849,0 c-0.1135,0-0.2068,0.0292-0.2883,0.072c-0.2043,0.0791-0.3578,0.261-0.3365,0.553c0.3875,5.3356,0.775,10.6711,1.1625,16.0067 c0.6182,8.5116,1.2363,17.0233,1.8545,25.5349c0.1426,1.9636,0.2852,3.9271,0.4278,5.8907c0.0245,0.337,0.2665,0.625,0.625,0.625 c1.2288,0,2.4577,0,3.6865,0c0.3234,0,0.6446-0.2866,0.625-0.625c-0.309-5.3356-0.6179-10.6711-0.9268-16.0067 C111.6445,78.2966,111.1517,69.7849,110.6588,61.2733z M151.982,74.9964c-4.0045-7.1986-8.0091-14.3973-12.0136-21.5959 c-0.9194-1.6526-1.8387-3.3053-2.7581-4.9579c-0.1644-0.2955-0.5676-0.3912-0.8551-0.2242 c-1.2166,0.7066-2.4332,1.4133-3.6499,2.1199c-0.2153,0.1251-0.2927,0.3149-0.2914,0.5056 c-0.0098,0.111,0.0012,0.2274,0.0675,0.3495c2.4509,4.5133,4.9019,9.0266,7.3528,13.54c3.8885,7.1606,7.777,14.3211,11.6655,21.4817 c0.9035,1.6637,1.8069,3.3275,2.7104,4.9911c0.1678,0.3091,0.5614,0.3732,0.8551,0.2242c1.3932-0.7066,2.7865-1.4133,4.1797-2.1199 c0.3056-0.155,0.3806-0.574,0.2242-0.8551C156.9734,83.969,154.4777,79.4827,151.982,74.9964z M196.4586,54.7801 c-5.461-2.2083-10.9219-4.4165-16.3829-6.6248c-8.7046-3.5199-17.4091-7.0398-26.1137-10.5596 c-1.9986-0.8082-3.9971-1.6163-5.9957-2.4245c-0.3041-0.123-0.5317,0.0096-0.6522,0.2248 c-0.0801,0.0966-0.1389,0.2165-0.1389,0.3778c0,1.4816,0,2.9632,0,4.4448c0,0.3008,0.1992,0.4985,0.4588,0.6027 c5.2194,2.0945,10.4388,4.189,15.6582,6.2835c8.3228,3.3399,16.6456,6.6798,24.9685,10.0197 c1.9153,0.7686,3.8305,1.5371,5.7457,2.3057c0.257,0.1031,0.5723-0.0703,0.7058-0.2872c0.7066-1.1483,1.4133-2.2965,2.1199-3.4448 C197.064,55.3213,196.8183,54.9255,196.4586,54.7801z"/></g></svg>