<?xml version="1.0" encoding="UTF-8" standalone="no"?><svg xmlns="http://www.w3.org/2000/svg" xmlns:xlink="http://www.w3.org/1999/xlink" contentScriptType="text/ecmascript" fill="#000000" width="545" zoomAndPan="magnify" contentStyleType="text/css" viewBox="-9.1 -2.5 545.0 502.8" height="502.8" preserveAspectRatio="xMidYMid meet" version="1"><g id="change1_1"><path fill="#bae6ff" d="M92.6,104.2c1.4-8.6,10-53.8,52.1-82.8c23.6-16.3,53.2-23.9,81.7-20.6s55.7,17.7,73.9,39.9 c8.9-5.8,36.2-21.9,72.9-18.5c11.2,1,40.4,3.7,63.5,27.9c27,28.3,25.1,64.6,24.7,71.2c19.4-1.8,38.4,9,50.4,24.4s17.9,34.6,21,53.8 c2.1,12.8,3.1,26-0.2,38.5c-3.1,11.5-9.8,21.9-17.7,30.7c-21.1,23.6-52.2,37.9-83.9,38.7c-31.7,0.8-63.4-12-85.7-34.5 c-4.6,7.1-21.6,31-53.2,39.2c-33,8.7-69.3-3.1-94.2-30.1c-6.5,3.5-83.3,43.1-145,5.9c-7.2-4.4-29-17.9-42.1-45.3 c-4.3-8.9-19.9-45.3-2.7-83.3C22.2,127.8,55.1,106.9,92.6,104.2z M132.2,359.9c0,4.4,0,8.9,0,13.3c0,7.7,6.8,15.1,14.7,14.7 c8-0.4,14.7-6.5,14.7-14.7c0-4.4,0-8.9,0-13.3c0-7.7-6.8-15.1-14.7-14.7C139,345.6,132.2,351.7,132.2,359.9L132.2,359.9z M257.3,405.3c0,6.6,0,13.3,0,19.9c0,7.7,6.8,15.1,14.7,14.7c8-0.4,14.7-6.5,14.7-14.7c0-6.6,0-13.3,0-19.9 c0-7.7-6.8-15.1-14.7-14.7C264,390.9,257.3,397,257.3,405.3L257.3,405.3z M356.1,337.2c-0.8,4.8-1.5,9.6-2.3,14.4 c-0.6,4-0.7,7.7,1.5,11.4c1.8,3.1,5.3,6,8.8,6.8c7.1,1.6,16.8-2.2,18.1-10.3c0.8-4.8,1.5-9.6,2.3-14.4c0.6-4,0.7-7.7-1.5-11.4 c-1.8-3.1-5.3-6-8.8-6.8C367.2,325.3,357.4,329,356.1,337.2L356.1,337.2z M71.1,446.2c0,3.9,0,7.7,0,11.6c0,7.7,6.8,15.1,14.7,14.7 c8-0.4,14.7-6.5,14.7-14.7c0-3.9,0-7.7,0-11.6c0-7.7-6.8-15.1-14.7-14.7S71.1,438,71.1,446.2L71.1,446.2z M179.8,470.3 c0,5,0,10,0,14.9c0,7.7,6.8,15.1,14.7,14.7c8-0.4,14.7-6.5,14.7-14.7c0-5,0-10,0-14.9c0-7.7-6.8-15.1-14.7-14.7 C186.6,455.9,179.8,462.1,179.8,470.3L179.8,470.3z M355.7,448.7c0,3.9,0,7.7,0,11.6c0,7.7,6.8,15.1,14.7,14.7 c8-0.4,14.7-6.5,14.7-14.7c0-3.9,0-7.7,0-11.6c0-7.7-6.8-15.1-14.7-14.7S355.7,440.5,355.7,448.7L355.7,448.7z M432.6,398.9 c-0.5,7.2-1,14.4-1.5,21.6c-0.5,7.7,7.2,15.1,14.7,14.7c8.4-0.4,14.2-6.5,14.7-14.7c0.5-7.2,1-14.4,1.5-21.6 c0.5-7.7-7.2-15.1-14.7-14.7C438.9,384.6,433.2,390.7,432.6,398.9L432.6,398.9z"/></g><g id="change2_1"><path fill="#272626" d="M299.7,203.6c-1.1,5-5.7,8.7-10.6,8.7c-1.6,0-3.1-0.4-4.6-1.1c-7.7-3.7-15.5-5.5-23.9-5.5 c-7.4,0-15.2,1.3-26.2,4.3c-1,0.3-1.9,0.4-2.9,0.4c-5.7,0-9.3-4.6-9.9-9.2c-0.7-5.3,2.2-9.7,7.3-11.1c12.1-3.3,22.1-4.8,31.4-4.8 c11.9,0,23.1,2.6,34.2,7.9C298.7,195.2,300.7,199.2,299.7,203.6z M238.9,127.2c0.8,0.2,1.6,0.3,2.4,0.3c5,0,9.1-3.1,10.2-7.6 l2.7-11.6c0.6-2.8,0.1-5.8-1.4-8.3c-1.4-2.2-3.5-3.7-6-4.3c-0.8-0.2-1.6-0.3-2.4-0.3c-5,0-9.1,3.1-10.2,7.6l-2.7,11.6 c-0.6,2.8-0.1,5.8,1.4,8.3C234.3,125.1,236.4,126.7,238.9,127.2z M311.5,97.4c-0.8-0.2-1.7-0.4-2.6-0.4c-4.8,0-9,3.2-10.1,7.7 c-1.1,4.7-2.5,9.4-4.1,14c-0.8,2.4-0.6,5.1,0.7,7.5c1.4,2.6,3.8,4.6,6.5,5.4c0.9,0.2,1.8,0.4,2.7,0.4c4.4,0,8.3-2.9,9.9-7.4 c1.7-4.8,3.1-9.7,4.3-14.6C320.1,104.4,316.9,98.9,311.5,97.4z"/></g><g id="change3_1"><path fill="#fffefe" d="M463.7,204.4c1.5-3.9,4.9-6.1,9.1-5.1c3.6,0.8,6.5,5.5,5.1,9.1c-1.3,3.5-2.7,7-4,10.5 c-1.5,3.9-4.9,6.1-9.1,5.1c-3.6-0.8-6.5-5.5-5.1-9.1C461,211.4,462.3,207.9,463.7,204.4L463.7,204.4z M494.7,192.3 c-1.1,3.5-2.3,7-3.4,10.5c-1.2,3.7,1.4,8.2,5.1,9.1c4.1,0.9,7.8-1.2,9.1-5.1c1.1-3.5,2.3-7,3.4-10.5c1.2-3.7-1.4-8.2-5.1-9.1 C499.7,186.2,496,188.3,494.7,192.3L494.7,192.3z M480.6,233.1c-0.5,1.9-1,3.7-1.5,5.6c-1,3.7,1.3,8.2,5.1,9.1 c3.9,0.9,8-1.2,9.1-5.1c0.5-1.9,1-3.7,1.5-5.6c1-3.7-1.3-8.2-5.1-9.1C485.8,227.1,481.7,229.1,480.6,233.1L480.6,233.1z M122,84.1 c-1.5,2.9-3.1,5.8-4.6,8.7c-1.8,3.4-1,8.2,2.6,10.1c3.4,1.8,8.1,1,10.1-2.6c1.5-2.9,3.1-5.8,4.6-8.7c1.8-3.4,1-8.2-2.6-10.1 C128.7,79.7,124,80.5,122,84.1L122,84.1z M157.2,70c-1.5,3.2-3.1,6.3-4.6,9.5c-1.7,3.5-1.1,8.1,2.6,10.1c3.3,1.7,8.3,1.1,10.1-2.6 c1.5-3.2,3.1-6.3,4.6-9.5c1.7-3.5,1.1-8.1-2.6-10.1C164,65.6,159,66.3,157.2,70L157.2,70z M131.1,113.1c-2.6,3.9-5.3,7.7-7.9,11.6 c-2.2,3.2-0.7,8.3,2.6,10.1c3.7,2,7.8,0.8,10.1-2.6c2.6-3.9,5.3-7.7,7.9-11.6c2.2-3.2,0.7-8.3-2.6-10.1 C137.4,108.5,133.4,109.7,131.1,113.1L131.1,113.1z"/></g></svg>