<?xml version="1.0" encoding="UTF-8" standalone="no"?><svg xmlns="http://www.w3.org/2000/svg" xmlns:xlink="http://www.w3.org/1999/xlink" contentScriptType="text/ecmascript" fill="#000000" width="455.2" zoomAndPan="magnify" contentStyleType="text/css" viewBox="0.0 0.0 455.2 446.9" height="446.9" preserveAspectRatio="xMidYMid meet" version="1"><defs><clipPath id="a"><path d="M 0 0 L 455.21875 0 L 455.21875 446.949219 L 0 446.949219 Z M 0 0"/></clipPath></defs><g><g id="change1_1" clip-path="url(#a)"><path fill="#ffbd6f" d="M 103.027344 179.308594 C 86.746094 163.90625 71.210938 151.492188 58.660156 136.574219 C 49.359375 125.519531 40.527344 111.957031 37.496094 98.191406 C 31.304688 70.070312 55.242188 51.46875 80.839844 64.851562 C 100.355469 75.054688 117.164062 90.535156 134.824219 104.132812 C 143.273438 110.640625 150.902344 118.21875 163.605469 129.480469 C 163.605469 101.789062 162.101562 79.921875 164.132812 58.386719 C 165.484375 44.078125 169.003906 28.371094 176.648438 16.59375 C 191.953125 -6.972656 221.476562 -5.183594 233.195312 20.351562 C 241.257812 37.90625 244.535156 58.148438 247.144531 77.5625 C 249.371094 94.152344 247.605469 111.28125 247.605469 135.496094 C 262.40625 114.980469 272.09375 99.523438 283.828125 85.820312 C 297.484375 69.882812 311.488281 53.613281 327.972656 40.890625 C 347.613281 25.734375 366.457031 27.109375 378.96875 39.859375 C 391.691406 52.820312 392.402344 70.082031 377.359375 90.5 C 363.425781 109.421875 346.765625 126.34375 331.253906 144.097656 C 324.15625 152.214844 316.929688 160.214844 305.847656 172.667969 C 332.566406 169.855469 353.226562 165.9375 373.867188 166.019531 C 393.464844 166.097656 413.335938 169.027344 432.527344 173.257812 C 445.285156 176.070312 453.308594 186.464844 454.976562 200.269531 C 456.734375 214.8125 448.613281 226 437.109375 230.21875 C 416.289062 237.925781 394.695312 243.367188 372.707031 246.449219 C 353.15625 249.097656 332.96875 247.007812 310.027344 247.007812 C 318.144531 262.34375 332.78125 263.953125 343.710938 270.070312 C 370.910156 285.289062 391.027344 305.589844 399.695312 336.519531 C 403.324219 349.464844 404.464844 361.125 394.664062 371.261719 C 383.375 382.933594 369.421875 382.078125 356.832031 375.007812 C 340.742188 365.882812 325.3125 355.644531 310.652344 344.367188 C 296.027344 333.207031 282.703125 320.347656 264.792969 304.730469 C 261.148438 336.917969 259.105469 364.449219 254.527344 391.554688 C 251.976562 406.214844 247.074219 420.363281 240.011719 433.460938 C 230.851562 450.417969 216.320312 451.332031 203.957031 436.515625 C 188.425781 417.898438 180.28125 395.75 178.792969 371.53125 C 178.046875 359.394531 178.664062 347.171875 178.664062 329.109375 C 160.101562 343.050781 146.210938 354.65625 131.160156 364.484375 C 113.566406 375.96875 95.527344 387.140625 76.511719 395.910156 C 68.882812 399.433594 56.042969 399.542969 49.289062 395.304688 C 38.101562 388.28125 37.023438 375.527344 40.84375 361.945312 C 48.585938 334.398438 64.453125 312.816406 86.21875 295.183594 C 97.71875 285.867188 109.9375 277.441406 128.101562 263.964844 C 109.128906 262.332031 96.199219 262.605469 83.941406 259.875 C 59.941406 254.535156 35.546875 249.460938 12.789062 240.53125 C -2.917969 234.367188 -4.296875 217.523438 9.429688 207.929688 C 22.335938 198.914062 37.730469 192.550781 52.917969 187.941406 C 68.117188 183.332031 84.417969 182.339844 103.027344 179.308594"/></g></g></svg>