<?xml version="1.0" encoding="UTF-8" standalone="no"?><svg xmlns="http://www.w3.org/2000/svg" xmlns:xlink="http://www.w3.org/1999/xlink" contentScriptType="text/ecmascript" fill="#000000" width="2094.5" zoomAndPan="magnify" contentStyleType="text/css" viewBox="-0.4 0.0 2094.5 500.0" height="500" preserveAspectRatio="xMidYMid meet" version="1"><g id="change1_1"><path fill="#bae6ff" d="M1412.2,0H2060c7.2,0,11.9,7.6,8.7,14.1c-9.6,19.3-19.3,38.5-28.9,57.8c-1.6,3.1-1.3,6.8,0.6,9.7 c10.3,15.5,20.6,30.9,30.9,46.4c2.6,3.9,2.1,9-1.2,12.3l-45.9,45.9c-3.5,3.5-3.8,9.1-0.7,12.9c22.7,28.3,45.3,56.6,67.9,84.9 c2.2,2.7,2.7,6.4,1.4,9.7c-11.7,29.2-23.4,58.4-35,87.6c-0.9,2.1-0.9,4.5-0.2,6.7c11,33.1,22,66.1,33.1,99.2 c2.1,6.3-2.6,12.8-9.2,12.8H36.2c-7.8,0-12.4-8.7-8.1-15.1l25.5-38.2c1.8-2.7,2.1-6.2,0.8-9.2C36.6,395.7,18.7,354,0.8,312.3 c-1.2-2.9-1-6.2,0.6-8.8c17.5-29.1,34.9-58.2,52.4-87.3c1.7-2.8,1.8-6.4,0.4-9.3l-33.6-67.1c-1.6-3.1-1.3-6.8,0.6-9.7l32.2-48.3 c1.9-2.9,2.2-6.6,0.6-9.7l-28.9-58C21.9,7.6,26.6,0,33.8,0H1365 M1365,0h47.2"/></g><g id="change2_1"><path fill="#fff9ed" d="M2027.7,500h19.2v-96.2h16c-1.8-5.3-3.5-10.6-5.3-15.9c-0.4-1.1-0.5-2.2-0.5-3.4h-10.3v-96.2h46.5 c-0.3-1.6-0.9-3.1-1.9-4.4c-3.9-4.9-7.9-9.9-11.8-14.8h-32.7v-40.9c-6.4-8-12.8-16-19.2-24v64.9h-76.9v-76.9h70.7 c0.2-2.3,1.1-4.4,2.8-6.2l22.7-22.7v-72c-2.2-3.2-4.3-6.5-6.5-9.7c-1.9-2.9-2.2-6.6-0.6-9.7c2.4-4.7,4.7-9.5,7.1-14.2V0h-19.2v67.3 h-76.9V0h-19.2v67.3h-76.9V0h-19.2v67.3h-76.9V0h-19.2v67.3h-76.9V0h-19.2v67.3h-76.9V0h-19.2v67.3H1470V0h-19.2v67.3h-76.9V0h-19.2 v67.3h-76.9V0h-19.2v67.3h-76.9V0h-19.2v67.3h-76.9V0h-19.2v67.3h-76.9V0H970v67.3h-76.9V0h-19.2v67.3H797V0h-19.2v67.3h-76.9V0 h-19.2v67.3h-76.9V0h-19.2v67.3h-76.9V0h-19.2v67.3h-76.9V0h-19.2v67.3h-76.9V0h-19.2v67.3H220V0h-19.2v67.3h-76.9V0h-19.2v67.3h-53 l2.3,4.6c1.6,3.1,1.3,6.8-0.6,9.7l-3.3,4.9h54.5V173H37.3l9.6,19.2h57.7v76.9H21.9c-3.8,6.4-7.7,12.8-11.5,19.2h94.2v96.2H31.8 c2.7,6.4,5.5,12.8,8.2,19.2h64.6V500h19.2v-96.2h76.9V500H220v-96.2h76.9V500h19.2v-96.2H393V500h19.2v-96.2h76.9V500h19.2v-96.2 h76.9V500h19.2v-96.2h76.9V500h19.2v-96.2h76.9V500h19.2v-96.2h76.9V500h19.2v-96.2H970V500h19.2v-96.2h76.9V500h19.2v-96.2h76.9 V500h19.2v-96.2h76.9V500h19.2v-96.2h76.9V500h19.2v-96.2h76.9V500h19.2v-96.2h76.9V500h19.2v-96.2h76.9V500h19.2v-96.2h76.9V500 h19.2v-96.2h76.9V500h19.2v-96.2h76.9V500h19.2v-96.2h76.9V500H2027.7z M1931.5,269.2h-76.9v-76.9h76.9V269.2z M316.1,192.3H393 v76.9h-76.9V192.3z M296.9,269.2H220v-76.9h76.9V269.2z M412.3,192.3h76.9v76.9h-76.9V192.3z M508.4,192.3h76.9v76.9h-76.9V192.3z M604.6,192.3h76.9v76.9h-76.9V192.3z M700.8,192.3h76.9v76.9h-76.9V192.3z M796.9,192.3h76.9v76.9h-76.9V192.3z M893.1,192.3H970 v76.9h-76.9V192.3z M989.2,192.3h76.9v76.9h-76.9L989.2,192.3L989.2,192.3z M1085.4,192.3h76.9v76.9h-76.9V192.3z M1181.5,192.3 h76.9v76.9h-76.9V192.3z M1277.7,192.3h76.9v76.9h-76.9V192.3z M1373.8,192.3h76.9v76.9h-76.9V192.3z M1470,192.3h76.9v76.9H1470 V192.3z M1566.1,192.3h76.9v76.9h-76.9V192.3z M1662.3,192.3h76.9v76.9h-76.9V192.3z M1758.4,192.3h76.9v76.9h-76.9V192.3z M2027.7,86.5V173h-76.9V86.5H2027.7z M1931.5,86.5V173h-76.9V86.5H1931.5z M1835.4,86.5V173h-76.9V86.5H1835.4z M1739.2,86.5V173 h-76.9V86.5H1739.2z M1643.1,86.5V173h-76.9V86.5H1643.1z M1546.9,86.5V173H1470V86.5H1546.9z M1450.8,86.5V173h-76.9V86.5H1450.8z M1354.6,86.5V173h-76.9V86.5H1354.6z M1258.4,86.5V173h-76.9V86.5H1258.4z M1162.3,86.5V173h-76.9V86.5H1162.3z M1066.1,86.5V173 h-76.9V86.5H1066.1z M970,86.5V173h-76.9V86.5H970z M873.8,86.5V173h-76.9V86.5H873.8z M777.7,86.5V173h-76.9V86.5H777.7z M681.5,86.5V173h-76.9V86.5H681.5z M585.4,86.5V173h-76.9V86.5H585.4z M489.2,86.5V173h-76.9V86.5H489.2z M393.1,86.5V173h-76.9 V86.5H393.1z M296.9,86.5V173H220V86.5H296.9z M123.8,86.5h76.9V173h-76.9C123.8,173,123.8,86.5,123.8,86.5z M123.8,192.3h76.9v76.9 h-76.9C123.8,269.2,123.8,192.3,123.8,192.3z M123.8,384.6v-96.2h76.9v96.2L123.8,384.6L123.8,384.6z M220,384.6v-96.2h76.9v96.2 L220,384.6L220,384.6z M316.1,384.6v-96.2H393v96.2L316.1,384.6L316.1,384.6z M412.3,384.6v-96.2h76.9v96.2L412.3,384.6L412.3,384.6 z M508.4,384.6v-96.2h76.9v96.2L508.4,384.6L508.4,384.6z M604.6,384.6v-96.2h76.9v96.2L604.6,384.6L604.6,384.6z M700.8,384.6 v-96.2h76.9v96.2L700.8,384.6L700.8,384.6z M796.9,384.6v-96.2h76.9v96.2L796.9,384.6L796.9,384.6z M893.1,384.6v-96.2H970v96.2 L893.1,384.6L893.1,384.6z M989.2,384.6v-96.2h76.9v96.2L989.2,384.6L989.2,384.6z M1085.4,384.6v-96.2h76.9v96.2L1085.4,384.6 L1085.4,384.6z M1181.5,384.6v-96.2h76.9v96.2L1181.5,384.6L1181.5,384.6z M1277.7,384.6v-96.2h76.9v96.2L1277.7,384.6L1277.7,384.6 z M1373.8,384.6v-96.2h76.9v96.2L1373.8,384.6L1373.8,384.6z M1470,384.6v-96.2h76.9v96.2L1470,384.6L1470,384.6z M1566.1,384.6 v-96.2h76.9v96.2L1566.1,384.6L1566.1,384.6z M1662.3,384.6v-96.2h76.9v96.2L1662.3,384.6L1662.3,384.6z M1758.4,384.6v-96.2h76.9 v96.2L1758.4,384.6L1758.4,384.6z M1854.6,384.6v-96.2h76.9v96.2L1854.6,384.6L1854.6,384.6z M1950.8,384.6v-96.2h76.9v96.2 L1950.8,384.6L1950.8,384.6z"/></g></svg>