<?xml version="1.0" encoding="UTF-8" standalone="no"?><!-- Generator: Adobe Illustrator 23.0.1, SVG Export Plug-In . SVG Version: 6.00 Build 0)  --><svg xmlns="http://www.w3.org/2000/svg" xmlns:xlink="http://www.w3.org/1999/xlink" contentScriptType="text/ecmascript" zoomAndPan="magnify" contentStyleType="text/css" id="Layer_1" enable-background="new 0 0 486.8 112.9" version="1.1" xml:space="preserve" fill="#000000" preserveAspectRatio="xMidYMid meet" viewBox="0 0 486.8 112.9" x="0px" y="0px">
<g id="change1_1"><path fill="#fd87b1" d="m98.3 39.2c-7.2-8.8-16.4-18.2-31-19.7-18.1-1.8-34.5 3.3-49.7 12.7-2.4 1.5-4.4 3.7-6.2 5.9-2.7 3.2-5.6 4.3-8.4 2.7-3-1.7-4-5.2-1.7-8.8 2.2-3.4 4.6-6.9 7.8-9.2 19-13.2 40.1-19.3 63.3-15.7 15 2.3 26 11.8 35.5 23 3.6 4.3 3.4 4.1 8.8 2.3 25.6-8.7 51.4-16 79-13.9 14.3 1.1 26.3 6.5 36.5 16.2 0.8 0.8 1.7 1.6 2.7 2.6 1.5-1.2 2.9-2.4 4.4-3.4 18.8-13.3 39.3-23 62.2-26.9 18.2-3 34.4 1.3 47.5 15 0.5 0.6 1.2 1 2 1.7 17-12.4 36.7-17.7 57-21.2 15.8-2.7 31.7-3.5 47.5-0.8 14.1 2.4 25.2 9.4 30.4 23.5 0.5 1.5 1 3.2 0.9 4.7-0.1 2.8-1.8 4.8-4.6 5.4-3 0.7-5.2-0.8-6.7-3.2-1.3-2.1-2.1-4.4-3.6-6.3-4.9-6.3-11.4-10.1-19.2-10.9-30.9-3.1-60.5 1.3-88.1 16.2-1.4 0.8-2.7 1.7-4.4 2.8 0.9 1.3 1.7 2.4 2.5 3.5 12.4 15.8 17.5 33.8 16 53.8-0.9 11.7-7.4 18.5-19.1 18.8-6 0.1-12.2-0.3-17.9-1.8-23.6-6.3-33.2-29.2-21.1-50.5 4-7 9.5-13.1 14.5-19.6 1.5-1.9 3.3-3.5 4.9-5.3-9-11-20.7-14.3-34.1-12.6-17.2 2.1-32.5 9.3-47.4 17.5-5.3 3-10.2 6.7-15 9.9 2.7 6.4 5.3 12 7.4 17.7 2.8 7.8 3.2 15.9 2.1 24.1-2.3 16.7-19.6 27-35.3 20.8-7.2-2.8-11.2-8.6-12.4-16.1-1.7-11-0.2-21.6 6.3-31 4-5.7 8.5-11 12.9-16.8-7.1-7.2-15.1-12.8-25.6-13.9-15.1-1.7-29.9-0.8-44.6 3.1-9.9 2.6-19.7 5.4-29.5 8.2-2 0.6-3.8 1.5-5 2 2.1 7.2 5 14 5.8 21 0.9 7.5 0.5 15.4-0.6 22.9-2.1 13.4-13.9 22.9-27.5 23.2-19.5 0.5-28-8.3-27.3-27.7 0.5-12.1 5.6-21.9 13.6-30.4 4.8-5 9.4-10 14.5-15.5zm251.2 3.6c-7.3 7.2-14 14.6-18.1 23.8s-2.1 18.8 4.6 23.8c7.4 5.5 15.9 6.6 24.8 5.7 2.6-0.3 4.1-1.9 4.4-4.6 1.6-18.2-3.2-34.4-15.7-48.7zm-242.5 10.1c-6.4 4.2-11.8 9.3-16.5 15-5.7 6.9-7.2 14.9-6.5 23.5 0.2 3 1.3 6 4.5 6.9 11.3 2.9 21.7 0.4 23.8-14 0.6-4.1 0.6-8.3 0.6-12.5-0.2-6.8-2-13.1-5.9-18.9zm125.7 4.9c-3.8 5.1-7.5 9.6-10.6 14.3-3.9 5.9-4.5 12.6-3.4 19.5 0.4 2.9 1.8 5.3 4.9 6.1 7.5 1.9 14.1-1.9 15.6-9.4 2.1-10.7-0.8-20.4-6.5-30.5z"/></g>
</svg>