<?xml version="1.0" encoding="UTF-8" standalone="no"?><svg xmlns="http://www.w3.org/2000/svg" xmlns:xlink="http://www.w3.org/1999/xlink" contentScriptType="text/ecmascript" fill="#000000" width="383.6" zoomAndPan="magnify" contentStyleType="text/css" viewBox="-1.2 -0.2 383.6 500.7" height="500.7" preserveAspectRatio="xMidYMid meet" version="1"><g><g><g><g id="change1_1"><path fill="#f37f65" d="M121,500c-2.9,0-5.6-0.8-8.1-2.2c-3.9-2.3-7.1-5.4-9.7-8.1c-0.7-0.7-1.4-1.4-2-2.1 c-3.8-4-7.7-8-12.1-11.5c-6.6-5.1-13.9-8.2-21.8-9.1c-0.7-0.1-1.4-0.1-2.2-0.1c-1.1,0-2.1,0.1-3.1,0.1c-0.1,0-0.2,0-0.3,0 c-1.3,0-2.2-0.5-3-1.7c-4.4-6.4-8.8-12.9-13.2-19.1l-0.5-0.8c-0.5-0.7-1-1.4-0.5-2.4l-6.3-9.2l-14.4-20.6 c0,0-22.3-32.1-22.5-32.3c-1.1-1.7-1.5-3.5-1-5.2c0.5-1.7,1.8-3,3.7-3.8c0.5-0.2,1-0.3,1.5-0.4c0.2-0.1,0.5-0.1,0.7-0.2 c0.5-0.3,1.1-0.4,1.6-0.4c0.5-0.1,1-0.1,1.5-0.4c0.4-1.3,1.3-2.5,2.7-3.6c-0.1-1.2,0.6-1.4,1.5-1.7c0.1,0,0.3-0.1,0.4-0.1 c0.2-0.8,0.7-1.2,1.3-1.6l0.1-0.1c2.4-1.7,5.2-2.7,8.5-3.2c1.5-0.2,3-0.3,4.6-0.3c2.2,0,4.6,0.2,7.6,0.6c5.4,0.8,10.6,2.2,16,4.2 c6.9,2.7,12.9,6.6,17.3,9.8c3.3,2.3,5.8,4.2,8,6.1l0.5,0.4c1.6,1.4,3.3,2.8,4.7,4.5c0.7,0.8,1.1,1.2,1.5,1.2 c0.4,0,0.9-0.3,1.6-0.7c4.6-3,9.9-5.6,16.3-8c6.7-2.5,13.5-4.4,19.9-6.1c0.8-0.2,1.3-0.6,1.7-1.1l1.6-3.5 c1.3-2.8,2.6-5.6,3.9-8.4c0.6-1.2,0.5-1.3-0.6-2c-5-2.9-9.7-6.8-14.8-12.5c-3.4-3.8-5.5-8.1-6-12.9c-0.4-3.6,0.5-6.9,2.6-9.8 c0.4-0.5,0.8-1,1.4-1.3l0.1-0.3l0.1-0.3c-3.6-4.1-6.5-8.7-8.9-12.6c-0.9-1.5-1.8-3.1-2.7-4.6c-0.4-0.7-0.8-1.4-1.2-2 c-0.8,0.2-1.6,0.4-2.3,0.7c-0.9,0.3-1.7,0.6-2.6,0.8c-1.1,0.2-2.2,0.3-3.3,0.3c-1.1,0-2.3-0.1-3.3-0.4c-6.2-1.5-11-4.7-14.4-9.5 c-3.8-5.4-3.7-12,0.5-17.7c0.6-0.9,1.3-1.6,2.1-2.4c0.2-0.2,0.3-0.4,0.3-0.6c0-0.2-0.1-0.3-0.3-0.5c-0.7-0.6-1.5-1.4-2.1-2.1 c-4.2-4.6-5-10.8-1.9-16.3c1.9-3.3,4.6-5.9,8.4-7.8c5.1-2.6,10.6-5,17.4-7.7c3.9-1.5,7.2-3.7,10.1-6.5c0.8-0.7,1.5-1.5,2.3-2.2 c1.6-1.5,3.3-3.1,4.7-4.8c0.7-0.8,1.7-1.4,2.5-1.8c3.6-3.3,7.3-6.3,10.3-8.9c6.7-5.5,14.7-9.1,24.5-10.9 c3.8-0.7,7.6-1.1,11.3-1.1c2.1,0,4.1,0.1,6.1,0.3c3.2,0.4,6.3,1.3,9.2,2.3c0.4,0.1,0.8,0.3,1.3,0.4l0.6,0.2 c0.8-1,1.3-2.1,1.8-3.2c0.3-0.6,0.6-1.2,0.9-1.7c1.6-2.9,3.1-5.8,4.7-8.7c1.9-3.5,3.8-7,5.7-10.5c0.8-1.4,1.7-2.7,2.5-4 c0.6-0.9,1.2-1.8,1.8-2.7c0.5-0.7,1.1-0.8,1.7-0.8l0.4,0c0.5-1.1,1.3-2,2-2.8l0.3-0.3c4.4-4.8,10-8.1,16.9-10.1 c1.7-0.5,3.4-0.8,5.1-1.2c0.9-0.2,1.7-0.3,2.6-0.5c0.3-0.4,0.7-0.6,1.1-0.8l0.2-0.1c5.5-2.9,11.6-5.6,18.5-8.3 c5.3-2,10.5-4.3,15.8-6.6c2.4-1.1,4.9-2.1,7.3-3.2l5-2.2c0.9-0.4,1.9-0.8,2.8-1.3l1.4-0.6c0.1-0.6,0-1.2-0.1-1.8 c-0.1-0.5,0-1,0.5-1.4c-1.9-8.7-6.1-16.2-12.8-23.1c-1.9-2-4-3.7-6.1-5.5c-0.6-0.5-1.1-1-1.7-1.5c-0.5-0.4-0.9-0.8-1.4-1.1 c-0.6-0.5-1.3-1-1.9-1.6c-0.8-0.7-1.6-1.3-2.4-1.8c-1.5-0.9-2.2-2.3-2.1-4.1c-3.5-2.9-8-6.7-11.6-11.6 c-5.6-7.7-6.7-16.2-3.1-25.4c1.5-3.8,3.5-7.4,5.5-10.8l0.5-1c5.6-9.7,12-19.1,19.3-27.9c3.5-4.3,7.6-8.2,12.6-12.1 c3.7-2.9,7.3-4.3,11.2-4.3l0.1,0c5.7,0.1,10.3,2.5,13.6,7.2c2.6,3.6,3.6,7.9,4.2,11.1c1,5.5,1,10.9,0.9,16c0,1.8-0.1,3.6-0.2,5.4 c-0.2,3.7-0.4,7.4-0.2,11.2c1.1,0.1,1.6,0.9,2,1.7c1.8,3.1,4.1,5.8,6.4,8.3c2.6,2.9,5,5.9,7.4,8.9l0.5,0.6 c0.2,0.3,0.4,0.6,0.8,0.6c1.4-3.3,3.7-6.1,6.8-8.5c5.3-4,10.8-6,16.8-6h0.2c7,0,13,2.5,17.8,7.3c7.7,7.8,13.1,17,16,27.3 c2.2,8,3.4,14.8,3.7,21.4c0.3,6.3-0.6,11.7-2.7,16.4c-3.7,8.5-10.3,13.6-19.6,15.1c-0.5,0.1-1,0.1-1.5,0.1 c-2.1,0-4.1-0.7-5.8-1.4l-1.5,1.8c-1.1,1.3-2.1,2.7-3.2,4c-0.9,1-2.1,2.4-3.5,3.5l-0.4,1.9l-1,4.5c-0.2,0.7-0.4,1.4-1.3,1.5 c-0.7,5-1.8,10.1-3.6,15.5c-2.9,9.1-5.8,16.5-9.1,23.1c-2.4,4.8-5.5,9.1-8.5,13c-0.5,0.6-0.9,1.2-1.3,1.8 c-1.1,1.5-2.3,3.1-3.7,4.6c-0.4,0.7-0.4,1.5-0.3,2.3c0,0.2,0,0.3,0,0.5c0.1,4.8-0.7,9.5-2.6,14.5c-1.4,3.8-3.4,7.5-5.3,11.1 l-0.6,1.1c-1.1,2.1-2.3,4.2-3.8,6.6c-1.6,2.6-3.4,5.1-5.1,7.5c-0.6,0.9-1.3,1.8-1.9,2.7c-0.9,1.2-1.7,2.4-2.6,3.6 c-1.6,2.3-3.1,4.5-4.8,6.7c-2.1,2.9-4,5.9-6,8.8c-1.8,2.7-3.7,5.6-5.6,8.3c-0.4,0.6-0.9,1.3-1.3,1.9c-0.8,1.3-1.7,2.6-2.7,3.7 c-0.1,0.3-0.1,0.5-0.4,0.6c0,1.5,0.5,2.8,0.9,4.2c0.2,0.4,0.3,0.9,0.5,1.3c1.7,5.4,3.5,10.8,5.2,16.1c0.8,2.3,1.5,4.7,2.3,7 c0.6,2,1.3,3.9,1.9,5.9c0.7,2,1.3,4,2,6.1l0.1,0.2c0.1,0.4,0.3,0.8,0.2,1.2c1.5,2.1,2.4,4.6,3.3,6.9c0.2,0.4,0.3,0.9,0.5,1.3 c2.9,7.3,4.8,13.5,5.9,19.4c0.9,4.5,1.7,9.9,0.4,15.2c-2.4,9.8-8.6,16.7-18.5,20.7c-3.5,1.4-7.4,2.1-12.1,2.1 c-0.9,0-1.9,0-2.9-0.1c-4.7-0.2-9.6-1.2-15-2.9c-2.7-0.9-5.5-2.1-8.7-3.9c-2.7-1.5-5.5-2.9-8.5-4.3c-6.2-3-12.8-6.3-18.9-10.7 c-8.6-6.2-14.9-12-19.8-18.3c-3-3.7-5.2-7.8-6.7-12l-2.3,1.3c0.6,3.2,0.7,6.7,0.4,11.2c-0.1,1.2-0.2,2.5-0.4,3.7 c-0.1,0.6-0.1,1.1-0.2,1.7c0,0.1,0.1,0.2,0.1,0.3c0.1,0.2,0.1,0.4,0.3,0.5c2,1.3,3.2,3.3,4.2,5.3c0.2,0.4,0.4,0.8,0.7,1.2 c2.9,5,5.7,10.2,8.5,15.2l1.4,2.5c1,1.8,2,3.6,2.9,5.3c1,1.9,2.1,3.8,3.1,5.6c1.3,2.4,2.7,4.8,4,7.2c1.2,2.2,2.4,4.3,3.6,6.5 c1,1.8,2,3.5,2.9,5.3c1,1.8,2,3.6,2.9,5.3c2.6,4.7,5.3,9.4,7.9,14.2c1.7,2.9,2,5.7,1.1,8.4l-0.1,0.3c-0.2,0.7-0.5,1.5-1.3,1.8 c-0.2,0.6-0.6,1-1.2,1.1c-0.1,0.7-0.5,1-1,1.3c-0.2,0.2-0.5,0.3-0.7,0.5c0.3,1.5,0.3,2.9-0.1,4.1c-0.6,2.3-2.1,3.5-4.5,3.7 c-0.3,0-0.7,0-1,0c-1.8,0-3.5-0.3-5.1-0.5c-4-0.7-8-1.1-11.9-1.1c-1.4,0-2.7,0-4.1,0.1c-8.8,0.5-16.3,2.1-23.1,4.9 c-2.4,1-4.7,2.2-7.5,4c-8.1,5.2-17.5,11.4-26.3,18.2c-0.5,0.4-0.9,0.6-1.4,0.6c-0.1,0-0.2,0-0.3,0c-2.6,2-5.5,3.5-9.1,4.5 c-0.1,1.3-1,1.7-2,1.9C123.6,499.8,122.3,500,121,500z"/></g><g id="change2_1"><path fill="#f4bfbe" d="M314.8,220.9c0.1,5-0.8,9.8-2.6,14.5c-1.6,4.3-3.8,8.2-5.9,12.2c-1.2,2.2-2.5,4.4-3.8,6.6 c-2.1,3.5-4.6,6.8-7,10.2c-2.4,3.5-4.8,7-7.3,10.4c-4,5.6-7.6,11.5-11.6,17.1c-1.3,1.9-2.4,3.9-4,5.6c0-0.7-0.3-1.4-0.5-2 c-1.3-3.9-2.8-7.7-3.9-11.7c-0.5-1.6-0.9-3.3-1.3-4.9c-0.2-0.7-0.6-1-1.3-0.8c-0.6,0.1-0.8,0.6-0.7,1.2c0,0.2,0.1,0.3,0.1,0.5 c1.4,5.8,3.4,11.5,5.5,17.1c0.3,0.9,0.9,1.4,1.8,1.3c0,1.9,0.9,3.6,1.4,5.4c2.4,7.7,5,15.4,7.5,23.1c1.3,4,2.6,7.9,3.9,11.9 c0.1,0.5,0.3,0.9,0.2,1.4c-1.9-1.6-4.1-2.5-6.5-2.9c-3.2-0.6-6.3-0.3-9.4,0.4c-6.2,1.5-11.7,4.2-16,9.1c-0.5,0-0.9,0.3-1.3,0.6 c-0.8-0.1-1.3-0.6-1.9-0.9c-4.9-3.3-9.8-6.5-14.7-9.8c-0.3-0.2-0.7-0.4-1-0.7c-0.7-0.6-0.9-1.7-0.5-2.4c1.8-3.5,3.2-7.2,3.7-11.2 c0.4-2.9,0.6-5.9-0.5-8.7c-0.7-1.9-1.7-3.5-3.6-4.4c-0.1-0.8-0.3-1.5-1.3-1.6c-0.1-3.2-0.3-6.4-0.9-9.6c-0.4-2.4-0.5-4.8-1.7-7 c0.7-1.2-0.3-1.7-0.9-2.4c0.6-6.3-0.5-12.1-4.1-17.3c-0.7-1.1-1.6-2-2.4-3.1c-0.2-1.7-0.4-3.4-0.6-5.1c-1.4-9.2-4.1-18-7.7-26.6 c-5.3-12.6-14-22.3-26.2-28.6c-1.8-0.9-3.7-1.8-5.6-2.6c0.2-1,0.6-1.9,1.1-2.8c2.3-3.7,4.2-7.6,6.2-11.5c2.9-5.4,5.7-10.9,9.4-16 c0.5-0.7,0.8-1.4,0.7-2.3c0.5-1.2,1.4-2.1,2.3-3.1c4.6-5,10.3-8.2,16.9-10.1c2.5-0.7,5.1-1.1,7.7-1.7c1.7,0.2,3.4-0.4,5.1-0.4 c5.2,0.1,10.5-0.2,15.7,0.3c1.6,0.2,3.2,0.3,4.7,0.6c3.2,0.5,6.3,1.4,9.4,2.2c7.5,2,14.7,4.5,21.6,8.1c6.8,3.5,12.7,8,17.6,13.8 c3.8,4.4,6.8,9.3,8.9,14.7c2.2,5.8,4.2,11.6,4.9,17.8c0.1,1-0.1,2.1,0.6,3C314.6,219,314.8,219.9,314.8,220.9z M224.7,445.9 c1.5,2.7,2.1,5.5,1.1,8.5c-0.3,0.8-0.5,1.7-1.5,2.1c-0.5-1.2-0.9-2.4-1.5-3.6c-4.7-10.1-10.5-19.6-16-29.4 c-0.2-0.4-0.4-0.7-0.7-1c-0.2-0.3-0.6-0.4-1-0.3c-0.4,0.2-0.6,0.5-0.6,1c0.1,0.6,0.4,1.1,0.7,1.6c2.2,4,4.5,7.9,6.7,11.9 c3.6,6.4,7.2,12.7,10.1,19.5c0.2,0.6,0.5,1.1,1,1.4c-0.1,1-1.1,1.2-1.7,1.8c-0.4-0.9-0.5-2-1.4-2.6c-2.2-4-4.5-8-6.7-12 c-5.9-10.5-11.8-20.9-17.7-31.4c-5.8-10.2-11.5-20.4-17.3-30.6c-0.6-1.1-1.3-2.1-2.5-2.6c-0.1-0.7-0.6-0.9-1.3-1 c-2.4-0.4-4.9-0.4-7.4-0.6c-4.8-0.3-9.5,0.4-14.2,0.9c-4.6,0.5-9.2,1.2-13.8,2c-8.1,1.5-15.9,3.5-23.6,6.5 c-6.4,2.5-12.8,5-19,8.1c-1.6,0.8-3.2,1.5-4.9,2.1c-4.6,1.8-8.9,1.5-13.1-1.3c-6.2-4.1-12.3-8.3-18.7-12 c-9-5.3-18.4-9.7-28.5-12.6c-5.4-1.5-10.9-2.5-16.5-2.3c-1.8,0-3.6,0.5-5.5,0.4c0.5-1.5,1.5-2.6,2.7-3.6c0.5,0.3,1,0.4,1.5,0.4 c3.5,0,6.9,0,10.4,0.3c3.3,0.3,6.5,0.7,9.8,1.4c4.6,1,9,2.6,13.3,4.6c0.4,0.2,0.8,0.4,1.1,0.4c0.4,0.1,0.8-0.1,1-0.5 c0.2-0.4,0.1-0.8-0.3-1.1c-0.3-0.3-0.7-0.5-1-0.6c-8.5-4-17.4-6-26.7-6.3c-2.4-0.1-4.8-0.2-7.2-0.3c0.1-0.9,0.8-1.3,1.4-1.7 c2.6-1.8,5.4-2.8,8.5-3.2c4.1-0.6,8.2-0.3,12.3,0.3c5.5,0.8,10.8,2.2,16,4.2c6.3,2.4,11.9,5.9,17.3,9.8c2.7,1.9,5.4,3.9,8,6.1 c1.8,1.6,3.7,3.1,5.3,4.9c1.3,1.5,1.4,1.5,3,0.5c5.1-3.3,10.6-5.9,16.3-8c6.5-2.4,13.2-4.3,19.9-6.1c0.7-0.2,1.3-0.5,1.7-1.1 c0.7,0.8,1.4,0.3,2.1,0.1c9.2-2.2,18.6-3.4,28.1-3.3c2.7,0,5.4,0.2,8.1,0.3c6.4,0.3,12.6,1.3,18.7,3.4c0.5,0.2,1,0.4,1.5,0.2 c0.1,0.3,0.2,0.7,0.4,0.8c2.5,1.6,3.6,4.2,4.9,6.6c3.3,5.9,6.6,11.8,9.9,17.7c2,3.6,4,7.3,6.1,11c2.5,4.6,5.1,9.1,7.7,13.7 c2,3.5,3.9,7.1,5.9,10.7C219.4,436.4,222.1,441.1,224.7,445.9z M71,378.9c-0.3-0.4-0.7-0.6-1.1-0.9c-4.9-3.5-10.1-6.5-15.6-9 c-1.9-0.9-3.8-1.7-6-2.2c-0.4,0-0.9,0-1.1,0.7c-0.2,0.6,0.2,1,0.8,1.2c0.8,0.3,1.7,0.5,2.5,0.8c6.5,2.6,12.6,5.9,18.2,10 c0.4,0.3,0.9,0.6,1.4,0.7c0.4,0,0.7,0,0.9-0.4C71.3,379.6,71.2,379.2,71,378.9z M136.4,378.3c0-0.3-0.4-0.6-1-0.5 c-1.2,0.1-2.5,0.3-3.7,0.5c-5,0.9-9.9,2-14.8,3.4c-8.2,2.4-16,5.6-23.5,9.5c-0.7,0.4-1.3,0.8-1.9,1.3c-0.4,0.3-0.5,0.7-0.3,1.1 c0.3,0.5,0.7,0.6,1.2,0.4c0.2-0.1,0.4-0.2,0.6-0.3c4.1-2.3,8.4-4.3,12.8-6.1c8.5-3.4,17.4-5.9,26.5-7.4c1.1-0.2,2.2-0.4,3.3-0.6 C136,379.5,136.4,379.2,136.4,378.3z M139.1,373c0-0.5-0.6-0.9-1.4-0.9c-1.1,0.1-2.2,0.2-3.3,0.4c-4.2,0.7-8.3,1.6-12.4,2.7 c-5.4,1.5-10.8,3-15.9,5.2c-0.4,0.2-0.9,0.3-1.2,0.6c-0.4,0.4-0.6,0.8-0.3,1.3c0.2,0.5,0.7,0.4,1.1,0.3c0.4-0.1,0.8-0.3,1.2-0.4 c7.7-3.1,15.7-5.2,23.8-7c2.3-0.5,4.6-0.8,7-1.1C138.6,374.1,139.2,373.6,139.1,373z"/></g><g id="change3_1"><path fill="#ce97c1" d="M342.7,134c0.4,4.5,0.3,9.1,0,13.6c-0.3,3.7-0.9,7.4-1.9,10.9c-0.2,0.7-0.1,1.3,0.6,1.6 c-0.7,5.3-1.9,10.4-3.6,15.5c-2.5,7.9-5.4,15.7-9.1,23.1c-2.3,4.7-5.3,8.9-8.5,13c-1.6,2.1-3.1,4.4-5,6.3c-0.7-0.9-0.5-2.1-0.6-3 c-0.6-6.2-2.6-12-4.9-17.8c-2.1-5.4-5.2-10.3-8.9-14.7c-4.9-5.8-10.8-10.4-17.6-13.8c-6.9-3.5-14.1-6.1-21.6-8.1 c-3.1-0.8-6.2-1.7-9.4-2.2c-1.6-0.3-3.1-0.4-4.7-0.6c-5.2-0.5-10.5-0.2-15.7-0.3c-1.7,0-3.4,0.6-5.1,0.4c0.3-0.5,0.8-0.7,1.3-0.9 c6-3.2,12.2-5.9,18.5-8.3c5.3-2,10.6-4.3,15.8-6.6c4.1-1.8,8.2-3.6,12.3-5.4c1.4-0.6,2.8-1.2,4.2-1.9c0.1,1.8,0.2,3.5-0.2,5.3 c-1.4,5.7-3.8,11-7,15.9c-0.6,1-1.4,1.9-2.3,2.6c-1,0.8-1.4,1.4-0.9,1.8c0.7,0.6,1.4,0.2,2.1-0.3c0.4-0.3,0.9-0.6,1.2-1 c0.9-1.1,1.7-2.1,2.4-3.2c2.6-4.2,4.5-8.7,6-13.4c1-3.1,1.2-6.2,0.6-9.4c-0.2-0.9-0.5-1.4-1.5-1.4c-2-8.9-6.4-16.5-12.8-23 c-2.5-2.5-5.2-4.7-7.8-6.9c-1.1-0.9-2.2-1.8-3.3-2.7c-0.7-0.7-1.5-1.3-2.4-1.8c-1.6-0.9-2.2-2.4-2.1-4.2c0.7-0.3,1.3,0,1.9,0.1 c6.5,1.1,12.8,0.9,19-1.5c7.2-2.8,13.4-7.2,18.6-12.9c4.6-5,7.9-11,10.6-17.3c1.4-3.4,2.5-6.9,2.9-10.5c1.1,0.1,1.6,0.9,2,1.7 c1.7,3.1,4,5.7,6.4,8.2c2.7,3,5.3,6.2,7.8,9.4c0.3,0.3,0.4,0.7,0.9,0.8c0,0.7,0.6,1.1,0.9,1.6c1.4,2.1,2.8,4.1,4.2,6.2 c-0.4,0.9-0.2,1.6,0.5,2.4c0.8,0.8,1.5,1.8,2.1,2.8c4.9,8.2,8.6,16.9,10.5,26.3C340.4,118.2,342,126,342.7,134z M361.2,109.5 c-1.3-9.2-5-17.3-12.2-23.5c-6.4-5.6-13.7-8.5-22.3-7.2c4.6,5.2,7.2,11.4,9.9,17.6c2.7,6.5,4.2,13.3,5.4,20.2 c0.6,3.8,1.3,7.5,1.9,11.3c0.9,6.2,1.3,12.4,0.7,18.7c-0.2,1.8-0.3,3.6-0.4,5.5c1.3-1,2.4-2.2,3.5-3.5c1.6-1.9,3.1-3.8,4.6-5.8 c1.8-3.1,3.6-6.2,5.1-9.4c0.1-0.3,0.3-0.6,0.4-0.9c0.2-0.6,0.4-1.2,0.6-1.8C361.1,124,362.3,116.9,361.2,109.5z M97.8,298.7 c-0.8,0.3-1.6,0.6-2.5,0.9c-2,0.6-4,1-6.1,0.7c-5.8-0.9-10.5-3.6-14.2-8.1c-2.2-2.6-3.3-5.7-3-9.2c0.3-3.3,1.8-6.2,4-8.7 c0.8-0.9,1.6-2,3.1-1.1c0.1,0.1,0.3,0,0.5,0c0.4,0,0.7-0.3,0.8-0.6c0.1-0.4,0-0.7-0.3-1c-0.3-0.2-0.6-0.3-0.9-0.5 c-2.6-1.1-4.5-2.9-6-5.3c-2.2-3.6-2.5-7.3-0.7-11.1c1.7-3.7,4.4-6.2,7.9-8c5.5-2.8,11.1-5.2,16.8-7.4c4.2-1.6,7.9-3.9,11.2-7 c2.5-2.3,4.9-4.8,7.3-7.2c1-1,1.6-1.9,1-3.3c-0.9,0.5-1.8,1-2.6,1.8c-2.2,2.5-4.7,4.6-7,7c-2.9,2.8-6.3,5-10,6.5 c-5.9,2.3-11.8,4.8-17.4,7.7c-3.6,1.8-6.4,4.3-8.4,7.8c-3.2,5.6-2.3,11.8,1.9,16.3c0.7,0.7,1.4,1.4,2.2,2.1c0.4,0.4,0.4,0.7,0,1 c-0.8,0.7-1.5,1.5-2.1,2.4c-3.9,5.4-4.5,12.1-0.5,17.8c3.6,5,8.5,8.1,14.4,9.5c2.2,0.5,4.4,0.5,6.6,0.1c1.7-0.3,3.2-1.1,4.9-1.5 C99,299.7,98.9,298.9,97.8,298.7z M197.6,173.5c-1.4,2.2-3,4.3-4.3,6.7c-3.5,6.4-6.9,12.8-10.4,19.2c-0.9,1.6-1.6,3.4-2.7,4.9 c0.5,0.8,1.2,1.2,2.2,0.9c0.2-1,0.6-1.9,1.1-2.8c2.3-3.7,4.2-7.6,6.2-11.5c2.9-5.4,5.7-10.9,9.4-16c0.5-0.7,0.8-1.4,0.7-2.3 C198.9,172.7,198.1,172.6,197.6,173.5z M268.3,283.7c-0.5-1.6-0.9-3.3-1.3-4.9c-0.2-0.7-0.6-1-1.3-0.8c-0.6,0.1-0.8,0.6-0.7,1.2 c0,0.2,0.1,0.3,0.1,0.5c1.4,5.8,3.4,11.5,5.5,17.1c0.3,0.9,0.9,1.4,1.8,1.3c0.2-0.1,0.3-0.4,0.4-0.7c0-0.7-0.3-1.4-0.5-2 C270.9,291.5,269.4,287.7,268.3,283.7z M129.6,282.5c-0.7-0.4-1.2,0.2-1.7,0.7c-1.1,1.2-2.3,2.4-3.5,3.5 c-1.3,1.3-2.8,2.4-4.3,3.3c-1.9,1.1-3.9,1.6-6.1,1.3c-2.4-0.3-4.2-1.5-5-3.9c-0.5-1.4-0.7-2.8-0.7-4.3c0-0.5,0-1,0-1.4 c-0.2-0.9-0.8-1.1-1.6-0.6c-0.3,0.2-0.7,0.5-1,0.7c-4.6,3.2-9.7,5.3-15,7c-0.5,0.2-1,0.3-1.5,0.5c-0.4,0.2-0.6,0.6-0.5,1 c0.1,0.5,0.5,0.7,0.9,0.7c0.5,0,0.9-0.1,1.4-0.3c1.6-0.5,3.3-1,4.9-1.5c3.5-1.5,6.9-3.1,10.3-5.3c0.2,0.9,0.3,1.5,0.4,2.1 c1,6.4,6.5,8,10.5,7.2c3.3-0.7,5.9-2.5,8.4-4.7c1.6-1.4,3-3,4.5-4.5C130.1,283.5,130.4,282.9,129.6,282.5z M196.2,274.2 c-4.4-1.8-8.7-3.8-12.9-6.1c-1.2-0.7-2.5-1.3-3.9-1.6c-4.6-1-7.1,1-8,4.7c-0.4,1.5-0.4,3-0.4,4.6c0,0.6,0.2,1.1,0.8,1.4 c1-0.2,1.1-0.9,1.1-1.7c-0.1-1.7,0.2-3.4,0.9-5c0.6-1.4,1.6-2.1,3.1-2.2c1.9-0.1,3.5,0.5,5,1.4c4.4,2.4,8.9,4.6,13.5,6.4 c0.5,0.2,1.1,0.6,1.6,0.1c0.6-0.5,0.4-1,0.1-1.6C196.8,274.5,196.5,274.4,196.2,274.2z M188,307.7c-5.3,1.3-8.8,5.7-8.7,11 c0.1,4.9,2.7,8.4,7.4,10.2c1.7-2.4,2.9-4.9,3.8-7.7c1.4-4.4,2.1-8.9,3.2-13.3C191.8,307.3,189.9,307.2,188,307.7z M129.5,331.2 c2.1,3,4.4,5.8,6.8,8.5c1.9,2.2,4,4.3,6.6,5.8c1-3.3,0.8-6.4-0.9-9.4C140.1,332.9,135.4,329.5,129.5,331.2z"/></g><g id="change4_1"><path fill="#3b2c5a" d="M114.1,291.4c-2.4-0.3-4.2-1.5-5-3.9c-0.5-1.4-0.7-2.8-0.7-4.3c0-0.5,0-1,0-1.4c-0.2-0.9-0.8-1.1-1.6-0.6 c-0.3,0.2-0.7,0.5-1,0.7c-4.6,3.2-9.7,5.3-15,7c-0.5,0.2-1,0.3-1.5,0.5c-0.4,0.2-0.6,0.6-0.5,1c0.1,0.5,0.5,0.7,0.9,0.7 c0.5,0,0.9-0.1,1.4-0.3c1.6-0.5,3.3-1,4.9-1.5c-0.6,1.5-0.5,3,0,4.4c0.6,1.7,1.2,3.4,1.9,5.1c-0.8,0.3-1.6,0.6-2.5,0.9 c-2,0.6-4,1-6.1,0.7c-5.8-0.9-10.5-3.6-14.2-8.1c-2.2-2.6-3.3-5.7-3-9.2c0.3-3.3,1.8-6.2,4-8.7c0.8-0.9,1.6-2,3.1-1.1 c0.1,0.1,0.3,0,0.5,0c0.4,0,0.7-0.3,0.8-0.6c0.1-0.4,0-0.7-0.3-1c-0.3-0.2-0.6-0.3-0.9-0.5c-2.6-1.1-4.5-2.9-6-5.3 c-2.2-3.6-2.5-7.3-0.7-11.1c1.7-3.7,4.4-6.2,7.9-8c5.5-2.8,11.1-5.2,16.8-7.4c4.2-1.6,7.9-3.9,11.2-7c2.5-2.3,4.9-4.8,7.3-7.2 c1-1,1.6-1.9,1-3.3c3.4-3,6.8-6,10.3-8.9c7.2-5.9,15.5-9.3,24.6-11c5.8-1.1,11.6-1.4,17.4-0.7c3.2,0.4,6.2,1.3,9.2,2.3 c0.6,0.2,1.2,0.4,1.8,0.6c0.5,0.8,1.2,1.2,2.2,0.9c1.9,0.9,3.8,1.7,5.6,2.6c12.2,6.3,20.9,15.9,26.2,28.6 c3.6,8.5,6.3,17.4,7.7,26.6c0.3,1.7,0.4,3.4,0.6,5.1c-0.7-0.1-1.1-0.7-1.6-1.1c-2.8-2.1-6-3.2-9.4-2.8 c-6.6,0.8-11.4,4.3-14.3,10.3c-0.3-0.1-0.7-0.2-1-0.3c-4.4-1.8-8.7-3.8-12.9-6.1c-1.2-0.7-2.5-1.3-3.9-1.6c-4.6-1-7.1,1-8,4.7 c-0.4,1.5-0.4,3-0.4,4.6c0,0.6,0.2,1.1,0.8,1.4c0,0.5,0,1.1-0.1,1.6c-0.2,2.1-0.4,4.2-1.5,6.1c-1.8,3.4-5.4,4.4-8.7,2.4 c-1.5-0.9-2.5-2.1-3.3-3.6c-0.9-1.6-1.7-3.2-2.6-4.8c-0.6-1.1-1.2-2.2-1.8-3.2c-0.7-1.1-1.6-1.4-2.9-1.2 c-1.7,0.4-2.4,1.6-2.8,3.1c-0.3,1.3-0.5,2.7-0.9,4c-0.6,2.6-1.1,5.2-2.7,7.4c-2.3,3.3-6.3,4.1-9.7,1.9c-1.7-1.1-2.8-2.6-3.8-4.4 c-0.4-0.8-0.8-1.6-1.2-2.4c0.1-0.6,0.4-1.2-0.3-1.6c-0.7-0.4-1.2,0.2-1.7,0.7c-1.1,1.2-2.3,2.4-3.5,3.5c-1.3,1.3-2.8,2.4-4.3,3.3 C118.3,291.1,116.3,291.7,114.1,291.4z M225.3,290c1-0.3,2-0.3,2.9,0.4c0.5,0.4,1.1,0.8,1.8,0.5c0.7-1.2-0.3-1.7-0.9-2.4 c-1.6-0.7-3.2-0.9-4.8-0.1c-0.8,0.4-1.3,1.2-2,1.4c-0.8,0.2-1.5-0.7-2.4-0.9c-2-0.3-3.6,0.2-5,1.6c-0.8,0.8-1.6,0.6-1.9-0.4 c0-0.1,0-0.2,0-0.4c0.2-2.6-0.7-4.8-2.3-6.9c-1-1.3-0.8-2.7-0.1-4c0.7-1.3,1.8-2.2,3.3-2.5c0.5-0.1,0.9-0.5,0.8-1 c-0.1-0.6-0.6-0.9-1.2-0.8c-0.4,0-0.8,0.2-1.2,0.3c-4.1,1.8-5.4,6.2-2.8,9.8c0.9,1.2,1.4,2.6,1.6,4.1c0.1,0.9-0.1,1.4-1.1,1.6 c-2.4,0.6-3.9,2.2-4.9,4.5c-0.3,0.7-0.4,1.5-0.9,2c-3.1-0.9-5-0.2-6.8,2.3c-0.8,1.1-1.4,2.3-1.8,3.6c-0.6,1.8-1.2,3.6-1.8,5.4 c-1.1,4.4-1.9,8.9-3.2,13.3c-0.9,2.7-2.1,5.3-3.8,7.7c-1.2,2-2.3,4.1-3.5,6.1c-1.8,3.4-2.6,7.1-2.2,10.9c0.2,1.8,0.6,3.6,1.1,5.4 c0.2,0.8,0.1,1.2-0.7,1.5c-1.7,0.6-3.4,1-5.1,1.2c-0.4,0.1-0.8,0-1.1-0.3c-2.6-2.3-5.8-2.9-9.2-2.9c-3.1,0-6.1-0.1-9.2-0.2 c-5.1-0.3-9.8-1.7-13.9-5c-2.5-1.5-4.6-3.6-6.6-5.8c-2.4-2.7-4.7-5.5-6.8-8.5c-2.2-2.7-4.4-5.6-6.9-8c-1.6-1.5-3.3-2.9-5.4-3.6 c-1.9-0.7-3.8-1-5.6,0.2c0,0.2-0.1,0.3-0.1,0.5c0.2,0.9,0.8,1,1.6,0.9c1.9-0.4,3.6,0.2,5.2,1.2c1.1,0.7,2,1.5,2.9,2.3 c2,1.9,3.8,4,5.5,6.2c2.6,3.5,5.3,6.9,8.2,10.2c3.1,3.5,6.7,6.4,10.9,8.6c3.9,2.1,8.1,2.7,12.5,2.8c3.4,0.1,6.7,0,10.1,0.3 c4.4,0.5,7.8,3.1,8.1,7.9c0,0.3,0.1,0.7,0.2,1c0.1,0.4,0.4,0.7,0.9,0.7c0.6,0,0.9-0.4,0.9-0.9c0-0.6-0.1-1.3-0.1-1.9 c-0.1-1.3-0.8-2.4-1-3.7c1.7-0.4,3.3-0.9,4.8-1.3c0.7-0.5,1.5-0.9,2.2-1.4c0.3-0.6,0.1-1.2-0.1-1.9c-2.1-6.2-1.7-12.1,1.9-17.6 c0.7-1.1,1.3-2.2,2-3.3c2.7-4.4,4.7-9.1,5.6-14.2c0.8-4.3,2-8.6,3.5-12.8c0.5-1.5,1.1-2.9,2.2-4c1.9-2,4-1.8,5.3,0.6 c0.7,1.3,1,2.7,1.1,4.2c0.4,5.1-0.7,10-2.8,14.6c-0.1,0.3-0.3,0.5-0.4,0.8c-0.2,0.5-0.2,1,0.3,1.3c0.5,0.3,1.1,0.1,1.4-0.4 c0.3-0.5,0.6-1,0.8-1.5c1.4-3.1,2.2-6.3,2.6-9.7c0.3-3.2,0.5-6.4-1-9.4c-0.8-1.6-0.6-2.9-0.1-4.4c0.5-1.4,1.3-2.6,2.8-3.3 c1.6-0.8,2.9-0.4,3.8,1c0.5,0.7,0.8,1.6,1,2.4c0.9,3.3,0.9,6.7,0.5,10c-0.4,3.5-1.4,6.9-2.5,10.3c-0.2,0.7-0.4,1.5-0.6,2.2 c-0.1,0.6-0.1,1.1,0.6,1.3c0.7,0.2,1.1-0.2,1.3-0.9c0-0.1,0-0.1,0-0.2c0.7-2.3,1.5-4.5,2-6.8c1.6-6.1,2.3-12.2,0-18.3 c-0.2-0.5,0-0.9,0.2-1.3c1.2-2,3.9-2.1,5.4-0.3c1.1,1.2,1.5,2.8,1.8,4.4c0.7,3.4,0.3,6.8-0.5,10.2c-0.7,2.9-1.6,5.7-2.6,8.4 c-0.2,0.7-0.6,1.4,0.3,1.9c0.6,0.3,1.1-0.1,1.5-1.3c1.3-3.6,2.5-7.2,3.2-11c0.7-4,0.7-7.9-0.9-11.6 C223.5,291.3,223.8,290.5,225.3,290z M270.5,356.9c-5.7-3.5-11.4-6.9-17.1-10.3c-0.5,0-0.9,0.3-1.3,0.6c0,1,0.8,1.4,1.5,1.8 c5.3,3.2,10.7,6.5,16,9.7c0.4,0.2,0.7,0.4,1.1,0.6c0.4,0.2,0.8,0,1.1-0.4c0.2-0.4,0.2-0.8-0.1-1.1 C271.4,357.4,270.9,357.1,270.5,356.9z M232.4,307.4c-0.9,0.6-0.8,1.5-0.8,2.4c-0.3,5.2-1.4,10.3-3.6,15 c-0.2,0.4-0.4,0.8-0.6,1.3c-0.2,0.6-0.3,1.2,0.3,1.6c0.8,0.4,1.2-0.2,1.5-0.8c0.1-0.1,0.1-0.2,0.1-0.3c1.4-3.2,2.6-6.4,3.3-9.9 c0.5-2.6,0.7-5.1,1-7.7C233.6,308.2,233.4,307.5,232.4,307.4z M173.2,317.2c0.4-3.1-2.1-6.8-5.2-7.4c-2.6-0.6-4.4,0.9-4.4,3.6 c0,3.4,3.2,6.8,6.4,6.7C171.7,320.1,173,319,173.2,317.2z M133.5,322.4c-0.3,3,2.2,6.4,5.2,7.2c2.6,0.6,4.5-0.8,4.5-3.5 c0-3.3-3-6.7-6.1-6.8C135,319.2,133.6,320.3,133.5,322.4z M148.8,330.4c0.1,2.5,1,3.6,3.4,4.2c2.3,0.6,4.6,0.1,6.8-0.3 c0.1,0,0.2-0.1,0.3-0.1c0.5-0.2,0.8-0.6,0.6-1.1c-0.1-0.5-0.5-0.7-0.9-0.6c-0.6,0-1.2,0.1-1.8,0.2c-1.3,0.2-2.7,0.3-4,0.2 c-1.8-0.2-2.3-0.7-2.5-2.6c-0.1-0.8-0.1-1.5-0.1-2.3c0-0.7,0.1-1.4-0.1-2.1c-0.1-0.5-0.4-0.9-1-0.8c-0.6,0-0.8,0.4-0.8,1 c0,0.8,0,1.6,0,2.5c0,0,0,0,0,0C148.7,329.1,148.7,329.7,148.8,330.4z M159.5,340.6c0.5,0.2,1,0.3,1.5,0.3 c2.5,0.1,4.8-0.5,6.9-1.7c0.6-0.4,1.5-0.7,1.2-1.7c-0.2-0.7-0.9-0.7-2.1,0c-1.7,1-3.6,1.5-5.5,1.4c-0.5,0-1.1-0.1-1.6-0.1 c-0.5,0-0.8,0.2-0.9,0.7C158.9,340,159.1,340.4,159.5,340.6z M300.3,22.7c-2.5-2.2-5-1.5-6.1,1.6c-0.4,1.2-0.8,2.5-1.1,3.7 c-1.5,6.1-3.5,12-6,17.7c-3.9,9-9.4,16.7-16.7,23.2c-5.4,4.8-11.7,8-18.7,9.5c-4.4,1-8.8,0.9-12.6-2.1c-0.4-0.3-0.8-0.3-1.1,0 c-0.4,0.4-0.5,0.8-0.2,1.3c0.5,0.8,1.3,1.3,2.2,1.7c2.9,1.3,6,1.9,9.1,1.5c7.5-1,14.3-3.9,20.3-8.5c5.8-4.5,10.7-9.9,14.4-16.1 c4.6-7.6,8.1-15.8,10.3-24.5c0.5-1.9,1-3.9,1.6-5.8c0.3-0.9,0.4-2.2,1.5-2.4c1.2-0.2,1.9,0.8,2.6,1.6c0.4,0.5,0.7,1.1,1.2,1.6 c0.2,0.3,0.6,0.3,1,0.2c0.4-0.1,0.5-0.5,0.6-0.9c-0.1-0.2-0.2-0.6-0.4-0.9C301.7,24.2,301.1,23.4,300.3,22.7z M243.5,67.3 c0,0,0.2,0,0.3,0c4.1-0.3,7.6-1.9,11-4c5.1-3.2,9.1-7.4,12.6-12.3c4.2-5.9,7.6-12.2,11.2-18.4c5.2-8.9,9.5-18.3,13.1-28 c0.2-0.5,0.4-1,0.5-1.5c0.1-0.5-0.2-0.9-0.7-1.1c-0.5-0.1-0.8,0.1-1,0.5c-0.2,0.4-0.3,0.8-0.5,1.1c-3.1,8-6.3,16-10.6,23.5 c-1.8,3.2-3.6,6.4-5.4,9.6c-3,5.4-6.2,10.7-10,15.6c-4.1,5.3-9.2,9.5-15.5,12c-3.4,1.3-7,1.9-10.3-0.3c-0.4-0.3-0.8-0.2-1.1,0.1 c-0.4,0.4-0.3,0.9,0,1.3c0.4,0.5,1,0.8,1.6,1.1C240.1,67.1,241.7,67.3,243.5,67.3z M370.9,103.8c-1.3-8.7-4.5-16.7-8.7-24.3 c-1.3-2.4-2.8-4.8-4.6-6.9c-3.6-4.4-8-7.2-13.6-8.3c-3.1-0.6-6.3-0.8-9.5-0.8c-2.7,0-5.4,0.5-8,1.3c-0.7,0.2-1.5,0.5-1.2,1.4 c0.3,0.9,1.1,0.7,1.8,0.5c0.7-0.2,1.4-0.4,2-0.5c4.4-1.1,8.8-0.7,13.2-0.2c6.4,0.8,11.2,4.1,14.9,9.2c1.9,2.6,3.4,5.5,4.9,8.4 c6.7,12.9,8.9,26.5,7.1,40.8c-0.3,2.7-1.7,4.6-4,5.9c-2.3,1.3-4.7,2.1-7.3,2.5c-0.1,0.3-0.3,0.6-0.4,0.9c0.4,1,1.3,1,2.1,0.8 c3-0.6,5.9-1.8,8.3-3.7c1.8-1.4,2.8-3.2,3.1-5.4C372,118.2,372,111,370.9,103.8z"/></g><g id="change5_1"><path fill="#fcb436" d="M220,456.7c-2.2-4-4.5-8-6.7-12c-5.9-10.5-11.8-20.9-17.7-31.4c-5.8-10.2-11.5-20.4-17.3-30.6 c-0.6-1.1-1.3-2.1-2.5-2.6c-0.3,0.7-0.9,0.8-1.6,0.9c-1.4,0.1-2.7-0.4-4-0.4c-3.2,0-6.4-0.1-9.6,0c-3,0.1-6,0.5-8.9,0.9 c-2.8,0.4-5.6,0.7-8.4,1.2c-9.4,1.5-18.7,3.6-27.6,7.3c-4.7,2-9.4,3.8-14.1,5.8c-1.7,0.7-3.4,1.6-5.1,2.4 c-3.2,1.6-6.5,2.9-10,3.1c-2.8,0.1-5.5-0.5-7.9-2.1c-4.8-3.2-9.5-6.4-14.3-9.4c-5.7-3.5-11.5-7-17.6-9.8 c-7.2-3.3-14.8-6-22.6-7.5c-4.6-0.9-9.3-0.8-13.9-0.2c-0.8,0.1-1.5,0.1-2.3,0.3c-1.2,0.3-1.5-0.1-1.8-1.5 c-0.7,0.2-1.5,0.3-2.2,0.6c-3.9,1.6-5.1,5.6-2.7,9.1c0.3,0.4,0.6,0.9,0.9,1.3c7.2,10.3,14.4,20.7,21.6,31 c6.9,9.9,13.8,19.8,20.7,29.7c1.2-0.2,1.7,0.8,2.2,1.5c1.2,1.7,2.4,3.5,3.6,5.2c3.3,4.8,6.7,9.6,9.9,14.4 c0.6,0.8,1.2,1.2,2.2,1.1c1.6-0.1,3.2-0.2,4.9-0.1c4,0.4,7.8,1.3,11.4,2.8c5.4,2.1,10.1,5.2,14.4,9c3.7,3.3,7.2,6.8,10.6,10.4 c2.8,3,5.8,5.8,9.3,8.1c3.6,2.4,7.5,3.2,11.8,2.1c0.8-0.2,1.5-0.3,2.2,0.1c3.3-0.9,6.4-2.4,9.1-4.5c-0.6-1,0-1.7,0.7-2.2 c1-0.9,2.1-1.7,3.2-2.5c8.2-5.6,16.2-11.5,24.8-16.6c4.9-3,10.2-5,15.9-6.2c4.3-0.9,8.6-1.7,13-1.9c1.9-0.1,3.9-0.3,5.8-0.2 c4.2,0.2,8.3,0.5,12.4,1.2c1.4,0.2,2.8,0.5,4.2,0.5c2.4-0.1,3.5-1,3.5-3.4c0-1.1,0.1-2.1-0.4-3.1 C218.8,457.7,219.1,457.1,220,456.7z M101.1,474.1c-0.4,0.4-0.9,0.5-1.2,0c-0.3-0.4-0.6-0.9-0.8-1.4c-0.3-0.8-0.7-1.4-1.4-2 c-3.9-3.6-8-6.9-12.9-9.1c-4.7-2.1-9.5-3.5-14.7-3.4c-1.3,0-2.6,0-3.9,0c-1,0.1-1.6-0.3-2.2-1.2c-3.1-4.8-6.3-9.6-9.4-14.3 c-5.6-8.6-11.3-17.1-16.9-25.7c-6.4-9.7-12.8-19.4-19.2-29.1c-0.2-0.3-0.5-0.7-0.6-1.1c-0.6-1.5,0.4-3.1,2-3.1c0.9,0,1.9,0,3.1,0 c3.4-0.2,6.9,0.8,10.5,1.7c7.1,1.9,13.9,4.8,20.7,7.5c3.9,1.6,7.9,3.1,11.6,5.1c2.3,1.2,4.4,2.7,6.6,4.1c0.6,0.4,1,0.8,0.8,1.6 c-0.1,0.9,0.3,1.6,0.6,2.4c2.6,6.5,5.3,13,8,19.5c4.3,10.3,8.5,20.7,12.8,31c1.7,4,3.3,8.1,4.9,12.1c0.4,0.9,0.7,1.7,1.4,2.4 C101.8,471.9,101.7,473.3,101.1,474.1z M207.2,454.7c-0.4,0.2-0.8,0.1-0.9-0.2c-0.7-1.7-2.2-1.3-3.5-1.4 c-1.7-0.1-3.4-0.4-5.1-0.3c-5.7,0.1-11.2,0.8-16.8,1.9c-10.2,2-19.6,6.1-28.7,11.2c-6.7,3.7-13.2,7.8-19.2,12.6 c-0.4,0.3-0.7,0.6-1,0.9c-0.6,0.8-1.2,0.8-1.8,0c-0.3-0.4-0.6-0.9-0.8-1.4c-2-3.6-3.8-7.2-5.3-11c-2.2-5.4-4.5-10.7-6.8-16.1 c-1.7-3.9-3.4-7.8-5.1-11.6c-2.2-5-4.4-9.9-6.5-14.9c-2.5-5.9-4.1-12.2-5.3-18.5c-0.2-1.2,0-2.1,1-3c2.2-2,4.8-3.3,7.4-4.5 c4.8-2.2,9.7-4,14.7-5.5c7.9-2.4,15.8-4.7,23.9-6.3c3.2-0.6,6.4-1,9.6-1.3c2.1-0.2,4.1-0.2,6.2-0.3c1.2,0,2.4,0,3.5,0 c1.7,0,2.8,0.7,3.7,2.2c4.9,8.8,10,17.6,15,26.4c4.9,8.7,9.9,17.4,14.8,26.1c2.4,4.1,4.7,8.3,7.1,12.4c0.2,0.4,0.5,0.8,0.6,1.3 C207.9,454.2,207.5,454.5,207.2,454.7z M298.9,7.2c-3.3-4.7-7.9-7.1-13.7-7.2c-4.3,0-8,1.7-11.4,4.3c-4.6,3.6-8.9,7.6-12.6,12.1 c-7.2,8.8-13.6,18.1-19.3,27.9c-2.2,3.8-4.4,7.6-6.1,11.8c-3.5,9-2.7,17.5,3.1,25.4c3.3,4.5,7.3,8.1,11.6,11.6 c0.7-0.3,1.3,0,1.9,0.1c6.5,1.1,12.8,0.9,19-1.5c7.2-2.8,13.4-7.2,18.6-12.9c4.6-5,7.9-11,10.6-17.3c1.4-3.4,2.5-6.9,2.9-10.5 c-0.3-5.5,0.3-11.1,0.4-16.6c0.1-5.4,0.1-10.7-0.9-16C302.4,14.4,301.3,10.6,298.9,7.2z M237,65.4c-0.3-0.4-0.4-0.9,0-1.3 c0.3-0.3,0.7-0.4,1.1-0.1c3.4,2.2,6.9,1.6,10.3,0.3c6.3-2.5,11.3-6.7,15.5-12c3.8-4.9,7-10.2,10-15.6c1.8-3.2,3.6-6.4,5.4-9.6 c4.3-7.5,7.5-15.5,10.6-23.5c0.1-0.4,0.3-0.8,0.5-1.1c0.2-0.4,0.6-0.6,1-0.5c0.5,0.2,0.8,0.6,0.7,1.1c-0.1,0.5-0.3,1-0.5,1.5 c-3.6,9.7-7.9,19.1-13.1,28c-3.6,6.2-7,12.6-11.2,18.4c-3.5,4.9-7.5,9.1-12.6,12.3c-3.4,2.1-6.9,3.8-11,4c-0.2,0-0.4,0-0.3,0 c-1.8,0-3.4-0.2-4.9-0.8C238,66.2,237.4,65.9,237,65.4z M302.1,26.9c-0.4,0.1-0.7,0.1-1-0.2c-0.4-0.5-0.7-1.1-1.2-1.6 c-0.7-0.8-1.4-1.8-2.6-1.6c-1.2,0.2-1.3,1.4-1.5,2.4c-0.6,1.9-1.1,3.9-1.6,5.8c-2.2,8.7-5.7,16.9-10.3,24.5 c-3.8,6.3-8.7,11.6-14.4,16.1c-6,4.7-12.7,7.6-20.3,8.5c-3.2,0.4-6.2-0.2-9.1-1.5c-0.9-0.4-1.7-0.9-2.2-1.7 c-0.3-0.5-0.2-0.9,0.2-1.3c0.4-0.3,0.8-0.3,1.1,0c3.8,3,8.2,3,12.6,2.1c7-1.5,13.3-4.7,18.7-9.5c7.3-6.5,12.8-14.2,16.7-23.2 c2.5-5.8,4.5-11.6,6-17.7c0.3-1.3,0.7-2.5,1.1-3.7c1.1-3.1,3.6-3.7,6.1-1.6c0.8,0.7,1.4,1.5,1.9,2.3c0.2,0.3,0.3,0.6,0.4,0.9 C302.6,26.4,302.4,26.7,302.1,26.9z M379.2,129.1c-3.8,8.6-10.4,13.6-19.7,15.1c-2.5,0.4-4.9-0.3-7.2-1.2 c1.8-3.1,3.6-6.2,5.1-9.4c0.4,1,1.3,1,2.1,0.8c3-0.6,5.9-1.8,8.3-3.7c1.8-1.4,2.8-3.2,3.1-5.4c1-7.2,1-14.3-0.1-21.5 c-1.3-8.7-4.5-16.7-8.7-24.3c-1.3-2.4-2.8-4.8-4.6-6.9c-3.6-4.4-8-7.2-13.6-8.3c-3.1-0.6-6.3-0.8-9.5-0.8c-2.7,0-5.4,0.5-8,1.3 c-0.7,0.2-1.5,0.5-1.2,1.4c0.3,0.9,1.1,0.7,1.8,0.5c0.7-0.2,1.4-0.4,2-0.5c4.4-1.1,8.8-0.7,13.2-0.2c6.4,0.8,11.2,4.1,14.9,9.2 c1.9,2.6,3.4,5.5,4.9,8.4c6.7,12.9,8.9,26.5,7.1,40.8c-0.3,2.7-1.7,4.6-4,5.9c-2.3,1.3-4.7,2.1-7.3,2.5c0.2-0.6,0.4-1.2,0.6-1.8 c2.6-6.9,3.8-14,2.7-21.3c-1.3-9.2-5-17.3-12.2-23.5c-6.4-5.6-13.7-8.5-22.3-7.2c-0.3,0-0.7,0-1,0c-1.4-2.1-2.8-4.1-4.2-6.2 c-0.4-0.5-0.9-0.9-0.9-1.6c1.4-3.5,3.8-6.2,6.7-8.5c5-3.8,10.5-6,16.8-6c7,0,13,2.4,18,7.4c7.7,7.7,13.1,16.8,16,27.3 c1.9,7,3.4,14.1,3.7,21.4C382.2,118.3,381.5,123.9,379.2,129.1z M192.7,430.9c-3.1-5.5-6.3-11.1-9.4-16.6 c-3.3-5.8-6.6-11.6-9.9-17.4c-1.6-2.9-3.3-5.7-4.9-8.6c-0.4-0.7-0.8-1.1-1.6-1.1c-6.3-0.2-12.5,0.1-18.6,1.3 c-4.3,0.8-8.5,1.8-12.7,3c-7.5,2.1-15,4.1-22.2,7.1c-3.1,1.3-6.2,2.5-9,4.4c-1.5,1-2.5,2.1-1.7,4.1c0.2,0.6,0.2,1.3,0.3,1.9 c1.8,8.7,5.1,16.8,8.9,24.7c0.5,1.1,0.6,1.2,1.8,0.7c2.7-1,5.2-2.3,7.7-3.5c0.6-0.3,0.6-0.7,0.4-1.3c-1.8-4.1-2-8.3-1.1-12.6 c1.1-5.1,3.9-8.9,8.8-11c2.1-0.9,4.2-1.4,6.5-0.8c5.5,1.4,8.7,5.1,9.9,10.4c0.7,3.1,0,6.1-2.6,8.3c-1.6,1.4-3.5,2.1-5.6,2.4 c-3.3,0.6-6.9-0.9-8.5-3.8c-1.9-3.4-0.7-8.7,4.6-9.4c1.1-0.1,2.1,0.3,3,0.8c0.4,0.2,0.5,0.7,0.4,1.1c-0.2,0.5-0.6,0.5-1,0.5 c-0.4-0.1-0.8-0.2-1.2-0.3c-1.6-0.3-3.5,0.4-4.3,2.3c-0.7,2.1,0.1,4.5,1.9,5.8c3.6,2.4,8.7,0.5,10.6-2.3c0.7-1.1,1.2-2.4,1.1-3.7 c-0.3-3.3-1.7-6.1-4.3-8.2c-2.7-2.2-5.6-2.8-8.9-1.7c-4.5,1.5-7.1,4.8-8.2,9.2c-1,4.3-0.8,8.6,1.2,13c0.4-0.2,0.7-0.2,0.9-0.4 c2.5-1.2,4.9-0.8,7.1,0.8c1.4,1,2.6,2.2,3.9,3.3c1.6,1.4,3.1,2.9,5.4,3.1c1.4,0.1,2.7-0.1,4-0.5c2.1-0.5,4-1.3,6-2.2 c3.8-1.8,7.6-3.4,11.3-5.5c2.2-1.3,2.9-3.1,2.5-5.7c-0.3-1.8-0.8-3.4-1.4-5.1c-1.1-3.3-2.5-6.5-3.8-9.7c-1-2.4-0.9-4.3,1.7-6.4 c2.7-2.2,5.9-3.4,9.1-4.5c0.7-0.3,1.6-0.7,2.2,0.2c0.4,0.6-0.2,1.1-1.6,1.7c-2.4,0.9-4.9,1.7-7.1,3.1c-3.2,2-3.5,3.1-2,6.5 c1.9,4.2,3.5,8.5,4.6,13c0.3,1.5,0.4,2.9,0.1,4.4c-0.5,2.4-2.2,3.7-4.2,4.7c-2.6,1.3-5.2,2.7-7.9,3.9c-3.3,1.5-6.5,3.1-10.1,3.8 c-3.1,0.6-6,0.3-8.6-2.1c-1.6-1.5-3.2-3.2-5-4.5c-1.8-1.3-3.7-1.5-5.7-0.6c-3.6,1.7-7.2,3.5-10.9,5c-0.8,0.3-1,0.7-0.6,1.6 c1.2,2.6,2.3,5.2,3.4,7.8c2.2,5.1,4.4,10.2,6.6,15.2c2,4.5,3.6,9.1,6,13.4c0.5,1,1.1,1.9,1.6,2.8c0.3-0.1,0.4-0.1,0.5-0.2 c5.7-4.4,11.7-8.4,17.9-11.9c7.7-4.3,15.5-8.2,24-10.6c7.6-2.1,15.3-3.6,23.3-3.5c2.3,0,4.6-0.1,7,0.2c-0.3-1.1-0.8-1.9-1.3-2.7 C199.4,442.7,196,436.8,192.7,430.9z M188.8,442.9c-0.5,0.5-1.1,0.5-1.6,0c-0.7-0.7-1.5-1.4-2-2.2c-0.8-1.1-1.7-1.9-2.8-2.6 c-1.8-1.1-2.7-0.7-3.2,1.2c-0.3,1.2-0.5,2.4-0.8,3.6c-0.2,0.9-0.5,1.8-1.6,1.9c-1,0.2-1.7-0.5-2.2-1.2c-0.7-0.9-1.2-1.9-2-2.7 c-0.9-0.8-1.2-0.8-1.6,0.3c-0.4,1-0.7,2-1,3c-0.2,0.5-0.4,1-0.7,1.4c-0.9,1.3-2.1,1.4-3.3,0.3c-0.4-0.4-0.8-0.8-1.3-1.2 c-1.5-1.4-2.5-1.3-3.5,0.5c-0.8,1.5-1.5,3.1-2.4,4.5c-0.7,1.1-1.5,2-2.4,2.8c-1.6,1.3-3.4,1.3-5.1,0.4c-0.9-0.5-1.8-1.1-2.7-1.6 c-2.3-1.3-3.1-0.6-3.7,1.8c-0.3,1.2-0.3,2.4-0.4,3.7c0,0.7-0.2,1.4-0.6,2c-0.6,1-1.4,1.2-2.4,0.6c-0.6-0.4-1.2-0.8-1.6-1.3 c-0.7-0.8-1.5-1.3-2.4-1.8c-1.1-0.6-1.6-0.3-1.8,0.9c-0.1,0.4,0,0.8-0.1,1.2c0,2.1,0,4.1,0,6.2c0,0.8-0.1,1.5-0.4,2.2 c-0.2,0.4-0.5,0.7-1,0.6c-0.5-0.1-0.7-0.4-0.7-0.9c0-0.2,0-0.5,0-0.7c0-2.5,0-5,0-7.4c0-0.7,0.2-1.4,0.3-2.1c0.4-2.1,1.6-2.8,4-2 c1.1,0.4,2.1,1.1,3,1.9c0.4,0.3,0.7,0.8,1.4,1c0.6-0.9,0.6-1.8,0.6-2.6c0-1.2,0.3-2.3,0.7-3.4c0.8-2.1,2.8-2.9,4.9-2.1 c1.1,0.5,2.1,1.1,3.1,1.7c2,1.2,3.1,1.1,4.7-0.6c0.9-1,1.6-2.2,2.2-3.4c0.6-1.1,1-2.2,1.8-3.3c1.5-2.1,3.6-2.4,5.6-0.6 c0.4,0.4,0.8,0.8,1.3,1.2c0.5,0.5,0.8,0.4,1.1-0.2c0.3-0.9,0.6-1.9,1-2.8c0.2-0.7,0.4-1.3,0.9-1.9c1-1.2,2.1-1.4,3.4-0.4 c0.8,0.6,1.5,1.3,2.1,2.2c0.3,0.4,0.5,0.9,1.1,1.3c0.6-0.8,0.5-1.8,0.7-2.7c0.2-0.7,0.3-1.4,0.6-2c0.9-2,2.8-2.8,4.8-1.8 c1.3,0.6,2.5,1.6,3.5,2.7c0.9,1,1.8,2,2.7,3C189,442,189.3,442.4,188.8,442.9z M96,465.1c-3-7.3-6-14.7-9.1-22 c-3.1-7.6-6.3-15.2-9.3-22.9c-2.1-5.4-4.7-10.5-6.4-16.1c-0.1-0.4-0.4-0.7-0.8-0.9c-3-2.1-6.1-4-9.5-5.3 c-4.7-1.9-9.4-3.8-14.1-5.7c-6.9-2.7-13.9-5.3-21.2-6.4c-2-0.3-3.9-0.2-6-0.1c0.1,0.7,0.5,1.1,0.8,1.6 c3.5,5.4,7.1,10.7,10.6,16.1c3.8,5.8,7.6,11.6,11.5,17.4c7.5,11.3,15,22.7,22.5,34c0.7,1,1.4,1.5,2.6,1.4c2.5-0.2,5,0,7.4,0.4 c5.3,0.9,10.2,2.7,14.8,5.5c2.3,1.4,4.4,3.2,6.6,4.7l0,0c0,0,0,0.1,0.1,0.1c0,0,0.1,0,0.1,0c-0.1-0.1-0.1-0.1-0.2-0.2 C96.4,466.1,96.2,465.6,96,465.1z M44.1,400.1c-1.2-1.2-2-1-2.6,0.6c-0.2,0.4-0.3,0.9-0.5,1.3c-0.3,0.5-0.7,1-1.4,0.7 c-0.6-0.3-0.6-0.8-0.5-1.4c0.3-1,0.6-1.9,1.2-2.7c1.1-1.6,2.7-1.9,4.2-0.6c1.4,1.1,2.5,2.5,3.4,4c0.3,0.6,0.7,1.2,1.1,1.8 c0.9,1.3,1.6,1.5,3,0.6c0.3-0.2,0.6-0.4,0.9-0.6c2.9-1.7,5.3-1.2,7.6,1.3c1.2,1.4,2.4,2.2,4.2,1.9c0.1,0,0.2,0,0.4,0 c0.7,0,1.4,0,1.5,0.9c0,0.9-0.7,0.9-1.4,0.9c-1,0.1-1.9,0.4-2.9,0c-1-0.4-2-0.9-2.7-1.9c-0.8-1.2-1.9-2.1-3.7-2.1 c-0.6-0.1-1.3,0.2-2,0.6c-0.7,0.5-1.4,0.8-2.2,1.1c-1.2,0.5-2.3,0.2-3.2-0.7c-1.1-1-1.6-2.3-2.4-3.5 C45.4,401.7,44.8,400.8,44.1,400.1z M59.2,423c-1.8-0.1-3.1-1.1-3.8-2.7c-0.2-0.4-0.3-0.9-0.5-1.3c-0.7-1.4-1.4-1.8-3-1.4 c-0.9,0.2-1.7,0.4-2.6,0.6c-0.2,0.1-0.4,0.2-0.7,0.2c-0.6,0.1-1-0.2-1.2-0.7c-0.2-0.6,0.2-0.9,0.7-1.1c1.2-0.4,2.3-0.8,3.6-0.9 c0.4,0,0.7,0,1.1,0c2.1-0.3,3.2,0.9,4,2.7c1.3,2.9,1.6,3.1,4.7,2.4c0.3-0.1,0.7-0.1,1-0.2c2.4-0.7,4.6-0.8,6.7,0.9 c0.6,0.5,1.3,0.5,1.9-0.2c0.3-0.4,0.7-0.8,1.2-1c0.6-0.2,1.1-0.2,1.4,0.3c0.3,0.5,0.2,1-0.2,1.3c-0.6,0.4-0.9,0.9-1.4,1.3 c-1,0.9-2.3,1.1-3.3,0.3c-2.1-1.7-4.4-1.3-6.7-0.7C61,422.8,60.1,423,59.2,423z M80,447.1c-0.1,0.6-0.8,0.9-2,0.7 c-0.6-0.1-1.2-0.2-1.7-0.3c-1.5-0.4-2.8-1.3-3.5-2.7c-0.3-0.6-0.6-1.3-0.9-1.9c-1-1.6-2.4-2-4.1-1.3c-1,0.5-2,1.1-2.8,1.7 c-0.2,0.2-0.4,0.4-0.7,0.5c-0.5,0.2-0.9,0.2-1.3-0.2c-0.4-0.4-0.2-0.9,0.1-1.3c1.1-1.5,4.2-3,6.3-3.1c2.2-0.2,3.7,1.1,4.5,3.1 c0.8,2.1,2.1,3.3,4.4,3.4C79.5,445.8,80.1,446.5,80,447.1z"/></g><g id="change1_2"><path fill="#f37f65" d="M295.1,367.5c1,5.1,1.6,10.2,0.4,15.3c-2.5,10.2-9,16.9-18.5,20.8c-4.8,1.9-9.8,2.3-14.9,2 c-5.2-0.3-10.1-1.4-15-2.9c-3-1-5.9-2.3-8.7-3.9c-2.8-1.5-5.6-3-8.5-4.3c-6.5-3.1-13-6.5-18.9-10.7c-7.3-5.3-14.2-11.2-19.9-18.3 c-2.9-3.6-5.2-7.6-6.7-12c0.3-0.6,0.1-1.2-0.1-1.9c-2.1-6.2-1.7-12.1,1.9-17.6c0.7-1.1,1.3-2.2,2-3.3c2.7-4.4,4.7-9.1,5.6-14.2 c0.8-4.3,2-8.6,3.5-12.8c0.5-1.5,1.1-2.9,2.2-4c1.9-2,4-1.8,5.3,0.6c0.7,1.3,1,2.7,1.1,4.2c0.4,5.1-0.7,10-2.8,14.6 c-0.1,0.3-0.3,0.5-0.4,0.8c-0.2,0.5-0.2,1,0.3,1.3c0.5,0.3,1.1,0.1,1.4-0.4c0.3-0.5,0.6-1,0.8-1.5c1.4-3.1,2.2-6.3,2.6-9.7 c0.3-3.2,0.5-6.4-1-9.4c-0.8-1.6-0.6-2.9-0.1-4.4c0.5-1.4,1.3-2.6,2.8-3.3c1.6-0.8,2.9-0.4,3.8,1c0.5,0.7,0.8,1.6,1,2.4 c0.9,3.3,0.9,6.7,0.5,10c-0.4,3.5-1.4,6.9-2.5,10.3c-0.2,0.7-0.4,1.5-0.6,2.2c-0.1,0.6-0.1,1.1,0.6,1.3c0.7,0.2,1.1-0.2,1.3-0.9 c0-0.1,0-0.1,0-0.2c0.7-2.3,1.5-4.5,2-6.8c1.6-6.1,2.3-12.2,0-18.3c-0.2-0.5,0-0.9,0.2-1.3c1.2-2,3.9-2.1,5.4-0.3 c1.1,1.2,1.5,2.8,1.8,4.4c0.7,3.4,0.3,6.8-0.5,10.2c-0.7,2.9-1.6,5.7-2.6,8.4c-0.2,0.7-0.6,1.4,0.3,1.9c0.6,0.3,1.1-0.1,1.5-1.3 c1.3-3.6,2.5-7.2,3.2-11c0.7-4,0.7-7.9-0.9-11.6c-0.6-1.5-0.3-2.3,1.2-2.8c1-0.3,2-0.3,2.9,0.4c0.5,0.4,1.1,0.8,1.8,0.5 c1.2,2.2,1.2,4.6,1.7,7c0.6,3.2,0.7,6.4,0.9,9.6c-0.9,0.6-0.8,1.5-0.8,2.4c-0.3,5.2-1.4,10.3-3.6,15c-0.2,0.4-0.4,0.8-0.6,1.3 c-0.2,0.6-0.3,1.2,0.3,1.6c0.8,0.4,1.2-0.2,1.5-0.8c0.1-0.1,0.1-0.2,0.1-0.3c1.4-3.2,2.6-6.4,3.3-9.9c0.5-2.6,0.7-5.1,1-7.7 c1.9,0.9,2.9,2.5,3.6,4.4c1,2.9,0.9,5.8,0.5,8.7c-0.5,3.9-1.8,7.6-3.7,11.2c-0.4,0.7-0.2,1.7,0.5,2.4c0.3,0.3,0.7,0.5,1,0.7 c4.9,3.3,9.8,6.5,14.7,9.8c0.6,0.4,1.1,0.9,1.9,0.9c0,1,0.8,1.4,1.5,1.8c5.3,3.2,10.7,6.5,16,9.7c0.4,0.2,0.7,0.4,1.1,0.6 c0.4,0.2,0.8,0,1.1-0.4c0.2-0.4,0.2-0.8-0.1-1.1c-0.3-0.3-0.7-0.6-1.1-0.8c-5.7-3.5-11.4-6.9-17.1-10.3c4.2-5,9.7-7.7,16-9.1 c3.1-0.7,6.2-1,9.4-0.4c2.4,0.5,4.6,1.4,6.5,2.9c1.8,2.5,2.7,5.4,3.8,8.2C291.6,354.4,293.8,360.8,295.1,367.5z M96,293.7 c-0.6-1.5-0.6-3,0-4.4c3.5-1.5,6.9-3.1,10.3-5.3c0.2,0.9,0.3,1.5,0.4,2.1c1,6.4,6.5,8,10.5,7.2c3.3-0.7,5.9-2.5,8.4-4.7 c1.6-1.4,3-3,4.5-4.5c0.4,0.8,0.8,1.6,1.2,2.4c0.9,1.7,2.1,3.3,3.8,4.4c3.4,2.2,7.3,1.4,9.7-1.9c1.6-2.2,2.1-4.8,2.7-7.4 c0.3-1.3,0.5-2.7,0.9-4c0.4-1.5,1.1-2.7,2.8-3.1c1.3-0.3,2.1,0,2.9,1.2c0.7,1,1.2,2.1,1.8,3.2c0.9,1.6,1.7,3.2,2.6,4.8 c0.8,1.5,1.9,2.7,3.3,3.6c3.3,2,6.9,0.9,8.7-2.4c1-1.9,1.2-4,1.5-6.1c0.1-0.5,0-1.1,0.1-1.6c1-0.2,1.1-0.9,1.1-1.7 c-0.1-1.7,0.2-3.4,0.9-5c0.6-1.4,1.6-2.1,3.1-2.2c1.9-0.1,3.5,0.5,5,1.4c4.4,2.4,8.9,4.6,13.5,6.4c0.5,0.2,1.1,0.6,1.6,0.1 c0.6-0.5,0.4-1,0.1-1.6c2.9-6,7.7-9.5,14.3-10.3c3.4-0.4,6.6,0.7,9.4,2.8c0.5,0.4,0.9,0.9,1.6,1.1c0.8,1,1.6,2,2.4,3.1 c3.7,5.2,4.8,11,4.1,17.3c-1.6-0.7-3.2-0.9-4.8-0.1c-0.8,0.4-1.3,1.2-2,1.4c-0.8,0.2-1.5-0.7-2.4-0.9c-2-0.3-3.6,0.2-5,1.6 c-0.8,0.8-1.6,0.6-1.9-0.4c0-0.1,0-0.2,0-0.4c0.2-2.6-0.7-4.8-2.3-6.9c-1-1.3-0.8-2.7-0.1-4c0.7-1.3,1.8-2.2,3.3-2.5 c0.5-0.1,0.9-0.5,0.8-1c-0.1-0.6-0.6-0.9-1.2-0.8c-0.4,0-0.8,0.2-1.2,0.3c-4.1,1.8-5.4,6.2-2.8,9.8c0.9,1.2,1.4,2.6,1.6,4.1 c0.1,0.9-0.1,1.4-1.1,1.6c-2.4,0.6-3.9,2.2-4.9,4.5c-0.3,0.7-0.4,1.5-0.9,2c-3.1-0.9-5-0.2-6.8,2.3c-0.8,1.1-1.4,2.3-1.8,3.6 c-0.6,1.8-1.2,3.6-1.8,5.4c-1.9-0.6-3.8-0.8-5.7-0.3c-5.3,1.3-8.8,5.7-8.7,11c0.1,4.9,2.7,8.4,7.4,10.2c-1.2,2-2.3,4.1-3.5,6.1 c-1.8,3.4-2.6,7.1-2.2,10.9c0.2,1.8,0.6,3.6,1.1,5.4c0.2,0.8,0.1,1.2-0.7,1.5c-1.7,0.6-3.4,1-5.1,1.2c-0.4,0.1-0.8,0-1.1-0.3 c-2.6-2.3-5.8-2.9-9.2-2.9c-3.1,0-6.1-0.1-9.2-0.2c-5.1-0.3-9.8-1.7-13.9-5c1-3.3,0.8-6.4-0.9-9.4c-1.9-3.3-6.6-6.7-12.5-5 c-2.2-2.7-4.4-5.6-6.9-8c-1.6-1.5-3.3-2.9-5.4-3.6c-1.9-0.7-3.8-1-5.6,0.2c-3.4-3.9-6.2-8.2-8.9-12.6c-1.3-2.2-2.6-4.4-3.9-6.7 c0.2-0.9,0.2-1.6-0.9-1.8C97.2,297,96.6,295.3,96,293.7z M163.6,313.3c0,3.4,3.2,6.8,6.4,6.7c1.8,0,3-1.1,3.2-2.9 c0.4-3.1-2.1-6.8-5.2-7.4C165.3,309.2,163.5,310.7,163.6,313.3z M161.4,338.9c-0.5,0-1.1-0.1-1.6-0.1c-0.5,0-0.8,0.2-0.9,0.7 c-0.1,0.5,0.1,0.8,0.5,1c0.5,0.2,1,0.3,1.5,0.3c2.5,0.1,4.8-0.5,6.9-1.7c0.6-0.4,1.5-0.7,1.2-1.7c-0.2-0.7-0.9-0.7-2.1,0 C165.2,338.5,163.4,339,161.4,338.9z M148.7,328.4C148.7,328.4,148.7,328.4,148.7,328.4c0,0.6,0,1.3,0,1.9c0.1,2.5,1,3.6,3.4,4.2 c2.3,0.6,4.6,0.1,6.8-0.3c0.1,0,0.2-0.1,0.3-0.1c0.5-0.2,0.8-0.6,0.6-1.1c-0.1-0.5-0.5-0.7-0.9-0.6c-0.6,0-1.2,0.1-1.8,0.2 c-1.3,0.2-2.7,0.3-4,0.2c-1.8-0.2-2.3-0.7-2.5-2.6c-0.1-0.8-0.1-1.5-0.1-2.3c0-0.7,0.1-1.4-0.1-2.1c-0.1-0.5-0.4-0.9-1-0.8 c-0.6,0-0.8,0.4-0.8,1C148.7,326.8,148.7,327.6,148.7,328.4z M138.6,329.5c2.6,0.6,4.5-0.8,4.5-3.5c0-3.3-3-6.7-6.1-6.8 c-2-0.1-3.4,1.1-3.5,3.1C133.2,325.4,135.7,328.8,138.6,329.5z M161.8,367.8c6.4,0.3,12.6,1.3,18.7,3.4c0.5,0.2,1,0.4,1.5,0.2 c0.2-1.8,0.4-3.6,0.6-5.4c0.3-3.7,0.3-7.5-0.4-11.2c-1.6,0.4-3.2,0.8-4.8,1.3c0.2,1.2,0.9,2.4,1,3.7c0,0.6,0.1,1.3,0.1,1.9 c0,0.5-0.4,0.9-0.9,0.9c-0.5,0-0.8-0.3-0.9-0.7c-0.1-0.3-0.2-0.7-0.2-1c-0.3-4.8-3.7-7.4-8.1-7.9c-3.4-0.4-6.7-0.2-10.1-0.3 c-4.3-0.1-8.6-0.8-12.5-2.8c-4.2-2.2-7.8-5.1-10.9-8.6c-2.9-3.3-5.6-6.7-8.2-10.2c-1.7-2.2-3.5-4.3-5.5-6.2 c-0.9-0.9-1.8-1.7-2.9-2.3c-1.6-1-3.3-1.6-5.2-1.2c-0.8,0.2-1.4,0-1.6-0.9c-0.6,0.3-1,0.8-1.4,1.3c-2.2,2.9-3.1,6.2-2.6,9.8 c0.6,5,2.7,9.3,6,12.9c4.4,4.8,9.1,9.2,14.8,12.5c1.2,0.7,1.2,0.7,0.6,1.9c-1.8,4-3.6,7.9-5.4,11.9c0.7,0.8,1.4,0.3,2.1,0.1 c9.2-2.2,18.6-3.4,28.1-3.3C156.4,367.5,159.1,367.7,161.8,367.8z M46.7,380c6.1,2.8,11.9,6.2,17.6,9.8c4.9,3,9.6,6.2,14.3,9.4 c2.4,1.6,5.1,2.3,7.9,2.1c3.6-0.2,6.9-1.5,10-3.1c1.7-0.8,3.4-1.7,5.1-2.4c4.7-2,9.4-3.8,14.1-5.8c8.8-3.7,18.1-5.8,27.6-7.3 c2.8-0.5,5.6-0.8,8.4-1.2c3-0.4,5.9-0.8,8.9-0.9c3.2-0.2,6.4,0,9.6,0c1.4,0,2.7,0.4,4,0.4c0.7,0,1.3-0.1,1.6-0.9 c-0.1-0.7-0.6-0.9-1.3-1c-2.4-0.4-4.9-0.4-7.4-0.6c-4.8-0.3-9.5,0.4-14.2,0.9c-4.6,0.5-9.2,1.2-13.8,2 c-8.1,1.5-15.9,3.5-23.6,6.5c-6.4,2.5-12.8,5-19,8.1c-1.6,0.8-3.2,1.5-4.9,2.1c-4.6,1.8-8.9,1.5-13.1-1.3 c-6.2-4.1-12.3-8.3-18.7-12c-9-5.3-18.4-9.7-28.5-12.6c-5.4-1.5-10.9-2.5-16.5-2.3c-1.8,0-3.6,0.5-5.5,0.4 c-1,0.5-2.2,0.2-3.1,0.8c0.3,1.4,0.6,1.8,1.8,1.5c0.8-0.2,1.5-0.2,2.3-0.3c4.6-0.6,9.3-0.7,13.9,0.2 C31.9,374.1,39.4,376.7,46.7,380z M124.7,497.6c-4.2,1.1-8.2,0.3-11.8-2.1c-3.5-2.3-6.4-5.1-9.3-8.1c-3.4-3.6-6.9-7.1-10.6-10.4 c-4.3-3.9-9.1-6.9-14.4-9c-3.7-1.5-7.5-2.4-11.4-2.8c-1.7-0.2-3.3,0-4.9,0.1c-1,0-1.6-0.3-2.2-1.1c-3.3-4.8-6.6-9.6-9.9-14.4 c-1.2-1.7-2.4-3.5-3.6-5.2c-0.5-0.7-1-1.7-2.2-1.5c-0.6,0.9-0.1,1.7,0.5,2.4c4.6,6.6,9.2,13.3,13.7,19.9c0.9,1.3,1.9,1.8,3.4,1.7 c1.8-0.1,3.5-0.2,5.3,0c8.1,0.9,15.3,4.1,21.7,9c5.2,4,9.6,8.9,14.1,13.6c3,3.1,6.1,5.9,9.8,8.1c3.8,2.2,7.8,2.7,12.1,1.8 c1.1-0.2,1.9-0.6,2-1.9C126.2,497.3,125.5,497.4,124.7,497.6z M220,456.7c-1,0.3-1.3,1-0.8,1.9c0.5,1,0.4,2.1,0.4,3.1 c0,2.4-1.1,3.4-3.5,3.4c-1.4,0-2.8-0.3-4.2-0.5c-4.1-0.7-8.3-1-12.4-1.2c-1.9-0.1-3.9,0.1-5.8,0.2c-4.4,0.3-8.7,1-13,1.9 c-5.6,1.2-10.9,3.2-15.9,6.2c-8.5,5.1-16.6,11-24.8,16.6c-1.1,0.8-2.2,1.6-3.2,2.5c-0.7,0.6-1.4,1.2-0.7,2.2 c0.7,0.1,1.2-0.1,1.8-0.6c8.5-6.5,17.4-12.4,26.3-18.1c2.4-1.5,4.8-2.9,7.5-4c7.4-3,15.1-4.4,23-4.9c5.4-0.3,10.7,0,16,0.9 c2,0.4,4.1,0.6,6.2,0.5c2.4-0.1,3.9-1.4,4.6-3.7c0.4-1.3,0.3-2.7,0.1-4C221,458.4,221,457.3,220,456.7z M343.9,128.1 c-0.5-3.8-1.2-7.5-1.9-11.3c-1.2-6.9-2.7-13.8-5.4-20.2c-2.6-6.2-5.3-12.5-9.9-17.6c-0.3,0-0.7,0-1,0c-0.4,0.9-0.2,1.6,0.5,2.4 c0.8,0.8,1.5,1.8,2.1,2.8c4.9,8.2,8.6,16.9,10.5,26.3c1.6,7.8,3.1,15.6,3.8,23.5c0.4,4.5,0.3,9.1,0,13.6 c-0.3,3.7-0.9,7.4-1.9,10.9c-0.2,0.7-0.1,1.3,0.6,1.6c1-0.1,1.2-0.8,1.4-1.6c0.5-2.1,0.9-4.2,1.4-6.4c0.1-1.8,0.2-3.6,0.4-5.5 C345.3,140.5,344.8,134.3,343.9,128.1z M206.9,423.4c-0.2-0.4-0.4-0.7-0.7-1c-0.2-0.3-0.6-0.4-1-0.3c-0.4,0.2-0.6,0.5-0.6,1 c0.1,0.6,0.4,1.1,0.7,1.6c2.2,4,4.5,7.9,6.7,11.9c3.6,6.4,7.2,12.7,10.1,19.5c0.2,0.6,0.5,1.1,1,1.4c0.6-0.1,1.1-0.5,1.2-1.1 c-0.5-1.2-0.9-2.4-1.5-3.6C218.1,442.7,212.3,433.2,206.9,423.4z M13.4,367.1c3.5,0,6.9,0,10.4,0.3c3.3,0.3,6.5,0.7,9.8,1.4 c4.6,1,9,2.6,13.3,4.6c0.4,0.2,0.8,0.4,1.1,0.4c0.4,0.1,0.8-0.1,1-0.5c0.2-0.4,0.1-0.8-0.3-1.1c-0.3-0.3-0.7-0.5-1-0.6 c-8.5-4-17.4-6-26.7-6.3c-2.4-0.1-4.8-0.2-7.2-0.3c-0.9,0.3-2.1,0.4-1.9,1.8C12.4,367.1,12.9,367.1,13.4,367.1z M270.3,160.1 c0.4-0.3,0.9-0.6,1.2-1c0.9-1.1,1.7-2.1,2.4-3.2c2.6-4.2,4.5-8.7,6-13.4c1-3.1,1.2-6.2,0.6-9.4c-0.2-0.9-0.5-1.4-1.5-1.4 c-0.4,0.4-0.6,0.8-0.5,1.4c0.2,0.6,0.2,1.2,0.1,1.7c0.1,1.8,0.2,3.5-0.2,5.3c-1.4,5.7-3.8,11-7,15.9c-0.6,1-1.4,1.9-2.3,2.6 c-1,0.8-1.4,1.4-0.9,1.8C269,161.1,269.7,160.6,270.3,160.1z M152.2,465.9c-6.7,3.7-13.2,7.8-19.2,12.6c-0.4,0.3-0.7,0.6-1,0.9 c-0.6,0.8-1.2,0.8-1.8,0c-0.3-0.4-0.6-0.9-0.8-1.4c-2-3.6-3.8-7.2-5.3-11c-2.2-5.4-4.5-10.7-6.8-16.1c-1.7-3.9-3.4-7.8-5.1-11.6 c-2.2-5-4.4-9.9-6.5-14.9c-2.5-5.9-4.1-12.2-5.3-18.5c-0.2-1.2,0-2.1,1-3c2.2-2,4.8-3.3,7.4-4.5c4.8-2.2,9.7-4,14.7-5.5 c7.9-2.4,15.8-4.7,23.9-6.3c3.2-0.6,6.4-1,9.6-1.3c2.1-0.2,4.1-0.2,6.2-0.3c1.2,0,2.4,0,3.5,0c1.7,0,2.8,0.7,3.7,2.2 c4.9,8.8,10,17.6,15,26.4c4.9,8.7,9.9,17.4,14.8,26.1c2.4,4.1,4.7,8.3,7.1,12.4c0.2,0.4,0.5,0.8,0.6,1.3c0.1,0.5-0.2,0.8-0.5,1 c-0.4,0.2-0.8,0.1-0.9-0.2c-0.7-1.7-2.2-1.3-3.5-1.4c-1.7-0.1-3.4-0.4-5.1-0.3c-5.7,0.1-11.2,0.8-16.8,1.9 C170.7,456.8,161.3,460.9,152.2,465.9z M149.7,465.1c7.7-4.3,15.5-8.2,24-10.6c7.6-2.1,15.3-3.6,23.3-3.5c2.3,0,4.6-0.1,7,0.2 c-0.3-1.1-0.8-1.9-1.3-2.7c-3.3-5.9-6.7-11.8-10-17.7c-3.1-5.5-6.3-11.1-9.4-16.6c-3.3-5.8-6.6-11.6-9.9-17.4 c-1.6-2.9-3.3-5.7-4.9-8.6c-0.4-0.7-0.8-1.1-1.6-1.1c-6.3-0.2-12.5,0.1-18.6,1.3c-4.3,0.8-8.5,1.8-12.7,3 c-7.5,2.1-15,4.1-22.2,7.1c-3.1,1.3-6.2,2.5-9,4.4c-1.5,1-2.5,2.1-1.7,4.1c0.2,0.6,0.2,1.3,0.3,1.9c1.8,8.7,5.1,16.8,8.9,24.7 c0.5,1.1,0.6,1.2,1.8,0.7c2.7-1,5.2-2.3,7.7-3.5c0.6-0.3,0.6-0.7,0.4-1.3c-1.8-4.1-2-8.3-1.1-12.6c1.1-5.1,3.9-8.9,8.8-11 c2.1-0.9,4.2-1.4,6.5-0.8c5.5,1.4,8.7,5.1,9.9,10.4c0.7,3.1,0,6.1-2.6,8.3c-1.6,1.4-3.5,2.1-5.6,2.4c-3.3,0.6-6.9-0.9-8.5-3.8 c-1.9-3.4-0.7-8.7,4.6-9.4c1.1-0.1,2.1,0.3,3,0.8c0.4,0.2,0.5,0.7,0.4,1.1c-0.2,0.5-0.6,0.5-1,0.5c-0.4-0.1-0.8-0.2-1.2-0.3 c-1.6-0.3-3.5,0.4-4.3,2.3c-0.7,2.1,0.1,4.5,1.9,5.8c3.6,2.4,8.7,0.5,10.6-2.3c0.7-1.1,1.2-2.4,1.1-3.7c-0.3-3.3-1.7-6.1-4.3-8.2 c-2.7-2.2-5.6-2.8-8.9-1.7c-4.5,1.5-7.1,4.8-8.2,9.2c-1,4.3-0.8,8.6,1.2,13c0.4-0.2,0.7-0.2,0.9-0.4c2.5-1.2,4.9-0.8,7.1,0.8 c1.4,1,2.6,2.2,3.9,3.3c1.6,1.4,3.1,2.9,5.4,3.1c1.4,0.1,2.7-0.1,4-0.5c2.1-0.5,4-1.3,6-2.2c3.8-1.8,7.6-3.4,11.3-5.5 c2.2-1.3,2.9-3.1,2.5-5.7c-0.3-1.8-0.8-3.4-1.4-5.1c-1.1-3.3-2.5-6.5-3.8-9.7c-1-2.4-0.9-4.3,1.7-6.4c2.7-2.2,5.9-3.4,9.1-4.5 c0.7-0.3,1.6-0.7,2.2,0.2c0.4,0.6-0.2,1.1-1.6,1.7c-2.4,0.9-4.9,1.7-7.1,3.1c-3.2,2-3.5,3.1-2,6.5c1.9,4.2,3.5,8.5,4.6,13 c0.3,1.5,0.4,2.9,0.1,4.4c-0.5,2.4-2.2,3.7-4.2,4.7c-2.6,1.3-5.2,2.7-7.9,3.9c-3.3,1.5-6.5,3.1-10.1,3.8c-3.1,0.6-6,0.3-8.6-2.1 c-1.6-1.5-3.2-3.2-5-4.5c-1.8-1.3-3.7-1.5-5.7-0.6c-3.6,1.7-7.2,3.5-10.9,5c-0.8,0.3-1,0.7-0.6,1.6c1.2,2.6,2.3,5.2,3.4,7.8 c2.2,5.1,4.4,10.2,6.6,15.2c2,4.5,3.6,9.1,6,13.4c0.5,1,1.1,1.9,1.6,2.8c0.3-0.1,0.4-0.1,0.5-0.2 C137.4,472.6,143.4,468.6,149.7,465.1z M54.7,442.7c-5.6-8.6-11.3-17.1-16.9-25.7c-6.4-9.7-12.8-19.4-19.2-29.1 c-0.2-0.3-0.5-0.7-0.6-1.1c-0.6-1.5,0.4-3.1,2-3.1c0.9,0,1.9,0,3.1,0c3.4-0.2,6.9,0.8,10.5,1.7c7.1,1.9,13.9,4.8,20.7,7.5 c3.9,1.6,7.9,3.1,11.6,5.1c2.3,1.2,4.4,2.7,6.6,4.1c0.6,0.4,1,0.8,0.8,1.6c-0.1,0.9,0.3,1.6,0.6,2.4c2.6,6.5,5.3,13,8,19.5 c4.3,10.3,8.5,20.7,12.8,31c1.7,4,3.3,8.1,4.9,12.1c0.4,0.9,0.7,1.7,1.4,2.4c0.7,0.7,0.7,2.1,0,2.9c-0.4,0.4-0.9,0.5-1.2,0 c-0.3-0.4-0.6-0.9-0.8-1.4c-0.3-0.8-0.7-1.4-1.4-2c-3.9-3.6-8-6.9-12.9-9.1c-4.7-2.1-9.5-3.5-14.7-3.4c-1.3,0-2.6,0-3.9,0 c-1,0.1-1.6-0.3-2.2-1.2C61,452.2,57.8,447.4,54.7,442.7z M42.4,420.6c7.5,11.3,15,22.7,22.5,34c0.7,1,1.4,1.5,2.6,1.4 c2.5-0.2,5,0,7.4,0.4c5.3,0.9,10.2,2.7,14.8,5.5c2.3,1.4,4.4,3.2,6.6,4.7c0,0,0,0.1,0.1,0.1c0,0,0.1,0,0.1,0 c-0.1-0.1-0.1-0.1-0.2-0.2c0.1-0.6-0.2-1-0.4-1.5c-3-7.3-6-14.7-9.1-22c-3.1-7.6-6.3-15.2-9.3-22.9c-2.1-5.4-4.7-10.5-6.4-16.1 c-0.1-0.4-0.4-0.7-0.8-0.9c-3-2.1-6.1-4-9.5-5.3c-4.7-1.9-9.4-3.8-14.1-5.7c-6.9-2.7-13.9-5.3-21.2-6.4c-2-0.3-3.9-0.2-6-0.1 c0.1,0.7,0.5,1.1,0.8,1.6c3.5,5.4,7.1,10.7,10.6,16.1C34.8,409,38.6,414.9,42.4,420.6z M92.4,394c0.2-0.1,0.4-0.2,0.6-0.3 c4.1-2.3,8.4-4.3,12.8-6.1c8.5-3.4,17.4-5.9,26.5-7.4c1.1-0.2,2.2-0.4,3.3-0.6c0.5-0.1,0.9-0.4,0.9-1.3c0-0.3-0.4-0.6-1-0.5 c-1.2,0.1-2.5,0.3-3.7,0.5c-5,0.9-9.9,2-14.8,3.4c-8.2,2.4-16,5.6-23.5,9.5c-0.7,0.4-1.3,0.8-1.9,1.3c-0.4,0.3-0.5,0.7-0.3,1.1 C91.4,394,91.9,394.1,92.4,394z M134.4,372.6c-4.2,0.7-8.3,1.6-12.4,2.7c-5.4,1.5-10.8,3-15.9,5.2c-0.4,0.2-0.9,0.3-1.2,0.6 c-0.4,0.4-0.6,0.8-0.3,1.3c0.2,0.5,0.7,0.4,1.1,0.3c0.4-0.1,0.8-0.3,1.2-0.4c7.7-3.1,15.7-5.2,23.8-7c2.3-0.5,4.6-0.8,7-1.1 c1-0.1,1.6-0.6,1.5-1.2c0-0.5-0.6-0.9-1.4-0.9C136.7,372.3,135.5,372.4,134.4,372.6z M48,368.7c0.8,0.3,1.7,0.5,2.5,0.8 c6.5,2.6,12.6,5.9,18.2,10c0.4,0.3,0.9,0.6,1.4,0.7c0.4,0,0.7,0,0.9-0.4c0.2-0.3,0.1-0.7-0.1-1c-0.3-0.4-0.7-0.6-1.1-0.9 c-4.9-3.5-10.1-6.5-15.6-9c-1.9-0.9-3.8-1.7-6-2.2c-0.4,0-0.9,0-1.1,0.7C47.1,368.1,47.5,368.5,48,368.7z M176.8,444.9 c1-0.2,1.4-1.1,1.6-1.9c0.3-1.2,0.5-2.4,0.8-3.6c0.5-2,1.4-2.4,3.2-1.2c1.1,0.7,2.1,1.6,2.8,2.6c0.6,0.8,1.3,1.5,2,2.2 c0.5,0.4,1.1,0.5,1.6,0c0.5-0.5,0.1-1-0.2-1.4c-0.9-1-1.8-2-2.7-3c-1-1.1-2.1-2-3.5-2.7c-2-0.9-3.9-0.2-4.8,1.8 c-0.3,0.6-0.4,1.4-0.6,2c-0.2,0.9-0.1,1.9-0.7,2.7c-0.5-0.3-0.8-0.8-1.1-1.3c-0.6-0.8-1.3-1.6-2.1-2.2c-1.3-1-2.3-0.8-3.4,0.4 c-0.5,0.6-0.6,1.2-0.9,1.9c-0.3,0.9-0.6,1.9-1,2.8c-0.2,0.6-0.6,0.7-1.1,0.2c-0.4-0.4-0.8-0.9-1.3-1.2c-2-1.7-4-1.5-5.6,0.6 c-0.7,1-1.2,2.1-1.8,3.3c-0.6,1.2-1.3,2.4-2.2,3.4c-1.6,1.7-2.7,1.9-4.7,0.6c-1-0.6-2-1.2-3.1-1.7c-2.1-0.9-4.1,0-4.9,2.1 c-0.4,1.1-0.7,2.2-0.7,3.4c0,0.9-0.1,1.8-0.6,2.6c-0.7-0.2-1-0.7-1.4-1c-0.9-0.8-1.8-1.5-3-1.9c-2.4-0.8-3.6,0-4,2 c-0.1,0.7-0.3,1.4-0.3,2.1c0,2.5,0,5,0,7.4c0,0.2,0,0.5,0,0.7c0,0.4,0.3,0.8,0.7,0.9c0.5,0.1,0.8-0.2,1-0.6 c0.3-0.7,0.4-1.5,0.4-2.2c0-2.1,0-4.1,0-6.2c0-0.4,0-0.8,0.1-1.2c0.2-1.3,0.7-1.5,1.8-0.9c0.9,0.5,1.7,1.1,2.4,1.8 c0.5,0.5,1,1,1.6,1.3c1,0.6,1.8,0.4,2.4-0.6c0.4-0.6,0.6-1.3,0.6-2c0.1-1.2,0.1-2.5,0.4-3.7c0.5-2.4,1.3-3.1,3.7-1.8 c0.9,0.5,1.8,1.2,2.7,1.6c1.8,0.9,3.5,0.9,5.1-0.4c0.9-0.8,1.8-1.7,2.4-2.8c0.9-1.5,1.6-3,2.4-4.5c1-1.8,1.9-1.9,3.5-0.5 c0.4,0.4,0.8,0.9,1.3,1.2c1.2,1,2.4,0.9,3.3-0.3c0.3-0.4,0.5-0.9,0.7-1.4c0.4-1,0.7-2,1-3c0.4-1.1,0.7-1.2,1.6-0.3 c0.8,0.8,1.3,1.8,2,2.7C175.2,444.4,175.8,445.1,176.8,444.9z M51.6,406.8c0.8-0.3,1.5-0.7,2.2-1.1c0.6-0.5,1.4-0.7,2-0.6 c1.8-0.1,2.8,0.9,3.7,2.1c0.7,1,1.7,1.4,2.7,1.9c1,0.4,2,0.1,2.9,0c0.7,0,1.4,0,1.4-0.9c0-0.9-0.8-0.9-1.5-0.9 c-0.1,0-0.2,0-0.4,0c-1.8,0.3-3-0.5-4.2-1.9c-2.3-2.6-4.7-3-7.6-1.3c-0.3,0.2-0.6,0.4-0.9,0.6c-1.4,0.8-2,0.7-3-0.6 c-0.4-0.6-0.8-1.2-1.1-1.8c-0.9-1.6-2-2.9-3.4-4c-1.6-1.3-3.1-1.1-4.2,0.6c-0.6,0.8-0.9,1.8-1.2,2.7c-0.2,0.5-0.1,1.1,0.5,1.4 c0.7,0.3,1.1-0.2,1.4-0.7c0.2-0.4,0.3-0.9,0.5-1.3c0.6-1.5,1.4-1.8,2.6-0.6c0.8,0.7,1.3,1.6,1.9,2.5c0.7,1.2,1.3,2.5,2.4,3.5 C49.3,407,50.4,407.3,51.6,406.8z M68.6,423.3c1,0.8,2.3,0.6,3.3-0.3c0.5-0.4,0.9-0.9,1.4-1.3c0.4-0.3,0.5-0.8,0.2-1.3 c-0.3-0.6-0.8-0.6-1.4-0.3c-0.5,0.2-0.9,0.6-1.2,1c-0.6,0.7-1.2,0.7-1.9,0.2c-2.1-1.7-4.3-1.5-6.7-0.9c-0.3,0.1-0.7,0.2-1,0.2 c-3.1,0.7-3.4,0.6-4.7-2.4c-0.8-1.8-1.9-3-4-2.7c-0.4,0-0.8,0-1.1,0c-1.2,0.1-2.4,0.4-3.6,0.9c-0.4,0.2-0.9,0.5-0.7,1.1 c0.2,0.5,0.6,0.9,1.2,0.7c0.2,0,0.4-0.2,0.7-0.2c0.9-0.2,1.7-0.4,2.6-0.6c1.6-0.3,2.3,0,3,1.4c0.2,0.4,0.3,0.9,0.5,1.3 c0.7,1.6,2,2.6,3.8,2.7c0.9,0,1.9-0.2,2.8-0.5C64.3,421.9,66.5,421.6,68.6,423.3z M67.8,441.5c1.7-0.8,3.1-0.3,4.1,1.3 c0.4,0.6,0.6,1.3,0.9,1.9c0.7,1.5,2,2.3,3.5,2.7c0.6,0.2,1.1,0.2,1.7,0.3c1.2,0.2,1.8,0,2-0.7c0.1-0.7-0.5-1.3-1.7-1.3 c-2.3-0.1-3.6-1.3-4.4-3.4c-0.8-2-2.3-3.3-4.5-3.1c-2.1,0-5.1,1.5-6.3,3.1c-0.3,0.4-0.5,0.8-0.1,1.3c0.4,0.4,0.8,0.4,1.3,0.2 c0.3-0.1,0.5-0.4,0.7-0.5C65.9,442.6,66.8,442,67.8,441.5z"/></g></g></g></g></svg>