<?xml version="1.0" encoding="UTF-8" standalone="no"?><svg xmlns="http://www.w3.org/2000/svg" xmlns:xlink="http://www.w3.org/1999/xlink" contentScriptType="text/ecmascript" fill="#000000" width="242.9" zoomAndPan="magnify" contentStyleType="text/css" viewBox="-0.0 -0.6 242.9 271.4" height="271.4" preserveAspectRatio="xMidYMid meet" version="1"><g id="change1_1"><path fill="#fd87b1" d="M240.6082,190.0849c-2.3399,10.5139-8.1928,20.1331-16.3201,27.1806 c-4.2601,3.6941-9.0597,6.5223-14.1695,8.8713c-4.5738,2.1026-9.3165,3.8871-14.2223,5.0426 c-8.9526,2.1086-18.3972,1.9109-26.7864-2.1469c-10.4041-5.0323-17.5138-14.8608-22.5951-24.9264 c0-0.0001-0.0001-0.0001-0.0001-0.0001c-1.0706-2.1476-2.0214-4.3546-2.8276-6.6152c-3.2205-9.0294-4.1806-18.9743-2.0578-28.3668 c2.1443-9.4881,7.5499-17.9049,15.2732-23.8149c4.4698-3.4204,9.5113-5.8319,14.7948-7.7118 c5.011-1.7829,10.1305-3.3077,15.362-4.2919c9.2071-1.7321,18.8823-1.7089,27.581,2.1262 c10.2532,4.5203,17.4812,13.7425,22.3218,23.5817C241.6893,168.6221,242.9324,179.6419,240.6082,190.0849z M130.9772,221.9229 c-0.0228-10.6924-1.7429-21.9662-7.9297-30.955c-4.8924-7.1083-12.2027-11.856-20.3654-14.4164 c-4.4061-1.382-8.9868-2.1623-13.5798-2.5775c-5.28-0.4772-10.6552-0.5931-15.9164,0.1295 c-11.2223,1.5414-21.8442,6.7854-29.753,14.9187c-7.7613,7.9816-12.6255,18.5252-13.4092,29.6495 c-0.7482,10.6205,1.1453,22.272,7.1744,31.2341c5.0686,7.5344,12.783,12.5312,21.213,15.5967 c4.6282,1.6831,9.4415,2.8239,14.2905,3.6551c5.6387,0.9667,11.3802,1.7078,17.1082,1.3195 c10.6485-0.722,20.6892-5.2137,28.0037-13.0401c7.0928-7.5892,11.2719-17.5641,12.6439-27.7945 c0.3434-2.5601,0.5127-5.1366,0.5198-7.7195l0,0V221.9229L130.9772,221.9229L130.9772,221.9229z"/></g><g id="change2_1"><path fill="#a9eba1" d="M184.4055,147.4567c-0.0385,0.3365-0.2588,0.625-0.625,0.625c-3.5847,0-7.1693,0-10.754,0 c-0.3995,0-0.7185-0.4003-0.6027-0.7912c0.013-0.0439,0.0303-0.0965,0.0313-0.142c0.0042-0.1815,0.0151,0.0226,0.0361-0.3209 c0.0179-0.2928,0.0243-0.5849,0.0184-0.8782c-0.0192-0.9528-0.1441-1.9018-0.3105-2.839c-0.7457-4.1994-2.2276-8.275-3.8248-12.2144 c-3.1865-7.8593-7.1574-15.4028-11.3292-22.7766c-4.9184-8.6932-10.2685-17.0539-16.813-24.6254 c-10.0789-11.6606-22.3839-21.291-36.1939-28.1463c-9.7694-4.8495-20.2441-8.33-30.9838-10.245 c-3.1802-0.567-6.4438-1.0723-9.7006-1.2789c-0.597,0.1408-1.2022,0.2224-1.7946,0.2157c0.0213,0.0297,0.0435,0.0648,0.0646,0.0925 c0.6191,0.8133,1.2254,1.6365,1.8234,2.4654c2.0231,2.8042,3.9519,5.6764,5.8157,8.5887 C75.61,65.1037,81.2116,75.4996,86.2042,86.16c6.954,14.8486,13.3973,30.3564,16.3969,46.5394 c2.4242,13.0786,2.8382,26.5501,1.144,39.746c-0.6843,5.3302-1.56,10.8121-3.2726,15.9283 c-0.1334,0.3984-0.5448,0.562-0.9182,0.3735c-2.7395-1.3829-5.4789-2.7659-8.2184-4.1489 c-0.2859-0.1443-0.3524-0.4003-0.2903-0.6353c0.0033-0.0245-0.0034-0.0452,0.0027-0.0707c0.0197-0.081,0.0419-0.1629,0.056-0.245 c0.9969-5.8115,1.5396-11.5975,1.5545-17.5068c0.0345-13.6479-2.1532-27.2666-5.923-40.3655 c-3.9753-13.813-9.4495-27.1765-15.8263-40.0467c-4.8719-9.833-10.2811-19.4064-16.1837-28.6575 c-1.1762-1.8435-2.3642-3.6855-3.5837-5.5061c-2.9645,1.7457-6.2032,3.05-9.4852,4.0012 c-7.0887,2.0544-14.7759,2.9031-22.1469,2.7588c-4.861-0.0952-9.9292-0.6245-14.5041-2.37 c-1.6851-0.6429-4.769-1.7947-5.0014-3.9424c-0.0001-0.0007-0.0004-0.0012-0.0005-0.0018c-0.021-0.3803,0.054-0.7672,0.1616-1.1304 c0.8089-2.7307,3.319-5.0061,5.4692-6.7009c4.3381-3.4192,9.5096-5.7022,14.7593-7.322c7.2017-2.222,14.8801-3.4022,22.4231-3.2116 c4.0981,0.1035,8.3389,0.584,12.2631,1.897c0.2466-0.3729,0.522-0.7953,0.8304-1.1558c-0.0237-4.7501,1.8-9.4424,4.1803-13.4795 c5.1666-8.7629,13.4894-16.303,23.1842-19.6714c1.8994-0.6599,4.9763-1.8126,6.9773-0.8943 c2.3657,1.0856,2.8418,4.5497,2.8696,6.8139c0.0616,5.0255-1.9596,9.9792-4.5235,14.21 c-3.2861,5.4226-7.6459,10.4523-12.3604,14.6838c6.6265,1.3527,13.1591,3.1877,19.5185,5.4448 c16.2702,5.7746,31.4817,14.448,44.5439,25.7573c7.9113,6.8497,14.9887,14.6361,21.1264,23.109 c6.7475,9.3148,12.6495,19.3813,17.0188,30.0351c2.6167,6.3803,4.7054,13.0565,5.6177,19.9089 C184.3732,142.6285,184.6743,145.108,184.4055,147.4567z"/></g><g id="change3_1"><path fill="#fd87b1" d="M119.8173,213.2626c0.6158,4.545,0.6627,9.256,0.2296,13.8244c-0.0285,0.3008-0.268,0.6698-0.625,0.625 c-1.7666-0.2216-3.5332-0.4432-5.2998-0.6648c-0.3077-0.0386-0.6602-0.2597-0.625-0.625c0.1856-1.9277,0.1382-3.8951,0.0259-5.8244 c-0.2311-3.9688-0.7026-8.4447-2.5431-12.0288c-1.8327-3.5689-5.5439-6.8134-9.0216-8.2041 c-0.1948-0.0779-0.3117-0.22-0.3705-0.3804c-0.0724-0.1572-0.09-0.3428-0.0031-0.5376c0.7202-1.6124,1.4403-3.2247,2.1605-4.8371 c0.1508-0.3376,0.5718-0.3449,0.8551-0.2242c1.8844,0.8031,3.6823,1.8824,5.3632,3.044c2.7311,1.8872,5.2681,4.174,7.049,7.0006 C118.6848,207.0843,119.4006,210.1878,119.8173,213.2626z M224.4252,163.2074c-0.9216-6.7153-5.5589-12.6609-11.0031-16.4752 c-1.2573-0.8809-2.5978-1.7083-4.0235-2.2918c-0.2739-0.1121-0.5529,0.0824-0.7058,0.2872 c-1.0409,1.3943-2.0817,2.7885-3.1226,4.1828c-0.1533,0.2053-0.1376,0.4037-0.0436,0.5647c0.0457,0.113,0.1232,0.2179,0.2678,0.2905 c4.0977,2.0587,7.9785,5.4643,10.2139,9.4755c3.0863,5.5381,2.7596,13.0918,0.7361,18.9729 c-0.1338,0.3887,0.2174,0.7911,0.6027,0.7911c1.7622,0,3.5245,0,5.2867,0c0.2711,0,0.5338-0.1938,0.6027-0.4588 C224.5105,173.6463,225.1147,168.2315,224.4252,163.2074z"/></g></svg>