<?xml version="1.0" encoding="UTF-8" standalone="no"?><svg xmlns="http://www.w3.org/2000/svg" xmlns:xlink="http://www.w3.org/1999/xlink" contentScriptType="text/ecmascript" fill="#000000" width="500.7" zoomAndPan="magnify" contentStyleType="text/css" viewBox="-0.2 -0.1 500.7 432.8" height="432.8" preserveAspectRatio="xMidYMid meet" version="1"><g><g id="change1_1"><path fill="#3b2c5a" d="M276.1,432.6c-10.4,0-20.8-1.5-30.7-4.4c-1.4-0.4-2.8-0.8-4.3-1.2l-1.8-0.5c-1.2-0.3-2.7-0.8-4.1-1.4 c-6.2-2.8-11-5.2-15.3-7.7c-2.5-1.5-4.6-3.1-6.2-5.1c-1.2-1.4-1.9-3-2.2-4.8c-0.8-5.5-1.3-11.1-1.7-16.5c-0.1-2-0.3-3.9-0.5-5.9 c-3.6,0.8-7.1,1.2-10.4,1.2c-5.1,0-10.1-1-14.7-3c-12.8-5.5-22.3-14.8-28.2-27.6c-0.1-0.3-0.3-0.5-0.4-0.7l-0.2-0.3 c-2.9-1.1-4.8-3.2-5.8-6.2c-1.1-3.3-1.9-6.9-2.3-11.1c-1.3-13.2-1.2-26.3-1-38.7c0-1.8,0.2-3.5,0.4-5.3c0.1-0.8,0.1-1.6,0.2-2.4 c0,0-0.1,0-0.1,0c-0.5,0-0.7,0.4-0.8,0.8L146,292c-0.7,1.8-1.5,3.7-2.2,5.5c-1.3,3.1-2.5,6.2-3.8,9.3c-1.6,3.8-3.2,7.6-4.8,11.3 l-1.9,4.4c-2.2,5.2-4.2,10.6-6.2,15.8c-0.7,1.9-1.4,3.8-2.2,5.7c-2.4,6.2-4.5,12.6-6.6,18.8l-1.3,4c-0.3,0.9-0.7,1.8-1.1,2.7 c-0.2,0.4-0.3,0.8-0.5,1.3c0.2,0.6,0.2,1.2,0,1.8c-1.5,4.7-3.7,10-7.9,14.4c-1.6,1.7-3.2,3-4.9,4l-2.2,1.3 c-6.8,4-13.9,8.2-20.8,12.2c-3.2,1.8-6.5,3.2-9.8,3.9c-1.4,0.3-2.6,0.5-3.8,0.5c-2.6,0-4.8-0.8-6.8-2.3c-3.6-2.8-4.9-6.7-3.8-11.1 c0.1-0.2,0.1-0.5,0.2-0.7c0.2-0.5,0.4-1,0.3-1.6c-0.1-0.1-0.1-0.1-0.2-0.1c-0.5,0-0.9,0.3-1.2,0.6c-0.1,0.1-0.2,0.2-0.3,0.3 c-6.4,4.4-12.6,7.1-18.8,8.3c-1.9,0.4-3.6,0.5-5.1,0.5c-1.1,0-2.2-0.1-3.3-0.3c-1.2-0.2-2.5-0.5-3.5-1.2c-0.8-0.5-1.6-0.7-2.6-0.7 c-2.6-0.1-5.1-0.7-7.4-1.8c-1.6-0.8-2.7-1.8-3.5-3c-0.4-0.6-0.9-1-1.7-1.3c-3.6-1.2-5.8-3.7-6.5-7.4c-0.2-1-0.5-1.8-1-2.6 c-0.9-1.5-0.9-3.3-0.9-4.9c-0.1-5.1,1.7-9.8,5.2-14.2c5.8-7.2,13.3-12.7,22.3-16.2c8.5-3.3,17.5-5.5,26.7-6.5c4-0.4,7-1.7,9.4-4.1 c0.2-0.2,0.5-0.3,0.8-0.4c0.3-1.6,0.9-3,1.5-4.4c0.2-0.5,0.4-1,0.6-1.5c3.5-8.6,7.4-17.3,11.5-25.7c2.4-4.9,4.7-9.9,7-14.8l2.7-5.9 c3.6-7.9,7.3-16,11.3-23.8c0.2-0.3,0.4-0.6,0.5-1l0.3-0.4c-1.2-3-1.2-5.6-0.1-8.1c-0.6-0.7-0.4-1.4-0.1-2.1l0-0.1 c1.1-3.4,2.6-7,4.6-11.1c2.9-6.1,5.6-11.6,8.4-16.7c5.3-9.9,11.9-18.8,19.8-26.5c9.7-9.6,21.6-15.4,35.2-17.4 c0.4-0.1,0.9-0.1,1.4-0.1l0.6-0.1c0.3,0,0.6,0,1,0l0.6,0l0-0.1l-0.6,0c-0.3,0-0.6,0-1,0c0.5-0.2,0.9-0.2,1.4-0.2c0.1,0,0.7,0,0.8,0 c0.4,0,0.8,0,1.3-0.2c-4.1-3.9-8-8.3-12-13.6c-2.6,1.5-5.4,2.7-8.5,3.5c-1.9,0.5-3.7,0.7-5.6,0.7c-3.9,0-7.9-1.1-11.9-3.3 c-3.2-1.8-5.9-3.9-8.3-6.3c-4.8-4.9-7.8-10.7-9.2-17.8c-0.7-3.7-1-7.5-0.7-11.3c0.5-6.1,1.8-11.3,3.9-15.7l0.2-0.4 c0.3-0.5,0.5-1,0.6-1.7c-1.3-1-2.2-2.4-3.1-3.6c-0.2-0.3-0.4-0.6-0.7-0.9c-1.4-0.6-2-1.7-2.6-3.2c-1.5-4.1-2.5-8.4-2.8-13.1 c-0.2-2.4-0.2-4.5,0-6.4c0.3-3.4,1.2-6.7,2.9-10.5c1.6-3.7,3.9-7,6.2-10.2l0.9-1.3c4.1-6,7.3-12.9,10-21.6 c1.3-4.1,3.2-9.4,6.7-13.8c3-3.8,6.5-6.4,10.7-7.9c4.2-1.5,8.7-2.3,13.7-2.3c1.6,0,3.4,0.1,5.2,0.2c1.1,0.1,2.2,0.1,3.4,0.1 c1.7,0,3.4-0.1,5.3-0.3c3.9-0.4,7.7-1.6,11.4-3.5c1.5-0.8,2.9-1.7,4.3-2.6c0.5-0.3,1-0.7,1.6-1c4.6-2.9,9.6-5.9,15-8.1 c2.8-1.1,5.9-1.8,10-2.1c0.2,0,0.3,0,0.5,0c1.3,0,2.2,0.4,2.9,1.1c3.3,0.4,6.5,1.6,9.9,3.6l1.1,0.6c2.3,1.4,4.8,2.8,7.1,4.3 c3.9,2.4,7.7,3.8,11.6,4.3c0.3,0,0.7,0,1,0c1.8,0,3.6-0.1,5.4-0.2c1.8-0.1,3.6-0.2,5.4-0.2c0.9,0,1.8,0,2.6,0.1 c3.9,0.3,8.4,1,12.3,3.9c2.8,2.1,5.2,5,7.5,9c2,3.6,3.4,7.7,4,12.6c0.3,2,0.6,3.9,0.9,5.7c0.1,0.7,0,1.3-0.1,1.9L292,47l0.2,0.9 c0.9,4.1,1.8,8.3,1.7,12.6c0,3.5-0.7,6.8-2.1,10.1c-1.4,3.5-3.9,6.3-7.2,8.4c0.9,0.3,1.1,1,1.3,1.8c0.6,2.7,0.8,5.6,0.8,8.9 c0,0.2,0,0.4,0,0.7c0,0.3,0,0.6,0,1c0.2,6-0.4,12.5-2,20.4c-0.8,3.7-1.1,6.9-1.1,9.8c0,4.6,0.8,8.6,2.5,12.1c1.1,2.3,2.1,4.3,3,6.4 c0.6,1.4,1,2.7,1.3,4.1c0.7,3.4-0.2,6.5-2.6,9.1c-2.7,2.9-6.2,4.7-11,5.6c-1.4,0.2-2.8,0.3-4.1,0.4l-0.3,0c-2.2,2-3.8,4.5-5.4,6.9 l-0.4,0.6c-2.4,3.6-5.4,6.9-9,9.6c-0.6,0.5-1.2,0.9-1.5,1.6c4.9,2.2,9.3,5.1,13.2,8.8c0.3,0.3,0.5,0.5,0.8,0.7l0.4,0.3l0.9-1.3 c0.6-1,1.2-2,1.8-3c2.6-4.4,5.4-8.8,8.2-13c2.1-3.3,4.3-6.6,6.4-10c0.8-1.3,1.6-2.6,2.4-3.9c2-3.4,4.1-6.9,6.5-10.1 c0.4-0.5,0.7-0.9,1.1-1.4c1.3-1.7,2.6-3.5,4.1-5.1c-0.5-1.4-0.4-1.5,0.7-2.1c2.6-1.3,5.4-2.4,9.2-3.6c7-2.3,14.6-4.5,22.5-5.6 l2-0.3c4.9-0.7,10-1.3,15-1.5c0.5,0,1,0,1.5,0c10.4,0,19.7,3.5,27.7,10.3c0.6-0.2,0.9-0.6,1.1-1c0.1-0.1,0.2-0.3,0.3-0.4 c1.9-2.5,4.2-4.7,7-6.7c6.2-4.3,12.3-6.9,18.9-8c2-0.3,4-0.5,6.2-0.5c2.2,0,4.5,0.2,7.2,0.5c1.8,0.2,3.7,0.6,5.5,0.9l0.3,0.1 c1.1,0.2,1.7,0.5,1.7,1.6c1.7,1.5,3.3,3.3,4.9,5.5c0.2,0,0.4,0.1,0.6,0.1c0.8,0,1.5,0.1,1.9,1l0.3,0l0.3,0c1.7,0,2.9,0.6,3.5,1.8 c0.7,1.2,0.5,2.8-0.5,4.3c-4,6.1-8,12.4-11.9,18.4c-1.5,2.4-3.1,4.8-4.6,7.1l-6.1,9.4c-4.6,7.1-9.2,14.2-13.8,21.3 c-3.2,5-6.4,10-9.6,15l-4.5,7c0.3,0.6,0.4,1.1,0.1,1.5c-1.3,2.2-2.9,3.3-4.9,3.3l-0.2,0c-1.6,0-3.3-0.2-4.9-0.4 c-0.7-0.1-1.4-0.2-2.1-0.2c-0.4,0-0.8-0.2-1-0.6h-1.4c-0.6,0.8-1.2,1.1-2,1.1l-0.1,0c-0.5,1.7-1.4,3.3-2.3,4.7 c-0.3,0.6-0.7,1.1-1,1.7l-1,1.8c-1.9,3.4-3.8,7-5.9,10.4c-3.3,5.3-7.4,11.6-12.1,17.4c-2.7,3.3-5.3,6.1-7.8,8.4 c-6.2,5.7-11.7,9.6-17.3,12.4c-3.9,1.9-7.8,3.1-12,3.6c-1.5,0.2-3,0.3-4.5,0.3c-5.8,0-11.5-1.3-17.6-4.1c-4.1-1.9-8.1-4.6-11.8-8.1 c-0.2-0.2-0.4-0.3-0.6-0.5c-0.5-0.3-1.1-0.7-1.1-1.4l-1.1,0c0.4,5.4,0.5,10.9,0.2,16.6c-0.2,4-0.2,8.1-0.3,12c0,0.5,0,1,0,1.5 l0,0.7c0.1,0,0.3,0,0.4,0c0.5,0,1,0,1.4,0c1.5,0,3,0.1,4.4,0.2c1.1,0.1,2.1,0.1,3.2,0.2c8.8,0.3,17.8,0.7,27.5,1.1 c3.3,0.2,6.7,0.4,9.9,0.6c1.9,0.1,3.8,0.3,5.7,0.4c2.2,0.1,3.5,0.9,4.3,2.4c0.6,0.3,1.1,0.4,1.8,0.4c3.2,0,6.3,0.4,9.4,0.7 c1.5,0.2,3,0.3,4.5,0.5c1.5,0.1,3.4,0.3,5.1,0.9c1-0.1,2.1-0.1,3.1-0.1c4,0,8.4,0.7,13.2,2.1c3.3,1,6.4,2.6,9.2,4 c1.9,0.2,3.7,0.9,5.4,1.6c0.4,0.2,0.8,0.3,1.2,0.5c9.4,3.5,18.7,7.7,27.6,11.8l0.5,0.2c1.8,0.8,3.6,1.6,5.4,2.3 c1.1,0.5,2.3,0.9,3.4,1.4c0.1,0.1,0.2,0.1,0.4,0.1c0.5,0.2,1,0.4,1.3,0.8c0.8-0.3,1.5-0.6,2.2-0.9c1.1-0.5,2.3-1.1,3.6-1.4 c0.4-0.1,0.8-0.2,1.2-0.2c0.6,0,1,0.3,1.3,0.8c2.2,0.1,4.3,0.8,6.2,1.5l0.4,0.1c1.6,0.6,3.2,1.2,4.9,1.2c0.3-0.2,0.7-0.3,1-0.3 c0.2,0,0.3,0,0.5,0.1c0.7-0.2,1.1-0.7,1.5-1.2c0.2-0.2,0.3-0.4,0.5-0.6c0.2-0.2,0.4-0.5,0.6-0.7c0.4-0.5,0.7-1,1.3-1.2 c-0.1-0.4,0.1-0.5,0.3-0.7c0,0,0.1-0.1,0.1-0.2c0.3-0.2,0.4-0.5,0.6-0.8c0.2-0.3,0.4-0.7,0.8-0.9c2.2-3,4.2-5.2,6.2-7.1 c0.1-0.2,0.3-0.3,0.4-0.5c0.2-0.3,0.4-0.6,0.7-0.7c2.3-2.5,4.4-4.5,6.6-6l0.7-0.5c4.9-4.1,9.6-6.4,14.5-7c0.9-0.1,1.9-0.2,2.8-0.2 c7.1,0,12.2,3.8,15,10.9c0.9,2.5,1.4,5.3,1.6,8.8c0.2,8-0.5,16.6-2.4,27c-0.4,2-0.7,4.1-1,6.2c-0.5,3.3-1.1,6.7-1.8,10 c-3.5,16.4-7,28.8-11.5,40.1c-1.6,4-3.7,8.7-6.9,12.8c-4,5.2-8.7,8.1-14.4,9.1c-1.3,0.2-2.6,0.3-3.8,0.3c-2.7,0-5.5-0.5-8.2-1.5 c-2.1-0.8-4.4-1.8-7-3.2c-5.5-2.9-11.1-5.8-16.6-8.7c-3.8-2-8.3-4.2-13.1-6c-0.6-0.2-1.3-0.5-1.9-0.8c-0.4-0.2-0.7-0.3-1.1-0.5 c-5.5-2.3-8.9-5.5-10.6-10.1c-3.3-0.9-6.5-2.3-9.5-3.6l-0.6-0.2c-6-2.6-12-5.2-18-7.7l-0.7-0.3c-5.1-2.2-10.5-4.4-15.9-6.1 c-6.4-1.9-11.6-3.1-16.6-3.7c-1.3-0.2-2.7-0.4-4-0.6c-1.1-0.2-2.3-0.4-3.4-0.5c-0.7-0.1-1.6-0.2-2.5-0.2c-0.6,0.7-1.4,1.1-2.5,1.1 l-0.2,0c-2.3-0.1-4.7-0.2-7-0.3c-2.4-0.1-4.9-0.2-7.3-0.3c-2.4-0.1-4.7-0.2-7.1-0.3l-3.1-0.1c2.5,2.8,5.4,5.6,8.7,8.7l0.4,0.4 c1.6,1.5,3.2,2.9,4.7,4.5c5.4,5.7,8.4,12.7,8.8,20.8c0.4,6.8-2.5,12.5-8.6,16.8c-4.1,2.9-9,5-15.1,6.4c-4.9,1.1-10.3,1.7-17,1.9 c-0.9,0-1.8,0.1-2.8,0.1c-1.1,0.1-2.1,0.1-3.2,0.1L276.1,432.6z M314.8,222c-3,0-6.1,0.2-9,0.4c-1,0.1-2,0.1-3,0.2 c-0.8,0-1.7,0.1-2.5,0.2c-0.8,0.1-1.6,0.1-2.5,0.2c-0.6,0-1.2,0.1-1.2,1.1c0,0.9-0.3,1.8-0.5,2.7c-0.1,0.4-0.2,0.7-0.3,1.1l1.3,1.2 c1,0.8,1.9,1.7,2.9,2.5c2.6,2.2,5.6,4.1,8.9,5.6c0.8-0.2,1.6-0.5,2.5-1.2c2.4-1.7,4.3-3.9,5.8-5.8c2-2.6,3.8-5,4.9-7.9l-6-0.2 C315.6,222,315.2,222,314.8,222z"/></g><g id="change2_1"><path fill="#f4bfbe" d="M205.3,198.7c2.7,0.7,5.5,1.2,8.3,1.2c4.6,0,9.2-0.6,13.4-2.9c2.8-1.5,5-3.7,6.7-6.6 c-3.3,0.4-6.4,0.7-9.5,0.6c-5.9,0-11.7-0.6-17.4-2.6c-1-0.3-2-0.8-3-1.2c-0.7-0.3-1.2-0.7-0.8-1.5c0.4-0.7,1-0.5,1.6-0.3 c2.3,1,4.7,1.9,7.2,2.3c2.5,0.5,5,0.8,7.5,1c2,0.2,4.1,0.4,6.1,0.3c4.3-0.3,8.6-0.5,12.7-2.3c3.2-1.4,6.6-2.4,9.8-4 c2.3-1.2,4.4-2.7,6.7-3.9c0.2-0.8,0.8-1,1.5-1c0.3-0.7,0.9-1.1,1.5-1.5c3.5-2.7,6.5-5.9,9-9.6c1.8-2.6,3.4-5.3,5.8-7.5 c-1.6-0.1-3.2-0.1-4.8-0.5c-1.1-0.3-1.7-0.8-1.6-1.4c0.1-0.7,0.8-0.8,2-0.6c4.4,0.7,8.7,0.5,12.9-1.1c2.2-0.9,4.2-2.1,5.7-3.9 c2.4-2.8,2.5-6,1.4-9.3c-0.8-2.4-1.9-4.7-3.1-6.9c-2.8-5.3-3.6-11-3.1-16.9c0.3-4.1,1.1-8.2,1.9-12.2c0.6-2.9,0.9-5.8,1-8.7 c0.1-2.4,0.2-4.8,0.2-7.2c0.1-3.2-0.3-6.3-0.9-9.5c-0.1-0.5-0.2-1.1,0-1.6c-4.2,2-8.7,2.6-13.3,2.6c-26.5,0-53,0-79.5,0 c-0.2,0-0.4,0-0.5,0c-1.8-0.1-3.3,0.2-4.5,1.7c-1.4,1.7-2.2,3.6-1.7,5.8c0.4,1.9,1,3.7,1.4,5.6c0.8,3.5,1.5,7,1,10.7 c-0.8,5.8-5.5,11.3-11.1,12.8c-6.4,1.7-11-0.9-13.2-6.8c-0.4-0.9-0.6-1.9-0.9-2.9c-1.4-5.5-4.8-9.1-10.2-10.9 c-6.7-2.2-13-1.1-19,2.5c-4,2.4-7.1,5.8-9.4,9.8c-0.4,0.6-0.8,1.2-1.1,1.8c0,0.7-0.4,1.4-0.8,2c-2.4,5-3.5,10.3-3.9,15.8 c-0.3,3.8-0.1,7.5,0.7,11.3c1.4,6.8,4.3,12.8,9.2,17.8c2.5,2.5,5.2,4.6,8.3,6.3c5.5,3.1,11.3,4.2,17.5,2.6c3-0.8,5.8-1.9,8.5-3.5 c3.6,4.9,7.5,9.4,12,13.5c-1.2,0.5-2.4-0.2-3.5,0.5c1.1,0,2.2,0.1,3.2,0c0.9-0.1,1.5,0.3,1.8,1.1c2.8,2.2,5.2,4.7,7.9,7.1 C189.3,192.3,196.8,196.5,205.3,198.7z M264,164.3c1.4-0.3,2-0.2,2.1,0.5c0.1,1.1-0.8,1.1-1.6,1.3c-2,0.6-4.1,0.8-6.2,0.8 c-2.3,0-4.6-0.3-6.7-1c-0.7-0.2-1.6-0.4-1.4-1.5c0.1-0.7,0.7-0.8,2-0.4C256.1,165.3,260,165.3,264,164.3z M248.4,133.5 c3.2-2.5,6.7-0.9,7.2,3.1c0.1,0.5,0.1,1.1,0.1,1.6c-0.1,3.4-1.3,6.2-3.7,8.6c-1.4,1.4-3.1,2.3-5.2,1.6c-2.1-0.7-2.8-2.6-2.9-4.6 C243.6,139.6,245,136,248.4,133.5z M229.6,149.2c6.2,0,11.2,5.1,11.2,11.3c0,6.1-5.1,11-11.2,11.1c-6.1,0.1-11.4-5-11.2-11.2 C218.3,154.4,223.4,149.2,229.6,149.2z M150.2,148.5c-0.1,0.6-0.6,0.7-1.1,0.7c-0.2,0-0.5,0-0.7-0.1c-3.6-1.1-6.2-3.3-7.4-7 c-0.9-2.7-0.3-5.2,0.7-7.7c0.9-2.2,2.5-4.1,4-6c1-1.2,1.9-2.5,2.2-4.1c0.4-2.1,0-4.1-1.3-5.8c-1.5-2-3.5-3.5-6.1-3.8 c-0.6-0.1-1.2-0.1-1.8,0c-0.5,0.1-1,0.1-1.4,0c-0.7-0.1-0.9-0.9-0.4-1.4c0.3-0.4,0.8-0.6,1.3-0.6c1.9-0.1,3.7-0.1,5.4,0.8 c2.8,1.4,4.9,3.4,5.9,6.4c0.3,1,0.5,2,0.4,3c0.2,2.7-1.2,4.8-2.8,6.8c-1.4,1.7-2.7,3.4-3.6,5.4c-2.2,4.9-0.5,9.6,4.6,11.7 c0.5,0.2,1,0.4,1.5,0.6C150,147.6,150.3,148,150.2,148.5z M277.2,340c0,1.1,0,1.1-1.1,0.9c-3.5-0.6-7-0.7-10.6-0.2 c-4.1,0.6-8,1.5-11.6,3.6c-4,2.3-6.7,5.5-7.7,10.1c-0.4,1.9-0.5,3.9-0.8,5.9c-0.7-1.5-1.5-3-2.2-4.5c-2.7-5.2-6.7-8.7-12.5-9.8 c-3.9-0.7-7.8-0.9-11.8-0.8c-0.9,0-1.9,0.4-2.8,0.2c0.5-0.7,0.4-1.5,0.4-2.3c0-29.9,0-59.8,0-89.7c0-0.4,0-0.7,0-1.1 c0-0.6-0.2-1.1-0.9-1.1c-0.7,0-0.9,0.5-0.9,1.1c0,0.5,0,1,0,1.4c0,8.8,0,17.7,0,26.5c0,0.7,0.2,1.4-0.3,2.1 c-6.8-0.1-13.5-0.6-20.2-1.9c-3.1-0.6-6.1-1.5-8.7-3.3c-2.7-1.8-3.9-4.3-3.5-7.5c0.5-3.7,1-7.5,1.7-11.2 c2.3-13.4,7.3-25.6,15.9-36.2c4.4-5.4,9.6-9.9,15.8-13.1c4-2.1,8.4-3.2,12.9-3.8c5.1-0.6,10,0.1,14.8,1.9c3.7,1.4,7.1,3.6,10.2,6 c5.9,4.5,11,9.8,14.7,16.4c2.7,4.9,4.6,10,5.6,15.5c0.8,4.5,1.5,9,2,13.5c0.2,1.6,0.1,3.2,0.1,4.9c0,0.9,0.2,1.8,0.7,2.6 c0.4,5.5,0.5,11,0.3,16.5c-0.2,4-0.2,8-0.3,12c0,0.7,0,1.4,0,2.2c0.1,4.9,0.3,9.8,0.3,14.8c0,4.7,0.1,9.5,0.3,14.2 C277,330.5,277.1,335.3,277.2,340z M147.5,286.6c-0.2,1.5-0.3,2.9-0.5,4.4c-0.6,0-0.7,0.5-0.9,1c-2,4.9-4,9.9-6,14.8 c-2.2,5.3-4.4,10.5-6.6,15.8c-3,7.1-5.6,14.3-8.3,21.5c-2.9,7.5-5.4,15.1-7.9,22.8c-0.5,1.4-1,2.7-1.6,4c-1.1-0.4-1.5,0.2-1.9,1.1 c-0.5,1.5-1,3-1.6,4.4c-2.4,6-6.1,10.8-11.9,13.9c-3.8,2.1-7.6,4.4-11.3,6.6c-4.4,2.6-8.8,5.4-13.5,7.5c-3.1,1.4-6.2,2.4-9.7,2.4 c-4.2,0-10-4.7-8.1-11c1.3-4.2,3.9-7.4,7.3-10.1c4.2-3.4,9.1-5.3,14.2-6.8c0.3-0.1,0.7-0.2,1-0.3c0.4-0.2,0.7-0.5,0.6-1 c-0.1-0.6-0.4-0.8-1-0.9c-0.3,0-0.6,0-0.9,0.1c-5.2,1.6-10.3,3.4-14.6,6.8c-2.9,2.3-5.7,4.7-8.7,7c-6.4,4.9-13.4,8.5-21.4,9.7 c-2.8,0.4-5.6,0.5-8.4-0.5c-2.5-0.9-3.9-3.3-3.4-5.9c0.4-2.3,1.5-4.3,3.5-5.6c1.7-1.2,3.5-2.3,5.5-3.2c4-1.9,7.5-4.4,10.7-7.5 c2.6-2.5,5.5-4.4,8.9-5.7c0.6-0.2,1.3-0.4,1.9-0.6c0.5-0.2,0.9-0.4,0.8-1c-0.1-0.6-0.4-0.8-1-0.9c-0.6-0.1-1.1,0.1-1.6,0.3 c-3.9,1.2-7.3,3.4-10.2,6.2c-3.3,3.1-6.9,5.8-11,7.7c-1.9,0.9-3.8,1.9-5.4,3.2c-3.3,2.7-4.8,6.1-3.8,10.3c0.1,0.3,0.4,0.6-0.1,1.1 c-3-0.2-5.9-1.1-8.2-3.3c-0.3-0.3-0.5-0.7-0.7-1c-1.6-2.9-1.1-6.3,1.3-8.8c1.4-1.6,3.2-2.6,5-3.4c2.5-1.2,4.9-2.5,7-4.4 c1.7-1.5,3.4-3,5-4.7c3.9-3.9,8.5-6.6,13.8-8.2c0.3-0.1,0.7-0.2,1-0.3c0.4-0.2,0.7-0.5,0.6-1c-0.1-0.5-0.5-0.8-1-0.8 c-0.3,0-0.6,0.1-0.9,0.2c-4,1-7.6,2.9-10.9,5.3c-2.5,1.8-4.7,4.1-7,6.2c-2.3,2.2-4.8,4.1-7.8,5.5c-1.5,0.7-2.9,1.5-4.2,2.4 c-3.1,2.3-4.9,5.2-4.9,9.1c0,0.3,0.1,0.6-0.2,0.9c-0.3,0.1-0.6-0.1-0.8-0.2c-3.3-1.7-4.5-6.2-3.4-9.2c0.7-2.1,2.1-3.7,3.9-5.1 c2.3-1.7,4.8-3.2,6.7-5.4c1.4-1.7,2.8-3.4,4.2-5.1c4.3-5.2,9.8-8.6,16.4-10.1c0.5-0.1,1.1-0.2,1.5-0.5c0.4-0.3,0.5-0.7,0.4-1.1 c-0.1-0.4-0.5-0.6-0.8-0.5c-0.5,0-1,0-1.4,0.1c-7.6,1.6-13.6,5.6-18.3,11.6c-2.5,3.2-5.2,6.3-8.7,8.5c-2.3,1.5-4.3,3.4-5.5,6 c0,0.1-0.2,0.1-0.3,0.1c0,0-0.1-0.1-0.1-0.1c0-0.2-0.1-0.4-0.1-0.5c-0.3-4.6,1.1-8.8,3.7-12.6c2.1-3.1,4.7-5.7,7.6-8.1 c4-3.4,8.3-6.2,13.1-8.2c9.5-4,19.4-6.2,29.6-7.3c3.3-0.4,6.1-1.8,8.5-3.9c1-0.9,1-1.2,0-2.3c0.3-2.1,1.4-4,2.1-5.9 c3.5-8.7,7.4-17.3,11.5-25.7c2.8-5.7,5.4-11.5,8.1-17.3c4.2-9.1,8.4-18.3,13-27.3c0.2-0.5,0.5-0.9,0.8-1.4c1.7,2.3,3.1,4.9,5,7 c4.3,4.6,9.6,7.8,15.3,10.3c4.8,2.1,9.8,4,14.9,5.2c3.2,0.8,6.4,1.5,9.7,1.8c0.8,0.1,1.7,0.3,2.5,0.4 C147.2,285.7,147.4,286.2,147.5,286.6z M325,276.3c-3.8,1.8-7.7,3.1-12,3.6c-7.8,1-15.2-0.6-22.2-3.8c-4.4-2-8.3-4.8-11.8-8.1 c-0.6-0.6-1.7-0.8-1.8-1.9c0.3-0.7,0.4-1.4,0.3-2.1c-0.2-3-0.5-6-0.7-9.1c0-0.5-0.2-1-0.3-1.6c0.8,0.2,1.4-0.3,1.9-0.9 c5.9-6.4,11.3-13.2,15.4-21c0.3-0.6,0.4-1.3,1.1-1.6c0.9,0.7,1.9,1.4,2.8,2.2c2.7,2.7,6,4.7,9.4,6.2c1.3,0.6,1.9,0.1,1.8-1.5 c0.9-0.2,1.7-0.6,2.4-1.2c2.3-1.6,4.1-3.6,5.8-5.8c1.9-2.4,3.8-4.9,4.9-7.8c0.3-0.1,0.8,0,1-0.3c0.5-0.4,0.5-0.9,0.4-1.5 c0.6-1.8,1.5-3.4,2.5-5.1c0.4,1.9,1.6,3.3,2.7,4.8c0.5,0.7,1.1,1.4,1.7,2.1c0.5,0.7,1.4,0.9,1.9,0.4c0.6-0.6,0.4-1.2-0.1-1.7 c-0.1-0.1-0.3-0.3-0.4-0.4c-1.7-1.8-2.9-3.8-3.9-6c-0.2-0.5-0.5-1-0.4-1.7c1.4,0,2.6,0,3.9,0.3c0.8,0.2,1.6,0.3,2.3-0.1 c0.3-0.2,0.6-0.4,0.6-0.8c0-0.4-0.3-0.6-0.6-0.8c-0.4-0.2-0.9-0.3-1.4-0.3c-1.5,0.1-3-0.2-4.5-0.4c-3.7-0.6-7.2-1.9-10.3-4 c-1.7-1.2-2.9-2.7-3.7-4.6c-0.4-1-0.3-1.8,0.5-2.5c1.4,1.1,2.9,2.1,4.5,2.7c4.7,1.6,9.5,2.7,14.4,3c1,0.1,1.9,0.2,2.9,0.2 c2.3,0.1,4.6,0.1,6.8,0.1c0.6,0,1.1-0.3,1.1-0.9c0-0.7-0.5-0.9-1.1-0.9c-0.2,0-0.5,0-0.7,0c-5.7,0.1-11.4-0.6-17-1.8 c-3.1-0.7-6.1-1.5-8.8-3.4c-3.3-2.3-4-7.7,0-10.6c0.9-0.6,1.6-0.7,2.4,0.1c0.6,0.6,1.2,0.9,1.9,1.3c4.1,2.2,8.6,2.6,13,3.5 c3.4,0.7,6.8,1.2,10.2,1.7c1.3,0.2,2.6,0.6,3.9,0.5c0.6,0,1.3-0.1,1.4-0.8c0.1-0.8-0.6-0.9-1.2-1.1c-1-0.2-2-0.4-3-0.6 c-6.2-0.9-12.3-1.9-18.4-3.3c-1.9-0.5-3.8-1.1-5.5-2.1c-2.6-1.6-3.5-4.2,0.1-6.7c0.3-0.2,0.8-0.4,1.1-0.5c2.8-1,5.6-1.6,8.6-1.9 c5.3-0.5,10.5-0.6,15.7,0.6c3.2,0.7,6.3,1.6,9.4,2.7c1.8,0.6,3.4,1.3,5,2.3c0.3,0.2,0.6,0.4,0.9,0.5c0.5,0.2,1.1,0.2,1.4-0.4 c0.3-0.5,0-0.9-0.3-1.3c-0.4-0.5-0.9-0.8-1.5-1c-2-1-4-1.9-6.1-2.6c-5.3-1.8-10.7-3-16.3-3.6c-2.3-0.3-4.5-0.8-6.4-2.2 c-1.6-1.2-1.8-3.1-0.4-4.5c2.2-2.1,4.9-2.8,7.7-3c3.7-0.3,7.4,0.3,11.1,0.9c5.4,0.9,10.3,2.8,14.7,5.9c2.7,1.9,4.8,4.2,6.2,7.2 c0.7,1.6,1.2,3.2,1.5,4.9c0.1,0.5,0.3,0.8,0.8,0.8c0.6,0,0.9-0.3,1-0.8c0-0.4,0-0.7,0-1.1c-0.4-1.8-0.7-3.7-1.6-5.3 c-0.5-0.9-0.5-1.7-0.2-2.6c1.1-3.4,3-6.2,5.7-8.6c2.4-2.1,5.9-2.5,8.2-1c2,1.4,3.3,3.3,3.9,5.6c0.7,2.7,0.3,5.4-0.2,8 c-0.4,2.2-0.9,4.3-1.8,6.4c-0.7,1.7-1,3.5-1.7,5.2c-1,2.8-2.8,5.1-3.9,7.9c-0.4,1.1-0.9,2.1-1.5,3.1c-2.9,4.8-5.8,9.7-8.9,14.4 c-0.6,0.9-1,1.9-0.8,3c-0.7,2.3-2.1,4.3-3.3,6.4c-2.3,4.1-4.5,8.2-6.9,12.2c-3.7,6-7.6,11.9-12.1,17.4c-2.4,3-5,5.8-7.8,8.4 C337.1,268.7,331.5,273.1,325,276.3z M424.5,328.9c-0.3,0.5-0.8,0.7-1.3,0.9c-2.6,1.6-4.8,3.7-6.6,6.1c-3.3,4.4-5.6,9.4-6.8,14.7 c-0.4,1.6-0.6,3.3-0.6,5c0,5.8,2.5,10,7.9,12.3c-3.5,1.3-6.9,2.8-9.8,5.2c-4.4,3.6-6.5,8.5-7.8,13.9c-0.7,3-0.6,5.9,0,8.9 c-3.5-1-6.8-2.4-10.1-3.8c-6-2.6-12-5.2-18-7.7c-5.5-2.3-10.9-4.7-16.6-6.4c-5.4-1.7-10.9-3-16.6-3.7c-2.5-0.3-4.9-0.8-7.4-1.2 c-0.8-0.1-1.7-0.2-2.5-0.2c-1.8-1-3-2.5-3.9-4.3c-1.3-2.6-2.3-5.4-2.9-8.3c-0.9-4.7-1.1-9.4-1.1-14.1c0.1-10.1,1.1-20.1,4-29.8 c1.2-4.1,2.4-8.1,4.7-11.8c0.9-1.5,2-2.5,3.8-2.7c0.6,0.3,1.1,0.4,1.7,0.4c4.7,0,9.3,0.8,13.9,1.2c1.7,0.1,3.4,0.3,5.1,0.9 c-2.4,0.3-4.7,1.1-7,1.6c-0.6,0.2-1.2,0.4-1.1,1.2c0,0.6,0.8,1,1.7,0.8c0.4-0.1,0.8-0.2,1.2-0.3c4.3-1.5,8.8-1.7,13.3-1.1 c7.1,1,13.7,3.1,19.2,7.8c0.4,0.3,0.8,0.7,1.4,0.8c0.4,0.1,0.7,0.1,1-0.2c0.3-0.4,0.3-0.8,0.1-1.2c-0.2-0.2-0.4-0.4-0.7-0.6 c-1.2-1-2.4-2-3.6-2.9c2.4,0.2,4.5,1.2,6.7,2c9.6,3.6,18.8,7.8,28.1,12c2.9,1.3,5.9,2.5,8.8,3.7 C423.5,328.2,424.1,328.3,424.5,328.9z"/></g><g id="change3_1"><path fill="#fcb436" d="M497.6,348.2c-1,5.4-1.7,10.8-2.8,16.1c-2.9,13.6-6.4,27.1-11.5,40.1c-1.8,4.5-3.9,8.9-6.9,12.8 c-3.7,4.8-8.4,8.1-14.4,9.1c-4.1,0.7-8.1,0.3-12-1.2c-2.4-0.9-4.7-2-7-3.2c-5.5-2.9-11.1-5.8-16.6-8.7c-4.3-2.2-8.6-4.3-13.1-6 c-1-0.4-2-0.8-3-1.2c-4.9-2-8.8-5-10.6-10.1c-0.6-3-0.7-6,0-8.9c1.3-5.4,3.4-10.2,7.8-13.9c2.9-2.4,6.3-3.9,9.8-5.2 c0.5,0.1,1,0.3,1.6,0.4c1.5,0.3,3.1,0.6,4.6,0.5c0.5,0,1-0.3,1-0.8c0.1-0.7-0.4-1-0.9-1.1c-0.7-0.1-1.4-0.1-2.2-0.2 c-2.9-0.3-5.5-1.2-7.5-3.4c-2.3-2.5-2.8-5.5-2.6-8.7c0.4-5.6,2.5-10.7,5.5-15.4c3.4-5.5,8.3-9.1,14.5-10.8c0.7-0.2,1.2-0.4,1.4-1.2 c2.2,0.1,4.2,0.7,6.2,1.5c1.7,0.6,3.5,1.3,5.3,1.4c-2.6,3.2-4.2,7-5.5,10.8c-1.7,4.9-2.9,9.9-2.6,15.2c0.1,2,0.3,3.9,0.5,5.9 c0.1,0.6,0.2,1.3,1,1.2c0.9-0.1,0.9-0.8,0.9-1.5c-0.1-0.8-0.1-1.6-0.2-2.3c-1.1-10.2,1.6-19.4,7.3-27.8c0.4-0.6,0.6-1.2,0.1-1.8 c0.9-0.3,1.3-1.2,2-1.8c0.7-0.7,1-1.6,2-2c-0.1-0.4,0.2-0.6,0.4-0.9c0.1,0.4,0.1,0.7-0.4,0.9c0.2,0.4,0,0.7-0.1,1 c-0.5,1.6-1.1,3.2-1.5,4.8c-1.6,5.7-2.5,11.5-1.9,17.4c0.1,0.7,0.2,1.4,0.3,2.1c0.1,0.5,0.4,0.9,1,0.9c0.7,0,0.9-0.5,0.9-1.1 c0-0.6,0-1.2-0.1-1.8c-0.6-4.3-0.1-8.5,0.7-12.7c0.8-3.8,1.8-7.6,3.5-11.1c0.6-1.4,0.5-1.6-0.9-2c1.9-2.5,3.9-5,6.2-7.1 c-0.4,1.4-0.9,2.7-1.3,4.1c-2.2,6.8-2.9,13.7-0.8,20.7c0.2,0.6,0.3,1.2,0.5,1.7c0.2,0.5,0.6,1,1.2,0.8c0.6-0.2,0.8-0.7,0.6-1.3 c-0.1-0.6-0.3-1.3-0.5-1.9c-1-4.2-1.7-8.4-0.8-12.6c0.8-3.6,1.6-7.3,3.1-10.7c0.6-1.3,0.5-1.5-1-1.9c2-2.2,4.1-4.3,6.6-6 c0,0.4-0.1,0.8-0.3,1.2c-1.2,2.8-2,5.7-2.5,8.6c-1.6,9.4,0.6,17.8,6.8,25c1.3,1.5,1.6,2.7,1.1,4.6c-2.6,9.3-5.1,18.7-7.5,28 c-2.4,9.4-4.6,18.8-7.4,28c-1.6,5.6-2.8,11.3-4,17c-0.3,1.4,0,2.1,0.7,2.1c1.1,0,1.1-1,1.3-1.7c1.9-9.3,4.5-18.4,6.9-27.6 c3.1-11.6,5.9-23.3,9.1-34.9c1.2-4.3,2.4-8.5,3.4-12.9c0.2-1.1,0-1.9-0.8-2.7c-5.2-5.1-7.7-11.5-8-18.7c-0.2-5.1,1-9.9,3-14.5 c0.7-1.6,0.6-1.9-1.1-2c4.3-3.6,9-6.3,14.6-7c8.2-1.1,14.6,2.5,17.8,10.8c1.1,2.8,1.5,5.8,1.6,8.8 C500.2,330.3,499.2,339.3,497.6,348.2z M323.7,407.3c0.4,7.2-2.9,12.7-8.7,16.8c-4.6,3.2-9.7,5.2-15.2,6.4 c-5.6,1.3-11.3,1.8-17,1.9c-2,0-4,0.2-5.9,0.2c-10.8,0.1-21.3-1.4-31.6-4.3c-2-0.6-4.1-1.1-6.1-1.6c-1.4-0.4-2.8-0.8-4.1-1.4 c-5.2-2.4-10.3-4.8-15.3-7.7c-2.4-1.4-4.5-3-6.2-5.1c-1.2-1.4-1.9-3-2.2-4.8c-1.1-7.4-1.5-14.9-2.1-22.4c0-0.8,0-1.7,0-2.5 c-0.4-9.3-0.5-18.6,0.1-27.9c0.2-2.2,0.5-4.4,1.5-6.4c0.8-1.6,1.9-2.8,3.8-2.9c0.4,0,0.8,0,1.2,0c1,0.2,1.9-0.2,2.8-0.2 c4-0.1,7.9,0.1,11.8,0.8c5.8,1.1,9.8,4.7,12.5,9.8c0.8,1.5,1.5,3,2.2,4.5c0,0.4,0,0.7,0,1.1c0,1.4,0,2.8,0,4.1 c0,0.7,0.2,1.4,1.1,1.3c0.7-0.1,0.9-0.7,0.9-1.4c0-0.4,0-0.7,0-1.1c0-2.4,0.1-4.8,0.3-7.2c0.6-5.5,3.3-9.5,8.3-11.7 c6.6-3,13.6-3.7,20.8-2.4c1.5,0.3,2.6,1.1,3.6,2.2c1.5,1.6,2.3,3.6,3,5.7c1.6,4.8,4.2,8.9,7.7,12.4c3.2,3.3,6.7,6.4,10,9.6 c2.8,3,5.7,5.8,8.7,8.6c1.7,1.6,3.4,3.2,5.1,4.9C320.4,392.3,323.3,399.3,323.7,407.3z M290.9,390.2c-2.4,1.9-4.6,4.1-6.5,6.5 c-0.3,0.4-0.6,0.8-0.8,1.2c-0.2,0.6,0.3,1.3,0.9,1.2c0.6-0.1,0.9-0.5,1.3-1c1-1.2,2-2.4,3.1-3.5c4.8-4.6,10.2-8.4,16-11.6 c0.4-0.2,0.8-0.4,1.1-0.6c0.4-0.3,0.7-0.7,0.5-1.2c-0.3-0.6-0.8-0.7-1.4-0.5c-0.5,0.2-1,0.4-1.5,0.7 C299.2,384,294.9,386.9,290.9,390.2z M273.4,388.8c-0.2,0.3-0.5,0.5-0.7,0.8c-0.3,0.4-0.3,0.9,0.2,1.3c0.4,0.3,0.8,0.3,1.2,0 c0.4-0.3,0.8-0.7,1.2-1.1c6.4-6.6,13.6-11.9,22.3-15.1c0.4-0.1,0.8-0.3,1.2-0.4c0.5-0.2,0.8-0.6,0.7-1.1c-0.1-0.6-0.6-0.7-1.1-0.7 c-0.1,0-0.2,0-0.4,0.1c-0.3,0.1-0.7,0.2-1,0.3C287.7,376.2,280.1,381.7,273.4,388.8z M261.4,380c0.4,0.4,0.9,0.4,1.3,0.1 c0.6-0.4,1.1-0.9,1.6-1.4c5.7-5.6,12.4-9.4,20-11.6c1.8-0.5,3.6-1.1,5.4-1.4c0.7-0.1,1.2-0.3,1.2-1.1c-0.1-0.7-0.6-0.9-1.2-0.9 c-0.5,0-1.1,0.1-1.6,0.2c-9.7,2.3-18.3,6.5-25.4,13.5c-0.4,0.4-0.9,0.8-1.3,1.3C261.1,379.1,261,379.5,261.4,380z M312.6,387.9 c0-0.5-0.3-0.8-0.8-0.9c-0.5-0.1-0.9,0-1.4,0.1c-1.4,0.4-2.7,1-4,1.7c-3.2,1.7-6,4-8.6,6.5c-5.9,5.5-10.4,11.8-12.2,19.8 c-0.2,0.7-0.5,1-1.2,1.2c-1.9,0.4-3.9,0.5-5.9,0.6c-5.4,0.1-10.8-0.7-16.1-1.6c-6.5-1-12.8-2.8-19-4.9c-8.8-3.1-17.6-6-26.1-9.9 c-0.3-0.1-0.6-0.2-0.8-0.3c-0.5-0.1-1,0.1-1.2,0.6c-0.2,0.5,0,0.8,0.4,1.1c0.4,0.3,0.8,0.5,1.3,0.7c11.3,5,23,9.1,34.9,12.5 c8.3,2.4,16.9,3.5,25.3,3.9c2.6-0.1,4.9-0.1,7.2-0.5c1.7-0.3,2.8-1.2,3.1-3c0.3-1.6,0.8-3.1,1.5-4.6c3.3-7.8,8.9-13.6,15.7-18.4 c2.1-1.5,4.2-2.8,6.8-3.3c0.2,0,0.3-0.1,0.5-0.2C312.4,388.6,312.6,388.3,312.6,387.9z M405.2,133.6c-7.1,2-12.2,6.2-16.1,12.2 c-0.6,0.9-1.1,1.8-1.8,2.7c-2.9,4-7,4.8-11.2,2.2c-1.4-0.9-2.6-1.9-3.8-3c-4.8-4.2-10.2-7.2-16.5-8.4c-4.4-0.9-9-1-13.5-0.9 c-7.1,0.3-13.9,1.7-20.7,3.9c-3.2,1-6.4,2.1-9.4,3.7c-1.8,0.9-3.2,2.2-4.3,3.9c-11.2,17.6-22.5,35.2-33.8,52.8 c-2.7,4.2-5.5,8.5-8.2,12.7c-1.5-2-2.1-4.5-3.3-6.7c-1.7-2.9-1-5.6,0.5-8.3c1.9-3.2,3.7-6.4,5.6-9.6c0.3-0.5,0.6-0.9,0.7-1.4 c0.9-0.2,1.2-0.7,1-1.6c0.9-1.4,1.8-2.8,2.7-4.3c4.6-7.8,9.8-15.2,14.6-22.9c2.9-4.7,5.5-9.6,8.9-14c1.7-2.2,3.3-4.5,5.2-6.5 c0.6,0.1,1.2-0.1,1.7-0.4c2.6-1.3,5.4-2.3,8.2-3.2c12.3-4.4,25.1-6.5,38.1-7.4c5.1-0.3,10.1,0.1,15,1.7c5.7,1.9,11.1,4.5,15.2,9.2 c0.1,0.1,0.2,0.2,0.3,0.3c0.7,0.5,1.4,0.4,1.5-0.4c0.1-0.8,0.7-1.4,1.1-2c2.8-4,6.6-6.8,10.7-9.3c5.7-3.3,11.8-5.5,18.4-5.7 c5.1-0.2,10.1,0.3,15,1.4c0.7,0.2,1.3,0.3,1.8-0.3c1.9,1.6,3.5,3.5,4.8,5.5c-0.6,0.3-1.3,0.2-1.9,0.3c-3.2,0.3-6.4,0.3-9.5,0.8 C416.3,131.3,410.7,132,405.2,133.6z M409.3,128.1c0.1,0.7,0.6,0.9,1.2,0.8c0.3,0,0.6,0,0.9-0.1c3.5-0.4,7-0.7,10.6-0.7 c1.4,0,2.9,0,4.3,0c0.5,0,1,0,1.4-0.1c0.5-0.1,0.9-0.4,0.9-0.9c0-0.6-0.4-0.8-0.9-0.9c-0.4-0.1-0.7,0-1.1,0 c-4.1-0.1-8.1,0-12.2,0.4c-1.4,0.1-2.7,0.3-4.1,0.5C409.7,127.1,409.2,127.4,409.3,128.1z M291.3,162.2c0.3-0.4,0.6-0.8,0.8-1.2 c3.4-5.8,6.8-11.6,10.9-16.9c0.1-0.2,0.3-0.4,0.4-0.6c0.3-0.5,0.2-0.9-0.3-1.3c-0.4-0.3-0.8-0.2-1.1,0.1c-0.4,0.4-0.7,0.8-1,1.2 c-4.2,5.4-7.5,11.3-10.9,17.1c-0.2,0.3-0.4,0.6-0.4,1c0,0.6,0.3,0.9,0.8,1C290.7,162.7,291.1,162.5,291.3,162.2z M306.2,146.4 c0-0.5-0.1-0.8-0.4-1c-0.4-0.2-0.7-0.2-1,0.1c-0.4,0.4-0.7,0.8-1,1.3c-3.2,5-6.5,10.1-9.5,15.2c-0.9,1.5-1.8,3.1-2.7,4.6 c-0.3,0.5-0.6,1.2,0.1,1.6c0.7,0.5,1.2,0,1.6-0.6c0.1-0.1,0.1-0.2,0.2-0.3c3.9-6.7,8.1-13.3,12.3-19.9 C305.9,147.1,306.2,146.7,306.2,146.4z M377.2,143.9c-0.2-0.3-0.4-0.6-0.6-0.9c-2-2.3-4.4-4.3-7.1-5.7c-2.7-1.4-5.4-2.5-8.3-3.3 c-1.4-0.4-2.9-0.7-4.4-0.7c-0.5,0-1.1,0-1.6,0c-0.5,0-0.8,0.3-0.8,0.8c0,0.6,0.3,0.9,0.8,1c0.2,0,0.5,0,0.7,0.1 c7.4,0.8,13.9,3.5,19.1,9c0.3,0.3,0.6,0.6,0.9,0.9c0.4,0.3,0.8,0.3,1.2,0C377.4,144.7,377.4,144.3,377.2,143.9z M395.2,132.4 c-0.1-0.5-0.4-0.9-1-0.8c-0.3,0.1-0.7,0.3-0.9,0.5c-3.1,2.5-6.1,5.2-8.3,8.7c-0.4,0.6-0.7,1.1-0.9,1.7c-0.2,0.5-0.2,1.1,0.4,1.4 c0.5,0.2,0.9,0,1.2-0.4c0.1-0.2,0.3-0.4,0.4-0.6c1.2-2.1,2.7-3.9,4.4-5.6c1.2-1.2,2.6-2.4,3.9-3.5 C394.8,133.3,395.2,133,395.2,132.4z"/></g><g id="change4_1"><path fill="#ea6564" d="M294.7,224.1c-0.1,1.5-0.7,2.8-1.3,4.1c-2.6,5.3-5.9,10.3-9.6,15c-2.2,2.7-4.5,5.3-6.8,7.9 c-0.6,0.7-1.1,1.3-0.4,2.2c0.1,0.5,0.3,1,0.3,1.6c0.3,3,0.5,6,0.7,9.1c0.1,0.7,0,1.4-0.3,2.1c-0.4,0-0.7,0-1.1,0 c-0.5-0.8-0.7-1.6-0.7-2.6c0-1.6,0.1-3.3-0.1-4.9c-0.5-4.5-1.2-9-2-13.5c-1-5.5-2.9-10.6-5.6-15.5c-3.6-6.6-8.8-11.8-14.7-16.4 c-3.2-2.4-6.5-4.6-10.2-6c-4.8-1.9-9.7-2.6-14.8-1.9c-4.5,0.6-8.8,1.7-12.9,3.8c-6.2,3.2-11.4,7.7-15.8,13.1 c-8.6,10.6-13.6,22.8-15.9,36.2c-0.6,3.7-1.1,7.5-1.7,11.2c-0.8-0.1-1.4,0.3-2,0.7c-2,1.3-3.1,3.1-3.6,5.4 c-0.6,2.8-0.6,5.7-0.6,8.6c-0.3,12.1-0.1,24.3,0,36.4c0,0.7,0.1,1.4,0.1,2.2c0.1,5,0.3,10-0.1,15c-0.7,8.1-7.6,15-14.8,16.1 c-1.5,0.2-3,0.3-4.5,0c-0.7-0.1-0.9,0.1-0.8,0.7c-2.9-1.1-4.8-3.3-5.8-6.2c-1.2-3.6-1.9-7.3-2.3-11.1c-1.3-12.9-1.2-25.8-1-38.7 c0-2.6,0.4-5.1,0.6-7.7c0.2-1.5,0.3-2.9,0.5-4.4c0.5,0.1,0.9,0.2,1.4,0.1c4.1-0.3,7.3-2.2,9.8-5.3c2-2.5,3.6-5.2,4.9-8.2 c3-6.8,5.5-13.7,8.3-20.6c0.6-1.4,1.1-2.8,1.6-4.2c0.2-0.7,0.3-1.4-0.4-1.7c-0.8-0.4-1.2,0.3-1.4,1c-0.1,0.2-0.1,0.5-0.2,0.7 c-2.9,7.4-5.8,14.9-8.8,22.3c-1.5,3.7-3.4,7.2-6.1,10.2c-1.8,2-4,3.4-6.8,3.7c-0.8,0.1-1.7,0.1-2.4,0.6c-0.8-0.1-1.7-0.3-2.5-0.4 c-3.3-0.3-6.5-1-9.7-1.8c-5.1-1.3-10.1-3.1-14.9-5.2c-5.7-2.5-11-5.7-15.3-10.3c-2-2.1-3.3-4.7-5-7c-1.1-2.7-1.3-5.4-0.1-8.1 c1,0.2,1.4-0.4,1.7-1.2c0.6-1.6,1.1-3.2,1.7-4.7c3.3-8.2,7.4-16,11.6-23.8c5.2-9.7,11.8-18.4,19.7-26c4.9-4.6,10.2-8.6,16.4-11.3 c7-3.1,14.4-5.1,22.1-5.2c0.7,0,1.3-0.2,1.7-0.8c2.8,2.2,5.2,4.7,7.9,7.1c6.6,5.8,14,10,22.6,12.2c2.7,0.7,5.5,1.2,8.3,1.2 c4.6,0,9.2-0.6,13.4-2.9c2.8-1.5,5-3.7,6.7-6.6c-3.3,0.4-6.4,0.7-9.5,0.6c-5.9,0-11.7-0.6-17.4-2.6c-1-0.3-2-0.8-3-1.2 c-0.7-0.3-1.2-0.7-0.8-1.5c0.4-0.7,1-0.5,1.6-0.3c2.3,1,4.7,1.9,7.2,2.3c2.5,0.5,5,0.8,7.5,1c2,0.2,4.1,0.4,6.1,0.3 c4.3-0.3,8.6-0.5,12.7-2.3c3.2-1.4,6.6-2.4,9.8-4c2.3-1.2,4.4-2.7,6.7-3.9c0.3,0.6,0.7,0.9,1.3,1.2c4.6,2,8.6,4.8,12.1,8.2 c0.4,0.4,0.9,0.8,1.4,1c-0.1,0.6-0.4,1-0.7,1.4c-1.9,3.2-3.7,6.4-5.6,9.6c-1.6,2.7-2.2,5.4-0.5,8.3c1.2,2.2,1.8,4.7,3.3,6.7 c-0.3,0.6-0.6,1.1-1,1.7c-0.4,0.6-0.5,1.2,0,1.8c-0.6,2.8,0,4,2.6,5.1c0.4,0.2,0.8,0.2,1.2,0.3c0.2,1,0.9,1.1,1.8,1.1 c2.1,0,4.2-0.4,6.3-0.5c5.7-0.5,11.4-1,17-1.5C294.5,223.2,294.7,223.5,294.7,224.1z M113.7,371.9c-0.5,1.5-1,3-1.6,4.4 c-2.4,6-6.1,10.8-11.9,13.9c-3.8,2.1-7.6,4.4-11.3,6.6c-4.4,2.6-8.8,5.4-13.5,7.5c-3.1,1.4-6.2,2.4-9.7,2.4c-4.2,0-10-4.7-8.1-11 c1.3-4.2,3.9-7.4,7.3-10.1c4.2-3.4,9.1-5.3,14.2-6.8c0.3-0.1,0.7-0.2,1-0.3c0.4-0.2,0.7-0.5,0.6-1c-0.1-0.6-0.4-0.8-1-0.9 c-0.3,0-0.6,0-0.9,0.1c-5.2,1.6-10.3,3.4-14.6,6.8c-2.9,2.3-5.7,4.7-8.7,7c-6.4,4.9-13.4,8.5-21.4,9.7c-2.8,0.4-5.6,0.5-8.4-0.5 c-2.5-0.9-3.9-3.3-3.4-5.9c0.4-2.3,1.5-4.3,3.5-5.6c1.7-1.2,3.5-2.3,5.5-3.2c4-1.9,7.5-4.4,10.7-7.5c2.6-2.5,5.5-4.4,8.9-5.7 c0.6-0.2,1.3-0.4,1.9-0.6c0.5-0.2,0.9-0.4,0.8-1c-0.1-0.6-0.4-0.8-1-0.9c-0.6-0.1-1.1,0.1-1.6,0.3c-3.9,1.2-7.3,3.4-10.2,6.2 c-3.3,3.1-6.9,5.8-11,7.7c-1.9,0.9-3.8,1.9-5.4,3.2c-3.3,2.7-4.8,6.1-3.8,10.3c0.1,0.3,0.4,0.6-0.1,1.1c-3-0.2-5.9-1.1-8.2-3.3 c-0.3-0.3-0.5-0.7-0.7-1c-1.6-2.9-1.1-6.3,1.3-8.8c1.4-1.6,3.2-2.6,5-3.4c2.5-1.2,4.9-2.5,7-4.4c1.7-1.5,3.4-3,5-4.7 c3.9-3.9,8.5-6.6,13.8-8.2c0.3-0.1,0.7-0.2,1-0.3c0.4-0.2,0.7-0.5,0.6-1c-0.1-0.5-0.5-0.8-1-0.8c-0.3,0-0.6,0.1-0.9,0.2 c-4,1-7.6,2.9-10.9,5.3c-2.5,1.8-4.7,4.1-7,6.2c-2.3,2.2-4.8,4.1-7.8,5.5c-1.5,0.7-2.9,1.5-4.2,2.4c-3.1,2.3-4.9,5.2-4.9,9.1 c0,0.3,0.1,0.6-0.2,0.9c-0.3,0.1-0.6-0.1-0.8-0.2c-3.3-1.7-4.5-6.2-3.4-9.2c0.7-2.1,2.1-3.7,3.9-5.1c2.3-1.7,4.8-3.2,6.7-5.4 c1.4-1.7,2.8-3.4,4.2-5.1c4.3-5.2,9.8-8.6,16.4-10.1c0.5-0.1,1.1-0.2,1.5-0.5c0.4-0.3,0.5-0.7,0.4-1.1c-0.1-0.4-0.5-0.6-0.8-0.5 c-0.5,0-1,0-1.4,0.1c-7.6,1.6-13.6,5.6-18.3,11.6c-2.5,3.2-5.2,6.3-8.7,8.5c-2.3,1.5-4.3,3.4-5.5,6c0,0.1-0.2,0.1-0.3,0.1 c0,0-0.1-0.1-0.1-0.1c0-0.2-0.1-0.4-0.1-0.5c-0.3-4.6,1.1-8.8,3.7-12.6c2.1-3.1,4.7-5.7,7.6-8.1c4-3.4,8.3-6.2,13.1-8.2 c9.5-4,19.4-6.2,29.6-7.3c3.3-0.4,6.1-1.8,8.5-3.9c1-0.9,1-1.2,0-2.3c-0.3,0.1-0.6,0.1-0.8,0.4c-2.6,2.5-5.7,3.7-9.4,4.1 c-9.2,1-18.1,3.1-26.7,6.5c-8.9,3.5-16.4,8.8-22.3,16.2c-3.3,4.1-5.3,8.9-5.2,14.3c0,1.7,0.1,3.4,1,4.9c0.5,0.8,0.8,1.7,1,2.6 c0.8,3.7,3,6.2,6.6,7.4c0.7,0.2,1.3,0.6,1.7,1.2c0.9,1.4,2.1,2.3,3.5,3c2.3,1.2,4.8,1.8,7.5,1.8c0.9,0,1.7,0.1,2.5,0.7 c1.1,0.7,2.3,1,3.5,1.2c2.8,0.5,5.6,0.3,8.4-0.3c6.9-1.3,13.1-4.4,18.8-8.3c0.5-0.3,0.8-0.9,1.6-0.8c0,0.8-0.4,1.5-0.6,2.3 c-1.2,4.5,0.1,8.3,3.8,11.2c3.2,2.5,6.8,2.7,10.6,1.8c3.5-0.8,6.8-2.2,9.8-3.9c7.7-4.4,15.4-8.9,23-13.5c1.8-1.1,3.4-2.4,4.9-4 c3.9-4.1,6.1-9.1,7.9-14.4c0.2-0.6,0.2-1.2,0-1.8C114.5,370.5,114,371,113.7,371.9z M393.5,173.2c-0.1-1.4-0.3-2.8-0.8-4 c-1.3-2.8-3-5.1-6.3-6c-3.5-0.9-6.4,0.3-8.9,2.6c-2.3,2.1-3.9,4.7-5.2,7.5c-0.2,0.4-0.3,0.9-0.7,1.3c-0.6-0.3-1-0.8-1.5-1.3 c-3.6-3.5-7.8-6-12.5-7.6c-3.6-1.2-7.2-1.6-10.9-2.1c-3.2-0.4-6.5-0.3-9.7,0.3c-2.3,0.5-4.5,1.4-6.1,3.2c-2.1,2.3-2,4.7,0.2,6.8 c0.6,0.6,1.2,1,2.2,1.8c-2.5,0-4.6,0.4-6.7,0.8c-2.2,0.4-4.5,0.9-6.5,2.1c-2.2,1.3-3.7,3.1-3.2,5.9c0.1,0.7-0.4,0.9-0.8,1.2 c-4.2,2.5-5.5,6.5-3.5,11c0.3,0.7,0.2,1.1-0.2,1.8c-1.1,1.6-1,3.4-0.1,5.1c0.8,1.4,1.8,2.7,3.1,3.7c2.2,1.8,4.7,3.1,7.4,3.9 c1.5,0.4,2.7,1,2.8,2.8c0,0.4,0.3,0.8,0.4,1.2c0.4,1.9,1.6,3.3,2.7,4.8c0.5,0.7,1.1,1.4,1.7,2.1c0.5,0.7,1.4,0.9,1.9,0.4 c0.6-0.6,0.4-1.2-0.1-1.7c-0.1-0.1-0.3-0.3-0.4-0.4c-1.7-1.8-2.9-3.8-3.9-6c-0.2-0.5-0.5-1-0.4-1.7c1.4,0,2.6,0,3.9,0.3 c0.8,0.2,1.6,0.3,2.3-0.1c0.3-0.2,0.6-0.4,0.6-0.8c0-0.4-0.3-0.6-0.6-0.8c-0.4-0.2-0.9-0.3-1.4-0.3c-1.5,0.1-3-0.2-4.5-0.4 c-3.7-0.6-7.2-1.9-10.3-4c-1.7-1.2-2.9-2.7-3.7-4.6c-0.4-1-0.3-1.8,0.5-2.5c1.4,1.1,2.9,2.1,4.5,2.7c4.7,1.6,9.5,2.7,14.4,3 c1,0.1,1.9,0.2,2.9,0.2c2.3,0.1,4.6,0.1,6.8,0.1c0.6,0,1.1-0.3,1.1-0.9c0-0.7-0.5-0.9-1.1-0.9c-0.2,0-0.5,0-0.7,0 c-5.7,0.1-11.4-0.6-17-1.8c-3.1-0.7-6.1-1.5-8.8-3.4c-3.3-2.3-4-7.7,0-10.6c0.9-0.6,1.6-0.7,2.4,0.1c0.6,0.6,1.2,0.9,1.9,1.3 c4.1,2.2,8.6,2.6,13,3.5c3.4,0.7,6.8,1.2,10.2,1.7c1.3,0.2,2.6,0.6,3.9,0.5c0.6,0,1.3-0.1,1.4-0.8c0.1-0.8-0.6-0.9-1.2-1.1 c-1-0.2-2-0.4-3-0.6c-6.2-0.9-12.3-1.9-18.4-3.3c-1.9-0.5-3.8-1.1-5.5-2.1c-2.6-1.6-3.5-4.2,0.1-6.7c0.3-0.2,0.8-0.4,1.1-0.5 c2.8-1,5.6-1.6,8.6-1.9c5.3-0.5,10.5-0.6,15.7,0.6c3.2,0.7,6.3,1.6,9.4,2.7c1.8,0.6,3.4,1.3,5,2.3c0.3,0.2,0.6,0.4,0.9,0.5 c0.5,0.2,1.1,0.2,1.4-0.4c0.3-0.5,0-0.9-0.3-1.3c-0.4-0.5-0.9-0.8-1.5-1c-2-1-4-1.9-6.1-2.6c-5.3-1.8-10.7-3-16.3-3.6 c-2.3-0.3-4.5-0.8-6.4-2.2c-1.6-1.2-1.8-3.1-0.4-4.5c2.2-2.1,4.9-2.8,7.7-3c3.7-0.3,7.4,0.3,11.1,0.9c5.4,0.9,10.3,2.8,14.7,5.9 c2.7,1.9,4.8,4.2,6.2,7.2c0.7,1.6,1.2,3.2,1.5,4.9c0.1,0.5,0.3,0.8,0.8,0.8c0.6,0,0.9-0.3,1-0.8c0-0.4,0-0.7,0-1.1 c-0.4-1.8-0.7-3.7-1.6-5.3c-0.5-0.9-0.5-1.7-0.2-2.6c1.1-3.4,3-6.2,5.7-8.6c2.4-2.1,5.9-2.5,8.2-1c2,1.4,3.3,3.3,3.9,5.6 c0.7,2.7,0.3,5.4-0.2,8c-0.4,2.2-0.9,4.3-1.8,6.4c-0.7,1.7-1,3.5-1.7,5.2c-1,2.8-2.8,5.1-3.9,7.9c-0.4,1.1-0.9,2.1-1.5,3.1 c-2.9,4.8-5.8,9.7-8.9,14.4c-0.6,0.9-1,1.9-0.8,3c0.9,0,1.6-0.4,2.1-1.1c0.1-0.6,0.5-1,0.8-1.4c1.7-2.8,3.4-5.5,5.1-8.3 c3.7-6,7.3-12.1,9.7-18.9C392.1,184.5,393.8,179.1,393.5,173.2z M267.4,158.9c1.6,0.4,3.2,0.4,4.8,0.5c1.5-0.1,3-0.2,4.5-0.4 c4.2-0.8,8.1-2.3,11-5.6c2.4-2.6,3.3-5.7,2.6-9.2c-0.3-1.4-0.7-2.8-1.3-4.1c-1-2.1-2-4.3-3-6.4c-1.9-3.8-2.5-7.9-2.5-12.1 c0-3.3,0.5-6.6,1.1-9.8c1.4-6.7,2.3-13.5,2-20.4c0-0.5,0.1-1.1,0.1-1.6c0-3-0.2-6-0.8-9c-0.2-0.8-0.4-1.5-1.3-1.7 c-0.3,0.1-0.5,0.1-0.7,0.4c-0.2,0.5-0.1,1,0,1.6c0.6,3.1,0.9,6.3,0.9,9.5c0,2.4-0.1,4.8-0.2,7.2c-0.1,2.9-0.5,5.8-1,8.7 c-0.8,4.1-1.5,8.1-1.9,12.2c-0.5,5.9,0.3,11.6,3.1,16.9c1.2,2.2,2.2,4.5,3.1,6.9c1.2,3.3,1.1,6.5-1.4,9.3c-1.6,1.8-3.5,3.1-5.7,3.9 c-4.2,1.6-8.5,1.9-12.9,1.1c-1.2-0.2-1.9,0-2,0.6C265.7,158.1,266.3,158.6,267.4,158.9z M382.9,313.1c-1.2-1-2.4-2-3.6-2.9 c-3-1.6-6-3.1-9.2-4c-5.3-1.5-10.7-2.4-16.3-1.9c-2.4,0.3-4.7,1.1-7,1.6c-0.6,0.2-1.2,0.4-1.1,1.2c0,0.6,0.8,1,1.7,0.8 c0.4-0.1,0.8-0.2,1.2-0.3c4.3-1.5,8.8-1.7,13.3-1.1c7.1,1,13.7,3.1,19.2,7.8c0.4,0.3,0.8,0.7,1.4,0.8c0.4,0.1,0.7,0.1,1-0.2 c0.3-0.4,0.3-0.8,0.1-1.2C383.4,313.4,383.2,313.3,382.9,313.1z M229.7,171.6c6.1-0.1,11.1-5,11.2-11.1c0-6.2-5-11.2-11.2-11.3 c-6.3,0-11.4,5.2-11.2,11.2C218.3,166.5,223.6,171.6,229.7,171.6z M137.3,114.8c0.5,0.1,1,0.1,1.4,0c0.6-0.1,1.2-0.1,1.8,0 c2.6,0.4,4.6,1.8,6.1,3.8c1.3,1.7,1.7,3.6,1.3,5.8c-0.3,1.6-1.2,2.9-2.2,4.1c-1.5,1.9-3,3.7-4,6c-1,2.5-1.6,5.1-0.7,7.7 c1.2,3.7,3.8,5.8,7.4,7c0.2,0.1,0.5,0.1,0.7,0.1c0.5,0,1-0.2,1.1-0.7c0.1-0.5-0.2-0.8-0.6-1c-0.5-0.2-1-0.4-1.5-0.6 c-5-2-6.8-6.7-4.6-11.7c0.9-2,2.2-3.7,3.6-5.4c1.6-2,3.1-4,2.8-6.8c0.1-1-0.1-2-0.4-3c-1-3-3.2-5-5.9-6.4c-1.7-0.9-3.6-0.9-5.4-0.8 c-0.5,0-0.9,0.2-1.3,0.6C136.4,113.9,136.6,114.7,137.3,114.8z M216.4,253.4c0-0.4,0-0.7,0-1.1c0-0.6-0.2-1.1-0.9-1.1 c-0.7,0-0.9,0.5-0.9,1.1c0,0.5,0,1,0,1.4c0,8.8,0,17.7,0,26.5c0,0.7,0.2,1.4-0.3,2.1c0.5,0.7,0.3,1.4,0.3,2.1c0,19.4,0,38.8,0,58.2 c0,0.9-0.1,1.8,0.2,2.7c0.4,0,0.8,0,1.2,0c0.5-0.7,0.4-1.5,0.4-2.3C216.4,313.2,216.4,283.3,216.4,253.4z M295.8,227.8 c-0.4,0.7-0.9,1.3-0.9,2.2c0.9,0.7,1.9,1.4,2.8,2.2c2.7,2.7,6,4.7,9.4,6.2c1.3,0.6,1.9,0.1,1.8-1.5c-3.2-1.4-6.2-3.3-8.9-5.5 C298.6,230.2,297.2,229,295.8,227.8z"/></g><g id="change5_1"><path fill="#ce97c1" d="M439.5,136.5c-5.6,8.5-11,17-16.6,25.5c-6.6,10.2-13.2,20.5-19.9,30.7c-4.7,7.3-9.4,14.6-14.1,22 c-0.8-0.3-1.3,0-1.7,0.7c-1.2,2-2.9,2.6-5.2,2.1c-1.5-0.4-3.1-0.5-4.7-0.4c-0.9,0-1.5,0.3-1.5,1.3c-0.4,0-0.9,0-1.3,0 c0.1-0.6,0.5-1,0.8-1.4c1.7-2.8,3.4-5.5,5.1-8.3c3.7-6,7.3-12.1,9.7-18.9c1.9-5.4,3.6-10.8,3.3-16.7c-0.1-1.4-0.3-2.8-0.8-4 c-1.3-2.8-3-5.1-6.3-6c-3.5-0.9-6.4,0.3-8.9,2.6c-2.3,2.1-3.9,4.7-5.2,7.5c-0.2,0.4-0.3,0.9-0.7,1.3c-0.6-0.3-1-0.8-1.5-1.3 c-3.6-3.5-7.8-6-12.5-7.6c-3.6-1.2-7.2-1.6-10.9-2.1c-3.2-0.4-6.5-0.3-9.7,0.3c-2.3,0.5-4.5,1.4-6.1,3.2c-2.1,2.3-2,4.7,0.2,6.8 c0.6,0.6,1.2,1,2.2,1.8c-2.5,0-4.6,0.4-6.7,0.8c-2.2,0.4-4.5,0.9-6.5,2.1c-2.2,1.3-3.7,3.1-3.2,5.9c0.1,0.7-0.4,0.9-0.8,1.2 c-4.2,2.5-5.5,6.5-3.5,11c0.3,0.7,0.2,1.1-0.2,1.8c-1.1,1.6-1,3.4-0.1,5.1c0.8,1.4,1.8,2.7,3.1,3.7c2.2,1.8,4.7,3.1,7.4,3.9 c1.5,0.4,2.7,1,2.8,2.8c0,0.4,0.3,0.8,0.4,1.2c-0.9,1.7-1.8,3.3-2.5,5.1c-0.5-0.3-1.1-0.4-1.7-0.4c-5.3,0-10.6,0.2-15.9,0.5 c-7.4,0.5-14.9,1.1-22.3,1.7c-4.4,0.4-8.8,0.9-13.3,1.3c-0.7,0.1-1.3,0.2-1.7,0.9c-0.4-0.1-0.8-0.2-1.2-0.3 c-2.5-1.1-3.2-2.3-2.6-5.1c0.8,0.1,1.4-0.2,1.8-0.9c0.3-0.6,0.7-1.1,1.1-1.7c14-21.8,27.9-43.6,41.9-65.4c0.8-1.3,1.9-2.3,3.2-3 c0.7-0.4,1.5-0.8,2.3-1.1c8.5-3.5,17.3-5.8,26.5-6.3c4.3-0.2,8.7-0.1,12.9,0.7c6.2,1,11.5,4,16.3,8c1.3,1.1,2.6,2.3,4.1,3.2 c5.1,3.2,10.5,2.2,13.9-2.7c0.9-1.2,1.6-2.6,2.5-3.8c2.8-3.8,5.9-7.2,10.4-8.9c3.7-1.5,7.5-2.6,11.4-3.2c7-1.2,14-1.9,21.1-2.2 c0.8,0,1.4-0.2,1.6-1.1c0.2,0,0.4,0,0.5,0C440.4,130.4,441.3,133.9,439.5,136.5z M220,0c-3.4,0.2-6.8,0.8-10,2.1 c-5.3,2.2-10.2,5.1-15,8.1c-1.9,1.2-3.8,2.5-5.8,3.6c-3.6,1.9-7.4,3.1-11.4,3.5c-2.9,0.3-5.8,0.4-8.6,0.1c-6.5-0.6-12.8-0.2-19,2 c-4.4,1.6-7.8,4.3-10.7,7.9c-3.3,4.1-5.2,8.9-6.7,13.8c-2.4,7.7-5.5,15-10,21.6c-2.5,3.7-5.2,7.4-7,11.5c-1.5,3.4-2.6,6.8-2.9,10.5 c-0.2,2.2-0.1,4.3,0,6.4c0.3,4.5,1.2,8.9,2.8,13.1c0.5,1.4,1.2,2.6,2.6,3.2c0-0.7,0.6-1.4,0.1-2.2c-1.8-3.4-2.5-7.1-3.2-10.8 c-1.4-8.3-0.1-16.2,4.5-23.3c1.4-2.1,2.7-4.3,4.2-6.3c4.7-6.6,8-13.8,10.4-21.5c1.1-3.5,2.3-7,4-10.2c4.1-7.9,10.7-12.3,19.4-13.5 c4-0.5,7.9-0.4,11.9-0.2c3.3,0.1,6.6,0.2,9.9-0.3c5.6-0.8,10.6-3.1,15.2-6.2c4.1-2.7,8.4-5.1,12.8-7.4c4.2-2.2,8.8-3.2,13.5-3.5 c1-0.1,1.9-0.2,2.7-0.9C222.6,0.1,221.2-0.1,220,0z M271,16.1c3.2,0.6,6.2,1.6,8.6,3.8c4.4,4.1,7.4,9,8.8,14.8 c0.9,3.5,1.3,7.1,1.8,10.6c0.2,1.4,0.3,1.5,1.8,1.7c0.1-0.8,0.4-1.5,0.2-2.3c-0.4-1.9-0.7-3.8-0.9-5.7c-0.6-4.4-1.8-8.7-4-12.6 c-2-3.5-4.3-6.6-7.5-9c-3.6-2.7-7.9-3.6-12.3-3.9c-4.8-0.3-9.6,0.4-14.4,0.3c-1,0.7-2.3,0.5-3.4,0.7c-4.3,0.7-8.6,1.4-12.9,2.7 c-0.7,0.2-1.5,0.4-1.3,1.4c0.1,0.6,0.7,0.8,1.8,0.6c0.1,0,0.1,0,0.2-0.1c8.6-2.5,17.4-3.4,26.3-3.6C266.3,15.5,268.7,15.6,271,16.1 z M316,222c2,0,4,0.1,6,0.1c0.3-0.1,0.8,0,1-0.3C320.7,221.8,318.4,221.6,316,222z"/></g><g id="change1_2"><path fill="#3b2c5a" d="M115.1,94.5c-1.4-8.3-0.1-16.2,4.5-23.3c1.4-2.1,2.7-4.3,4.2-6.3c4.7-6.6,8-13.8,10.4-21.5 c1.1-3.5,2.3-7,4-10.2c4.1-7.9,10.7-12.3,19.4-13.5c4-0.5,7.9-0.4,11.9-0.2c3.3,0.1,6.6,0.2,9.9-0.3c5.6-0.8,10.6-3.1,15.2-6.2 c4.1-2.7,8.4-5.1,12.8-7.4c4.2-2.2,8.8-3.2,13.5-3.5c1-0.1,1.9-0.2,2.7-0.9c3.6,0.5,6.8,1.8,9.9,3.6c2.7,1.6,5.5,3.2,8.2,4.9 c3.6,2.2,7.4,3.8,11.6,4.3c-1,0.7-2.3,0.5-3.4,0.7c-4.3,0.7-8.6,1.4-12.9,2.7c-0.7,0.2-1.5,0.4-1.3,1.4c0.1,0.6,0.7,0.8,1.8,0.6 c0.1,0,0.1,0,0.2-0.1c8.6-2.5,17.4-3.4,26.3-3.6c2.4-0.1,4.8,0,7.2,0.5c3.2,0.6,6.2,1.6,8.6,3.8c4.4,4.1,7.4,9,8.8,14.8 c0.9,3.5,1.3,7.1,1.8,10.6c0.2,1.4,0.3,1.5,1.8,1.7c1,4.4,2,8.9,1.9,13.5c0,3.5-0.8,6.9-2.1,10.1c-1.5,3.6-4,6.4-7.2,8.4 c-0.3,0.1-0.5,0.1-0.7,0.4c-4.2,2-8.7,2.6-13.3,2.6c-26.5,0-53,0-79.5,0c-0.2,0-0.4,0-0.5,0c-1.8-0.1-3.3,0.2-4.5,1.7 c-1.4,1.7-2.2,3.6-1.7,5.8c0.4,1.9,1,3.7,1.4,5.6c0.8,3.5,1.5,7,1,10.7c-0.8,5.8-5.5,11.3-11.1,12.8c-6.4,1.7-11-0.9-13.2-6.8 c-0.4-0.9-0.6-1.9-0.9-2.9c-1.4-5.5-4.8-9.1-10.2-10.9c-6.7-2.2-13-1.1-19,2.5c-4,2.4-7.1,5.8-9.4,9.8c-0.4,0.6-0.8,1.2-1.1,1.8 c-1.6-1.3-2.6-2.9-3.7-4.5c0-0.7,0.6-1.4,0.1-2.2C116.4,102,115.7,98.3,115.1,94.5z M214.5,342.7c0-19.4,0-38.8,0-58.2 c0-0.7,0.2-1.4-0.3-2.1c-6.8-0.1-13.5-0.6-20.2-1.9c-3.1-0.6-6.1-1.5-8.7-3.3c-2.7-1.8-3.9-4.3-3.5-7.5c-0.8-0.1-1.4,0.3-2,0.7 c-2,1.3-3.1,3.1-3.6,5.4c-0.6,2.8-0.6,5.7-0.6,8.6c-0.3,12.1-0.1,24.3,0,36.4c0,0.7,0.1,1.4,0.1,2.2c0.1,5,0.3,10-0.1,15 c-0.7,8.1-7.6,15-14.8,16.1c-1.5,0.2-3,0.3-4.5,0c-0.7-0.1-0.9,0.1-0.8,0.7c0.2,0.4,0.4,0.7,0.6,1.1c5.9,12.8,15.3,22.1,28.2,27.6 c8.1,3.5,16.5,3.7,25,1.8c0-0.8,0-1.7,0-2.5c-0.4-9.3-0.5-18.6,0.1-27.9c0.2-2.2,0.5-4.4,1.5-6.4c0.8-1.6,1.9-2.8,3.8-2.9 C214.4,344.5,214.5,343.6,214.5,342.7z M328.8,299.3c-5.2-0.3-10.4-0.8-15.6-1.1c-9.2-0.4-18.4-0.8-27.5-1.1 c-3.1-0.1-6.2-0.5-9.4-0.3c0.1,4.9,0.3,9.8,0.3,14.8c0,4.7,0.1,9.5,0.3,14.2c0.2,4.7,0.3,9.5,0.4,14.2c0,1.1,0,1.1-1.1,0.9 c-3.5-0.6-7-0.7-10.6-0.2c-4.1,0.6-8,1.5-11.6,3.6c-4,2.3-6.7,5.5-7.7,10.1c-0.4,1.9-0.5,3.9-0.8,5.9c0,0.4,0,0.7,0,1.1 c0,1.4,0,2.8,0,4.1c0,0.7,0.2,1.4,1.1,1.3c0.7-0.1,0.9-0.7,0.9-1.4c0-0.4,0-0.7,0-1.1c0-2.4,0.1-4.8,0.3-7.2 c0.6-5.5,3.3-9.5,8.3-11.7c6.6-3,13.6-3.7,20.8-2.4c1.5,0.3,2.6,1.1,3.6,2.2c1.5,1.6,2.3,3.6,3,5.7c1.6,4.8,4.2,8.9,7.7,12.4 c3.2,3.3,6.7,6.4,10,9.6c3.4,0.1,6.8,0.2,10.2,0.4c4.8,0.2,9.6,0.4,14.4,0.6c1.1,0,2-0.2,2.7-1.1c-1.8-1-3-2.5-3.9-4.3 c-1.3-2.6-2.3-5.4-2.9-8.3c-0.9-4.7-1.1-9.4-1.1-14.1c0.1-10.1,1.1-20.1,4-29.8c1.2-4.1,2.4-8.1,4.7-11.8c0.9-1.5,2-2.5,3.8-2.7 C332.2,300,330.6,299.5,328.8,299.3z M433.4,129.4c-0.6,0.3-1.3,0.2-1.9,0.3c-3.2,0.3-6.4,0.3-9.5,0.8c-5.6,0.8-11.3,1.6-16.8,3.1 c-7.1,2-12.2,6.2-16.1,12.2c-0.6,0.9-1.1,1.8-1.8,2.7c-2.9,4-7,4.8-11.2,2.2c-1.4-0.9-2.6-1.9-3.8-3c-4.8-4.2-10.2-7.2-16.5-8.4 c-4.4-0.9-9-1-13.5-0.9c-7.1,0.3-13.9,1.7-20.7,3.9c-3.2,1-6.4,2.1-9.4,3.7c-1.8,0.9-3.2,2.2-4.3,3.9 c-11.2,17.6-22.5,35.2-33.8,52.8c-2.7,4.2-5.5,8.5-8.2,12.7c-0.3,0.6-0.6,1.1-1,1.7c-0.4,0.6-0.5,1.2,0,1.8 c0.8,0.1,1.4-0.2,1.8-0.9c0.3-0.6,0.7-1.1,1.1-1.7c14-21.8,27.9-43.6,41.9-65.4c0.8-1.3,1.9-2.3,3.2-3c0.7-0.4,1.5-0.8,2.3-1.1 c8.5-3.5,17.3-5.8,26.5-6.3c4.3-0.2,8.7-0.1,12.9,0.7c6.2,1,11.5,4,16.3,8c1.3,1.1,2.6,2.3,4.1,3.2c5.1,3.2,10.5,2.2,13.9-2.7 c0.9-1.2,1.6-2.6,2.5-3.8c2.8-3.8,5.9-7.2,10.4-8.9c3.7-1.5,7.5-2.6,11.4-3.2c7-1.2,14-1.9,21.1-2.2c0.8,0,1.4-0.2,1.6-1.1 C435.4,129.3,434.3,129.5,433.4,129.4z M303.4,139.8c2.6-1.3,5.4-2.3,8.2-3.2c12.3-4.4,25.1-6.5,38.1-7.4c5.1-0.3,10.1,0.1,15,1.7 c5.7,1.9,11.1,4.5,15.2,9.2c0.1,0.1,0.2,0.2,0.3,0.3c0.7,0.5,1.4,0.4,1.5-0.4c0.1-0.8,0.7-1.4,1.1-2c2.8-4,6.6-6.8,10.7-9.3 c5.7-3.3,11.8-5.5,18.4-5.7c5.1-0.2,10.1,0.3,15,1.4c0.7,0.2,1.3,0.3,1.8-0.3c0.1-1.2-0.8-1.5-1.7-1.7c-1.9-0.4-3.9-0.7-5.9-0.9 c-4.5-0.5-9-0.7-13.5,0c-7,1.2-13.2,4-18.9,8c-2.7,1.9-5.1,4.1-7,6.7c-0.4,0.5-0.7,1.2-1.3,1.4c-8.4-7.2-18.1-10.6-29.2-10.2 c-5.7,0.2-11.4,1-17,1.8c-7.7,1-15.1,3.2-22.5,5.6c-3.1,1-6.2,2.2-9.2,3.6c-1.2,0.6-1.2,0.7-0.8,2.1 C302.2,140.2,302.8,140.1,303.4,139.8z M472.1,343.9c-5.2-5.1-7.7-11.5-8-18.7c-0.2-5.1,1-9.9,3-14.5c0.7-1.6,0.6-1.9-1.1-2 c-0.2,0.2-0.4,0.3-0.7,0.5c0,0.4-0.1,0.8-0.3,1.2c-1.2,2.8-2,5.7-2.5,8.6c-1.6,9.4,0.6,17.8,6.8,25c1.3,1.5,1.6,2.7,1.1,4.6 c-2.6,9.3-5.1,18.7-7.5,28c-2.4,9.4-4.6,18.8-7.4,28c-1.6,5.6-2.8,11.3-4,17c-0.3,1.4,0,2.1,0.7,2.1c1.1,0,1.1-1,1.3-1.7 c1.9-9.3,4.5-18.4,6.9-27.6c3.1-11.6,5.9-23.3,9.1-34.9c1.2-4.3,2.4-8.5,3.4-12.9C473.1,345.4,472.9,344.7,472.1,343.9z M173.1,180.2c0.7,0,1.3-0.2,1.7-0.8c-0.3-0.8-0.9-1.1-1.8-1.1c-1.1,0.1-2.1,0-3.2,0c-0.7,0.1-1.3,0.1-2,0.2 c-13.6,2-25.4,7.7-35.2,17.4c-7.9,7.8-14.5,16.7-19.8,26.5c-3,5.5-5.7,11.1-8.4,16.7c-1.7,3.6-3.3,7.3-4.6,11.2 c-0.3,0.8-0.6,1.5,0.1,2.2c1,0.2,1.4-0.4,1.7-1.2c0.6-1.6,1.1-3.2,1.7-4.7c3.3-8.2,7.4-16,11.6-23.8c5.2-9.7,11.8-18.4,19.7-26 c4.9-4.6,10.2-8.6,16.4-11.3C158,182.4,165.4,180.3,173.1,180.2z M430.3,326.5c-2,0.5-3.8,1.6-5.7,2.4c-0.3,0.5-0.8,0.7-1.3,0.9 c-2.6,1.6-4.8,3.7-6.6,6.1c-3.3,4.4-5.6,9.4-6.8,14.7c-0.4,1.6-0.6,3.3-0.6,5c0,5.8,2.5,10,7.9,12.3c0.5,0.1,1,0.3,1.6,0.4 c1.5,0.3,3.1,0.6,4.6,0.5c0.5,0,1-0.3,1-0.8c0.1-0.7-0.4-1-0.9-1.1c-0.7-0.1-1.4-0.1-2.2-0.2c-2.9-0.3-5.5-1.2-7.5-3.4 c-2.3-2.5-2.8-5.5-2.6-8.7c0.4-5.6,2.5-10.7,5.5-15.4c3.4-5.5,8.3-9.1,14.5-10.8c0.7-0.2,1.2-0.4,1.4-1.2 C432.2,326,431.2,326.3,430.3,326.5z M445.8,329.7c-0.5-0.2-1,0-1.5,0.2c-2.6,3.2-4.2,7-5.5,10.8c-1.7,4.9-2.9,9.9-2.6,15.2 c0.1,2,0.3,3.9,0.5,5.9c0.1,0.6,0.2,1.3,1,1.2c0.9-0.1,0.9-0.8,0.9-1.5c-0.1-0.8-0.1-1.6-0.2-2.3c-1.1-10.2,1.6-19.4,7.3-27.8 C446.1,330.9,446.3,330.4,445.8,329.7z M456.1,342.8c0.2,0.5,0.6,1,1.2,0.8c0.6-0.2,0.8-0.7,0.6-1.3c-0.1-0.6-0.3-1.3-0.5-1.9 c-1-4.2-1.7-8.4-0.8-12.6c0.8-3.6,1.6-7.3,3.1-10.7c0.6-1.3,0.5-1.5-1-1.9c-0.5,0.3-0.7,0.8-1,1.2c-0.4,1.4-0.9,2.7-1.3,4.1 c-2.2,6.8-2.9,13.7-0.8,20.7C455.7,341.6,455.9,342.2,456.1,342.8z M449.7,326C449.7,326,449.7,326,449.7,326 C449.7,326,449.7,326,449.7,326C449.7,326,449.7,326,449.7,326z M452.4,325.5c0.6-1.4,0.5-1.6-0.9-2c-0.7,0.4-0.8,1.2-1.4,1.7 c0.1,0.4,0.1,0.7-0.4,0.9c0.2,0.4,0,0.7-0.1,1c-0.5,1.6-1.1,3.2-1.5,4.8c-1.6,5.7-2.5,11.5-1.9,17.4c0.1,0.7,0.2,1.4,0.3,2.1 c0.1,0.5,0.4,0.9,1,0.9c0.7,0,0.9-0.5,0.9-1.1c0-0.6,0-1.2-0.1-1.8c-0.6-4.3-0.1-8.5,0.7-12.7C449.7,332.8,450.8,329,452.4,325.5z M255.8,180.1c4.6,2,8.6,4.8,12.1,8.2c0.4,0.4,0.9,0.8,1.4,1c0.9-0.2,1.2-0.7,1-1.6c-0.4-0.3-0.8-0.7-1.2-1 c-3.8-3.7-8.2-6.7-13.1-8.8c-0.7,0-1.3,0.1-1.5,1C254.7,179.6,255.2,179.9,255.8,180.1z M387.3,215.4c-1.2,2-2.9,2.6-5.2,2.1 c-1.5-0.4-3.1-0.5-4.7-0.4c-0.9,0-1.5,0.3-1.5,1.3c0.3,0.3,0.6,0.5,1.1,0.6c2.3,0.2,4.6,0.6,7,0.6c2.4,0.1,4-1.4,5.1-3.4 c0.3-0.5,0.2-1-0.1-1.5C388.2,214.4,387.7,214.8,387.3,215.4z M255.7,138.1c0-0.5,0-1-0.1-1.6c-0.6-4-4-5.5-7.2-3.1 c-3.3,2.6-4.8,6.1-4.5,10.3c0.1,2,0.8,3.8,2.9,4.6c2.1,0.7,3.8-0.2,5.2-1.6C254.4,144.4,255.6,141.5,255.7,138.1z M251.6,166 c2.2,0.7,4.4,1,6.7,1c2.1,0,4.2-0.2,6.2-0.8c0.7-0.2,1.7-0.2,1.6-1.3c0-0.7-0.7-0.9-2.1-0.5c-4,1-8,0.9-11.9-0.3 c-1.3-0.4-1.9-0.3-2,0.4C250,165.6,250.9,165.7,251.6,166z M283.8,243.2c-2.2,2.7-4.5,5.3-6.8,7.9c-0.6,0.7-1.1,1.3-0.4,2.2 c0.8,0.2,1.4-0.3,1.9-0.9c5.9-6.4,11.3-13.2,15.4-21c0.3-0.6,0.4-1.3,1.1-1.6c0-0.8,0.5-1.5,0.9-2.2c0.3-1.3,0.8-2.5,0.8-3.8 c0-0.8,0.4-1,1.1-1c1.7-0.1,3.3-0.2,5-0.3c4.4-0.3,8.8-0.7,13.3-0.6c2.3-0.4,4.7-0.2,7-0.2c0.5-0.4,0.5-0.9,0.4-1.5 c-0.5-0.3-1.1-0.4-1.7-0.4c-5.3,0-10.6,0.2-15.9,0.5c-7.4,0.5-14.9,1.1-22.3,1.7c-4.4,0.4-8.8,0.9-13.3,1.3 c-0.7,0.1-1.3,0.2-1.7,0.9c0.2,1,0.9,1.1,1.8,1.1c2.1,0,4.2-0.4,6.3-0.5c5.7-0.5,11.4-1,17-1.5c0.8-0.1,1,0.2,0.9,0.9 c-0.1,1.5-0.7,2.8-1.3,4.1C290.7,233.6,287.5,238.6,283.8,243.2z M158.7,281.4c2-2.5,3.6-5.2,4.9-8.2c3-6.8,5.5-13.7,8.3-20.6 c0.6-1.4,1.1-2.8,1.6-4.2c0.2-0.7,0.3-1.4-0.4-1.7c-0.8-0.4-1.2,0.3-1.4,1c-0.1,0.2-0.1,0.5-0.2,0.7c-2.9,7.4-5.8,14.9-8.8,22.3 c-1.5,3.7-3.4,7.2-6.1,10.2c-1.8,2-4,3.4-6.8,3.7c-0.8,0.1-1.7,0.1-2.4,0.6c-0.1,0.5,0.1,0.9,0.1,1.4c0.5,0.1,0.9,0.2,1.4,0.1 C153,286.5,156.2,284.6,158.7,281.4z M311.8,387.1c-0.5-0.1-0.9,0-1.4,0.1c-1.4,0.4-2.7,1-4,1.7c-3.2,1.7-6,4-8.6,6.5 c-5.9,5.5-10.4,11.8-12.2,19.8c-0.2,0.7-0.5,1-1.2,1.2c-1.9,0.4-3.9,0.5-5.9,0.6c-5.4,0.1-10.8-0.7-16.1-1.6 c-6.5-1-12.8-2.8-19-4.9c-8.8-3.1-17.6-6-26.1-9.9c-0.3-0.1-0.6-0.2-0.8-0.3c-0.5-0.1-1,0.1-1.2,0.6c-0.2,0.5,0,0.8,0.4,1.1 c0.4,0.3,0.8,0.5,1.3,0.7c11.3,5,23,9.1,34.9,12.5c8.3,2.4,16.9,3.5,25.3,3.9c2.6-0.1,4.9-0.1,7.2-0.5c1.7-0.3,2.8-1.2,3.1-3 c0.3-1.6,0.8-3.1,1.5-4.6c3.3-7.8,8.9-13.6,15.7-18.4c2.1-1.5,4.2-2.8,6.8-3.3c0.2,0,0.3-0.1,0.5-0.2c0.3-0.2,0.6-0.4,0.6-0.8 C312.6,387.4,312.3,387.2,311.8,387.1z M289.8,363.7c-0.5,0-1.1,0.1-1.6,0.2c-9.7,2.3-18.3,6.5-25.4,13.5c-0.4,0.4-0.9,0.8-1.3,1.3 c-0.4,0.4-0.5,0.8-0.1,1.3c0.4,0.4,0.9,0.4,1.3,0.1c0.6-0.4,1.1-0.9,1.6-1.4c5.7-5.6,12.4-9.4,20-11.6c1.8-0.5,3.6-1.1,5.4-1.4 c0.7-0.1,1.2-0.3,1.2-1.1C290.8,363.9,290.3,363.7,289.8,363.7z M298.2,372.4c-0.1,0-0.2,0-0.4,0.1c-0.3,0.1-0.7,0.2-1,0.3 c-9.2,3.3-16.8,8.9-23.5,15.9c-0.2,0.3-0.5,0.5-0.7,0.8c-0.3,0.4-0.3,0.9,0.2,1.3c0.4,0.3,0.8,0.3,1.2,0c0.4-0.3,0.8-0.7,1.2-1.1 c6.4-6.6,13.6-11.9,22.3-15.1c0.4-0.1,0.8-0.3,1.2-0.4c0.5-0.2,0.8-0.6,0.7-1.1C299.2,372.5,298.8,372.4,298.2,372.4z M284.5,396.7 c-0.3,0.4-0.6,0.8-0.8,1.2c-0.2,0.6,0.3,1.3,0.9,1.2c0.6-0.1,0.9-0.5,1.3-1c1-1.2,2-2.4,3.1-3.5c4.8-4.6,10.2-8.4,16-11.6 c0.4-0.2,0.8-0.4,1.1-0.6c0.4-0.3,0.7-0.7,0.5-1.2c-0.3-0.6-0.8-0.7-1.4-0.5c-0.5,0.2-1,0.4-1.5,0.7c-4.5,2.5-8.8,5.4-12.8,8.7 C288.6,392.1,286.4,394.3,284.5,396.7z M304.8,145.5c-0.4,0.4-0.7,0.8-1,1.3c-3.2,5-6.5,10.1-9.5,15.2c-0.9,1.5-1.8,3.1-2.7,4.6 c-0.3,0.5-0.6,1.2,0.1,1.6c0.7,0.5,1.2,0,1.6-0.6c0.1-0.1,0.1-0.2,0.2-0.3c3.9-6.7,8.1-13.3,12.3-19.9c0.2-0.3,0.5-0.7,0.5-1 c0-0.5-0.1-0.8-0.4-1C305.4,145.2,305,145.2,304.8,145.5z M369.5,137.3c-2.7-1.4-5.4-2.5-8.3-3.3c-1.4-0.4-2.9-0.7-4.4-0.7 c-0.5,0-1.1,0-1.6,0c-0.5,0-0.8,0.3-0.8,0.8c0,0.6,0.3,0.9,0.8,1c0.2,0,0.5,0,0.7,0.1c7.4,0.8,13.9,3.5,19.1,9 c0.3,0.3,0.6,0.6,0.9,0.9c0.4,0.3,0.8,0.3,1.2,0c0.4-0.3,0.4-0.7,0.2-1.1c-0.2-0.3-0.4-0.6-0.6-0.9 C374.6,140.7,372.2,138.7,369.5,137.3z M289.5,161.7c0,0.6,0.3,0.9,0.8,1c0.4,0,0.7-0.2,0.9-0.5c0.3-0.4,0.6-0.8,0.8-1.2 c3.4-5.8,6.8-11.6,10.9-16.9c0.1-0.2,0.3-0.4,0.4-0.6c0.3-0.5,0.2-0.9-0.3-1.3c-0.4-0.3-0.8-0.2-1.1,0.1c-0.4,0.4-0.7,0.8-1,1.2 c-4.2,5.4-7.5,11.3-10.9,17.1C289.8,161.1,289.5,161.4,289.5,161.7z M427.7,126.2c-0.4-0.1-0.7,0-1.1,0c-4.1-0.1-8.1,0-12.2,0.4 c-1.4,0.1-2.7,0.3-4.1,0.5c-0.6,0.1-1,0.4-1,1.1c0.1,0.7,0.6,0.9,1.2,0.8c0.3,0,0.6,0,0.9-0.1c3.5-0.4,7-0.7,10.6-0.7 c1.4,0,2.9,0,4.3,0c0.5,0,1,0,1.4-0.1c0.5-0.1,0.9-0.4,0.9-0.9C428.6,126.6,428.2,126.3,427.7,126.2z M393.3,132.1 c-3.1,2.5-6.1,5.2-8.3,8.7c-0.4,0.6-0.7,1.1-0.9,1.7c-0.2,0.5-0.2,1.1,0.4,1.4c0.5,0.2,0.9,0,1.2-0.4c0.1-0.2,0.3-0.4,0.4-0.6 c1.2-2.1,2.7-3.9,4.4-5.6c1.2-1.2,2.6-2.4,3.9-3.5c0.4-0.3,0.9-0.7,0.8-1.3c-0.1-0.5-0.4-0.9-1-0.8 C393.9,131.7,393.5,131.9,393.3,132.1z"/></g></g></svg>