<?xml version="1.0" encoding="UTF-8" standalone="no"?><svg xmlns="http://www.w3.org/2000/svg" xmlns:xlink="http://www.w3.org/1999/xlink" contentScriptType="text/ecmascript" fill="#000000" width="1760" zoomAndPan="magnify" contentStyleType="text/css" viewBox="1.0 -2.1 1760.0 2293.5" height="2293.5" preserveAspectRatio="xMidYMid meet" version="1"><g><g fill="#fef7ea" id="change1_1"><path fill="inherit" d="M714.5,2017.2c0.4-1.8,0.5-3.6,0.5-5.4c-1.2,1.8-2.4,3.5-3.5,5.4c-8.1,14.7-24.5,17-36.2,4.8 c-8.5-8.8-15.3-18.9-20.2-30.2c-10.7-24.8-18.4-50.6-27.7-75.9c-32.5-88.7-46.2-180.5-44.4-274.7c0.3-15.5,0.7-31,0.8-46.4 c0.1-18,0.9-35.9,2.9-53.8c1.3-11.6,4.8-22.8,7.1-34.1c3.2-15.8,5.5-31.8,8.6-47.6c8.8-45,20.8-89.3,30.1-134.3 c6.9-33.6,12.5-67.4,14.4-101.6c2.8-49.9-6.7-98-21.9-145.2c-1-3.2-2.5-4.3-5.9-4.4c-14.1-0.4-28.3-0.9-42.4-2 c-6.7-0.5-13.8-0.3-19.6-4.9c-2.3-1.6-4.5-1.7-7.4-1.1c-18.6,4.3-37.5,7.3-56.7,6.1c-19.6-1.2-37.9-6.3-52.9-20.1 c-3.3-3-4.4-7.2-6.8-10.7c-2.6-3.6,1.5-8,6.3-6.9c23.1,5.3,46.5,5.3,69.9,4.7c17.2-0.4,34.3-2.4,51.4-4.6c18.1-2.3,36-5,53.9-8.3 c4.2-0.8,8.5-1.6,12.6-2.7c8.5-2.4,17.4-2.4,26-4.2c3.4-0.7,5,0.7,4.5,4.3c6.2-1.8,10-7,15.2-10.3c16.6-10.5,30.6-23.6,42.8-39.2 c28.9-37.2,50.8-77.7,63.2-123.2c9-32.8,15-65.9,7.8-100.1c-2.2-10.6-2.8-21.8-7.6-31.4c-11.9-24-27.4-45.9-46-65.1 c-13.3-13.8-17.1-28.9-14.8-46.9c1.2-9.7,2.9-19.4,2.2-29.3c-1-16.3-3.6-32.4-7-48.3c-2.7-12.4-7.4-24.4-17.1-32.6 c-35.1-29.6-75-41.9-120.6-30.8c-31.2,7.6-59.1,21.4-81.5,45c-2,2.1-3.8,4.3-6.2,6.9c-1.3-8.7,0.6-16.1,2.8-23.4 c8.9-29.3,22.6-56.5,37.7-83c9-15.9,18.2-31.8,21.4-50.3c1.5-8.4-1.3-15.3-7.6-20.3c-21.2-17.1-50.4-11.6-64,11.7 c-11.5,19.6-19.3,40.9-27.8,61.9c-7.3,18-14.3,36.3-25.3,52.6c-3.8,5.7-8.1,10.9-14.1,14.6c-0.3-0.6-0.6-0.8-0.6-1.1 c0.1-1.2,0.2-2.3,0.4-3.5c2.7-18.3,2.5-36.5-2.5-54.5c-12.4-45-55.3-77.5-103.4-72.7c-5.5,0.6-10.7,2.5-15.9,4.1 c-22.2,6.8-42.3,17.2-57.4,35.4c-4,4.8-9.6,8.2-12.4,14.1c-0.5,1-2,1.8-3.2,2.2c-4.1,1.3-8.3,2.1-12.4,3.6c-8.7,3.1-18.2,3-26.5,8 c-19.9,11.9-37.9,25.9-54.4,42c-7.3,7.1-14.2,14.5-21.2,21.8c-10.4,14.2-17.3,30.2-24.4,46.1c-7.9,17.8-14.8,36-20.2,54.7 c-8.5,29.6-12.7,59.9-13.3,90.7c-0.9,47.6,4,94.6,16.3,140.8c7.9,29.8,17.2,58.9,34.6,84.8c5.5,8.1,11.1,16.2,16.6,24.3 c0.4,0.5,1,0.9,0.3,1.5c0,0,0,0,0,0c-0.4-0.3-0.8-0.5-1.2-0.8c-13.7-8.7-26.1-19.3-38.5-29.6c-1.5,1.8-1.3,4.1-2,6.1 c6.2,3.7,8.4,10,9.4,16.3c4.2,28.7,5.8,57.6,4.7,86.6c-0.8,19.8-1.8,39.6-3.4,59.3c-1.7,21.6-3.9,43.1-6.5,64.5 c-2.8,22.8-5.6,45.6-8.4,68.3c-2.8,22.8-5.8,45.5-8.6,68.3c-2.6,21.3-5,42.6-7.4,63.9c-1.2,10.9-2.2,21.8-3.4,32.8 c-0.2,1.5-0.5,3,0.2,4.4c3.9,7.5,3.3,15.4,3.1,23.5c-1.1,37.3,3,74.1,8.6,110.8c11.9,78.3,33.1,154.4,55.7,230.1 c21.5,72,42.7,144.1,64.9,215.9c6.8,22.1,11.9,44.7,11.9,68.1c0,1.8-0.2,3.6-0.3,5.5c0.5,2.8,0.3,5.6,1.1,8.4 c9.1,31.7,10.7,63.5,1.1,95.5c-3.4,11.2-3.4,22.7-0.2,34c5,17.4,6.3,19.7,23.8,21.4c0.7,0.1,1.3,0.2,2,0.3 c25.7,3.5,50.1-0.4,72.8-13.2c8.6-4.9,16.4-10.4,21.6-19.3c6.4-10.9,12.9-21.8,17.8-33.5c5.9-14,10.9-28.3,12-43.6 c-3.8-1.7-4.5-5-4.7-8.6c-1.1-18.6-1.8-37.1-3.2-55.7c-1.1-15.2-1.8-30.5-3-45.7c-1.8-22.5-3.4-44.9-5.6-67.4 c-2.2-22.9-4.6-45.8-7.5-68.7c-5.1-40.2-9.9-80.5-17.9-120.4c-1-5-2.1-10.1-3.2-15.1c-0.7-3.2-2.5-5.8-4.7-8.1 c-16.2-17.2-31.6-35-45.7-54c-9.6-12.9-19.1-26-25.2-41.1c-0.9-2.2-2.3-2.4-4.2-2.6c-15.4-1.8-29.9-6.5-42.5-15.8 c-15.9-11.6-24.1-27.5-25.3-47.1c0-0.7,0-1.3,0-2c-0.5-8.3-0.6-8.4-7.5-4c-12.2,7.8-25.3,4.3-32.2-8.4 c-5.5-10.3-7.8-21.5-9.3-32.9c-2-15.2-1.4-30.6-0.8-45.9c0.5-15.5,2.5-31,4.9-46.4c3.3-21.6,7.9-43,12.9-64.3 c0.9-4,2-8.1,3.5-11.9c1.7-4.6,5.5-6.4,9.5-5.1c3.6,1.2,5.6,5.7,4.5,9.9c-7.4,26.7-12.8,53.8-16.6,81.2c-2.3,16.3-3.6,32.6-4.1,49 c-0.5,15,0.3,29.8,3.3,44.4c1,4.7,2.4,9.3,4.7,13.6c3.4,6.3,6.5,7.1,12.5,3.5c3.8-2.2,6.7-5.4,9.8-8.4c3.5-3.5,7-7,12.6-4.4 c5.4,2.5,6.4,7.3,6.3,12.5c-0.1,8.3,0.4,16.6,1.6,24.8c3,19.2,15.4,30.3,32.2,37.4c6,2.5,12.2,4.4,18.7,5.1 c3.3,0.4,6.6,0.7,9.8-0.9c4.2-2.1,7.7,0,9.2,3.5c7.9,18.9,19.4,35.4,31.9,51.3c28.2,35.7,59.3,68.8,92.2,100.2 c28,26.8,57.7,51.6,89.9,73.4c14.6,9.9,29.5,19.3,45.7,26.4c4.4,1.9,5.2,0.7,4.9-3.5c-1.3-17.5-2.6-35.1-3.9-52.6 c-0.7-10.3-1.5-20.5-2.1-30.8c-1.1-16.2-2.2-32.4-3.9-48.6c-1-10.2-1.4-20.5-2.2-30.8c-1.2-15-2.6-30-3.8-45.1 c-0.8-9.6-1.4-19.2-2.1-28.8c-1-14.4-2.4-28.7-3.8-43.1c-1.3-13.2-2.8-26.3-5.1-39.4c-0.8-4.7,3.1-9.5,7.9-10.7 c3.8-1,8.6,1.9,10.5,6.6c2.4,6.1,2.6,12.7,3.4,19c1.9,14.8,3.5,29.6,4.9,44.4c1,9.7,1.4,19.5,2.2,29.3c1.2,15.2,2.6,30.4,3.8,45.6 c0.8,9.8,1.4,19.5,2.2,29.3c1.2,15.2,2.6,30.4,3.8,45.6c0.8,10.3,1.4,20.5,2.2,30.8c1.3,17.2,2.6,34.4,3.9,51.6 c0.8,10.6,1.4,21.2,2.1,31.8c1.1,16,2.2,32.1,3.8,48.1c1.3,12.2,1.9,24.5,3.2,36.6c1.6,14.6,3.5,29.3,5.5,43.9 c1,7.4,2.3,14.7,3.4,22.1c0.2,1.1,0.3,2.4-1.1,3c2.1,2.6,2.7,5.6,3.2,8.7c2.5,17.4,5.1,34.9,6.8,52.5c1.7,18.8,1.5,37.3-3.5,55.5 c-9,32.9-16.1,66.3-24.8,99.3c-4.4,16.6-5.4,33,1,49.4c2.7,6.9,6,12.6,13.8,15c11,3.4,22.1,4.6,33.5,4.1 c18.8-0.8,35.8-6.7,51.4-17.3c10.1-6.8,20.1-13.9,28.6-22.4c9.9-9.8,18.2-21.2,27.2-31.9c0.1-1.1,0-2.4,0.3-3.4 c14.5-43.2,24.9-87.5,34.7-132C709.6,2040.2,711.9,2028.7,714.5,2017.2z M549.2,596.4c8.8-2.7,17.9-1.3,26.8-1.1 c10.6,0.3,21.3,1.3,31.9,1.6c22,0.6,43.9,2.6,65.9,2.3c3.2,0,6.3,0.6,9.1,2.2c6.1,2.2,10.8,7.5,10.3,13.1 c-0.4,5.4-2.4,10.3-8.3,12.3c-2.9,1.9-6.1,2.4-9.5,2.3c-28.3-0.6-56.6-1.2-84.9-1.7c-0.5,0-1,0.1-1.5,0.2 c-0.7,1.8,0.9,2.4,1.7,3.2c17.5,18.5,35.8,36.3,54,54.2c3.1,3.1,5.7,6.5,7.7,10.4c3.1,6,2.2,12.2-2.4,16.9 c-4.2,4.3-10.8,5.4-16.5,2.5c-2.2-1.1-4.3-2.6-6.1-4.3c-27.3-24.7-54.3-49.7-81.8-74.2c-6.5-5.8-8.9-13.2-10.2-21 C533.9,607,540.2,599.2,549.2,596.4z M550.7,741.9c10.1-3.8,20-2.8,29.6,0.8c23,8.6,43.1,21.3,56.1,43.2c9.7,16.4,5,31.6-7.5,39.8 c-4.6,3-9.6,4.3-15.1,4.3c-8.1,0.2-15.3-2.9-22.4-6c-15.3-6.7-29.7-14.9-42.4-25.9c-8.7-7.5-14.5-16.8-16.6-28.2 C530.4,760.1,540.1,745.9,550.7,741.9z M257.8,484.7c9.5-17.5,21.4-33.1,38-44.3c5.5-3.8,9.1-6.6,7.5-14.2 c-1.2-5.3,1.3-10.8,4.2-15.6c1.5-2.4,3.7-3.9,6.7-3.1c3.2,0.9,1.7,3.5,1.7,5.5c0.1,9.9,2.9,18.7,10.4,25.6 c8.4,7.7,10.4,17.3,8,27.9c-5.5,25-16.9,46.9-36.4,63.9c-6,5.2-12.9,9-21.2,8.9c-15.2-0.3-26.8-12.8-26.7-30.1 C250.1,501.4,253.3,492.9,257.8,484.7z M252.7,573.1c23.7-16,49.7-27.5,76-38.4c2.1-0.9,4.3-2,6.7-1.6c3.7,0.7,6.1,3,6.4,6.7 c0.4,4-2,6.5-5.5,8c-8.1,3.4-16.3,6.7-24.3,10.2c-21.2,9.3-41.7,20.1-60.3,33.9c-19.1,14.1-36.2,30.3-48,51.2 c-4.2,7.5-7.5,15.5-7.8,24.4c-0.2,4.1-1.5,8-6.7,8.5c-5.9,0.6-8.3-2.2-8.2-11.7c1-9.6,4.8-20.5,10.9-30.6 C207,608.5,228.5,589.4,252.7,573.1z M212.3,780.4c3.4-1.2,5.8,0.8,7.7,3.2c1.6,1.9,1.3,4.5,1.7,6.7c3.1,19.7,12.5,36.2,25.8,50.8 c16.7,18.3,37.3,29.8,61.6,34.4c6.3,1.2,12.8,1.8,19.2,2.5c4.8,0.5,7.8,3.3,7.6,7.4c-0.1,4.4-3.8,7.5-8.5,7.3 c-36.7-1.9-68-15.5-92.6-43.3c-13.8-15.6-23.3-33.5-27.6-54c-0.4-1.8-0.3-3.6-0.4-5.5C206.2,785.3,207.9,781.9,212.3,780.4z M112.6,924.5c-0.2-0.2-0.3-0.3-0.5-0.5c0.2,0,0.4-0.1,0.5-0.2C112.6,924.1,112.6,924.3,112.6,924.5z M151.4,608 c-17.7-3.7-37.1-10.5-48.7-30.5c-10.1-17.4,4.3-39.7,24.3-40.4c1.9-0.1,4,0.3,5.9,1c15.1,5.2,30.1,10.9,41.9,22.2 c8.6,8.3,12.6,18.4,8.3,30.2C179.1,601.5,167.9,608.1,151.4,608z M342.7,1028.9c-10.1,0.8-20.2,1.5-30.2,2.3 c-40.7-0.1-76.8-13.6-109.3-37.5c-14.9-11-28.7-23.1-38.9-38.8c-0.6-1-1.3-1.9-1.8-3c-2.3-4.9-1.3-9.2,2.5-11.3 c3.6-2,7.4-0.5,10.3,4c13.4,20.6,32.2,35.2,52.7,47.8c16.8,10.3,35,17.6,54.6,20.8c13.9,2.3,27.9,3.8,42.1,1.9 c5.6-0.8,11.2-0.1,16.9-1c4.3-0.7,8,2.7,8.3,6.8C350.3,1024.9,347.2,1028.6,342.7,1028.9z M413.6,686.5 C399,698.8,382.1,707,364,712.8c-12.9,4.1-25.8,7.9-39.6,7.3c-2.2-0.1-2.8,1.2-3.6,2.7c-4.6,8.8-9,17.7-12.9,27 c-3.2,7.6-1.1,14.7,0.9,22.3c3.6,13.3,11.7,22.6,23,29.5c16.2,9.8,33.7,11.3,52,7.6c3.1-0.6,5.9-2.3,8.6-3.9 c4.3-2.4,7.6-1.7,9.8,2c2.1,3.6,1.2,7.1-2.9,9.8c-6.3,4.1-13.4,5.8-20.7,6.5c-2.8,0.3-5.6,0.3-8,0.5c-16.2-0.1-31-3.4-44.6-12 c-6.7-4.3-14.4-6-22.3-6.1c-24.9-0.1-48.7-17.2-56.6-40.8c-1.3-3.8-3.4-6.4-7.4-7.9c-17.5-6.7-26.1-19.9-26.6-38.3 c-0.2-6.3-1.9-12.8,0.8-19.1c1-2.3,2.1-4.5,3.7-6.5c2.8-3.4,6.1-4.6,10.1-2.3c4.1,2.4,5.1,5.9,3.2,10.2c-3.9,8.8-4,17.8-1.3,26.8 c3.7,12.1,13.8,15.9,24.8,17.7c12.6,2.1,25.2,0.8,37.6-2.4c2-0.5,3-1.4,3.9-3.2c3.6-7.7,7.4-15.3,11.1-22.9 c0.8-1.6,1.9-2.9,0.2-4.9c-10.7-12-15.5-26.6-17.8-42.1c-2.6-17.8-2.5-35.5,2-53.1c1.6-6.1,4.2-11.5,7.2-16.9 c3.5-6.3,9.5-8.4,16.2-9.3c16.7-2.2,32.8-0.3,48.5,5.9c21,8.3,40.4,19,54.4,37.5c4.9,6.5,9.8,13.2,10.4,21.7 C429,669,422.9,678.7,413.6,686.5z"/><path fill="inherit" d="M1508.1,984.3c-4.9-43.1-14.7-84.9-32.6-124.6c-14.6-32.3-33.5-61.9-58.8-86.8 c-26.2-25.9-56.8-45.1-91.5-57.6c-40.5-14.6-82.2-18.7-124.9-12.6c-9.6,1.4-18.9,3.9-28.4,5.4c-0.7,0.7-1.5,1.4-2,2.2 c-7.9,14.2-14.8,28.7-15.9,45.3c-0.6,9.5,3.6,17.1,12.3,19.4c12.3,3.2,19.8,11.4,25.5,22c1.4,2.6,3.3,4.4,5.8,6 c16.6,10.3,35.2,14.9,54,18.8c11.8,2.5,18.2,10.6,23.3,19.9c4.1,7.5,8.3,14.7,15,20.3c10.7,9,22.3,16.9,34,24.5 c7.5,4.8,14,10.7,19.8,17.4c1.5,1.7,2.3,3.4,2.4,5.7c0.8,13.8,4.4,26.9,9.4,39.7c9.7,25.3,23.8,48.3,38.7,70.8 c18.8,28.3,38,56.3,57.2,84.3c2.5,3.6,3.5,6.5,1.1,10.7c-2.2,4-3.3,8.7-4.5,13.2c-7.3,29.2-7.2,59.1-6.7,88.9 c0.7,40.4,4.9,80.8,2.6,121.2c-1.4,24.7-4.1,49.1-10.4,73.1c-1.1,4.4-2.9,8.7-2.8,13.3c-0.9-0.3-1,0.6-1.3,1 c1.4,0.9,1.3-0.1,1.4-1c0.6-0.9,1.4-1.8,1.8-2.8c7.8-16.4,14.9-33.1,21.5-49.9c12.3-31.4,19.6-64.3,29.4-96.4 c19.2-63,25.5-128.2,27.9-193.7C1512.9,1049.5,1511.8,1016.9,1508.1,984.3z"/><path fill="inherit" d="M853.8,521.4c6.8-5.7,15-9.1,22.8-13.1c30.3-15.8,61.4-29.7,93-42.5c6.3-2.6,12.8-4.8,19.7-4.8 c15.6-0.1,26.3,13.5,22.8,28.6c-2.5,10.5-8.8,19-14.1,27.9c-22,36.6-44.3,73.1-66.6,109.5c-0.7,1.2-1.4,2.2-1.4,3.6 c3-2,6.2-3.9,9.1-6.2c22.2-17,41.2-37.3,59-58.6c7.1-8.5,13.9-17.3,20.9-26c5.7-8,10.2-16.7,14.8-25.4 c13.2-25.4,26.3-50.8,39.5-76.1c1.2-2.3,2.5-4.2-1.8-4.2c-19.8,0.1-39.5-2.8-59.3,0.1c-9.3,2.2-18.7,4.4-28,6.6 c-26.6,6.2-51.2,17.2-75.2,29.8c-19,10-38,19.8-57,29.7c-1.9,1-4.9,1.4-3.8,4.8C849.9,510.5,850.6,516.4,853.8,521.4z"/><path fill="inherit" d="M298.7,275.2c3.6-1.2,7.4-1.7,11.1-2.5c1.9-13.8,5.7-27.2,9.2-40.7c5.9-23.2,11.9-46.3,21-68.5 c1.2-2.9,2.8-5.7,4-8.6c2.9-7.1,7.5-11.3,15.7-10c7,1.1,10.8,6,13.2,12.2c3.1,7.8,4.6,15.9,6.1,24.1c3.6,20.7,6.7,41.5,8.2,62.5 c0.5,7.8,2,15.4,1.8,23.3c1.1,0.3,2.2,0.7,3.4,0.8c7.3,1,7.8,0.6,8.5-6.5c0.3-3.1,0.8-6.3,0.7-9.4c-0.8-28.1-3.8-56-7.1-83.9 c-3.4-28.7-8-57.2-12.6-85.7c-1.5-9.1-1.9-18.4-4.9-27.2c-13.5,27.8-27.6,55.3-39.1,84c-0.1,0.8-0.2,1.6-0.5,2.4 c-5.3,15-10.8,30-15.9,45c-9.5,28.3-18,56.9-25.7,85.7C295,275.3,294.9,276.5,298.7,275.2z"/><path fill="inherit" d="M1104,1927c-2.1-1-3.4,0.8-4.8,1.6c-35.1,22.1-72.8,38.3-112.4,50.1c-37.4,18.1-75.3,35.1-116.2,43.8 c-18.5,3.9-37.1,7.4-56.2,6.4c-0.2,0-0.4,0-0.5,0c-11.1-4.1-16.9,3.7-22.7,10.6c-22.9,27.1-42.4,56.6-60.9,86.9 c-9.9,16.2-18.4,33.2-27.2,50c-3.5,6.7-9.1,12.4-12,19.6c0.6,3-0.4,5.9-0.7,8.9c-0.6,6.2,0.1,12.3,2,18.2c0.5,1.6,1.2,3.1,2.8,4 c11.3,6.4,23.8,10.1,36.3,9.4c23.5-1.3,46.3-7.6,68.6-15.2c35-12,66.2-31,95.6-53.1c34.1-25.5,65.5-54.1,93.8-86 c32.6-36.7,67-72,92.3-114.6C1089.6,1954.3,1098.1,1941.3,1104,1927C1104.1,1927,1104.1,1927,1104,1927c0.5-0.3,1-0.7,1.5-1 C1104.7,1925.9,1103.9,1925.9,1104,1927z"/><path fill="inherit" d="M748.3,1825.5c-2.3,19.3-4.4,38.7-2.3,58.3c0.4,3.5,0.8,7,2.4,10.1c1.5,2.9,3.8,4.6,7.3,4.3 c3.2-0.3,5.1-2.3,6.1-5.2c0.6-1.7,0.9-3.6,1.1-5.4c0.5-5.8,0.8-11.6,1.1-17.4c1.6-25.6,4.1-51.1,8.3-76.4 c8.5-51.9,19.1-103.4,31.6-154.4c1.2-4.9,3.3-8.9,6.8-12.4c12.8-13.2,27.1-24.6,42.3-35c38.8-26.5,79.7-49.6,121.1-71.9 c27.8-15,51.7-33.9,70.5-59.2c17.2-23.1,28.4-48.4,29.4-77.5c1.5-24.8-11-40.2-32.5-49.7c-6.6-2.9-12.8-0.6-18.8,1.8 c-23.7,9.3-43.4,24.4-60.8,42.8c-7.5,7.9-12.3,17.7-20.5,25.1c-22.4,20-43.3,41.5-62.5,64.6c-25.2,30.2-47.2,62.3-64.2,97.9 c-17,35.5-27.3,73.2-37.2,111C764.4,1725.6,754.2,1775.2,748.3,1825.5z"/></g><g fill="#fec7ab" id="change2_1"><path fill="inherit" d="M989.3,460.9c-6.9,0-13.4,2.3-19.7,4.8c-31.6,12.8-62.7,26.7-93,42.5c-7.8,4-15.9,7.4-22.8,13.1 c2,8.7,6.4,16.4,10.3,24.2c14.3,28.1,32.7,53.7,48.1,81.2c6.3,11.2,6.5,11.1,17.7,3.8c0-1.4,0.7-2.5,1.4-3.6 c22.2-36.5,44.6-72.9,66.6-109.5c5.4-8.9,11.7-17.5,14.1-27.9C1015.6,474.4,1004.9,460.8,989.3,460.9z"/><path fill="inherit" d="M379,181.2c-1.4-8.2-3-16.3-6.1-24.1c-2.4-6.1-6.2-11-13.2-12.2c-8.2-1.3-12.8,2.9-15.7,10 c-1.2,2.9-2.8,5.7-4,8.6c-9,22.2-15.1,45.3-21,68.5c-3.4,13.5-7.3,26.9-9.2,40.7c12.1-1.8,24.2-3.6,36.3-4.8 c14.2-1.4,28.5-0.8,42.8-1c0.2-7.8-1.3-15.5-1.8-23.3C385.7,222.7,382.6,201.9,379,181.2z"/><path fill="inherit" d="M580.3,742.7c-9.6-3.6-19.5-4.6-29.6-0.8c-10.6,4-20.3,18.2-18.4,28c2.1,11.4,8,20.7,16.6,28.2 c12.7,11,27.2,19.2,42.4,25.9c7.1,3.1,14.4,6.2,22.4,6c5.5,0,10.5-1.3,15.1-4.3c12.5-8.2,17.2-23.4,7.5-39.8 C623.4,764,603.3,751.4,580.3,742.7z"/><path fill="inherit" d="M132.8,538c-1.8-0.6-3.9-1-5.9-1c-20,0.7-34.3,23-24.3,40.4c11.6,20,31,26.8,48.7,30.5 c16.5,0.1,27.6-6.5,31.6-17.5c4.3-11.8,0.3-21.9-8.3-30.2C162.9,548.9,148,543.3,132.8,538z"/></g><g fill="#dac3b0" id="change3_1"><path fill="inherit" d="M2,1258.9c0-6.7-0.1-13.3-0.1-20c-0.3,0-0.6,0-0.9,0c0,6.7,0,13.3,0,20l0.5,0.1L2,1258.9z"/><path fill="inherit" d="M1,1320c0,6.7,0,13.3,0,20c0.3,0,0.6,0,0.9,0c0-6.7,0.1-13.3,0.1-20C1.7,1319.9,1.3,1319.9,1,1320z"/><path fill="inherit" d="M532.5,1949c-1.9-14.6-3.9-29.2-5.5-43.9c-1.3-12.2-2-24.5-3.2-36.6c-1.7-16-2.8-32-3.8-48.1 c-0.7-10.6-1.3-21.2-2.1-31.8c-1.2-17.2-2.6-34.4-3.9-51.6c-0.8-10.3-1.4-20.5-2.2-30.8c-1.2-15.2-2.6-30.4-3.8-45.6 c-0.8-9.8-1.4-19.5-2.2-29.3c-1.2-15.2-2.6-30.4-3.8-45.6c-0.8-9.8-1.2-19.5-2.2-29.3c-1.5-14.8-3-29.7-4.9-44.4 c-0.8-6.4-1-12.9-3.4-19c-1.9-4.7-6.7-7.5-10.5-6.6c-4.8,1.2-8.7,6-7.9,10.7c2.3,13.1,3.8,26.2,5.1,39.4 c1.4,14.3,2.8,28.7,3.8,43.1c0.7,9.6,1.3,19.2,2.1,28.8c1.2,15,2.6,30,3.8,45.1c0.8,10.3,1.2,20.5,2.2,30.8 c1.6,16.2,2.8,32.4,3.9,48.6c0.7,10.3,1.4,20.5,2.1,30.8c1.3,17.5,2.5,35.1,3.9,52.6c0.3,4.1-0.5,5.4-4.9,3.5 c-16.2-7.1-31.1-16.5-45.7-26.4c-32.2-21.8-61.9-46.6-89.9-73.4c-32.8-31.4-64-64.5-92.2-100.2c-12.5-15.9-24.1-32.4-31.9-51.3 c-1.4-3.5-4.9-5.6-9.2-3.5c-3.2,1.6-6.5,1.3-9.8,0.9c-6.5-0.7-12.7-2.6-18.7-5.1c-16.9-7.1-29.2-18.3-32.2-37.4 c-1.3-8.2-1.8-16.5-1.6-24.8c0.1-5.2-0.9-10-6.3-12.5c-5.6-2.5-9.1,1-12.6,4.4c-3.1,3.1-6,6.2-9.8,8.4c-6,3.6-9.2,2.7-12.5-3.5 c-2.3-4.3-3.8-8.9-4.7-13.6c-3-14.7-3.7-29.4-3.3-44.4c0.5-16.4,1.8-32.7,4.1-49c3.8-27.4,9.2-54.5,16.6-81.2 c1.2-4.2-0.9-8.7-4.5-9.9c-4-1.3-7.8,0.5-9.5,5.1c-1.4,3.9-2.5,7.9-3.5,11.9c-5,21.3-9.6,42.6-12.9,64.3 c-2.4,15.4-4.4,30.9-4.9,46.4c-0.5,15.3-1.2,30.6,0.8,45.9c1.5,11.4,3.7,22.6,9.3,32.9c6.9,12.8,20,16.2,32.2,8.4 c6.9-4.4,7-4.4,7.5,4c0,0.7,0,1.3,0,2c1.2,19.6,9.5,35.5,25.3,47.1c12.6,9.2,27,14,42.5,15.8c1.9,0.2,3.4,0.4,4.2,2.6 c6.1,15.1,15.6,28.2,25.2,41.1c14.1,18.9,29.5,36.8,45.7,54c2.2,2.3,4,4.9,4.7,8.1c1.1,5,2.2,10,3.2,15.1 c7.9,39.8,12.7,80.1,17.9,120.4c2.9,22.8,5.2,45.7,7.5,68.7c2.2,22.4,3.9,44.9,5.6,67.4c1.2,15.2,1.9,30.5,3,45.7 c1.4,18.5,2.1,37.1,3.2,55.7c0.2,3.5,0.9,6.9,4.7,8.6c0.4-2.6,1.2-5.2,1.2-7.9c0.1-14.5,10.1-21.8,21.1-26.8 c13.9-6.2,28.8-10.2,43.2-15.5c20.6-7.5,41.2-15.2,61.1-24.5c17.4-8.2,33.7-18.1,49.6-28.7c2.6-1.7,4.3-1.5,6.4,0.5 c3.1,3,6.3,5.9,9.5,8.8c1.4-0.6,1.3-1.9,1.1-3C534.8,1963.7,533.5,1956.4,532.5,1949z"/><path fill="inherit" d="M995,1960.2c-2.7-3.6-6.4-4.6-10.6-2.9c-2.1,0.9-4.2,2-6.3,3.1c-20.6,11.6-41.9,21.9-64.3,29.5 c-36.4,12.3-73.1,23.6-112.4,18.1c-16.8-2.3-30.9-8.8-40.2-23.6c-8.7-13.6-9.6-29.5-12.6-44.7c-0.5-2.5-1.3-3.1-3-3.3 c-4.1-0.6-8.2-0.9-12.4-1.3c-2.6-0.3-3.8,0.7-4.3,3.5c-4.3,24.4-7.9,49-14,73.1c0,1.8-0.1,3.6-0.5,5.4c-2.5,11.5-4.9,23-7.4,34.5 c-9.8,44.4-20.2,88.8-34.7,132c-0.4,1.1-0.2,2.3-0.3,3.4c0.7-0.4,1.6-0.7,2-1.3c2.5-3,4.7-2.3,7.1,0.2c3.3,3.4,6.6,6.7,10,10 c2.9-7.2,8.5-12.9,12-19.6c8.8-16.8,17.3-33.8,27.2-50c18.4-30.3,38-59.7,60.9-86.9c5.8-6.9,11.6-14.7,22.7-10.6 c0.1,0.1,0.3,0,0.5,0c19.1,1,37.7-2.4,56.2-6.4c41-8.7,78.8-25.8,116.2-43.8c1.4-3.6,5.6-3.8,7.8-6.6 C997.6,1968.2,998,1964.3,995,1960.2z M778.3,2025.3c-24.2,28.5-44.9,59.3-64.2,91.3c-0.7,1.1-1.1,2.5-3.4,2.7 c11.2-44,20.7-88.2,29.6-132.6c5.9,10.6,12.7,20.2,22.8,26.9c4.4,2.9,9,5.7,14,7.5C779.4,2022,780.4,2022.9,778.3,2025.3z"/><path fill="inherit" d="M653.5,1019c-8.6,1.8-17.5,1.8-26,4.2c-4.1,1.2-8.4,2-12.6,2.7c-17.9,3.3-35.9,6-53.9,8.3 c-17.1,2.2-34.2,4.1-51.4,4.6c-23.4,0.6-46.8,0.6-69.9-4.7c-4.8-1.1-8.9,3.3-6.3,6.9c2.5,3.5,3.6,7.7,6.8,10.7 c15,13.8,33.3,18.9,52.9,20.1c19.2,1.2,38-1.8,56.7-6.1c2.9-0.7,5.1-0.5,7.4,1.1c-0.7-3.5,2.3-3.2,4.1-3.6 c16.6-4.1,32.9-8.9,48.8-15.2c16.8-6.6,33.8-12.9,47.9-24.7C658.5,1019.8,656.9,1018.3,653.5,1019z"/><path fill="inherit" d="M189.2,676.1c5.2-0.5,6.5-4.4,6.7-8.5c0.4-8.9,3.6-16.9,7.8-24.4c11.8-21,28.9-37.1,48-51.2 c18.7-13.8,39.1-24.6,60.3-33.9c8.1-3.5,16.2-6.9,24.3-10.2c3.6-1.5,5.9-3.9,5.5-8c-0.4-3.7-2.8-6-6.4-6.7 c-2.4-0.5-4.6,0.7-6.7,1.6c-26.3,10.9-52.3,22.4-76,38.4c-24.2,16.3-45.7,35.4-60.9,60.7c-6,10.1-9.9,21-10.9,30.6 C180.9,673.9,183.2,676.6,189.2,676.1z"/><path fill="inherit" d="M164.3,954.9c10.2,15.7,24,27.8,38.9,38.8c32.5,23.9,68.5,37.4,109.3,37.5c10.1-0.7,20.2-1.4,30.2-2.3 c4.5-0.4,7.6-4,7.2-8c-0.4-4.1-4-7.5-8.3-6.8c-5.6,1-11.3,0.3-16.9,1c-14.2,1.9-28.2,0.4-42.1-1.9c-19.6-3.2-37.7-10.5-54.6-20.8 c-20.5-12.6-39.3-27.3-52.7-47.8c-3-4.6-6.8-6-10.3-4c-3.8,2.1-4.8,6.5-2.5,11.3C163,953,163.7,953.9,164.3,954.9z"/><path fill="inherit" d="M309.1,875.5c-24.3-4.6-44.9-16.1-61.6-34.4c-13.3-14.5-22.7-31-25.8-50.8c-0.3-2.2-0.1-4.8-1.7-6.7 c-2-2.4-4.3-4.4-7.7-3.2c-4.5,1.5-6.1,4.9-5.5,9.5c0.1,1.8,0.1,3.7,0.4,5.5c4.3,20.5,13.8,38.4,27.6,54 c24.6,27.7,55.9,41.3,92.6,43.3c4.7,0.2,8.3-2.9,8.5-7.3c0.1-4.1-2.9-6.9-7.6-7.4C321.9,877.2,315.5,876.7,309.1,875.5z"/></g><g fill="#877671" id="change4_1"><path fill="inherit" d="M2,1280.8c0-7.3,0-14.6,0-21.9l-0.5,0.1L1,1259c0,8.3,0,16.7,0,25C2.1,1283.2,2,1282,2,1280.8z"/><path fill="inherit" d="M1,1295c0,8.3,0,16.7,0,25c0.3-0.1,0.7-0.1,1,0.1c0-3.1,0.3-6.3,0-9.4C1.6,1305.4,3.2,1300.1,1,1295z"/><path fill="inherit" d="M1104.1,1927C1104,1927,1104,1927,1104.1,1927C1104,1927,1104,1927.1,1104.1,1927 C1104,1927.1,1104.1,1927,1104.1,1927z"/><path fill="inherit" d="M1430.9,1425C1431,1425,1431,1425,1430.9,1425c0.1-0.1,0.1-0.1,0.1-0.1 C1431,1424.9,1430.9,1425,1430.9,1425z"/><path fill="inherit" d="M1728.2,1115.1c-1.2-18.5-1.6-37.1-3-55.7c-1.7-24.1-7.2-47.5-12.1-70.9c-4.3-20.6-10.5-40.8-17.5-60.7 c-11.5-32.3-26.5-62.8-44.9-91.6c-10.6-16.5-21.9-32.5-34.6-47.5c-6.7-7.8-12.9-16.2-20.4-23.1c-10.1-9.3-20.6-18.3-31.4-26.9 c-21.2-16.9-43.7-31.9-67.7-44.7c-25.9-13.8-52.9-24.8-81.1-33c-16.6-4.8-33.5-8.2-50.5-10.8c-14.4-2.2-29.1-2.2-43.6-3.1 c-2.5-0.2-5-1.1-7.4-0.7c-11.6,1.8-23.4,1.9-35.1,3.6c-14.8,2.1-29.4,5.1-43.4,10.4c-15.5,5.8-29.6,14.4-42.9,24.1 c-8.6,6.3-16.3,13.6-20.6,23.7c9.5-1.5,18.8-4,28.4-5.4c42.7-6.2,84.4-2,124.9,12.6c34.7,12.5,65.3,31.8,91.5,57.6 c25.3,25,44.2,54.5,58.8,86.8c17.9,39.7,27.7,81.5,32.6,124.6c3.7,32.5,4.7,65.1,3.5,97.8c-2.4,65.5-8.8,130.6-27.9,193.7 c-9.8,32.1-17,65.1-29.4,96.4c-6.6,16.9-13.8,33.6-21.5,49.9c-0.5,1-1.2,1.9-1.8,2.8c0,0.9,0,1.9-1.4,1c-1.6,2.2-2.2,4.8-2.8,7.4 c-2.6,10.6-7.4,20.3-12,30c-13.1,27.5-31.2,51.1-53.9,71.6c-15.3,13.8-31.9,24.5-52.1,28.8c-3.3,0.7-3.9,2.3-3.9,5.2 c0.1,7.6,0.6,15.3,0.9,22.9c0.4,12.8-0.1,25.6-0.6,38.4c-0.4,10.3-1.3,20.6-1.4,30.9c0,3.8-0.8,7.6-0.9,11.4 c-0.2,5.3-3.5,8.6-7.9,8.5c-4.3,0-7-3.4-7-9c0-2-0.2-4,0.1-6c2.1-16.3,1.8-32.8,2.7-49.2c0.6-11.2-0.5-22.6-0.5-33.9 c0-22-4.5-43.1-9.1-64.3c-5.4-25-13.6-49.3-23.7-72.9c-13.2-30.8-28.5-60.5-46.5-88.7c-13.4-20.8-28.7-40.3-44.1-59.6 c-14.8-18.6-29.9-36.9-45.1-55.1c-11.9-14.3-24.1-28.3-36.2-42.4c-13.3-15.5-26.4-31.1-39.8-46.6c-12.8-14.8-25.9-29.4-38.7-44.2 c-16.8-19.5-33.5-39-50.1-58.7c-13.9-16.5-27.7-33.1-41.5-49.7c-14.6-17.5-29-35-43.7-52.4c-6.3-7.5-6.4-7.2-11.4,1.6 c-15.2,26.9-33.6,51.4-54.9,73.8c-12.3,12.9-25.7,24.5-40.1,35.1c-7.1,5.2-14.4,10.1-22.3,14.1c-4.5,2.2-8.5,1.3-10.6-2.1 c-2.4-3.9-1.4-7.5,3-10.6c1.1-0.8,2.2-1.5,3.4-2.1c21.8-12.6,40.5-28.7,57.7-47c16.6-17.6,31.3-36.6,44-57.1 c6-9.8,12.6-19.3,16.5-30.1c9.7-26.4,18.1-53.2,26.8-79.9c11.8-36.2,23.5-72.4,35.5-108.5c2.8-8.5,5.1-17.1,9.4-25.2 c20.5-37.9,40.7-75.9,61-113.9c9.3-17.3,18.6-34.6,27.8-51.9c0.8-1.5,1.6-2.9,1.1-4.7c-7,8.7-13.8,17.5-20.9,26 c-17.8,21.4-36.7,41.7-59,58.6c-2.9,2.2-6,4.1-9.1,6.2c-11.2,7.3-11.4,7.4-17.7-3.8c-15.4-27.4-33.8-53.1-48.1-81.2 c-4-7.8-8.4-15.5-10.3-24.2c-3.2-5-3.9-10.9-5.8-16.3c-1.1-3.3,1.9-3.8,3.8-4.8c19-10,38-19.8,57-29.7 c24-12.6,48.7-23.6,75.2-29.8c9.3-2.2,18.7-4.4,28-6.6c-3.4-2.1-7.3-1.9-10.9-2c-17.6-0.7-35.2-0.2-52.9-0.9 c-25.5-1-51.1-0.1-76.6-1.2c-12.6-0.5-25.3,0.4-37.9-1.2c-4.1-0.5-8.7,0.4-12.2-2.9c-8.7-8.2-17.5-16.3-26.4-24.3 c-6.5-5.9-12.8-12.1-19.8-17.4c-24.5-18.5-49.5-36.4-75.5-52.8c-19.7-12.5-39.9-24.1-61.4-33c-31.6-13.1-64.2-23.4-97.5-31.4 c-17.6-4.2-35.3-7.8-52.7-12.7c-3.9-1.1-6.3-2.9-7.9-6.6c-4.7-11.1-9.5-22.3-14.6-33.2c-12.1-25.9-24.3-51.8-36.8-77.5 c-14.3-29.7-28.9-59.2-43.4-88.8c-0.7-1.3-0.8-3.3-3.2-3.7c-1.8,3.5-3.6,7-5.4,10.5c3,8.8,3.5,18.1,4.9,27.2 c4.6,28.5,9.2,57,12.6,85.7c3.3,27.9,6.3,55.8,7.1,83.9c0.1,3.1-0.3,6.3-0.7,9.4c-0.8,7.1-1.3,7.5-8.5,6.5 c-1.1-0.2-2.3-0.5-3.4-0.8c-14.3,0.3-28.5-0.3-42.8,1c-12.2,1.2-24.2,3-36.3,4.8c-3.7,0.8-7.5,1.3-11.1,2.5 c-3.8,1.2-3.7,0-2.9-3.1c7.6-28.9,16.1-57.5,25.7-85.7c5.1-15.1,10.6-30,15.9-45c0.3-0.8,0.3-1.6,0.5-2.4c-2.3,0.3-2.5,2.5-3.3,4 c-4.7,9.9-9.3,19.9-14,29.8c-14.4,30.3-29,60.6-43.4,91c-2,4.3-4.7,8.4-4.4,13.6c0.1,1.7-1,3.1-2.2,4.4 c-9,9.3-18.3,18.4-28.1,26.9c-13.1,11.5-26.1,23.1-38.3,35.7c-11.6,12.1-22.9,24.5-34.1,37c-7.7,8.5-15.4,17-22.3,26.1 c-13.4,17.4-25.6,35.6-36.3,54.8c-3.4,6.2-8.6,11.5-9.6,18.9c7.1-7.3,14-14.7,21.2-21.8c16.5-16.1,34.6-30.2,54.4-42 c8.4-5,17.8-4.9,26.5-8c4-1.4,8.3-2.3,12.4-3.6c1.2-0.4,2.7-1.2,3.2-2.2c2.9-5.8,8.4-9.2,12.4-14.1c15.1-18.2,35.2-28.6,57.4-35.4 c5.2-1.6,10.4-3.6,15.9-4.1c48.1-4.8,90.9,27.7,103.4,72.7c5,18,5.2,36.1,2.5,54.5c-0.2,1.2-0.3,2.3-0.4,3.5 c0,0.2,0.3,0.5,0.6,1.1c6-3.7,10.3-8.9,14.1-14.6c10.9-16.3,17.9-34.5,25.3-52.6c8.5-21,16.3-42.3,27.8-61.9 c13.6-23.3,42.8-28.8,64-11.7c6.2,5,9,11.9,7.6,20.3c-3.2,18.5-12.4,34.3-21.4,50.3c-15.1,26.6-28.7,53.7-37.7,83 c-2.2,7.3-4.1,14.7-2.8,23.4c2.3-2.6,4.2-4.8,6.2-6.9c22.4-23.6,50.3-37.4,81.5-45c45.6-11.1,85.5,1.2,120.6,30.8 c9.7,8.2,14.4,20.2,17.1,32.6c3.4,15.9,6,32,7,48.3c0.6,9.9-1,19.6-2.2,29.3c-2.3,18,1.5,33.2,14.8,46.9 c18.6,19.2,34.1,41.1,46,65.1c4.8,9.6,5.4,20.9,7.6,31.4c7.2,34.1,1.2,67.2-7.8,100.1c-12.5,45.5-34.3,86-63.2,123.2 c-12.2,15.6-26.1,28.7-42.8,39.2c-5.2,3.3-9,8.5-15.2,10.3c-14.1,11.8-31.1,18.2-47.9,24.7c-15.9,6.2-32.2,11.1-48.8,15.2 c-1.7,0.4-4.8,0.1-4.1,3.6c5.8,4.5,12.9,4.4,19.6,4.9c14.1,1.1,28.2,1.6,42.4,2c3.4,0.1,4.9,1.1,5.9,4.4 c15.2,47.2,24.7,95.3,21.9,145.2c-1.9,34.3-7.5,68-14.4,101.6c-9.2,44.9-21.3,89.2-30.1,134.3c-3.1,15.8-5.3,31.8-8.6,47.6 c-2.3,11.4-5.8,22.5-7.1,34.1c-2,17.9-2.8,35.8-2.9,53.8c-0.1,15.5-0.5,31-0.8,46.4c-1.9,94.3,11.8,186,44.4,274.7 c9.3,25.3,17,51.1,27.7,75.9c4.9,11.3,11.7,21.3,20.2,30.2c11.7,12.2,28.1,10,36.2-4.8c1-1.9,2.3-3.6,3.5-5.4 c6.1-24.1,9.6-48.7,14-73.1c0.5-2.8,1.6-3.8,4.3-3.5c4.1,0.4,8.3,0.7,12.4,1.3c1.7,0.2,2.5,0.8,3,3.3c3,15.2,4,31.1,12.6,44.7 c9.4,14.8,23.5,21.2,40.2,23.6c39.4,5.5,76-5.8,112.4-18.1c22.4-7.6,43.7-17.9,64.3-29.5c2-1.1,4.1-2.2,6.3-3.1 c4.2-1.7,7.9-0.7,10.6,2.9c3,4.1,2.6,8-0.4,11.9c-2.2,2.8-6.4,3-7.8,6.6c39.7-11.8,77.4-28,112.4-50.1c1.4-0.9,2.7-2.6,4.8-1.6 c-0.1-1.1,0.7-1.2,1.5-1c1.2-0.9,1.2-2.2,1.6-3.5c3-9.8,9.5-17.2,18.4-21.2c18.3-8.4,36.7-16.5,54.2-26.5 c12.3-7.1,24.3-14.9,34.2-24.8c9.1-9.2,17.1-19.8,24.6-30.6c17.4-25,29.3-52.5,37.9-81.5c2.5-8.3,7.7-13.7,13.8-18.9 c1.2-1,2.6-1.9,4.4-2c6.5-0.2,12.9-0.8,19.4-0.9c13-0.1,25.8-1.2,38.7-3c31.5-4.4,61.3-14.6,90-28c26.8-12.5,51.7-27.9,74.8-46.5 c19.9-16,37.9-33.8,53.9-53.6c17.4-21.5,32.9-44.2,47.3-67.8c19.4-31.9,36.2-65.1,49.9-99.8c13.6-34.4,26.3-69.3,35-105.4 c3.4-14.2,7.6-28.2,10.1-42.5c1.4-8,2.6-16,4.1-24c4-21.3,9-42.6,9-64.4C1726.8,1159.2,1729.6,1137.2,1728.2,1115.1z M1074,1383.4 c-1,29.1-12.2,54.4-29.4,77.5c-18.8,25.3-42.7,44.3-70.5,59.2c-41.3,22.3-82.2,45.4-121.1,71.9c-15.2,10.3-29.5,21.8-42.3,35 c-3.5,3.6-5.6,7.5-6.8,12.4c-12.5,51.1-23.1,102.6-31.6,154.4c-4.2,25.3-6.7,50.8-8.3,76.4c-0.4,5.8-0.7,11.6-1.1,17.4 c-0.1,1.8-0.5,3.6-1.1,5.4c-1,2.9-2.9,4.9-6.1,5.2c-3.4,0.3-5.8-1.4-7.3-4.3c-1.6-3.1-2-6.6-2.4-10.1c-2.1-19.5,0.1-38.9,2.3-58.3 c5.9-50.3,16-99.9,28.9-148.8c10-37.8,20.3-75.5,37.2-111c17-35.5,39.1-67.7,64.2-97.9c19.3-23.1,40.2-44.5,62.5-64.6 c8.2-7.3,13-17.2,20.5-25.1c17.4-18.4,37.1-33.4,60.8-42.8c6-2.4,12.2-4.7,18.8-1.8C1063,1343.1,1075.5,1358.6,1074,1383.4z"/><path fill="inherit" d="M114.2,1728.6c-22.6-75.7-43.8-151.8-55.7-230.1c-5.6-36.7-9.7-73.6-8.6-110.8c0.2-8,0.8-16-3.1-23.5 c-0.7-1.4-0.4-2.9-0.2-4.4c1.2-10.9,2.2-21.9,3.4-32.8c2.4-21.3,4.8-42.6,7.4-63.9c2.8-22.8,5.7-45.5,8.6-68.3 c2.8-22.8,5.6-45.5,8.4-68.3c2.6-21.5,4.8-43,6.5-64.5c1.6-19.7,2.6-39.5,3.4-59.3c1.1-29-0.5-57.9-4.7-86.6 c-0.9-6.4-3.2-12.6-9.4-16.3c-0.7,1.9-1.5,3.7-2.2,5.6c-4.6,13.6-5.8,27.9-7.9,41.9c-3.9,25.4-7.9,50.7-10.3,76.3 c-1.8,19.3-4,38.5-5.8,57.8c-1.3,13.5-1.8,27.1-3.2,40.7c-2.2,21.1-3.2,42.3-4.7,63.5c-1,13.9-1.3,27.9-2,41.8 c-0.8,15.1-0.3,30.3-0.9,45.4c-0.6,14.6-0.2,29.2,0.5,43.9c0.9,20.4,0.6,40.9,2.1,61.3c1,14.6,1.9,29.1,3,43.7 c1.4,18,3.2,36,5,53.9c1.7,17.5,4,34.9,6.4,52.3c3.1,22.1,6.9,44.2,11,66.1c6.2,33.2,13.6,66.2,21.3,99.2 c8.7,37.4,19.6,74.2,31.5,110.6c9,27.5,18.7,54.7,28.7,81.9c7.7,21.1,15.7,42,23.5,63.1c7.2,19.3,15.2,38.3,20.4,58.3 c1,3.8,0.9,8.2,4.1,11.3c0.1-1.8,0.3-3.6,0.3-5.5c0-23.4-5-46-11.9-68.1C156.9,1872.7,135.7,1800.6,114.2,1728.6z"/><path fill="inherit" d="M684.9,626.8c5.9-2,7.9-6.9,8.3-12.3c0.4-5.6-4.2-10.9-10.3-13.1c0.2,1.5,1.3,2.3,2.3,3.2 c4.8,4.5,5.8,9.9,3.5,15.9C687.8,622.7,686.2,624.7,684.9,626.8z"/></g><g fill="#6c4e45" id="change5_1"><path fill="inherit" d="M1761,1114c-1.7-1.8-0.9-4.1-1-6.1c-0.7-19-0.9-38-3.5-56.9c-5.7-41.5-14.4-82.3-28.4-121.9 c-12.1-34.3-28.2-66.5-47.9-96.9c-20.7-31.9-45.7-60.1-72.6-86.8c-39.8-39.4-84-72.1-135.2-95.3c-36.2-16.4-73.8-27.9-113.3-32.6 c-14.5-1.7-29.2-2.9-43.8-3.1c-10.6-0.1-21.2,1.7-31.8,2.8c-30.8,3.3-59.3,12.9-84.9,30.8c-13.8,9.6-24.7,22.3-36.9,33.5 c-13.2,12.2-23.4,26.3-30.8,42.6c-7.2,15.8-10.9,31.2-4.9,48.6c4.8,13.9,13,22.9,26.6,28.2c9.9,3.8,20.1,7.6,27.1,16.7 c2.8,3.7,6.7,6.5,9.8,10c6,6.8,13.8,11,21.9,14.4c10.4,4.4,21.3,7.5,32.4,10c2.8,0.6,5.6,1.1,8,3.5c18.9,19.7,37.2,40.1,60.5,55 c1.9,1.2,2.6,2.7,2.8,4.9c0.5,7.5,2.3,14.8,4.6,22c9.5,30.2,25.8,56.9,43.1,83c19,28.7,38.6,57.1,58,85.6c1.2,1.8,2.9,3.4,1.5,6.2 c-5.9,12-8.4,24.9-10,38c-3.9,31.9-2.9,63.9-1.5,95.8c1.6,35.9,3.8,71.9,0.7,107.9c-2.2,25.3-6.4,50.2-14.2,74.4 c-7,21.6-17,41.9-28.7,61.4c-11.3,18.9-27.1,31.6-47.7,38.8c-3.4,1.2-5,0.8-5.6-3.2c-0.9-5.9-2.4-11.7-3.9-17.6 c-12.6-49-34.3-94-59.6-137.5c-14.7-25.3-32.9-48.1-51-70.9c-46.5-58.7-95.4-115.2-144.8-171.5C999.5,1064,945.9,998.1,891.2,933 c-2.6-3.1-3.2-5.8-1.8-9.8c9.7-26.8,18.3-53.9,27.1-81c8.6-26.5,17.1-53,25.8-79.4c3.9-11.6,7.8-23.1,13.7-34.1 c39.4-73.2,78.4-146.6,117.3-220c11.6-21.9,22.9-44,33.9-66.3c6.7-13.6,3.4-25.2-8.8-34.1c-5.2-3.8-11-6.1-17.6-6.5 c-29.3-1.8-58.6-2.1-87.9-2.7c-49.7-1-99.3-1.9-149-2.7c-3.2-0.1-5.6-1.1-8-3.3c-24.3-22.6-49.9-43.6-77.1-62.7 c-32.6-22.9-65.9-44.7-102.7-60.4c-45.8-19.4-93.1-34.3-141.9-44.1c-5.1-1-8.1-3.3-10.4-8c-16.2-34.1-32.6-68.2-49-102.3 c-16.2-33.6-31.9-67.5-49.4-100.4c-7.4-14-20.3-17.3-34.2-9.6c-8,4.5-12.6,11.6-16.5,19.5c-27.3,55.2-53.4,111.1-80.1,166.6 c-15.1,31.4-28.7,63.6-45.6,94.2c-1.3,2.3-2.5,4.6-4.5,6.5c-12.5,11.3-24,23.6-35.5,35.8c-30.2,32-58.5,65.7-83.6,102 c-20.1,29.1-37.3,59.9-52.2,91.9c-13.5,28.9-24.3,58.8-30.3,90.2C17,645,15.3,677.8,17,710.9c2,39.1,6.9,77.6,21.1,114.4 c1.7,4.5,4.4,8.7,4,13.8c-1.2,14.2-1.1,28.6-3.4,42.7c-10.4,64.3-20.7,128.6-26,193.6c-4.4,54.5-9.1,108.9-10.7,163.6 c0,6.7,0.1,13.3,0.1,20c0,7.3,0,14.6,0,21.9c0,1.2,0.1,2.3-1,3.2c0,3.7,0,7.3,0,11c2.2,5.1,0.6,10.4,1,15.6c0.2,3.1,0,6.3,0,9.4 c0,6.7-0.1,13.3-0.1,20c3.5,97.8,14.2,194.7,34.6,290.4c11.9,55.9,25.1,111.4,43.1,165.8c13.3,40.2,27.6,79.9,42.2,119.6 c9.9,27,21.4,53.5,29.7,81.1c7.6,25,14.8,50.2,16.1,76.6c0.7,13.9-1.9,27.6-5.4,41c-4,15.6-5.9,31.1-0.3,46.7c2.2,6,5,11.5,9.8,16 c8.5,8,16.6,16.4,24.8,24.7c3.3,3.4,7.1,5.6,11.6,6.3c18.9,3,37.8,4.5,56.5-0.9c18.5-5.4,35.4-13.5,48.7-28 c10.9-11.9,23.9-21.8,32.5-35.8c14.7-24.1,26.5-49.3,29.3-77.8c0.3-3.4,1.9-4.7,5-5.7c34.7-12.3,69.6-24,102.3-41.1 c6.9-3.6,13.6-7.8,20.3-11.7c1.8-1.1,3.7-2.1,5.6-3.3c6.3,35.1,7.9,69.3-3.2,103.6c-6,18.6-9.4,38.1-14.3,57.2 c-4,15.5-9.1,30.9-9.9,46.8c-0.8,15.1,2,29.9,13,41.6c7.3,7.7,15.5,14.7,22.5,22.8c8.6,9.8,19.5,13.4,31.8,14.5 c1.3,0.1,2.7-0.3,3.7,0.9c5,0,10,0,15,0c0.6-0.3,1.2-0.7,1.7-0.7c20.2-1.1,37.4-9.5,53.5-21.2c14.8-10.7,28-23.1,40.5-36.3 c2.2-2.3,3.5-2.5,5.8-0.1c6.4,6.8,13.1,13.3,19.8,19.8c2.5,2.4,4.5,5.4,7.7,7c13.1,6.4,26.7,10.1,41.4,8.3 c43.3-5.4,83.5-19.7,120.7-42.2c26.5-16.1,51.2-34.9,74.5-55.4c35.5-31.2,67.9-65.4,99.8-100.2c39.2-42.7,76.4-86.7,102-139.3 c1-2.1,2.7-2.7,4.6-3.5c19.8-8.8,39-18.6,56.9-31c15.3-10.5,27.2-24.5,40.4-37.1c31.2-29.9,53.2-65.5,67.1-106.2 c1.2-3.5,2.9-4.5,6.3-4.6c16.7-0.4,33.4-1,49.8-4.1c25.8-4.8,50.6-12.7,74.7-23.3c24.3-10.7,47.8-23.1,68.8-39.3 c58.9-45.3,108.6-99.1,146.8-163.2c10.8-18.2,21.3-36.5,30.5-55.5c9.2-19,17.9-38.3,25.1-58.2c8.8-24.4,18-48.7,25-73.8 c11.6-41.3,19.4-83.3,26.3-125.6c3.3-20.4,2.3-41.2,3.2-61.9c0.1-1.9-0.7-4,1-5.6C1761,1130,1761,1122,1761,1114z M1726.7,1181.3 c0,21.7-5,43-9,64.4c-1.5,8-2.7,16-4.1,24c-2.5,14.3-6.7,28.3-10.1,42.5c-8.7,36.1-21.4,71-35,105.4 c-13.7,34.6-30.4,67.9-49.9,99.8c-14.4,23.6-30,46.3-47.3,67.8c-16,19.8-33.9,37.6-53.9,53.6c-23.1,18.6-48,34-74.8,46.5 c-28.7,13.4-58.5,23.7-90,28c-12.8,1.8-25.7,2.9-38.7,3c-6.5,0.1-12.9,0.7-19.4,0.9c-1.9,0.1-3.2,0.9-4.4,2 c-6.1,5.2-11.3,10.6-13.8,18.9c-8.6,29-20.5,56.5-37.9,81.5c-7.5,10.8-15.5,21.4-24.6,30.6c-9.9,10-21.9,17.7-34.2,24.8 c-17.5,10.1-35.9,18.1-54.2,26.5c-8.9,4.1-15.4,11.5-18.4,21.2c-0.4,1.3-0.4,2.6-1.6,3.5c-0.5,0.4-1,0.7-1.5,1.1c0,0,0.1,0,0.1,0 c-6,14.3-14.5,27.3-22.3,40.5c-25.3,42.6-59.6,77.9-92.3,114.6c-28.3,31.9-59.7,60.4-93.8,86c-29.5,22-60.6,41.1-95.6,53.1 c-22.3,7.6-45,13.9-68.6,15.2c-12.6,0.7-25.1-3-36.3-9.4c-1.6-0.9-2.2-2.4-2.8-4c-1.9-5.9-2.6-12-2-18.2c0.3-2.9,1.3-5.8,0.7-8.9 c-3.3-3.3-6.7-6.6-10-10c-2.4-2.5-4.6-3.2-7.1-0.2c-0.5,0.6-1.3,0.8-2,1.3c-9,10.7-17.3,22.1-27.2,31.9 c-8.6,8.5-18.6,15.6-28.6,22.4c-15.5,10.5-32.6,16.5-51.4,17.3c-11.4,0.5-22.5-0.7-33.5-4.1c-7.8-2.4-11.1-8.1-13.8-15 c-6.4-16.4-5.4-32.8-1-49.4c8.7-33,15.8-66.4,24.8-99.3c5-18.2,5.2-36.8,3.5-55.5c-1.6-17.6-4.2-35-6.8-52.5 c-0.5-3.2-1.1-6.2-3.2-8.7c-3.2-2.9-6.4-5.8-9.5-8.8c-2.1-2.1-3.8-2.3-6.4-0.5c-16,10.6-32.3,20.5-49.6,28.7 c-19.9,9.4-40.5,17-61.1,24.5c-14.4,5.3-29.3,9.2-43.2,15.5c-11.1,5-21.1,12.3-21.1,26.8c0,2.6-0.8,5.2-1.2,7.9 c-1.2,15.3-6.2,29.5-12,43.6c-4.9,11.7-11.4,22.5-17.8,33.5c-5.2,8.9-13,14.4-21.6,19.3c-22.8,12.8-47.1,16.7-72.8,13.2 c-0.7-0.1-1.3-0.2-2-0.3c-17.5-1.7-18.8-4-23.8-21.4c-3.2-11.3-3.2-22.7,0.2-34c9.6-32,8.1-63.8-1.1-95.5 c-0.8-2.8-0.7-5.6-1.1-8.4c-3.2-3.1-3.1-7.5-4.1-11.3c-5.2-20-13.2-39-20.4-58.3c-7.8-21-15.8-42-23.5-63.1 c-10-27.1-19.7-54.4-28.7-81.9c-11.9-36.5-22.8-73.3-31.5-110.6c-7.7-32.9-15.1-65.9-21.3-99.2c-4.1-22-7.9-44-11-66.1 c-2.4-17.4-4.7-34.8-6.4-52.3c-1.8-18-3.5-35.9-5-53.9c-1.2-14.6-2-29.1-3-43.7c-1.5-20.4-1.2-40.9-2.1-61.3 c-0.6-14.7-1.1-29.3-0.5-43.9c0.6-15.1,0.1-30.3,0.9-45.4c0.7-13.9,0.9-27.9,2-41.8c1.6-21.2,2.5-42.4,4.7-63.5 c1.4-13.5,2-27.1,3.2-40.7c1.8-19.3,4-38.5,5.8-57.8c2.4-25.6,6.5-50.9,10.3-76.3c2.1-14,3.4-28.3,7.9-41.9 c0.6-1.9,1.4-3.7,2.2-5.6c0.7-2,0.5-4.3,2-6.1c12.5,10.3,24.8,20.9,38.5,29.6c0.3-0.2,0.6-0.5,0.9-0.7 c-5.5-8.1-11.1-16.2-16.6-24.3c-17.4-25.8-26.7-55-34.6-84.8c-12.3-46.2-17.2-93.2-16.3-140.8c0.6-30.7,4.8-61.1,13.3-90.7 c5.4-18.7,12.3-36.9,20.2-54.7c7.1-15.9,14-31.9,24.4-46.1c1.1-7.4,6.2-12.7,9.6-18.9c10.6-19.2,22.9-37.4,36.3-54.8 c7-9.1,14.7-17.6,22.3-26.1c11.2-12.5,22.5-24.9,34.1-37c12.1-12.6,25.1-24.2,38.3-35.7c9.8-8.5,19-17.6,28.1-26.9 c1.2-1.2,2.3-2.7,2.2-4.4c-0.4-5.2,2.3-9.3,4.4-13.6c14.3-30.4,28.9-60.7,43.4-91c4.7-9.9,9.3-19.9,14-29.8c0.7-1.5,0.9-3.7,3.3-4 c11.5-28.7,25.6-56.2,39.1-84c1.8-3.5,3.6-7,5.4-10.5c2.4,0.3,2.5,2.3,3.2,3.7c14.5,29.6,29.1,59.2,43.4,88.8 c12.4,25.8,24.6,51.6,36.8,77.5c5.1,10.9,9.9,22.1,14.6,33.2c1.6,3.7,4,5.5,7.9,6.6c17.4,4.9,35.1,8.5,52.7,12.7 c33.3,8,65.9,18.3,97.5,31.4c21.5,8.9,41.7,20.6,61.4,33c26,16.4,51,34.3,75.5,52.8c7,5.3,13.3,11.5,19.8,17.4 c8.9,8,17.6,16.2,26.4,24.3c3.6,3.3,8.1,2.4,12.2,2.9c12.6,1.7,25.2,0.7,37.9,1.2c25.5,1,51.1,0.1,76.6,1.2 c17.6,0.7,35.3,0.2,52.9,0.9c3.7,0.1,7.6-0.1,10.9,2c19.8-2.9,39.5,0,59.3-0.1c4.4,0,3,1.9,1.8,4.2 c-13.2,25.4-26.3,50.8-39.5,76.1c-4.5,8.7-9.1,17.4-14.8,25.4c0.5,1.8-0.4,3.2-1.1,4.7c-9.3,17.3-18.6,34.6-27.8,51.9 c-20.3,38-40.6,76-61,113.9c-4.3,8-6.6,16.7-9.4,25.2c-12,36.1-23.7,72.3-35.5,108.5c-8.7,26.7-17.1,53.5-26.8,79.9 c-4,10.8-10.5,20.4-16.5,30.1c-12.7,20.6-27.3,39.6-44,57.1c-17.2,18.2-36,34.4-57.7,47c-1.2,0.7-2.3,1.4-3.4,2.1 c-4.4,3.1-5.4,6.7-3,10.6c2.1,3.4,6.1,4.3,10.6,2.1c7.9-3.9,15.2-8.9,22.3-14.1c14.4-10.5,27.8-22.1,40.1-35.1 c21.3-22.4,39.7-46.9,54.9-73.8c5-8.8,5.1-9.1,11.4-1.6c14.7,17.4,29.1,34.9,43.7,52.4c13.8,16.6,27.6,33.2,41.5,49.7 c16.6,19.6,33.3,39.2,50.1,58.7c12.8,14.8,25.9,29.4,38.7,44.2c13.4,15.4,26.5,31,39.8,46.6c12.1,14.1,24.3,28.2,36.2,42.4 c15.2,18.2,30.3,36.5,45.1,55.1c15.4,19.4,30.8,38.8,44.1,59.6c18.1,28.2,33.4,57.9,46.5,88.7c10.1,23.6,18.3,47.8,23.7,72.9 c4.6,21.2,9.1,42.3,9.1,64.3c0,11.3,1.1,22.6,0.5,33.9c-0.9,16.4-0.7,32.8-2.7,49.2c-0.2,2-0.1,4-0.1,6c0,5.6,2.6,9,7,9 c4.4,0.1,7.7-3.2,7.9-8.5c0.2-3.8,0.9-7.6,0.9-11.4c0.1-10.3,1-20.6,1.4-30.9c0.5-12.8,1-25.6,0.6-38.4 c-0.2-7.6-0.8-15.2-0.9-22.9c0-2.9,0.6-4.4,3.9-5.2c20.2-4.4,36.8-15.1,52.1-28.8c22.7-20.5,40.8-44.1,53.9-71.6 c4.6-9.7,9.5-19.4,12-30c0.6-2.6,1.2-5.2,2.8-7.4c0.4-0.5,0.4-1.4,1.3-1c-0.2-4.7,1.6-9,2.8-13.3c6.3-24,9-48.4,10.4-73.1 c2.3-40.5-2-80.8-2.6-121.2c-0.5-29.8-0.6-59.7,6.7-88.9c1.1-4.5,2.2-9.2,4.5-13.2c2.4-4.3,1.4-7.1-1.1-10.7 c-19.2-28-38.4-56-57.2-84.3c-14.9-22.5-29-45.5-38.7-70.8c-4.9-12.8-8.6-25.9-9.4-39.7c-0.1-2.3-0.9-4-2.4-5.7 c-5.8-6.7-12.3-12.6-19.8-17.4c-11.7-7.6-23.3-15.5-34-24.5c-6.6-5.6-10.8-12.8-15-20.3c-5.1-9.3-11.5-17.5-23.3-19.9 c-18.7-3.9-37.4-8.5-54-18.8c-2.5-1.6-4.4-3.4-5.8-6c-5.7-10.6-13.1-18.9-25.5-22c-8.8-2.2-12.9-9.8-12.3-19.4 c1-16.6,8-31.1,15.9-45.3c0.5-0.8,1.3-1.5,2-2.2c4.3-10.1,11.9-17.5,20.6-23.7c13.4-9.7,27.4-18.2,42.9-24.1 c14-5.3,28.6-8.3,43.4-10.4c11.7-1.7,23.4-1.7,35.1-3.6c2.4-0.4,4.9,0.6,7.4,0.7c14.6,0.9,29.2,0.9,43.6,3.1 c17,2.6,33.9,6.1,50.5,10.8c28.2,8.1,55.2,19.2,81.1,33c23.9,12.7,46.4,27.8,67.7,44.7c10.8,8.6,21.2,17.6,31.4,26.9 c7.5,6.9,13.7,15.3,20.4,23.1c12.7,15,24,31,34.6,47.5c18.4,28.8,33.4,59.3,44.9,91.6c7.1,19.9,13.2,40.1,17.5,60.7 c4.9,23.5,10.4,46.9,12.1,70.9c1.3,18.6,1.8,37.1,3,55.7C1729.6,1137.2,1726.8,1159.2,1726.7,1181.3z"/><path fill="inherit" d="M1431,1424.9C1431,1424.9,1431,1424.9,1431,1424.9c-0.1,0-0.1,0.1-0.1,0.1L1431,1424.9z"/><path fill="inherit" d="M417.6,634.5c-14-18.5-33.4-29.2-54.4-37.5c-15.7-6.2-31.8-8.1-48.5-5.9c-6.7,0.9-12.7,3-16.2,9.3 c-3,5.4-5.6,10.8-7.2,16.9c-4.5,17.6-4.6,35.3-2,53.1c2.3,15.5,7.1,30.1,17.8,42.1c1.7,2,0.6,3.3-0.2,4.9 c-3.7,7.6-7.5,15.2-11.1,22.9c-0.9,1.8-1.9,2.7-3.9,3.2c-12.4,3.3-24.9,4.5-37.6,2.4c-11.1-1.8-21.1-5.7-24.8-17.7 c-2.8-9-2.7-18,1.3-26.8c1.9-4.3,0.9-7.8-3.2-10.2c-4-2.4-7.3-1.1-10.1,2.3c-1.6,1.9-2.7,4.2-3.7,6.5c-2.7,6.3-1,12.8-0.8,19.1 c0.5,18.4,9.1,31.6,26.6,38.3c4,1.5,6.1,4.1,7.4,7.9c7.9,23.6,31.7,40.7,56.6,40.8c7.9,0,15.6,1.8,22.3,6.1 c13.5,8.6,28.4,11.9,44.6,12c2.4-0.1,5.2-0.2,8-0.5c7.3-0.8,14.4-2.4,20.7-6.5c4-2.6,5-6.2,2.9-9.8c-2.2-3.8-5.5-4.5-9.8-2 c-2.8,1.6-5.5,3.2-8.6,3.9c-18.2,3.7-35.8,2.2-52-7.6c-11.3-6.9-19.4-16.2-23-29.5c-2-7.6-4.1-14.6-0.9-22.3 c3.8-9.2,8.3-18.1,12.9-27c0.8-1.5,1.5-2.8,3.6-2.7c13.7,0.6,26.7-3.2,39.6-7.3c18.1-5.8,35-14,49.5-26.3 c9.3-7.8,15.4-17.5,14.5-30.3C427.4,647.7,422.5,641,417.6,634.5z"/><path fill="inherit" d="M682.9,601.4c-2.8-1.6-5.9-2.2-9.1-2.2c-22,0.3-43.9-1.7-65.9-2.3c-10.6-0.3-21.3-1.3-31.9-1.6 c-8.9-0.2-18-1.6-26.8,1.1c-9,2.8-15.3,10.6-13.9,18.8c1.3,7.8,3.7,15.1,10.2,21c27.5,24.5,54.5,49.5,81.8,74.2 c1.8,1.7,3.9,3.2,6.1,4.3c5.7,2.9,12.3,1.8,16.5-2.5c4.6-4.7,5.6-11,2.4-16.9c-2-3.8-4.6-7.3-7.7-10.4 c-18.2-17.8-36.4-35.7-54-54.2c-0.8-0.9-2.4-1.5-1.7-3.2c0.5-0.1,1-0.2,1.5-0.2c28.3,0.6,56.6,1.1,84.9,1.7 c3.4,0.1,6.6-0.3,9.5-2.3c1.3-2.1,2.8-4.1,3.7-6.3c2.3-6,1.3-11.4-3.5-15.9C684.2,603.7,683.1,602.8,682.9,601.4z"/><path fill="inherit" d="M276.7,539.3c8.3,0.2,15.2-3.6,21.2-8.9c19.5-17.1,30.9-38.9,36.4-63.9c2.3-10.5,0.3-20.2-8-27.9 c-7.5-6.9-10.3-15.7-10.4-25.6c0-1.9,1.5-4.6-1.7-5.5c-3-0.9-5.2,0.7-6.7,3.1c-3,4.8-5.4,10.3-4.2,15.6c1.6,7.5-1.9,10.4-7.5,14.2 c-16.6,11.3-28.4,26.9-38,44.3c-4.4,8.1-7.6,16.6-7.8,24.5C249.9,526.5,261.5,539,276.7,539.3z"/><path fill="inherit" d="M112,924C112,924.1,111.9,924.1,112,924c0,0.1,0.1,0,0.1,0C112.1,924,112.1,924,112,924 c0.8-0.6,0.1-1.1-0.2-1.5c-0.3,0.2-0.6,0.5-0.9,0.7C111.2,923.4,111.6,923.7,112,924L112,924z"/><path fill="inherit" d="M112.6,923.9c-0.2,0-0.4,0.1-0.5,0.2c0.2,0.2,0.3,0.3,0.5,0.5C112.6,924.3,112.6,924.1,112.6,923.9z"/></g></g></svg>