<?xml version="1.0" encoding="UTF-8" standalone="no"?><svg xmlns="http://www.w3.org/2000/svg" xmlns:xlink="http://www.w3.org/1999/xlink" contentScriptType="text/ecmascript" fill="#000000" width="456.7" zoomAndPan="magnify" contentStyleType="text/css" viewBox="-0.5 -1.9 456.7 493.2" height="493.2" preserveAspectRatio="xMidYMid meet" version="1"><g id="change1_1"><path fill="#cdc2fe" d="M182.1,275.9c-40.9,28.7-79.6,56.3-118.9,83.3c-13.1,9-26.9,17.5-41.5,23.7C6.3,389.5-0.5,383.2,0,366.3 c0-0.5,0.1-0.9,0.1-1.4c2.5-44.3,2.6-44.2,40.8-67c39-23.3,77.6-47,116.7-70c7.8-4.6,9.3-9,6.5-17.6 c-16.8-52.3-33.2-104.7-49.4-157.2c-3.1-10-4.7-20.4-6-30.8c-1.4-11.8,4.2-19.1,16-21.7c11.3-2.5,17.9,3.9,21.5,12.8 c10.8,27.2,21.3,54.6,30.9,82.3c11.1,32,21,64.4,32,98.3c10.3-7,19.6-13.5,29-19.8C300.2,132.3,362,90.4,424.1,48.9 c15.4-10.3,23.4-7.4,24.4,11c1.8,34.1,7.7,38.6-25,60.1c-61.3,40.3-123.2,79.5-185.3,118.5c-9.9,6.2-10.6,11.3-7.5,21.8 c19.8,66.2,38.8,132.7,57.5,199.2c4.8,17.2-0.3,22.3-25,28.8c-11.4,3-18.9-1.6-23.2-15.8c-18.2-61-36-122.1-53.9-183.1 C184.9,285.5,183.8,281.5,182.1,275.9z"/></g></svg>