<?xml version="1.0" encoding="UTF-8" standalone="no"?><svg xmlns="http://www.w3.org/2000/svg" xmlns:xlink="http://www.w3.org/1999/xlink" contentScriptType="text/ecmascript" fill="#000000" width="317.6" zoomAndPan="magnify" contentStyleType="text/css" viewBox="0.0 -3.4 317.6 503.5" height="503.5" preserveAspectRatio="xMidYMid meet" version="1"><defs><clipPath id="a"><path d="M 18 95 L 317 95 L 317 500.121094 L 18 500.121094 Z M 18 95"/></clipPath><clipPath id="b"><path d="M 23 56 L 317.550781 56 L 317.550781 367 L 23 367 Z M 23 56"/></clipPath></defs><g><g id="change1_2"><path fill="#293241" d="M 171.199219 141.320312 C 165.398438 141.71875 159.601562 142.121094 153.699219 142.421875 M 153.699219 142.421875 C 130.398438 143.921875 107.199219 145.519531 84 147.121094 C 66.398438 140.71875 54.398438 124.320312 53.800781 105.921875 C 53 88.621094 62.300781 72.421875 77.699219 64.019531 C 67.699219 48.421875 69.300781 29.519531 79.898438 19.019531 C 89.398438 9.621094 102.898438 10.421875 105.5 10.621094 C 120.800781 -1.480469 141.300781 -3.378906 156.699219 5.621094 C 175.800781 16.820312 184 43.121094 173.300781 66.019531 C 174.101562 72.320312 174.800781 78.621094 175.601562 85.019531 C 177.898438 86.921875 186.601562 94.71875 188.101562 107.519531 C 189.601562 120.519531 183 133.621094 171.199219 141.320312"/></g><g id="change2_1" clip-path="url(#a)"><path fill="#e8c8bb" d="M 202.898438 258.71875 C 204.5 253.019531 206.398438 247.21875 208.5 241.21875 M 202.898438 258.71875 C 190.898438 300.617188 191.5 333.421875 194.898438 356.921875 C 197.601562 375.820312 202.199219 388.421875 207.601562 421.617188 C 213 454.421875 215 481.71875 215.898438 500.117188 C 155.101562 499.71875 94.199219 499.21875 33.398438 498.820312 C 33.398438 457.617188 40.5 426.71875 47.300781 405.71875 C 52.898438 388.519531 59.5 373.921875 67.199219 345.617188 C 73.101562 324.019531 76.398438 305.820312 78.398438 293.617188 C 68 329.921875 48.800781 353.820312 31 353.019531 C 27.699219 352.921875 23.699219 351.820312 19.199219 348.820312 C 18.898438 342.519531 18.898438 335.617188 19.300781 328.320312 C 19.699219 319.117188 20.699219 310.617188 21.898438 303.019531 C 24.300781 273.421875 26.699219 243.820312 29 214.21875 C 30.800781 208.320312 33.898438 198.019531 36.199219 190.621094 C 42 171.621094 42.5 169.71875 44.699219 166.71875 C 50 159.320312 58.300781 155.820312 74.800781 148.921875 C 82 145.921875 91.898438 142.121094 104 138.621094 L 162.398438 138.320312 C 167.5 139.019531 172.5 139.71875 177.601562 140.421875 C 188.898438 154.71875 204 171.121094 224 186.820312 C 233.898438 194.621094 243.601562 201.21875 252.699219 206.621094 L 253.898438 104.421875 C 262.5 101.320312 271.101562 98.320312 279.699219 95.21875 C 284.5 96.019531 291.101562 97.71875 298.398438 101.519531 C 307.5 106.21875 313.5 112.21875 317 116.320312 C 316.601562 139.421875 313.601562 169.21875 304 202.71875 C 297.601562 225.019531 289.601562 244.019531 281.800781 259.71875 C 274.5 260.71875 265.101562 261.320312 254.398438 259.820312 C 232.601562 256.820312 216.898438 247.21875 208.5 241.21875"/></g><g id="change3_1"><path fill="#ee6c4d" d="M 42.101562 233.820312 C 38.101562 225.320312 31.800781 214.320312 22.199219 203.019531 C 14.5 194.019531 6.601562 187.21875 0 182.320312 C 0.800781 211.921875 1.699219 241.421875 2.5 271.019531 C 7.5 274.421875 12.5 277.921875 17.699219 281.820312 C 26.101562 288.117188 33.898438 294.320312 41 300.519531 C 52.398438 297.519531 66.300781 294.71875 82.300781 293.519531 C 99 292.21875 113.800781 292.921875 125.800781 294.21875 C 128.101562 269.617188 130.398438 245.019531 132.699219 220.421875 C 124.398438 218.019531 113.300781 215.921875 100.300781 216.121094 C 72.800781 216.519531 52.101562 227.519531 42.101562 233.820312 Z M 158.300781 160.019531 L 162.398438 168.621094 L 151.199219 197.71875 L 110.5 175.121094 L 110.300781 165.421875 L 101.5 171.820312 C 98.898438 161.820312 96.199219 151.820312 93.601562 141.71875 C 98.699219 138.921875 103.800781 136.21875 108.898438 133.421875 L 149.5 133.421875 L 162.398438 138.320312 L 163.800781 160.019531 L 158.300781 160.019531"/></g><g id="change4_1"><path fill="#ffeae0" d="M 25.199219 271.519531 C 15.601562 285.71875 21.300781 301.421875 21.898438 302.820312 C 23.699219 306.921875 25.601562 311.019531 27.398438 315.117188 L 40.398438 317.320312 C 39.101562 304.71875 41.601562 296.019531 44.300781 290.421875 C 47.601562 283.21875 52.101562 278.921875 52.300781 271.019531 C 52.398438 265.117188 50.101562 260.320312 48.199219 257.117188 C 46 257.519531 33.199219 259.617188 25.199219 271.519531 Z M 278.300781 68.019531 C 276.800781 66.121094 273.199219 62.421875 266.300781 60.320312 C 267 54.019531 267.300781 43.019531 261.601562 32.019531 C 261.398438 31.71875 261.300781 31.421875 261.101562 31.121094 C 260.199219 29.519531 257.800781 30.121094 257.800781 31.921875 L 257.601562 60.320312 L 252.800781 61.519531 C 248.699219 62.621094 245.5 66.019531 244.898438 70.21875 C 244.601562 72.320312 244.398438 74.71875 244.5 77.21875 C 244.699219 90.71875 251.101562 100.421875 254.101562 104.421875 C 261.199219 104.820312 268.300781 105.21875 275.398438 105.621094 C 284.601562 92.519531 285.5 77.21875 278.300781 68.019531 Z M 178.601562 79.519531 C 176.5 84.621094 170.5 87.820312 163.601562 87.421875 C 161.898438 91.621094 157.601562 100.71875 148 107.71875 C 147.699219 111.421875 147.601562 115.621094 147.898438 120.121094 C 148.398438 129.320312 150.101562 137.21875 151.898438 143.421875 C 149.5 156.820312 147 170.21875 144.601562 183.621094 C 140 177.421875 134.398438 170.71875 127.601562 163.820312 C 120.5 156.519531 113.5 150.519531 107.199219 145.621094 L 113.199219 111.921875 C 111.300781 110.421875 109.601562 108.820312 107.800781 107.121094 C 100.800781 100.320312 97.398438 92.921875 95.699219 88.519531 C 93.898438 88.820312 90.5 89.21875 87.699219 87.320312 C 81.101562 82.820312 82.199219 68.320312 87.898438 65.621094 C 89 65.121094 91 64.621094 94.300781 66.121094 L 97.101562 73.019531 C 98.5 68.921875 100 64.921875 101.398438 60.820312 C 104.300781 58.519531 108.699219 54.421875 111.898438 47.820312 C 117.5 36.519531 115.601562 25.820312 114.800781 22.21875 C 116.398438 26.921875 129.101562 62.921875 157.199219 67.820312 C 160.398438 68.421875 164 68.621094 168.101562 68.121094 C 168.699219 67.71875 172.601562 65.019531 175.800781 66.519531 C 180 68.21875 180.398438 75.21875 178.601562 79.519531"/></g><g id="change1_1" clip-path="url(#b)"><path fill="#293241" d="M 163.699219 349.21875 C 163.699219 349.21875 163.601562 349.21875 163.699219 349.21875 C 163.5 349.71875 163.699219 349.21875 163.699219 349.21875 Z M 163.398438 349.21875 C 163.199219 349.21875 163.300781 349.421875 163.398438 349.21875 Z M 166.800781 347.320312 C 167.101562 348.71875 166.398438 350.820312 165.199219 351.71875 C 163.898438 352.820312 162 352.320312 161 351.019531 C 160 349.617188 160.300781 347.617188 161.199219 346.320312 C 161.601562 345.71875 162.398438 345.320312 163.101562 345.519531 C 164.601562 344.71875 166.398438 345.71875 166.800781 347.320312 Z M 162.199219 298.820312 C 162.199219 298.820312 162.101562 298.820312 162.199219 298.820312 C 162.101562 298.820312 162.101562 298.820312 162.199219 298.820312 Z M 159.800781 300.820312 C 158.800781 299.71875 158.699219 298.320312 159.101562 296.921875 C 159.300781 296.21875 159.601562 295.320312 160.300781 294.921875 C 160.898438 294.519531 161.800781 294.320312 162.601562 294.519531 C 163.5 294.71875 164.5 295.519531 164.699219 296.421875 C 165 297.019531 165 297.71875 165 298.320312 C 164.898438 299.421875 164.398438 300.71875 163.398438 301.320312 C 162.101562 302.019531 160.699219 301.71875 159.800781 300.820312 Z M 168.601562 239.921875 C 168.699219 239.820312 168.699219 239.71875 168.800781 239.621094 L 168.699219 239.621094 C 168.601562 239.71875 168.601562 239.820312 168.601562 239.921875 Z M 171.398438 238.019531 C 172 239.621094 171 242.421875 169.5 243.320312 C 167.398438 244.621094 165.398438 242.421875 165.300781 240.320312 C 165.300781 238.621094 166.300781 235.820312 168.5 236.320312 C 169.699219 236.121094 170.898438 236.71875 171.398438 238.019531 Z M 153.5 67.921875 C 149.800781 67.519531 142.199219 66.519531 140.101562 70.820312 C 139.699219 71.621094 140.800781 72.621094 141.398438 71.820312 C 142.199219 70.921875 143.101562 70.621094 144 70.621094 C 143.398438 71.21875 143 72.121094 143 73.019531 C 143 74.921875 144.5 76.421875 146.398438 76.421875 C 148.300781 76.421875 149.800781 74.921875 149.800781 73.019531 C 149.800781 72.320312 149.601562 71.71875 149.199219 71.121094 C 150.601562 71.21875 152 71.320312 153.398438 71.320312 C 155.800781 71.421875 155.699219 68.21875 153.5 67.921875 Z M 108.800781 69.21875 C 106.699219 69.820312 107.601562 72.71875 109.699219 72.421875 C 111 72.21875 112.898438 71.519531 114.800781 70.921875 C 114.300781 71.519531 114 72.320312 114 73.121094 C 114 75.019531 115.5 76.519531 117.398438 76.519531 C 119.300781 76.519531 120.800781 75.019531 120.800781 73.121094 C 120.800781 71.71875 119.898438 70.519531 118.699219 70.019531 C 120.601562 69.820312 122.300781 70.019531 123.300781 71.519531 C 123.601562 71.921875 124.199219 71.519531 124 71.121094 C 121 66.21875 113.300781 67.820312 108.800781 69.21875 Z M 139.199219 60.320312 C 145 59.121094 150.898438 62.921875 156.5 61.421875 C 157.699219 61.121094 158 59.320312 156.898438 58.71875 C 151.699219 56.121094 144 56.019531 138.601562 57.921875 C 137.101562 58.519531 137.699219 60.621094 139.199219 60.320312 Z M 104.800781 63.519531 C 107.601562 62.71875 110.101562 61.21875 112.898438 60.621094 C 116 59.921875 119.199219 59.921875 122.300781 60.320312 C 123.699219 60.519531 123.898438 58.320312 122.601562 57.921875 C 116.601562 56.421875 108.101562 56.519531 103.300781 61.019531 C 102.398438 62.019531 103.398438 63.921875 104.800781 63.519531 Z M 172.199219 68.421875 C 170.898438 68.421875 170.601562 70.519531 171.898438 70.71875 C 172.699219 70.820312 173.300781 71.21875 173.601562 72.019531 C 173.898438 72.921875 173.398438 73.71875 173.800781 74.621094 C 174 75.019531 174.601562 75.21875 175 75.121094 C 176.898438 74.71875 176.699219 72.019531 176 70.71875 C 175.300781 69.21875 173.699219 68.421875 172.199219 68.421875 Z M 88.699219 76.21875 C 89.101562 75.320312 88.898438 74.621094 89.101562 73.71875 C 89.199219 73.421875 89.300781 73.019531 89.398438 72.71875 C 89.5 72.519531 89.699219 72.320312 89.800781 72.121094 C 89.898438 71.820312 90.101562 72.019531 89.800781 71.820312 C 90.800781 72.519531 92 70.921875 91.101562 70.121094 C 88.300781 67.519531 84.601562 74.21875 86.699219 76.519531 C 87.199219 77.019531 88.300781 76.921875 88.699219 76.21875 Z M 117.800781 94.320312 C 121.398438 103.71875 134.800781 101.621094 140.601562 96.019531 C 141.601562 95.121094 140.199219 93.71875 139.199219 94.621094 C 135.898438 97.421875 131.601562 98.519531 127.398438 97.320312 C 124.398438 96.421875 122.5 94.320312 119.898438 92.71875 C 118.800781 92.121094 117.300781 93.121094 117.800781 94.320312 Z M 131.699219 86.320312 C 130.898438 86.820312 131.398438 88.121094 132.300781 87.820312 C 135.199219 86.820312 137.101562 84.320312 136.800781 81.21875 C 136.601562 79.019531 135.199219 77.121094 134.898438 74.820312 C 134.5 72.320312 135.101562 69.820312 134.699219 67.320312 C 134.398438 65.820312 132.300781 66.121094 131.898438 67.320312 C 131 69.820312 131.199219 72.820312 131.898438 75.421875 C 132.898438 79.421875 136.800781 83.421875 131.699219 86.320312 Z M 89.101562 244.820312 C 86.101562 245.019531 82.5 244.820312 79.601562 246.019531 C 78.699219 246.421875 78.398438 248.019531 79.601562 248.21875 C 82.601562 248.820312 86 248.019531 89.101562 247.71875 C 90.898438 247.519531 91 244.71875 89.101562 244.820312 Z M 108.898438 231.21875 C 91.898438 231.519531 75 234.019531 58.898438 239.71875 C 56.601562 240.519531 57.601562 244.121094 59.898438 243.320312 C 75.800781 237.820312 92 234.121094 108.898438 233.21875 C 110.199219 233.21875 110.300781 231.21875 108.898438 231.21875 Z M 40.601562 253.320312 C 43.300781 248.320312 43.5 241.320312 43.898438 235.71875 C 44 234.019531 41.398438 234.019531 41.199219 235.71875 C 40.601562 241.421875 38.398438 247.019531 38.101562 252.617188 C 38 254.019531 40 254.519531 40.601562 253.320312 Z M 76.5 213.71875 C 79.398438 207.820312 80 200.519531 80.800781 194.019531 C 81 192.519531 78.398438 192.121094 78.101562 193.621094 C 77.101562 200.019531 74.898438 206.21875 74 212.621094 C 73.800781 214.019531 75.800781 215.21875 76.5 213.71875 Z M 316.5 114.621094 C 295.800781 112.421875 275.800781 107.519531 256.101562 100.71875 C 253.800781 99.921875 252.800781 103.621094 255.101562 104.421875 C 274.898438 111.320312 295.601562 115.121094 316.5 116.820312 C 317.898438 116.921875 317.898438 114.820312 316.5 114.621094 Z M 49.898438 298.921875 C 47.101562 302.519531 45.5 306.921875 42.398438 310.320312 C 37.898438 315.21875 31.800781 317.21875 25.398438 315.21875 C 23.699219 314.71875 23.101562 317.21875 24.699219 317.820312 C 37.398438 322.921875 49.101562 312.320312 52.601562 300.519531 C 53 299.019531 50.898438 297.617188 49.898438 298.921875 Z M 151.398438 197.121094 C 150.601562 196.019531 148.699219 197.019531 149.5 198.21875 C 165.898438 222.820312 154.898438 252.421875 149.398438 278.519531 C 143.5 307.019531 148.300781 335.617188 147.300781 364.320312 C 147.199219 366.820312 151 366.71875 151.101562 364.320312 C 151.699219 349.019531 150.398438 333.71875 150 318.421875 C 149.601562 302.019531 151.300781 286.320312 155 270.320312 C 160.601562 246.320312 167.300781 218.71875 151.398438 197.121094 Z M 198.101562 198.820312 C 205.199219 212.019531 208.199219 225.921875 206.199219 240.921875 C 204.300781 254.71875 198.800781 267.320312 195.101562 280.617188 C 194.601562 282.320312 197.199219 283.421875 198 281.820312 C 204.5 268.617188 209.199219 253.617188 210.5 238.921875 C 211.898438 224.019531 208.101562 210.21875 200.5 197.519531 C 199.5 195.921875 197.300781 197.21875 198.101562 198.820312 Z M 113.398438 113.320312 C 112.699219 112.71875 113.601562 111.621094 114.398438 112.121094 C 128 119.820312 142.199219 112.519531 152.601562 103.121094 C 154.101562 101.71875 156.199219 103.820312 154.800781 105.320312 C 145.101562 115.921875 126.101562 123.621094 113.398438 113.320312"/></g></g></svg>