<?xml version="1.0" encoding="UTF-8" standalone="no"?><svg xmlns="http://www.w3.org/2000/svg" xmlns:xlink="http://www.w3.org/1999/xlink" contentScriptType="text/ecmascript" fill="#000000" width="441" zoomAndPan="magnify" contentStyleType="text/css" viewBox="-0.0 -0.5 441.0 542.4" height="542.4" preserveAspectRatio="xMidYMid meet" version="1"><g id="change1_1"><path fill="#f7b2bd" d="M441,226c-10.1,4.3-19.8,9.6-30.2,12.8c-46.9,14.2-93.9,27.7-143.8,42.3c6.6,9.5,11.1,18.9,18.2,25.8 c35.4,34.5,71.5,68.2,106.9,102.7c3.5,3.4,4.2,9.7,6.2,14.6c-5.1,0.3-11.2,2.5-15.2,0.5c-40.7-20.2-81-41.2-121.5-61.8 c-7.6-3.9-15.5-7.2-25.7-11.8c-1.9,14.6-4.3,27.7-5.3,41c-3.2,42.1-5.8,84.3-8.7,126.5c-0.6,8.1,0.3,18.6-9.3,20.9 c-9.9,2.4-11.9-8.6-15.1-15.1c-14.9-30.7-19.8-64.1-25.3-97.3c-5.2-31.1-10-62.2-15.1-93.3c-0.4-2.4-1.3-4.7-2.5-8.6 c-17.1,6.2-33.6,12.6-50.4,18.3c-28.1,9.6-56.3,18.8-84.5,28.1c-7,2.3-14.1,2.8-19.7-3.5c0-2.2,0-4.3,0-6.5 c12.7-11.9,24.3-25.3,38.3-35.3c26.2-18.7,53.8-35.4,80.9-52.9c5-3.3,10-6.7,17.7-11.8c-13.3-13.5-25.1-26.1-37.7-38 c-7-6.6-15.7-11.5-22.6-18.1c-3-2.9-3.6-8.5-5.2-12.9c4.4-1.4,9.7-5,13.2-3.8c17.1,6.2,33.9,13.4,50.5,20.8 c14.3,6.4,28.2,13.6,40.1,19.3c15.5-72.4,30.9-144,46.3-215.7c0.5-2.4,0.8-5.2,2.2-7.1c1.9-2.6,5.3-6.6,7-6.2 c3.1,0.9,6.1,4.2,7.8,7.2c1.2,2.2,0.5,5.6,0.4,8.5c-0.7,65.9-2,131.8-2,197.8c0,26.3-3.7,24.4,24.8,22.8c21.7-1.2,43.1-6.5,64.8-8.8 c34.2-3.7,68.4-6.7,102.7-9.3c3.8-0.3,7.9,3.7,11.8,5.7C441,224.6,441,225.3,441,226z"/></g></svg>