<?xml version="1.0" encoding="UTF-8" standalone="no"?><svg xmlns="http://www.w3.org/2000/svg" xmlns:xlink="http://www.w3.org/1999/xlink" contentScriptType="text/ecmascript" fill="#000000" width="757.4" zoomAndPan="magnify" contentStyleType="text/css" viewBox="-5.4 0.0 757.4 733.6" height="733.6" preserveAspectRatio="xMidYMid meet" version="1"><g id="change1_1"><path fill="#f7b2bd" d="M491.6,0c29.8,3.8,59.8,7,89.5,11.6c51.9,8.1,90.4,36.5,115.5,83.7c49.7,93.5,55.4,191.6,26.6,292.3 c-46.2,161.2-147.6,271.9-305,315.1c-112.8,30.9-226.8,16.8-324.8-57.4c-61.4-46.5-98.8-110-92.8-191.5 c2.7-36.6,9.2-74.7,22.5-108.5c28.5-71.9,45-137.9,100.1-192.7c55.2-54.8,123.2-88.2,191.6-120.8c33.4-16,91.5-26.6,128.6-29.3 C459.3,1.4,475.6,0.1,491.6,0C491.6,0,491.5,0.7,491.6,0z"/></g></svg>