<?xml version="1.0" encoding="UTF-8" standalone="no"?><svg xmlns="http://www.w3.org/2000/svg" xmlns:xlink="http://www.w3.org/1999/xlink" contentScriptType="text/ecmascript" fill="#000000" width="470.7" zoomAndPan="magnify" contentStyleType="text/css" viewBox="-2.4 -0.4 470.7 242.2" height="242.2" preserveAspectRatio="xMidYMid meet" version="1"><g><g id="change1_9"><path fill="#f9705a" d="M306.8604,165.0308l4.4307-3.3257c0,0,3.4609,5.0605,9.1602,8.334 c5.6982,3.2729,9.4004,9.7026,3.0674,9.8003c-6.332,0.0972-9.3525-3.5073-9.3525-3.5073L306.8604,165.0308z"/></g><g id="change2_10"><path fill="#0e67a3" d="M271.5039,103.6265c0,0,7.5566-1.7979,12.4639,4.0269c7.6689,9.1006,11.4307,34.9512,11.4307,34.9512 L271.5039,103.6265z"/></g><g id="change2_12"><path fill="#0e67a3" d="M297.7803,155.834c-0.8662-11.9575-8.6943-35.0459-11.9951-44.3486 c-0.4326,0.145-0.918,0.2275-1.4561,0.2275c-3.5957,0-4.8691-3.5923-3.8271-6.1465l-2.3691-1.167 c-11.3525,0.0703-19.6113,2.124-19.6113,2.124s26.1055,75.0342,27.9307,74.8799 C288.2764,181.249,298.8828,171.0308,297.7803,155.834z"/></g><g id="change2_2"><path fill="#0e67a3" d="M14.7314,223.1143c0,0-6.2676,10.4609-9.6396,9.1094c-3.373-1.3481,5.7314-24.0215,8.7783-29.5913 l6.1641,3.7769L14.7314,223.1143z"/></g><g id="change2_8"><path fill="#0e67a3" d="M16.6504,215.0815c0,0-13.5547,7.0854-16.3262,4.7368c-2.7725-2.3462,13.0381-20.9746,17.6895-25.2949 l4.6543,5.5337L16.6504,215.0815z"/></g><g id="change3_8"><path fill="#fff5de" d="M140.6367,178.7949l-36.6055,53.7358c0,0,57.5234,9.2749,84.5713,5.8096 c0,0,25.9658-53.4136,28.4902-66.5771l-66.8994-7.3931L140.6367,178.7949z"/></g><g id="change4_7"><path fill="#efa54f" d="M131.8525,134.2153l26.3672,45.9863c0,0,7.3037-5.9126,9.6865-4.1812c0,0,0.5918,0.854-0.6563,2.6367 c-1.1455,1.6357-1.6191,2.3477-1.6191,2.3477s5.8486-5.0923,6.9326-3.3604c1.085,1.7349-3.5742,5.5278-3.5742,5.5278 s4.9844-3.6851,6.0674-2.1675s-5.0938,5.8516-5.0938,5.8516s5.5283-1.627,6.2861,0c0.7568,1.6235-9.4268,4.1147-9.4268,4.1147 s3.6846,1.085,3.9004,2.6025c0.2158,1.5142-15.7061,0.8745-19.0254,0.4116c-8.1152-1.1309-36.1963-53.7104-36.1963-53.7104 L131.8525,134.2153z"/></g><g id="change2_5"><path fill="#0e67a3" d="M76.3652,58.6299c0,0-12.8066,8.6274-9.917,12.647c2.8877,4.0195,4.9688,2.0151,4.9688,2.0151 s-4.2061,7.8677,0.792,9.6548c0,0-2.6523,5.6582,3.3857,5.459c6.0361-0.1978,13.4365-7.1396,13.4365-7.1396L76.3652,58.6299z"/></g><g id="change4_10"><path fill="#efa54f" d="M224.1455,151.9033l-5.4219,16.2661c0,0-10.8633,5.6924-9.2627,7.8765 c1.6045,2.1846,6.8193-0.2261,6.8193-0.2261s-4.2764,8.876-1.9902,9.9727c2.2842,1.0967,5.0723-5.1592,5.0723-5.1592 s-1.4268,7.4634,0.7803,7.2744c2.207-0.187,3.3994-5.9321,3.3994-5.9321s0.7236,4.6216,1.9775,4.9063 c1.2539,0.2832,1.8887-5.3242,1.8887-5.3242s1.5029,2.5601,2.8301,1.5386c1.3271-1.0205,1.0107-9.5337,1.0107-9.5337 l6.8613-20.5313L224.1455,151.9033z"/></g><g id="change5_16"><path fill="#3f3f3c" d="M210.1045,35.6138c0,0,1.0195-7.1729-3.8984-8.5107c-4.918-1.3394-8.3428,1.9717-8.3428,1.9717 s-2.4463-3.9551-6.8135-3.3315c-4.3682,0.623-5.5908,8.1089-5.5908,8.1089s-3.5918-2.5601-7.4629-1.0308 c-3.8711,1.5298-5.0859,9.8843,0.6094,13.0601c0,0-6.7949,3.7153-4.582,11.6582c2.2119,7.9414,9.5,5.9038,9.5,5.9038 s-4.9297,3.9746-1.9639,8.542c2.9639,4.5679,8.9932,2.5049,8.9932,2.5049s-1.6025,6.7441,4.7354,9.6504 c6.3389,2.9048,14.1162-5.4678,13.7354-5.4229C208.6436,78.7642,210.1045,35.6138,210.1045,35.6138z"/></g><g id="change5_1"><path fill="#3f3f3c" d="M274.8672,14.1357c0,0-2.6953-6.7246,1.7637-9.1934c4.459-2.4692,8.5732-0.0693,8.5732-0.0693 s1.4365-4.4219,5.8262-4.8535c4.3906-0.4331,7.3564,6.5479,7.3564,6.5479s2.8809-3.3403,7.0049-2.7759 c4.125,0.5664,7.2881,8.3926,2.5127,12.8311c0,0,7.4824,1.9956,7.2207,10.2349c-0.2617,8.2412-7.8242,7.9937-7.8242,7.9937 s5.7324,2.689,3.9365,7.8306c-1.793,5.1416-8.1406,4.5693-8.1406,4.5693s3.1592,6.1719-2.3066,10.5 c-5.4648,4.3276-15.0107-1.9565-14.6299-2.0029C286.542,55.7012,274.8672,14.1357,274.8672,14.1357z"/></g><g id="change4_14"><path fill="#efa54f" d="M202.3877,66.8262c7.4121,24.5684,23.7236,39.8682,58.6553,30.835 c27.7305-7.1699,39.2227-33.563,31.8086-58.1313c-7.4121-24.5669-33.6719-38.3716-58.6543-30.835 C209.2168,16.2334,194.9746,42.2593,202.3877,66.8262z"/></g><g id="change4_4"><path fill="#efa54f" d="M290.3594,47.6445c0,0,7.8701-4.7905,10.916,0.1245c3.0439,4.9136-2.0244,10.0103-9.3359,10.0972 L290.3594,47.6445z"/></g><g id="change4_5"><path fill="#efa54f" d="M210.0068,78.5845c0,0-8.7129,3.0034-6.8701,8.4834c1.8408,5.48,9,4.8286,13.7295-0.7476L210.0068,78.5845 z"/></g><g id="change5_3"><path fill="#3f3f3c" d="M246.293,64.8652c-0.6055-0.1108-1.1836-0.2666-1.7588-0.4678c-0.5752-0.1899-1.1367-0.4448-1.6924-0.7324 c-0.2734-0.1616-0.5547-0.2979-0.8164-0.4985c-0.2695-0.1768-0.5293-0.3853-0.7842-0.6157 c-0.2568-0.2173-0.4941-0.502-0.7158-0.7896c-0.207-0.3208-0.4131-0.6411-0.5352-1.0488 c-0.0762-0.1904-0.1328-0.3896-0.1465-0.6079c-0.0195-0.2114-0.0596-0.4302-0.042-0.6387 c0.0273-0.2095,0.0596-0.4194,0.1006-0.626l0.0303-0.1558l0.0039-0.0195l0.002-0.0088l0.0361-0.1021l0.0098-0.0254l0.0195-0.0508 l0.0781-0.2012c0.0332-0.0762,0.0391-0.1167,0.0928-0.2202l0.1797-0.3145c0.0615-0.1001,0.1279-0.208,0.1953-0.2993l0.2031-0.2354 c0.1348-0.1621,0.2852-0.2998,0.4453-0.4209c0.1553-0.1348,0.3223-0.2397,0.4912-0.3325 c0.3359-0.2007,0.6836-0.3374,1.0244-0.4419c0.3428-0.1113,0.6816-0.1787,1.0186-0.2266c0.3359-0.0537,0.6699-0.063,1-0.0659 c0.3398,0.0015,0.6367,0.0151,1.0215,0.063l-1.1074,1.5059c-0.2031-0.4854-0.3848-0.9785-0.5732-1.4697 c-0.1924-0.4883-0.3701-0.9844-0.5459-1.48c-0.3545-0.9917-0.6885-1.9927-0.9736-3.0156c-0.082-0.2969,0.0918-0.6055,0.3896-0.688 c0.2412-0.0674,0.4902,0.0361,0.6191,0.2368c0.5732,0.8945,1.0947,1.811,1.5967,2.7368c0.251,0.4629,0.502,0.9258,0.7383,1.395 c0.2393,0.4688,0.4854,0.9331,0.7119,1.4082c0.25,0.5273,0.0254,1.1577-0.502,1.4082c-0.1602,0.0762-0.3301,0.1079-0.4941,0.1016 L245.5,57.917c-0.1885-0.0088-0.4697-0.0088-0.707,0.0093c-0.2451,0.0146-0.4883,0.0508-0.7217,0.0864 c-0.2334,0.0405-0.4609,0.0918-0.665,0.1636c-0.207,0.0674-0.4004,0.1514-0.5547,0.2529 c-0.085,0.0464-0.1602,0.0991-0.2217,0.1558c-0.0732,0.0498-0.1377,0.1035-0.1855,0.1665l-0.0869,0.0869 c-0.0166,0.0239-0.0225,0.0435-0.0391,0.0615c-0.0146,0.0195-0.0313,0.0356-0.0518,0.0522 c-0.0215,0.0195-0.0527,0.1201-0.0801,0.1768l-0.082,0.1992l-0.0205,0.0493l-0.0107,0.0259l-0.002,0.0029 c0.0146-0.042-0.0342,0.0972,0.0332-0.0928l-0.002,0.0044v0.0073l-0.0059,0.0571c-0.0107,0.0762-0.0264,0.1514-0.0479,0.2261 c-0.0137,0.0762,0.0107,0.147,0.0029,0.2217c-0.0137,0.0747,0.0049,0.1528,0.0361,0.2324 c0.0215,0.1587,0.123,0.3276,0.2109,0.5029c0.125,0.1694,0.2314,0.3584,0.3975,0.5308c0.1553,0.1782,0.3252,0.3521,0.5225,0.5151 c0.1816,0.1724,0.4014,0.3252,0.6006,0.4927c0.8555,0.6235,1.8311,1.1958,2.8154,1.7109l0.0166,0.0088 c0.2725,0.1426,0.377,0.478,0.2354,0.751C246.7705,64.7964,246.5264,64.9072,246.293,64.8652z"/></g><g id="change1_12"><ellipse rx="11.369" ry="9.993" fill="#f9705a" cx="272.82" transform="scale(-1) rotate(-14.614 -442.628 2127.683)" cy="56.761"/></g><g id="change1_7"><ellipse rx="9.986" ry="8.774" fill="#f9705a" cx="221.504" transform="scale(-1) rotate(-9.649 -855.628 2624.567)" cy="72.217"/></g><g id="change5_4"><path fill="#3f3f3c" d="M217.8896,59.0303c0.001,0.0176-0.0342-0.2505-0.0303-0.6548c0.0107-0.4077,0.0439-0.9932,0.2148-1.6689 c0.0674-0.3442,0.1943-0.7012,0.3213-1.0815c0.1621-0.3657,0.2959-0.7759,0.5273-1.1504c0.207-0.3882,0.4346-0.7852,0.7236-1.1489 c0.2578-0.3882,0.5938-0.7207,0.9004-1.0786c0.3311-0.3345,0.7002-0.6279,1.043-0.9351c0.3701-0.2739,0.7568-0.5122,1.1172-0.7549 c0.3809-0.21,0.7617-0.3882,1.1162-0.5605c0.3555-0.1738,0.7197-0.2666,1.041-0.3804c0.6396-0.2397,1.2109-0.2964,1.5957-0.3687 c0.3896-0.0581,0.6113-0.0806,0.6113-0.0806c0.3086-0.0317,0.583,0.1929,0.6123,0.5015c0.0215,0.2173-0.085,0.418-0.2578,0.5288 l-0.0508,0.0317c0,0-0.1807,0.1138-0.498,0.2935c-0.1592,0.0884-0.3506,0.1978-0.5723,0.3086 c-0.2266,0.105-0.457,0.2666-0.7178,0.4194c-0.2529,0.165-0.543,0.313-0.8242,0.5049c-0.2773,0.1963-0.5645,0.4077-0.873,0.6025 c-0.2832,0.229-0.5664,0.4746-0.8691,0.7026c-0.2695,0.2632-0.5664,0.5107-0.8252,0.7905c-0.252,0.2847-0.541,0.541-0.7568,0.8496 c-0.1123,0.1499-0.2305,0.2949-0.3525,0.4346c-0.1045,0.1528-0.209,0.3022-0.3105,0.4492 c-0.2168,0.2905-0.377,0.6006-0.5654,0.8779c-0.1455,0.2983-0.3232,0.5679-0.4434,0.8359 c-0.2686,0.5259-0.4541,0.9888-0.5859,1.3125c-0.1289,0.3281-0.1885,0.4868-0.1904,0.5049 c-0.0225,0.3037-0.2891,0.5317-0.5928,0.5078C218.0938,59.6011,217.8672,59.334,217.8896,59.0303z"/></g><g id="change5_9"><circle fill="#3f3f3c" r="6.571" cx="224.371" cy="59.026"/></g><g id="change5_11"><path fill="#3f3f3c" d="M253.75,47.1401c0.002,0.0176-0.0342-0.2505-0.0293-0.6563c0.0098-0.4063,0.043-0.9932,0.2139-1.6689 c0.0674-0.3447,0.1943-0.6997,0.3223-1.0815c0.1621-0.3657,0.2949-0.7759,0.5273-1.1489c0.208-0.3896,0.4346-0.7866,0.7236-1.1509 c0.2588-0.3862,0.5928-0.7202,0.9014-1.0771c0.3311-0.334,0.6982-0.6274,1.043-0.9346c0.3701-0.2744,0.7568-0.5122,1.1162-0.7563 c0.3818-0.2085,0.7627-0.3867,1.1172-0.5591c0.3555-0.1738,0.7197-0.2666,1.04-0.3804c0.6406-0.2397,1.21-0.2969,1.5967-0.3687 c0.3887-0.0601,0.6113-0.0825,0.6113-0.0825c0.3066-0.0298,0.5811,0.1948,0.6113,0.502c0.0225,0.2188-0.084,0.4194-0.2578,0.5288 l-0.0498,0.0317c0,0-0.1807,0.1152-0.498,0.2949c-0.1611,0.0869-0.3506,0.1978-0.5723,0.3086 c-0.2266,0.1035-0.459,0.2651-0.7178,0.4194c-0.2539,0.165-0.5439,0.313-0.8242,0.5034c-0.2773,0.1978-0.5645,0.4077-0.873,0.6035 c-0.2832,0.2295-0.5664,0.4751-0.8711,0.7026c-0.2695,0.2637-0.5645,0.5112-0.8232,0.791c-0.252,0.2847-0.542,0.541-0.7568,0.8496 c-0.1133,0.1499-0.2305,0.2935-0.3516,0.4346c-0.1064,0.1514-0.21,0.3008-0.3135,0.4492 c-0.2158,0.2891-0.376,0.5991-0.5645,0.8779c-0.1455,0.2979-0.3242,0.5664-0.4434,0.8345 c-0.2686,0.5273-0.4541,0.9888-0.5859,1.312c-0.1289,0.3296-0.1885,0.4888-0.1904,0.5063 c-0.0225,0.3042-0.2891,0.5308-0.5938,0.5083C253.9541,47.709,253.7275,47.4438,253.75,47.1401z"/></g><g id="change5_5"><path fill="#3f3f3c" d="M266.5996,45.5132c0.8975,3.5156-1.2256,7.0947-4.7412,7.9907c-3.5195,0.897-7.0967-1.2271-7.9941-4.7417 c-0.8955-3.519,1.2266-7.0962,4.7441-7.9937C262.126,39.8726,265.7021,41.9971,266.5996,45.5132z"/></g><g id="change5_13"><path fill="#3f3f3c" d="M219.4209,26.0337c0,0,4.4082,5.6489,13.6318,3.0889c9.2227-2.5601,12.6797-9.9307,12.6797-9.9307 s2.8018,4.0088,8.9727,3.9414c6.1729-0.0688,9.1211-5.2524,9.1211-5.2524s3.3721,17.5664,11.335,17.1323 c0,0,2.1523,9.4409,6.4043,10.8594c4.251,1.4185,4.4404-1.0186,4.4404-1.0186s1.6387,5.2148,4.627,4.563 c2.9902-0.6533,3.7842-3.4263,3.7842-3.4263s0.291-11.457-11.8076-26.8979c-12.0967-15.4419-43.1592-19.166-52.8447-10.5942 c0,0-15.3682-0.1108-24.0107,15.5142c-7.3711,13.3223-9.9951,28.4287-4.0469,46.5464c0,0,1.8672,6.7549,4.3057,10.1196 c0,0,5.0078,1.083,5.7021-2.9888c0.6953-4.0703-3.8477-8.2544-3.8477-8.2544s2.2754-0.999,1.7773-5.9365 c-0.499-4.938-4.0059-7.6045-4.0059-7.6045s2.6494,0.3564,3.71-2.8613c1.0596-3.2178-0.9961-17.0703-0.9961-17.0703 s2.2549,1.0801,5.9473-0.3311C217.9932,34.2222,219.4209,26.0337,219.4209,26.0337z"/></g><g id="change3_7"><path fill="#fff5de" d="M232.1455,79.1929c0,0-3.3037-3.8862-0.1826-7.125c2.9404-3.0518,6.6973-1.5054,10.9072-0.77 c5.042,0.8809,9.375,0.397,12.3916-5.5596c3.0176-5.9561,6.7891-6.6782,9.6074-5.9277 c5.6611,1.5073,7.9521,13.8091-4.0273,21.3071C248.8623,88.6172,236.5029,85.3379,232.1455,79.1929z"/></g><g id="change2_4"><path fill="#0e67a3" d="M244.5732,108.814l27.4043-4.4146l14.2686,68.0737l20.9658-8.103l9.1895,12.6616 c0,0-23.707,13.6641-37.6436,20.0278c-17.2266,7.8677-22.3486-5.1143-22.3486-5.1143s-5.1953,5.1143-10.8037,2.5781 c-7.3828-3.3379-10.3574-11.4932-6.9287-24.8457c1.4668-5.7168,2.7012-20.895,3.1055-28.7568 C242.7979,121.1597,244.5732,108.814,244.5732,108.814z"/></g><g id="change3_12"><path fill="#fff5de" d="M249.3516,102.2764c0,0,1.2002,5.1084,4.4756,6.6323c3.2744,1.5249,12.9385-0.5562,14.8818-2.9321 c1.9424-2.376,0.959-6.3848,0.959-8.2813C269.668,95.6357,249.3516,102.2764,249.3516,102.2764z"/></g><g id="change4_9"><path fill="#efa54f" d="M249.3516,102.2764l-2.3496-9.0781l21.334-4.1274l1.7061,11.2119c0,0-2.4189,6.3022-10.8936,6.4072 C250.6748,106.793,249.3516,102.2764,249.3516,102.2764z"/></g><g id="change4_19"><path fill="#efa54f" d="M253.4326,171.5146c0,0-11.0381,14.8516-9.6172,18.1143c1.417,3.2632,5.6436-0.0835,6.9893-1.998 c0,0,4.5889,5.5713,8.333,4.2363c3.7422-1.335,6.876-10.3291,8.1328-14.7378 C267.2705,177.1294,259.9551,170.0884,253.4326,171.5146z"/></g><g id="change5_26"><path fill="#3f3f3c" d="M89.252,175.2134c0,0,3.7871,30.6548,0,36.7852c-3.7861,6.1313-12.4414,7.0332-12.4414,7.0332 s1.2607,16.5898-14.0664,18.3921c-15.3262,1.8037-49.2266-12.8027-49.2266-12.8027l8.1143-24.7031l8.2949,1.4424 c0,0-14.4248-28.4917-1.4434-44.7202L89.252,175.2134z"/></g><g id="change1_1"><path fill="#f9705a" d="M109.2881,107.292c0,0,15.5078,3.9668,22.7217,16.2285c7.2119,12.2617,9.375,16.4551,9.375,16.4551 l-22.7197,13.6592l-9.377-9.3765l-18.7529,47.6045c0,0-48.5078-3.606-69.4238-24.7031c0,0,38.2285-60.7231,64.915-66.0669 L109.2881,107.292z"/></g><g id="change4_15"><path fill="#efa54f" d="M170.834,80.8091c-7.7334,24.4712-28.0176,40.2578-59.5039,31.5884 c-27.6172-7.604-38.7822-34.0737-31.0488-58.543c7.7324-24.4683,34.1719-37.9297,59.0527-30.0664 C164.2139,31.6514,178.5654,56.3413,170.834,80.8091z"/></g><g id="change4_3"><path fill="#efa54f" d="M83.6934,54.1104c0,0-7.8076-4.894-10.916-0.0195c-3.1084,4.8735,1.8916,10.0371,9.2021,10.2188 L83.6934,54.1104z"/></g><g id="change1_8"><path fill="#f9705a" d="M118.2588,81.4785c-2.1104,5.0996-8.5254,7.2822-14.3262,4.8823 c-5.8008-2.4043-8.7939-8.4849-6.6816-13.5845c2.1123-5.0962,8.5273-7.2808,14.3291-4.8774 C117.3789,70.3018,120.3711,76.3809,118.2588,81.4785z"/></g><g id="change1_10"><ellipse rx="9.985" ry="8.775" fill="#f9705a" cx="151.854" transform="rotate(17.536 151.836 96.383)" cy="96.4"/></g><g id="change5_20"><path fill="#3f3f3c" d="M160.3994,87.1025c0.0029-0.0181-0.0264-0.1841-0.0898-0.5317c-0.0693-0.3447-0.1621-0.833-0.3232-1.4009 c-0.0674-0.2861-0.1904-0.584-0.2754-0.9048c-0.1328-0.3086-0.2314-0.644-0.3867-0.9692 c-0.0723-0.1646-0.1475-0.3325-0.2217-0.5005c-0.0918-0.1616-0.1807-0.3267-0.2627-0.4941 c-0.1514-0.3447-0.3867-0.6504-0.5801-0.98c-0.2002-0.3232-0.4434-0.6216-0.6572-0.9331 c-0.2549-0.2817-0.4854-0.5767-0.7188-0.8569c-0.2656-0.25-0.5078-0.5122-0.7422-0.7578 c-0.2393-0.2412-0.4951-0.4424-0.7129-0.6533c-0.2246-0.1992-0.4209-0.4028-0.623-0.5483 c-0.1963-0.1514-0.3623-0.2964-0.502-0.4136c-0.2773-0.2368-0.4346-0.3833-0.4346-0.3833l-0.042-0.0405 c-0.2256-0.2129-0.2363-0.5664-0.0234-0.791c0.1494-0.1602,0.3711-0.2114,0.5674-0.1528c0,0,0.2148,0.0645,0.584,0.1978 c0.3662,0.144,0.9141,0.3086,1.4971,0.6665c0.2939,0.1724,0.6338,0.3345,0.9482,0.5723c0.3145,0.2383,0.6543,0.4854,0.9883,0.7627 c0.3076,0.3086,0.6416,0.6172,0.9512,0.9556c0.2793,0.3672,0.585,0.7266,0.8457,1.1177c0.2334,0.4092,0.499,0.8018,0.6787,1.23 c0.2119,0.4136,0.3594,0.8462,0.4893,1.2676c0.1563,0.4116,0.209,0.8403,0.2969,1.228c0.0527,0.4004,0.1094,0.7729,0.1094,1.1235 c0.0391,0.6968-0.04,1.2783-0.1074,1.6797c-0.0742,0.3984-0.1621,0.6543-0.1563,0.6382 c-0.0342,0.3022-0.3086,0.5195-0.6123,0.4839C160.5811,87.6792,160.3633,87.4053,160.3994,87.1025z"/></g><g id="change5_10"><circle fill="#3f3f3c" r="6.572" cx="155.135" cy="85.987"/></g><g id="change5_24"><path fill="#3f3f3c" d="M127.1719,72.3467c0.002-0.0181-0.0352-0.1831-0.1191-0.5259c-0.0859-0.3403-0.2051-0.8228-0.3984-1.3813 c-0.084-0.2817-0.2217-0.5723-0.3271-0.8867c-0.1484-0.3027-0.2637-0.6309-0.4375-0.9482c-0.082-0.1606-0.165-0.3223-0.248-0.4873 c-0.1006-0.1558-0.1982-0.3159-0.29-0.479c-0.1699-0.3359-0.4219-0.6279-0.6318-0.9453c-0.2188-0.313-0.4775-0.5977-0.708-0.8975 c-0.2695-0.2666-0.5176-0.5483-0.7656-0.8149c-0.2793-0.2354-0.5352-0.4839-0.7822-0.7178 c-0.252-0.2275-0.5186-0.4131-0.7471-0.6108c-0.2354-0.189-0.4424-0.3809-0.6523-0.5142 c-0.2051-0.1406-0.3789-0.2754-0.5254-0.3848c-0.2891-0.2217-0.4541-0.3613-0.4541-0.3613l-0.0449-0.0371 c-0.2354-0.1992-0.2656-0.5527-0.0664-0.7881c0.1416-0.168,0.3604-0.2324,0.5596-0.1841c0,0,0.2168,0.0522,0.5947,0.1646 c0.3711,0.1245,0.9287,0.2593,1.5293,0.5845c0.3027,0.1572,0.6514,0.2993,0.9775,0.5195 c0.3281,0.2202,0.6807,0.4497,1.0293,0.7085c0.3242,0.2891,0.6748,0.5801,1.0029,0.9004c0.2979,0.3521,0.623,0.6938,0.9043,1.0698 c0.2568,0.3955,0.543,0.7729,0.7451,1.1909c0.2363,0.3999,0.4072,0.8252,0.5586,1.2388c0.1797,0.4014,0.2549,0.8271,0.3652,1.2104 c0.0732,0.3955,0.1514,0.7656,0.1699,1.1162c0.0771,0.6919,0.0293,1.2778-0.0156,1.6821 c-0.0508,0.4019-0.124,0.6621-0.1191,0.6445c-0.0195,0.3052-0.2803,0.5361-0.585,0.5181 C127.3848,72.9126,127.1543,72.6504,127.1719,72.3467z"/></g><g id="change5_8"><circle fill="#3f3f3c" r="6.571" cx="121.855" cy="71.522"/></g><g id="change4_1"><path fill="#efa54f" d="M107.4424,108.8408l2.2998-9.7627L87.1885,95.333l-2.7266,8.2349c0,0,3.3711,9.2822,11.8457,9.4199 C104.7803,113.1226,107.4424,108.8408,107.4424,108.8408z"/></g><g id="change2_9"><path fill="#0e67a3" d="M128.1504,36.8467c0,0,3.2012,21.2998,14.957,23.6006c0,0,3.8125-0.084,0.666-5.1338 c0,0,7.708,11.249,12.8105,12.106s3.6777-4.7432,3.6777-4.7432s7.0381,17.4585,13.9111,16.6543 c6.8721-0.8062,12.3066-48.3442-19.0381-61.0435c-23.793-9.6401-34.7637-2.1094-34.7637-2.1094L128.1504,36.8467z"/></g><g id="change2_13"><path fill="#0e67a3" d="M128.3125,37.7754c0,0-9.9639,11.3345-18.8906,13.0752c-8.9287,1.7393-15.2539-0.6289-15.2539-0.6289 s-4.6377,10.4697-9.833,9.1636c-5.1943-1.3066-6.2813-7.3813-6.2813-7.3813s6.5342-50.9551,42.8672-36.7852 C120.9209,15.2188,132.1201,30.667,128.3125,37.7754z"/></g><g id="change2_3"><path fill="#0e67a3" d="M161.6484,74.0903c0,0,6.6445-0.2007,5.7773,1.4097c-0.8672,1.6118-2.793,1.4248-3.9707,1.3574 C162.2813,76.7896,159.5107,75.9541,161.6484,74.0903z"/></g><g id="change2_7"><path fill="#0e67a3" d="M130.9746,58.0352c0,0,6.6367,0.3701,5.6328,1.9014c-1.0029,1.5308-2.9033,1.1787-4.0703,1.0112 C131.3711,60.7798,128.6836,59.709,130.9746,58.0352z"/></g><g id="change4_6"><path fill="#efa54f" d="M101.6582,152.9131l25.5186,50.8521c0,0,13.9639-3.1909,14.7832-0.8169 c0.584,1.6963-6.4902,3.2256-6.4902,3.2256c5.3154-0.7085,9.0215-1.6689,9.1465,1.0635c0.0684,1.5596-7.5166,2.4092-7.5166,2.4092 s7.4785-0.9199,8.0449,0.5693c0.5684,1.4888-6.8398,3.1875-6.8398,3.1875s4.9971-1.1235,5.7773,1.0293 c0.7793,2.1528-12.7285,4.2471-19.9775,3.8862c-7.248-0.3599-26.2432-31.0762-26.2432-31.0762l-16.123-26.0112L101.6582,152.9131z"/></g><g id="change4_16"><path fill="#efa54f" d="M126.2109,203.0068c0,0,3.4717-3.561,4.9131-2.9287c1.4443,0.6309,0,3.606,0,3.606 s-4.0117,1.5776-4.1465,1.5776S126.2109,203.0068,126.2109,203.0068z"/></g><g><g id="change4_12"><path fill="#efa54f" d="M431.1719,218.4341l21.5674-12.5479l-5.5322-13.9409c0,0-19.3232,9.4438-19.3232,9.9307 C427.8838,202.3643,431.1719,218.4341,431.1719,218.4341z"/></g><g id="change4_18"><path fill="#efa54f" d="M372.1523 124.2295L344.8184 161.6211 355.5371 172.4731 384.8076 132.3159z"/></g><g id="change1_5"><path fill="#f9705a" d="M392.9346,105.4541c0,0,6.1924-2.5708,2.4199-2.2847c-1.4775,0.1123-9.2324,2.7236-14.1904,8.0537 c-5.9434,6.3921-10.6738,12.4009-10.6738,12.4009l13.5508,11.6323l8.8936-6.9839V105.4541z"/></g><g id="change1_2"><path fill="#f9705a" d="M443.293,119.5327c0,0,5.334,37.7754,3.9141,54.458c-1.4219,16.6826-13.5547,28.7886-13.5547,28.7886 l2.8535,16.6572c0,0-23.7227,8.437-32.2451,7.8618c-8.5225-0.5757-7.5645-15.7241-7.5645-15.7241L383.4658,159.04l2.5029-35.5449 c0,0,2.6738-17.896,10.6963-20.7437c13.8516-4.9185,17.1621-4.8701,17.1621-4.8701s24.7061,3.7661,29.623,14.3394 c4.916,10.5718-6.9443,29.3638-6.9443,29.3638l-19.2949-9.2686c0,0,5.7559-24.8486,20.3291-22.9551"/></g><g id="change2_11"><path fill="#0e67a3" d="M365.499,144.5732c0,0-19.9814-12.626-22.8018-12.2485c-2.8213,0.3774-12.6563,43.2778-12.6563,43.2778 s1.7031,2.0435,3.5898,4.7866c1.8848,2.7456,24.5801-10.6636,25.0508-10.8984 C359.1523,169.2568,365.499,144.5732,365.499,144.5732z"/></g><g id="change3_2"><path fill="#fff5de" d="M369.7324,151.0835l-26.0859-17.0552c0,0-8.0264,26.6372-11.0361,40.5166L369.7324,151.0835z"/></g><g id="change3_4"><path fill="#fff5de" d="M374.3135,144.8081c0,0-3.2891-4.7007-7.7568-5.4063c0,0-34.7539,34.9019-35.1055,35.019 c-0.3535,0.1167,0.666,4.1152,5.9561,4.2949C342.6973,178.894,374.3135,144.8081,374.3135,144.8081z"/></g><g id="change5_18"><path fill="#3f3f3c" d="M369.3887,12.8657c0,0,15.6787-12.9927,36.665-5.3779c20.9873,7.6147,37.3047,25.2217,43.4375,49.2402 c6.1338,24.0215,10.2549,22.2554,10.2549,22.2554s-14.3818,11.3374-36.627,9.6206c-22.2471-1.7183-53.499-75.1001-53.499-75.1001"/></g><g id="change5_7"><path fill="#3f3f3c" d="M337.4043,53.0562c0,0-4.0586,12.0488,2.0254,29.9917c6.082,17.9438,8.5371,24.002,7.7871,30.9917 c0,0,22.9336-3.3345,29.4131-13.0513c6.4766-9.7148-29.2109-58.1401-29.2109-58.1401L337.4043,53.0562z"/></g><g id="change2_6"><path fill="#0e67a3" d="M332.6104,178.6753l42.4736-35.9521c0,0,26.5879,30.2671,42.4717,51.3359l-39.2939,35.6167 C378.2617,229.6758,339.4658,191.3833,332.6104,178.6753z"/></g><g id="change4_2"><path fill="#efa54f" d="M342.6855,70.061c6.7695,24.7539,22.6738,40.4746,57.8301,32.355 c27.9102-6.4429,40.085-32.5273,33.3164-57.2817c-6.7695-24.7524-32.6621-39.2373-57.8311-32.3555 C350.833,19.6626,335.917,45.3096,342.6855,70.061z"/></g><g id="change4_13"><path fill="#efa54f" d="M431.127,53.1821c0,0,7.9932-4.584,10.9092,0.4087c2.915,4.9902-2.2852,9.9531-9.5957,9.8501 L431.127,53.1821z"/></g><g id="change4_8"><path fill="#efa54f" d="M349.9941,82.0137c0,0-8.7861,2.7764-7.0889,8.3027c1.6973,5.5249,8.8721,5.062,13.7451-0.3896 L349.9941,82.0137z"/></g><g id="change5_21"><path fill="#3f3f3c" d="M380.7012,75.3413c0,0-0.3213-0.0435-0.8525-0.1621c-0.5322-0.1226-1.2881-0.3223-2.1709-0.6611 s-1.8994-0.8027-2.9189-1.5112c-0.5039-0.3608-1.0273-0.7661-1.4883-1.2939c-0.4619-0.5215-0.8975-1.1494-1.1533-1.9126 c-0.25-0.7598-0.2793-1.6284-0.0898-2.3862l0.0332-0.1426l0.0176-0.0713l0.0039-0.0176l0.0029-0.0088l0.0342-0.1035 l0.0107-0.0259l0.083-0.2051l0.1758-0.4082c0.2129-0.3564,0.4355-0.7642,0.6904-1.001c0.4756-0.5708,1.0869-0.9136,1.6396-1.1851 c0.5654-0.249,1.1123-0.4028,1.6104-0.4771c0.999-0.1694,1.8105-0.1211,2.3711-0.0615c0.2803,0.0288,0.5,0.0728,0.6494,0.1001 c0.1563,0.0322,0.2402,0.0493,0.2402,0.0493c0.2988,0.062,0.4912,0.3555,0.4297,0.6543 c-0.0508,0.2437-0.2529,0.4165-0.4873,0.4395l-0.0557,0.0054c0,0-0.0664,0.0063-0.1914,0.0186 c-0.1328,0.0171-0.3262,0.042-0.5742,0.0737c-0.4912,0.0708-1.1953,0.1978-1.9561,0.4565 c-0.3838,0.1221-0.7607,0.3105-1.126,0.5142c-0.3428,0.2285-0.6807,0.4819-0.9063,0.8052 c-0.1563,0.1597-0.1641,0.293-0.2725,0.4189l-0.1436,0.4072l-0.0752,0.2075l-0.0098,0.0259 c-0.0078,0.0234,0.0596-0.1768,0.0303-0.0898v0.0044l-0.002,0.0093l-0.0078,0.0371l-0.0127,0.0742 c-0.085,0.3955-0.0605,0.7734,0.0713,1.1567c0.2344,0.7827,0.9775,1.5615,1.7539,2.2051 c0.792,0.6445,1.6475,1.1763,2.3916,1.6191c0.7529,0.4331,1.4023,0.7803,1.8594,1.0171 c0.4561,0.2344,0.7168,0.3682,0.7168,0.3682l0.0098,0.0049c0.2744,0.1411,0.3828,0.4785,0.2412,0.7534 C381.1631,75.2583,380.9297,75.3716,380.7012,75.3413z"/></g><g id="change1_14"><ellipse rx="11.369" ry="9.994" fill="#f9705a" cx="408.439" transform="scale(-1) rotate(-20.254 -359.879 2286.603)" cy="64.29"/></g><g id="change1_3"><ellipse rx="9.984" ry="8.774" fill="#f9705a" cx="360.125" transform="rotate(164.709 360.126 81.16)" cy="81.165"/></g><g id="change5_25"><path fill="#3f3f3c" d="M405.2949,71.5317c0,0-0.0117,0.0371-0.0342,0.1094c-0.0283,0.0786-0.0703,0.1953-0.125,0.3472 c-0.1123,0.2861-0.2773,0.7051-0.541,1.2051c-0.5254,0.9976-1.3633,2.3867-2.6416,3.8335 c-0.6309,0.729-1.3672,1.4727-2.1943,2.2017c-0.4229,0.3511-0.8408,0.7383-1.3027,1.0864 c-0.4619,0.3467-0.9385,0.6958-1.4287,1.0439c-0.5059,0.3223-1.0195,0.6504-1.5391,0.9829 c-0.5244,0.3247-1.082,0.6055-1.6328,0.9067c-0.5469,0.313-1.1279,0.561-1.7031,0.8281 c-0.5781,0.2622-1.1504,0.5464-1.749,0.7583c-0.5947,0.2227-1.1904,0.4453-1.7832,0.667l-0.1641,0.0581l-0.1104,0.0322 l-0.2217,0.0635l-0.4424,0.1274l-0.8809,0.2544c-0.5713,0.1812-1.2793,0.2578-1.9023,0.3774 c-0.6416,0.1406-1.2666,0.1147-1.8848,0.1733c-1.2383,0.0601-2.4463-0.0728-3.5664-0.2896 c-0.5576-0.1196-1.0918-0.2871-1.6064-0.4346c-0.4961-0.208-0.9873-0.3784-1.4316-0.6011 c-0.8916-0.4395-1.6641-0.9248-2.2861-1.4297c-0.6396-0.4819-1.1328-0.9785-1.5264-1.3926 c-0.3955-0.4141-0.6592-0.7837-0.8428-1.0327c-0.0879-0.1304-0.1553-0.2305-0.2012-0.2979 c-0.0479-0.0771-0.0723-0.1167-0.0723-0.1167c-0.1611-0.2578-0.083-0.5977,0.1748-0.7588 c0.2314-0.1436,0.5264-0.0967,0.7012,0.0977l0.042,0.0469c0,0,0.0918,0.1021,0.2646,0.2935 c0.1875,0.1968,0.4775,0.4741,0.8643,0.8096c0.3906,0.3301,0.875,0.7236,1.4854,1.0859 c0.5967,0.3843,1.3193,0.7285,2.1152,1.0581c0.3994,0.1636,0.8369,0.2734,1.2744,0.4224 c0.457,0.0874,0.9189,0.2158,1.4053,0.2891c0.9766,0.1313,2.0166,0.1787,3.0947,0.0986c1.1064-0.0732,2.127-0.2832,3.2627-0.5659 l0.8789-0.2642l0.4404-0.1328l0.2217-0.0659l0.1104-0.0337c0.0508-0.0161-0.0547,0.0176-0.04,0.0127l0.0137-0.0054l0.0264-0.0103 l0.0518-0.02c0.5596-0.2168,1.1211-0.4346,1.6826-0.6523c0.5703-0.1978,1.1113-0.4575,1.6582-0.6992 c0.5449-0.2461,1.0986-0.4727,1.6133-0.7607c0.5176-0.2808,1.0469-0.5327,1.5498-0.8154 c0.4971-0.2935,0.9873-0.5835,1.4697-0.8687c0.9316-0.6191,1.832-1.2212,2.6348-1.8599c0.8008-0.6382,1.5332-1.272,2.1719-1.8975 c1.2764-1.25,2.2227-2.4121,2.792-3.2803c0.2842-0.4336,0.5-0.7769,0.6328-1.0161c0.0615-0.1138,0.1084-0.2007,0.1406-0.2593 c0.0322-0.0669,0.0488-0.1021,0.0488-0.1021l0.0049-0.0107c0.1318-0.2754,0.4629-0.3921,0.7383-0.2603 C405.2568,70.9888,405.375,71.2734,405.2949,71.5317z"/></g><g id="change5_17"><path fill="#3f3f3c" d="M350.3408,69.6064c0.0039,0.0181-0.0596-0.2456-0.0947-0.6494 c-0.0293-0.4058-0.0547-0.9922,0.0498-1.6812c0.0322-0.3496,0.124-0.7163,0.2139-1.1084 c0.125-0.3794,0.2168-0.8008,0.4121-1.1958c0.168-0.4072,0.3545-0.8247,0.6064-1.2153c0.2197-0.4106,0.5186-0.7759,0.79-1.1611 c0.2969-0.3652,0.6348-0.6938,0.9463-1.0332c0.3408-0.3086,0.7021-0.5845,1.0371-0.8618c0.3584-0.2456,0.7197-0.46,1.0566-0.667 c0.335-0.207,0.6885-0.3359,0.9971-0.4805c0.6133-0.3022,1.1758-0.415,1.5527-0.5239c0.3809-0.0977,0.5996-0.1416,0.5996-0.1416 c0.3027-0.061,0.5977,0.1357,0.6582,0.439c0.043,0.2144-0.043,0.4253-0.2041,0.5513l-0.0469,0.0366 c0,0-0.1699,0.1318-0.4678,0.3418c-0.1504,0.1035-0.3291,0.2314-0.5391,0.3643c-0.2148,0.1255-0.4287,0.3091-0.6719,0.4878 c-0.2363,0.189-0.5107,0.3643-0.7705,0.5825c-0.2568,0.2231-0.5225,0.4609-0.8096,0.6855 c-0.2598,0.2568-0.5176,0.5293-0.7969,0.7852c-0.2432,0.2896-0.5127,0.564-0.7422,0.8682 c-0.2227,0.3091-0.4854,0.5913-0.6689,0.9199c-0.0986,0.1602-0.2021,0.3159-0.3076,0.4673 c-0.0908,0.1611-0.1797,0.3208-0.2676,0.4775c-0.1865,0.3101-0.3154,0.6343-0.4756,0.9292 c-0.1162,0.3105-0.2666,0.5962-0.3594,0.8745c-0.2158,0.5508-0.3535,1.0288-0.4541,1.3638 c-0.0957,0.3403-0.1406,0.5044-0.1387,0.522c0.0068,0.3047-0.2354,0.5571-0.54,0.5635 C350.5996,70.1533,350.3467,69.9111,350.3408,69.6064z"/></g><g id="change5_2"><circle fill="#3f3f3c" r="6.571" cx="356.791" cy="68.966"/></g><g id="change5_22"><path fill="#3f3f3c" d="M389.7354,55.7944c0.0039,0.0181-0.0596-0.2456-0.0957-0.6494 c-0.0283-0.4058-0.0527-0.9927,0.0508-1.6812c0.0322-0.3501,0.124-0.7163,0.2139-1.1089 c0.125-0.3789,0.2168-0.8008,0.4111-1.1958c0.1689-0.4072,0.3555-0.8247,0.6064-1.2153c0.2207-0.4102,0.5205-0.7754,0.791-1.1611 c0.2969-0.3647,0.6348-0.6934,0.9463-1.0337c0.3418-0.3081,0.7021-0.5835,1.0371-0.8613c0.3584-0.2446,0.7197-0.46,1.0566-0.6665 c0.335-0.207,0.6885-0.3364,0.9971-0.481c0.6143-0.3022,1.1758-0.415,1.5527-0.5239c0.3809-0.0972,0.5996-0.1416,0.5996-0.1411 c0.3037-0.061,0.5977,0.1357,0.6582,0.4385c0.0439,0.2148-0.042,0.4253-0.2031,0.5513l-0.0479,0.0366 c0,0-0.1689,0.1318-0.4668,0.3423c-0.1504,0.103-0.3301,0.2314-0.54,0.3638c-0.2148,0.126-0.4287,0.3101-0.6719,0.4883 c-0.2363,0.1885-0.5107,0.3647-0.7705,0.5825c-0.2568,0.2231-0.5215,0.4604-0.8096,0.6855 c-0.2598,0.2568-0.5176,0.5288-0.7969,0.7847c-0.2422,0.2896-0.5127,0.5645-0.7432,0.8682 c-0.2217,0.3091-0.4854,0.5913-0.6689,0.9204c-0.0977,0.1597-0.2002,0.3154-0.3076,0.4668 c-0.0898,0.1616-0.1787,0.3213-0.2666,0.4775c-0.1855,0.3101-0.3154,0.6348-0.4756,0.9297 c-0.1152,0.3105-0.2656,0.5957-0.3594,0.874c-0.2158,0.5508-0.3535,1.0283-0.4531,1.3643 c-0.0967,0.3398-0.1416,0.5039-0.1396,0.521c0.0068,0.3057-0.2354,0.5576-0.54,0.5645 C389.9951,56.3413,389.7422,56.0996,389.7354,55.7944z"/></g><g id="change5_27"><path fill="#3f3f3c" d="M402.3604,52.9141c1.2393,3.4111-0.5205,7.1802-3.9307,8.4175 c-3.4141,1.2388-7.1836-0.5244-8.4219-3.9341c-1.2373-3.4126,0.5244-7.1816,3.9365-8.4204 C397.3555,47.7397,401.125,49.5015,402.3604,52.9141z"/></g><g id="change5_6"><path fill="#3f3f3c" d="M369.3887,12.8657c0,0-29.2354,5.0381-35.9883,36.6416c0,0,4.9023-10.9961,8.5508-12.3203 c0,0-7.5488,9.1699-6.2813,18.5703l11.5059-4.1753c0,0,1.9824-8.8657,4.875-10.3442c0,0-2.5859,2.0103,0.4004,7.1431 c0,0,11.2578-2.1558,14.6484-5.5298c0,0-2.1777-16.5742,3.0313-21.894c0,0-1.8994,15.0513,2.0313,21.5557 c0,0-2.375-15.2144,0.0498-19.9526c0,0,2.6543,12.0415,6.0498,16.6689l8.7725-3.8979l-2.9541-10.647l6.7266,10.0986 l16.543-6.8208C407.3496,27.9619,398.1992,0.5518,369.3887,12.8657z"/></g><g id="change5_29"><path fill="#3f3f3c" d="M404.0801,29.3101c0,0,6.1563,8.6636,16.9736,14.8208c0,0,5.7227,13.4839,14.8369,7.436 c0,0,3.4668-17.9844-16.0186-32.3325c-19.4873-14.3457-38.6445-13.9175-49.6768-6.7026L404.0801,29.3101z"/></g><g id="change4_11"><path fill="#efa54f" d="M421.8145,128.2725l-22.4404,31.5767l-7.582,2.9316L394.4932,166l2.7627,1.2285 c0,0-9.2461,11.0361-7.3086,12.6768c1.9404,1.6416,5.8174-4.7715,5.8174-4.7715s-5.2207,7.4561-2.5361,8.4985 c2.6846,1.0454,5.2207-4.4717,5.2207-4.4717s-3.1338,6.1211-0.7461,6.3398c2.3867,0.2217,3.5791-4.7012,3.5791-4.7012 s-1.6387,4.3477,1.0439,4.71c2.6846,0.3613,7.1582-14.2539,7.1582-14.2539l25.3926-31.8281L421.8145,128.2725z"/></g><g id="change3_17"><path fill="#fff5de" d="M395.0664,103.8091c0,0-5.8486,8.6289,0.0313,11.7612c6.1563,3.2778,9.7803-3.7075,9.7803-3.7075 s6.04,4.3667,10.4189,1.7256c8.3721-5.0498,0.4219-13.9321,0.4219-13.9321L395.0664,103.8091z"/></g><g id="change4_17"><path fill="#efa54f" d="M395.2119,105.5991l-2.5029-10.5117l18.6895-3.3828l4.4141,8.2334c0,0-3.3711,9.2822-11.8457,9.4199 C395.4941,109.4941,395.2119,105.5991,395.2119,105.5991z"/></g><g id="change3_11"><path fill="#fff5de" d="M441.2754,111.1372c0,0-0.0234-0.0195-0.0684-0.0571c-0.043-0.0322-0.1064-0.0801-0.1875-0.1426 c-0.1748-0.1289-0.4395-0.311-0.7832-0.5278c-0.3408-0.2227-0.7793-0.4521-1.2842-0.6851 c-0.5166-0.2036-1.0996-0.4321-1.749-0.5503c-0.6455-0.1401-1.3516-0.1792-2.0732-0.0938 c-0.7305,0.0464-1.4521,0.3477-2.1855,0.6582c-0.1738,0.1035-0.3506,0.2085-0.5283,0.314l-0.2666,0.1577l-0.0674,0.0391 l-0.0342,0.0195c-0.0146,0.0098,0.0996-0.0693,0.0479-0.0322l-0.0098,0.0068l-0.0176,0.0137l-0.1406,0.1104l-0.5674,0.4438 l-0.2871,0.2202l-0.2314,0.2231c-0.6162,0.5576-1.2695,1.2642-1.8779,1.9893c-0.6211,0.7197-1.2041,1.4858-1.7705,2.2471 c-0.5479,0.7788-1.1074,1.5332-1.6084,2.2974c-0.5049,0.7603-1,1.4946-1.4492,2.2051c-0.4492,0.7119-0.875,1.3857-1.2666,2.0073 c-0.7686,1.2554-1.4287,2.2959-1.8623,3.04c-0.4434,0.7363-0.6973,1.1567-0.6973,1.1567 c-0.1572,0.2627-0.499,0.3477-0.7617,0.1904c-0.2295-0.1382-0.3223-0.4175-0.2373-0.6606c0,0,0.1689-0.4785,0.5029-1.2871 c0.3486-0.8018,0.8271-1.9585,1.4912-3.3047c0.334-0.6719,0.6953-1.4014,1.1133-2.1548c0.4102-0.7578,0.8555-1.5527,1.3516-2.355 c0.4912-0.8052,1.0186-1.6309,1.5879-2.4492c0.585-0.8105,1.1895-1.6289,1.8516-2.4185 c0.6738-0.7817,1.3691-1.5298,2.2148-2.2637c0.4111-0.4028,0.7871-0.6089,1.1807-0.9092l0.1465-0.104l0.0918-0.0649 l0.0439-0.0239l0.0879-0.0483l0.3516-0.1895c0.2344-0.124,0.4668-0.2466,0.6973-0.3682c0.9756-0.394,1.9766-0.6963,2.959-0.6992 c0.2432-0.0249,0.4824-0.0215,0.7168,0.001c0.2344,0.0181,0.4668,0.0239,0.6914,0.0552c0.4424,0.0933,0.877,0.1528,1.2646,0.2964 c0.7998,0.2231,1.4561,0.5884,2.0205,0.9126c0.5498,0.3501,1.0059,0.6782,1.3545,0.981 c0.3584,0.2905,0.6045,0.5615,0.7764,0.7397c0.0879,0.0967,0.1543,0.1704,0.1992,0.2202 c0.0391,0.0474,0.0586,0.0713,0.0586,0.0713c0.1963,0.2354,0.1641,0.5845-0.0713,0.7803c-0.208,0.1733-0.5068,0.168-0.709,0 L441.2754,111.1372z"/></g><g id="change3_10"><circle fill="#fff5de" r="3.344" cx="405.804" cy="120.566"/></g><g id="change3_5"><circle fill="#fff5de" r="3.344" cx="405.804" cy="132.316"/></g><g id="change2_1"><path fill="#0e67a3" d="M446.5957,192.1099l5.4893-2.6484c0,0,2.6602,6.1958,8.1152,10.939 c5.4561,4.7412,8.0869,12.4668,1.2314,11.228c-6.8555-1.2407-9.3486-5.7705-9.3486-5.7705L446.5957,192.1099z"/></g><g id="change5_28"><path fill="#3f3f3c" d="M398.915,29.6357c0,0,5.5322,16.7192,20.2158,22.0732c0,0,4.8398,7.98,9.9531,7.562 s7.043-10.6895,7.043-10.6895L408.4395,26.127L398.915,29.6357z"/></g><g id="change3_13"><path fill="#fff5de" d="M370.0156,11.8174c0,0,0.0791-0.0225,0.2314-0.0664c0.1563-0.041,0.3867-0.1021,0.6875-0.1812 c0.5977-0.1436,1.4697-0.3604,2.5938-0.5386c1.1211-0.1929,2.4902-0.3755,4.0693-0.5112 c1.5781-0.1548,3.3682-0.2104,5.3223-0.1851c1.9531,0.0356,4.0703,0.1836,6.2949,0.4819 c2.2168,0.3359,4.5615,0.7319,6.918,1.4248c1.1943,0.2896,2.3643,0.7314,3.5723,1.1025 c1.1758,0.4639,2.3965,0.8628,3.5605,1.4219c0.5879,0.2661,1.1777,0.5337,1.7695,0.8018c0.585,0.2837,1.1563,0.5967,1.7363,0.895 c1.1738,0.5771,2.2832,1.2783,3.4092,1.9478c1.1201,0.6802,2.1689,1.4688,3.252,2.1963 c1.0293,0.7983,2.0645,1.5845,3.0576,2.4028c0.96,0.8569,1.9404,1.6777,2.8389,2.561c0.8789,0.9009,1.7813,1.7588,2.6045,2.6616 c0.8066,0.9185,1.6104,1.8101,2.3691,2.7061c0.7168,0.9282,1.418,1.8364,2.1016,2.7207 c0.6826,0.8823,1.2617,1.8018,1.8594,2.6626c0.293,0.4346,0.5811,0.8618,0.8643,1.2808 c0.2695,0.4268,0.5156,0.8574,0.7676,1.2725c0.4951,0.8335,0.9697,1.6328,1.4219,2.3931 c0.4385,0.7666,0.7979,1.5249,1.1641,2.2197c0.7236,1.397,1.3535,2.6118,1.793,3.6509c0.9199,2.0576,1.4238,3.2388,1.4229,3.2388 c0.1602,0.374-0.0137,0.8062-0.3877,0.9658c-0.3477,0.1479-0.7461,0.0083-0.9287-0.3125l-0.0195-0.0356 c0,0-0.624-1.1064-1.6768-3.0513c-0.499-0.9873-1.1992-2.1333-2.001-3.4448c-0.4043-0.6523-0.8037-1.3657-1.2822-2.0811 c-0.4795-0.7144-0.9824-1.4648-1.5078-2.2485c-0.2637-0.3901-0.5234-0.7954-0.8047-1.1953 c-0.2949-0.3916-0.5938-0.7905-0.8984-1.1958c-0.6221-0.8013-1.2012-1.6768-1.8945-2.5 c-0.6865-0.8262-1.3926-1.6748-2.1143-2.5425c-0.7637-0.8267-1.5439-1.6724-2.3369-2.5317 c-0.8057-0.8457-1.6865-1.6436-2.542-2.4854c-0.876-0.8213-1.8252-1.5791-2.7383-2.394 c-0.9492-0.7695-1.9355-1.5073-2.916-2.2583c-1.0313-0.6797-2.0293-1.4214-3.0938-2.0557 c-1.0635-0.6348-2.1045-1.312-3.21-1.8618c-0.5469-0.2856-1.084-0.5869-1.6348-0.8589c-0.5576-0.2573-1.1133-0.5137-1.667-0.769 c-0.5488-0.2671-1.1094-0.5005-1.6748-0.7158c-0.5605-0.228-1.1172-0.4541-1.6719-0.6792 c-1.1357-0.373-2.2334-0.8208-3.3594-1.1182c-2.2217-0.6943-4.4297-1.1577-6.5303-1.5571 c-2.1094-0.3506-4.1221-0.5942-5.9893-0.728c-1.8682-0.106-3.5879-0.1753-5.1123-0.1382 c-1.5234,0.0234-2.8535,0.106-3.9414,0.2153c-1.0898,0.1045-1.9434,0.21-2.5186,0.2979c-0.2832,0.0464-0.5,0.082-0.6455,0.106 c-0.1475,0.0278-0.2246,0.0425-0.2246,0.0425l-0.0186,0.0034c-0.3994,0.0752-0.7852-0.188-0.8594-0.5879 C369.4258,12.2861,369.6572,11.9229,370.0156,11.8174z"/></g><g id="change5_14"><path fill="#3f3f3c" d="M344.2012,51.709c0,0,4.4541,19.0859,3.377,31.3315c0,0-6.5732-5.9976-7.5957-11.7051 c-1.0225-5.707-1.918-19.6265-1.918-19.6265H344.2012z"/></g></g><g id="change5_12"><path fill="#3f3f3c" d="M119.0635,86.7041c0,0,0.0068,0.1123,0.0205,0.3218c0.0225,0.2173,0.0557,0.5366,0.0986,0.9409 c0.0908,0.8105,0.3242,1.9609,0.7461,3.2583c0.4365,1.2915,1.1299,2.7192,2.21,3.9189c0.5586,0.6025,1.1553,1.0996,1.9268,1.5835 c0.4131,0.2861,0.7686,0.4556,1.1455,0.6772c0.4023,0.1904,0.8008,0.394,1.2119,0.5542c1.6396,0.6846,3.4072,0.9619,5.0684,0.8613 c0.8281-0.0537,1.6357-0.1689,2.3877-0.3594c0.752-0.1919,1.459-0.4209,2.0977-0.6816c1.2764-0.5186,2.3008-1.0938,2.9824-1.54 c0.3398-0.2246,0.6113-0.3999,0.7832-0.5288C139.9102,95.5874,140,95.52,140,95.52l0.041-0.0298 c0.2441-0.1797,0.5898-0.1289,0.7715,0.1167c0.1602,0.2173,0.1377,0.5142-0.041,0.7041c0,0-0.0908,0.0977-0.2607,0.2788 c-0.1689,0.1709-0.4102,0.4253-0.749,0.7114c-0.6758,0.5679-1.668,1.3706-3.0352,2.0854 c-0.6797,0.355-1.4473,0.7041-2.2979,0.9751c-0.8506,0.2715-1.7783,0.5005-2.7627,0.5947 c-0.9834,0.0991-2.0186,0.0977-3.0557-0.0449c-1.0352-0.1514-2.0625-0.4375-3.0439-0.8237 c-0.4971-0.1812-0.96-0.4302-1.4277-0.6621c-0.457-0.2681-0.959-0.5439-1.3262-0.8091c-0.8486-0.5303-1.6895-1.2764-2.3232-2.0493 c-1.3037-1.5747-1.9727-3.3545-2.3086-4.8569c-0.3486-1.5146-0.3535-2.7969-0.3418-3.6807 c0.0068-0.4448,0.0469-0.7925,0.0723-1.0308c0.0332-0.2441,0.0508-0.3745,0.0508-0.3745c0.041-0.3022,0.3174-0.5151,0.6201-0.4746 c0.2666,0.0356,0.4629,0.2544,0.4785,0.5122L119.0635,86.7041z"/></g><g id="change5_19"><path fill="#3f3f3c" d="M251.4121,34.126c0,0,6.5732-0.9946,5.9033,0.709c-0.668,1.7031-2.6006,1.748-3.7773,1.8228 C252.3633,36.7314,249.5127,36.231,251.4121,34.126z"/></g><g id="change5_15"><path fill="#3f3f3c" d="M218.9063,44.0869c0,0,6.5713-0.9946,5.9033,0.7085c-0.6689,1.7046-2.6025,1.75-3.7783,1.8232 C219.8564,46.6919,217.0059,46.1934,218.9063,44.0869z"/></g><g id="change3_14"><path fill="#fff5de" d="M248.1914 102.7515L272.1855 100.5327 272.8193 105.2935 260.9668 119.2017 249.3516 108.4351z"/></g><g id="change3_3"><path fill="#fff5de" d="M268.0557,116.541c0,0,2.2139-11.186,10.6943-9.7163s7.7129,14.2705,5.9248,22.8921 c-1.7881,8.623-9.8311,50.9551-18.8945,48.7144c-9.0625-2.2412-17.207-4.4092-14.8398-14.8774 C254.002,150.0068,268.0557,116.541,268.0557,116.541z"/></g><g id="change3_9"><path fill="#fff5de" d="M235.5371,117.3862c0,0,4.5029-10.2275,10.4805-8.3398c5.3271,1.6807,4.6074,7.9668,3.0752,17.3042 c-1.3105,7.9907-7.7041,47.6299-16.7676,45.5757c-9.0615-2.0522-15.7725-3.1279-13.4063-12.7153 C221.9805,146.8022,235.5371,117.3862,235.5371,117.3862z"/></g><g id="change3_1"><path fill="#fff5de" d="M67.9648,117.7026c1.0889-0.5815,2.1963-0.9922,3.3525-1.3223c1.1533-0.3232,2.3447-0.5234,3.5479-0.6084 c2.4043-0.1724,4.8779,0.1919,7.1465,1.1167c1.1279,0.4746,2.1924,1.0854,3.1924,1.7822 c0.9902,0.7095,1.9014,1.5171,2.7432,2.3853c0.8311,0.8774,1.5986,1.8101,2.2852,2.792c0.6934,0.9805,1.3174,1.9995,1.8916,3.0459 c2.2305,4.0537,4.4014,8.1392,6.6055,12.2075l1.6357,3.0601c0.541,1.0239,1.0986,2.0322,1.625,3.0688l3.085,6.2842 c0.2725,0.5562,0.043,1.228-0.5127,1.501l-0.0762,0.0342l-0.0254,0.0093l-13.0088,5.1953l-6.5049,2.5972 c-2.165,0.8735-4.3438,1.7124-6.5186,2.563l-0.0215,0.0083c-0.457,0.1787-0.9668-0.0063-1.209-0.415l-6.8838-11.5938 c-2.2598-3.8857-4.5518-7.7515-6.7813-11.6558c-0.1514-0.2646-0.0586-0.6021,0.2051-0.7534 c0.2559-0.146,0.5781-0.0645,0.7373,0.1782c2.4541,3.7671,4.8447,7.5732,7.2676,11.3589l7.166,11.4214l-1.2314-0.4072 c2.1563-0.8975,4.3066-1.8066,6.4707-2.6821l6.4844-2.6484l12.9688-5.2959l-0.6133,1.5444l-3.0117-6.1855 c-0.5166-1.0273-1.0742-2.0464-1.6094-3.0703l-1.6191-3.0688c-2.1377-4.103-4.3076-8.189-6.418-12.3066 c-0.5156-0.9937-1.0781-1.9644-1.6992-2.8887c-0.6162-0.9287-1.3027-1.8018-2.042-2.623c-0.751-0.8101-1.5576-1.561-2.4326-2.2207 c-0.8828-0.6475-1.8223-1.2119-2.8154-1.6655c-1.9873-0.9009-4.1904-1.3223-6.4043-1.2515 c-1.1064,0.0342-2.2158,0.1768-3.3018,0.4341c-1.0811,0.2446-2.1748,0.5933-3.1533,1.0513l-0.0234,0.0107 c-0.2754,0.1289-0.6045,0.0103-0.7334-0.2656C67.5996,118.1567,67.708,117.8403,67.9648,117.7026z"/></g><g id="change1_13"><circle fill="#f9705a" r="5.093" cx="276.598" cy="16.108"/></g><g id="change1_4"><path fill="#f9705a" d="M289.0439,20.9849c0.6963,2.7251-0.9502,5.4995-3.6748,6.1948c-2.7266,0.6948-5.5-0.9512-6.1963-3.6763 c-0.6934-2.7266,0.9521-5.4995,3.6777-6.1948C285.5771,16.6138,288.3496,18.2603,289.0439,20.9849z"/></g><g id="change1_6"><circle fill="#f9705a" r="5.093" cx="200.426" cy="29.637"/></g><g id="change1_11"><path fill="#f9705a" d="M203.3643,37.6738c0.6963,2.7246-0.9502,5.499-3.6748,6.1929c-2.7266,0.6968-5.499-0.9497-6.1963-3.6748 c-0.6934-2.728,0.9531-5.501,3.6777-6.1963C199.8975,33.3022,202.6709,34.9487,203.3643,37.6738z"/></g><g id="change3_15"><path fill="#fff5de" d="M120.21,89.356c-0.001,0,0,0-0.001,0c-0.248,0-0.501-0.0049-0.7529-0.0151 c-6.835-0.2729-13.1982-3.5591-16.6045-8.5757c-2.0996-3.0933-4.0684-8.3022-1.5215-15.5518 c3.6152-10.2871,12.7383-11.8237,17.8525-11.8237c2.0254,0,3.3945,0.2471,3.4512,0.2573 c4.1338,0.7026,17.6133,3.9277,16.6963,15.811C138.5869,79.104,131.6318,89.356,120.21,89.356z M119.1826,56.458 c-4.3027,0-11.9697,1.2695-14.958,9.7725c-1.6807,4.7832-1.2773,9.2129,1.166,12.8115c2.8691,4.2266,8.3057,6.9985,14.1875,7.2334 c9.9316,0.3984,16.041-8.6001,16.6934-17.0537c0.6963-9.0386-9.6777-11.79-14.1709-12.5532 C122.0723,56.6636,120.9092,56.458,119.1826,56.458z"/></g><g id="change3_6"><path fill="#fff5de" d="M161.2861,103.8467c0,0,0,0-0.001,0c-0.2227,0-0.4482-0.0044-0.6748-0.0132 c-6.126-0.2461-11.8301-3.1953-14.8848-7.6963c-1.8867-2.7793-3.6553-7.4585-1.3691-13.9624 c3.2461-9.2393,11.4307-10.6187,16.0195-10.6187c1.8135,0,3.0439,0.2217,3.0957,0.231 c9.9229,1.688,15.5273,7.0068,14.9707,14.2261C177.7754,94.6582,171.5352,103.8467,161.2861,103.8467z M160.376,74.6245 c-3.7773,0-10.5059,1.1128-13.125,8.5674c-1.4736,4.1934-1.124,8.0742,1.0137,11.2227c2.5186,3.7109,7.2959,6.1455,12.4688,6.353 c8.7373,0.3452,14.0762-7.5605,14.6494-14.9907c0.6074-7.8862-8.5-10.2974-12.4453-10.9683 C162.9111,74.8042,161.8906,74.6245,160.376,74.6245z"/></g><g id="change3_16"><path fill="#fff5de" d="M144.5156,83.5156c-0.0957-0.1426-2.4316-3.4932-9.7705-2.6108l-0.3652-3.0464 c9.3965-1.127,12.5938,3.8018,12.7246,4.0127L144.5156,83.5156z"/></g><g id="change5_23"><path fill="#3f3f3c" d="M137.2725,89.8198c0,0,0.2217-0.0986,0.6094-0.2725c0.3916-0.1738,0.9473-0.4282,1.5908-0.7432 c0.6387-0.3232,1.373-0.71,2.0566-1.1831c0.6699-0.4751,1.3115-1.0547,1.5313-1.6255c0.123-0.2788,0.166-0.5483,0.1309-0.8525 l-0.0049-0.0557l-0.0029-0.0283v-0.0073v-0.0029c-0.0225-0.0898,0.0283,0.1167,0.0225,0.0928l-0.0059-0.0225l-0.0469-0.1768 l-0.0869-0.3491c-0.0742-0.0928-0.0547-0.1782-0.166-0.3145c-0.1455-0.2622-0.3838-0.4868-0.6348-0.6968 c-0.2715-0.189-0.5557-0.3745-0.8555-0.5063c-0.5908-0.2739-1.1563-0.4434-1.5527-0.5483 c-0.3916-0.0957-0.6152-0.1499-0.6152-0.1499l-0.0723-0.0181c-0.2959-0.0718-0.4785-0.3726-0.4072-0.6694 c0.0557-0.2261,0.2441-0.3848,0.4619-0.4165c0,0,0.0713-0.0103,0.2061-0.0298c0.1279-0.0151,0.3154-0.042,0.5527-0.0513 c0.4766-0.019,1.1631-0.0161,2,0.1904c0.418,0.0942,0.875,0.2593,1.3428,0.5107c0.4551,0.2715,0.96,0.6084,1.333,1.1387 c0.2012,0.2217,0.373,0.6006,0.5303,0.9316l0.1201,0.3506l0.0537,0.1753l0.0078,0.0225l0.0254,0.1123l0.0029,0.0166l0.0107,0.063 l0.0176,0.1274c0.1094,0.6724,0.0195,1.4321-0.2559,2.0732c-0.2803,0.6455-0.7041,1.1533-1.1377,1.564 c-0.4326,0.4165-0.9092,0.7178-1.3633,0.9844c-0.915,0.5181-1.8047,0.8223-2.5713,1.0308 c-0.7656,0.2095-1.415,0.3086-1.8711,0.3608c-0.4541,0.0493-0.7285,0.0552-0.7285,0.0552 c-0.3105,0.0063-0.5664-0.2407-0.5723-0.5513c-0.0049-0.2319,0.1318-0.4341,0.332-0.5239L137.2725,89.8198z"/></g></g></svg>