<?xml version="1.0" encoding="UTF-8" standalone="no"?><svg xmlns="http://www.w3.org/2000/svg" xmlns:xlink="http://www.w3.org/1999/xlink" contentScriptType="text/ecmascript" fill="#000000" width="3705.9" zoomAndPan="magnify" contentStyleType="text/css" viewBox="0.0 0.0 3705.9 2450.0" height="2450" preserveAspectRatio="xMidYMid meet" version="1"><defs><clipPath id="a"><path d="M 0 0 L 2736 0 L 2736 2450.050781 L 0 2450.050781 Z M 0 0"/></clipPath><clipPath id="b"><path d="M 3019 1190 L 3705.949219 1190 L 3705.949219 1249 L 3019 1249 Z M 3019 1190"/></clipPath></defs><g><g id="change1_4" clip-path="url(#a)"><path fill="#fffefe" d="M 2245.671875 2392.289062 C 2189.703125 2392.289062 2135.851562 2361.46875 2086.242188 2306.351562 L 2084.949219 2304.679688 C 2072.226562 2287.949219 2060.683594 2273.339844 2049.707031 2260.097656 L 2047.675781 2257.410156 C 1976.550781 2155.320312 1916.488281 2001.121094 1875.019531 1814.941406 L 2323.074219 1735.050781 C 2459.867188 1730.253906 2533.65625 1470.089844 2533.65625 1225.03125 C 2533.65625 979.371094 2459.53125 718.535156 2322.101562 714.945312 L 2322.101562 714.910156 C 2318.640625 714.574219 2001.003906 683.109375 1870.203125 657.433594 C 1945.335938 302.890625 2087.128906 57.765625 2245.671875 57.765625 C 2479.886719 57.765625 2677.75 592.316406 2677.75 1225.03125 C 2677.75 1857.742188 2479.886719 2392.289062 2245.671875 2392.289062 Z M 2104.886719 1225.03125 C 2104.886719 1412.601562 2148.132812 1608.992188 2229.730469 1693.019531 L 1863.222656 1758.371094 C 1831.6875 1597.433594 1813.613281 1415.773438 1813.613281 1225.03125 C 1813.613281 1043.09375 1830.042969 869.390625 1858.925781 714.054688 C 1949.332031 731.777344 2118.765625 751.429688 2224.324219 762.824219 C 2146.222656 849.835938 2104.886719 1041.640625 2104.886719 1225.03125 Z M 2319.261719 1677.511719 C 2245.203125 1677.511719 2162.652344 1491.683594 2162.652344 1225.03125 C 2162.652344 958.367188 2245.203125 772.542969 2319.261719 772.542969 C 2393.355469 772.542969 2475.894531 958.367188 2475.894531 1225.03125 C 2475.894531 1491.683594 2393.355469 1677.511719 2319.261719 1677.511719 Z M 1165.757812 1673.402344 L 1165.878906 1672.453125 L 1142.699219 1664.742188 C 1129.167969 1660.25 1115.648438 1656.132812 1102.078125 1651.992188 C 1064.269531 1640.539062 1026.597656 1630.109375 990.253906 1621.011719 C 933.136719 1606.511719 874.152344 1593.53125 814.921875 1582.480469 L 814.773438 1583.269531 C 814.746094 1583.261719 814.722656 1583.25 814.695312 1583.25 C 737.167969 1569 659.433594 1558.132812 583.6875 1550.941406 C 562.15625 1548.871094 540.386719 1547.28125 518.695312 1545.761719 C 411.042969 1249.683594 493.277344 971.792969 518.203125 900.449219 C 800.914062 894.960938 1421.085938 824.519531 1897.15625 356.507812 C 1809.402344 576.777344 1755.847656 882.367188 1755.847656 1225.03125 C 1755.847656 1569.960938 1810.121094 1877.320312 1898.933594 2097.910156 C 1702.378906 1912.570312 1456.667969 1770.210938 1165.757812 1673.402344 Z M 1010.878906 1825.371094 L 1010.878906 1687.839844 C 1035.296875 1694.382812 1059.957031 1701.261719 1084.839844 1708.800781 C 1089.667969 1710.292969 1094.496094 1711.75 1099.339844 1713.242188 C 1085.96875 1766.453125 1052.328125 1808.269531 1010.878906 1825.371094 Z M 781.929688 2393.191406 C 735.578125 2393.191406 692.144531 2375.191406 659.539062 2342.421875 C 626.847656 2309.890625 608.84375 2266.449219 608.84375 2220.101562 L 608.84375 1611.703125 C 673.226562 1618.621094 738.757812 1628.019531 804.164062 1640.050781 L 804.015625 1640.839844 C 854.945312 1650.363281 905.488281 1661.511719 955.015625 1673.671875 L 955.015625 2220.101562 C 955.015625 2315.550781 877.367188 2393.191406 781.929688 2393.191406 Z M 372.195312 1540.601562 C 368.734375 1540.601562 365.542969 1540.492188 362.316406 1540.390625 C 256.828125 1258.371094 338.675781 970.289062 362.8125 897.515625 C 365.492188 897.433594 368.101562 897.320312 370.933594 897.3125 C 377.914062 897.921875 409.03125 900.277344 458.875 900.78125 C 427.230469 997.441406 362.394531 1256.792969 458.171875 1542.171875 C 404.382812 1539.921875 373.214844 1540.5625 372.195312 1540.601562 Z M 57.765625 1218.871094 C 57.765625 1132.703125 90.519531 1051.882812 150.03125 991.273438 C 191.746094 948.683594 244.3125 919.398438 301.328125 905.925781 C 270.144531 1008.652344 211.164062 1266.363281 299.917969 1531.613281 C 161.046875 1497.882812 57.765625 1368.820312 57.765625 1218.871094 Z M 2245.671875 0.00390625 C 2166.59375 0.00390625 2092.5 44.828125 2027 124.746094 L 2025.035156 123.269531 C 1544.417969 763.648438 797.574219 839.933594 498.734375 843.015625 C 421.695312 844.03125 375.351562 839.726562 374.894531 839.667969 L 372.195312 839.546875 C 360.621094 839.546875 350.109375 840.035156 340.464844 840.996094 C 253.105469 848.480469 170.820312 887.496094 108.785156 950.828125 C 38.632812 1022.28125 0 1117.472656 0 1218.871094 C 0 1414.5625 149.554688 1580.640625 340.070312 1596.882812 C 350.042969 1597.902344 360.199219 1597.820312 372.890625 1598.371094 C 373.3125 1598.269531 419.871094 1597.3125 497.246094 1601.980469 C 515.734375 1603.160156 534.375 1604.832031 552.980469 1606.433594 L 552.980469 2220.101562 C 552.980469 2281.417969 576.824219 2338.921875 620.03125 2381.929688 C 663.101562 2425.210938 720.601562 2449.070312 781.929688 2449.070312 C 908.175781 2449.070312 1010.878906 2346.351562 1010.878906 2220.101562 L 1010.878906 1888.132812 C 1079.867188 1870.761719 1135.128906 1810.839844 1156 1731.070312 C 1510.21875 1850.480469 1794.597656 2038.902344 2001.238281 2291.878906 L 2004.394531 2295.941406 C 2004.695312 2296.308594 2004.980469 2296.710938 2005.300781 2297.082031 C 2015.636719 2311.378906 2026.226562 2324.75 2037.050781 2337.179688 C 2037.691406 2338.019531 2038.363281 2338.820312 2039 2339.660156 L 2039.148438 2339.53125 C 2101.628906 2410.460938 2171.429688 2450.050781 2245.671875 2450.050781 C 2520.347656 2450.050781 2735.515625 1911.949219 2735.515625 1225.03125 C 2735.515625 538.109375 2520.347656 0.00390625 2245.671875 0.00390625"/></g><g id="change1_3" clip-path="url(#b)"><path fill="#fffefe" d="M 3677.078125 1248.617188 L 3048.613281 1248.617188 C 3032.652344 1248.617188 3019.714844 1235.699219 3019.714844 1219.738281 C 3019.714844 1203.789062 3032.652344 1190.859375 3048.613281 1190.859375 L 3677.078125 1190.859375 C 3693.015625 1190.859375 3705.953125 1203.789062 3705.953125 1219.738281 C 3705.953125 1235.699219 3693.015625 1248.617188 3677.078125 1248.617188"/></g><g id="change1_1"><path fill="#fffefe" d="M 2941.363281 707.46875 C 2929.925781 707.46875 2919.105469 700.644531 2914.566406 689.398438 C 2908.585938 674.609375 2915.742188 657.769531 2930.539062 651.800781 L 3513.246094 416.371094 C 3528.042969 410.355469 3544.886719 417.539062 3550.84375 432.328125 C 3556.824219 447.117188 3549.664062 463.953125 3534.894531 469.925781 L 2952.164062 705.351562 C 2948.628906 706.792969 2944.960938 707.46875 2941.363281 707.46875"/></g><g id="change1_2"><path fill="#fffefe" d="M 3527.992188 2025.992188 C 3524.410156 2025.992188 3520.761719 2025.320312 3517.222656 2023.890625 L 2934.5 1788.453125 C 2919.691406 1782.472656 2912.546875 1765.640625 2918.53125 1750.859375 C 2924.472656 1736.078125 2941.292969 1728.921875 2956.128906 1734.902344 L 3538.828125 1970.339844 C 3553.640625 1976.320312 3560.785156 1993.152344 3554.796875 2007.921875 C 3550.277344 2019.171875 3539.441406 2025.992188 3527.992188 2025.992188"/></g></g></svg>