<?xml version="1.0" encoding="UTF-8" standalone="no"?><svg xmlns="http://www.w3.org/2000/svg" xmlns:xlink="http://www.w3.org/1999/xlink" contentScriptType="text/ecmascript" fill="#000000" width="295.9" zoomAndPan="magnify" contentStyleType="text/css" viewBox="74.7 116.6 295.9 191.9" height="191.9" preserveAspectRatio="xMidYMid meet" version="1"><g><g id="change1_1"><path fill="#fffefe" d="M 99.082031 261.105469 C 98.410156 261.105469 97.746094 260.832031 97.261719 260.316406 C 96.503906 259.511719 96.363281 258.304688 96.921875 257.347656 L 115.3125 225.8125 L 90.777344 225.8125 C 81.90625 225.8125 74.691406 218.597656 74.691406 209.726562 L 74.691406 132.726562 C 74.691406 123.855469 81.90625 116.636719 90.777344 116.636719 L 234.964844 116.636719 C 243.835938 116.636719 251.054688 123.855469 251.054688 132.726562 L 251.054688 166.320312 C 251.054688 167.699219 249.933594 168.820312 248.554688 168.820312 C 247.171875 168.820312 246.054688 167.699219 246.054688 166.320312 L 246.054688 132.726562 C 246.054688 126.613281 241.078125 121.636719 234.964844 121.636719 L 90.777344 121.636719 C 84.664062 121.636719 79.691406 126.613281 79.691406 132.726562 L 79.691406 209.726562 C 79.691406 215.839844 84.664062 220.8125 90.777344 220.8125 L 119.667969 220.8125 C 120.5625 220.8125 121.390625 221.292969 121.835938 222.070312 C 122.28125 222.847656 122.277344 223.800781 121.824219 224.574219 L 105.5 252.5625 L 167.832031 221.085938 C 168.183594 220.90625 168.566406 220.8125 168.960938 220.8125 L 194.953125 220.8125 C 196.335938 220.8125 197.453125 221.933594 197.453125 223.3125 C 197.453125 224.695312 196.335938 225.8125 194.953125 225.8125 L 169.554688 225.8125 L 100.210938 260.835938 C 99.851562 261.019531 99.464844 261.105469 99.082031 261.105469"/></g><g id="change2_1"><path fill="#22a1e2" d="M 218.828125 151.460938 L 102.949219 151.460938 C 101.570312 151.460938 100.449219 150.339844 100.449219 148.960938 C 100.449219 147.578125 101.570312 146.460938 102.949219 146.460938 L 218.828125 146.460938 C 220.210938 146.460938 221.328125 147.578125 221.328125 148.960938 C 221.328125 150.339844 220.210938 151.460938 218.828125 151.460938"/></g><g id="change2_2"><path fill="#22a1e2" d="M 183.632812 172.410156 L 102.949219 172.410156 C 101.570312 172.410156 100.449219 171.289062 100.449219 169.910156 C 100.449219 168.527344 101.570312 167.410156 102.949219 167.410156 L 183.632812 167.410156 C 185.011719 167.410156 186.132812 168.527344 186.132812 169.910156 C 186.132812 171.289062 185.011719 172.410156 183.632812 172.410156"/></g><g id="change2_3"><path fill="#22a1e2" d="M 168.816406 193.359375 L 102.949219 193.359375 C 101.570312 193.359375 100.449219 192.238281 100.449219 190.859375 C 100.449219 189.476562 101.570312 188.359375 102.949219 188.359375 L 168.816406 188.359375 C 170.195312 188.359375 171.316406 189.476562 171.316406 190.859375 C 171.316406 192.238281 170.195312 193.359375 168.816406 193.359375"/></g><g id="change2_4"><path fill="#22a1e2" d="M 210.289062 169.097656 C 204.175781 169.097656 199.203125 174.070312 199.203125 180.183594 L 199.203125 257.1875 C 199.203125 263.300781 204.175781 268.273438 210.289062 268.273438 L 276.296875 268.273438 C 276.6875 268.273438 277.074219 268.363281 277.425781 268.539062 L 339.757812 300.019531 L 323.429688 272.03125 C 322.980469 271.261719 322.976562 270.304688 323.421875 269.527344 C 323.867188 268.753906 324.695312 268.273438 325.589844 268.273438 L 354.476562 268.273438 C 360.59375 268.273438 365.566406 263.300781 365.566406 257.1875 L 365.566406 180.183594 C 365.566406 174.070312 360.59375 169.097656 354.476562 169.097656 Z M 346.175781 308.5625 C 345.792969 308.5625 345.40625 308.476562 345.046875 308.296875 L 275.699219 273.273438 L 210.289062 273.273438 C 201.421875 273.273438 194.203125 266.058594 194.203125 257.1875 L 194.203125 180.183594 C 194.203125 171.3125 201.421875 164.097656 210.289062 164.097656 L 354.476562 164.097656 C 363.347656 164.097656 370.566406 171.3125 370.566406 180.183594 L 370.566406 257.1875 C 370.566406 266.058594 363.347656 273.273438 354.476562 273.273438 L 329.941406 273.273438 L 348.191406 304.558594 C 348.507812 304.976562 348.695312 305.496094 348.695312 306.0625 C 348.695312 307.441406 347.574219 308.5625 346.195312 308.5625 C 346.1875 308.5625 346.179688 308.5625 346.175781 308.5625"/></g><g id="change1_2"><path fill="#fffefe" d="M 241.761719 206.371094 C 235.414062 206.371094 230.246094 211.535156 230.246094 217.882812 C 230.246094 224.230469 235.414062 229.394531 241.761719 229.394531 C 248.109375 229.394531 253.273438 224.230469 253.273438 217.882812 C 253.273438 211.535156 248.109375 206.371094 241.761719 206.371094 Z M 241.761719 234.394531 C 232.65625 234.394531 225.246094 226.988281 225.246094 217.882812 C 225.246094 208.777344 232.65625 201.371094 241.761719 201.371094 C 250.867188 201.371094 258.273438 208.777344 258.273438 217.882812 C 258.273438 226.988281 250.867188 234.394531 241.761719 234.394531"/></g><g id="change1_3"><path fill="#fffefe" d="M 282.453125 206.371094 C 276.105469 206.371094 270.941406 211.535156 270.941406 217.882812 C 270.941406 224.230469 276.105469 229.394531 282.453125 229.394531 C 288.804688 229.394531 293.96875 224.230469 293.96875 217.882812 C 293.96875 211.535156 288.804688 206.371094 282.453125 206.371094 Z M 282.453125 234.394531 C 273.351562 234.394531 265.941406 226.988281 265.941406 217.882812 C 265.941406 208.777344 273.351562 201.371094 282.453125 201.371094 C 291.5625 201.371094 298.96875 208.777344 298.96875 217.882812 C 298.96875 226.988281 291.5625 234.394531 282.453125 234.394531"/></g><g id="change1_4"><path fill="#fffefe" d="M 323.148438 206.371094 C 316.800781 206.371094 311.636719 211.535156 311.636719 217.882812 C 311.636719 224.230469 316.800781 229.394531 323.148438 229.394531 C 329.496094 229.394531 334.660156 224.230469 334.660156 217.882812 C 334.660156 211.535156 329.496094 206.371094 323.148438 206.371094 Z M 323.148438 234.394531 C 314.042969 234.394531 306.636719 226.988281 306.636719 217.882812 C 306.636719 208.777344 314.042969 201.371094 323.148438 201.371094 C 332.253906 201.371094 339.660156 208.777344 339.660156 217.882812 C 339.660156 226.988281 332.253906 234.394531 323.148438 234.394531"/></g></g></svg>