<?xml version="1.0" encoding="UTF-8" standalone="no"?><svg xmlns="http://www.w3.org/2000/svg" xmlns:xlink="http://www.w3.org/1999/xlink" contentScriptType="text/ecmascript" fill="#000000" width="490.7" zoomAndPan="magnify" contentStyleType="text/css" viewBox="-0.2 -0.1 490.7 129.2" height="129.2" preserveAspectRatio="xMidYMid meet" version="1"><g id="change1_1"><path fill="#fee4ed" d="M489.65,90.29c-0.83-0.36-1.55-0.89-2.08-1.6c-1.82-2.45-4.32-4.1-6.77-5.81c-1.25-1.65-2.89-2.84-4.62-3.93 c-1.45-0.92-2.88-1.86-3.98-3.25c-0.47-0.6-0.77-1.29-1.13-1.94c-0.22-0.39-0.46-0.77-0.77-1.1c-0.41-0.73-0.78-1.48-1.12-2.24 c-0.79-1.76-1.43-3.59-2.07-5.42c-0.97-2.66-2.18-5.2-3.67-7.6c-0.21-0.34-0.43-0.68-0.65-1.02c-0.97-1.46-1.06-2.98-0.55-4.64 c0.09-0.29,0.18-0.57,0.28-0.86c0.28-0.86,0.54-1.74,0.43-2.68c0.36-0.64,0.5-1.26,0.51-1.88c0-0.02,0-0.04,0-0.06 c0-0.15-0.01-0.29-0.03-0.44c-0.02-0.18-0.05-0.35-0.09-0.53c-0.03-0.14-0.06-0.28-0.1-0.41c-0.06-0.23-0.14-0.46-0.23-0.68 c-0.11-0.3-0.24-0.59-0.37-0.89c-0.58-1.3-0.97-2.63-0.58-4c0.39-1.39,0.97-2.72,1.61-4.03c0.37-0.77,1.14-1.4,1.02-2.39 c0.39-0.18,0.54-0.54,0.75-0.89c1.97-3.33,3.96-6.65,5.95-9.98c0.96-1.6,2.18-3.05,2.87-4.81c0.54-0.35,0.88-0.83,0.99-1.47 c0.29-0.03,0.36-0.26,0.5-0.47c0.19-0.28,0.38-0.57,0.57-0.86c0.6-0.93,1.18-1.87,1.8-2.78c0.32-0.47,0.66-0.94,1.01-1.39 c0.06-0.08,0.12-0.16,0.19-0.24c0.39-0.48,0.81-0.95,1.27-1.38c1.74-1.62,3.49-3.23,5.23-4.86c0.57-0.54,0.69-1.03-0.29-1.21 c-1.03-0.18-2.01-0.67-3.09-0.6c-0.33-0.31-0.77-0.19-1.16-0.25c-1.85-0.29-3.73-0.18-5.6-0.38c-0.42-0.04-0.85-0.09-1.27-0.14 c-2.26-0.25-4.52-0.52-6.79-0.59c-0.72-0.02-1.44-0.03-2.16-0.01c-1.65-0.09-3.3-0.2-4.95-0.28c-0.55-0.03-1.1-0.05-1.65-0.07 c-0.66-0.02-1.33-0.03-1.99-0.02c-1.17,0.01-2.34,0.05-3.5,0.1c-0.23,0.01-0.46,0.02-0.69,0.03c-1.59,0.07-3.18,0.14-4.76,0.15 c-1.61,0.01-3.22-0.04-4.83-0.22c0.01-0.01,0.01-0.02-0.01-0.05c-0.01-0.02-0.02-0.04-0.04-0.06c-0.03-0.04-0.16-0.01-0.24-0.02 c-5.8-0.18-11.61-0.21-17.41-0.1c-0.65,0.01-1.3,0.02-1.94,0.02c-4.54,0.03-9.08-0.05-13.6,0.44c-1.1-0.03-2.19-0.04-3.29-0.03 c-1.09,0.01-2.19,0.05-3.28,0.09c-0.56,0.02-1.12,0.05-1.68,0.08c-1,0.05-2.01,0.11-3.01,0.18c-0.68,0.04-1.35,0.09-2.03,0.14 c-0.63,0.04-1.26,0.09-1.9,0.13c-0.16-0.02-0.32-0.06-0.48-0.05c-0.76,0.07-1.52,0.13-2.27,0.18c-0.09,0-0.18-0.01-0.27-0.01 c-0.28-0.01-0.51,0.02-0.7,0.07c-4.21,0.26-8.43,0.32-12.64,0.55c-4.84,0.26-9.69,0.59-14.54,0.7c-1.47,0.03-2.93,0.15-4.37,0.43 c-0.16-0.02-0.32-0.06-0.48-0.06c-5.77,0.09-11.51,0.57-17.28,0.73c-2.28,0.06-4.57,0.14-6.85,0.39c-2.78-0.18-5.53,0.26-8.3,0.37 c-5.87,0.23-11.73,0.45-17.6,0.7c-1.5,0.06-3,0.24-4.5,0.37c-0.73-0.01-1.47-0.05-2.2-0.01c-6.16,0.31-12.32,0.66-18.48,0.96 c-10.57,0.51-21.13,0.99-31.7,1.5c-5.87,0.28-11.74,0.61-17.61,0.92c-3.71,0.16-7.42,0.31-11.14,0.5 c-6.69,0.33-13.38,0.69-20.07,1.04c-0.2-0.01-0.41-0.05-0.61-0.04c-1.06,0.05-2.12,0.1-3.17,0.15c-7.41,0.34-14.82,0.67-22.21,1.29 c-8.19,0.34-16.38,0.75-24.57,1.31c-1.13,0.08-2.26,0.15-3.4,0.23c-0.5-0.03-0.99-0.04-1.49-0.03c-0.5,0-0.99,0.02-1.49,0.05 c-1.58,0.09-3.15,0.26-4.72,0.39c-0.37,0.03-0.73,0.06-1.1,0.08c-0.56,0.03-1.12,0.07-1.68,0.09c-3.92,0.2-7.86,0.29-11.76,0.84 c-0.4,0-0.79-0.03-1.19-0.03c-0.13,0-0.26,0.01-0.39,0.01c-5.28,0.37-10.57,0.74-15.85,1.13c-4.1,0.31-8.2,0.65-12.29,0.98 c-0.2-0.02-0.4-0.07-0.6-0.05c-4.76,0.36-9.53,0.66-14.28,1.13c-0.31,0.03-0.63,0.06-0.94,0.08c-2.2,0.17-4.42,0.2-6.6,0.65 c-5.49,0.38-10.99,0.73-16.48,1.14c-1.01,0.08-2.02,0.16-3.03,0.24c-1.66,0.14-3.31,0.29-4.97,0.43c-0.11,0.01-0.22,0.02-0.32,0.03 c-0.88,0.08-1.76,0.16-2.65,0.23c-0.4,0.01-0.8,0.03-1.19,0.06c-0.56,0.03-1.11,0.07-1.66,0.12c-1.6,0.15-3.2,0.35-4.79,0.53 c-0.36,0.04-0.73,0.08-1.09,0.12c-5.23,0.53-10.47,0.9-15.73,1.13c-0.38,0.02-0.76,0.02-1.14,0.04c-0.32,0.02-0.63,0.05-0.94,0.1 c-0.16,0.03-0.31,0.07-0.46,0.11c-0.15,0.05-0.31,0.1-0.46,0.17c-1.15-0.04-2.29,0.02-3.43,0.1c-0.76,0.06-1.52,0.13-2.28,0.2 c-1.14,0.1-2.28,0.2-3.43,0.22c-0.2,0-0.39,0.1-0.59,0.16c-0.41,0.14-0.54,0.39-0.18,0.69c1.36,1.13,2.51,2.51,3.99,3.5 c0.56,0.6,1.14,1.17,1.76,1.71c0.41,0.36,0.83,0.69,1.27,1c0.64,0.45,1.32,0.84,2.06,1.16c0.03,0.01,0.05,0.03,0.08,0.04 c0,0.06,0.02,0.11,0.04,0.16c0.03,0.06,0.06,0.11,0.11,0.15c0.08,0.07,0.19,0.13,0.3,0.2c3.33,2.16,6.62,4.36,9.39,7.26 c0.68,0.71,0.99,1.37,0.97,2.33c-0.04,3.01-0.21,6.02,0.04,9.02c-0.08,3.5,0.16,6.99,1.62,10.21c1.17,2.58,2.56,5.06,3.52,7.74 c0.1,0.28,0.18,0.57,0.26,0.86c0.1,0.36,0.19,0.71,0.3,1.06c0.03,0.1,0.06,0.2,0.1,0.3c0.14,0.4,0.31,0.8,0.55,1.16 c0.02,0.19,0.03,0.38,0.05,0.57c0.01,0.11,0.02,0.22,0.04,0.33c0.02,0.1,0.04,0.2,0.07,0.29c0.71,2.26,1.85,4.33,3.05,6.37 c1.29,2.2,1.21,3.61-1.08,5.72c-0.82,0.76-1.76,1.4-2.63,2.11c-1.84,1.48-3.74,2.9-4.9,5.04c-0.21,0.19-0.39,0.39-0.53,0.66 c-1.57,2.96-3.68,5.54-5.68,8.2c-1.37,1.82-2.79,3.61-4.18,5.41c-0.46,0.6-0.93,1.21-1.38,1.81c-1.4,1.21-2.73,2.51-3.92,3.93 c-0.25,0.07-0.45,0.19-0.61,0.35c-0.16,0.16-0.28,0.36-0.37,0.6c-0.66,0.56-1.33,1.11-1.99,1.67c-1.08,0.9-2.16,1.81-3.23,2.72 c-1.06,0.9-2.1,1.82-3.14,2.75c-0.65,0.59-1.31,1.18-1.95,1.79c-0.46,0.42-0.93,0.84-1.4,1.26c-0.63,0.57-1.26,1.15-1.87,1.74 c-0.29,0.28-0.83,0.54-0.61,1.08c0.18,0.43,0.7,0.4,1.06,0.46c1.16,0.2,2.33,0.35,3.5,0.47c1.21,0.13,2.43,0.23,3.64,0.31 c2.31,0.16,4.62,0.27,6.93,0.45c1.15,0.16,2.3,0.32,3.46,0.39c0.39,0.02,0.77,0.04,1.16,0.04c3.8,0.02,7.6,0.11,11.4,0.12 c3.37,0.01,6.74,0.09,10.1,0.03c1.12-0.02,2.25-0.05,3.37-0.11c0.53,0.02,1.06,0.07,1.59,0.06c7.32-0.16,14.63-0.36,21.95-0.48 c29.73-0.49,59.47,0.36,89.2-0.46c7.97-0.22,15.95-0.16,23.92-0.44c11.48-0.4,22.95-0.95,34.42-1.63c8.45-0.5,16.89-0.98,25.34-1.48 c3.34-0.2,6.69-0.42,10.03-0.65c0.52-0.04,1.04-0.19,1.56-0.29c0.29,0.02,0.59,0.03,0.88,0.03c1.3,0.01,2.58-0.13,3.87-0.28 c0.73-0.09,1.46-0.18,2.2-0.26c0.02,0,0.04,0,0.06-0.01c0.21,0,0.42-0.01,0.63-0.01c0.43,0,0.87,0,1.3-0.02 c0.21-0.01,0.43-0.02,0.64-0.04c7.16-0.58,14.31-1.27,21.48-1.74c6.56-0.43,13.11-1,19.68-1.2c0.61-0.02,1.22-0.04,1.83-0.09 c0.3-0.03,0.61-0.06,0.91-0.11s0.6-0.11,0.9-0.18c0.45,0.01,0.9,0.05,1.34,0.03c7.75-0.35,15.49-0.72,23.24-1.06 c0.5-0.02,0.99-0.04,1.49-0.07c0.88-0.04,1.75-0.1,2.63-0.18c0.46-0.05,0.91-0.1,1.37-0.17c2.62,0.05,5.23-0.05,7.84-0.18 c2.63-0.14,5.27-0.31,7.9-0.41c0.75-0.03,1.5-0.05,2.25-0.07c1.24-0.03,2.48-0.13,3.73-0.23c0.36-0.03,0.71-0.06,1.07-0.09 c0.31-0.03,0.62-0.05,0.94-0.07c0.3,0.01,0.59,0.01,0.89,0.01c0.06,0,0.13,0,0.19,0c0.46,0,0.92-0.02,1.37-0.04 c0.95-0.04,1.9-0.11,2.85-0.18c0.59-0.04,1.18-0.08,1.77-0.12c5.82-0.32,11.65-0.46,17.48-0.71c0.41-0.02,0.83-0.05,1.24-0.08 c0.39-0.03,0.78-0.07,1.17-0.11c0.61-0.06,1.23-0.13,1.84-0.18c2.52,0.04,5.03-0.06,7.54-0.21c0.59-0.03,1.18-0.07,1.77-0.1 c1.17-0.07,2.34-0.14,3.51-0.21c0.77-0.04,1.53-0.08,2.3-0.11c0.72-0.03,1.44-0.05,2.16-0.07c2.33-0.05,4.65-0.26,6.97-0.4 c2.08,0.09,4.15-0.23,6.22-0.28c6.04-0.15,12.06-0.71,18.11-0.73c0.42,0,0.83-0.02,1.25-0.04c1.25-0.07,2.5-0.22,3.75-0.32 c1.68,0,3.35,0,5.03,0c6.22,0,12.42-0.3,18.63-0.59c4.46,0.19,8.89-0.29,13.33-0.43c1.8-0.06,3.57-0.37,5.36-0.46 c0.46-0.02,0.97-0.24,0.77-0.69c-0.11-0.25-0.17-0.52-0.21-0.79c-0.01-0.07-0.02-0.15-0.03-0.22c-0.04-0.4-0.05-0.81-0.14-1.2 c-0.07-0.33-0.2-0.64-0.45-0.92c-0.07-0.69-0.13-1.37-0.22-2.06c-0.3-2.46-0.68-4.93,0.2-7.35c0.71-1.96,1.33-3.97,2.91-5.49 c0.49-0.48,1.12-0.76,1.56-1.32C490.52,91.07,490.43,90.63,489.65,90.29z M204.23,126.04c-0.15,0.1-0.31,0.17-0.47,0.24 C203.92,126.21,204.08,126.14,204.23,126.04C204.23,126.04,204.23,126.04,204.23,126.04z"/></g><g id="change2_1"><path fill="#fd8e82" d="M148.71,24.07C148.71,24.07,148.71,24.07,148.71,24.07c-0.09,5.16-0.4,10.31-0.49,15.47 c-0.03,1.72-0.03,3.44,0,5.16c0.02,1.13,0.39,2.25,0.02,3.38c-0.02,0.3-0.04,0.6-0.06,0.9l0,0c0,0,0,0,0,0 c-0.14,0.02-0.28,0.04-0.42,0.06c-0.43-0.19-0.85-0.15-1.28-0.07c-0.14,0.02-0.28,0.05-0.43,0.07c-0.19,0.03-0.38,0.05-0.57,0.04 c-3.85-0.19-7.72-0.05-11.56,0.09c-1.29,0.05-2.59,0.14-3.88,0.22s-2.6,0.15-3.9,0.16c-0.23-0.24-0.24-0.55-0.25-0.85 c-0.01-0.15-0.01-0.31-0.04-0.45c-0.02-0.07-0.04-0.14-0.07-0.21c-0.03-0.07-0.07-0.13-0.13-0.2c0.08-0.38,0.14-0.75,0.2-1.13 c0.05-0.38,0.09-0.76,0.12-1.14c0.1-1.27,0.09-2.54,0.12-3.8c0.1-4.19,0.08-8.39,0.33-12.58c0.08-1.38,0.25-2.76,0.2-4.14 c0.07-0.32,0.22-0.5,0.41-0.6c0.07-0.03,0.14-0.06,0.21-0.08c0.18-0.05,0.38-0.06,0.59-0.07C134.79,23.93,141.75,24.07,148.71,24.07 z M45.36,126.17c0-0.01,0-0.01,0-0.02c0.01-0.77,0.04-1.55,0.07-2.32c0.07-1.55,0.16-3.1,0.2-4.65c-0.02-0.15-0.04-0.29-0.05-0.44h0 l0,0c-0.14-0.02-0.29-0.03-0.43-0.05c-2.63,0.27-5.27,0.54-7.9,0.8c-2.31,0.23-4.63,0.4-6.93,0.68c-2.87,0.35-5.76,0.49-8.64,0.83 c-2.38,0.29-4.76,0.73-7.18,0.64c0,0,0,0,0,0c0,0,0,0,0,0c-0.58,1.16-0.59,2.38-0.54,3.6c0.03,0.73,0.08,1.46,0.05,2.19 c-0.03,0.78,1.05,0.39,1.18,1.04c1.15,0.16,2.3,0.32,3.46,0.39c0.39,0.02,0.77,0.04,1.16,0.04c3.8,0.02,7.6,0.11,11.4,0.12 c3.37,0.01,6.74,0.09,10.1,0.03c1.12-0.02,2.25-0.05,3.37-0.11c0.04-0.19,0.14-0.3,0.27-0.37s0.28-0.09,0.44-0.1 C45.36,127.71,45.35,126.94,45.36,126.17z M203.71,111.34L203.71,111.34C203.71,111.34,203.71,111.34,203.71,111.34L203.71,111.34 L203.71,111.34C203.71,111.34,203.71,111.34,203.71,111.34z M147.86,112.62c-0.04-0.02-0.07-0.04-0.11-0.06 c-2.41,0.23-4.84,0.21-7.25,0.21c-1.45,0-2.9,0.01-4.35,0.09c-1.67,0.09-3.33,0.22-4.99,0.32c-0.83,0.05-1.67,0.09-2.5,0.11 c-0.42,0.01-0.83,0.02-1.25,0.02c-0.42,0-0.83,0-1.25-0.01c-0.01,0.01-0.02,0.01-0.03,0.02c-0.14,0.08-0.28,0.17-0.42,0.25 c-0.02,0.07-0.03,0.15-0.05,0.22c0,0.16-0.01,0.33-0.01,0.49c-0.06,2.14-0.01,4.28,0.06,6.42c0.02,0.71,0.05,1.43,0.08,2.14 c0.04,1.14,0.08,2.28,0.1,3.42c0.01,0.57,0.02,1.14,0.02,1.71c7.44-0.01,14.89-0.01,22.33-0.02c0,0,0,0,0,0 c-0.01-5.04-0.02-10.09-0.03-15.13C148.1,112.75,147.98,112.69,147.86,112.62z M259.86,122.74c0.08-0.07,0.19-0.12,0.32-0.15 c0-0.73,0.01-1.46,0.01-2.19c0-0.49,0-0.98,0-1.46c0-2.53-0.01-5.07-0.01-7.6c-0.08-0.17-0.17-0.33-0.25-0.5 c-1.36,0-2.73,0-4.09,0.01c-5.91,0.01-11.82,0.02-17.74,0.02c-0.01,0.16-0.01,0.31-0.02,0.47c0,4.25,0.68,8.47,0.5,12.73 c2.08,0.01,4.24,0.35,6.23-0.07c2.65-0.56,5.27-0.21,7.89-0.43c0.29,0.02,0.59,0.03,0.88,0.03c1.3,0.01,2.58-0.13,3.87-0.28 c0.73-0.09,1.46-0.18,2.2-0.26c0.02,0,0.04,0,0.06-0.01c0,0,0,0,0,0c0,0,0,0,0,0C259.72,122.91,259.78,122.81,259.86,122.74z M332.24,118.23c-0.84,0.02-1.17-0.31-1.15-1.15c0.04-1.47,0.01-2.93,0.01-4.4c0-2.3,0-2.3-2.33-2.09 c-0.16,0.01-0.33,0.01-0.49,0.01c-1.79-0.01-3.58-0.01-5.37-0.01c-5.37,0.01-10.74,0.09-16.11,0.25c0,0,0,0,0,0 c-0.08,0.17-0.16,0.33-0.25,0.5c0.21,1.63,0.25,3.26,0.25,4.9c0,0.98-0.01,1.96,0,2.94c0,0,0,0,0,0c0.08,0.16,0.17,0.33,0.25,0.49h0 c0.45,0.01,0.9,0.05,1.34,0.03c7.75-0.35,15.49-0.72,23.24-1.06c0.5-0.02,0.99-0.04,1.49-0.07c0.88-0.04,1.75-0.1,2.63-0.18 c0.46-0.05,0.91-0.1,1.37-0.17c0,0,0,0,0,0C335.51,118.21,333.87,118.19,332.24,118.23z M45.39,93.2c0.23-0.02,0.45-0.05,0.68-0.07 c0,0,0,0,0,0c0,0,0,0,0,0c0.02-0.3,0.05-0.61,0.07-0.91c0.01-6.54,0.01-13.07,0.02-19.61c-0.01-0.33-0.02-0.66-0.04-0.99 c-0.57-0.03-1.14-0.01-1.71,0.02c-1.13,0.07-2.26,0.23-3.4,0.35c-0.75,0.08-1.51,0.15-2.27,0.17c-0.19,0-0.38,0.01-0.57,0 c-0.38,0-0.76-0.02-1.14-0.06c-0.24,0.09-0.49,0.18-0.73,0.27c0,0,0,0,0,0c0.02,0.19,0.03,0.38,0.05,0.57 c0.01,0.11,0.02,0.22,0.04,0.33c0.02,0.1,0.04,0.2,0.07,0.29c0.71,2.26,1.85,4.33,3.05,6.37c1.29,2.2,1.21,3.61-1.08,5.72 c-0.82,0.76-1.76,1.4-2.63,2.11c-1.84,1.48-3.74,2.9-4.9,5.04c0,0.22,0.01,0.43,0.01,0.65C35.75,93.47,40.57,93.02,45.39,93.2z M388.93,115.77c-1.16,0.18-1.51-0.19-1.42-1.43c0.1-1.47,0.33-2.99-0.2-4.45c-6.24-0.04-12.48-0.05-18.71,0.22 c-1.18,0.05-2.37,0-3.56,0.02c-0.46,0.01-0.93,0.04-0.9,0.71c0.06,1.38,0.04,2.78,0.19,4.15c0.19,1.77,0.25,1.72-1.56,1.79 c-0.16,0.01-0.33-0.02-0.5-0.04c-0.17-0.02-0.34-0.05-0.51-0.05c-0.34,0-0.65,0.09-0.9,0.47c0.3,0.01,0.59,0.01,0.89,0.01 c0.06,0,0.13,0,0.19,0c0.46,0,0.92-0.02,1.37-0.04c0.95-0.04,1.9-0.11,2.85-0.18c0.59-0.04,1.18-0.08,1.77-0.12 c5.82-0.32,11.65-0.46,17.48-0.71c0.41-0.02,0.83-0.05,1.24-0.08c0.39-0.03,0.78-0.07,1.17-0.11c0.61-0.06,1.23-0.13,1.84-0.18 c0,0,0,0,0,0C389.41,115.76,389.17,115.73,388.93,115.77z M259.67,85.33c0.01-0.07,0.01-0.15,0.02-0.22 c0-7.03,0.01-14.06,0.01-21.08c0,0,0,0,0,0c-0.17-0.09-0.34-0.18-0.51-0.27c-1.38-0.33-2.78-0.29-4.17-0.23 c-0.84,0.04-1.67,0.08-2.51,0.05c-4.65-0.15-9.31-0.04-13.96-0.05c-0.16,0-0.33,0-0.49,0.01c-0.49,0.02-0.97,0.09-1.44,0.25 c-0.09,2.38-0.06,4.76,0.01,7.14c0.02,0.79,0.05,1.59,0.08,2.38c0.07,1.9,0.15,3.81,0.2,5.71c0.05,2.11,0.16,4.22,0.17,6.33 c0.01,0.16,0.02,0.31,0.03,0.46c0,0,0,0,0,0c3.2-0.04,6.4,0.07,9.6-0.01c1.07-0.03,2.14-0.08,3.2-0.16c0.4-0.03,0.81-0.06,1.21-0.08 C253.97,85.39,256.82,85.41,259.67,85.33C259.67,85.33,259.67,85.33,259.67,85.33z M38.27,51.02c2.62-0.01,5.23-0.01,7.85-0.02 c0.09-0.16,0.18-0.31,0.26-0.47c0.05-1.05,0.09-2.1,0.12-3.14c0.06-2.1,0.09-4.19,0.1-6.29c0.01-1.05,0.01-2.1,0.01-3.15 c0.01-2.52,0-5.03,0.02-7.55c0-0.49,0.04-0.97,0.09-1.46c0.05-0.49,0.1-0.97,0.14-1.46c-0.08-0.17-0.17-0.33-0.25-0.5 c-4.36-0.15-8.72,0.07-13.06,0.31c-3.1,0.17-6.19,0.07-9.28,0.2c-0.21,0.01-0.41,0.02-0.62,0.04c-0.22,0.02-0.45,0.04-0.67,0.06 c-0.33,0.03-0.66,0.07-1,0.1c-0.88,0.09-1.77,0.15-2.66,0.07c-0.05,0-0.11,0-0.16,0c0,0,0,0,0,0c0,0,0,0.01-0.01,0.01 c0,0.01-0.01,0.01-0.01,0.01c0.08,0.86-0.1,1.71-0.16,2.57c-0.03,0.51-0.02,1.03,0.12,1.54c0,0.06,0.02,0.11,0.04,0.16 c0.03,0.06,0.06,0.11,0.11,0.15c0.08,0.07,0.19,0.13,0.3,0.2c3.33,2.16,6.62,4.36,9.39,7.26c0.68,0.71,0.99,1.37,0.97,2.33 c-0.04,3.01-0.21,6.02,0.04,9.02c0.15,0.01,0.3,0.01,0.45,0.02C33.04,51.04,35.66,51.03,38.27,51.02z M74.12,116.5 C74.12,116.5,74.12,116.5,74.12,116.5c0,0.32,0,0.64,0,0.96c0.16,0.21,0.2,0.44,0.22,0.68c0.01,0.08,0.01,0.16,0.02,0.24 c0.07,0.8,0.12,1.6,0.16,2.4c0.07,1.6,0.09,3.2,0.1,4.8c0,0.8,0,1.6-0.01,2.4c5.32,0,10.64-0.01,15.95-0.01 c0.08-4.07,0.17-8.15,0.25-12.22c-0.02-0.14-0.04-0.28-0.06-0.42c-0.01,0-0.03-0.01-0.04-0.01c-0.3,0.09-1.1,0.15-1.69,0.18 c-0.03,0-0.05,0.01-0.08,0.01c-2.55,0.16-5.11,0.32-7.66,0.49c-1.11,0.08-2.23,0.16-3.34,0.24c-1.11,0.08-2.23,0.16-3.34,0.25 C74.44,116.48,74.29,116.49,74.12,116.5C74.13,116.49,74.13,116.49,74.12,116.5C74.13,116.49,74.13,116.49,74.12,116.5z M204.17,120.52c-0.05-1.22-0.12-2.45-0.19-3.67c-0.1-1.84-0.21-3.67-0.28-5.51c-2.75,0-5.5-0.02-8.25-0.02 c-2.75,0-5.5,0.01-8.25,0.07c-1.82,0.04-3.65,0.17-5.48,0.19c-0.68,0.01-1.1,0.24-1.1,0.98c0.09,0.19,0.16,0.38,0.19,0.58 c0.04,0.2,0.05,0.4,0.05,0.61c-0.08,3.74,0.42,7.47,0.25,11.22c-0.03,0.7,0.05,1.38,0.22,2.06c4.57-0.21,9.14,0.38,13.72-0.4 c2.25-0.39,4.63-0.09,6.95-0.07c0.2,0,0.39,0,0.58-0.01c0.14-0.01,0.29-0.02,0.42-0.05c0.42-0.07,0.82-0.2,1.2-0.45 C204.28,124.2,204.25,122.36,204.17,120.52z M191.6,63.84c-3.95,0.24-7.92,0.07-11.87,0.39c-1.14,0.09-1.39,0.57-1.28,1.55 c0.38,3.56,0.45,7.15,0.64,10.73c0.2,3.74,0.46,7.48,0.63,11.23c0.41,0.01,0.82,0.07,1.22,0.02c2.46-0.28,4.93-0.47,7.41-0.45 c1.2,0.01,2.4,0,3.6-0.02c3.6-0.06,7.19-0.23,10.78-0.45c0.27-0.07,0.43-0.23,0.49-0.51c-0.1-2.79-0.21-5.58-0.31-8.36 c-0.04-1.16-0.08-2.31-0.11-3.47c-0.09-3.47-0.14-6.94-0.09-10.41c-0.15-0.18-0.23-0.3-0.23-0.3 C198.86,63.79,195.22,63.62,191.6,63.84z M242.38,46.45c5.76-0.2,11.53-0.5,17.3-0.33c0.16,0,0.32-0.01,0.48-0.01c0,0,0,0,0,0 c0,0,0,0,0,0c0-0.16,0-0.32,0-0.48c0-4.32-0.05-8.63,0.03-12.95c0.07-3.37,0.3-6.73,0.46-10.1c-0.08-0.15-0.17-0.31-0.25-0.46 c0,0,0,0,0,0c-7.03-0.01-14.07-0.01-21.1-0.03c-0.9,0-1.8,0.05-2.67,0.27c-0.01,2.97,0.04,5.93,0.16,8.9 c0.18,4.43,0.05,8.87,0.05,13.31c0,0.27,0,0.53-0.02,0.79c-0.03,0.26-0.09,0.52-0.22,0.76h0c0,0.05,0,0.1,0,0.15 c0.11,0.15,0.13,0.26,0.01,0.33c0.94-0.01,1.88-0.03,2.82-0.06C240.42,46.52,241.4,46.49,242.38,46.45z M331.23,44.66 c-0.13-7.19-0.24-14.38-0.36-21.58c-0.01-0.08-0.01-0.15-0.02-0.23c-0.5-0.17-1.01-0.24-1.53-0.26c-0.17-0.01-0.35-0.01-0.52-0.01 c-7.68,0.08-15.35-0.08-23.03-0.24c-0.41-0.01-0.82,0.04-1.18-0.23c-0.24,0-0.49,0-0.73,0c-0.08,0.16-0.17,0.32-0.25,0.48 c0,0,0,0,0,0c0.04,2.4,0.11,4.81,0.17,7.21c0.06,2.4,0.12,4.81,0.13,7.21c0.01,2.88,0.5,5.75,0.41,8.65c0,0,0,0.01,0,0.01 c8.85-0.01,17.7-0.02,26.54-0.03C331.14,45.37,331.24,45.06,331.23,44.66z M177.73,48.05c2.66-0.16,5.33-0.19,7.99-0.24 c1.07-0.02,2.13-0.04,3.2-0.08c0.53-0.02,1.07-0.04,1.6-0.07c1.46-0.07,2.93-0.1,4.39-0.11c2.44-0.01,4.89,0.03,7.33,0.03 c0.12-0.01,0.23-0.03,0.35-0.04c0,0,0,0,0,0c0,0,0.02-0.02,0.04-0.04c0.02-0.02,0.04-0.04,0.04-0.04c0.01-0.11,0.02-0.22,0.03-0.34 c-0.15-0.21-0.21-0.42-0.17-0.62c0.03-0.12,0.09-0.25,0.19-0.37c0.01-1.12-0.02-2.23-0.06-3.35c-0.03-0.74-0.06-1.49-0.08-2.23 c-0.04-1.11-0.06-2.23-0.04-3.34c0.09-4.32,0.15-8.64,0.2-12.96c0.01-1.06-0.38-1.43-1.44-1.44c-1.15,0-2.27,0.25-3.41,0.25 c-3.37,0.01-6.74,0-10.1,0.02c-3.37,0.02-6.73,0.08-10.1,0.24c-0.15,0.01-0.3,0.02-0.46,0.03c-0.01,0.07-0.02,0.14-0.03,0.21 c-0.1,8.01,0.07,16.02,0.48,24.03C177.7,47.75,177.71,47.9,177.73,48.05z M91.27,91.22c0.25-1.05,0.39-2.11,0.44-3.18 c0.04-0.64,0.04-1.28,0.03-1.91c-0.11-4.94,0.68-9.84,0.56-14.78c-0.01-0.22,0-0.44,0.02-0.67c0.04-0.67,0.16-1.34,0.22-2.01 c-0.05-0.21-0.16-0.35-0.32-0.45c-0.06-0.03-0.12-0.06-0.18-0.08c-3.91,0.14-7.81,0.36-11.7,0.66c-1.3,0.1-2.6,0.21-3.89,0.34 c-0.69,0.06-1.39,0.01-2.08,0.01c-0.03,0-0.06,0-0.08,0.01c-0.05,0-0.1,0.01-0.14,0.01c-0.33,2.02-0.27,4.05-0.27,6.08 c0,4.31-0.01,8.63,0,12.94c0,0.35-0.01,0.69-0.05,1.04c-0.04,0.34-0.1,0.68-0.2,1.01c0.01,0.58-0.06,1.17,0.25,1.7 c4.16-0.53,8.38,0.12,12.53-0.65c0.3-0.06,0.6-0.09,0.9-0.1c0.91-0.04,1.84,0.06,2.76,0.06c0.27-0.01,0.55-0.02,0.82-0.02 C91.02,91.23,91.14,91.22,91.27,91.22z M125.19,89.75c0.16,0,0.31,0.01,0.47,0.01c1.63-0.09,3.25-0.2,4.88-0.27 c5.66-0.24,11.31-0.47,16.97-0.7c0.69-0.33,0.68-1.01,0.67-1.59c-0.03-2.8-0.15-5.6-0.17-8.4c-0.03-3.96-0.01-7.93-0.01-11.89 c0-0.21,0.01-0.43,0-0.64c-0.01-0.35-0.07-0.7-0.25-1.03c-2.86-0.17-5.7,0.2-8.55,0.29c-1.11,0.04-2.22,0.08-3.32,0.13 c-3.32,0.15-6.65,0.36-9.97,0.54c-0.22,0.03-0.45,0.06-0.67,0.09c-0.02,0.14-0.03,0.28-0.05,0.42c0.31,0.44,0.23,0.94,0.22,1.42 c-0.07,3.62-0.18,7.24-0.23,10.86c-0.03,2.57-0.02,5.14-0.02,7.7c0,0.86,0,1.71,0,2.57C125.17,89.43,125.18,89.58,125.19,89.75 C125.18,89.74,125.19,89.75,125.19,89.75C125.19,89.75,125.19,89.75,125.19,89.75z M442.81,110.46c-0.01-0.19-0.02-0.37-0.04-0.53 c-0.02-0.13-0.05-0.25-0.09-0.36c-0.12-0.33-0.36-0.58-0.86-0.68c-0.35,0.19-0.73,0.28-1.11,0.33c-0.13,0.01-0.25,0.02-0.38,0.03 c-0.3,0.01-0.61,0.01-0.9,0.01c-6.89,0.09-13.79,0.1-20.68,0.13c-0.32,0.25-0.45,0.56-0.5,0.92c-0.01,0.12-0.02,0.24-0.02,0.37 c0.02,0.85-0.01,1.7,0.01,2.55c0.02,0.69-0.23,1.03-0.97,1.07c-1.13,0.06-2.25,0.22-3.38,0.34c2.08,0.09,4.15-0.23,6.22-0.28 c6.04-0.15,12.06-0.71,18.11-0.73c0.42,0,0.83-0.02,1.25-0.04c1.25-0.07,2.5-0.22,3.75-0.32c0,0,0,0,0,0 C442.53,112.43,442.85,111.42,442.81,110.46z M484.29,108.63c-3.35,0.01-6.71,0.01-10.06,0.01c-0.72,0-1.39,0.03-1.5,1.03 c-0.09,0.86,0.48,1.96-0.39,2.51c-0.73,0.47-1.76,0.12-2.65,0.15c-0.61,0.02-1.23,0-1.84,0.01c-0.36,0-0.76-0.06-0.96,0.36 c4.46,0.19,8.89-0.29,13.33-0.43c1.8-0.06,3.57-0.37,5.36-0.46c0.46-0.02,0.97-0.24,0.77-0.69c-0.11-0.25-0.17-0.52-0.21-0.79 c-0.01-0.07-0.02-0.15-0.03-0.22c-0.04-0.4-0.05-0.81-0.14-1.2c-0.07-0.33-0.2-0.64-0.45-0.92c0,0,0,0,0,0 C485.42,108.79,484.79,108.63,484.29,108.63z M91.74,91.07c-0.07,0.05-0.13,0.1-0.2,0.15c0,0,0,0,0,0c0.08-0.01,0.15-0.03,0.21-0.08 C91.75,91.15,91.74,91.07,91.74,91.07z M389.74,24.07c-0.15-0.01-0.31-0.01-0.46-0.02c-7.8-0.17-15.59-0.6-23.39-0.57 c-1.83,0.01-3.75,0.15-5.57-0.4c-0.14,0.03-0.24,0.08-0.33,0.16c-0.08,0.08-0.14,0.19-0.17,0.32c-0.03,3.26,0.11,6.51,0.26,9.76 c0.19,4.18,0.4,8.36,0.22,12.55c0.17,0,0.33,0,0.5,0c8.77,0.3,17.55,0.23,26.32,0.24c0.05,0,0.1,0,0.15,0c0.05,0,0.1,0,0.15,0 c0.3,0,0.6,0.03,0.86,0.26c0.09-0.01,0.18-0.01,0.27-0.02c0.07,0,0.14-0.01,0.21-0.01c0.24-2.59,0.4-5.18,0.47-7.77 c0.04-1.56,0.05-3.11,0.02-4.67c-0.06-2.86,0.26-5.7,0.28-8.55c0-0.14,0.04-0.27,0.08-0.41c0.04-0.14,0.1-0.27,0.13-0.41 c0-0.15,0-0.3,0-0.46c0,0,0,0,0,0L389.74,24.07z M75.11,25.91c0,0.2-0.01,0.4-0.01,0.6c0.24,4.33-0.54,8.61-0.51,12.94 c0.02,3.01-0.14,6.03-0.24,9.04c-0.01,0.18-0.04,0.36-0.09,0.53c-0.04,0.18-0.1,0.35-0.14,0.53c0.08,0.17,0.16,0.33,0.24,0.5 c0,0,0,0,0,0c0,0,0,0,0,0c1.16,0.32,2.32,0.32,3.49,0.25c0.47-0.03,0.93-0.07,1.4-0.1c0.23-0.02,0.46-0.03,0.7-0.04 c1.67-0.09,3.33-0.11,5-0.12c2.78-0.01,5.55,0.05,8.33-0.01c0.09-0.16,0.17-0.32,0.26-0.48c0.05-0.11,0.1-0.22,0.13-0.33 c0.03-0.11,0.06-0.22,0.07-0.33c0.03-0.22,0.04-0.45,0.04-0.68c0-0.15,0-0.31,0-0.46c-0.01-3.05,0.48-6.07,0.58-9.12 c0.15-4.38,0.58-8.74,0.89-13.11c-0.02-0.14-0.05-0.28-0.07-0.42c-0.14-0.02-0.28-0.05-0.42-0.07c-2.36,0.27-4.74,0.11-7.09,0.3 c-0.51,0.04-1.03,0.07-1.54,0.1c-1.83,0.09-3.65,0.08-5.48,0.09c-1.78,0.01-3.56,0.05-5.33,0.21C75.23,25.8,75.17,25.86,75.11,25.91 z M418.04,24.59c-0.01,0-0.01,0.01-0.01,0.01c-0.01,0.15-0.02,0.3-0.03,0.44c-0.46,6.77-0.16,13.54-0.25,20.31 c-0.01,0.57,0.03,1.14,0.04,1.71h0c0,0,0,0,0,0c7.01-0.15,14.01,0.33,21.01,0.49c1,0.02,2,0.04,3,0.05 c0.07-0.01,0.15-0.01,0.22-0.02l0,0c0.18-0.5,0.24-1,0.26-1.52c0.01-0.17,0.01-0.35,0.01-0.52c0-6.59,0.01-13.18,0.01-19.76 c-0.01-0.08-0.02-0.15-0.02-0.23c-1.11-0.25-2.23-0.34-3.35-0.39c-0.37-0.02-0.75-0.03-1.12-0.03c-0.5-0.01-1-0.02-1.49-0.03 c-5.47-0.14-10.95,0-16.42-0.3c-0.2-0.01-0.41,0-0.61-0.02c-0.2-0.02-0.39-0.08-0.57-0.21c-0.23,0.01-0.46,0.01-0.68,0.02 c0,0,0,0,0,0C418.05,24.58,418.04,24.58,418.04,24.59z M331.36,83.39c0-0.33,0-0.65,0-0.98c0-0.41,0-0.82,0-1.23 c0-5.07,0-10.13,0-15.2c0-0.49,0-0.97,0-1.46c-0.03-0.08-0.06-0.16-0.1-0.24c-0.37,0-0.75-0.01-1.12-0.01 c-0.26,0.18-0.54,0.25-0.82,0.26c-0.14,0.01-0.28,0-0.43-0.01c-0.14-0.01-0.28-0.02-0.42-0.04c-6.08-0.49-12.17-0.11-18.25-0.22 c-0.64-0.01-1.28-0.08-1.92-0.14c-0.8-0.07-1.6-0.13-2.39-0.02c-0.27,0.04-0.53,0.09-0.8,0.17c-0.01,0.16-0.02,0.32-0.03,0.48 c0.42,6.12,0.22,12.26,0.27,18.39c0.09,0.2,0.18,0.41,0.2,0.61c0.02,0.2-0.02,0.41-0.19,0.61c0,0,0,0,0,0 c0.02,0.14,0.08,0.24,0.16,0.33s0.19,0.14,0.32,0.17c1.15,0.15,2.3,0.17,3.46,0.14c1.15-0.02,2.3-0.09,3.46-0.11 c6.21-0.1,12.42-0.03,18.62-0.03C331.36,84.37,331.36,83.88,331.36,83.39z M303.46,6.43c-0.04,0.12-0.07,0.24-0.09,0.37 c-0.05,0.32-0.03,0.67,0.03,1.04c7.82,0.01,15.65,0.05,23.47,0.01c1.01-0.01,2.01-0.25,3.01,0.04c0.94-0.61,0.41-1.55,0.46-2.32 c0.05-0.82,0.32-1.19,1.16-1.13c1.1,0.07,2.16-0.16,3.23-0.37c-2.78-0.18-5.53,0.26-8.3,0.37c-5.87,0.23-11.73,0.45-17.6,0.7 c-1.5,0.06-3,0.24-4.5,0.37c-0.25,0.13-0.44,0.28-0.58,0.44C303.62,6.09,303.53,6.26,303.46,6.43z M418.74,1.31 c-0.05,1.47-0.04,2.94-0.06,4.4c0,0,0,0,0,0c0,0,0.01,0,0.01,0c0.18-0.01,0.35-0.02,0.53-0.04c0.43-0.33,0.94-0.26,1.41-0.23 c4.93,0.28,9.82-0.55,14.75-0.58c2.44-0.02,4.95-0.12,7.38-0.69c0,0,0,0,0,0c-0.01-0.8,0.16-1.67,0.07-2.43 c-0.03-0.25-0.08-0.5-0.18-0.72c-0.51-1.15-1.95-0.14-3.13-0.74c1.29,0,2.34,0,3.38,0c0,0,0.01,0,0.02,0c0.01,0,0.03,0,0.05,0.01 c0.02,0,0.05,0,0.07,0.01c0.01-0.01,0.01-0.02-0.01-0.05c-0.01-0.02-0.02-0.04-0.04-0.06c-0.03-0.04-0.16-0.01-0.24-0.02 c-5.8-0.18-11.61-0.21-17.41-0.1c-0.65,0.01-1.3,0.02-1.94,0.02c-4.54,0.03-9.08-0.05-13.6,0.44c0,0,0,0,0,0 c2.61,0.05,5.2-0.39,7.82-0.28C418.39,0.29,418.77,0.5,418.74,1.31z M359.34,6.71c0.01,0.18,0.04,0.35,0.11,0.5s0.19,0.29,0.38,0.4 c0.2-0.06,0.41-0.15,0.61-0.19c0.07-0.01,0.13-0.02,0.2-0.02c2.66,0.14,5.3-0.2,7.95-0.29c5.27-0.19,10.54-0.12,15.8-0.26 c1.79-0.05,3.58-0.18,5.38-0.2c0.31-0.26,0.44-0.57,0.49-0.93c0.01-0.12,0.02-0.24,0.02-0.37c-0.02-0.93,0.05-1.87-0.01-2.8 c-0.05-0.74,0.16-1.1,0.64-1.24c-4.21,0.26-8.43,0.32-12.64,0.55c-4.84,0.26-9.69,0.59-14.54,0.7c-1.47,0.03-2.93,0.15-4.37,0.43 c0,1.12-0.01,2.24-0.01,3.36C359.33,6.47,359.33,6.59,359.34,6.71z M470.69,79.59c0.03,1.1,0.07,2.2,0.1,3.3 c0.08,0.16,0.16,0.32,0.24,0.48c0,0,0,0,0,0l0.01,0.01c3.24-0.48,6.5-0.54,9.76-0.49c-1.25-1.65-2.89-2.84-4.62-3.93 c-1.45-0.92-2.88-1.86-3.98-3.25c-0.47-0.6-0.77-1.29-1.13-1.94c-0.22-0.39-0.46-0.77-0.77-1.1c0.07,0.31,0.14,0.61,0.21,0.92 C470.56,75.59,470.63,77.59,470.69,79.59z M394.62,1.11c-0.16-0.02-0.32-0.06-0.48-0.05c-0.76,0.07-1.52,0.13-2.27,0.18 C392.78,1.28,393.71,1.36,394.62,1.11z M442.3,66.72c-0.06-0.27-0.22-0.45-0.49-0.51c-3.6,0-7.21,0.11-10.81,0.02 c-0.51-0.01-1.03-0.03-1.54-0.06c-2.61-0.12-5.21-0.17-7.81-0.17c-0.97,0-1.95,0.08-2.92,0.16c-0.32,0.03-0.65,0.05-0.97,0.07 c-0.08,0.16-0.17,0.33-0.25,0.49c0.04,0.24,0.11,0.48,0.16,0.72c0.05,0.24,0.09,0.48,0.08,0.72c-0.06,2.03-0.03,4.06,0.03,6.08 c0.1,3.38,0.27,6.75,0.22,10.13c-0.01,0.26-0.01,0.51-0.02,0.77c0,0,0,0,0,0l0,0l0,0c0,0,0,0,0,0c7.95-0.09,15.89-0.18,23.84-0.27 c0.14-0.03,0.25-0.08,0.33-0.16c0.08-0.08,0.14-0.19,0.18-0.33C442.31,78.48,442.31,72.6,442.3,66.72z M391.6,1.23 c-0.28-0.01-0.51,0.02-0.7,0.07c0.32-0.02,0.65-0.04,0.97-0.06C391.78,1.24,391.69,1.23,391.6,1.23z M388.29,85.07 c0-0.23,0-0.47,0-0.7c-0.46-0.83,0.04-1.67,0.03-2.5c-0.03-2.69-0.03-5.38-0.03-8.07c0-2.69,0.01-5.38,0.01-8.07 c-0.01-0.07-0.02-0.14-0.02-0.22c-3.31-0.11-6.62-0.16-9.94-0.19c-5.52-0.05-11.04-0.08-16.56-0.34c-0.26-0.01-0.51-0.02-0.77-0.02 c0.01,0.26,0.02,0.51,0.03,0.77c0.25,0.31,0.24,0.68,0.24,1.05c-0.02,3.22,0.01,6.44,0.25,9.66c0.18,2.48,0.32,4.95,0.48,7.43 c0.01,0.35-0.35,0.79,0.26,0.99c0.73,0.05,1.47,0.09,2.2,0.12c2.2,0.1,4.4,0.14,6.6,0.13c5.06-0.03,10.13-0.01,15.19,0 c0.52,0,1.07-0.1,1.55,0.21c0.08,0.01,0.15,0.02,0.22,0.03v0c0.02-0.02,0.03-0.04,0.05-0.05C388.16,85.22,388.22,85.15,388.29,85.07 z M466.21,0.99c0.11,0.05,0.22,0.09,0.33,0.14c0.47,0.23,0.86,0.56,0.82,1.33c2.79-0.12,5.57-0.33,8.37-0.42 c0.93-0.03,1.86-0.05,2.79-0.04c0.53,0,1.05,0.02,1.58,0.03c0.16,0,0.33,0,0.49,0c0.61-0.02,1.22-0.04,1.83-0.06 c-0.33-0.31-0.77-0.19-1.16-0.25c-1.85-0.29-3.73-0.18-5.6-0.38c-0.42-0.04-0.85-0.09-1.27-0.14c-2.26-0.25-4.52-0.52-6.79-0.59 c-0.72-0.02-1.44-0.03-2.16-0.01c0,0,0,0,0,0c0.14,0.1,0.29,0.18,0.46,0.25C465.99,0.9,466.1,0.94,466.21,0.99z"/></g><g id="change1_2"><path fill="#fee4ed" d="M471.03,83.37L471.03,83.37c0.39,5.99,0.6,11.98,1.14,17.95c0.18,2.03,0.22,4.07,0.35,6.11 c0.06,0.88-0.27,1.19-1.18,1.25c-3.72,0.24-7.44,0.15-11.16,0.21c-5.23,0.07-10.46,0.17-15.69,0.24c-1.61,0.02-1.65-0.04-1.67-1.63 c-0.1-6.9-0.2-13.8-0.28-20.7c-0.01-0.5-0.01-0.88,0.02-1.16c0.02-0.21,0.06-0.38,0.13-0.5c0.21-0.38,0.7-0.43,1.82-0.54 c0.73-0.05,1.46-0.11,2.2-0.16c0.49,0.28,1.03,0.18,1.55,0.16c5.15-0.23,10.31-0.48,15.46-0.72c0.18-0.01,0.36,0,0.54,0 c0.3,0,0.6-0.04,0.87-0.24c0.17-0.01,0.33-0.01,0.5-0.02C467.42,83.53,469.23,83.45,471.03,83.37L471.03,83.37 C471.03,83.37,471.03,83.37,471.03,83.37z M389.05,65.71c5.25,0.02,10.5,0.04,15.74,0.06c0.33,0,0.65,0,0.93,0.22 c0.49,0,0.99,0.01,1.48,0.01c3.51-0.03,7.01-0.06,10.52-0.09c0,0,0,0,0,0c0-0.57,0-1.14,0-1.7c-0.01-5.68-0.01-11.37-0.02-17.05 c-0.5-0.21-1.02-0.27-1.55-0.27c-4.69-0.08-9.37-0.16-14.06-0.26c-2.85-0.06-5.7,0.06-8.55-0.19c-1.53-0.13-3.09-0.17-4.64,0.05 c-0.12,6.02-0.24,12.04-0.37,18.06c0,0.12,0,0.24,0.02,0.35C388.61,65.22,388.76,65.49,389.05,65.71 C389.05,65.71,389.05,65.71,389.05,65.71C389.05,65.71,389.05,65.71,389.05,65.71z M260.16,46.11c-0.07,0.65-0.19,1.29-0.21,1.94 c-0.09,4.61-0.17,9.22-0.24,13.83c-0.02,1.66,0,1.56,1.71,1.69c1.07,0.08,2.14,0.11,3.21,0.13c1.79,0.03,3.57,0.01,5.36,0.08 c0.82,0,1.64,0.01,2.45,0.01c1.64-0.02,3.27-0.04,4.91-0.04s3.27,0.03,4.91,0.1c3.11-0.02,6.22-0.28,9.32,0.17 c1.45-0.17,2.9-0.23,4.36-0.22c0.48,0,0.97,0.01,1.45,0.02c0.28,0.01,0.55,0.02,0.83,0.03c0.55,0.02,1.11,0.04,1.66,0.07 c1.66,0.07,3.32,0.15,4.98,0.14c0.04-0.11,0.08-0.21,0.13-0.32c-0.03-0.16-0.05-0.32-0.07-0.48c-0.05-0.48-0.03-0.96,0.08-1.44 c-0.03-0.28-0.1-0.56-0.1-0.84c0.01-0.64,0.01-1.28,0-1.92c-0.04-4.47-0.43-8.93-0.57-13.4c0,0,0,0,0,0 c0.12,0.35-18.07,0.43-31.14,0.44c0,0,0,0,0,0c-0.13,0-0.26,0-0.39,0c0,0,0,0,0,0C265.67,46.12,260.16,46.11,260.16,46.11 C260.16,46.11,260.16,46.11,260.16,46.11C260.16,46.11,260.16,46.11,260.16,46.11z M147.99,63.36c-0.08,2.09,0.52,1.98,2.24,1.8 c2.56-0.28,5.14-0.2,7.71-0.34c4.44-0.25,8.9-0.16,13.35-0.36c2-0.09,4-0.15,6-0.19c0.65-0.01,1.08-0.13,1.04-0.97 c-0.25-5.05-0.46-10.1-0.69-15.16c-0.57-0.02-1.14-0.06-1.71-0.05c-5.58,0.16-11.15,0.33-16.73,0.49c-3.22,0.09-6.43,0.16-9.65,0.26 c-0.33,0.01-0.66,0.08-0.99,0.15c-0.11,0.02-0.22,0.04-0.33,0.06c-0.09,1.72-0.17,3.44-0.26,5.16c-0.06,0.71-0.08,1.43-0.07,2.14 c0.02,2.14,0.25,4.29-0.08,6.42C147.88,62.97,147.99,63.17,147.99,63.36z M73.86,69.17c0.09-5.63,0.19-11.27,0.27-16.9 c0.03-1.76,0.01-1.75-1.73-1.76c-8.22-0.03-16.43,0.4-24.64,0.48c-1.13,0.01-1.38,0.48-1.37,1.48c0.03,3.84,0,7.68-0.01,11.52 c0,0.07,0,0.13,0,0.2c0,0.13,0.01,0.26,0.01,0.4c0,0-0.12,2.81-0.09,4.73c0.02,0.09,0.03,0.17,0.04,0.26c0,0.03,0.01,0.06,0.01,0.09 c0.01,0.11,0.01,0.22,0.01,0.33c-0.1,1.22,0.54,1.48,1.58,1.36c0.89-0.1,1.78-0.17,2.68-0.23c2.52-0.19,5.04-0.34,7.55-0.57 c5.15-0.48,10.3-0.95,15.46-1.16C73.7,69.32,73.78,69.24,73.86,69.17L73.86,69.17z M285.22,84.82 C285.22,84.82,285.22,84.82,285.22,84.82c0,0.01-0.01,0.02-0.01,0.03c-0.41,0-0.82,0-1.23,0c0.41,0,0.82,0,1.23,0 C285.21,84.84,285.22,84.83,285.22,84.82z M125.46,108.78c-0.03-1.59-0.06-3.17-0.09-4.76c-0.08-4.76-0.12-9.51-0.18-14.27 c0,0-0.01-0.01-0.01-0.01c-4.97,0.08-9.93,0.34-14.89,0.61c-5.69,0.3-11.4,0.29-17.07,0.85c-0.12,0.01-0.24,0.02-0.36,0.02 c-0.36,0-0.73-0.05-1.1-0.06c-0.06,0.04-0.14,0.07-0.21,0.08c0,0,0.03,0.02,0.03,0.02c0,0,0,0,0,0c-0.08,0.4-0.21,0.79-0.22,1.19 c-0.18,7.6-0.35,15.2-0.52,22.8c5.13-0.19,10.25-0.6,15.37-0.9c6.39-0.37,12.78-0.57,19.18-0.84 C125.8,111.93,125.49,110.36,125.46,108.78z M202.59,47.54C202.59,47.54,202.59,47.54,202.59,47.54 C202.59,47.54,202.59,47.54,202.59,47.54c0.04,4.23,0.07,8.46,0.12,12.68c0.05,3.86-0.49,3.32,3.38,3.37c0.23,0,0.45-0.02,0.68-0.02 c0.08,0,0.15,0,0.23,0c0.19,0,0.38,0.04,0.56,0.09h0c3.2-0.08,7.53-0.18,11.83-0.27c0.11-0.03,0.23-0.04,0.34-0.05 c0.13,0,0.26,0.01,0.39,0.01c0.07,0,0.13,0.01,0.19,0c0.18,0,0.36,0,0.54,0c7.27-0.14,14.07-0.21,14.79-0.03 c0.09-0.01,0.18-0.03,0.25-0.06c0,0,0.01,0,0.01,0c0.22-0.07,0.38-0.17,0.5-0.33c0.01-0.02,0.03-0.03,0.04-0.05 c0.03-0.04,0.05-0.09,0.07-0.13c0.02-0.04,0.03-0.07,0.05-0.11c0.02-0.04,0.03-0.09,0.04-0.14c0.01-0.06,0.02-0.12,0.03-0.19 c0.01-0.04,0.01-0.09,0.02-0.13c0.01-0.12,0.02-0.25,0.01-0.39c-0.07-4.37-0.02-8.74-0.01-13.11c0-0.53,0.05-1.06,0.08-1.59 c-0.04-0.16-0.08-0.33-0.12-0.49c-1.42,0.86-23.65,0.88-31.34,0.85c-0.36,0.1-0.74,0.13-1.11,0.11c-0.02,0-0.03,0-0.05,0 c-0.12-0.01-0.25-0.02-0.37-0.03c-0.15-0.01-0.29-0.03-0.44-0.04c-0.21-0.02-0.42-0.04-0.63-0.04c0,0-0.02,0.02-0.04,0.04 C202.61,47.51,202.59,47.54,202.59,47.54z M93.98,67.92c0.77-0.09,1.54-0.2,2.32-0.2c3.56-0.01,7.09-0.42,10.64-0.6 c6.07-0.3,12.14-0.67,18.22-0.91c0.09-0.48,0.23-0.95,0.27-1.43c0.36-4.52,0.19-9.05,0.27-13.58c0.03-1.65,0.01-1.66-1.6-1.64 c-7.56,0.09-15.12,0.17-22.67,0.28c-2.24,0.03-4.49,0.14-6.73,0.19c-0.24,0.01-0.46,0.04-0.66,0.12c-0.1,0.04-0.19,0.09-0.28,0.16 c-0.09,0.06-0.17,0.14-0.25,0.24c-0.01,0.33-0.03,0.65-0.04,0.98c0,0.37,0.02,0.73,0.01,1.1c-0.2,4.72-0.66,9.43-0.73,14.17 C92.72,67.73,93.11,68.02,93.98,67.92z M179.96,94.05c-0.09-2.08-0.21-4.16-0.32-6.23c-1.34-0.01-2.68,0-4.02,0.03 c-0.68,0.01-1.35,0.03-2.03,0.05c-0.67,0.02-1.35,0.05-2.02,0.08c-7.26,0.35-14.52,0.57-21.78,0.76c-1.22,0.03-1.62,0.35-1.61,1.6 c0.06,6.86,0.05,13.71,0.06,20.57c0,0.57-0.03,1.15,0.25,1.68c0.16,0,0.33-0.01,0.49-0.01c0.52-0.08,1.05-0.2,1.57-0.22 c4.62-0.11,9.24-0.09,13.85-0.34c4.98-0.28,9.97-0.05,14.94-0.41c0.92-0.07,1.35-0.34,1.31-1.3 C180.4,104.89,180.19,99.47,179.96,94.05z M458.56,48.14c-2.03,0-4.06-0.06-6.09-0.14c-1.27-0.05-2.54-0.11-3.8-0.17 c-0.13-0.01-0.26-0.01-0.39-0.02c-1.98-0.09-3.97-0.17-5.95-0.21c-0.02,5.04-0.04,10.08-0.06,15.13c0,0.16,0,0.33,0,0.49 c0,0.19,0,0.35,0,0.51c0,0.04,0,0.08,0,0.12c0,0.13,0,0.26,0.01,0.37c0,0.03,0,0.06,0,0.08c0.01,0.14,0.01,0.26,0.03,0.38 c0,0,0,0.01,0,0.01c0.01,0.11,0.03,0.2,0.05,0.28c0,0.02,0.01,0.04,0.01,0.05c0.02,0.08,0.05,0.15,0.08,0.21 c0,0.01,0.01,0.02,0.01,0.02c0.04,0.07,0.08,0.13,0.13,0.19c0,0,0.01,0.01,0.01,0.01c0.05,0.05,0.1,0.09,0.16,0.13 c0.01,0.01,0.02,0.02,0.04,0.02c0.07,0.04,0.14,0.08,0.23,0.11c0,0,0-0.01,0-0.01s23.35-0.04,24.06-0.73 c-0.97-2.66-2.18-5.2-3.67-7.6c-0.21-0.34-0.43-0.68-0.65-1.02c-0.97-1.46-1.06-2.98-0.55-4.64c0.09-0.29,0.18-0.57,0.28-0.86 c0.28-0.86,0.54-1.74,0.43-2.68C461.46,48.49,460.01,48.14,458.56,48.14z M417.97,85.13L417.97,85.13L417.97,85.13 c-2.03-0.02-4.07-0.05-6.1-0.07c-1.23,0-2.46,0-3.69,0c-4.08,0-8.17,0-12.25,0c-0.51,0-1.01,0-1.52,0c-0.56,0-1.11,0-1.67,0 c-0.17,0-0.34-0.01-0.51-0.01c-1.31,0.01-2.63,0.01-3.94,0.02c-0.06,0.07-0.13,0.14-0.19,0.22c-0.02,0.02-0.03,0.04-0.05,0.05 c-0.01,0.33-0.01,0.65,0,0.98c0,0.33,0.01,0.66,0.01,0.98c0.04,1.97,0.1,3.93-0.22,5.89c-0.01,1.3-0.02,2.61-0.03,3.91 c-0.01,1.31-0.02,2.61-0.03,3.92c-0.01,0.57-0.02,1.15-0.02,1.72c0,1.83,0.03,3.67-0.01,5.5c-0.04,1.6-0.07,1.62,1.59,1.6 c8.9-0.08,17.8-0.16,26.7-0.25c2.1-0.02,2.19-0.09,2.17-2.24c-0.05-7.34-0.11-14.68-0.17-22.02 C417.99,85.29,417.97,85.22,417.97,85.13L417.97,85.13z M306.4,108.96c0-0.03,0-0.05,0-0.08c-0.09-2.2-0.06-4.41-0.08-6.61 c0-0.4,0-0.8-0.01-1.2c-0.48-1.54-0.27-3.15-0.39-4.72c-0.14-1.88-0.12-3.78-0.1-5.68c0-0.63,0.01-1.26,0-1.89c0-0.04,0-0.08,0-0.12 c0-0.12,0-0.24,0-0.36c0.05-0.06,0.08-0.12,0.12-0.17c0,0,0,0,0,0c-0.04,0.06-0.07,0.12-0.12,0.17c-0.13-0.26-0.19-0.52-0.21-0.79 c-0.04-0.45,0.02-0.9,0-1.35c-0.03-0.76-0.37-1.06-1.12-1.09c-0.45-0.02-0.9,0-1.35,0.02c-0.73,0.03-1.46,0.04-2.17-0.18 c0,0,0,0,0,0c-0.02-0.01-0.05-0.01-0.07-0.02c-0.16,0-0.31,0-0.47,0c0,0,0,0-0.01,0c-0.73,0-1.46,0-2.19,0 c-1.4,0.32-2.81,0.3-4.21,0.02c-0.81,0-1.63-0.01-2.44-0.01c0,0,0,0,0,0c-0.19,0-0.39,0-0.58,0c-0.21,0-0.42,0-0.64,0 c-1.64,0.05-3.29,0.11-4.93,0.16c-5.23,0.3-10.47,0.3-15.7,0.29c0,0,0,0,0,0c-2.78-0.01-5.56-0.02-8.33-0.01 c-0.25,0-0.49,0-0.74,0.01c-0.32,0.1-0.64,0.2-0.96,0.29c0,0,0,0,0,0c0,0.07-0.01,0.14-0.03,0.2c0,1.8,0,3.59,0,5.39 c0.01,0.9,0.01,1.8,0.02,2.7c0.13,0.21,0.2,0.41,0.2,0.62c0,0.2-0.06,0.4-0.18,0.6v0c0,0.01-0.01,0.01-0.01,0.02 c0.01,0.3,0.01,0.61,0.02,0.91c0,0,0,0,0,0c0.06,2.97,0.11,5.94,0.17,8.91c0.49,1.3,0.18,2.66,0.24,3.99 c0.02,0.33,0.03,0.57,0.05,0.78c0.01,0.1,0.02,0.18,0.04,0.26c0,0.02,0.01,0.03,0.01,0.05c0.05,0.22,0.13,0.35,0.28,0.43 c0.01,0,0.01,0.01,0.02,0.01c0.05,0.02,0.1,0.04,0.16,0.05c0.02,0.01,0.05,0.01,0.07,0.02c0.06,0.01,0.13,0.02,0.2,0.03 c0.04,0,0.09,0.01,0.14,0.01c0.07,0,0.14,0.01,0.22,0.01c0.14,0,0.28,0,0.45,0c8.87,0,17.75-0.11,26.62,0.05 c5.4,0.09,10.79,0.1,16.18,0.13c1.12,0.01,1.57-0.05,1.75-0.48c0-0.01,0.01-0.02,0.02-0.03c0.03-0.07,0.04-0.17,0.05-0.26 c0-0.03,0.01-0.05,0.01-0.07c0.01-0.1,0.01-0.22,0.01-0.35c0-0.04,0-0.06,0-0.1C306.41,109.35,306.41,109.17,306.4,108.96 L306.4,108.96z M211.07,86.69c-0.15,0.04-0.3,0.07-0.45,0.08c-0.02,0-0.04,0.01-0.07,0.01c-0.15,0.02-0.3,0.03-0.45,0.03 c-0.02,0-0.04,0-0.06,0c-0.31,0-0.62-0.01-0.94-0.03c-0.27-0.01-0.55-0.02-0.82-0.01c-1.26,0.07-2.53,0.05-3.8,0.04 c-0.93-0.01-1.32,0.41-1.29,1.35c0.04,1.67,0.01,3.35,0,5.02c0.08,2.21,0.18,4.41,0.27,6.62s0.17,4.41,0.21,6.62 c0.03,1.47,0.04,2.94,0.03,4.41c0.19,0.06,0.34,0.15,0.44,0.3c0.03,0.05,0.05,0.1,0.07,0.17c2.3,0.11,4.59-0.38,6.89-0.16 c0.29-0.23,0.62-0.27,0.95-0.26c0.13,0,0.26,0.01,0.39,0.02c0.07,0,0.13,0,0.2,0c7.92-0.03,15.83-0.04,23.75-0.07 c0.57,0,1.15,0.08,1.66-0.26c-0.42,0.02-0.94-18.25-0.94-18.25c0.01-0.02,0.03-0.02,0.04-0.03c-0.02-0.64-0.03-1.28-0.03-1.93 c-0.01-1.35-0.02-2.69-0.03-4.04L211.07,86.69C211.07,86.69,211.07,86.69,211.07,86.69z M237,86.11c0.07,0.14,0.11,0.22,0.11,0.22 c-0.03-0.07-0.04-0.14-0.03-0.21C237.05,86.12,237.03,86.12,237,86.11z M359.87,84.91c-0.27-0.01-0.53-0.02-0.8-0.02 c-9.24,0-18.48-0.01-27.71-0.02c-0.17,8.08,0.13,16.16-0.23,24.24c-0.05,1.08,0.5,1.29,1.43,1.28c10.01-0.07,20.03-0.01,30.04-0.28 c0.16,0,0.33-0.01,0.49-0.01c0.54-0.03,0.8-0.23,0.76-0.84c-0.2-3.05-0.51-6.09-0.7-9.15c-0.08-1.24-0.17-2.48-0.27-3.72 c-0.3-3.72-0.63-7.43-0.64-11.17C361.46,85.06,360.67,84.95,359.87,84.91z M202.75,20.97c-0.02,1.78,0.05,1.92,1.86,1.82 c6.32-0.34,12.65-0.02,18.96-0.29c1.08-0.05,2.16-0.07,3.24-0.08c0.81-0.01,1.62-0.01,2.43-0.02c2.43-0.01,4.86,0,7.29-0.12 c0.03-3.98,0.05-7.97,0.08-11.95c-0.09-1.45-0.09-1.45-2.27-1.47c-3.71,0.16-7.42,0.31-11.14,0.5c-6.69,0.33-13.38,0.69-20.07,1.04 c-0.07,0.15-0.14,0.3-0.21,0.44C202.86,14.22,202.79,17.6,202.75,20.97z M47.15,21.17c-0.02,1.47-0.02,2.94-0.08,4.41 c-0.04,0.83,0.24,1.22,1.11,1.18c5.47-0.27,10.94-0.29,16.41-0.64c2.24-0.14,4.5-0.11,6.75-0.12c0.31,0,0.63-0.03,0.94-0.07 c0.94-0.11,1.88-0.29,2.83-0.02c0.06-0.05,0.12-0.1,0.17-0.16c0,0,0,0,0,0c0,0,0,0,0,0c0.04-0.15,0.07-0.31,0.11-0.46 c0.08-1.53,0.11-3.07,0.28-4.6c0.06-0.51,0.13-1.02,0.23-1.52c-0.09-0.29-0.26-0.4-0.46-0.45c-0.04-0.01-0.08-0.01-0.12-0.02 c-0.12-0.01-0.24-0.02-0.36-0.02c-0.05,0-0.11,0-0.16-0.01c-5.49,0.38-10.99,0.73-16.48,1.14c-1.01,0.08-2.02,0.16-3.03,0.24 c-1.66,0.14-3.31,0.29-4.97,0.43c-0.11,0.01-0.22,0.02-0.32,0.03c-0.88,0.08-1.76,0.16-2.65,0.23c-0.03,0.07-0.06,0.14-0.09,0.21 C47.21,21.02,47.18,21.09,47.15,21.17z M304.3,45.67c0,0,0.01,0.01,0.02,0.01c0,0,0-0.01,0-0.01 C304.31,45.67,304.31,45.67,304.3,45.67z M148.74,22.24c-0.01,0.15-0.01,0.31-0.01,0.46c0.01,0.46,0.08,0.9,0.32,1.32 c0.21,0,0.43,0,0.64-0.01c0.97-0.23,1.94-0.24,2.92-0.21c0.59,0.02,1.17,0.05,1.76,0.06c0.25,0,0.51-0.01,0.76-0.01 c2.07-0.29,4.15-0.26,6.23-0.26c0.69,0,1.39,0,2.08-0.02c4.57-0.1,9.13-0.21,13.7-0.31c0,0,0,0,0,0c0,0,0,0,0,0 c0.13-3.65,0.27-7.31,0.41-10.96c0.01-0.32-0.16-0.43-0.41-0.49c-8.19,0.34-16.38,0.75-24.57,1.31c-1.13,0.08-2.26,0.15-3.4,0.23 c0,0,0,0,0,0C149.03,16.31,148.89,19.27,148.74,22.24z M418.68,5.72c-1.88-0.17-3.74,0.2-5.62,0.21c-6.85,0.04-13.7,0.61-20.55,0.53 c-0.36,0-0.73,0.13-1.09,0.13c-0.86-0.01-1.18,0.35-1.24,1.24c-0.33,5.41-0.47,10.83-0.44,16.25l0.01,0.01c0,0,0,0,0,0c0,0,0,0,0,0 c2.41-0.02,4.83-0.05,7.24,0.05c0.8,0.04,1.61,0.09,2.41,0.16c0.24,0.02,0.47,0.12,0.7,0.18c0.31,0,0.62,0.01,0.93,0.01 c0.86-0.22,1.73-0.27,2.6-0.25c0.29,0.01,0.58,0.02,0.87,0.04c0.39,0.02,0.77,0.05,1.15,0.08c4.12,0.29,8.25,0.11,12.37,0.23 c0,0,0.01,0,0.01-0.01c0.01,0,0.01-0.01,0.01-0.01c0,0,0,0,0,0c0,0,0,0,0,0c0.23-4.5,0.17-9.01,0.34-13.51c0.06-1.5,0.14-3,0.28-4.5 c0.02-0.28,0.02-0.57,0.03-0.85C418.69,5.71,418.68,5.72,418.68,5.72C418.68,5.72,418.68,5.72,418.68,5.72z M480.57,4.71 C480.57,4.71,480.57,4.71,480.57,4.71c0.01,0.67,0,1.34-0.11,2.01c-0.04,0.22-0.08,0.44-0.14,0.67c0,0.16,0,0.33,0,0.49 c0.07,0.22,0.14,0.44,0.21,0.66c0,0,0,0,0,0.01c0.11-0.05,0.18-0.07,0.19-0.06c1.69-1.57,3.38-3.13,5.07-4.71 c0.57-0.54,0.69-1.03-0.29-1.21c-1.03-0.18-2.01-0.67-3.09-0.6c-0.61,0.02-1.22,0.04-1.83,0.06C480.51,2.92,480.56,3.82,480.57,4.71 z M95.23,24.7c0,0.11,0,0.21,0.01,0.32c0,0,0,0,0,0c4.53,0.09,9.04-0.16,13.56-0.33c1.51-0.06,3.01-0.1,4.52-0.12 c3.99-0.05,7.99-0.04,11.98-0.24c1.01-0.05,1.33-0.42,1.35-1.4c0.05-2.73,0.18-5.45,0.28-8.17c-0.4,0-0.79-0.03-1.19-0.03 c-0.13,0-0.26,0.01-0.39,0.01c-5.28,0.37-10.57,0.74-15.85,1.13c-4.1,0.31-8.2,0.65-12.3,0.98c-0.13,0-0.26,0.01-0.38,0.03 c-0.14,0.28-1.28,6.14-1.6,7.79C95.23,24.68,95.23,24.69,95.23,24.7z M330.86,22.34c0.02,0.06,0.03,0.12,0.03,0.18 c1.62,0.12,3.24,0.23,4.86,0.35c1.23,0.06,2.45,0.11,3.68,0.17c0.87-0.37,1.79-0.22,2.66-0.15c4.41,0.34,8.82,0.13,13.23,0.24 c0.44,0.01,0.91-0.08,1.3,0.23c0.33,0.01,0.66,0.01,0.99,0.02c1.99-0.13,2.05-0.14,1.95-2.1c-0.21-4.2-0.26-8.4-0.24-12.6 c0-0.96-0.36-1.28-1.3-1.28c-3.68,0.01-7.35,0.09-11.02,0.22c-4.98,0.17-9.96-0.09-14.95,0.19c-1.33,0.07-1.52,0.59-1.48,1.72 C330.76,13.78,330.95,18.06,330.86,22.34z M261.68,22.06c0.32,0.03,0.73,0.03,1.29,0.04c12.87,0.02,25.73,0.04,38.6,0.05 c1.84,0,1.84,0,1.84-1.78c0-4,0-7.99,0-11.99c-0.01-0.09-0.03-0.17-0.04-0.26c-0.45-0.25-0.95-0.23-1.44-0.23 c-13.09-0.01-26.18-0.03-39.27-0.04c-0.27,0-0.53-0.01-0.79,0.02c-0.26,0.03-0.51,0.1-0.75,0.25c-0.01,0.25-0.02,0.5-0.02,0.75 c-0.01,1.73-0.01,3.45-0.02,5.18c0,0.46-0.13,0.87-0.41,1.24c-0.02,1.54-0.04,3.08-0.06,4.61v0c0,0,0,0,0,0 C260.71,21.55,260.74,21.96,261.68,22.06z M457.66,25.77L457.66,25.77c1.57,0.04,3.39,0.06,5.06,0.05c0.17-0.02,0.34-0.02,0.51-0.01 c2.34-0.04,4.28-0.17,4.61-0.5c0.04-0.04,0.08-0.07,0.12-0.1c0.01-0.13,0.02-0.26,0.01-0.42c-0.05-0.54-0.08-1.08-0.1-1.62 c0-0.11-0.01-0.22-0.01-0.33c-0.02-0.53-0.03-1.06-0.03-1.59c0,0,0,0,0,0l-0.23-5.64c0,0,0,0,0,0c0-0.02,0-0.05,0-0.07l-0.16-3.75 c-0.04-0.26-0.05-0.53-0.06-0.79c0-0.08,0-0.16,0-0.24c0-0.21-0.01-0.42-0.01-0.64l-0.1-2.51c0,0,0.02,0,0.07-0.01c0,0,0,0,0,0 c-0.01-0.45-0.02-0.9-0.03-1.35c0-0.16-0.01-0.31-0.01-0.47c-0.02-0.58-0.05-1.17-0.08-1.75c-0.1-1.56-0.33-1.59-1.85-1.42 c-3,0.32-6.01,0.6-9.02,0.84c-4.51,0.36-9.03,0.68-13.54,1.01c-0.15,6.92-0.3,13.84-0.45,20.75c4.62,0.24,9.24,0.38,13.87,0.37 C456.7,25.58,457.21,25.47,457.66,25.77z M46.09,103.66c0,0.1,0,0.19,0.01,0.29c0.01,0.21,0.02,0.43-0.04,0.63 c-0.05,0.77-0.14,2.35-0.19,3.31c0,0,0,0,0,0c0.06,0.35,0.02,0.71,0.01,1.06c-0.04,1.21-0.1,2.43-0.15,3.64 c-0.08,2.02-0.14,4.04-0.05,6.07c0,0,0,0,0,0c0.29,0.05,0.57,0.06,0.86,0.05c0.85-0.04,1.71-0.28,2.56-0.08c0,0,0,0,0,0 c0.13,0.01,0.26,0.02,0.4,0.04c1.45-0.74,3.05-0.47,4.57-0.61c6.44-0.59,12.89-1.06,19.34-1.56c0.24-0.02,0.49,0.01,0.73,0.01 c0,0,0,0,0,0c0,0,0,0,0,0s0,0,0,0h0c-0.09-8.09-0.19-16.18-0.28-24.27c0,0,0,0.01,0,0.01h0c-0.65-0.02-1.3-0.05-1.95-0.05 c-4.48-0.01-8.94,0.4-13.42,0.49c-1.03,0.02-2.05,0.05-3.08,0.08c-3.08,0.1-6.16,0.25-9.23,0.47c0,0,0,0,0,0 C46.14,96.7,46.12,100.18,46.09,103.66z M6.56,122.56c0.32-0.04,0.63-0.08,0.95-0.11c0.56-0.05,1.11-0.09,1.67-0.13 c1.67-0.12,3.34-0.23,4.96-0.71c0.02-0.15,0.04-0.31,0.05-0.46c0-0.16,0-0.33,0.01-0.49c0.01-1.31,0.02-2.61,0.04-3.92 c0-0.99,0-1.98-0.01-2.97c-0.66,0.56-1.33,1.11-1.99,1.67c-1.08,0.9-2.16,1.81-3.23,2.72c-1.06,0.9-2.1,1.82-3.14,2.75 c-0.65,0.59-1.31,1.18-1.95,1.79C4.82,123.03,5.71,122.68,6.56,122.56z M19.17,27.78c0-0.01,0.01-0.01,0.01-0.01c0,0,0,0,0,0 c0,0,0,0,0,0c0.09-0.29,0.13-0.59,0.17-0.9c0.06-0.48,0.12-0.95,0.39-1.38c-0.01-0.31-0.02-0.62-0.03-0.93 c0.01-0.17,0.02-0.33,0.03-0.5c0.04-0.31,0.09-0.62,0.13-0.94c-1.15-0.04-2.29,0.02-3.43,0.1c-0.76,0.06-1.52,0.13-2.28,0.2 c-1.14,0.1-2.28,0.2-3.43,0.22c-0.2,0-0.39,0.1-0.59,0.16c-0.41,0.14-0.54,0.39-0.18,0.69c1.36,1.13,2.51,2.51,3.99,3.5 c1.73-0.07,3.47-0.14,5.2-0.21C19.16,27.79,19.16,27.79,19.17,27.78z M331.35,64.52c7.85,0.09,15.7,0.13,23.55,0.31 c1.53,0.04,3.06,0.11,4.59,0.13c0.51,0.01,1.02,0.01,1.53,0c-0.21-3.96-0.24-7.93-0.35-11.89c-0.02-0.81-0.05-1.61-0.08-2.42 c-0.06-1.59-0.15-3.18-0.28-4.76c-9.2-0.08-18.39-0.15-27.59-0.26c-1.05-0.01-1.55,0.29-1.42,1.38c0.04,0.36,0.01,0.73,0.01,1.1 c-0.02,5.39-0.04,10.78-0.06,16.17C331.28,64.36,331.31,64.44,331.35,64.52C331.35,64.52,331.35,64.52,331.35,64.52z"/></g><g id="change3_1"><path fill="#f9a69e" d="M15.18,128.47c-2.31-0.17-4.62-0.29-6.93-0.45c-1.22-0.09-2.43-0.18-3.64-0.31 c-1.17-0.12-2.34-0.28-3.5-0.47c-0.36-0.06-0.88-0.03-1.06-0.46c-0.22-0.54,0.32-0.8,0.61-1.08c0.61-0.59,1.24-1.17,1.87-1.74 c0.47-0.42,0.93-0.84,1.4-1.26c0.89,0.35,1.78-0.01,2.64-0.13c0.32-0.04,0.63-0.08,0.95-0.11c0.56-0.05,1.11-0.09,1.67-0.13 c1.67-0.12,3.34-0.23,4.97-0.71c0.11,0.01,0.23,0.03,0.34,0.04c0,0,0,0,0,0c-0.58,1.16-0.59,2.38-0.54,3.6 c0.03,0.73,0.08,1.46,0.05,2.19C13.97,128.2,15.06,127.81,15.18,128.47z M19,30.36c0.06-0.86,0.24-1.71,0.16-2.57 c-1.73,0.07-3.47,0.14-5.2,0.21c0.56,0.6,1.14,1.17,1.76,1.71c0.41,0.36,0.83,0.69,1.27,1c0.64,0.45,1.32,0.84,2.06,1.16 c0.03,0.01,0.05,0.03,0.08,0.04c0,0,0,0,0,0C18.98,31.39,18.97,30.87,19,30.36z M489.97,91.77c-0.44,0.56-1.07,0.84-1.56,1.32 c-1.58,1.52-2.19,3.53-2.91,5.49c-0.88,2.42-0.5,4.89-0.2,7.35c0.08,0.68,0.15,1.37,0.22,2.06c-0.1,0.8-0.72,0.64-1.23,0.64 c-3.35,0.01-6.71,0.01-10.06,0.01c-0.72,0-1.39,0.03-1.5,1.03c-0.09,0.86,0.48,1.96-0.39,2.51c-0.73,0.47-1.76,0.12-2.65,0.15 c-0.61,0.02-1.23,0-1.84,0.01c-0.36,0-0.76-0.06-0.96,0.36c-6.21,0.29-12.42,0.58-18.63,0.59c-1.68,0-3.35,0-5.03,0 c-0.69-0.86-0.38-1.87-0.42-2.82c-0.01-0.19-0.02-0.37-0.04-0.53c-0.02-0.13-0.05-0.25-0.09-0.36c-0.12-0.33-0.36-0.58-0.86-0.68 c-0.35,0.19-0.73,0.28-1.11,0.33c-0.13,0.01-0.25,0.02-0.38,0.03c-0.3,0.01-0.61,0.01-0.9,0.01c-6.89,0.09-13.79,0.1-20.68,0.13 c-0.32,0.25-0.45,0.56-0.5,0.92c-0.01,0.12-0.02,0.24-0.02,0.37c0.02,0.85-0.01,1.7,0.01,2.55c0.02,0.69-0.23,1.03-0.97,1.07 c-1.13,0.06-2.25,0.22-3.38,0.34c-2.32,0.14-4.65,0.35-6.97,0.4c-0.72,0.01-1.44,0.04-2.16,0.07c-0.77,0.03-1.53,0.07-2.3,0.11 c-1.17,0.06-2.34,0.14-3.51,0.21c-0.59,0.04-1.18,0.07-1.77,0.1c-2.51,0.14-5.02,0.25-7.54,0.21c-0.24,0-0.49-0.02-0.73,0.02 c-1.16,0.18-1.51-0.19-1.42-1.43c0.1-1.47,0.33-2.99-0.2-4.45c-6.24-0.04-12.48-0.05-18.71,0.22c-1.18,0.05-2.37,0-3.56,0.02 c-0.46,0.01-0.93,0.04-0.9,0.71c0.06,1.38,0.04,2.78,0.19,4.15c0.19,1.77,0.25,1.72-1.56,1.79c-0.16,0.01-0.33-0.02-0.5-0.04 c-0.17-0.02-0.34-0.05-0.51-0.05c-0.34,0-0.65,0.09-0.9,0.47c0,0,0,0,0,0c-0.31,0.02-0.62,0.05-0.94,0.07 c-0.36,0.03-0.71,0.06-1.07,0.09c-1.24,0.1-2.48,0.21-3.73,0.23c-0.75,0.02-1.5,0.04-2.25,0.07c-2.63,0.11-5.27,0.28-7.9,0.41 c-2.61,0.13-5.22,0.23-7.84,0.18c-1.63,0-3.26-0.02-4.89,0.01c-0.84,0.02-1.17-0.31-1.15-1.15c0.04-1.47,0.01-2.93,0.01-4.4 c0-2.3,0-2.3-2.33-2.09c-0.16,0.01-0.33,0.01-0.49,0.01c-1.79-0.01-3.58-0.01-5.37-0.01c-5.37,0.01-10.74,0.09-16.11,0.25 c0,0,0,0,0,0c-0.08,0.17-0.16,0.33-0.25,0.5c0.21,1.63,0.25,3.26,0.25,4.9c0,0.98-0.01,1.96,0,2.94c0,0,0,0,0,0 c0.08,0.16,0.17,0.33,0.25,0.49c-0.6,0.15-1.2,0.24-1.81,0.29c-0.61,0.05-1.22,0.07-1.83,0.09c-6.57,0.21-13.12,0.77-19.68,1.2 c-7.17,0.47-14.32,1.16-21.48,1.74c-0.21,0.02-0.43,0.03-0.64,0.04c-0.43,0.02-0.87,0.02-1.3,0.02c-0.21,0-0.42,0-0.63,0.01 c0,0,0,0,0,0c0.03-0.13,0.09-0.23,0.17-0.31c0.08-0.07,0.19-0.12,0.32-0.15c0,0,0,0,0,0c0-0.73,0.01-1.46,0.01-2.19 c0-0.49,0-0.98,0-1.46c0-2.53-0.01-5.07-0.01-7.6c-0.08-0.17-0.17-0.33-0.25-0.5c-1.36,0-2.73,0-4.09,0.01 c-5.91,0.01-11.82,0.02-17.74,0.02c-0.01,0.16-0.01,0.31-0.02,0.47c0,4.25,0.68,8.47,0.5,12.73c2.08,0.01,4.24,0.35,6.23-0.07 c2.65-0.56,5.27-0.21,7.89-0.43c-0.52,0.1-1.03,0.26-1.56,0.29c-3.34,0.23-6.69,0.45-10.03,0.65c-8.45,0.5-16.89,0.98-25.34,1.48 c-11.47,0.68-22.94,1.23-34.42,1.63c-7.97,0.28-15.95,0.22-23.92,0.44c-29.73,0.81-59.47-0.03-89.2,0.46 c-7.32,0.12-14.64,0.32-21.95,0.48c-0.53,0.01-1.06-0.04-1.59-0.06c0.04-0.19,0.14-0.3,0.27-0.37c0.13-0.07,0.28-0.09,0.44-0.1 c-0.03-0.77-0.03-1.54-0.02-2.3c0-0.01,0-0.01,0-0.02c0.01-0.77,0.04-1.55,0.07-2.32c0.07-1.55,0.16-3.1,0.2-4.65 c-0.02-0.15-0.04-0.29-0.05-0.44c0,0,0.02-0.02,0.03-0.03l-0.03,0.03l0,0c-0.14-0.02-0.29-0.03-0.43-0.05 c-2.63,0.27-5.27,0.54-7.9,0.8c-2.31,0.23-4.63,0.4-6.93,0.68c-2.87,0.35-5.76,0.49-8.64,0.83c-2.38,0.29-4.76,0.73-7.18,0.64 c-0.11-0.01-0.23-0.03-0.34-0.04c0.02-0.15,0.03-0.31,0.05-0.46c0-0.16,0-0.33,0.01-0.49c0.01-1.31,0.02-2.61,0.04-3.92 c0-0.99,0-1.98-0.01-2.97c0.08-0.24,0.21-0.44,0.37-0.6c0.16-0.16,0.36-0.28,0.61-0.35c1.19-1.42,2.52-2.71,3.92-3.93 c0.46-0.61,0.92-1.21,1.38-1.81c1.39-1.8,2.81-3.59,4.18-5.41c2-2.66,4.11-5.24,5.68-8.2c0.14-0.26,0.31-0.47,0.53-0.66 c0,0.22,0.01,0.43,0.01,0.65c0,0,0,0,0,0c4.82,0.02,9.64-0.43,14.47-0.25c0.23-0.02,0.45-0.05,0.68-0.07 c0.03,0.03,0.05,0.06,0.08,0.09c-0.02,3.48-0.04,6.96-0.07,10.44c0,0.1,0,0.19,0.01,0.29c0.01,0.21,0.02,0.43-0.04,0.63l0,0 c-0.05,0.77-0.14,2.35-0.19,3.31c0,0,0,0,0,0c0.06,0.35,0.02,0.71,0.01,1.06c-0.04,1.21-0.1,2.43-0.15,3.64 c-0.08,2.02-0.14,4.04-0.05,6.07l-0.03,0.03c0.01-0.01,0.03-0.03,0.03-0.03c0.29,0.05,0.57,0.06,0.86,0.05 c0.85-0.04,1.71-0.28,2.56-0.08c-0.11,0.39-0.36,0.51-0.65,0.54c0.28-0.03,0.53-0.15,0.65-0.54c0.13,0.01,0.26,0.02,0.4,0.04 c1.45-0.74,3.05-0.47,4.57-0.61c6.44-0.59,12.89-1.06,19.34-1.56c0.24-0.02,0.49,0.01,0.73,0.01c0,0.32,0,0.64,0,0.96 c0.16,0.21,0.2,0.44,0.22,0.68c0.01,0.08,0.01,0.16,0.02,0.24c0.07,0.8,0.12,1.6,0.16,2.4c0.07,1.6,0.09,3.2,0.1,4.8 c0,0.8,0,1.6-0.01,2.4c-0.16,0-0.33,0-0.49,0c0.16,0,0.33,0,0.49,0c5.32,0,10.64-0.01,15.95-0.01c0.08-4.07,0.17-8.15,0.25-12.22 c-0.02-0.14-0.04-0.28-0.06-0.42c-0.01,0-0.03-0.01-0.04-0.01c0,0,0,0,0,0c-0.3,0.09-1.1,0.15-1.69,0.18 c-0.03,0-0.05,0.01-0.08,0.01c-2.55,0.16-5.11,0.32-7.66,0.49c-1.11,0.08-2.23,0.16-3.34,0.24c-1.11,0.08-2.23,0.16-3.34,0.25 c-0.16,0.01-0.32,0.01-0.48,0.02h0c-0.09-8.09-0.19-16.18-0.28-24.27c0,0,0,0.01,0,0.01c0,0,0,0,0,0c0,0,0,0,0,0 c-0.65-0.02-1.3-0.05-1.95-0.05c-4.48-0.01-8.94,0.4-13.42,0.49c-1.03,0.02-2.05,0.05-3.08,0.08c-3.08,0.1-6.16,0.25-9.23,0.47 c-0.03-0.03-0.06-0.06-0.08-0.09c0,0,0,0,0,0c0.02-0.3,0.05-0.61,0.07-0.91c0.01-6.54,0.01-13.07,0.02-19.61 c-0.01-0.33-0.02-0.66-0.04-0.99c-0.57-0.03-1.14-0.01-1.71,0.02c-1.13,0.07-2.26,0.23-3.4,0.35c-0.75,0.08-1.51,0.15-2.27,0.17 c-0.19,0-0.38,0.01-0.57,0c-0.38,0-0.76-0.02-1.14-0.06v0c-0.24,0.09-0.49,0.18-0.73,0.27c-0.24-0.37-0.41-0.76-0.55-1.16 c-0.03-0.1-0.07-0.2-0.1-0.3c-0.11-0.35-0.2-0.71-0.3-1.06c-0.08-0.29-0.16-0.58-0.26-0.86c-0.96-2.68-2.35-5.16-3.52-7.74 c-1.46-3.22-1.69-6.71-1.62-10.21c0.15,0.01,0.3,0.01,0.45,0.02c2.62-0.01,5.23-0.01,7.85-0.02c2.62-0.01,5.23-0.01,7.85-0.02 c0.09-0.16,0.18-0.31,0.26-0.47c0,0,0,0,0,0c0.05-1.05,0.09-2.1,0.12-3.14c0.06-2.1,0.09-4.19,0.1-6.29 c0.01-1.05,0.01-2.1,0.01-3.15c0.01-2.52,0-5.03,0.02-7.55c0-0.49,0.04-0.97,0.09-1.46c0.05-0.49,0.1-0.97,0.14-1.46 c-0.08-0.17-0.17-0.33-0.25-0.5c-4.36-0.15-8.72,0.07-13.06,0.31c-3.1,0.17-6.19,0.07-9.28,0.2c-0.21,0.01-0.41,0.02-0.62,0.04 c-0.22,0.02-0.45,0.04-0.67,0.06c-0.33,0.03-0.66,0.07-1,0.1c-0.88,0.09-1.77,0.15-2.66,0.07c-0.05,0-0.11,0-0.16,0c0,0,0,0,0,0 c0.09-0.29,0.13-0.59,0.17-0.9c0.06-0.48,0.12-0.95,0.39-1.38c-0.01-0.31-0.02-0.62-0.03-0.93c0.26,0.1,0.35,0.28,0.38,0.48 c-0.03-0.2-0.12-0.38-0.38-0.48c0.01-0.17,0.02-0.33,0.03-0.5c0.13,0,0.25,0,0.38,0c-0.13,0-0.25,0-0.38,0 c0.04-0.31,0.09-0.62,0.13-0.94c0.6-0.26,1.23-0.35,1.86-0.38c0.38-0.02,0.76-0.03,1.14-0.04c5.25-0.23,10.5-0.61,15.73-1.13 c0.36-0.04,0.73-0.08,1.09-0.12c1.6-0.18,3.19-0.38,4.79-0.53c0.95-0.09,1.9-0.15,2.86-0.18v0c-0.03,0.07-0.06,0.14-0.09,0.21 c-0.03,0.07-0.06,0.14-0.1,0.22c-0.02,1.47-0.02,2.94-0.08,4.41c-0.04,0.83,0.24,1.22,1.11,1.18c5.47-0.27,10.94-0.29,16.41-0.64 c2.24-0.14,4.5-0.11,6.75-0.12c0.31,0,0.63-0.03,0.94-0.07c0.94-0.11,1.88-0.29,2.83-0.02c0,0.2-0.01,0.4-0.01,0.6 c-0.2,0.03-0.4,0.05-0.59,0.07c0.2-0.02,0.4-0.04,0.59-0.07c0.24,4.33-0.54,8.61-0.51,12.94c0.02,3.01-0.14,6.03-0.24,9.04 c-0.01,0.18-0.04,0.36-0.09,0.53c-0.04,0.18-0.1,0.35-0.14,0.53c0.08,0.17,0.16,0.33,0.24,0.5c0,0,0,0,0,0c0,0,0,0,0,0 c1.16,0.32,2.32,0.32,3.49,0.25c0.47-0.03,0.93-0.07,1.4-0.1c0.23-0.02,0.46-0.03,0.7-0.04c1.67-0.09,3.33-0.11,5-0.12 c2.78-0.01,5.55,0.05,8.33-0.01c0.09-0.16,0.17-0.32,0.26-0.48c0,0,0,0,0,0c0.05-0.11,0.1-0.22,0.13-0.33 c0.03-0.11,0.06-0.22,0.07-0.33c0.03-0.22,0.04-0.45,0.04-0.68c0-0.15,0-0.31,0-0.46c-0.01-3.05,0.48-6.07,0.58-9.12 c0.15-4.38,0.58-8.74,0.89-13.11c-0.02-0.14-0.05-0.28-0.07-0.42c-0.14-0.02-0.28-0.05-0.42-0.07c-2.36,0.27-4.74,0.11-7.09,0.3 c-0.51,0.04-1.03,0.07-1.54,0.1c-1.83,0.09-3.65,0.08-5.48,0.09c-1.78,0.01-3.56,0.05-5.33,0.21c0,0,0,0,0,0 c0.04-0.15,0.07-0.31,0.11-0.46c0.08-1.53,0.11-3.07,0.28-4.6c0.06-0.51,0.13-1.02,0.23-1.52c0,0,0,0,0,0 c-0.09-0.29-0.26-0.4-0.46-0.45c-0.04-0.01-0.08-0.01-0.12-0.02c-0.12-0.01-0.24-0.02-0.36-0.02c-0.05,0-0.11,0-0.16-0.01 c2.18-0.45,4.4-0.48,6.6-0.65c0.31-0.02,0.63-0.05,0.94-0.08c4.67-0.46,9.36-0.76,14.05-1.11c0.71-0.16,0.61-0.19,0.49-0.01 c0.12,0.01,0.23,0.03,0.34,0.04c-0.13,0-0.26,0.01-0.39,0.03c-0.14,0.28-1.28,6.14-1.6,7.79l0,0c0,0.01,0,0.02,0,0.02 c0,0.11,0,0.21,0.01,0.32c0,0,0,0,0,0c4.53,0.09,9.04-0.16,13.56-0.33c1.51-0.06,3.01-0.1,4.52-0.12c3.99-0.05,7.99-0.04,11.98-0.24 c1.01-0.05,1.33-0.42,1.35-1.4c0.05-2.73,0.18-5.45,0.28-8.17c3.9-0.55,7.83-0.64,11.76-0.84c0.56-0.03,1.12-0.06,1.68-0.09 c0.37-0.02,0.73-0.05,1.1-0.08c1.57-0.13,3.15-0.31,4.72-0.39c0.99-0.05,1.98-0.07,2.98-0.02c0,0,0,0,0,0 c-0.14,2.97-0.29,5.93-0.43,8.9c-0.01,0.15-0.01,0.31-0.01,0.46c0.01,0.46,0.08,0.9,0.32,1.32c-0.12,0.02-0.23,0.04-0.35,0.05 c-6.96,0-13.91-0.14-20.87,0.23c-0.21,0.01-0.41,0.02-0.59,0.07c-0.08,0.02-0.15,0.04-0.21,0.08c-0.2,0.1-0.35,0.28-0.41,0.6 c-0.96,0.05-1.92,0.06-2.88,0.05c0.96,0.01,1.92-0.01,2.88-0.05c0.05,1.39-0.11,2.76-0.2,4.14c-0.26,4.19-0.23,8.39-0.33,12.58 c-0.03,1.26-0.02,2.54-0.12,3.8c-0.03,0.38-0.07,0.76-0.12,1.14c-0.05,0.38-0.11,0.76-0.2,1.13c0.05,0.06,0.09,0.13,0.13,0.2 c0.03,0.07,0.05,0.14,0.07,0.21c0.03,0.15,0.03,0.3,0.04,0.45c0.01,0.31,0.02,0.61,0.25,0.85c1.3-0.01,2.6-0.08,3.9-0.16 s2.59-0.17,3.88-0.22c3.84-0.14,7.71-0.28,11.56-0.09c0.19,0.01,0.38-0.01,0.57-0.04c0.14-0.02,0.28-0.05,0.43-0.07 c0.42-0.07,0.85-0.12,1.28,0.07c0.14-0.02,0.28-0.04,0.42-0.06c0,0,0.02,0.03,0.04,0.06l-0.04-0.06l0,0c0.02-0.3,0.04-0.6,0.06-0.9 c0.37-1.13,0.01-2.26-0.02-3.38c-0.04-1.72-0.03-3.44,0-5.16c0.09-5.16,0.4-10.31,0.49-15.47c0.12-0.02,0.23-0.04,0.35-0.05 c0.21,0,0.43,0,0.64-0.01c0.97-0.23,1.94-0.24,2.92-0.21c0.59,0.02,1.17,0.05,1.76,0.06c0.25,0,0.51-0.01,0.76-0.01 c2.07-0.29,4.15-0.26,6.23-0.26c0.69,0,1.39,0,2.08-0.02c4.57-0.1,9.13-0.21,13.7-0.31c0.03,0.03,0.06,0.07,0.09,0.1 c-0.03-0.03-0.06-0.07-0.09-0.1c0,0,0,0,0,0c0.13-3.65,0.27-7.31,0.41-10.96c0.01-0.32-0.16-0.43-0.41-0.49 c7.4-0.62,14.81-0.94,22.21-1.29c1.06-0.05,2.12-0.1,3.17-0.15c0.2-0.01,0.4,0.02,0.61,0.04l0,0c-0.07,0.15-0.14,0.3-0.21,0.44 c-0.06,3.38-0.13,6.75-0.18,10.13c-0.02,1.78,0.05,1.92,1.86,1.82c6.32-0.34,12.65-0.02,18.96-0.29c1.08-0.05,2.16-0.07,3.24-0.08 c0.81-0.01,1.62-0.01,2.43-0.02c2.43-0.01,4.86,0,7.29-0.12c0.03-3.98,0.05-7.97,0.08-11.95c-0.09-1.45-0.09-1.45-2.27-1.47 c5.87-0.31,11.74-0.63,17.61-0.92c10.57-0.51,21.13-0.99,31.7-1.5c6.16-0.3,12.32-0.65,18.48-0.96c0.73-0.04,1.47,0.01,2.2,0.01 c-0.25,0.13-0.44,0.28-0.58,0.44c-0.13,0.15-0.22,0.31-0.29,0.49c-0.04,0.12-0.07,0.24-0.09,0.37c-0.05,0.32-0.03,0.67,0.03,1.04 c7.82,0.01,15.65,0.05,23.47,0.01c1.01-0.01,2.01-0.25,3.01,0.04c0.94-0.61,0.41-1.55,0.46-2.32c0.05-0.82,0.32-1.19,1.16-1.13 c1.1,0.07,2.16-0.16,3.23-0.37c2.28-0.25,4.57-0.33,6.85-0.39c5.76-0.16,11.51-0.64,17.28-0.73c0.16,0,0.32,0.04,0.48,0.06 c0,1.12-0.01,2.24-0.01,3.36c0,0.12,0,0.24,0,0.36c0.01,0.18,0.04,0.35,0.11,0.5c0.07,0.15,0.19,0.29,0.38,0.4 c0.2-0.06,0.41-0.15,0.61-0.19c0.07-0.01,0.13-0.02,0.2-0.02c2.66,0.14,5.3-0.2,7.95-0.29c5.27-0.19,10.54-0.12,15.8-0.26 c1.79-0.05,3.58-0.18,5.38-0.2c0.31-0.26,0.44-0.57,0.49-0.93c0.01-0.12,0.02-0.24,0.02-0.37c-0.02-0.93,0.05-1.87-0.01-2.8 c-0.05-0.74,0.16-1.1,0.64-1.24c0.32-0.02,0.65-0.04,0.97-0.06c0.92,0.04,1.85,0.12,2.76-0.13c0.63-0.04,1.26-0.08,1.9-0.13 c0.68-0.05,1.35-0.09,2.03-0.14c1-0.07,2.01-0.12,3.01-0.18c0.56-0.03,1.12-0.06,1.68-0.08c2.19-0.09,4.38-0.13,6.57-0.07 c2.61,0.05,5.2-0.39,7.82-0.28c0.76,0.03,1.14,0.24,1.11,1.06c-0.05,1.47-0.04,2.94-0.06,4.4c-1.88-0.17-3.74,0.2-5.62,0.21 c-6.85,0.04-13.7,0.61-20.55,0.53c-0.36,0-0.73,0.13-1.09,0.13c-0.86-0.01-1.18,0.35-1.24,1.24c-0.33,5.41-0.47,10.83-0.44,16.25 c-0.15-0.01-0.31-0.01-0.46-0.02c-7.8-0.17-15.59-0.6-23.39-0.57c-1.83,0.01-3.75,0.15-5.57-0.4c-0.14,0.03-0.24,0.08-0.33,0.16 c-0.08,0.08-0.14,0.19-0.17,0.32c-0.03,3.26,0.11,6.51,0.26,9.76c0.19,4.18,0.4,8.36,0.22,12.55c0.17,0,0.33,0,0.5,0 c8.77,0.3,17.55,0.23,26.32,0.24c0.05,0,0.1,0,0.15,0c0.05,0,0.1,0,0.15,0c0.3,0,0.6,0.03,0.86,0.26c0.09-0.01,0.18-0.01,0.27-0.02 c0.07,0,0.14-0.01,0.21-0.01c0.24-2.59,0.4-5.18,0.47-7.77c0.04-1.56,0.05-3.11,0.02-4.67c-0.06-2.86,0.26-5.7,0.28-8.55 c0-0.14,0.04-0.27,0.08-0.41c0.04-0.14,0.1-0.27,0.13-0.41c0-0.15,0-0.3,0-0.46c0,0,0,0,0,0c2.41-0.02,4.83-0.05,7.24,0.05 c0.8,0.04,1.61,0.09,2.41,0.16c0.24,0.02,0.47,0.12,0.7,0.18c0.31,0,0.62,0.01,0.93,0.01c0.86-0.22,1.73-0.27,2.6-0.25 c0.29,0.01,0.58,0.02,0.87,0.04c0.39,0.02,0.77,0.05,1.15,0.08c4.12,0.29,8.25,0.11,12.37,0.23c-0.01,0.15-0.02,0.3-0.03,0.44 c-0.46,6.77-0.16,13.54-0.25,20.31c-0.01,0.57,0.03,1.14,0.04,1.71c-0.01,0.01-0.03,0.03-0.04,0.04c0.01-0.01,0.03-0.03,0.04-0.04 c0,0,0,0,0,0c7.01-0.15,14.01,0.33,21.01,0.49c1,0.02,2,0.04,3,0.05c0.07-0.01,0.15-0.01,0.22-0.02c0.1,0.01,0.2,0.02,0.29,0.03 c-0.1-0.01-0.2-0.02-0.29-0.03c0.18-0.5,0.24-1,0.26-1.52c0.01-0.17,0.01-0.35,0.01-0.52c0-6.59,0.01-13.18,0.01-19.76 c-0.01-0.08-0.02-0.15-0.02-0.23c-1.11-0.25-2.23-0.34-3.35-0.39c-0.37-0.02-0.75-0.03-1.12-0.03c-0.5-0.01-1-0.02-1.49-0.03 c-5.47-0.14-10.95,0-16.42-0.3c-0.2-0.01-0.41,0-0.61-0.02c-0.2-0.02-0.39-0.08-0.57-0.21c-0.23,0.01-0.46,0.01-0.68,0.02 c0,0,0,0,0,0c0.23-4.5,0.17-9.01,0.34-13.51c0.06-1.5,0.14-3,0.28-4.5c0.02-0.28,0.02-0.57,0.03-0.85c0.18-0.01,0.35-0.02,0.53-0.04 c0.43-0.33,0.94-0.26,1.41-0.23c4.93,0.28,9.82-0.55,14.75-0.58c2.44-0.02,4.95-0.12,7.38-0.69c0,0,0,0,0,0 c-0.01-0.8,0.16-1.67,0.07-2.43c-0.03-0.25-0.08-0.5-0.18-0.72c-0.51-1.15-1.95-0.14-3.13-0.74c1.29,0,2.34,0,3.38,0 c0.02,0,0.04,0,0.07,0.01c0,0,0,0,0,0c0.02,0,0.05,0,0.07,0.01c1.61,0.18,3.22,0.23,4.83,0.22c1.59-0.01,3.18-0.08,4.76-0.15 c0.23-0.01,0.46-0.02,0.69-0.03c1.17-0.05,2.34-0.09,3.5-0.1c0.66,0,1.33,0,1.99,0.02c0.55,0.02,1.1,0.04,1.65,0.07 c1.65,0.08,3.3,0.19,4.95,0.28c0.14,0.1,0.29,0.18,0.46,0.25c0.11,0.05,0.22,0.09,0.33,0.14c0.11,0.05,0.22,0.09,0.33,0.14 c0.47,0.23,0.86,0.56,0.82,1.33c2.79-0.12,5.58-0.33,8.37-0.42c0.93-0.03,1.86-0.05,2.79-0.04c0.53,0,1.05,0.02,1.58,0.03 c0.16,0,0.33,0,0.49,0c0,0,0,0,0,0c-0.07,0.89-0.02,1.79-0.01,2.69c0,0,0,0,0,0c0.01,0.67,0,1.34-0.11,2.01 c-0.04,0.22-0.08,0.44-0.14,0.67c0,0.16,0,0.33,0,0.49c0,0,0,0,0,0c0.07,0.22,0.14,0.44,0.21,0.66c0,0,0,0,0,0.01 c0.11-0.05,0.18-0.07,0.19-0.06c0.01,0.01-0.04,0.06-0.16,0.15c-0.1,0.09-0.19,0.19-0.28,0.29c-2.52,2.89-15,24.08-17.54,28.4 c-0.27,0.65-0.5,1.31-0.69,1.99c-0.38,1.37,0.01,2.7,0.58,4c0.13,0.29,0.26,0.59,0.37,0.89c0.08,0.23,0.16,0.45,0.23,0.68 c0.04,0.14,0.07,0.28,0.1,0.41c0.04,0.18,0.07,0.35,0.09,0.53c0.02,0.15,0.03,0.29,0.03,0.44c0,0.02,0,0.04,0,0.06 c0,0.62-0.15,1.25-0.51,1.88c-1.46,0.28-2.92-0.07-4.37-0.07c-2.03,0-4.06-0.06-6.09-0.14c-1.27-0.05-2.54-0.11-3.8-0.17 c-0.13-0.01-0.26-0.01-0.39-0.02c-1.98-0.09-3.97-0.17-5.95-0.21c-0.02,5.04-0.04,10.08-0.06,15.13c0,0.16,0,0.33,0,0.49 c0,0.19,0,0.35,0,0.51c0,0.04,0,0.08,0,0.12c0,0.13,0,0.26,0.01,0.37c0,0.03,0,0.06,0,0.08c0.01,0.14,0.01,0.26,0.03,0.38 c0,0,0,0.01,0,0.01c0.01,0.11,0.03,0.2,0.05,0.28c0,0.02,0.01,0.04,0.01,0.05c0.02,0.08,0.05,0.15,0.08,0.21 c0,0.01,0.01,0.02,0.01,0.02c0.04,0.07,0.08,0.13,0.13,0.19c0,0,0.01,0.01,0.01,0.01c0.05,0.05,0.1,0.09,0.16,0.13 c0.01,0.01,0.02,0.02,0.04,0.02c0.07,0.04,0.14,0.08,0.23,0.11c0,0,0-0.01,0-0.01s23.35-0.04,24.06-0.73 c0.08-0.08,0.09-0.02,0.05,0.14c0.62,1.78,1.25,3.56,2.02,5.28c0.34,0.76,0.71,1.51,1.12,2.24c0.07,0.31,0.14,0.61,0.21,0.92 c0.06,2,0.13,4,0.19,6c0.03,1.1,0.07,2.2,0.1,3.3c0.08,0.16,0.16,0.32,0.24,0.48l0,0c-1.8,0.08-3.61,0.15-5.41,0.23 c-0.17,0.01-0.33,0.01-0.5,0.02c-0.27,0.2-0.57,0.24-0.87,0.24c-0.18,0-0.37-0.01-0.54,0c-5.15,0.25-10.31,0.49-15.46,0.72 c-0.52,0.02-1.06,0.12-1.55-0.16c-0.73,0.05-1.46,0.11-2.2,0.16c0,0,0,0,0,0c-1.11,0.11-1.6,0.16-1.82,0.54 c-0.07,0.13-0.11,0.29-0.13,0.5c-0.03,0.29-0.02,0.66-0.02,1.16c0.09,6.9,0.19,13.8,0.28,20.7c0.02,1.59,0.06,1.66,1.67,1.63 c5.23-0.07,10.46-0.16,15.69-0.24c3.72-0.05,7.44,0.03,11.16-0.21c0.91-0.06,1.24-0.37,1.18-1.25c-0.13-2.04-0.17-4.08-0.35-6.11 c-0.53-5.97-0.75-11.96-1.13-17.94c3.24-0.48,6.5-0.54,9.76-0.49c2.45,1.71,4.95,3.35,6.77,5.81c0.53,0.71,1.25,1.24,2.08,1.6 C490.43,90.63,490.52,91.07,489.97,91.77z M442.34,25.21c4.62,0.24,9.24,0.38,13.87,0.37c0.49,0,1-0.11,1.45,0.19h0 c1.57,0.04,3.39,0.06,5.06,0.05c0,0,0,0,0,0c0.17-0.02,0.34-0.02,0.51-0.01h0c2.34-0.04,4.28-0.17,4.61-0.5 c0.04-0.04,0.08-0.07,0.12-0.1l0,0c0.01-0.13,0.02-0.26,0.01-0.42c-0.05-0.54-0.08-1.08-0.1-1.62c0-0.11-0.01-0.22-0.01-0.33 c-0.02-0.53-0.03-1.06-0.03-1.59c0,0,0,0,0,0l-0.23-5.64c0,0,0,0,0,0c0-0.02,0-0.05,0-0.07v0l-0.16-3.75v0 c-0.04-0.26-0.05-0.53-0.06-0.79c0-0.08,0-0.16,0-0.24c0-0.21-0.01-0.42-0.01-0.64l-0.1-2.51c0,0,0.02,0,0.07-0.01l0,0c0,0,0,0,0,0 c-0.01-0.45-0.02-0.9-0.03-1.35c0-0.16-0.01-0.31-0.01-0.47c-0.02-0.58-0.05-1.17-0.08-1.75c-0.1-1.56-0.33-1.59-1.85-1.42 c-3,0.32-6.01,0.6-9.02,0.84c-4.51,0.36-9.03,0.68-13.54,1.01C442.64,11.37,442.49,18.29,442.34,25.21z M19.18,108.93l-0.01-0.01 C19.17,108.93,19.18,108.93,19.18,108.93L19.18,108.93z M330.58,9.5c0.18,4.28,0.37,8.56,0.28,12.84c0.02,0.06,0.03,0.12,0.03,0.18 c1.62,0.11,3.24,0.23,4.86,0.35c-1.21,0.34-2.43,0.22-3.66,0.19c1.22,0.03,2.45,0.15,3.66-0.19c1.23,0.06,2.46,0.11,3.68,0.17 c0.87-0.37,1.79-0.22,2.66-0.15c4.41,0.34,8.82,0.13,13.23,0.24c0.44,0.01,0.91-0.08,1.3,0.23c-0.06,0.05-0.13,0.08-0.2,0.11 c0.07-0.03,0.13-0.06,0.19-0.11c0.33,0.01,0.66,0.01,0.99,0.02c1.99-0.13,2.05-0.14,1.95-2.1c-0.21-4.2-0.26-8.4-0.24-12.6 c0-0.96-0.36-1.28-1.3-1.28c-3.68,0.01-7.35,0.09-11.02,0.22c-4.98,0.17-9.96-0.09-14.95,0.19C330.72,7.86,330.53,8.38,330.58,9.5z M305.53,20.47c0.02-0.06,0.03-0.11,0.05-0.17h0C305.57,20.35,305.55,20.41,305.53,20.47z M260.62,19.9 C260.62,19.9,260.62,19.9,260.62,19.9c0.09,1.65,0.12,2.06,1.06,2.16c0.32,0.03,0.73,0.03,1.29,0.04 c12.87,0.02,25.73,0.04,38.6,0.05c1.84,0,1.84,0,1.84-1.78c0-4,0-7.99,0-11.99c0.26,0.11,0.37,0.27,0.43,0.46 c-0.05-0.18-0.17-0.35-0.42-0.46c-0.01-0.09-0.03-0.17-0.04-0.26c-0.45-0.25-0.95-0.23-1.44-0.23c-13.09-0.01-26.18-0.03-39.27-0.04 c-0.27,0-0.53-0.01-0.79,0.02c-0.26,0.03-0.51,0.1-0.75,0.25l0,0c-0.01,0.25-0.02,0.5-0.02,0.75c-0.01,1.73-0.01,3.45-0.02,5.18 c0,0.46-0.13,0.87-0.41,1.24C260.66,16.82,260.64,18.36,260.62,19.9L260.62,19.9z M177.68,47.6c0.02,0.15,0.03,0.3,0.05,0.45 c2.66-0.16,5.33-0.19,7.99-0.24c1.07-0.02,2.13-0.04,3.2-0.08c0.53-0.02,1.07-0.04,1.6-0.07c1.46-0.07,2.93-0.1,4.39-0.11 c2.44-0.01,4.89,0.03,7.33,0.03c0.12-0.01,0.23-0.03,0.35-0.04c0,0,0,0,0,0c0.04,4.23,0.06,8.46,0.12,12.68 c0.05,3.86-0.49,3.32,3.38,3.37c0.23,0,0.45-0.02,0.68-0.02c0.08,0,0.15,0,0.23,0c0.19,0,0.38,0.04,0.56,0.09h0 c3.2-0.08,7.53-0.18,11.83-0.27c0,0,0,0,0,0c0.11-0.03,0.22-0.04,0.34-0.05c0.13,0,0.26,0.01,0.39,0.01c0.07,0,0.13,0.01,0.19,0 c0.18,0,0.36,0,0.54,0c7.27-0.14,14.07-0.21,14.79-0.03c0.09-0.01,0.18-0.03,0.25-0.06c0,0,0.01,0,0.01,0 c0.22-0.07,0.38-0.17,0.5-0.33c0.01-0.02,0.03-0.03,0.04-0.05c0.03-0.04,0.05-0.09,0.07-0.13c0.02-0.04,0.03-0.07,0.05-0.11 c0.02-0.04,0.03-0.09,0.04-0.14c0.01-0.06,0.02-0.12,0.03-0.19c0.01-0.04,0.01-0.09,0.02-0.13c0.01-0.12,0.02-0.25,0.01-0.39 c-0.07-4.37-0.02-8.74-0.01-13.11c0-0.53,0.05-1.06,0.08-1.59c0.09,0,0.17,0,0.26,0c-0.09,0-0.17,0-0.26,0 c-0.04-0.16-0.08-0.33-0.12-0.49c0.94-0.01,1.88-0.03,2.82-0.06c0.98-0.03,1.96-0.06,2.94-0.09c5.76-0.2,11.53-0.5,17.3-0.33 c0.16,0,0.32-0.01,0.48-0.01c-0.07,0.65-0.19,1.29-0.21,1.94c-0.09,4.61-0.17,9.22-0.24,13.83c-0.02,1.66,0,1.56,1.71,1.69 c1.07,0.08,2.14,0.11,3.21,0.13c1.79,0.03,3.57,0.01,5.36,0.08c0.82,0,1.64,0.01,2.45,0.01c-0.01,0.06-0.03,0.11-0.05,0.16 c0.02-0.05,0.03-0.1,0.05-0.16c1.64-0.02,3.27-0.04,4.91-0.04c1.64,0,3.27,0.03,4.91,0.1c3.11-0.02,6.22-0.28,9.32,0.17 c-0.2,0.15-0.42,0.21-0.64,0.23c0.22-0.02,0.44-0.08,0.64-0.23c1.45-0.17,2.9-0.23,4.36-0.22c0.48,0,0.97,0.01,1.45,0.02 c0.28,0.01,0.55,0.02,0.83,0.03c0.55,0.02,1.11,0.04,1.66,0.07c1.66,0.07,3.32,0.15,4.98,0.14c0.04-0.11,0.08-0.21,0.13-0.32l0,0 c-0.03-0.16-0.05-0.32-0.07-0.48c-0.05-0.48-0.03-0.96,0.08-1.44c0.39,0.48,0.49,0.97,0.29,1.45c0.2-0.48,0.09-0.96-0.29-1.45 c-0.04-0.28-0.11-0.56-0.1-0.84c0.01-0.64,0.01-1.28,0-1.92c-0.04-4.47-0.43-8.93-0.57-13.4c8.85-0.01,17.7-0.02,26.54-0.03 c0,0,0,0,0,0c0.27-0.27,0.38-0.58,0.37-0.98c-0.13-7.19-0.24-14.38-0.36-21.58c-0.01-0.08-0.01-0.15-0.02-0.23 c-0.5-0.17-1.01-0.24-1.53-0.26c-0.17-0.01-0.35-0.01-0.52-0.01c-7.68,0.08-15.35-0.08-23.03-0.24c-0.41-0.01-0.82,0.04-1.18-0.23 c-0.24,0-0.49,0-0.73,0c-0.08,0.16-0.17,0.32-0.25,0.48c0,0,0,0,0,0c0.04,2.4,0.11,4.81,0.17,7.21c0.06,2.4,0.12,4.81,0.13,7.21 c0.01,2.88,0.5,5.75,0.41,8.65c-0.01,0-0.01,0-0.02,0c0,0,0,0,0,0c0,0,0.01,0.01,0.02,0.01c0.12,0.35-18.07,0.43-31.14,0.44 c0,0,0,0,0,0c-0.13,0-0.26,0-0.39,0c0,0,0,0,0,0c-7.12,0.01-12.63-0.01-12.63-0.01l0,0c0-0.16,0-0.32,0-0.48 c0-4.32-0.05-8.63,0.03-12.95c0.07-3.37,0.3-6.73,0.46-10.1c-0.08-0.15-0.17-0.31-0.25-0.46c-0.03-0.52-0.34-1.06-0.24-1.57 c-0.1,0.51,0.21,1.05,0.24,1.57c-7.03-0.01-14.07-0.01-21.1-0.03c-0.9,0-1.8,0.05-2.67,0.27c-0.01,2.97,0.04,5.93,0.16,8.9 c0.18,4.43,0.05,8.87,0.05,13.31c0,0.27,0,0.53-0.02,0.79c-0.03,0.26-0.09,0.52-0.22,0.76h0c0,0.05,0,0.1,0,0.15 c0.11,0.15,0.13,0.26,0.01,0.33c-1.42,0.86-23.65,0.88-31.34,0.85c0,0,0,0,0,0c-0.36,0.1-0.74,0.13-1.11,0.11c-0.02,0-0.03,0-0.05,0 c-0.12-0.01-0.25-0.02-0.37-0.03c-0.15-0.01-0.29-0.03-0.44-0.04c-0.21-0.02-0.42-0.04-0.63-0.04c0.01-0.11,0.02-0.23,0.03-0.34 c-0.15-0.21-0.21-0.42-0.17-0.62c0.03-0.12,0.09-0.25,0.19-0.37c0.01-1.12-0.02-2.23-0.06-3.35c-0.03-0.74-0.06-1.49-0.08-2.23 c-0.04-1.11-0.06-2.23-0.04-3.34c0.09-4.32,0.15-8.64,0.2-12.96c0.01-1.06-0.38-1.43-1.44-1.44c-1.15,0-2.27,0.25-3.41,0.25 c-3.37,0.01-6.74,0-10.1,0.02c-3.37,0.02-6.73,0.08-10.1,0.24c-0.15,0.01-0.3,0.02-0.46,0.03c-0.01,0.07-0.02,0.14-0.03,0.21 C177.11,31.58,177.28,39.59,177.68,47.6z M302.79,82.05C302.79,82.05,302.79,82.05,302.79,82.05c-0.03-0.05-0.05-0.12-0.08-0.16 C302.74,81.94,302.76,82.01,302.79,82.05z M302.89,72.35C302.89,72.35,302.89,72.35,302.89,72.35c-0.16,0.01-0.21,0.11-0.23,0.22 C302.68,72.46,302.74,72.36,302.89,72.35z M283.98,84.85c0.41,0,0.82,0,1.23,0c0-0.01,0.01-0.02,0.01-0.03 c0.02-0.06,0.05-0.12,0.09-0.17c-0.03,0.05-0.06,0.11-0.09,0.17c0,0.01-0.01,0.02-0.01,0.03C284.8,84.85,284.39,84.85,283.98,84.85z M202.49,63.78c-3.63,0-7.27-0.17-10.88,0.06c-3.95,0.24-7.92,0.07-11.87,0.39c-1.14,0.09-1.39,0.57-1.28,1.55 c0.38,3.56,0.45,7.15,0.64,10.73c0.2,3.74,0.46,7.48,0.63,11.23c0.41,0.01,0.82,0.07,1.22,0.02c2.46-0.28,4.93-0.47,7.41-0.45 c1.2,0.01,2.4,0,3.6-0.02c3.6-0.06,7.19-0.23,10.78-0.45c0,0,0,0,0,0c0.27-0.07,0.43-0.23,0.49-0.51c-0.1-2.79-0.21-5.58-0.31-8.36 c-0.04-1.16-0.08-2.31-0.11-3.47c-0.09-3.47-0.14-6.94-0.09-10.41l0,0C202.57,63.91,202.49,63.78,202.49,63.78z M147.83,62.78 c0.06,0.19,0.17,0.39,0.16,0.58c-0.08,2.09,0.52,1.98,2.24,1.8c2.56-0.28,5.14-0.2,7.71-0.34c4.44-0.25,8.9-0.16,13.35-0.36 c2-0.09,4-0.15,6-0.19c0.65-0.01,1.08-0.13,1.04-0.97c-0.25-5.05-0.46-10.1-0.69-15.16c-0.57-0.02-1.14-0.06-1.71-0.05 c-5.58,0.16-11.15,0.33-16.73,0.49c-3.22,0.09-6.43,0.16-9.65,0.26c-0.33,0.01-0.66,0.08-0.99,0.15c-0.11,0.02-0.22,0.04-0.33,0.06 l0,0c-0.09,1.72-0.17,3.44-0.26,5.16c0,0,0,0,0,0c-0.06,0.71-0.08,1.43-0.07,2.14C147.93,58.5,148.15,60.64,147.83,62.78z M93.46,52.61c-0.2,4.72-0.66,9.43-0.73,14.17c-0.01,0.95,0.38,1.24,1.25,1.14c0.77-0.09,1.54-0.2,2.32-0.2 c3.56-0.01,7.09-0.42,10.64-0.6c6.07-0.3,12.14-0.67,18.22-0.91l0.07,0.08c-0.02-0.02-0.07-0.08-0.07-0.08 c0.09-0.48,0.23-0.95,0.27-1.43c0.36-4.52,0.19-9.05,0.27-13.58c0.03-1.65,0.01-1.66-1.6-1.64c-7.56,0.09-15.12,0.17-22.67,0.28 c-2.24,0.03-4.49,0.14-6.73,0.19c-0.24,0.01-0.46,0.04-0.66,0.12c-0.1,0.04-0.19,0.09-0.28,0.16c-0.09,0.06-0.17,0.14-0.25,0.24 c0,0,0,0,0,0c-0.01,0.33-0.03,0.65-0.04,0.98c-0.1-0.01-0.19-0.01-0.28-0.01c0.09,0,0.18,0,0.28,0.01 C93.45,51.88,93.47,52.25,93.46,52.61z M46.15,64.73c-0.01-0.38-0.01-0.75-0.02-1.13C46.14,63.98,46.14,64.36,46.15,64.73 L46.15,64.73z M73.62,69.39c0.08-0.08,0.16-0.15,0.24-0.23v0c0.09-5.63,0.19-11.27,0.27-16.9c0.03-1.76,0.01-1.75-1.73-1.76 c-8.22-0.03-16.43,0.4-24.64,0.48c-1.13,0.01-1.38,0.48-1.37,1.48c0.03,3.84,0,7.68-0.01,11.52c0,0.07,0,0.13,0,0.2 c0,0.13,0.01,0.26,0.01,0.4c0,0-0.12,2.81-0.09,4.73c0,0,0,0,0,0c0.02,0.09,0.03,0.17,0.04,0.26c0,0.03,0.01,0.06,0.01,0.09 c0.01,0.11,0.01,0.22,0.01,0.33c-0.1,1.22,0.54,1.48,1.58,1.36c0.89-0.1,1.78-0.17,2.68-0.23c2.52-0.19,5.04-0.34,7.55-0.57 C63.3,70.07,68.45,69.6,73.62,69.39z M90.89,91.23c0.13,0,0.25-0.01,0.38-0.01c0.25-1.05,0.38-2.11,0.44-3.18 c0.04-0.64,0.04-1.28,0.03-1.91c-0.11-4.94,0.68-9.84,0.56-14.78c-0.01-0.22,0-0.44,0.02-0.67c0.04-0.67,0.16-1.34,0.22-2.01 c-0.05-0.21-0.16-0.35-0.32-0.45c-0.06-0.03-0.12-0.06-0.18-0.08c0.19-1.01,0.24-2.02,0.25-3.04c-0.01,1.02-0.06,2.03-0.25,3.04 c-3.91,0.14-7.81,0.36-11.7,0.66c-1.3,0.1-2.6,0.21-3.89,0.34c-0.69,0.06-1.39,0.01-2.08,0.01c0.13-0.17,0.23-0.31,0.32-0.46 c-0.09,0.14-0.19,0.29-0.32,0.46c-0.03,0-0.06,0-0.08,0.01c-0.05,0-0.1,0.01-0.14,0.01c-0.33,2.02-0.27,4.05-0.27,6.08 c0,4.31-0.01,8.63,0,12.94c0,0.35-0.01,0.69-0.05,1.04c-0.04,0.34-0.1,0.68-0.2,1.01c0.01,0.58-0.06,1.17,0.25,1.7 c-0.01,0.09-0.02,0.18-0.03,0.27c0,0,0,0,0,0c0.01-0.09,0.02-0.18,0.03-0.27c4.16-0.53,8.38,0.12,12.53-0.65 c0.3-0.06,0.6-0.09,0.9-0.1c0.91-0.04,1.84,0.06,2.76,0.06C90.34,91.25,90.62,91.24,90.89,91.23z M125.37,113.5 c0.43-1.57,0.12-3.14,0.08-4.72c-0.03-1.59-0.06-3.17-0.09-4.76c-0.08-4.76-0.12-9.51-0.18-14.27c0.16,0,0.31,0.01,0.47,0.01 c1.63-0.09,3.25-0.2,4.88-0.27c5.66-0.24,11.31-0.47,16.97-0.7c0,0,0,0,0,0c0.69-0.33,0.68-1.01,0.67-1.59 c-0.03-2.8-0.15-5.6-0.17-8.4c-0.03-3.96-0.01-7.93-0.01-11.89c0-0.21,0.01-0.43,0-0.64c-0.01-0.35-0.07-0.7-0.25-1.03 c-2.86-0.17-5.7,0.2-8.55,0.29c-1.11,0.04-2.22,0.08-3.32,0.13c-3.32,0.15-6.65,0.36-9.97,0.54c0,0,0,0,0,0 c-0.22,0.03-0.45,0.06-0.67,0.09c-0.02,0.14-0.03,0.28-0.05,0.42c0.31,0.44,0.23,0.94,0.22,1.42c-0.07,3.62-0.18,7.24-0.23,10.86 c-0.03,2.57-0.02,5.14-0.02,7.7c0,0.86,0,1.71,0,2.57c0.01,0.16,0.01,0.31,0.02,0.47c-4.97,0.08-9.93,0.34-14.89,0.61 c-5.69,0.3-11.4,0.29-17.07,0.85c-0.12,0.01-0.24,0.02-0.36,0.02c-0.36,0-0.73-0.05-1.1-0.06c0,0-0.02-0.07-0.02-0.07 c-0.07,0.05-0.13,0.1-0.2,0.15h0c0,0,0,0,0,0c0,0,0.03,0.02,0.03,0.02c0,0,0,0,0,0c-0.08,0.4-0.21,0.79-0.22,1.19 c-0.18,7.6-0.35,15.2-0.52,22.8c5.13-0.19,10.25-0.6,15.37-0.9C112.58,113.97,118.98,113.77,125.37,113.5z M148.24,127.95 c-0.01-5.04-0.02-10.09-0.03-15.13c-0.12-0.07-0.24-0.13-0.36-0.2c-0.04-0.02-0.07-0.04-0.11-0.06c-2.41,0.23-4.84,0.21-7.25,0.21 c-1.45,0-2.9,0.01-4.35,0.09c-1.67,0.09-3.33,0.22-4.99,0.32c-0.83,0.05-1.67,0.09-2.5,0.11c-0.42,0.01-0.83,0.02-1.25,0.02 c-0.42,0-0.83,0-1.25-0.01c-0.01,0.01-0.02,0.01-0.03,0.02c-0.14,0.08-0.28,0.17-0.42,0.25c-0.02,0.07-0.03,0.15-0.05,0.22 c-0.07-0.08-0.15-0.16-0.22-0.23c0.07,0.08,0.15,0.16,0.22,0.23c0,0.16-0.01,0.33-0.01,0.49c-0.19-0.02-0.37-0.02-0.55-0.01 c0.18-0.01,0.36-0.01,0.55,0.01c-0.06,2.14-0.01,4.28,0.06,6.42c0.02,0.71,0.05,1.43,0.08,2.14c0.04,1.14,0.08,2.28,0.1,3.42 c0.01,0.57,0.02,1.14,0.02,1.71C133.35,127.96,140.8,127.96,148.24,127.95C148.24,127.95,148.24,127.95,148.24,127.95z M180.64,110.31c-0.24-5.42-0.45-10.84-0.68-16.26c-0.09-2.08-0.21-4.16-0.32-6.23c-1.34-0.01-2.68,0-4.02,0.03 c-0.68,0.01-1.35,0.03-2.03,0.05c-0.67,0.02-1.35,0.05-2.02,0.08c-7.26,0.35-14.52,0.57-21.78,0.76c-1.22,0.03-1.62,0.35-1.61,1.6 c0.06,6.86,0.05,13.71,0.06,20.57c0,0.57-0.03,1.15,0.25,1.68c0.16,0,0.33-0.01,0.49-0.01c0.52-0.08,1.05-0.2,1.57-0.22 c4.62-0.11,9.24-0.09,13.85-0.34c4.98-0.28,9.97-0.05,14.94-0.41C180.26,111.54,180.69,111.27,180.64,110.31z M204.23,126.04 c0.05-1.84,0.02-3.68-0.06-5.52c-0.05-1.22-0.12-2.45-0.19-3.67c-0.1-1.84-0.21-3.67-0.28-5.51c0,0,0,0,0,0l0,0 c-2.75,0-5.5-0.02-8.25-0.02c-2.75,0-5.5,0.01-8.25,0.07c-1.82,0.04-3.65,0.17-5.48,0.19c-0.68,0.01-1.1,0.24-1.1,0.98c0,0,0,0,0,0 c0.09,0.19,0.16,0.38,0.19,0.58c0.04,0.2,0.05,0.4,0.05,0.61c-0.08,3.74,0.42,7.47,0.25,11.22c-0.03,0.7,0.05,1.38,0.22,2.06 c4.57-0.21,9.14,0.38,13.72-0.4c2.25-0.39,4.63-0.09,6.95-0.07c0.2,0,0.39,0,0.58-0.01c0.14-0.01,0.29-0.02,0.42-0.05 C203.45,126.42,203.85,126.29,204.23,126.04C204.23,126.04,204.23,126.04,204.23,126.04z M236.26,122.19 c-0.07,0.27-0.19,0.52-0.52,0.55c0,0,0,0,0,0C236.07,122.72,236.19,122.47,236.26,122.19z M259.67,85.33 c0.01,0.06,0.01,0.11,0.02,0.17C259.68,85.44,259.67,85.38,259.67,85.33c0.01-0.07,0.01-0.15,0.02-0.22 c0-7.03,0.01-14.06,0.01-21.08c0,0,0,0,0,0c-0.17-0.09-0.34-0.18-0.51-0.27c-1.38-0.33-2.78-0.29-4.17-0.23 c-0.84,0.04-1.67,0.08-2.51,0.05c-4.65-0.15-9.31-0.04-13.96-0.05c-0.16,0-0.33,0-0.49,0.01c-0.49,0.02-0.97,0.09-1.44,0.25 c-0.09,2.38-0.06,4.76,0.01,7.14c0.02,0.79,0.05,1.59,0.08,2.38c0.07,1.9,0.15,3.81,0.2,5.71c0.05,2.11,0.16,4.22,0.17,6.33 c-0.17,0-0.33,0-0.5,0c0.17,0,0.33,0,0.5,0c0.01,0.16,0.02,0.31,0.03,0.46c-0.01,0.1-0.02,0.21-0.03,0.31 c-0.03-0.01-0.05-0.01-0.08-0.01c0,0,0,0,0,0c0.07,0.14,0.11,0.22,0.11,0.22l-26.05,0.36c0,0,0,0,0,0c-0.15,0.04-0.3,0.07-0.45,0.08 c-0.02,0-0.04,0.01-0.07,0.01c-0.15,0.02-0.3,0.03-0.45,0.03c-0.02,0-0.04,0-0.06,0c-0.31,0-0.62-0.01-0.94-0.03 c-0.27-0.01-0.55-0.02-0.82-0.01c-1.26,0.07-2.53,0.05-3.8,0.04c-0.93-0.01-1.32,0.41-1.29,1.35c0.04,1.67,0.01,3.35,0,5.02 c-0.01,0-0.01-0.01-0.02-0.01c0.01,0,0.01,0.01,0.02,0.01c0.08,2.21,0.18,4.41,0.27,6.62s0.17,4.41,0.21,6.62 c0.03,1.47,0.04,2.94,0.03,4.41c0.19,0.06,0.34,0.15,0.44,0.3c0.03,0.05,0.05,0.1,0.07,0.17c2.3,0.11,4.59-0.38,6.89-0.16 c0,0,0,0,0,0c0.29-0.23,0.62-0.27,0.94-0.26c0.13,0,0.26,0.01,0.39,0.02c0.07,0,0.13,0,0.2,0c7.92-0.03,15.83-0.04,23.75-0.07 c0.57,0,1.15,0.08,1.66-0.26c-0.42,0.02-0.94-18.25-0.94-18.25c0.01-0.02,0.03-0.02,0.04-0.03l0,0c-0.02-0.64-0.03-1.28-0.03-1.93 c-0.01-1.35-0.02-2.69-0.03-4.04h0c-0.03-0.07-0.04-0.14-0.03-0.21c0.01-0.1,0.02-0.21,0.03-0.31c3.2-0.04,6.4,0.07,9.6-0.01 c1.07-0.03,2.14-0.08,3.2-0.16c0.4-0.03,0.81-0.06,1.21-0.08C253.97,85.39,256.82,85.41,259.67,85.33z M306.4,108.96 c0-0.03,0-0.05,0-0.08c-0.09-2.2-0.06-4.41-0.08-6.61c0-0.4,0-0.8-0.01-1.2c-0.48-1.54-0.27-3.15-0.39-4.72 c-0.14-1.88-0.12-3.78-0.1-5.68c0-0.63,0.01-1.26,0-1.89c0-0.04,0-0.08,0-0.12c0-0.12,0-0.24,0-0.36c0.05-0.06,0.08-0.12,0.12-0.17 c0.1-0.15,0.18-0.3,0.23-0.46c-0.06,0.16-0.14,0.31-0.23,0.46c-0.04,0.06-0.07,0.12-0.12,0.17c-0.13-0.26-0.19-0.52-0.21-0.79 c-0.04-0.45,0.02-0.9,0-1.35c-0.03-0.76-0.37-1.06-1.12-1.09c-0.45-0.02-0.9,0-1.35,0.02c-0.73,0.03-1.46,0.04-2.17-0.18 c-0.02-0.01-0.05-0.01-0.07-0.02c-0.16,0-0.32,0-0.47,0c-0.73,0-1.46,0-2.19,0c-1.4,0.32-2.81,0.3-4.21,0.02 c-0.81,0-1.63-0.01-2.44-0.01c0,0,0,0,0,0c-0.19,0-0.39,0-0.58,0c-0.21,0-0.42,0-0.64,0c-1.64,0.05-3.29,0.11-4.93,0.16 c-5.23,0.3-10.47,0.3-15.7,0.29c-2.78-0.01-5.56-0.02-8.33-0.01c0,0,0,0,0,0c-0.25,0-0.49,0-0.74,0.01c-0.32,0.1-0.64,0.2-0.96,0.29 c0,0,0,0,0,0c0,0.07-0.01,0.14-0.03,0.2c0,1.8,0,3.59,0,5.39c0.01,0.9,0.01,1.8,0.02,2.7c0.13,0.21,0.2,0.41,0.2,0.62 c0,0.2-0.06,0.4-0.18,0.6c0,0.01-0.01,0.01-0.01,0.02c0.01,0.3,0.01,0.61,0.02,0.91c0.06,2.97,0.11,5.94,0.17,8.91 c0.49,1.3,0.18,2.66,0.24,3.99c0.02,0.33,0.03,0.57,0.05,0.78c0.01,0.09,0.02,0.18,0.04,0.26c0,0.02,0.01,0.03,0.01,0.05 c0.05,0.22,0.13,0.35,0.28,0.43c0.01,0,0.01,0.01,0.02,0.01c0.05,0.02,0.1,0.04,0.16,0.05c0.02,0.01,0.05,0.01,0.07,0.02 c0.06,0.01,0.13,0.02,0.2,0.03c0.04,0,0.09,0.01,0.14,0.01c0.07,0,0.14,0.01,0.22,0.01c0.14,0,0.28,0,0.45,0 c8.87,0,17.75-0.11,26.62,0.05c5.4,0.09,10.79,0.1,16.18,0.13c1.12,0.01,1.57-0.05,1.75-0.48c0-0.01,0.01-0.02,0.02-0.03 c0.03-0.07,0.04-0.17,0.05-0.26c0-0.03,0.01-0.05,0.01-0.07c0.01-0.1,0.01-0.22,0.01-0.35c0-0.04,0-0.06,0-0.1 C306.41,109.35,306.41,109.16,306.4,108.96z M331.36,84.87c0-0.49,0-0.99-0.01-1.48c0-0.33,0-0.65,0-0.98c0-0.41,0-0.82,0-1.23 c0-5.07,0-10.13,0-15.2c0-0.49,0-0.97,0-1.46c0,0,0,0,0,0c7.85,0.09,15.7,0.13,23.55,0.31c1.53,0.04,3.06,0.11,4.59,0.13 c0.51,0.01,1.02,0.01,1.53,0c0,0,0,0,0,0c-0.21-3.96-0.24-7.93-0.35-11.89c-0.02-0.81-0.05-1.61-0.08-2.42 c-0.06-1.59-0.15-3.18-0.28-4.76c-9.2-0.08-18.39-0.15-27.59-0.26c-1.05-0.01-1.55,0.29-1.42,1.38c0.04,0.36,0.01,0.73,0.01,1.1 c-0.02,5.39-0.04,10.78-0.06,16.17c-0.37,0-0.75-0.01-1.12-0.01c-0.26,0.18-0.54,0.25-0.82,0.26c-0.14,0.01-0.28,0-0.43-0.01 c-0.14-0.01-0.28-0.02-0.42-0.04c-6.08-0.49-12.17-0.11-18.25-0.22c-0.64-0.01-1.28-0.08-1.92-0.14c-0.8-0.07-1.6-0.13-2.39-0.02 c-0.27,0.04-0.53,0.09-0.8,0.17c-0.01,0.16-0.02,0.32-0.03,0.48c0,0,0,0,0,0c0.42,6.12,0.22,12.26,0.27,18.39 c0.09,0.2,0.18,0.41,0.2,0.61c0.02,0.2-0.02,0.41-0.19,0.61c0,0,0,0,0,0c0.02,0.14,0.08,0.24,0.16,0.33s0.19,0.14,0.32,0.17 c-0.01,0.09-0.02,0.19-0.01,0.28c-0.01-0.09,0-0.18,0.01-0.28c1.15,0.15,2.3,0.17,3.46,0.14c1.15-0.02,2.3-0.09,3.46-0.11 C318.94,84.8,325.15,84.87,331.36,84.87z M346.65,83.31c-0.02,0.15-0.1,0.22-0.21,0.25C346.55,83.54,346.64,83.46,346.65,83.31 c-0.01-0.04-0.02-0.09-0.04-0.12C346.63,83.23,346.65,83.27,346.65,83.31z M442.99,83.78c-0.23,0.08-0.45,0.3-0.67,0.59 c-0.01-5.88-0.01-11.77-0.02-17.65c-0.06-0.27-0.22-0.45-0.49-0.51c-3.6,0-7.21,0.11-10.81,0.02c-0.51-0.01-1.03-0.03-1.54-0.06 c-2.61-0.12-5.21-0.17-7.81-0.17c-0.97,0-1.95,0.08-2.92,0.16c-0.32,0.03-0.65,0.05-0.97,0.07c-0.01-0.11-0.02-0.21-0.03-0.32 c0-0.57,0-1.14,0-1.7c-0.01-5.68-0.01-11.37-0.02-17.05c-0.5-0.21-1.02-0.27-1.55-0.27c-4.69-0.08-9.37-0.16-14.06-0.26 c-2.85-0.06-5.7,0.06-8.55-0.19c-1.53-0.13-3.09-0.17-4.64,0.05c-0.12,6.02-0.24,12.04-0.37,18.06c0,0.12,0,0.24,0.02,0.35 c0.05,0.33,0.21,0.6,0.5,0.83c-0.25,0.01-0.5,0.01-0.75,0.02c-0.01-0.07-0.02-0.14-0.02-0.22c-3.31-0.11-6.62-0.16-9.94-0.19 c-5.52-0.05-11.04-0.08-16.56-0.34c-0.26-0.01-0.51-0.02-0.77-0.02c0.01,0.26,0.02,0.51,0.03,0.77c0.25,0.31,0.24,0.68,0.24,1.05 c-0.02,3.22,0.01,6.44,0.25,9.66c0.18,2.48,0.32,4.95,0.48,7.43c0.01,0.35-0.35,0.79,0.26,0.99c-0.01,0.12-0.03,0.24-0.04,0.36 c-0.78-0.17-1.57-0.27-2.36-0.31c-0.27-0.01-0.53-0.02-0.8-0.02c-9.24,0-18.48-0.01-27.71-0.02c-0.17,8.08,0.13,16.16-0.23,24.24 c-0.05,1.08,0.5,1.29,1.43,1.28c10.01-0.07,20.03-0.01,30.04-0.28c0.16,0,0.33-0.01,0.49-0.01c0.54-0.03,0.8-0.23,0.76-0.84 c-0.2-3.05-0.51-6.09-0.7-9.15c-0.08-1.24-0.17-2.48-0.27-3.72c-0.3-3.72-0.63-7.43-0.64-11.17c0.01-0.12,0.03-0.24,0.04-0.36 c0.73,0.05,1.47,0.09,2.2,0.12c2.2,0.1,4.4,0.14,6.6,0.13c5.06-0.03,10.13-0.01,15.19,0c0.52,0,1.07-0.1,1.55,0.21 c0.08,0.01,0.15,0.02,0.22,0.03v0c-0.01,0.33-0.01,0.65,0,0.98c0,0.33,0.01,0.66,0.01,0.98c0.04,1.97,0.1,3.93-0.22,5.89 c-0.01,1.3-0.02,2.61-0.03,3.91c-0.01,1.31-0.02,2.61-0.03,3.92c-0.07-0.08-0.12-0.19-0.17-0.3c0.05,0.11,0.1,0.22,0.17,0.3 c-0.01,0.57-0.02,1.15-0.02,1.72c-0.44,0.2-0.45,0.56-0.44,0.91c-0.01-0.36,0-0.71,0.44-0.91c0,1.83,0.03,3.67-0.01,5.5 c-0.04,1.6-0.07,1.62,1.59,1.6c8.9-0.08,17.8-0.16,26.7-0.25c2.1-0.02,2.19-0.09,2.17-2.24c-0.05-7.34-0.11-14.68-0.17-22.02 c-0.04-0.07-0.06-0.14-0.06-0.22c7.95-0.09,15.89-0.18,23.84-0.27c0.01,0.15,0.02,0.3,0.02,0.45c0-0.15-0.01-0.3-0.02-0.45 c0.14-0.03,0.25-0.08,0.33-0.16c0.08-0.08,0.14-0.19,0.18-0.33C442.54,84.07,442.76,83.86,442.99,83.78z M388.32,81.87 c0.01,0.84-0.49,1.67-0.03,2.5c0,0.23,0,0.47,0,0.7c1.31-0.01,2.63-0.01,3.94-0.02c0.17,0,0.34,0,0.51,0.01c0.56,0,1.11,0,1.67,0 c0.51,0,1.01,0,1.52,0c4.08,0,8.17,0,12.25,0c1.23,0,2.46,0,3.69,0c2.04,0.02,4.07,0.05,6.11,0.07c0.01-0.26,0.01-0.51,0.02-0.77 c0.05-3.38-0.13-6.76-0.22-10.13c-0.06-2.03-0.09-4.05-0.03-6.08c0.01-0.24-0.03-0.48-0.08-0.72c-0.05-0.24-0.11-0.48-0.16-0.72 c0,0,0,0,0,0c0.08-0.16,0.17-0.33,0.25-0.49c-0.01-0.11-0.02-0.21-0.03-0.32c-3.51,0.03-7.01,0.06-10.52,0.09 c0.03,0.23,0.13,0.4,0.27,0.54c-0.14-0.13-0.24-0.31-0.27-0.54c-0.49,0-0.99-0.01-1.48-0.01c-0.74,0.22-1.46,0.42-2.2,0.52 c0.74-0.09,1.46-0.29,2.2-0.52c-0.28-0.22-0.6-0.21-0.93-0.22c-5.25-0.02-10.5-0.04-15.74-0.06c0,0,0,0,0,0 c-0.25,0.01-0.5,0.01-0.75,0.02c0,2.69-0.01,5.38-0.01,8.07C388.29,76.49,388.3,79.18,388.32,81.87z"/></g></svg>