<?xml version="1.0" encoding="UTF-8" standalone="no"?><svg xmlns="http://www.w3.org/2000/svg" xmlns:xlink="http://www.w3.org/1999/xlink" contentScriptType="text/ecmascript" fill="#000000" width="129.8" zoomAndPan="magnify" contentStyleType="text/css" viewBox="-0.0 -0.2 129.8 136.5" height="136.5" preserveAspectRatio="xMidYMid meet" version="1"><g id="change1_1" data-name="Layer 7"><path fill="#01c3dc" d="M104.342,39.813q-.1,24.675-.23,49.35a4.151,4.151,0,0,1-.85,3.08,3.439,3.439,0,0,1-1.88.78c-2.4.4-4.85.01-7.28-.08-8.84-.34-17.28,3.34-26,4.84-9.99,1.72-20.22.58-30.28-.57a12.373,12.373,0,0,1-5.38-1.46c-3.31-2.13-3.81-6.7-3.82-10.63-.04-9.38.7-18.75,1.45-28.1q1.005-12.615,2.01-25.22a2.129,2.129,0,0,1,.43-1.34,2.1,2.1,0,0,1,1.56-.42c10.288,0,20.782-.015,31.15-.05,10.324-.034,20.706-.437,31.013.277,2.5.174,5.824.779,7.362,3.03C104.817,35.085,104.359,37.8,104.342,39.813Z"/></g><g id="change2_1" data-name="Layer 10"><path fill="#ffbd6f" d="M104.778,48.61c-19.159-.484-38.341-.393-57.489.447l-.145,66.166a2.345,2.345,0,0,0,.345,1.51,2.228,2.228,0,0,0,1.407.632,47.286,47.286,0,0,0,9.645.293,293.8,293.8,0,0,1,34.474.911,21.853,21.853,0,0,1,6.273,1.184c2.873,1.144,5.139,3.395,7.319,5.588l10.624,10.686a.669.669,0,0,0,1.144-.461l.232-14.255a3.326,3.326,0,0,1,.409-1.882c.974-1.391,3.145-.569,4.815-.876,2.822-.519,3.678-4.088,3.911-6.948,1.293-15.87,2.026-31.821,1.091-47.717-.207-3.527-.545-7.2-2.408-10.207-3.851-6.21-15.332-4.757-21.647-5.071"/></g><g id="change3_1" data-name="Layer 11"><path fill="#ffa699" d="M76.67,63.945c-.2,2.083-1.554,3.031-3.708,3.038q-19.02.06-38.05.11a24.247,24.247,0,0,0-8.32.98,17.382,17.382,0,0,0-4.79,2.81,30.461,30.461,0,0,0-6.29,6.68c-1.578,2.275-3.057,4.938-5.425,6.2a.748.748,0,0,1-1.082-.69q.138-7.63-.093-15.26a1.881,1.881,0,0,0-.34-1.26,1.924,1.924,0,0,0-1.56-.38c-2.25.15-5.06.14-6.08-1.88a5.5,5.5,0,0,1-.41-2.49Q.252,34.713,0,7.623c-.03-2.55.26-5.65,2.55-6.78a6.84,6.84,0,0,1,3.09-.48c10.6,0,21.2.007,31.8-.034Q45.4.3,53.347.225c5-.049,10.069-.4,15.067-.111q.93.054,1.859.147c4.37.448,6.19,5.245,6.29,8.849.258,9.286.048,18.578.3,27.864.122,4.6.094,9.192.034,13.788C76.836,55.118,77.076,59.61,76.67,63.945Z"/></g><g fill="#01142e" id="change4_1" data-name="Layer 12"><path d="M67.754,86.431c.31-.061.621-.119.933-.17.168-.028.336-.055.5-.08.06-.009.477-.064.179-.026q.9-.114,1.815-.177a30.326,30.326,0,0,1,3.717-.015,1.51,1.51,0,0,0,1.5-1.5,1.534,1.534,0,0,0-1.5-1.5,31.958,31.958,0,0,0-7.946.575,1.508,1.508,0,0,0-1.047,1.845,1.538,1.538,0,0,0,1.845,1.048Z"/><path d="M84.471,86.362a49.779,49.779,0,0,1,7.537-.146,1.508,1.508,0,0,0,1.5-1.5,1.534,1.534,0,0,0-1.5-1.5,49.779,49.779,0,0,0-7.537.146,1.532,1.532,0,0,0-1.5,1.5,1.517,1.517,0,0,0,1.5,1.5Z"/><path d="M101.329,86.439h7.021a1.5,1.5,0,0,0,0-3h-7.021a1.5,1.5,0,1,0,0,3Z"/><path d="M42.241,51.493a4.569,4.569,0,0,1-.9,3.32,3,3,0,0,1-2.938,1,2.667,2.667,0,0,1-1.5-.57,2.833,2.833,0,0,1-.862-2.164,4.961,4.961,0,0,1,.975-3.345C38.624,48,41.9,49.266,42.241,51.493Z"/><path d="M31.755,27.278c.445-1.819.73-4.944,2.894-5.552a6.819,6.819,0,0,1,6.393,1.931c1.615,1.957,1.359,5.146-.008,7.145-.883,1.291-2.244,2.058-2.812,3.59-.61,1.649-.094,3.414-.285,5.111a1.51,1.51,0,0,0,1.5,1.5,1.535,1.535,0,0,0,1.5-1.5c.152-1.349-.44-3.139.229-4.368a6.534,6.534,0,0,1,1.251-1.35,9.3,9.3,0,0,0,1.353-1.7,9.511,9.511,0,0,0,.915-7.823,8.076,8.076,0,0,0-5.292-5.078c-2.182-.778-5-1-7.029.309-2.355,1.52-2.885,4.464-3.5,6.985-.458,1.875,2.434,2.675,2.893.8Z"/></g></svg>