<?xml version="1.0" encoding="UTF-8" standalone="no"?><svg xmlns="http://www.w3.org/2000/svg" xmlns:xlink="http://www.w3.org/1999/xlink" contentScriptType="text/ecmascript" fill="#000000" width="698.1" zoomAndPan="magnify" contentStyleType="text/css" viewBox="0.0 0.0 698.1 408.1" height="408.1" preserveAspectRatio="xMidYMid meet" version="1"><defs><clipPath id="a"><path d="M 0 0 L 698.128906 0 L 698.128906 408.050781 L 0 408.050781 Z M 0 0"/></clipPath></defs><g><g id="change1_1"><path fill="#ff8a8a" d="M 557.59375 298.726562 C 557.59375 302.910156 554.199219 306.300781 550.015625 306.300781 C 545.832031 306.300781 542.441406 302.910156 542.441406 298.726562 C 542.441406 294.539062 545.832031 291.148438 550.015625 291.148438 C 554.199219 291.148438 557.59375 294.539062 557.59375 298.726562"/></g><g id="change2_1" clip-path="url(#a)"><path fill="#75372d" d="M 246.371094 350.816406 C 246.796875 347.964844 246.699219 344.984375 246.175781 342.046875 C 245.675781 339.109375 244.78125 336.214844 243.609375 333.425781 C 241.265625 327.84375 237.859375 322.679688 233.789062 318.121094 C 232.765625 316.988281 231.714844 315.875 230.613281 314.8125 C 229.515625 313.753906 228.375 312.691406 227.238281 311.78125 C 224.941406 309.910156 222.4375 308.328125 219.75 307.121094 C 214.382812 304.691406 208.363281 303.800781 202.367188 304.117188 C 197.128906 304.394531 191.902344 305.546875 186.859375 307.25 C 186.636719 307.324219 186.421875 307.398438 186.199219 307.480469 C 185.671875 307.652344 185.148438 307.84375 184.628906 308.039062 C 181.761719 309.117188 178.945312 310.363281 176.226562 311.78125 C 173.503906 313.191406 170.863281 314.765625 168.394531 316.496094 C 166.433594 317.917969 164.445312 319.707031 162.609375 321.527344 C 160.742188 323.351562 159.03125 325.34375 157.367188 327.359375 C 154.117188 331.445312 151.300781 335.886719 149.152344 340.585938 C 147.003906 345.285156 145.550781 350.277344 145.070312 355.359375 C 145.011719 356.007812 144.964844 356.652344 144.9375 357.308594 C 144.808594 360.902344 145.300781 364.546875 146.265625 368.082031 C 146.464844 368.832031 146.695312 369.570312 146.9375 370.304688 C 148.574219 375.160156 151.078125 379.757812 154.277344 383.765625 C 155.882812 385.765625 157.671875 387.613281 159.625 389.195312 C 161.585938 390.769531 163.707031 392.128906 165.949219 392.992188 C 167.058594 393.445312 168.199219 393.726562 169.335938 393.914062 C 170.472656 394.035156 171.605469 394.070312 172.695312 393.867188 C 172.972656 393.839844 173.230469 393.738281 173.496094 393.6875 L 173.902344 393.585938 C 174.042969 393.542969 174.191406 393.484375 174.332031 393.4375 C 174.925781 393.246094 175.484375 393.019531 176.042969 392.777344 C 177.148438 392.277344 178.179688 391.6875 179.101562 390.972656 C 180.953125 389.558594 182.328125 387.660156 183.019531 385.4375 C 183.382812 384.332031 183.578125 383.152344 183.632812 381.957031 C 183.664062 381.355469 183.660156 380.757812 183.613281 380.15625 C 183.585938 379.855469 183.558594 379.558594 183.519531 379.261719 C 183.476562 378.984375 183.417969 378.648438 183.378906 378.460938 L 183.34375 378.230469 C 183.183594 377.207031 183.890625 376.25 184.914062 376.089844 C 185.714844 375.96875 186.476562 376.371094 186.84375 377.042969 C 187.257812 377.792969 188.011719 378.601562 188.785156 379.300781 C 189.1875 379.660156 189.601562 380.007812 190.058594 380.3125 C 190.480469 380.648438 190.960938 380.921875 191.433594 381.203125 C 193.324219 382.3125 195.433594 383.074219 197.601562 383.421875 C 199.769531 383.78125 202.003906 383.71875 204.1875 383.320312 L 205.816406 382.953125 C 206.355469 382.789062 206.878906 382.59375 207.410156 382.417969 C 207.683594 382.324219 207.949219 382.246094 208.207031 382.136719 L 208.980469 381.78125 C 209.492188 381.542969 210.019531 381.316406 210.515625 381.066406 C 212.449219 380.035156 214.152344 378.648438 215.480469 376.910156 C 216.820312 375.1875 217.78125 373.160156 218.4375 371.003906 C 218.710938 370.046875 218.941406 369.078125 219.109375 368.082031 C 219.324219 366.832031 219.453125 365.546875 219.507812 364.257812 C 219.546875 363.105469 219.539062 361.945312 219.46875 360.792969 C 219.398438 359.65625 219.269531 358.453125 219.082031 357.40625 L 219.082031 357.386719 C 219.074219 357.359375 219.074219 357.332031 219.070312 357.308594 C 218.953125 356.457031 219.527344 355.664062 220.382812 355.507812 C 221.0625 355.386719 221.722656 355.710938 222.058594 356.269531 C 222.269531 356.59375 222.523438 356.949219 222.800781 357.308594 C 222.976562 357.535156 223.15625 357.757812 223.332031 357.96875 C 223.8125 358.527344 224.316406 359.058594 224.847656 359.554688 C 225.90625 360.546875 227.078125 361.402344 228.316406 362.035156 C 229.554688 362.667969 230.867188 363.097656 232.207031 363.234375 C 233.539062 363.367188 234.894531 363.246094 236.222656 362.875 C 237.546875 362.511719 238.835938 361.90625 240.0625 361.144531 C 241.246094 360.40625 242.277344 359.523438 243.152344 358.464844 C 243.460938 358.101562 243.75 357.710938 244.015625 357.308594 C 244.5 356.558594 244.910156 355.757812 245.253906 354.914062 C 245.769531 353.617188 246.160156 352.242188 246.371094 350.816406 Z M 282.910156 75.359375 C 281.363281 71.613281 279.707031 67.871094 278.015625 64.171875 C 275.765625 59.269531 273.421875 54.414062 270.929688 49.640625 C 268.453125 44.859375 265.851562 40.144531 263.09375 35.539062 C 260.335938 30.933594 257.414062 26.433594 254.222656 22.175781 C 251.03125 17.933594 247.582031 13.871094 243.691406 10.480469 C 241.75 8.796875 239.671875 7.3125 237.5 6.230469 C 235.324219 5.171875 233.042969 4.539062 230.882812 4.746094 C 226.53125 4.996094 222.941406 8.949219 220.199219 13.234375 C 217.433594 17.585938 215.3125 22.488281 213.4375 27.464844 C 209.757812 37.484375 207.101562 47.964844 204.839844 58.503906 C 202.578125 69.054688 200.824219 79.734375 199.304688 90.4375 C 197.800781 101.152344 196.527344 111.898438 195.59375 122.679688 C 195.121094 128.066406 194.710938 133.464844 194.394531 138.851562 C 194.265625 141.03125 194.144531 143.222656 194.050781 145.402344 C 197.175781 140.433594 200.558594 135.625 204.179688 131.003906 L 204.179688 130.996094 C 207.296875 95.9375 215.285156 22.351562 227.804688 15.828125 C 229.359375 15.019531 231.15625 14.949219 233.152344 15.632812 C 246.894531 20.3125 267.617188 59.386719 276.648438 77.59375 C 276.648438 77.601562 276.65625 77.601562 276.65625 77.609375 C 278.730469 76.820312 280.808594 76.058594 282.910156 75.359375 Z M 364.546875 216.855469 C 365.273438 212.28125 365.152344 207.539062 364.410156 202.859375 L 364.234375 202.699219 C 363.972656 202.496094 363.75 202.289062 363.460938 202.101562 C 362.921875 201.703125 362.316406 201.351562 361.71875 200.996094 C 361.078125 200.671875 360.472656 200.316406 359.789062 200.039062 L 358.792969 199.59375 C 358.457031 199.460938 358.113281 199.339844 357.769531 199.210938 L 356.738281 198.820312 L 355.675781 198.488281 C 354.960938 198.273438 354.269531 198.03125 353.535156 197.871094 C 352.808594 197.695312 352.078125 197.5 351.351562 197.332031 L 349.132812 196.894531 C 348.394531 196.738281 347.648438 196.636719 346.894531 196.53125 L 344.644531 196.199219 C 343.128906 196.058594 341.613281 195.878906 340.09375 195.769531 C 338.570312 195.6875 337.042969 195.574219 335.515625 195.527344 L 334.589844 195.511719 L 333.667969 195.527344 C 332.140625 195.574219 330.617188 195.6875 329.089844 195.769531 C 327.566406 195.878906 326.050781 196.058594 324.535156 196.199219 L 322.285156 196.53125 C 321.539062 196.636719 320.785156 196.738281 320.050781 196.894531 L 317.828125 197.332031 C 317.101562 197.5 316.382812 197.695312 315.652344 197.871094 C 314.921875 198.03125 314.21875 198.273438 313.503906 198.488281 L 312.449219 198.820312 L 311.410156 199.210938 C 311.074219 199.339844 310.722656 199.460938 310.386719 199.59375 L 309.390625 200.039062 C 308.71875 200.316406 308.105469 200.671875 307.464844 200.996094 C 306.863281 201.351562 306.257812 201.703125 305.722656 202.101562 C 305.429688 202.289062 305.210938 202.496094 304.945312 202.699219 L 304.777344 202.855469 C 304.375 205.390625 304.152344 207.957031 304.152344 210.503906 C 304.152344 212.640625 304.304688 214.765625 304.636719 216.855469 C 305.410156 221.65625 307.257812 226.222656 310.035156 230.160156 C 312.867188 234.082031 316.582031 237.367188 320.785156 239.917969 C 322.886719 241.199219 325.109375 242.304688 327.398438 243.238281 C 328.542969 243.703125 329.707031 244.140625 330.878906 244.507812 C 331.464844 244.695312 332.058594 244.875 332.652344 245.03125 C 333.222656 245.191406 333.863281 245.347656 334.355469 245.449219 L 334.414062 245.460938 C 334.476562 245.476562 334.53125 245.488281 334.589844 245.503906 C 334.652344 245.488281 334.707031 245.476562 334.765625 245.460938 L 334.828125 245.449219 C 335.316406 245.347656 335.957031 245.191406 336.53125 245.03125 C 337.121094 244.875 337.714844 244.695312 338.300781 244.507812 C 339.480469 244.140625 340.640625 243.703125 341.78125 243.238281 C 344.074219 242.304688 346.296875 241.199219 348.394531 239.917969 C 352.597656 237.367188 356.316406 234.082031 359.144531 230.160156 C 361.933594 226.222656 363.769531 221.65625 364.546875 216.855469 Z M 372.027344 368.082031 C 372.410156 364.527344 372.511719 360.894531 372.476562 357.308594 C 372.464844 356.039062 372.433594 354.78125 372.382812 353.527344 C 372.074219 347.394531 371.261719 341.265625 369.863281 335.285156 C 369.171875 332.292969 368.328125 329.347656 367.320312 326.46875 C 367.273438 326.335938 367.226562 326.195312 367.171875 326.058594 C 366.78125 324.976562 366.363281 323.890625 365.910156 322.832031 C 365.230469 321.230469 364.484375 319.660156 363.636719 318.164062 C 362.921875 316.847656 362.09375 315.621094 361.21875 314.441406 C 360.316406 313.304688 359.339844 312.242188 358.257812 311.398438 C 357.179688 310.558594 355.984375 309.992188 354.800781 309.832031 C 354.105469 309.761719 353.347656 309.707031 352.617188 309.65625 C 351.898438 309.671875 351.164062 309.628906 350.449219 309.703125 C 349.734375 309.769531 349.015625 309.816406 348.328125 309.976562 C 347.613281 310.078125 346.953125 310.3125 346.28125 310.507812 C 344.96875 310.988281 343.730469 311.632812 342.617188 312.476562 C 340.699219 313.910156 339.230469 315.882812 337.910156 318.085938 C 337.929688 318.214844 337.9375 318.339844 337.9375 318.46875 L 337.195312 357.308594 L 336.996094 368.082031 L 336.730469 381.773438 C 336.726562 382.269531 336.316406 382.667969 335.824219 382.65625 C 335.339844 382.648438 334.949219 382.257812 334.941406 381.773438 L 334.679688 368.082031 L 334.476562 357.308594 L 333.742188 318.960938 C 333.660156 318.785156 333.566406 318.597656 333.472656 318.421875 C 333.3125 318.121094 333.136719 317.816406 332.949219 317.511719 C 332.585938 316.914062 332.179688 316.328125 331.75 315.777344 C 330.886719 314.664062 329.898438 313.667969 328.8125 312.832031 C 326.644531 311.164062 324.046875 310.226562 321.332031 310.214844 C 319.976562 310.199219 318.589844 310.394531 317.234375 310.753906 C 316.019531 311.082031 314.824219 311.730469 313.699219 312.53125 C 311.429688 314.140625 309.5 316.421875 307.808594 318.847656 C 306.777344 320.335938 305.84375 321.902344 304.992188 323.527344 C 304.453125 324.550781 303.949219 325.589844 303.476562 326.644531 C 303.464844 326.671875 303.449219 326.699219 303.4375 326.726562 C 302.199219 329.488281 301.15625 332.347656 300.273438 335.265625 C 298.519531 341.105469 297.457031 347.15625 297.046875 353.246094 C 296.953125 354.601562 296.898438 355.953125 296.890625 357.308594 C 296.839844 360.914062 297.054688 364.519531 297.539062 368.082031 C 297.6875 369.207031 297.867188 370.316406 298.078125 371.429688 C 299.242188 377.375 301.195312 383.195312 304.328125 388.265625 C 307.429688 393.347656 311.835938 397.566406 317.082031 400.3125 C 322.328125 403.066406 328.328125 404.386719 334.300781 404.433594 C 337.183594 404.441406 340.179688 403.921875 343.0625 403.132812 C 345.953125 402.339844 348.773438 401.253906 351.433594 399.882812 C 356.769531 397.152344 361.488281 393.242188 364.929688 388.386719 C 369.253906 382.492188 371.230469 375.429688 372.027344 368.082031 Z M 402.042969 281.398438 C 402.25 280.796875 402.453125 280.191406 402.648438 279.585938 C 401.761719 280.277344 400.828125 280.898438 399.875 281.476562 C 396.566406 283.402344 392.898438 284.582031 389.21875 285.175781 L 388.53125 285.304688 L 387.839844 285.382812 L 386.453125 285.53125 L 385.066406 285.6875 C 384.601562 285.726562 384.144531 285.71875 383.679688 285.742188 L 380.910156 285.816406 C 379.988281 285.789062 379.070312 285.734375 378.15625 285.6875 C 377.234375 285.640625 376.324219 285.625 375.386719 285.496094 L 373.988281 285.335938 L 372.578125 285.09375 C 372.113281 285.019531 371.644531 284.925781 371.171875 284.804688 C 370.707031 284.691406 370.234375 284.582031 369.769531 284.453125 C 368.84375 284.15625 367.90625 283.875 366.988281 283.476562 C 365.164062 282.71875 363.394531 281.6875 361.824219 280.425781 C 360.25 279.167969 358.890625 277.699219 357.710938 276.230469 C 355.351562 273.269531 353.546875 270.386719 351.292969 268.277344 C 347.128906 264.164062 340.976562 262.816406 334.605469 262.546875 C 334.597656 262.546875 334.597656 262.546875 334.589844 262.546875 C 328.21875 262.808594 322.058594 264.164062 317.890625 268.277344 C 315.632812 270.386719 313.828125 273.269531 311.472656 276.230469 C 310.292969 277.699219 308.933594 279.167969 307.363281 280.425781 C 305.789062 281.6875 304.015625 282.71875 302.191406 283.476562 C 301.277344 283.875 300.347656 284.15625 299.410156 284.453125 C 298.945312 284.582031 298.476562 284.691406 298.011719 284.804688 C 297.539062 284.925781 297.074219 285.019531 296.601562 285.09375 L 295.195312 285.335938 L 293.792969 285.496094 C 292.859375 285.625 291.949219 285.640625 291.027344 285.6875 C 290.109375 285.734375 289.195312 285.789062 288.277344 285.816406 L 285.503906 285.742188 C 285.039062 285.71875 284.582031 285.726562 284.117188 285.6875 L 282.730469 285.53125 L 281.34375 285.382812 L 280.65625 285.304688 L 279.960938 285.175781 C 276.285156 284.582031 272.613281 283.402344 269.308594 281.476562 C 268.351562 280.898438 267.421875 280.277344 266.53125 279.585938 C 266.726562 280.191406 266.929688 280.796875 267.144531 281.398438 C 268.21875 284.453125 269.457031 287.449219 270.863281 290.359375 C 272.269531 293.269531 273.847656 296.097656 275.589844 298.8125 C 277.335938 301.527344 279.242188 304.132812 281.347656 306.5625 C 285.53125 311.453125 290.433594 315.707031 295.914062 319.042969 C 296.582031 319.488281 297.289062 319.855469 297.996094 320.242188 C 298.703125 320.617188 299.390625 321.035156 300.117188 321.371094 C 300.542969 321.566406 300.964844 321.777344 301.382812 321.976562 C 302.328125 320.140625 303.378906 318.339844 304.5625 316.617188 C 306.429688 313.9375 308.5625 311.34375 311.390625 309.304688 C 312.804688 308.300781 314.386719 307.410156 316.191406 306.914062 C 317.855469 306.460938 319.585938 306.199219 321.359375 306.199219 C 324.898438 306.179688 328.496094 307.445312 331.277344 309.582031 C 332.683594 310.636719 333.910156 311.875 334.988281 313.210938 C 335.414062 313.742188 335.808594 314.28125 336.1875 314.847656 C 337.394531 313.039062 338.835938 311.3125 340.671875 309.929688 C 342.046875 308.878906 343.59375 308.058594 345.21875 307.464844 C 346.039062 307.214844 346.859375 306.941406 347.703125 306.8125 C 348.539062 306.617188 349.378906 306.550781 350.222656 306.46875 C 351.0625 306.386719 351.890625 306.433594 352.726562 306.414062 C 353.5625 306.46875 354.363281 306.523438 355.21875 306.609375 C 357.144531 306.867188 358.855469 307.734375 360.226562 308.804688 C 361.621094 309.882812 362.769531 311.136719 363.8125 312.4375 C 364.800781 313.761719 365.722656 315.128906 366.503906 316.558594 C 367.40625 318.144531 368.203125 319.78125 368.910156 321.445312 C 368.964844 321.417969 369.011719 321.398438 369.0625 321.371094 C 369.789062 321.035156 370.476562 320.617188 371.1875 320.242188 C 371.894531 319.855469 372.601562 319.488281 373.265625 319.042969 C 378.746094 315.707031 383.648438 311.453125 387.832031 306.5625 C 389.941406 304.132812 391.851562 301.527344 393.589844 298.8125 C 395.335938 296.097656 396.910156 293.269531 398.316406 290.359375 C 399.730469 287.449219 400.964844 284.453125 402.042969 281.398438 Z M 469.933594 137.03125 C 467.230469 105.449219 458.996094 23.105469 446.171875 16.425781 C 444.785156 15.703125 443.167969 15.652344 441.355469 16.265625 C 434.441406 18.621094 425.53125 30.253906 417.296875 43.429688 C 409.058594 56.605469 401.503906 71.324219 397.296875 79.855469 C 414.75 87.0625 431.007812 97.171875 445.15625 109.675781 C 454.390625 117.851562 462.71875 127.039062 469.933594 137.03125 Z M 477.519531 148.527344 C 477.414062 145.308594 477.253906 142.074219 477.0625 138.851562 C 476.738281 133.464844 476.328125 128.066406 475.859375 122.679688 C 474.929688 111.898438 473.648438 101.152344 472.152344 90.4375 C 470.625 79.734375 468.875 69.054688 466.617188 58.503906 C 464.355469 47.964844 461.703125 37.484375 458.019531 27.464844 C 456.140625 22.488281 454.019531 17.585938 451.25 13.234375 C 448.511719 8.949219 444.921875 4.996094 440.570312 4.746094 C 438.40625 4.539062 436.125 5.171875 433.957031 6.230469 C 431.78125 7.3125 429.699219 8.796875 427.761719 10.480469 C 423.867188 13.871094 420.429688 17.933594 417.234375 22.175781 C 414.035156 26.433594 411.113281 30.933594 408.359375 35.539062 C 405.605469 40.144531 403.007812 44.859375 400.519531 49.640625 C 398.027344 54.414062 395.6875 59.269531 393.441406 64.171875 C 391.597656 68.207031 389.800781 72.292969 388.128906 76.382812 C 389.824219 76.976562 391.523438 77.582031 393.199219 78.226562 C 394.359375 78.671875 395.511719 79.128906 396.65625 79.59375 C 405.066406 62.4375 426.863281 20.492188 441.136719 15.632812 C 443.128906 14.949219 444.925781 15.019531 446.488281 15.828125 C 459.9375 22.835938 468.148438 107.230469 470.71875 138.121094 C 473.117188 141.503906 475.386719 144.972656 477.519531 148.527344 Z M 495.691406 273.671875 C 496.175781 273.785156 496.660156 273.921875 497.140625 274.082031 C 496.484375 264.722656 495.921875 255.347656 495.5625 245.941406 C 495.375 240.929688 495.246094 235.90625 495.214844 230.882812 C 495.164062 228.382812 495.058594 225.960938 494.988281 223.496094 C 494.964844 222.882812 494.964844 222.261719 494.914062 221.648438 L 494.753906 219.816406 L 494.4375 216.148438 C 492.503906 196.589844 486.667969 177.476562 477.515625 160.125 C 475.609375 156.515625 473.5625 152.972656 471.378906 149.523438 C 471.210938 149.261719 471.042969 149 470.875 148.734375 C 462.664062 135.90625 452.605469 124.265625 441.136719 114.25 C 427.324219 102.1875 411.53125 92.402344 394.566406 85.492188 C 394.359375 85.414062 394.148438 85.324219 393.933594 85.238281 C 392.949219 84.839844 391.960938 84.457031 390.964844 84.078125 C 372.640625 77.097656 353.058594 73.464844 333.460938 73.453125 C 318.644531 73.464844 303.835938 75.636719 289.625 79.84375 C 288.535156 80.160156 287.449219 80.496094 286.371094 80.832031 C 282.910156 81.945312 279.488281 83.171875 276.117188 84.519531 C 257.898438 91.75 241.078125 102.429688 226.578125 115.648438 C 212.058594 128.863281 199.976562 144.75 191.074219 162.253906 C 182.179688 179.753906 176.496094 198.902344 174.554688 218.464844 L 174.246094 222.132812 C 174.152344 223.359375 174.011719 224.585938 174.003906 225.816406 L 173.773438 233.199219 C 173.746094 238.214844 173.644531 243.226562 173.503906 248.238281 C 173.222656 258.25 172.789062 268.25 172.320312 278.230469 C 171.867188 288.210938 171.425781 298.179688 171.1875 308.144531 C 171.1875 308.164062 171.1875 308.1875 171.1875 308.207031 C 172.015625 307.742188 172.859375 307.296875 173.699219 306.867188 C 176.621094 305.363281 179.640625 304.050781 182.730469 302.921875 C 183.769531 302.542969 184.816406 302.1875 185.875 301.847656 C 185.429688 291.351562 185.371094 272.21875 187.949219 243.019531 C 190.164062 217.992188 197.660156 205.210938 203.558594 198.902344 C 209.101562 192.976562 214.199219 191.480469 215.667969 191.164062 C 214.832031 188.871094 210.988281 176.757812 217.015625 163.53125 C 222.96875 150.46875 236.378906 140.414062 256.882812 133.632812 C 271.976562 128.640625 284.75 129.597656 294.863281 136.480469 C 302.507812 141.671875 307.707031 149.679688 311.222656 157.820312 L 310.617188 158.078125 C 307.136719 150.042969 302.011719 142.148438 294.488281 137.03125 C 284.554688 130.277344 271.976562 129.347656 257.09375 134.269531 C 236.773438 140.984375 223.5 150.925781 217.628906 163.808594 C 211.089844 178.164062 216.382812 191.15625 216.4375 191.285156 C 216.476562 191.386719 216.46875 191.492188 216.414062 191.578125 C 216.363281 191.675781 216.273438 191.734375 216.171875 191.75 C 216.113281 191.753906 210.28125 192.671875 204.003906 199.414062 C 198.199219 205.648438 190.8125 218.289062 188.621094 243.078125 C 186.058594 272.101562 186.105469 291.140625 186.542969 301.640625 C 191.558594 300.085938 196.773438 299.046875 202.105469 298.796875 C 208.777344 298.488281 215.6875 299.527344 221.898438 302.386719 C 225.003906 303.808594 227.90625 305.652344 230.503906 307.835938 C 231.824219 308.933594 232.988281 310.066406 234.160156 311.230469 C 235.324219 312.394531 236.445312 313.609375 237.519531 314.851562 C 241.824219 319.84375 245.433594 325.488281 247.90625 331.667969 C 249.144531 334.761719 250.089844 337.984375 250.601562 341.328125 C 251.132812 344.652344 251.21875 348.109375 250.621094 351.527344 C 250.324219 353.238281 249.804688 354.9375 249.097656 356.566406 C 248.988281 356.816406 248.875 357.0625 248.753906 357.308594 L 293.074219 357.308594 C 293.085938 355.871094 293.132812 354.429688 293.226562 353.003906 C 293.640625 346.625 294.738281 340.292969 296.554688 334.152344 C 297.472656 331.089844 298.5625 328.066406 299.875 325.121094 C 299.875 325.117188 299.882812 325.109375 299.890625 325.101562 C 299.449219 324.894531 299.007812 324.683594 298.570312 324.476562 C 297.792969 324.121094 297.066406 323.683594 296.320312 323.285156 C 295.570312 322.878906 294.816406 322.476562 294.109375 322.011719 C 288.292969 318.488281 283.101562 313.984375 278.695312 308.839844 C 276.472656 306.289062 274.464844 303.554688 272.640625 300.710938 C 270.808594 297.875 269.160156 294.925781 267.691406 291.894531 C 266.21875 288.859375 264.925781 285.746094 263.804688 282.570312 C 263.246094 280.980469 262.726562 279.375 262.269531 277.746094 C 261.8125 276.109375 261.386719 274.515625 261.050781 272.761719 C 261.03125 272.648438 261.019531 272.535156 261.019531 272.421875 C 261.019531 271.589844 261.597656 270.851562 262.4375 270.683594 C 263.234375 270.519531 264.015625 270.933594 264.363281 271.625 L 264.433594 271.761719 C 264.53125 271.953125 264.761719 272.339844 264.957031 272.636719 C 265.1875 272.945312 265.402344 273.269531 265.65625 273.566406 C 266.148438 274.175781 266.707031 274.742188 267.289062 275.289062 C 268.460938 276.371094 269.824219 277.253906 271.234375 278.050781 C 274.089844 279.578125 277.308594 280.507812 280.613281 280.910156 C 280.824219 280.9375 281.027344 280.980469 281.234375 281.007812 L 281.859375 281.054688 L 283.113281 281.140625 L 284.367188 281.234375 C 284.78125 281.253906 285.207031 281.234375 285.625 281.234375 L 288.15625 281.214844 C 289 281.15625 289.847656 281.074219 290.695312 281.007812 C 291.539062 280.925781 292.398438 280.886719 293.207031 280.738281 L 294.433594 280.554688 L 295.632812 280.304688 C 296.035156 280.226562 296.425781 280.132812 296.8125 280.015625 C 297.195312 279.902344 297.585938 279.800781 297.96875 279.6875 C 298.710938 279.410156 299.457031 279.160156 300.15625 278.816406 C 301.566406 278.171875 302.84375 277.355469 303.996094 276.367188 C 305.15625 275.371094 306.179688 274.191406 307.160156 272.878906 C 309.121094 270.257812 310.960938 266.996094 313.769531 264.128906 C 316.535156 261.242188 320.214844 259.074219 323.9375 257.90625 C 326.253906 257.144531 328.585938 256.65625 330.914062 256.332031 L 330.914062 249.421875 C 330.421875 249.289062 329.9375 249.144531 329.453125 248.992188 C 328.152344 248.578125 326.878906 248.101562 325.621094 247.597656 C 323.117188 246.566406 320.671875 245.355469 318.339844 243.933594 C 313.6875 241.105469 309.457031 237.40625 306.210938 232.890625 C 304.609375 230.625 303.28125 228.160156 302.226562 225.597656 C 301.140625 223.035156 300.496094 220.324219 300.003906 217.617188 C 299.140625 212.167969 299.351562 206.652344 300.265625 201.34375 L 300.265625 201.324219 C 300.320312 200.941406 300.488281 200.589844 300.71875 200.316406 L 300.917969 200.074219 L 301.054688 199.925781 C 301.148438 199.828125 301.25 199.714844 301.335938 199.636719 L 301.875 199.144531 C 302.226562 198.859375 302.582031 198.535156 302.945312 198.296875 C 303.664062 197.761719 304.40625 197.316406 305.148438 196.878906 C 305.902344 196.488281 306.644531 196.050781 307.417969 195.734375 L 308.5625 195.21875 C 308.945312 195.054688 309.335938 194.914062 309.722656 194.765625 L 310.886719 194.320312 L 312.058594 193.945312 C 312.839844 193.703125 313.621094 193.433594 314.40625 193.25 C 315.203125 193.050781 315.992188 192.832031 316.777344 192.644531 L 319.15625 192.164062 C 319.949219 191.984375 320.746094 191.878906 321.546875 191.753906 L 323.929688 191.390625 C 325.527344 191.230469 327.121094 191.027344 328.710938 190.90625 C 329.015625 190.886719 329.316406 190.871094 329.621094 190.851562 C 330.914062 190.765625 332.207031 190.671875 333.492188 190.625 L 334.589844 190.597656 L 335.6875 190.625 C 336.976562 190.671875 338.261719 190.765625 339.554688 190.851562 C 339.855469 190.867188 340.167969 190.886719 340.46875 190.90625 C 342.066406 191.027344 343.65625 191.230469 345.25 191.390625 L 347.644531 191.753906 C 348.4375 191.878906 349.230469 191.984375 350.027344 192.164062 L 352.402344 192.644531 C 353.191406 192.832031 353.980469 193.050781 354.773438 193.25 C 355.5625 193.433594 356.34375 193.703125 357.125 193.945312 L 358.304688 194.320312 L 359.460938 194.765625 C 359.851562 194.914062 360.234375 195.054688 360.617188 195.21875 L 361.769531 195.734375 C 362.539062 196.050781 363.277344 196.488281 364.03125 196.878906 C 364.773438 197.316406 365.515625 197.761719 366.234375 198.296875 C 366.601562 198.535156 366.957031 198.859375 367.3125 199.144531 L 367.847656 199.636719 C 367.933594 199.714844 368.035156 199.828125 368.128906 199.925781 L 368.269531 200.074219 L 368.464844 200.316406 C 368.714844 200.609375 368.863281 200.960938 368.914062 201.316406 L 368.914062 201.34375 C 369.832031 206.652344 370.039062 212.167969 369.179688 217.617188 C 368.691406 220.324219 368.046875 223.035156 366.957031 225.597656 C 365.90625 228.160156 364.570312 230.625 362.96875 232.890625 C 359.722656 237.40625 355.492188 241.105469 350.839844 243.933594 C 348.511719 245.355469 346.074219 246.566406 343.5625 247.597656 C 342.300781 248.101562 341.027344 248.578125 339.730469 248.992188 C 339.25 249.144531 338.761719 249.289062 338.269531 249.421875 L 338.269531 256.332031 C 340.589844 256.65625 342.929688 257.144531 345.25 257.90625 C 348.96875 259.074219 352.644531 261.242188 355.414062 264.128906 C 358.222656 266.996094 360.0625 270.257812 362.019531 272.878906 C 363.003906 274.191406 364.027344 275.371094 365.1875 276.367188 C 366.335938 277.355469 367.621094 278.171875 369.03125 278.816406 C 369.726562 279.160156 370.472656 279.410156 371.21875 279.6875 C 371.597656 279.800781 371.988281 279.902344 372.371094 280.015625 C 372.753906 280.132812 373.152344 280.226562 373.550781 280.304688 L 374.746094 280.554688 L 375.980469 280.738281 C 376.789062 280.886719 377.644531 280.925781 378.484375 281.007812 C 379.335938 281.074219 380.183594 281.15625 381.023438 281.214844 L 383.558594 281.234375 C 383.972656 281.234375 384.398438 281.253906 384.816406 281.234375 L 386.066406 281.140625 L 387.320312 281.054688 L 387.953125 281.007812 C 388.15625 280.980469 388.359375 280.9375 388.566406 280.910156 C 391.871094 280.507812 395.09375 279.578125 397.953125 278.050781 C 399.363281 277.253906 400.722656 276.371094 401.894531 275.289062 C 402.472656 274.742188 403.03125 274.175781 403.523438 273.566406 C 403.785156 273.269531 403.996094 272.945312 404.226562 272.636719 C 404.421875 272.339844 404.65625 271.953125 404.75 271.761719 L 404.816406 271.625 C 405.253906 270.75 406.316406 270.398438 407.1875 270.835938 C 407.914062 271.199219 408.285156 272.003906 408.128906 272.761719 C 407.792969 274.515625 407.375 276.109375 406.910156 277.746094 C 406.453125 279.375 405.933594 280.980469 405.375 282.570312 C 404.257812 285.746094 402.964844 288.859375 401.488281 291.894531 C 400.023438 294.925781 398.371094 297.875 396.539062 300.710938 C 394.714844 303.554688 392.710938 306.289062 390.484375 308.839844 C 386.089844 313.984375 380.890625 318.488281 375.070312 322.011719 C 374.363281 322.476562 373.609375 322.878906 372.867188 323.285156 C 372.113281 323.683594 371.386719 324.121094 370.613281 324.476562 C 370.472656 324.542969 370.328125 324.613281 370.195312 324.671875 C 370.277344 324.902344 370.363281 325.128906 370.445312 325.359375 C 371.515625 328.371094 372.390625 331.433594 373.125 334.523438 C 374.585938 340.714844 375.433594 347.023438 375.777344 353.359375 C 375.847656 354.671875 375.894531 355.992188 375.914062 357.308594 L 452.671875 357.308594 C 452.011719 355.746094 451.371094 354.175781 450.753906 352.59375 C 449.351562 349.015625 448.046875 345.386719 446.992188 341.621094 C 446.46875 339.738281 446.019531 337.816406 445.695312 335.832031 C 445.378906 333.878906 445.183594 331.957031 445.027344 330.019531 C 444.738281 326.140625 444.648438 322.234375 444.980469 318.308594 C 445.324219 314.386719 445.972656 310.402344 447.660156 306.5625 C 448.503906 304.664062 449.640625 302.792969 451.210938 301.210938 C 452.773438 299.621094 454.808594 298.394531 456.980469 297.800781 C 459.15625 297.1875 461.371094 297.167969 463.460938 297.417969 L 465.015625 297.648438 L 466.523438 298.011719 C 466.652344 298.039062 466.785156 298.070312 466.914062 298.097656 C 466.96875 297.742188 467.023438 297.390625 467.082031 297.035156 C 467.300781 295.800781 467.5625 294.582031 467.871094 293.371094 C 468.476562 290.945312 469.265625 288.554688 470.320312 286.253906 C 470.855469 285.101562 471.445312 283.976562 472.121094 282.890625 C 472.785156 281.792969 473.539062 280.742188 474.390625 279.761719 C 475.210938 278.765625 476.1875 277.882812 477.203125 277.046875 C 478.25 276.257812 479.359375 275.53125 480.558594 274.980469 C 481.152344 274.675781 481.777344 274.472656 482.390625 274.226562 C 482.445312 274.210938 482.503906 274.191406 482.558594 274.171875 C 482.234375 265.457031 481.621094 255.125 480.558594 243.078125 C 478.371094 218.289062 470.988281 205.648438 465.175781 199.414062 C 458.898438 192.671875 453.066406 191.753906 453.015625 191.75 C 452.90625 191.734375 452.820312 191.675781 452.765625 191.578125 C 452.71875 191.492188 452.710938 191.386719 452.753906 191.285156 C 452.808594 191.15625 458.09375 178.144531 451.546875 163.792969 C 445.675781 150.917969 432.402344 140.984375 412.089844 134.269531 C 397.214844 129.347656 384.628906 130.277344 374.699219 137.03125 C 367.179688 142.148438 362.054688 150.042969 358.570312 158.078125 L 357.964844 157.820312 C 361.480469 149.679688 366.675781 141.671875 374.316406 136.480469 C 384.433594 129.597656 397.207031 128.640625 412.300781 133.632812 C 432.804688 140.414062 446.21875 150.46875 452.164062 163.53125 C 458.191406 176.757812 454.347656 188.871094 453.519531 191.164062 C 454.980469 191.480469 460.078125 192.976562 465.628906 198.902344 C 471.519531 205.210938 479.015625 217.992188 481.230469 243.019531 C 482.289062 254.996094 482.902344 265.28125 483.226562 273.96875 C 483.574219 273.859375 483.925781 273.761719 484.28125 273.691406 C 485.574219 273.371094 486.800781 273.308594 488.0625 273.148438 C 490.578125 273 493.164062 273.011719 495.691406 273.671875 Z M 566.339844 343.171875 C 566.589844 334.167969 566.503906 325.144531 565.941406 316.164062 C 565.652344 311.679688 565.242188 307.210938 564.597656 302.796875 C 563.929688 298.414062 563.09375 293.984375 561.519531 290.078125 C 561.113281 289.121094 560.664062 288.203125 560.132812 287.429688 C 559.875 287.039062 559.585938 286.71875 559.3125 286.425781 L 559.09375 286.246094 C 559.019531 286.183594 558.960938 286.117188 558.839844 286.042969 L 558.21875 285.597656 C 556.535156 284.460938 554.691406 283.664062 552.796875 283.445312 C 550.90625 283.207031 548.972656 283.53125 547.175781 284.339844 C 546.273438 284.742188 545.398438 285.246094 544.589844 285.847656 C 544.179688 286.144531 543.78125 286.460938 543.402344 286.796875 C 543.039062 287.121094 542.644531 287.519531 542.386719 287.800781 L 542.347656 287.847656 C 541.605469 288.609375 540.394531 288.621094 539.640625 287.890625 C 539.242188 287.503906 539.054688 286.992188 539.054688 286.480469 L 539.0625 286.164062 C 539.066406 286.050781 539.0625 285.921875 539.054688 285.792969 C 539.046875 285.546875 539.039062 285.289062 539.011719 285.035156 C 538.984375 284.523438 538.898438 284.003906 538.839844 283.492188 C 538.648438 282.46875 538.425781 281.445312 538.078125 280.472656 C 537.410156 278.507812 536.414062 276.683594 535.113281 275.101562 C 533.839844 273.484375 532.15625 272.238281 530.367188 271.1875 L 528.980469 270.453125 C 528.507812 270.230469 527.996094 270.070312 527.511719 269.867188 C 526.515625 269.46875 525.550781 269.148438 524.566406 269.003906 C 522.609375 268.640625 520.636719 268.851562 518.824219 269.597656 C 517.90625 269.953125 517.046875 270.480469 516.230469 271.078125 C 515.410156 271.679688 514.648438 272.386719 513.941406 273.160156 C 512.511719 274.695312 511.308594 276.507812 510.265625 278.40625 C 509.238281 280.300781 508.339844 282.378906 507.703125 284.367188 L 507.703125 284.371094 L 507.679688 284.453125 C 507.382812 285.328125 506.433594 285.800781 505.550781 285.503906 C 505.046875 285.335938 504.675781 284.9375 504.507812 284.472656 C 504.453125 284.332031 504.339844 284.058594 504.230469 283.839844 C 504.128906 283.605469 503.988281 283.375 503.867188 283.148438 C 503.597656 282.691406 503.308594 282.238281 502.976562 281.816406 C 502.675781 281.371094 502.289062 280.992188 501.941406 280.582031 C 501.558594 280.210938 501.179688 279.820312 500.761719 279.484375 C 499.738281 278.65625 498.59375 277.984375 497.375 277.457031 C 496.601562 277.121094 495.792969 276.851562 494.964844 276.640625 L 493.347656 276.3125 L 491.683594 276.164062 C 491.132812 276.089844 490.566406 276.152344 490.007812 276.152344 L 489.15625 276.164062 C 488.882812 276.164062 488.601562 276.179688 488.316406 276.226562 C 486.566406 276.40625 484.890625 276.640625 483.339844 277.207031 C 483.109375 277.28125 482.894531 277.375 482.671875 277.472656 C 482.429688 277.578125 482.183594 277.699219 481.945312 277.828125 C 478.054688 279.746094 475.277344 283.503906 473.582031 287.671875 C 472.71875 289.769531 472.074219 291.96875 471.621094 294.21875 C 471.398438 295.351562 471.21875 296.480469 471.082031 297.621094 C 470.949219 298.746094 470.855469 299.945312 470.847656 300.980469 C 470.785156 302.132812 469.839844 303.027344 468.699219 303.027344 L 468.585938 303.027344 C 468.394531 303.019531 468.214844 302.988281 468.039062 302.933594 L 467.984375 302.914062 L 466.71875 302.503906 C 466.300781 302.359375 465.886719 302.21875 465.460938 302.140625 L 464.195312 301.828125 L 462.933594 301.640625 C 461.265625 301.4375 459.621094 301.472656 458.125 301.890625 C 456.636719 302.292969 455.3125 303.082031 454.207031 304.199219 C 453.097656 305.304688 452.207031 306.726562 451.511719 308.28125 C 450.113281 311.410156 449.472656 315.027344 449.15625 318.652344 C 448.839844 322.292969 448.914062 326.003906 449.183594 329.695312 C 449.324219 331.535156 449.511719 333.398438 449.796875 335.199219 C 450.078125 336.957031 450.496094 338.738281 450.988281 340.511719 C 451.964844 344.066406 453.222656 347.601562 454.585938 351.097656 C 455.398438 353.179688 456.238281 355.246094 457.121094 357.308594 L 565.566406 357.308594 C 565.585938 357.085938 565.601562 356.867188 565.621094 356.648438 C 565.984375 352.175781 566.207031 347.675781 566.339844 343.171875 Z M 692.746094 357.308594 C 695.714844 357.308594 698.132812 359.71875 698.132812 362.695312 C 698.132812 365.671875 695.714844 368.082031 692.746094 368.082031 L 375.453125 368.082031 C 375.308594 369.53125 375.132812 370.964844 374.910156 372.40625 C 373.933594 378.789062 371.597656 385.082031 367.785156 390.414062 C 364.015625 395.773438 358.84375 400.070312 353.0625 403.046875 C 350.179688 404.542969 347.144531 405.726562 344.011719 406.589844 C 340.875 407.453125 337.660156 408.039062 334.289062 408.050781 C 327.789062 408.011719 321.230469 406.609375 315.382812 403.558594 C 309.53125 400.535156 304.582031 395.800781 301.167969 390.230469 C 297.714844 384.660156 295.625 378.433594 294.371094 372.144531 C 294.117188 370.792969 293.902344 369.441406 293.71875 368.082031 L 222.476562 368.082031 C 222.296875 369.382812 222.027344 370.671875 221.660156 371.957031 C 220.933594 374.4375 219.824219 376.871094 218.207031 378.996094 C 216.605469 381.132812 214.496094 382.890625 212.164062 384.15625 C 211.585938 384.453125 211 384.710938 210.414062 384.992188 L 209.539062 385.402344 C 209.242188 385.523438 208.933594 385.625 208.632812 385.734375 C 208.011719 385.949219 207.40625 386.175781 206.785156 386.367188 L 204.878906 386.816406 C 202.308594 387.320312 199.632812 387.414062 197.019531 387.011719 C 194.40625 386.613281 191.875 385.726562 189.578125 384.414062 C 189.007812 384.078125 188.433594 383.746094 187.894531 383.34375 C 187.769531 383.253906 187.640625 383.164062 187.511719 383.074219 C 187.4375 384.257812 187.25 385.441406 186.914062 386.609375 C 186.085938 389.617188 184.199219 392.386719 181.773438 394.328125 C 180.570312 395.308594 179.25 396.109375 177.894531 396.761719 C 177.207031 397.082031 176.519531 397.382812 175.820312 397.632812 C 175.644531 397.691406 175.484375 397.765625 175.296875 397.828125 L 174.71875 397.988281 C 174.324219 398.089844 173.9375 398.230469 173.539062 398.292969 C 171.957031 398.621094 170.347656 398.628906 168.777344 398.496094 C 167.226562 398.292969 165.714844 397.933594 164.285156 397.410156 C 161.421875 396.371094 158.898438 394.777344 156.59375 392.984375 C 154.296875 391.1875 152.25 389.132812 150.425781 386.917969 C 146.769531 382.480469 143.914062 377.4375 141.988281 372.007812 C 141.535156 370.722656 141.140625 369.410156 140.796875 368.082031 L 5.386719 368.082031 C 2.410156 368.082031 0 365.671875 0 362.695312 C 0 359.71875 2.410156 357.308594 5.386719 357.308594 L 139.523438 357.308594 C 139.542969 356.492188 139.589844 355.675781 139.671875 354.863281 C 140.167969 349.105469 141.773438 343.5 144.101562 338.308594 C 146.4375 333.097656 149.515625 328.292969 153.019531 323.878906 C 154.808594 321.695312 156.648438 319.554688 158.667969 317.574219 C 160.695312 315.574219 162.742188 313.695312 165.1875 311.917969 C 165.859375 311.453125 166.539062 311 167.226562 310.558594 C 167.226562 309.734375 167.226562 308.90625 167.234375 308.085938 C 167.316406 298.058594 167.605469 288.058594 167.90625 278.0625 C 168.203125 268.070312 168.539062 258.097656 168.710938 248.128906 C 168.789062 243.144531 168.835938 238.167969 168.8125 233.191406 L 168.960938 225.589844 C 168.953125 224.324219 169.085938 223.058594 169.167969 221.789062 L 169.445312 217.992188 C 170.332031 207.878906 172.183594 197.84375 174.960938 188.066406 C 177.738281 178.285156 181.457031 168.785156 186.003906 159.6875 C 186.691406 158.3125 187.398438 156.953125 188.125 155.597656 C 188.078125 155.390625 188.050781 155.167969 188.050781 154.945312 L 188.050781 154.90625 C 188.164062 149.375 188.503906 143.933594 188.898438 138.480469 C 189.304688 133.039062 189.796875 127.605469 190.347656 122.183594 C 191.480469 111.332031 192.765625 100.511719 194.375 89.722656 C 195.976562 78.941406 197.875 68.191406 200.164062 57.507812 C 202.476562 46.824219 205.175781 36.183594 209 25.8125 C 210.960938 20.640625 213.171875 15.515625 216.242188 10.6875 C 216.617188 10.089844 217.015625 9.488281 217.445312 8.910156 C 217.855469 8.3125 218.308594 7.746094 218.765625 7.171875 C 219.203125 6.59375 219.734375 6.054688 220.214844 5.503906 C 220.761719 4.976562 221.257812 4.425781 221.851562 3.941406 C 222.976562 2.917969 224.316406 2.039062 225.769531 1.328125 C 227.246094 0.613281 228.847656 0.203125 230.472656 0.0546875 C 232.09375 -0.078125 233.730469 0.0273438 235.253906 0.398438 C 236.78125 0.761719 238.230469 1.292969 239.582031 1.945312 C 242.277344 3.273438 244.652344 4.976562 246.820312 6.828125 C 251.152344 10.5625 254.78125 14.824219 258.140625 19.222656 C 264.789062 28.082031 270.453125 37.503906 275.65625 47.136719 C 278.242188 51.957031 280.75 56.824219 283.148438 61.742188 C 285.058594 65.652344 286.898438 69.566406 288.683594 73.554688 C 303.203125 69.316406 318.320312 67.101562 333.460938 67.054688 C 350.019531 67.097656 366.554688 69.632812 382.355469 74.488281 C 384.277344 70.179688 386.25 65.957031 388.304688 61.742188 C 390.707031 56.824219 393.207031 51.957031 395.800781 47.136719 C 401.003906 37.503906 406.660156 28.082031 413.316406 19.222656 C 416.671875 14.824219 420.300781 10.5625 424.628906 6.828125 C 426.796875 4.976562 429.175781 3.273438 431.867188 1.945312 C 433.222656 1.292969 434.675781 0.761719 436.199219 0.398438 C 437.722656 0.0273438 439.363281 -0.078125 440.980469 0.0546875 C 442.601562 0.203125 444.214844 0.613281 445.683594 1.328125 C 447.136719 2.039062 448.476562 2.917969 449.601562 3.941406 C 450.199219 4.425781 450.699219 4.976562 451.238281 5.503906 C 451.722656 6.054688 452.246094 6.59375 452.683594 7.171875 C 453.144531 7.746094 453.601562 8.3125 454.003906 8.910156 C 454.4375 9.488281 454.832031 10.089844 455.210938 10.6875 C 458.28125 15.515625 460.488281 20.640625 462.449219 25.8125 C 466.28125 36.183594 468.976562 46.824219 471.285156 57.507812 C 473.574219 68.191406 475.472656 78.941406 477.078125 89.722656 C 478.6875 100.511719 479.972656 111.332031 481.105469 122.183594 C 481.65625 127.605469 482.148438 133.039062 482.550781 138.480469 C 482.914062 143.46875 483.226562 153.246094 483.367188 159.113281 C 487.671875 167.652344 491.230469 176.574219 493.921875 185.746094 C 496.769531 195.511719 498.652344 205.546875 499.550781 215.667969 L 499.832031 219.46875 L 499.972656 221.371094 C 500.019531 222.007812 500.015625 222.640625 500.035156 223.273438 C 500.082031 225.804688 500.160156 228.371094 500.175781 230.867188 C 500.15625 235.839844 500.222656 240.808594 500.355469 245.785156 C 500.628906 255.738281 501.140625 265.691406 501.671875 275.664062 C 501.683594 275.875 501.699219 276.089844 501.703125 276.300781 C 502.054688 276.527344 502.398438 276.777344 502.726562 277.039062 C 503.253906 277.445312 503.730469 277.902344 504.21875 278.347656 C 504.667969 278.832031 505.140625 279.296875 505.535156 279.828125 C 505.597656 279.894531 505.648438 279.96875 505.703125 280.042969 C 506.175781 278.9375 506.6875 277.863281 507.253906 276.789062 C 508.390625 274.683594 509.710938 272.640625 511.382812 270.816406 C 512.210938 269.902344 513.117188 269.039062 514.144531 268.277344 C 515.152344 267.523438 516.257812 266.835938 517.46875 266.351562 C 519.867188 265.328125 522.621094 265.03125 525.152344 265.484375 C 526.433594 265.664062 527.652344 266.0625 528.777344 266.507812 C 529.351562 266.730469 529.929688 266.917969 530.488281 267.179688 L 532.136719 268.027344 C 534.277344 269.261719 536.347656 270.777344 537.929688 272.75 C 539.546875 274.683594 540.785156 276.910156 541.597656 279.269531 C 542.003906 280.378906 542.273438 281.53125 542.496094 282.683594 C 543.457031 281.984375 544.503906 281.371094 545.613281 280.863281 C 547.941406 279.800781 550.636719 279.300781 553.25 279.625 C 554.554688 279.78125 555.828125 280.117188 557.027344 280.589844 C 558.226562 281.066406 559.332031 281.691406 560.382812 282.378906 L 561.148438 282.914062 C 561.265625 282.992188 561.417969 283.113281 561.558594 283.242188 C 561.707031 283.363281 561.855469 283.484375 561.988281 283.613281 C 562.507812 284.125 562.96875 284.664062 563.339844 285.214844 C 564.097656 286.3125 564.648438 287.4375 565.128906 288.570312 C 566.078125 290.824219 566.703125 293.09375 567.25 295.371094 C 567.773438 297.648438 568.191406 299.929688 568.542969 302.207031 C 569.230469 306.765625 569.675781 311.332031 569.992188 315.898438 C 570.609375 325.027344 570.753906 334.152344 570.542969 343.285156 C 570.4375 347.851562 570.234375 352.410156 569.890625 356.984375 C 569.882812 357.089844 569.878906 357.199219 569.863281 357.308594 Z M 204.972656 129.988281 C 210.3125 123.285156 216.152344 116.984375 222.464844 111.171875 C 237.398438 97.359375 254.882812 86.28125 273.792969 78.703125 C 274.527344 78.410156 275.269531 78.140625 276.003906 77.855469 C 276.003906 77.851562 275.996094 77.851562 275.996094 77.84375 C 266.957031 59.722656 246.25 20.804688 232.9375 16.265625 C 231.125 15.644531 229.5 15.703125 228.113281 16.425781 C 216.160156 22.65625 208.191406 94.6875 204.972656 129.988281"/></g><g id="change3_1"><path fill="#ffffff" d="M 470.394531 319.3125 C 470.394531 315.128906 467.003906 311.734375 462.820312 311.734375 C 458.636719 311.734375 455.242188 315.128906 455.242188 319.3125 C 455.242188 323.5 458.636719 326.886719 462.820312 326.886719 C 467.003906 326.886719 470.394531 323.5 470.394531 319.3125 Z M 495.683594 292.433594 C 495.683594 288.253906 492.296875 284.859375 488.105469 284.859375 C 486.390625 284.859375 484.800781 285.429688 483.527344 286.40625 C 483.292969 286.582031 483.0625 286.777344 482.855469 286.980469 C 481.421875 288.359375 480.53125 290.292969 480.53125 292.433594 C 480.53125 294.535156 481.386719 296.433594 482.769531 297.808594 C 482.976562 298.015625 483.191406 298.210938 483.429688 298.386719 C 484.714844 299.40625 486.34375 300.011719 488.105469 300.011719 C 492.296875 300.011719 495.683594 296.621094 495.683594 292.433594 Z M 532.269531 284.859375 C 532.269531 280.675781 528.878906 277.28125 524.695312 277.28125 C 520.507812 277.28125 517.117188 280.675781 517.117188 284.859375 C 517.117188 289.046875 520.507812 292.433594 524.695312 292.433594 C 528.878906 292.433594 532.269531 289.046875 532.269531 284.859375 Z M 532.238281 328.570312 C 533.246094 316.679688 508.519531 302.609375 501.824219 303.652344 C 492.503906 305.117188 482.632812 328.234375 484.988281 338.671875 C 487.347656 349.109375 502.160156 345.859375 510.128906 344.511719 C 518.097656 343.164062 531.226562 340.472656 532.238281 328.570312 Z M 565.941406 316.164062 C 566.503906 325.144531 566.589844 334.167969 566.339844 343.171875 C 566.207031 347.675781 565.984375 352.175781 565.621094 356.648438 C 565.601562 356.867188 565.585938 357.085938 565.566406 357.308594 L 457.121094 357.308594 C 456.238281 355.246094 455.398438 353.179688 454.585938 351.097656 C 453.222656 347.601562 451.964844 344.066406 450.988281 340.511719 C 450.496094 338.738281 450.078125 336.957031 449.796875 335.199219 C 449.511719 333.398438 449.324219 331.535156 449.183594 329.695312 C 448.914062 326.003906 448.839844 322.292969 449.15625 318.652344 C 449.472656 315.027344 450.113281 311.410156 451.511719 308.28125 C 452.207031 306.726562 453.097656 305.304688 454.207031 304.199219 C 455.3125 303.082031 456.636719 302.292969 458.125 301.890625 C 459.621094 301.472656 461.265625 301.4375 462.933594 301.640625 L 464.195312 301.828125 L 465.460938 302.140625 C 465.886719 302.21875 466.300781 302.359375 466.71875 302.503906 L 467.984375 302.914062 L 468.039062 302.933594 C 468.214844 302.988281 468.394531 303.019531 468.585938 303.027344 L 468.699219 303.027344 C 469.839844 303.027344 470.785156 302.132812 470.847656 300.980469 C 470.855469 299.945312 470.949219 298.746094 471.082031 297.621094 C 471.21875 296.480469 471.398438 295.351562 471.621094 294.21875 C 472.074219 291.96875 472.71875 289.769531 473.582031 287.671875 C 475.277344 283.503906 478.054688 279.746094 481.945312 277.828125 C 482.183594 277.699219 482.429688 277.578125 482.671875 277.472656 C 482.894531 277.375 483.109375 277.28125 483.339844 277.207031 C 484.890625 276.640625 486.566406 276.40625 488.316406 276.226562 C 488.601562 276.179688 488.882812 276.164062 489.15625 276.164062 L 490.007812 276.152344 C 490.566406 276.152344 491.132812 276.089844 491.683594 276.164062 L 493.347656 276.3125 L 494.964844 276.640625 C 495.792969 276.851562 496.601562 277.121094 497.375 277.457031 C 498.59375 277.984375 499.738281 278.65625 500.761719 279.484375 C 501.179688 279.820312 501.558594 280.210938 501.941406 280.582031 C 502.289062 280.992188 502.675781 281.371094 502.976562 281.816406 C 503.308594 282.238281 503.597656 282.691406 503.867188 283.148438 C 503.988281 283.375 504.128906 283.605469 504.230469 283.839844 C 504.339844 284.058594 504.453125 284.332031 504.507812 284.472656 C 504.675781 284.9375 505.046875 285.335938 505.550781 285.503906 C 506.433594 285.800781 507.382812 285.328125 507.679688 284.453125 L 507.703125 284.371094 L 507.703125 284.367188 C 508.339844 282.378906 509.238281 280.300781 510.265625 278.40625 C 511.308594 276.507812 512.511719 274.695312 513.941406 273.160156 C 514.648438 272.386719 515.410156 271.679688 516.230469 271.078125 C 517.046875 270.480469 517.90625 269.953125 518.824219 269.597656 C 520.636719 268.851562 522.609375 268.640625 524.566406 269.003906 C 525.550781 269.148438 526.515625 269.46875 527.511719 269.867188 C 527.996094 270.070312 528.507812 270.230469 528.980469 270.453125 L 530.367188 271.1875 C 532.15625 272.238281 533.839844 273.484375 535.113281 275.101562 C 536.414062 276.683594 537.410156 278.507812 538.078125 280.472656 C 538.425781 281.445312 538.648438 282.46875 538.839844 283.492188 C 538.898438 284.003906 538.984375 284.523438 539.011719 285.035156 C 539.039062 285.289062 539.046875 285.546875 539.054688 285.792969 C 539.0625 285.921875 539.066406 286.050781 539.0625 286.164062 L 539.054688 286.480469 C 539.054688 286.992188 539.242188 287.503906 539.640625 287.890625 C 540.394531 288.621094 541.605469 288.609375 542.347656 287.847656 L 542.386719 287.800781 C 542.644531 287.519531 543.039062 287.121094 543.402344 286.796875 C 543.78125 286.460938 544.179688 286.144531 544.589844 285.847656 C 545.398438 285.246094 546.273438 284.742188 547.175781 284.339844 C 548.972656 283.53125 550.90625 283.207031 552.796875 283.445312 C 554.691406 283.664062 556.535156 284.460938 558.21875 285.597656 L 558.839844 286.042969 C 558.960938 286.117188 559.019531 286.183594 559.09375 286.246094 L 559.3125 286.425781 C 559.585938 286.71875 559.875 287.039062 560.132812 287.429688 C 560.664062 288.203125 561.113281 289.121094 561.519531 290.078125 C 563.09375 293.984375 563.929688 298.414062 564.597656 302.796875 C 565.242188 307.210938 565.652344 311.679688 565.941406 316.164062"/></g><g id="change1_2"><path fill="#ff8a8a" d="M 501.824219 303.652344 C 508.519531 302.609375 533.246094 316.679688 532.238281 328.570312 C 531.226562 340.472656 518.097656 343.164062 510.128906 344.511719 C 502.160156 345.859375 487.347656 349.109375 484.988281 338.671875 C 482.632812 328.234375 492.503906 305.117188 501.824219 303.652344"/></g><g id="change1_3"><path fill="#ff8a8a" d="M 524.695312 277.28125 C 528.878906 277.28125 532.269531 280.675781 532.269531 284.859375 C 532.269531 289.046875 528.878906 292.433594 524.695312 292.433594 C 520.507812 292.433594 517.117188 289.046875 517.117188 284.859375 C 517.117188 280.675781 520.507812 277.28125 524.695312 277.28125"/></g><g id="change4_1"><path fill="#a36a4f" d="M 497.140625 274.082031 C 496.660156 273.921875 496.175781 273.785156 495.691406 273.671875 C 493.164062 273.011719 490.578125 273 488.0625 273.148438 C 486.800781 273.308594 485.574219 273.371094 484.28125 273.691406 C 483.925781 273.761719 483.574219 273.859375 483.226562 273.96875 C 482.902344 265.28125 482.289062 254.996094 481.230469 243.019531 C 479.015625 217.992188 471.519531 205.210938 465.628906 198.902344 C 460.078125 192.976562 454.980469 191.480469 453.519531 191.164062 C 454.347656 188.871094 458.191406 176.757812 452.164062 163.53125 C 446.21875 150.46875 432.804688 140.414062 412.300781 133.632812 C 397.207031 128.640625 384.433594 129.597656 374.316406 136.480469 C 366.675781 141.671875 361.480469 149.679688 357.964844 157.820312 C 354.894531 164.898438 353.097656 172.085938 352.058594 177.621094 C 349.925781 176.671875 347.730469 175.835938 345.480469 175.148438 C 344.929688 174.988281 344.375 174.824219 343.824219 174.675781 L 335.097656 113.023438 C 335.070312 112.84375 334.902344 112.714844 334.710938 112.742188 C 334.664062 112.746094 334.625 112.761719 334.589844 112.789062 C 334.558594 112.761719 334.515625 112.746094 334.46875 112.742188 C 334.28125 112.714844 334.113281 112.84375 334.09375 113.023438 L 325.363281 174.683594 C 324.804688 174.824219 324.253906 174.988281 323.699219 175.148438 C 321.453125 175.835938 319.265625 176.664062 317.128906 177.621094 C 316.09375 172.085938 314.292969 164.898438 311.222656 157.820312 C 307.707031 149.679688 302.507812 141.671875 294.863281 136.480469 C 284.75 129.597656 271.976562 128.640625 256.882812 133.632812 C 236.378906 140.414062 222.96875 150.46875 217.015625 163.53125 C 210.988281 176.757812 214.832031 188.871094 215.667969 191.164062 C 214.199219 191.480469 209.101562 192.976562 203.558594 198.902344 C 197.660156 205.210938 190.164062 217.992188 187.949219 243.019531 C 185.371094 272.21875 185.429688 291.351562 185.875 301.847656 C 184.816406 302.1875 183.769531 302.542969 182.730469 302.921875 C 179.640625 304.050781 176.621094 305.363281 173.699219 306.867188 C 172.859375 307.296875 172.015625 307.742188 171.1875 308.207031 C 171.1875 308.1875 171.1875 308.164062 171.1875 308.144531 C 171.425781 298.179688 171.867188 288.210938 172.320312 278.230469 C 172.789062 268.25 173.222656 258.25 173.503906 248.238281 C 173.644531 243.226562 173.746094 238.214844 173.773438 233.199219 L 174.003906 225.816406 C 174.011719 224.585938 174.152344 223.359375 174.246094 222.132812 L 174.554688 218.464844 C 176.496094 198.902344 182.179688 179.753906 191.074219 162.253906 C 199.976562 144.75 212.058594 128.863281 226.578125 115.648438 C 241.078125 102.429688 257.898438 91.75 276.117188 84.519531 C 279.488281 83.171875 282.910156 81.945312 286.371094 80.832031 C 287.449219 80.496094 288.535156 80.160156 289.625 79.84375 C 303.835938 75.636719 318.644531 73.464844 333.460938 73.453125 C 353.058594 73.464844 372.640625 77.097656 390.964844 84.078125 C 391.960938 84.457031 392.949219 84.839844 393.933594 85.238281 C 394.148438 85.324219 394.359375 85.414062 394.566406 85.492188 C 411.53125 92.402344 427.324219 102.1875 441.136719 114.25 C 452.605469 124.265625 462.664062 135.90625 470.875 148.734375 C 471.042969 149 471.210938 149.261719 471.378906 149.523438 C 473.5625 152.972656 475.609375 156.515625 477.515625 160.125 C 486.667969 177.476562 492.503906 196.589844 494.4375 216.148438 L 494.753906 219.816406 L 494.914062 221.648438 C 494.964844 222.261719 494.964844 222.882812 494.988281 223.496094 C 495.058594 225.960938 495.164062 228.382812 495.214844 230.882812 C 495.246094 235.90625 495.375 240.929688 495.5625 245.941406 C 495.921875 255.347656 496.484375 264.722656 497.140625 274.082031"/></g><g id="change1_4"><path fill="#ff8a8a" d="M 488.105469 284.859375 C 492.296875 284.859375 495.683594 288.253906 495.683594 292.433594 C 495.683594 296.621094 492.296875 300.011719 488.105469 300.011719 C 486.34375 300.011719 484.714844 299.40625 483.429688 298.386719 C 483.191406 298.210938 482.976562 298.015625 482.769531 297.808594 C 481.386719 296.433594 480.53125 294.535156 480.53125 292.433594 C 480.53125 290.292969 481.421875 288.359375 482.855469 286.980469 C 483.0625 286.777344 483.292969 286.582031 483.527344 286.40625 C 484.800781 285.429688 486.390625 284.859375 488.105469 284.859375"/></g><g id="change3_2"><path fill="#ffffff" d="M 280.769531 177.277344 C 280.769531 167.296875 272.683594 159.203125 262.699219 159.203125 C 252.722656 159.203125 244.632812 167.296875 244.632812 177.277344 C 244.632812 187.257812 252.722656 195.34375 262.699219 195.34375 C 272.683594 195.34375 280.769531 187.257812 280.769531 177.277344 Z M 424.550781 177.277344 C 424.550781 167.296875 416.460938 159.203125 406.480469 159.203125 C 396.5 159.203125 388.410156 167.296875 388.410156 177.277344 C 388.410156 187.257812 396.5 195.34375 406.480469 195.34375 C 416.460938 195.34375 424.550781 187.257812 424.550781 177.277344 Z M 482.558594 274.171875 C 482.503906 274.191406 482.445312 274.210938 482.390625 274.226562 C 481.777344 274.472656 481.152344 274.675781 480.558594 274.980469 C 479.359375 275.53125 478.25 276.257812 477.203125 277.046875 C 476.1875 277.882812 475.210938 278.765625 474.390625 279.761719 C 473.539062 280.742188 472.785156 281.792969 472.121094 282.890625 C 471.445312 283.976562 470.855469 285.101562 470.320312 286.253906 C 469.265625 288.554688 468.476562 290.945312 467.871094 293.371094 C 467.5625 294.582031 467.300781 295.800781 467.082031 297.035156 C 467.023438 297.390625 466.96875 297.742188 466.914062 298.097656 C 466.785156 298.070312 466.652344 298.039062 466.523438 298.011719 L 465.015625 297.648438 L 463.460938 297.417969 C 461.371094 297.167969 459.15625 297.1875 456.980469 297.800781 C 454.808594 298.394531 452.773438 299.621094 451.210938 301.210938 C 449.640625 302.792969 448.503906 304.664062 447.660156 306.5625 C 445.972656 310.402344 445.324219 314.386719 444.980469 318.308594 C 444.648438 322.234375 444.738281 326.140625 445.027344 330.019531 C 445.183594 331.957031 445.378906 333.878906 445.695312 335.832031 C 446.019531 337.816406 446.46875 339.738281 446.992188 341.621094 C 448.046875 345.386719 449.351562 349.015625 450.753906 352.59375 C 451.371094 354.175781 452.011719 355.746094 452.671875 357.308594 L 375.914062 357.308594 C 375.894531 355.992188 375.847656 354.671875 375.777344 353.359375 C 375.433594 347.023438 374.585938 340.714844 373.125 334.523438 C 372.390625 331.433594 371.515625 328.371094 370.445312 325.359375 C 370.363281 325.128906 370.277344 324.902344 370.195312 324.671875 C 370.328125 324.613281 370.472656 324.542969 370.613281 324.476562 C 371.386719 324.121094 372.113281 323.683594 372.867188 323.285156 C 373.609375 322.878906 374.363281 322.476562 375.070312 322.011719 C 380.890625 318.488281 386.089844 313.984375 390.484375 308.839844 C 392.710938 306.289062 394.714844 303.554688 396.539062 300.710938 C 398.371094 297.875 400.023438 294.925781 401.488281 291.894531 C 402.964844 288.859375 404.257812 285.746094 405.375 282.570312 C 405.933594 280.980469 406.453125 279.375 406.910156 277.746094 C 407.375 276.109375 407.792969 274.515625 408.128906 272.761719 C 408.285156 272.003906 407.914062 271.199219 407.1875 270.835938 C 406.316406 270.398438 405.253906 270.75 404.816406 271.625 L 404.75 271.761719 C 404.65625 271.953125 404.421875 272.339844 404.226562 272.636719 C 403.996094 272.945312 403.785156 273.269531 403.523438 273.566406 C 403.03125 274.175781 402.472656 274.742188 401.894531 275.289062 C 400.722656 276.371094 399.363281 277.253906 397.953125 278.050781 C 395.09375 279.578125 391.871094 280.507812 388.566406 280.910156 C 388.359375 280.9375 388.15625 280.980469 387.953125 281.007812 L 387.320312 281.054688 L 386.066406 281.140625 L 384.816406 281.234375 C 384.398438 281.253906 383.972656 281.234375 383.558594 281.234375 L 381.023438 281.214844 C 380.183594 281.15625 379.335938 281.074219 378.484375 281.007812 C 377.644531 280.925781 376.789062 280.886719 375.980469 280.738281 L 374.746094 280.554688 L 373.550781 280.304688 C 373.152344 280.226562 372.753906 280.132812 372.371094 280.015625 C 371.988281 279.902344 371.597656 279.800781 371.21875 279.6875 C 370.472656 279.410156 369.726562 279.160156 369.03125 278.816406 C 367.621094 278.171875 366.335938 277.355469 365.1875 276.367188 C 364.027344 275.371094 363.003906 274.191406 362.019531 272.878906 C 360.0625 270.257812 358.222656 266.996094 355.414062 264.128906 C 352.644531 261.242188 348.96875 259.074219 345.25 257.90625 C 342.929688 257.144531 340.589844 256.65625 338.269531 256.332031 L 338.269531 249.421875 C 338.761719 249.289062 339.25 249.144531 339.730469 248.992188 C 341.027344 248.578125 342.300781 248.101562 343.5625 247.597656 C 346.074219 246.566406 348.511719 245.355469 350.839844 243.933594 C 355.492188 241.105469 359.722656 237.40625 362.96875 232.890625 C 364.570312 230.625 365.90625 228.160156 366.957031 225.597656 C 368.046875 223.035156 368.691406 220.324219 369.179688 217.617188 C 370.039062 212.167969 369.832031 206.652344 368.914062 201.34375 L 368.914062 201.316406 C 368.863281 200.960938 368.714844 200.609375 368.464844 200.316406 L 368.269531 200.074219 L 368.128906 199.925781 C 368.035156 199.828125 367.933594 199.714844 367.847656 199.636719 L 367.3125 199.144531 C 366.957031 198.859375 366.601562 198.535156 366.234375 198.296875 C 365.515625 197.761719 364.773438 197.316406 364.03125 196.878906 C 363.277344 196.488281 362.539062 196.050781 361.769531 195.734375 L 360.617188 195.21875 C 360.234375 195.054688 359.851562 194.914062 359.460938 194.765625 L 358.304688 194.320312 L 357.125 193.945312 C 356.34375 193.703125 355.5625 193.433594 354.773438 193.25 C 353.980469 193.050781 353.191406 192.832031 352.402344 192.644531 L 350.027344 192.164062 C 349.230469 191.984375 348.4375 191.878906 347.644531 191.753906 L 345.25 191.390625 C 343.65625 191.230469 342.066406 191.027344 340.46875 190.90625 C 340.167969 190.886719 339.855469 190.867188 339.554688 190.851562 C 338.261719 190.765625 336.976562 190.671875 335.6875 190.625 L 334.589844 190.597656 L 333.492188 190.625 C 332.207031 190.671875 330.914062 190.765625 329.621094 190.851562 C 329.316406 190.871094 329.015625 190.886719 328.710938 190.90625 C 327.121094 191.027344 325.527344 191.230469 323.929688 191.390625 L 321.546875 191.753906 C 320.746094 191.878906 319.949219 191.984375 319.15625 192.164062 L 316.777344 192.644531 C 315.992188 192.832031 315.203125 193.050781 314.40625 193.25 C 313.621094 193.433594 312.839844 193.703125 312.058594 193.945312 L 310.886719 194.320312 L 309.722656 194.765625 C 309.335938 194.914062 308.945312 195.054688 308.5625 195.21875 L 307.417969 195.734375 C 306.644531 196.050781 305.902344 196.488281 305.148438 196.878906 C 304.40625 197.316406 303.664062 197.761719 302.945312 198.296875 C 302.582031 198.535156 302.226562 198.859375 301.875 199.144531 L 301.335938 199.636719 C 301.25 199.714844 301.148438 199.828125 301.054688 199.925781 L 300.917969 200.074219 L 300.71875 200.316406 C 300.488281 200.589844 300.320312 200.941406 300.265625 201.324219 L 300.265625 201.34375 C 299.351562 206.652344 299.140625 212.167969 300.003906 217.617188 C 300.496094 220.324219 301.140625 223.035156 302.226562 225.597656 C 303.28125 228.160156 304.609375 230.625 306.210938 232.890625 C 309.457031 237.40625 313.6875 241.105469 318.339844 243.933594 C 320.671875 245.355469 323.117188 246.566406 325.621094 247.597656 C 326.878906 248.101562 328.152344 248.578125 329.453125 248.992188 C 329.9375 249.144531 330.421875 249.289062 330.914062 249.421875 L 330.914062 256.332031 C 328.585938 256.65625 326.253906 257.144531 323.9375 257.90625 C 320.214844 259.074219 316.535156 261.242188 313.769531 264.128906 C 310.960938 266.996094 309.121094 270.257812 307.160156 272.878906 C 306.179688 274.191406 305.15625 275.371094 303.996094 276.367188 C 302.84375 277.355469 301.566406 278.171875 300.15625 278.816406 C 299.457031 279.160156 298.710938 279.410156 297.96875 279.6875 C 297.585938 279.800781 297.195312 279.902344 296.8125 280.015625 C 296.425781 280.132812 296.035156 280.226562 295.632812 280.304688 L 294.433594 280.554688 L 293.207031 280.738281 C 292.398438 280.886719 291.539062 280.925781 290.695312 281.007812 C 289.847656 281.074219 289 281.15625 288.15625 281.214844 L 285.625 281.234375 C 285.207031 281.234375 284.78125 281.253906 284.367188 281.234375 L 283.113281 281.140625 L 281.859375 281.054688 L 281.234375 281.007812 C 281.027344 280.980469 280.824219 280.9375 280.613281 280.910156 C 277.308594 280.507812 274.089844 279.578125 271.234375 278.050781 C 269.824219 277.253906 268.460938 276.371094 267.289062 275.289062 C 266.707031 274.742188 266.148438 274.175781 265.65625 273.566406 C 265.402344 273.269531 265.1875 272.945312 264.957031 272.636719 C 264.761719 272.339844 264.53125 271.953125 264.433594 271.761719 L 264.363281 271.625 C 264.015625 270.933594 263.234375 270.519531 262.4375 270.683594 C 261.597656 270.851562 261.019531 271.589844 261.019531 272.421875 C 261.019531 272.535156 261.03125 272.648438 261.050781 272.761719 C 261.386719 274.515625 261.8125 276.109375 262.269531 277.746094 C 262.726562 279.375 263.246094 280.980469 263.804688 282.570312 C 264.925781 285.746094 266.21875 288.859375 267.691406 291.894531 C 269.160156 294.925781 270.808594 297.875 272.640625 300.710938 C 274.464844 303.554688 276.472656 306.289062 278.695312 308.839844 C 283.101562 313.984375 288.292969 318.488281 294.109375 322.011719 C 294.816406 322.476562 295.570312 322.878906 296.320312 323.285156 C 297.066406 323.683594 297.792969 324.121094 298.570312 324.476562 C 299.007812 324.683594 299.449219 324.894531 299.890625 325.101562 C 299.882812 325.109375 299.875 325.117188 299.875 325.121094 C 298.5625 328.066406 297.472656 331.089844 296.554688 334.152344 C 294.738281 340.292969 293.640625 346.625 293.226562 353.003906 C 293.132812 354.429688 293.085938 355.871094 293.074219 357.308594 L 248.753906 357.308594 C 248.875 357.0625 248.988281 356.816406 249.097656 356.566406 C 249.804688 354.9375 250.324219 353.238281 250.621094 351.527344 C 251.21875 348.109375 251.132812 344.652344 250.601562 341.328125 C 250.089844 337.984375 249.144531 334.761719 247.90625 331.667969 C 245.433594 325.488281 241.824219 319.84375 237.519531 314.851562 C 236.445312 313.609375 235.324219 312.394531 234.160156 311.230469 C 232.988281 310.066406 231.824219 308.933594 230.503906 307.835938 C 227.90625 305.652344 225.003906 303.808594 221.898438 302.386719 C 215.6875 299.527344 208.777344 298.488281 202.105469 298.796875 C 196.773438 299.046875 191.558594 300.085938 186.542969 301.640625 C 186.105469 291.140625 186.058594 272.101562 188.621094 243.078125 C 190.8125 218.289062 198.199219 205.648438 204.003906 199.414062 C 210.28125 192.671875 216.113281 191.753906 216.171875 191.75 C 216.273438 191.734375 216.363281 191.675781 216.414062 191.578125 C 216.46875 191.492188 216.476562 191.386719 216.4375 191.285156 C 216.382812 191.15625 211.089844 178.164062 217.628906 163.808594 C 223.5 150.925781 236.773438 140.984375 257.09375 134.269531 C 271.976562 129.347656 284.554688 130.277344 294.488281 137.03125 C 302.011719 142.148438 307.136719 150.042969 310.617188 158.078125 C 313.679688 165.175781 315.464844 172.386719 316.496094 177.902344 C 315.558594 178.328125 314.636719 178.777344 313.722656 179.25 C 310.515625 180.871094 307.503906 182.871094 304.675781 185.074219 C 301.8125 187.257812 299.28125 189.855469 296.980469 192.625 L 295.335938 194.765625 C 294.804688 195.5 294.351562 196.28125 293.859375 197.035156 L 293.140625 198.179688 C 292.917969 198.578125 292.722656 198.980469 292.519531 199.386719 L 291.300781 201.796875 C 289.902344 204.820312 288.238281 207.730469 286.183594 210.347656 C 284.136719 212.960938 281.6875 215.265625 278.898438 217.070312 C 277.511719 217.980469 276.035156 218.746094 274.515625 219.40625 C 273.738281 219.703125 272.964844 220 272.171875 220.234375 C 271.394531 220.449219 270.546875 220.671875 269.824219 220.761719 L 269.753906 220.765625 C 269.226562 220.835938 268.851562 221.304688 268.910156 221.832031 C 268.972656 222.355469 269.441406 222.742188 269.976562 222.679688 C 273.710938 222.269531 277.023438 220.886719 280.144531 219.070312 C 283.242188 217.246094 286.003906 214.859375 288.332031 212.128906 C 290.667969 209.398438 292.589844 206.347656 294.21875 203.171875 L 295.4375 200.996094 C 295.640625 200.636719 295.828125 200.273438 296.042969 199.917969 L 296.75 198.902344 C 297.234375 198.226562 297.671875 197.527344 298.183594 196.878906 L 299.78125 194.976562 C 302.003906 192.53125 304.414062 190.234375 307.140625 188.335938 C 309.84375 186.414062 312.695312 184.679688 315.726562 183.304688 C 316.238281 183.066406 316.75 182.839844 317.261719 182.625 C 317.480469 182.523438 317.695312 182.433594 317.910156 182.347656 C 320.097656 181.433594 322.335938 180.648438 324.605469 180.039062 C 324.753906 179.996094 324.898438 179.957031 325.046875 179.914062 C 325.136719 179.894531 325.222656 179.871094 325.3125 179.847656 C 328.375 179.089844 331.527344 178.597656 334.503906 178.621094 L 334.757812 178.621094 C 337.714844 178.601562 340.835938 179.09375 343.871094 179.847656 C 343.957031 179.871094 344.046875 179.894531 344.132812 179.914062 C 344.28125 179.957031 344.429688 179.996094 344.578125 180.039062 C 346.855469 180.648438 349.089844 181.433594 351.277344 182.347656 C 351.492188 182.433594 351.703125 182.523438 351.917969 182.625 C 352.429688 182.839844 352.941406 183.066406 353.453125 183.304688 C 356.484375 184.679688 359.339844 186.414062 362.039062 188.335938 C 364.769531 190.234375 367.1875 192.53125 369.40625 194.976562 L 370.996094 196.878906 C 371.507812 197.527344 371.945312 198.226562 372.433594 198.902344 L 373.140625 199.917969 C 373.351562 200.273438 373.542969 200.636719 373.742188 200.996094 L 374.964844 203.171875 C 376.59375 206.347656 378.511719 209.398438 380.851562 212.128906 C 383.179688 214.859375 385.941406 217.246094 389.039062 219.070312 C 392.164062 220.886719 395.46875 222.269531 399.207031 222.679688 C 399.730469 222.742188 400.203125 222.363281 400.269531 221.84375 C 400.339844 221.3125 399.960938 220.835938 399.4375 220.765625 L 399.363281 220.761719 C 398.636719 220.671875 397.785156 220.449219 397.011719 220.234375 C 396.21875 220 395.441406 219.703125 394.667969 219.40625 C 393.144531 218.746094 391.671875 217.980469 390.285156 217.070312 C 387.496094 215.265625 385.046875 212.960938 382.996094 210.347656 C 380.941406 207.730469 379.28125 204.820312 377.878906 201.796875 L 376.660156 199.386719 C 376.460938 198.980469 376.265625 198.578125 376.039062 198.179688 L 375.320312 197.035156 C 374.828125 196.28125 374.378906 195.5 373.847656 194.765625 L 372.203125 192.625 C 369.898438 189.855469 367.367188 187.257812 364.503906 185.074219 C 361.675781 182.871094 358.664062 180.871094 355.460938 179.25 C 354.546875 178.777344 353.621094 178.328125 352.6875 177.902344 C 353.71875 172.386719 355.5 165.175781 358.570312 158.078125 C 362.054688 150.042969 367.179688 142.148438 374.699219 137.03125 C 384.628906 130.277344 397.214844 129.347656 412.089844 134.269531 C 432.402344 140.984375 445.675781 150.917969 451.546875 163.792969 C 458.09375 178.144531 452.808594 191.15625 452.753906 191.285156 C 452.710938 191.386719 452.71875 191.492188 452.765625 191.578125 C 452.820312 191.675781 452.90625 191.734375 453.015625 191.75 C 453.066406 191.753906 458.898438 192.671875 465.175781 199.414062 C 470.988281 205.648438 478.371094 218.289062 480.558594 243.078125 C 481.621094 255.125 482.234375 265.457031 482.558594 274.171875"/></g><g id="change4_2"><path fill="#a36a4f" d="M 477.0625 138.851562 C 477.253906 142.074219 477.414062 145.308594 477.519531 148.527344 C 475.386719 144.972656 473.117188 141.503906 470.71875 138.121094 C 468.148438 107.230469 459.9375 22.835938 446.488281 15.828125 C 444.925781 15.019531 443.128906 14.949219 441.136719 15.632812 C 426.863281 20.492188 405.066406 62.4375 396.65625 79.59375 C 395.511719 79.128906 394.359375 78.671875 393.199219 78.226562 C 391.523438 77.582031 389.824219 76.976562 388.128906 76.382812 C 389.800781 72.292969 391.597656 68.207031 393.441406 64.171875 C 395.6875 59.269531 398.027344 54.414062 400.519531 49.640625 C 403.007812 44.859375 405.605469 40.144531 408.359375 35.539062 C 411.113281 30.933594 414.035156 26.433594 417.234375 22.175781 C 420.429688 17.933594 423.867188 13.871094 427.761719 10.480469 C 429.699219 8.796875 431.78125 7.3125 433.957031 6.230469 C 436.125 5.171875 438.40625 4.539062 440.570312 4.746094 C 444.921875 4.996094 448.511719 8.949219 451.25 13.234375 C 454.019531 17.585938 456.140625 22.488281 458.019531 27.464844 C 461.703125 37.484375 464.355469 47.964844 466.617188 58.503906 C 468.875 69.054688 470.625 79.734375 472.152344 90.4375 C 473.648438 101.152344 474.929688 111.898438 475.859375 122.679688 C 476.328125 128.066406 476.738281 133.464844 477.0625 138.851562"/></g><g id="change1_5"><path fill="#ff8a8a" d="M 462.820312 311.734375 C 467.003906 311.734375 470.394531 315.128906 470.394531 319.3125 C 470.394531 323.5 467.003906 326.886719 462.820312 326.886719 C 458.636719 326.886719 455.242188 323.5 455.242188 319.3125 C 455.242188 315.128906 458.636719 311.734375 462.820312 311.734375"/></g><g id="change3_3"><path fill="#ffffff" d="M 446.171875 16.425781 C 458.996094 23.105469 467.230469 105.449219 469.933594 137.03125 C 462.71875 127.039062 454.390625 117.851562 445.15625 109.675781 C 431.007812 97.171875 414.75 87.0625 397.296875 79.855469 C 401.503906 71.324219 409.058594 56.605469 417.296875 43.429688 C 425.53125 30.253906 434.441406 18.621094 441.355469 16.265625 C 443.167969 15.652344 444.785156 15.703125 446.171875 16.425781"/></g><g id="change2_2"><path fill="#75372d" d="M 406.480469 159.203125 C 416.460938 159.203125 424.550781 167.296875 424.550781 177.277344 C 424.550781 187.257812 416.460938 195.34375 406.480469 195.34375 C 396.5 195.34375 388.410156 187.257812 388.410156 177.277344 C 388.410156 167.296875 396.5 159.203125 406.480469 159.203125"/></g><g id="change2_3"><path fill="#75372d" d="M 402.648438 279.585938 C 402.453125 280.191406 402.25 280.796875 402.042969 281.398438 C 400.964844 284.453125 399.730469 287.449219 398.316406 290.359375 C 396.910156 293.269531 395.335938 296.097656 393.589844 298.8125 C 391.851562 301.527344 389.941406 304.132812 387.832031 306.5625 C 383.648438 311.453125 378.746094 315.707031 373.265625 319.042969 C 372.601562 319.488281 371.894531 319.855469 371.1875 320.242188 C 370.476562 320.617188 369.789062 321.035156 369.0625 321.371094 C 369.011719 321.398438 368.964844 321.417969 368.910156 321.445312 C 368.203125 319.78125 367.40625 318.144531 366.503906 316.558594 C 365.722656 315.128906 364.800781 313.761719 363.8125 312.4375 C 362.769531 311.136719 361.621094 309.882812 360.226562 308.804688 C 358.855469 307.734375 357.144531 306.867188 355.21875 306.609375 C 354.363281 306.523438 353.5625 306.46875 352.726562 306.414062 C 351.890625 306.433594 351.0625 306.386719 350.222656 306.46875 C 349.378906 306.550781 348.539062 306.617188 347.703125 306.8125 C 346.859375 306.941406 346.039062 307.214844 345.21875 307.464844 C 343.59375 308.058594 342.046875 308.878906 340.671875 309.929688 C 338.835938 311.3125 337.394531 313.039062 336.1875 314.847656 C 335.808594 314.28125 335.414062 313.742188 334.988281 313.210938 C 333.910156 311.875 332.683594 310.636719 331.277344 309.582031 C 328.496094 307.445312 324.898438 306.179688 321.359375 306.199219 C 319.585938 306.199219 317.855469 306.460938 316.191406 306.914062 C 314.386719 307.410156 312.804688 308.300781 311.390625 309.304688 C 308.5625 311.34375 306.429688 313.9375 304.5625 316.617188 C 303.378906 318.339844 302.328125 320.140625 301.382812 321.976562 C 300.964844 321.777344 300.542969 321.566406 300.117188 321.371094 C 299.390625 321.035156 298.703125 320.617188 297.996094 320.242188 C 297.289062 319.855469 296.582031 319.488281 295.914062 319.042969 C 290.433594 315.707031 285.53125 311.453125 281.347656 306.5625 C 279.242188 304.132812 277.335938 301.527344 275.589844 298.8125 C 273.847656 296.097656 272.269531 293.269531 270.863281 290.359375 C 269.457031 287.449219 268.21875 284.453125 267.144531 281.398438 C 266.929688 280.796875 266.726562 280.191406 266.53125 279.585938 C 267.421875 280.277344 268.351562 280.898438 269.308594 281.476562 C 272.613281 283.402344 276.285156 284.582031 279.960938 285.175781 L 280.65625 285.304688 L 281.34375 285.382812 L 282.730469 285.53125 L 284.117188 285.6875 C 284.582031 285.726562 285.039062 285.71875 285.503906 285.742188 L 288.277344 285.816406 C 289.195312 285.789062 290.109375 285.734375 291.027344 285.6875 C 291.949219 285.640625 292.859375 285.625 293.792969 285.496094 L 295.195312 285.335938 L 296.601562 285.09375 C 297.074219 285.019531 297.539062 284.925781 298.011719 284.804688 C 298.476562 284.691406 298.945312 284.582031 299.410156 284.453125 C 300.347656 284.15625 301.277344 283.875 302.191406 283.476562 C 304.015625 282.71875 305.789062 281.6875 307.363281 280.425781 C 308.933594 279.167969 310.292969 277.699219 311.472656 276.230469 C 313.828125 273.269531 315.632812 270.386719 317.890625 268.277344 C 322.058594 264.164062 328.21875 262.808594 334.589844 262.546875 C 334.597656 262.546875 334.597656 262.546875 334.605469 262.546875 C 340.976562 262.816406 347.128906 264.164062 351.292969 268.277344 C 353.546875 270.386719 355.351562 273.269531 357.710938 276.230469 C 358.890625 277.699219 360.25 279.167969 361.824219 280.425781 C 363.394531 281.6875 365.164062 282.71875 366.988281 283.476562 C 367.90625 283.875 368.84375 284.15625 369.769531 284.453125 C 370.234375 284.582031 370.707031 284.691406 371.171875 284.804688 C 371.644531 284.925781 372.113281 285.019531 372.578125 285.09375 L 373.988281 285.335938 L 375.386719 285.496094 C 376.324219 285.625 377.234375 285.640625 378.15625 285.6875 C 379.070312 285.734375 379.988281 285.789062 380.910156 285.816406 L 383.679688 285.742188 C 384.144531 285.71875 384.601562 285.726562 385.066406 285.6875 L 386.453125 285.53125 L 387.839844 285.382812 L 388.53125 285.304688 L 389.21875 285.175781 C 392.898438 284.582031 396.566406 283.402344 399.875 281.476562 C 400.828125 280.898438 401.761719 280.277344 402.648438 279.585938"/></g><g id="change2_4"><path fill="#75372d" d="M 343.117188 174.496094 L 334.589844 114.28125 L 326.066406 174.496094 C 328.679688 173.835938 331.363281 173.371094 334.191406 173.25 C 334.289062 173.242188 334.382812 173.234375 334.476562 173.234375 C 334.488281 173.234375 334.503906 173.234375 334.515625 173.234375 L 334.589844 173.234375 C 334.710938 173.242188 334.832031 173.242188 334.949219 173.25 C 337.789062 173.363281 340.488281 173.835938 343.117188 174.496094 Z M 399.4375 220.765625 C 399.960938 220.835938 400.339844 221.3125 400.269531 221.84375 C 400.203125 222.363281 399.730469 222.742188 399.207031 222.679688 C 395.46875 222.269531 392.164062 220.886719 389.039062 219.070312 C 385.941406 217.246094 383.179688 214.859375 380.851562 212.128906 C 378.511719 209.398438 376.59375 206.347656 374.964844 203.171875 L 373.742188 200.996094 C 373.542969 200.636719 373.351562 200.273438 373.140625 199.917969 L 372.433594 198.902344 C 371.945312 198.226562 371.507812 197.527344 370.996094 196.878906 L 369.40625 194.976562 C 367.1875 192.53125 364.769531 190.234375 362.039062 188.335938 C 359.339844 186.414062 356.484375 184.679688 353.453125 183.304688 C 352.941406 183.066406 352.429688 182.839844 351.917969 182.625 C 351.703125 182.523438 351.492188 182.433594 351.277344 182.347656 C 349.089844 181.433594 346.855469 180.648438 344.578125 180.039062 C 344.429688 179.996094 344.28125 179.957031 344.132812 179.914062 C 344.046875 179.894531 343.957031 179.871094 343.871094 179.847656 C 340.835938 179.09375 337.714844 178.601562 334.757812 178.621094 L 334.503906 178.621094 C 331.527344 178.597656 328.375 179.089844 325.3125 179.847656 C 325.222656 179.871094 325.136719 179.894531 325.046875 179.914062 C 324.898438 179.957031 324.753906 179.996094 324.605469 180.039062 C 322.335938 180.648438 320.097656 181.433594 317.910156 182.347656 C 317.695312 182.433594 317.480469 182.523438 317.261719 182.625 C 316.75 182.839844 316.238281 183.066406 315.726562 183.304688 C 312.695312 184.679688 309.84375 186.414062 307.140625 188.335938 C 304.414062 190.234375 302.003906 192.53125 299.78125 194.976562 L 298.183594 196.878906 C 297.671875 197.527344 297.234375 198.226562 296.75 198.902344 L 296.042969 199.917969 C 295.828125 200.273438 295.640625 200.636719 295.4375 200.996094 L 294.21875 203.171875 C 292.589844 206.347656 290.667969 209.398438 288.332031 212.128906 C 286.003906 214.859375 283.242188 217.246094 280.144531 219.070312 C 277.023438 220.886719 273.710938 222.269531 269.976562 222.679688 C 269.441406 222.742188 268.972656 222.355469 268.910156 221.832031 C 268.851562 221.304688 269.226562 220.835938 269.753906 220.765625 L 269.824219 220.761719 C 270.546875 220.671875 271.394531 220.449219 272.171875 220.234375 C 272.964844 220 273.738281 219.703125 274.515625 219.40625 C 276.035156 218.746094 277.511719 217.980469 278.898438 217.070312 C 281.6875 215.265625 284.136719 212.960938 286.183594 210.347656 C 288.238281 207.730469 289.902344 204.820312 291.300781 201.796875 L 292.519531 199.386719 C 292.722656 198.980469 292.917969 198.578125 293.140625 198.179688 L 293.859375 197.035156 C 294.351562 196.28125 294.804688 195.5 295.335938 194.765625 L 296.980469 192.625 C 299.28125 189.855469 301.8125 187.257812 304.675781 185.074219 C 307.503906 182.871094 310.515625 180.871094 313.722656 179.25 C 314.636719 178.777344 315.558594 178.328125 316.496094 177.902344 C 315.464844 172.386719 313.679688 165.175781 310.617188 158.078125 L 311.222656 157.820312 C 314.292969 164.898438 316.09375 172.085938 317.128906 177.621094 C 319.265625 176.664062 321.453125 175.835938 323.699219 175.148438 C 324.253906 174.988281 324.804688 174.824219 325.363281 174.683594 L 334.09375 113.023438 C 334.113281 112.84375 334.28125 112.714844 334.46875 112.742188 C 334.515625 112.746094 334.558594 112.761719 334.589844 112.789062 C 334.625 112.761719 334.664062 112.746094 334.710938 112.742188 C 334.902344 112.714844 335.070312 112.84375 335.097656 113.023438 L 343.824219 174.675781 C 344.375 174.824219 344.929688 174.988281 345.480469 175.148438 C 347.730469 175.835938 349.925781 176.671875 352.058594 177.621094 C 353.097656 172.085938 354.894531 164.898438 357.964844 157.820312 L 358.570312 158.078125 C 355.5 165.175781 353.71875 172.386719 352.6875 177.902344 C 353.621094 178.328125 354.546875 178.777344 355.460938 179.25 C 358.664062 180.871094 361.675781 182.871094 364.503906 185.074219 C 367.367188 187.257812 369.898438 189.855469 372.203125 192.625 L 373.847656 194.765625 C 374.378906 195.5 374.828125 196.28125 375.320312 197.035156 L 376.039062 198.179688 C 376.265625 198.578125 376.460938 198.980469 376.660156 199.386719 L 377.878906 201.796875 C 379.28125 204.820312 380.941406 207.730469 382.996094 210.347656 C 385.046875 212.960938 387.496094 215.265625 390.285156 217.070312 C 391.671875 217.980469 393.144531 218.746094 394.667969 219.40625 C 395.441406 219.703125 396.21875 220 397.011719 220.234375 C 397.785156 220.449219 398.636719 220.671875 399.363281 220.761719 L 399.4375 220.765625"/></g><g id="change1_6"><path fill="#ff8a8a" d="M 372.476562 357.308594 C 372.511719 360.894531 372.410156 364.527344 372.027344 368.082031 C 371.230469 375.429688 369.253906 382.492188 364.929688 388.386719 C 361.488281 393.242188 356.769531 397.152344 351.433594 399.882812 C 348.773438 401.253906 345.953125 402.339844 343.0625 403.132812 C 340.179688 403.921875 337.183594 404.441406 334.300781 404.433594 C 328.328125 404.386719 322.328125 403.066406 317.082031 400.3125 C 311.835938 397.566406 307.429688 393.347656 304.328125 388.265625 C 301.195312 383.195312 299.242188 377.375 298.078125 371.429688 C 297.867188 370.316406 297.6875 369.207031 297.539062 368.082031 C 297.054688 364.519531 296.839844 360.914062 296.890625 357.308594 C 296.898438 355.953125 296.953125 354.601562 297.046875 353.246094 C 297.457031 347.15625 298.519531 341.105469 300.273438 335.265625 C 301.15625 332.347656 302.199219 329.488281 303.4375 326.726562 C 303.449219 326.699219 303.464844 326.671875 303.476562 326.644531 C 303.949219 325.589844 304.453125 324.550781 304.992188 323.527344 C 305.84375 321.902344 306.777344 320.335938 307.808594 318.847656 C 309.5 316.421875 311.429688 314.140625 313.699219 312.53125 C 314.824219 311.730469 316.019531 311.082031 317.234375 310.753906 C 318.589844 310.394531 319.976562 310.199219 321.332031 310.214844 C 324.046875 310.226562 326.644531 311.164062 328.8125 312.832031 C 329.898438 313.667969 330.886719 314.664062 331.75 315.777344 C 332.179688 316.328125 332.585938 316.914062 332.949219 317.511719 C 333.136719 317.816406 333.3125 318.121094 333.472656 318.421875 C 333.566406 318.597656 333.660156 318.785156 333.742188 318.960938 L 334.476562 357.308594 L 334.679688 368.082031 L 334.941406 381.773438 C 334.949219 382.257812 335.339844 382.648438 335.824219 382.65625 C 336.316406 382.667969 336.726562 382.269531 336.730469 381.773438 L 336.996094 368.082031 L 337.195312 357.308594 L 337.9375 318.46875 C 337.9375 318.339844 337.929688 318.214844 337.910156 318.085938 C 339.230469 315.882812 340.699219 313.910156 342.617188 312.476562 C 343.730469 311.632812 344.96875 310.988281 346.28125 310.507812 C 346.953125 310.3125 347.613281 310.078125 348.328125 309.976562 C 349.015625 309.816406 349.734375 309.769531 350.449219 309.703125 C 351.164062 309.628906 351.898438 309.671875 352.617188 309.65625 C 353.347656 309.707031 354.105469 309.761719 354.800781 309.832031 C 355.984375 309.992188 357.179688 310.558594 358.257812 311.398438 C 359.339844 312.242188 360.316406 313.304688 361.21875 314.441406 C 362.09375 315.621094 362.921875 316.847656 363.636719 318.164062 C 364.484375 319.660156 365.230469 321.230469 365.910156 322.832031 C 366.363281 323.890625 366.78125 324.976562 367.171875 326.058594 C 367.226562 326.195312 367.273438 326.335938 367.320312 326.46875 C 368.328125 329.347656 369.171875 332.292969 369.863281 335.285156 C 371.261719 341.265625 372.074219 347.394531 372.382812 353.527344 C 372.433594 354.78125 372.464844 356.039062 372.476562 357.308594"/></g><g id="change2_5"><path fill="#75372d" d="M 364.410156 202.859375 C 365.152344 207.539062 365.273438 212.28125 364.546875 216.855469 C 363.769531 221.65625 361.933594 226.222656 359.144531 230.160156 C 356.316406 234.082031 352.597656 237.367188 348.394531 239.917969 C 346.296875 241.199219 344.074219 242.304688 341.78125 243.238281 C 340.640625 243.703125 339.480469 244.140625 338.300781 244.507812 C 337.714844 244.695312 337.121094 244.875 336.53125 245.03125 C 335.957031 245.191406 335.316406 245.347656 334.828125 245.449219 L 334.765625 245.460938 C 334.707031 245.476562 334.652344 245.488281 334.589844 245.503906 C 334.53125 245.488281 334.476562 245.476562 334.414062 245.460938 L 334.355469 245.449219 C 333.863281 245.347656 333.222656 245.191406 332.652344 245.03125 C 332.058594 244.875 331.464844 244.695312 330.878906 244.507812 C 329.707031 244.140625 328.542969 243.703125 327.398438 243.238281 C 325.109375 242.304688 322.886719 241.199219 320.785156 239.917969 C 316.582031 237.367188 312.867188 234.082031 310.035156 230.160156 C 307.257812 226.222656 305.410156 221.65625 304.636719 216.855469 C 304.304688 214.765625 304.152344 212.640625 304.152344 210.503906 C 304.152344 207.957031 304.375 205.390625 304.777344 202.855469 L 304.945312 202.699219 C 305.210938 202.496094 305.429688 202.289062 305.722656 202.101562 C 306.257812 201.703125 306.863281 201.351562 307.464844 200.996094 C 308.105469 200.671875 308.71875 200.316406 309.390625 200.039062 L 310.386719 199.59375 C 310.722656 199.460938 311.074219 199.339844 311.410156 199.210938 L 312.449219 198.820312 L 313.503906 198.488281 C 314.21875 198.273438 314.921875 198.03125 315.652344 197.871094 C 316.382812 197.695312 317.101562 197.5 317.828125 197.332031 L 320.050781 196.894531 C 320.785156 196.738281 321.539062 196.636719 322.285156 196.53125 L 324.535156 196.199219 C 326.050781 196.058594 327.566406 195.878906 329.089844 195.769531 C 330.617188 195.6875 332.140625 195.574219 333.667969 195.527344 L 334.589844 195.511719 L 335.515625 195.527344 C 337.042969 195.574219 338.570312 195.6875 340.09375 195.769531 C 341.613281 195.878906 343.128906 196.058594 344.644531 196.199219 L 346.894531 196.53125 C 347.648438 196.636719 348.394531 196.738281 349.132812 196.894531 L 351.351562 197.332031 C 352.078125 197.5 352.808594 197.695312 353.535156 197.871094 C 354.269531 198.03125 354.960938 198.273438 355.675781 198.488281 L 356.738281 198.820312 L 357.769531 199.210938 C 358.113281 199.339844 358.457031 199.460938 358.792969 199.59375 L 359.789062 200.039062 C 360.472656 200.316406 361.078125 200.671875 361.71875 200.996094 C 362.316406 201.351562 362.921875 201.703125 363.460938 202.101562 C 363.75 202.289062 363.972656 202.496094 364.234375 202.699219 L 364.410156 202.859375"/></g><g id="change3_4"><path fill="#ffffff" d="M 334.589844 114.28125 L 343.117188 174.496094 C 340.488281 173.835938 337.789062 173.363281 334.949219 173.25 C 334.832031 173.242188 334.710938 173.242188 334.589844 173.234375 L 334.515625 173.234375 C 334.503906 173.234375 334.488281 173.234375 334.476562 173.234375 C 334.382812 173.234375 334.289062 173.242188 334.191406 173.25 C 331.363281 173.371094 328.679688 173.835938 326.066406 174.496094 L 334.589844 114.28125"/></g><g id="change4_3"><path fill="#a36a4f" d="M 278.015625 64.171875 C 279.707031 67.871094 281.363281 71.613281 282.910156 75.359375 C 280.808594 76.058594 278.730469 76.820312 276.65625 77.609375 C 276.65625 77.601562 276.648438 77.601562 276.648438 77.59375 C 267.617188 59.386719 246.894531 20.3125 233.152344 15.632812 C 231.15625 14.949219 229.359375 15.019531 227.804688 15.828125 C 215.285156 22.351562 207.296875 95.9375 204.179688 130.996094 L 204.179688 131.003906 C 200.558594 135.625 197.175781 140.433594 194.050781 145.402344 C 194.144531 143.222656 194.265625 141.03125 194.394531 138.851562 C 194.710938 133.464844 195.121094 128.066406 195.59375 122.679688 C 196.527344 111.898438 197.800781 101.152344 199.304688 90.4375 C 200.824219 79.734375 202.578125 69.054688 204.839844 58.503906 C 207.101562 47.964844 209.757812 37.484375 213.4375 27.464844 C 215.3125 22.488281 217.433594 17.585938 220.199219 13.234375 C 222.941406 8.949219 226.53125 4.996094 230.882812 4.746094 C 233.042969 4.539062 235.324219 5.171875 237.5 6.230469 C 239.671875 7.3125 241.75 8.796875 243.691406 10.480469 C 247.582031 13.871094 251.03125 17.933594 254.222656 22.175781 C 257.414062 26.433594 260.335938 30.933594 263.09375 35.539062 C 265.851562 40.144531 268.453125 44.859375 270.929688 49.640625 C 273.421875 54.414062 275.765625 59.269531 278.015625 64.171875"/></g><g id="change2_6"><path fill="#75372d" d="M 262.699219 159.203125 C 272.683594 159.203125 280.769531 167.296875 280.769531 177.277344 C 280.769531 187.257812 272.683594 195.34375 262.699219 195.34375 C 252.722656 195.34375 244.632812 187.257812 244.632812 177.277344 C 244.632812 167.296875 252.722656 159.203125 262.699219 159.203125"/></g><g id="change3_5"><path fill="#ffffff" d="M 275.996094 77.84375 C 275.996094 77.851562 276.003906 77.851562 276.003906 77.855469 C 275.269531 78.140625 274.527344 78.410156 273.792969 78.703125 C 254.882812 86.28125 237.398438 97.359375 222.464844 111.171875 C 216.152344 116.984375 210.3125 123.285156 204.972656 129.988281 C 208.191406 94.6875 216.160156 22.65625 228.113281 16.425781 C 229.5 15.703125 231.125 15.644531 232.9375 16.265625 C 246.25 20.804688 266.957031 59.722656 275.996094 77.84375"/></g><g id="change3_6"><path fill="#ffffff" d="M 246.175781 342.046875 C 246.699219 344.984375 246.796875 347.964844 246.371094 350.816406 C 246.160156 352.242188 245.769531 353.617188 245.253906 354.914062 C 244.910156 355.757812 244.5 356.558594 244.015625 357.308594 C 243.75 357.710938 243.460938 358.101562 243.152344 358.464844 C 242.277344 359.523438 241.246094 360.40625 240.0625 361.144531 C 238.835938 361.90625 237.546875 362.511719 236.222656 362.875 C 234.894531 363.246094 233.539062 363.367188 232.207031 363.234375 C 230.867188 363.097656 229.554688 362.667969 228.316406 362.035156 C 227.078125 361.402344 225.90625 360.546875 224.847656 359.554688 C 224.316406 359.058594 223.8125 358.527344 223.332031 357.96875 C 223.15625 357.757812 222.976562 357.535156 222.800781 357.308594 C 222.523438 356.949219 222.269531 356.59375 222.058594 356.269531 C 221.722656 355.710938 221.0625 355.386719 220.382812 355.507812 C 219.527344 355.664062 218.953125 356.457031 219.070312 357.308594 C 219.074219 357.332031 219.074219 357.359375 219.082031 357.386719 L 219.082031 357.40625 C 219.269531 358.453125 219.398438 359.65625 219.46875 360.792969 C 219.539062 361.945312 219.546875 363.105469 219.507812 364.257812 C 219.453125 365.546875 219.324219 366.832031 219.109375 368.082031 C 218.941406 369.078125 218.710938 370.046875 218.4375 371.003906 C 217.78125 373.160156 216.820312 375.1875 215.480469 376.910156 C 214.152344 378.648438 212.449219 380.035156 210.515625 381.066406 C 210.019531 381.316406 209.492188 381.542969 208.980469 381.78125 L 208.207031 382.136719 C 207.949219 382.246094 207.683594 382.324219 207.410156 382.417969 C 206.878906 382.59375 206.355469 382.789062 205.816406 382.953125 L 204.1875 383.320312 C 202.003906 383.71875 199.769531 383.78125 197.601562 383.421875 C 195.433594 383.074219 193.324219 382.3125 191.433594 381.203125 C 190.960938 380.921875 190.480469 380.648438 190.058594 380.3125 C 189.601562 380.007812 189.1875 379.660156 188.785156 379.300781 C 188.011719 378.601562 187.257812 377.792969 186.84375 377.042969 C 186.476562 376.371094 185.714844 375.96875 184.914062 376.089844 C 183.890625 376.25 183.183594 377.207031 183.34375 378.230469 L 183.378906 378.460938 C 183.417969 378.648438 183.476562 378.984375 183.519531 379.261719 C 183.558594 379.558594 183.585938 379.855469 183.613281 380.15625 C 183.660156 380.757812 183.664062 381.355469 183.632812 381.957031 C 183.578125 383.152344 183.382812 384.332031 183.019531 385.4375 C 182.328125 387.660156 180.953125 389.558594 179.101562 390.972656 C 178.179688 391.6875 177.148438 392.277344 176.042969 392.777344 C 175.484375 393.019531 174.925781 393.246094 174.332031 393.4375 C 174.191406 393.484375 174.042969 393.542969 173.902344 393.585938 L 173.496094 393.6875 C 173.230469 393.738281 172.972656 393.839844 172.695312 393.867188 C 171.605469 394.070312 170.472656 394.035156 169.335938 393.914062 C 168.199219 393.726562 167.058594 393.445312 165.949219 392.992188 C 163.707031 392.128906 161.585938 390.769531 159.625 389.195312 C 157.671875 387.613281 155.882812 385.765625 154.277344 383.765625 C 151.078125 379.757812 148.574219 375.160156 146.9375 370.304688 C 146.695312 369.570312 146.464844 368.832031 146.265625 368.082031 C 145.300781 364.546875 144.808594 360.902344 144.9375 357.308594 C 144.964844 356.652344 145.011719 356.007812 145.070312 355.359375 C 145.550781 350.277344 147.003906 345.285156 149.152344 340.585938 C 151.300781 335.886719 154.117188 331.445312 157.367188 327.359375 C 159.03125 325.34375 160.742188 323.351562 162.609375 321.527344 C 164.445312 319.707031 166.433594 317.917969 168.394531 316.496094 C 170.863281 314.765625 173.503906 313.191406 176.226562 311.78125 C 178.945312 310.363281 181.761719 309.117188 184.628906 308.039062 C 185.148438 307.84375 185.671875 307.652344 186.199219 307.480469 C 186.421875 307.398438 186.636719 307.324219 186.859375 307.25 C 191.902344 305.546875 197.128906 304.394531 202.367188 304.117188 C 208.363281 303.800781 214.382812 304.691406 219.75 307.121094 C 222.4375 308.328125 224.941406 309.910156 227.238281 311.78125 C 228.375 312.691406 229.515625 313.753906 230.613281 314.8125 C 231.714844 315.875 232.765625 316.988281 233.789062 318.121094 C 237.859375 322.679688 241.265625 327.84375 243.609375 333.425781 C 244.78125 336.214844 245.675781 339.109375 246.175781 342.046875"/></g><g id="change3_7"><path fill="#ffffff" d="M 275.351562 167.914062 C 275.351562 171.460938 272.480469 174.332031 268.933594 174.332031 C 265.390625 174.332031 262.515625 171.460938 262.515625 167.914062 C 262.515625 164.367188 265.390625 161.496094 268.933594 161.496094 C 272.480469 161.496094 275.351562 164.367188 275.351562 167.914062"/></g><g id="change3_8"><path fill="#ffffff" d="M 419.316406 167.914062 C 419.316406 171.460938 416.445312 174.332031 412.898438 174.332031 C 409.355469 174.332031 406.480469 171.460938 406.480469 167.914062 C 406.480469 164.367188 409.355469 161.496094 412.898438 161.496094 C 416.445312 161.496094 419.316406 164.367188 419.316406 167.914062"/></g><g id="change1_7"><path fill="#ff8a8a" d="M 558.839844 296.808594 C 558.839844 300.8125 555.59375 304.058594 551.59375 304.058594 C 547.589844 304.058594 544.34375 300.8125 544.34375 296.808594 C 544.34375 292.808594 547.589844 289.5625 551.59375 289.5625 C 555.59375 289.5625 558.839844 292.808594 558.839844 296.808594"/></g></g></svg>